%
M48
M72
T01C0.0197
T02C0.0236
T03C0.0276
T04C0.0315
T05C0.0320
T06C0.0354
T07C0.0394
T08C0.0400
%
T01
X7231Y1667
X9231Y5667
X9231Y7167
X8981Y9167
X5981Y9667
X1981Y10167
X5481Y14917
X5231Y16917
X6981Y19167
X10481Y12417
X12481Y11167
X12731Y9917
X12231Y9417
X13731Y9417
X14231Y9917
X13981Y11167
X16481Y12067
X13631Y8217
X15731Y7917
X14481Y5917
X11981Y2667
X15481Y16917
X17481Y18417
X20481Y18917
T02
X8481Y15917
X9481Y16917
X8981Y17917
X10981Y17417
X12481Y16417
X13981Y15917
X12981Y18917
X9981Y19917
X11981Y12417
X15481Y11667
X18731Y11667
X18981Y17417
X10981Y9167
X11731Y8167
X8481Y8917
X7481Y8917
X8231Y10167
X3481Y8917
T03
X2350Y7932
X3137Y8425
X2350Y8917
X3137Y9409
X4761Y17787
X4249Y18102
X4761Y18417
X4249Y18732
X4761Y19047
T04
X2497Y19873
X2497Y16960
X10981Y2417
T05
X7981Y4917
X8981Y4917
X11031Y4917
X12931Y4917
X12981Y1417
X13981Y1417
X14981Y1417
X15981Y1417
X10981Y1417
X9981Y1417
X8481Y19917
X7481Y19917
X6481Y19917
X5481Y19917
X11481Y19917
X12481Y19917
X13481Y19917
X14481Y19917
T06
X2481Y14917
X2481Y13917
X3481Y13917
X3481Y14917
X3481Y12917
X2481Y12917
X2481Y11917
X2481Y10917
X3481Y10917
X3481Y11917
X16481Y15417
X16481Y16417
X17481Y16417
X18481Y16417
X19481Y16417
X19481Y15417
X18481Y15417
X17481Y15417
X20481Y15417
X20481Y16417
X20481Y8917
X20481Y7917
X19481Y7917
X19481Y8917
X19481Y6917
X20481Y6917
X20481Y5917
X20481Y4917
X19481Y4917
X19481Y5917
T07
X9731Y7917
X9731Y8917
T08
X2001Y1527
X2001Y3307
X4561Y3307
X5981Y3417
X5981Y4417
X5981Y5417
X5981Y6417
X5981Y7417
X7481Y7917
X7481Y6917
X7481Y5917
X5981Y2417
X5981Y1417
X4561Y1527
X7731Y13667
X8731Y13667
X9731Y13667
X10731Y13667
X17481Y19917
X18481Y19917
X19481Y19917
X20481Y19917
X20481Y12417
X20481Y11417
X20481Y10417
X20511Y3307
X20511Y1527
X17951Y1527
X17951Y3307
M30
