G75*
G70*
%OFA0B0*%
%FSLAX24Y24*%
%IPPOS*%
%LPD*%
%AMOC8*
5,1,8,0,0,1.08239X$1,22.5*
%
%ADD10C,0.0000*%
%ADD11C,0.0560*%
%ADD12C,0.0660*%
%ADD13C,0.0516*%
%ADD14R,0.0516X0.0516*%
%ADD15R,0.0472X0.0472*%
%ADD16R,0.0453X0.0571*%
%ADD17R,0.0551X0.0413*%
%ADD18R,0.0413X0.0551*%
%ADD19OC8,0.0680*%
%ADD20R,0.0660X0.0660*%
%ADD21R,0.0571X0.0453*%
%ADD22C,0.0787*%
%ADD23R,0.0118X0.0354*%
%ADD24R,0.0354X0.0118*%
%ADD25R,0.0709X0.0492*%
%ADD26R,0.1500X0.0760*%
%ADD27R,0.0420X0.0860*%
%ADD28C,0.0160*%
%ADD29C,0.0120*%
%ADD30C,0.0356*%
%ADD31C,0.0100*%
%ADD32C,0.0317*%
%ADD33C,0.0320*%
%ADD34C,0.0240*%
%ADD35C,0.0080*%
%ADD36C,0.0400*%
%ADD37C,0.0472*%
D10*
X001481Y000917D02*
X001481Y020602D01*
X021166Y020602D01*
X021166Y000917D01*
X001481Y000917D01*
D11*
X011031Y004917D03*
X012931Y004917D03*
D12*
X009731Y007917D03*
X007481Y006917D03*
X007481Y005917D03*
X007981Y004917D03*
X008981Y004917D03*
X005981Y005417D03*
X005981Y006417D03*
X005981Y007417D03*
X005981Y004417D03*
X005981Y003417D03*
X005981Y002417D03*
X010981Y001417D03*
X012981Y001417D03*
X013981Y001417D03*
X014981Y001417D03*
X019481Y005917D03*
X020481Y005917D03*
X020481Y004917D03*
X020481Y006917D03*
X019481Y006917D03*
X019481Y007917D03*
X019481Y008917D03*
X020481Y008917D03*
X020481Y007917D03*
X020481Y010417D03*
X020481Y011417D03*
X019481Y015417D03*
X019481Y016417D03*
X020481Y016417D03*
X018481Y016417D03*
X018481Y015417D03*
X017481Y015417D03*
X017481Y016417D03*
X016481Y016417D03*
X016481Y015417D03*
X014481Y019917D03*
X013481Y019917D03*
X012481Y019917D03*
X007481Y019917D03*
X006481Y019917D03*
X005481Y019917D03*
X003481Y014917D03*
X003481Y013917D03*
X002481Y013917D03*
X002481Y014917D03*
X002481Y012917D03*
X003481Y012917D03*
X003481Y011917D03*
X003481Y010917D03*
X002481Y011917D03*
X008731Y013667D03*
X009731Y013667D03*
X010731Y013667D03*
X018481Y019917D03*
X019481Y019917D03*
X020481Y019917D03*
D13*
X004761Y019047D03*
X004249Y018732D03*
X004761Y018417D03*
X004249Y018102D03*
X004761Y017787D03*
X003137Y009409D03*
X003137Y008425D03*
X002350Y007932D03*
D14*
X002350Y008917D03*
D15*
X002068Y006917D03*
X002894Y006917D03*
X002894Y005917D03*
X002068Y005917D03*
X002068Y004917D03*
X002894Y004917D03*
X015568Y019917D03*
X016394Y019917D03*
D16*
X016335Y003917D03*
X015627Y003917D03*
X013085Y003417D03*
X012377Y003417D03*
X011585Y003417D03*
X010877Y003417D03*
D17*
X008481Y007543D03*
X008481Y008291D03*
X005981Y015543D03*
X005981Y016291D03*
X004981Y016291D03*
X004981Y015543D03*
X018731Y010791D03*
X018731Y010043D03*
D18*
X013355Y006417D03*
X012607Y006417D03*
X011355Y006417D03*
X010607Y006417D03*
X004855Y007917D03*
X004107Y007917D03*
X004107Y008917D03*
X004855Y008917D03*
X004855Y009917D03*
X004107Y009917D03*
X004355Y006917D03*
X003607Y006917D03*
X003607Y005917D03*
X004355Y005917D03*
X004355Y004917D03*
X003607Y004917D03*
X005607Y017917D03*
X006355Y017917D03*
X006355Y018667D03*
X005607Y018667D03*
X015607Y018917D03*
X016355Y018917D03*
D19*
X018481Y003417D03*
X020481Y003417D03*
X020481Y001417D03*
X018481Y001417D03*
X003981Y001417D03*
X001981Y001417D03*
X001981Y003417D03*
X003981Y003417D03*
D20*
X005981Y001417D03*
X009981Y001417D03*
X015981Y001417D03*
X019481Y004917D03*
X020481Y012417D03*
X020481Y015417D03*
X017481Y019917D03*
X011481Y019917D03*
X008481Y019917D03*
X007731Y013667D03*
X009731Y008917D03*
X007481Y007917D03*
X002481Y010917D03*
D21*
X007481Y003271D03*
X007481Y002562D03*
X009481Y002562D03*
X009481Y003271D03*
D22*
X002891Y016960D02*
X002103Y016960D01*
X002103Y019873D02*
X002891Y019873D01*
D23*
X012148Y011972D03*
X012345Y011972D03*
X012542Y011972D03*
X012739Y011972D03*
X012936Y011972D03*
X013133Y011972D03*
X013330Y011972D03*
X013526Y011972D03*
X013723Y011972D03*
X013920Y011972D03*
X014117Y011972D03*
X014314Y011972D03*
X014314Y008862D03*
X014117Y008862D03*
X013920Y008862D03*
X013723Y008862D03*
X013526Y008862D03*
X013330Y008862D03*
X013133Y008862D03*
X012936Y008862D03*
X012739Y008862D03*
X012542Y008862D03*
X012345Y008862D03*
X012148Y008862D03*
D24*
X011676Y009334D03*
X011676Y009531D03*
X011676Y009728D03*
X011676Y009925D03*
X011676Y010121D03*
X011676Y010318D03*
X011676Y010515D03*
X011676Y010712D03*
X011676Y010909D03*
X011676Y011106D03*
X011676Y011302D03*
X011676Y011499D03*
X014786Y011499D03*
X014786Y011302D03*
X014786Y011106D03*
X014786Y010909D03*
X014786Y010712D03*
X014786Y010515D03*
X014786Y010318D03*
X014786Y010121D03*
X014786Y009925D03*
X014786Y009728D03*
X014786Y009531D03*
X014786Y009334D03*
D25*
X015243Y017917D03*
X014219Y017917D03*
X008743Y018667D03*
X007719Y018667D03*
D26*
X010981Y016275D03*
D27*
X010981Y018598D03*
X010076Y018598D03*
X011887Y018598D03*
D28*
X014481Y015417D02*
X015481Y015417D01*
X016481Y016417D01*
X017481Y017417D01*
X017981Y017417D01*
X018481Y017917D01*
X018481Y019917D01*
X017481Y019917D02*
X016394Y019917D01*
X015607Y019917D02*
X015607Y018917D01*
X015568Y019917D02*
X015607Y019917D01*
X018981Y017417D02*
X019481Y017917D01*
X019481Y019917D01*
X017481Y016417D02*
X016981Y015917D01*
X016981Y014917D01*
X016481Y014417D01*
X014481Y014417D01*
X014481Y014917D02*
X015981Y014917D01*
X016481Y015417D01*
X017481Y015417D02*
X017481Y014417D01*
X016981Y013917D01*
X014481Y013917D01*
X014481Y013417D02*
X017481Y013417D01*
X017981Y013917D01*
X017981Y015917D01*
X018481Y015417D02*
X018481Y013917D01*
X017481Y012917D01*
X014481Y012917D01*
X014481Y012417D02*
X017481Y012417D01*
X018981Y013917D01*
X018981Y015917D01*
X019481Y015417D02*
X019481Y013917D01*
X019981Y013917D02*
X019981Y015917D01*
X020481Y015417D02*
X020481Y013917D01*
X020481Y012417D02*
X019481Y012417D01*
X018731Y011667D01*
X019357Y011417D02*
X020481Y011417D01*
X019357Y011417D02*
X018731Y010791D01*
X018731Y010043D02*
X017946Y010043D01*
X017981Y009417D02*
X019981Y009417D01*
X020481Y008917D01*
X019981Y008417D02*
X020481Y007917D01*
X019981Y008417D02*
X017981Y008417D01*
X017981Y008917D02*
X019481Y008917D01*
X019481Y007917D02*
X017981Y007917D01*
X017981Y007417D02*
X019981Y007417D01*
X020481Y006917D01*
X019981Y006417D02*
X020481Y005917D01*
X019981Y005417D02*
X020481Y004917D01*
X019981Y005417D02*
X016981Y005417D01*
X016981Y005917D02*
X019481Y005917D01*
X019981Y006417D02*
X017981Y006417D01*
X017981Y006917D02*
X019481Y006917D01*
X019481Y004917D02*
X016981Y004917D01*
X013920Y007978D01*
X012607Y006417D02*
X012607Y005241D01*
X012931Y004917D01*
X013085Y004762D02*
X013085Y003417D01*
X011031Y004917D02*
X011981Y005867D01*
X011981Y006917D01*
X010981Y006917D02*
X009981Y006917D01*
X007981Y004917D01*
X007481Y004417D01*
X007481Y003271D01*
X005981Y003417D02*
X004981Y004417D01*
X004981Y005417D01*
X004481Y005917D01*
X004355Y005917D01*
X003607Y005917D02*
X002894Y005917D01*
X002894Y004917D02*
X003607Y004917D01*
X004355Y004917D02*
X004355Y004543D01*
X004981Y003917D01*
X004981Y002917D01*
X005481Y002417D01*
X005981Y002417D01*
X005981Y001417D02*
X003981Y001417D01*
X005981Y004417D02*
X005481Y004917D01*
X005481Y005917D01*
X004481Y006917D01*
X004355Y006917D01*
X003607Y006917D02*
X002894Y006917D01*
X002350Y007932D02*
X004091Y007932D01*
X004107Y007917D01*
X003615Y008425D02*
X004107Y008917D01*
X003481Y008917D02*
X002350Y008917D01*
X003137Y009409D02*
X003645Y009917D01*
X004107Y009917D01*
X004855Y009917D02*
X004981Y009917D01*
X006731Y008167D01*
X006731Y005917D01*
X006231Y005417D01*
X005981Y005417D01*
X005981Y006417D02*
X005731Y006417D01*
X005231Y006917D01*
X005231Y007541D01*
X004855Y007917D01*
X005355Y008417D02*
X005481Y008417D01*
X005981Y007917D01*
X005981Y007417D01*
X005355Y008417D02*
X004855Y008917D01*
X003615Y008425D02*
X003137Y008425D01*
X002981Y010417D02*
X002481Y010917D01*
X002981Y011417D02*
X002481Y011917D01*
X002981Y011417D02*
X005981Y011417D01*
X007731Y009667D01*
X008481Y009667D01*
X008731Y009417D02*
X007481Y009417D01*
X005981Y010917D01*
X003481Y010917D01*
X002981Y010417D02*
X005981Y010417D01*
X007481Y008917D01*
X008481Y008917D02*
X008481Y008291D01*
X007981Y007917D02*
X007481Y007917D01*
X008481Y007543D02*
X007855Y006917D01*
X007481Y006917D01*
X008981Y007917D02*
X009231Y008167D01*
X009231Y008417D01*
X009731Y008917D01*
X010231Y008417D02*
X009731Y007917D01*
X010231Y008417D02*
X010981Y008417D01*
X010607Y006417D02*
X010481Y006417D01*
X008981Y004917D01*
X009481Y004417D01*
X009481Y003271D01*
X010877Y003417D02*
X010877Y004762D01*
X016335Y003917D02*
X016481Y003917D01*
X016981Y004417D01*
X017981Y004417D01*
X018481Y003917D01*
X018481Y003417D01*
X008731Y013167D02*
X008731Y013667D01*
X008481Y012917D02*
X007481Y012917D01*
X005981Y014417D01*
X003981Y014417D01*
X003481Y014917D01*
X003481Y013917D02*
X005981Y013917D01*
X007481Y012417D01*
X008481Y012417D01*
X008481Y011917D02*
X007481Y011917D01*
X005981Y013417D01*
X002981Y013417D01*
X002481Y013917D01*
X002481Y012917D02*
X002981Y012417D01*
X005981Y012417D01*
X007481Y010917D01*
X008481Y010917D01*
X008231Y010667D02*
X007231Y010667D01*
X005981Y011917D01*
X003481Y011917D01*
X003481Y012917D02*
X005981Y012917D01*
X007481Y011417D01*
X008481Y011417D01*
X010731Y013667D02*
X011731Y013667D01*
X011481Y014417D02*
X007731Y014417D01*
X006731Y015417D01*
X006731Y017541D01*
X006355Y017917D01*
X006981Y017917D02*
X006981Y018417D01*
X006731Y018667D01*
X006355Y018667D01*
X005607Y018667D02*
X005607Y019041D01*
X004981Y019667D01*
X004231Y019667D01*
X003981Y019417D01*
X003981Y018999D01*
X004249Y018732D01*
X005607Y017917D02*
X005607Y017291D01*
X005981Y016917D01*
X005981Y016291D01*
X007231Y015417D02*
X007731Y014917D01*
X011481Y014917D01*
X013133Y014068D02*
X014481Y015417D01*
X007231Y015417D02*
X007231Y017667D01*
X006981Y017917D01*
D29*
X008174Y017862D02*
X011527Y017862D01*
X011527Y017744D02*
X008174Y017744D01*
X008174Y017625D02*
X011527Y017625D01*
X011527Y017507D02*
X008174Y017507D01*
X008174Y017388D02*
X011548Y017388D01*
X011527Y017440D02*
X011581Y017307D01*
X012176Y016713D01*
X012277Y016611D01*
X012409Y016557D01*
X014473Y016557D01*
X014473Y015657D01*
X014433Y015657D01*
X014345Y015620D01*
X014278Y015553D01*
X014209Y015484D01*
X008174Y015484D01*
X008174Y018295D01*
X008231Y018352D01*
X008322Y018261D01*
X009164Y018261D01*
X009257Y018354D01*
X009257Y018964D01*
X009706Y018515D01*
X009706Y018101D01*
X009799Y018008D01*
X010352Y018008D01*
X010446Y018101D01*
X010446Y019094D01*
X010352Y019188D01*
X009938Y019188D01*
X009028Y020098D01*
X008971Y020155D01*
X008971Y020313D01*
X008877Y020407D01*
X008174Y020407D01*
X008174Y020442D01*
X014473Y020442D01*
X014473Y019937D01*
X014461Y019937D01*
X014461Y020407D01*
X014443Y020407D01*
X014366Y020395D01*
X014293Y020371D01*
X014224Y020336D01*
X014162Y020290D01*
X014107Y020236D01*
X014062Y020173D01*
X014027Y020105D01*
X014003Y020031D01*
X013991Y019955D01*
X013991Y019937D01*
X014461Y019937D01*
X014461Y019897D01*
X013991Y019897D01*
X013991Y019878D01*
X014003Y019802D01*
X014027Y019729D01*
X014062Y019660D01*
X014107Y019597D01*
X014162Y019543D01*
X014224Y019498D01*
X014293Y019463D01*
X014366Y019439D01*
X014443Y019427D01*
X014461Y019427D01*
X014461Y019897D01*
X014473Y019897D01*
X014473Y018323D01*
X014279Y018323D01*
X014279Y017977D01*
X014159Y017977D01*
X014159Y018323D01*
X013844Y018323D01*
X013803Y018312D01*
X013767Y018291D01*
X013737Y018261D01*
X013716Y018224D01*
X013705Y018184D01*
X013705Y017977D01*
X014159Y017977D01*
X014159Y017857D01*
X013705Y017857D01*
X013705Y017650D01*
X013716Y017609D01*
X013737Y017572D01*
X013767Y017543D01*
X013803Y017522D01*
X013844Y017511D01*
X014159Y017511D01*
X014159Y017857D01*
X014279Y017857D01*
X014279Y017511D01*
X014473Y017511D01*
X014473Y017277D01*
X012630Y017277D01*
X012247Y017660D01*
X012247Y018091D01*
X012257Y018101D01*
X012257Y019094D01*
X012163Y019188D01*
X011610Y019188D01*
X011517Y019094D01*
X011517Y018101D01*
X011527Y018091D01*
X011527Y017440D01*
X011619Y017270D02*
X008174Y017270D01*
X008174Y017151D02*
X011737Y017151D01*
X011856Y017033D02*
X008174Y017033D01*
X008174Y016914D02*
X011974Y016914D01*
X012093Y016796D02*
X011807Y016796D01*
X011793Y016804D02*
X011752Y016815D01*
X011041Y016815D01*
X011041Y016335D01*
X010921Y016335D01*
X010921Y016215D01*
X010071Y016215D01*
X010071Y015874D01*
X010082Y015833D01*
X010103Y015797D01*
X010133Y015767D01*
X010169Y015746D01*
X010210Y015735D01*
X010921Y015735D01*
X010921Y016215D01*
X011041Y016215D01*
X011041Y015735D01*
X011752Y015735D01*
X011793Y015746D01*
X011829Y015767D01*
X011859Y015797D01*
X011880Y015833D01*
X011891Y015874D01*
X011891Y016215D01*
X011041Y016215D01*
X011041Y016335D01*
X011891Y016335D01*
X011891Y016676D01*
X011880Y016717D01*
X011859Y016753D01*
X011829Y016783D01*
X011793Y016804D01*
X011891Y016677D02*
X012211Y016677D01*
X012405Y016559D02*
X011891Y016559D01*
X011891Y016440D02*
X014473Y016440D01*
X014473Y016322D02*
X011041Y016322D01*
X011041Y016440D02*
X010921Y016440D01*
X010921Y016335D02*
X010921Y016815D01*
X010210Y016815D01*
X010169Y016804D01*
X010133Y016783D01*
X010103Y016753D01*
X010082Y016717D01*
X010071Y016676D01*
X010071Y016335D01*
X010921Y016335D01*
X010921Y016322D02*
X008174Y016322D01*
X008174Y016440D02*
X010071Y016440D01*
X010071Y016559D02*
X008174Y016559D01*
X008174Y016677D02*
X010071Y016677D01*
X010155Y016796D02*
X008174Y016796D01*
X008174Y016203D02*
X010071Y016203D01*
X010071Y016085D02*
X008174Y016085D01*
X008174Y015966D02*
X010071Y015966D01*
X010078Y015848D02*
X008174Y015848D01*
X008174Y015729D02*
X014473Y015729D01*
X014473Y015848D02*
X011884Y015848D01*
X011891Y015966D02*
X014473Y015966D01*
X014473Y016085D02*
X011891Y016085D01*
X011891Y016203D02*
X014473Y016203D01*
X014336Y015611D02*
X008174Y015611D01*
X008174Y015492D02*
X014217Y015492D01*
X014481Y014917D02*
X013330Y013765D01*
X013526Y013462D02*
X014481Y014417D01*
X014481Y013917D02*
X013723Y013159D01*
X013920Y012856D02*
X014481Y013417D01*
X014481Y012917D02*
X014117Y012552D01*
X014314Y012249D02*
X014481Y012417D01*
X015481Y011667D02*
X015481Y011499D01*
X016580Y010318D02*
X017981Y008917D01*
X017981Y008417D02*
X016276Y010121D01*
X015973Y009925D02*
X017981Y007917D01*
X017981Y007417D02*
X015670Y009728D01*
X015367Y009531D02*
X017981Y006917D01*
X017981Y006417D02*
X015064Y009334D01*
X014314Y008584D02*
X016981Y005917D01*
X016981Y005417D02*
X014117Y008281D01*
X013723Y008409D02*
X013631Y008317D01*
X013330Y008068D02*
X016981Y004417D01*
X013085Y004762D02*
X012931Y004917D01*
X011355Y006417D02*
X011355Y006791D01*
X011981Y007417D01*
X012481Y007417D01*
X012739Y007675D01*
X012936Y007371D02*
X012731Y007167D01*
X012231Y007167D01*
X011981Y006917D01*
X011731Y007667D02*
X010981Y006917D01*
X011731Y007667D02*
X012231Y007667D01*
X012542Y007978D01*
X012345Y008531D02*
X011981Y008167D01*
X011731Y008167D01*
X011481Y008917D02*
X010981Y008417D01*
X011481Y008917D02*
X012093Y008917D01*
X010981Y009167D02*
X010981Y009334D01*
X009489Y010909D02*
X008481Y011917D01*
X008481Y011417D02*
X009186Y010712D01*
X008883Y010515D02*
X008481Y010917D01*
X008231Y010667D02*
X008580Y010318D01*
X008739Y009925D02*
X008481Y009667D01*
X008731Y009417D02*
X009042Y009728D01*
X009792Y011106D02*
X008481Y012417D01*
X008481Y012917D02*
X010095Y011302D01*
X010398Y011499D02*
X008731Y013167D01*
X011481Y014417D02*
X012739Y013159D01*
X012542Y012856D02*
X011731Y013667D01*
X012936Y013462D02*
X011481Y014917D01*
X011041Y015848D02*
X010921Y015848D01*
X010921Y015966D02*
X011041Y015966D01*
X011041Y016085D02*
X010921Y016085D01*
X010921Y016203D02*
X011041Y016203D01*
X011041Y016559D02*
X010921Y016559D01*
X010921Y016677D02*
X011041Y016677D01*
X011041Y016796D02*
X010921Y016796D01*
X010936Y018008D02*
X010750Y018008D01*
X010709Y018019D01*
X010673Y018040D01*
X010643Y018070D01*
X010622Y018106D01*
X010611Y018147D01*
X010611Y018553D01*
X010936Y018553D01*
X010936Y018643D01*
X010936Y019188D01*
X010750Y019188D01*
X010709Y019177D01*
X010673Y019156D01*
X010643Y019126D01*
X010622Y019090D01*
X010611Y019049D01*
X010611Y018643D01*
X010936Y018643D01*
X011026Y018643D01*
X011026Y019188D01*
X011212Y019188D01*
X011253Y019177D01*
X011289Y019156D01*
X011319Y019126D01*
X011340Y019090D01*
X011351Y019049D01*
X011351Y018643D01*
X011026Y018643D01*
X011026Y018553D01*
X011351Y018553D01*
X011351Y018147D01*
X011340Y018106D01*
X011319Y018070D01*
X011289Y018040D01*
X011253Y018019D01*
X011212Y018008D01*
X011026Y018008D01*
X011026Y018553D01*
X010936Y018553D01*
X010936Y018008D01*
X010936Y018099D02*
X011026Y018099D01*
X011026Y018218D02*
X010936Y018218D01*
X010936Y018336D02*
X011026Y018336D01*
X011026Y018455D02*
X010936Y018455D01*
X010936Y018573D02*
X010446Y018573D01*
X010446Y018455D02*
X010611Y018455D01*
X010611Y018336D02*
X010446Y018336D01*
X010446Y018218D02*
X010611Y018218D01*
X010626Y018099D02*
X010443Y018099D01*
X010446Y018692D02*
X010611Y018692D01*
X010611Y018810D02*
X010446Y018810D01*
X010446Y018929D02*
X010611Y018929D01*
X010611Y019047D02*
X010446Y019047D01*
X010374Y019166D02*
X010690Y019166D01*
X010936Y019166D02*
X011026Y019166D01*
X011026Y019047D02*
X010936Y019047D01*
X010936Y018929D02*
X011026Y018929D01*
X011026Y018810D02*
X010936Y018810D01*
X010936Y018692D02*
X011026Y018692D01*
X011026Y018573D02*
X011517Y018573D01*
X011517Y018455D02*
X011351Y018455D01*
X011351Y018336D02*
X011517Y018336D01*
X011517Y018218D02*
X011351Y018218D01*
X011336Y018099D02*
X011519Y018099D01*
X011527Y017981D02*
X008174Y017981D01*
X008174Y018099D02*
X009708Y018099D01*
X009706Y018218D02*
X008174Y018218D01*
X008215Y018336D02*
X008247Y018336D01*
X009239Y018336D02*
X009706Y018336D01*
X009706Y018455D02*
X009257Y018455D01*
X009257Y018573D02*
X009648Y018573D01*
X009529Y018692D02*
X009257Y018692D01*
X009257Y018810D02*
X009411Y018810D01*
X009292Y018929D02*
X009257Y018929D01*
X009723Y019403D02*
X014473Y019403D01*
X014461Y019521D02*
X014473Y019521D01*
X014461Y019640D02*
X014473Y019640D01*
X014461Y019758D02*
X014473Y019758D01*
X014461Y019877D02*
X014473Y019877D01*
X014461Y019995D02*
X014473Y019995D01*
X014461Y020114D02*
X014473Y020114D01*
X014461Y020232D02*
X014473Y020232D01*
X014461Y020351D02*
X014473Y020351D01*
X014254Y020351D02*
X013709Y020351D01*
X013738Y020336D02*
X013669Y020371D01*
X013596Y020395D01*
X013520Y020407D01*
X013501Y020407D01*
X013501Y019937D01*
X013461Y019937D01*
X013461Y020407D01*
X013443Y020407D01*
X013366Y020395D01*
X013293Y020371D01*
X013224Y020336D01*
X013162Y020290D01*
X013107Y020236D01*
X013062Y020173D01*
X013027Y020105D01*
X013003Y020031D01*
X012991Y019955D01*
X012991Y019937D01*
X013461Y019937D01*
X013461Y019897D01*
X012991Y019897D01*
X012991Y019878D01*
X013003Y019802D01*
X013027Y019729D01*
X013062Y019660D01*
X013107Y019597D01*
X013162Y019543D01*
X013224Y019498D01*
X013293Y019463D01*
X013366Y019439D01*
X013443Y019427D01*
X013461Y019427D01*
X013461Y019897D01*
X013501Y019897D01*
X013501Y019937D01*
X013971Y019937D01*
X013971Y019955D01*
X013959Y020031D01*
X013935Y020105D01*
X013900Y020173D01*
X013855Y020236D01*
X013800Y020290D01*
X013738Y020336D01*
X013858Y020232D02*
X014105Y020232D01*
X014032Y020114D02*
X013931Y020114D01*
X013965Y019995D02*
X013997Y019995D01*
X013971Y019897D02*
X013501Y019897D01*
X013501Y019427D01*
X013520Y019427D01*
X013596Y019439D01*
X013669Y019463D01*
X013738Y019498D01*
X013800Y019543D01*
X013855Y019597D01*
X013900Y019660D01*
X013935Y019729D01*
X013959Y019802D01*
X013971Y019878D01*
X013971Y019897D01*
X013971Y019877D02*
X013991Y019877D01*
X014017Y019758D02*
X013945Y019758D01*
X013886Y019640D02*
X014077Y019640D01*
X014192Y019521D02*
X013770Y019521D01*
X013501Y019521D02*
X013461Y019521D01*
X013461Y019640D02*
X013501Y019640D01*
X013501Y019758D02*
X013461Y019758D01*
X013461Y019877D02*
X013501Y019877D01*
X013501Y019995D02*
X013461Y019995D01*
X013461Y020114D02*
X013501Y020114D01*
X013501Y020232D02*
X013461Y020232D01*
X013461Y020351D02*
X013501Y020351D01*
X013254Y020351D02*
X012709Y020351D01*
X012738Y020336D02*
X012669Y020371D01*
X012596Y020395D01*
X012520Y020407D01*
X012501Y020407D01*
X012501Y019937D01*
X012461Y019937D01*
X012461Y020407D01*
X012443Y020407D01*
X012366Y020395D01*
X012293Y020371D01*
X012224Y020336D01*
X012162Y020290D01*
X012107Y020236D01*
X012062Y020173D01*
X012027Y020105D01*
X012003Y020031D01*
X011991Y019955D01*
X011991Y019937D01*
X012461Y019937D01*
X012461Y019897D01*
X011991Y019897D01*
X011991Y019878D01*
X012003Y019802D01*
X012027Y019729D01*
X012062Y019660D01*
X012107Y019597D01*
X012162Y019543D01*
X012224Y019498D01*
X012293Y019463D01*
X012366Y019439D01*
X012443Y019427D01*
X012461Y019427D01*
X012461Y019897D01*
X012501Y019897D01*
X012501Y019937D01*
X012971Y019937D01*
X012971Y019955D01*
X012959Y020031D01*
X012935Y020105D01*
X012900Y020173D01*
X012855Y020236D01*
X012800Y020290D01*
X012738Y020336D01*
X012858Y020232D02*
X013105Y020232D01*
X013032Y020114D02*
X012931Y020114D01*
X012965Y019995D02*
X012997Y019995D01*
X012971Y019897D02*
X012501Y019897D01*
X012501Y019427D01*
X012520Y019427D01*
X012596Y019439D01*
X012669Y019463D01*
X012738Y019498D01*
X012800Y019543D01*
X012855Y019597D01*
X012900Y019660D01*
X012935Y019729D01*
X012959Y019802D01*
X012971Y019878D01*
X012971Y019897D01*
X012971Y019877D02*
X012991Y019877D01*
X013017Y019758D02*
X012945Y019758D01*
X012886Y019640D02*
X013077Y019640D01*
X013192Y019521D02*
X012770Y019521D01*
X012501Y019521D02*
X012461Y019521D01*
X012461Y019640D02*
X012501Y019640D01*
X012501Y019758D02*
X012461Y019758D01*
X012461Y019877D02*
X012501Y019877D01*
X012501Y019995D02*
X012461Y019995D01*
X012461Y020114D02*
X012501Y020114D01*
X012501Y020232D02*
X012461Y020232D01*
X012461Y020351D02*
X012501Y020351D01*
X012254Y020351D02*
X011933Y020351D01*
X011939Y020345D02*
X011909Y020375D01*
X011873Y020396D01*
X011832Y020407D01*
X011501Y020407D01*
X011501Y019937D01*
X011461Y019937D01*
X011461Y020407D01*
X011130Y020407D01*
X011089Y020396D01*
X011053Y020375D01*
X011023Y020345D01*
X011002Y020308D01*
X010991Y020268D01*
X010991Y019937D01*
X011461Y019937D01*
X011461Y019897D01*
X010991Y019897D01*
X010991Y019566D01*
X011002Y019525D01*
X011023Y019488D01*
X011053Y019459D01*
X011089Y019438D01*
X011130Y019427D01*
X011461Y019427D01*
X011461Y019897D01*
X011501Y019897D01*
X011501Y019937D01*
X011971Y019937D01*
X011971Y020268D01*
X011960Y020308D01*
X011939Y020345D01*
X011971Y020232D02*
X012105Y020232D01*
X012032Y020114D02*
X011971Y020114D01*
X011971Y019995D02*
X011997Y019995D01*
X011971Y019897D02*
X011501Y019897D01*
X011501Y019427D01*
X011832Y019427D01*
X011873Y019438D01*
X011909Y019459D01*
X011939Y019488D01*
X011960Y019525D01*
X011971Y019566D01*
X011971Y019897D01*
X011971Y019877D02*
X011991Y019877D01*
X011971Y019758D02*
X012017Y019758D01*
X011971Y019640D02*
X012077Y019640D01*
X012192Y019521D02*
X011958Y019521D01*
X012185Y019166D02*
X014473Y019166D01*
X014473Y019284D02*
X009842Y019284D01*
X009605Y019521D02*
X011004Y019521D01*
X010991Y019640D02*
X009486Y019640D01*
X009368Y019758D02*
X010991Y019758D01*
X010991Y019877D02*
X009249Y019877D01*
X009131Y019995D02*
X010991Y019995D01*
X010991Y020114D02*
X009012Y020114D01*
X008971Y020232D02*
X010991Y020232D01*
X011029Y020351D02*
X008933Y020351D01*
X011272Y019166D02*
X011588Y019166D01*
X011517Y019047D02*
X011351Y019047D01*
X011351Y018929D02*
X011517Y018929D01*
X011517Y018810D02*
X011351Y018810D01*
X011351Y018692D02*
X011517Y018692D01*
X012257Y018692D02*
X014473Y018692D01*
X014473Y018810D02*
X012257Y018810D01*
X012257Y018929D02*
X014473Y018929D01*
X014473Y019047D02*
X012257Y019047D01*
X012257Y018573D02*
X014473Y018573D01*
X014473Y018455D02*
X012257Y018455D01*
X012257Y018336D02*
X014473Y018336D01*
X014279Y018218D02*
X014159Y018218D01*
X014159Y018099D02*
X014279Y018099D01*
X014279Y017981D02*
X014159Y017981D01*
X014159Y017862D02*
X012247Y017862D01*
X012247Y017744D02*
X013705Y017744D01*
X013711Y017625D02*
X012282Y017625D01*
X012400Y017507D02*
X014473Y017507D01*
X014473Y017388D02*
X012519Y017388D01*
X012247Y017981D02*
X013705Y017981D01*
X013705Y018099D02*
X012254Y018099D01*
X012257Y018218D02*
X013714Y018218D01*
X014159Y017744D02*
X014279Y017744D01*
X014279Y017625D02*
X014159Y017625D01*
X011501Y019521D02*
X011461Y019521D01*
X011461Y019640D02*
X011501Y019640D01*
X011501Y019758D02*
X011461Y019758D01*
X011461Y019877D02*
X011501Y019877D01*
X011501Y019995D02*
X011461Y019995D01*
X011461Y020114D02*
X011501Y020114D01*
X011501Y020232D02*
X011461Y020232D01*
X011461Y020351D02*
X011501Y020351D01*
X005607Y017917D02*
X005107Y018417D01*
X004761Y018417D01*
X004249Y018102D02*
X004249Y017023D01*
X004981Y016291D01*
X011981Y012417D02*
X012148Y012417D01*
X008981Y007917D02*
X007981Y007917D01*
X011031Y004917D02*
X010877Y004762D01*
X016883Y010515D02*
X017981Y009417D01*
X017946Y010043D02*
X017276Y010712D01*
X020481Y013917D01*
X019981Y013917D02*
X016973Y010909D01*
X016670Y011106D02*
X019481Y013917D01*
X018981Y015917D02*
X019481Y016417D01*
X019981Y015917D02*
X020481Y016417D01*
X018481Y016417D02*
X017981Y015917D01*
D30*
X018981Y017417D03*
X013981Y015917D03*
X012481Y016417D03*
X010981Y017417D03*
X009481Y016917D03*
X008981Y017917D03*
X008481Y015917D03*
X011981Y012417D03*
X010981Y009167D03*
X011731Y008167D03*
X008481Y008917D03*
X007481Y008917D03*
X008231Y010167D03*
X003481Y008917D03*
X012981Y018917D03*
X009981Y019917D03*
X015481Y011667D03*
X018731Y011667D03*
D31*
X017276Y010712D02*
X014786Y010712D01*
X014786Y010909D02*
X016973Y010909D01*
X016670Y011106D02*
X014786Y011106D01*
X014786Y011499D02*
X015481Y011499D01*
X014786Y010515D02*
X016883Y010515D01*
X016580Y010318D02*
X014786Y010318D01*
X014786Y010121D02*
X016276Y010121D01*
X015973Y009925D02*
X014786Y009925D01*
X014786Y009728D02*
X015670Y009728D01*
X015367Y009531D02*
X014786Y009531D01*
X014786Y009334D02*
X015064Y009334D01*
X014314Y008862D02*
X014314Y008584D01*
X014117Y008862D02*
X014117Y008281D01*
X013920Y007978D02*
X013920Y008862D01*
X013723Y008862D02*
X013723Y008409D01*
X013330Y008068D02*
X013330Y008862D01*
X013133Y008862D02*
X013133Y007265D01*
X013481Y006917D01*
X013481Y006543D01*
X013355Y006417D01*
X012936Y007371D02*
X012936Y008862D01*
X012739Y008862D02*
X012739Y007675D01*
X012542Y007978D02*
X012542Y008862D01*
X012345Y008862D02*
X012345Y008531D01*
X012345Y008781D02*
X012345Y008862D01*
X012148Y008862D02*
X012093Y008917D01*
X011676Y009334D02*
X010981Y009334D01*
X011676Y009728D02*
X009042Y009728D01*
X008739Y009925D02*
X011676Y009925D01*
X011676Y010121D02*
X008276Y010121D01*
X008231Y010167D01*
X008580Y010318D02*
X011676Y010318D01*
X011676Y010515D02*
X008883Y010515D01*
X009186Y010712D02*
X011676Y010712D01*
X011676Y010909D02*
X009489Y010909D01*
X009792Y011106D02*
X011676Y011106D01*
X011676Y011302D02*
X010095Y011302D01*
X010398Y011499D02*
X011676Y011499D01*
X012148Y011972D02*
X012148Y012417D01*
X012542Y012856D02*
X012542Y011972D01*
X012739Y011972D02*
X012739Y013159D01*
X012936Y013462D02*
X012936Y011972D01*
X013133Y011972D02*
X013133Y014068D01*
X013330Y013765D02*
X013330Y011972D01*
X013526Y011972D02*
X013526Y013462D01*
X013723Y013159D02*
X013723Y011972D01*
X013920Y011972D02*
X013920Y012856D01*
X014117Y012552D02*
X014117Y011972D01*
X014314Y011972D02*
X014314Y012249D01*
D32*
X013981Y011167D03*
X014231Y009917D03*
X013731Y009417D03*
X012731Y009917D03*
X012231Y009417D03*
X013631Y008317D03*
X015731Y007917D03*
X014481Y005917D03*
X011981Y002667D03*
X009231Y005667D03*
X009231Y007167D03*
X008981Y009167D03*
X005981Y009667D03*
X001981Y010167D03*
X005481Y014917D03*
X005231Y016917D03*
X006981Y019167D03*
X010481Y012417D03*
X012481Y011167D03*
X016481Y012067D03*
X015481Y016917D03*
X017481Y018417D03*
X020481Y018917D03*
X007231Y001667D03*
D33*
X010981Y001417D02*
X010981Y002417D01*
X012981Y001917D02*
X012981Y001417D01*
X013981Y001417D02*
X013981Y001917D01*
X010731Y008917D02*
X009731Y008917D01*
X010731Y008917D02*
X010981Y009167D01*
X010076Y018598D02*
X008757Y019917D01*
X008481Y019917D01*
X008743Y019655D01*
X008743Y019417D01*
X008743Y018667D01*
X008481Y019917D02*
X007481Y019917D01*
X006481Y019917D01*
X005481Y019917D01*
D34*
X005981Y015543D02*
X005981Y015417D01*
X007731Y013667D01*
D35*
X007281Y013634D02*
X007047Y013634D01*
X006968Y013712D02*
X007281Y013712D01*
X007281Y013777D02*
X007281Y013400D01*
X006181Y014500D01*
X006064Y014617D01*
X004064Y014617D01*
X003908Y014772D01*
X003931Y014827D01*
X003931Y015006D01*
X003863Y015172D01*
X003736Y015298D01*
X003571Y015367D01*
X003392Y015367D01*
X003226Y015298D01*
X003100Y015172D01*
X003031Y015006D01*
X003031Y014827D01*
X003100Y014662D01*
X003226Y014535D01*
X003392Y014467D01*
X003571Y014467D01*
X003626Y014489D01*
X003861Y014254D01*
X003861Y014173D01*
X003736Y014298D01*
X003571Y014367D01*
X003392Y014367D01*
X003226Y014298D01*
X003100Y014172D01*
X003031Y014006D01*
X003031Y013827D01*
X003100Y013662D01*
X003145Y013617D01*
X003064Y013617D01*
X002908Y013772D01*
X002931Y013827D01*
X002931Y014006D01*
X002863Y014172D01*
X002736Y014298D01*
X002571Y014367D01*
X002392Y014367D01*
X002226Y014298D01*
X002100Y014172D01*
X002031Y014006D01*
X002031Y013827D01*
X002100Y013662D01*
X002226Y013535D01*
X002392Y013467D01*
X002571Y013467D01*
X002626Y013489D01*
X002781Y013334D01*
X002898Y013217D01*
X003145Y013217D01*
X003100Y013172D01*
X003031Y013006D01*
X003031Y012827D01*
X003100Y012662D01*
X003145Y012617D01*
X003064Y012617D01*
X002908Y012772D01*
X002931Y012827D01*
X002931Y013006D01*
X002863Y013172D01*
X002736Y013298D01*
X002571Y013367D01*
X002392Y013367D01*
X002226Y013298D01*
X002100Y013172D01*
X002031Y013006D01*
X002031Y012827D01*
X002100Y012662D01*
X002226Y012535D01*
X002392Y012467D01*
X002571Y012467D01*
X002626Y012489D01*
X002781Y012334D01*
X002898Y012217D01*
X003145Y012217D01*
X003100Y012172D01*
X003031Y012006D01*
X003031Y011827D01*
X003100Y011662D01*
X003145Y011617D01*
X003064Y011617D01*
X002908Y011772D01*
X002931Y011827D01*
X002931Y012006D01*
X002863Y012172D01*
X002736Y012298D01*
X002571Y012367D01*
X002392Y012367D01*
X002226Y012298D01*
X002100Y012172D01*
X002031Y012006D01*
X002031Y011827D01*
X002100Y011662D01*
X002226Y011535D01*
X002392Y011467D01*
X002571Y011467D01*
X002626Y011489D01*
X002748Y011367D01*
X002101Y011367D01*
X002031Y011296D01*
X002031Y010537D01*
X002101Y010467D01*
X002648Y010467D01*
X002898Y010217D01*
X003780Y010217D01*
X003780Y010117D01*
X003562Y010117D01*
X003445Y010000D01*
X003226Y009781D01*
X003212Y009787D01*
X003062Y009787D01*
X002923Y009729D01*
X002817Y009623D01*
X002759Y009484D01*
X002759Y009334D01*
X002817Y009195D01*
X002895Y009117D01*
X002727Y009117D01*
X002727Y009224D01*
X002657Y009294D01*
X002042Y009294D01*
X001972Y009224D01*
X001972Y008609D01*
X002042Y008539D01*
X002657Y008539D01*
X002727Y008609D01*
X002727Y008717D01*
X002895Y008717D01*
X002817Y008639D01*
X002759Y008500D01*
X002759Y008349D01*
X002817Y008211D01*
X002895Y008132D01*
X002676Y008132D01*
X002670Y008146D01*
X002564Y008253D01*
X002425Y008310D01*
X002274Y008310D01*
X002136Y008253D01*
X002029Y008146D01*
X001972Y008008D01*
X001972Y007857D01*
X002029Y007718D01*
X002136Y007612D01*
X002274Y007555D01*
X002425Y007555D01*
X002564Y007612D01*
X002670Y007718D01*
X002676Y007732D01*
X003780Y007732D01*
X003780Y007591D01*
X003851Y007521D01*
X004363Y007521D01*
X004434Y007591D01*
X004434Y008242D01*
X004363Y008312D01*
X003851Y008312D01*
X003780Y008242D01*
X003780Y008132D01*
X003379Y008132D01*
X003457Y008211D01*
X003463Y008225D01*
X003698Y008225D01*
X003994Y008521D01*
X004363Y008521D01*
X004434Y008591D01*
X004434Y009242D01*
X004363Y009312D01*
X003851Y009312D01*
X003780Y009242D01*
X003780Y008873D01*
X003779Y008872D01*
X003779Y008976D01*
X003734Y009086D01*
X003650Y009169D01*
X003540Y009215D01*
X003466Y009215D01*
X003515Y009334D01*
X003515Y009484D01*
X003509Y009498D01*
X003728Y009717D01*
X003780Y009717D01*
X003780Y009591D01*
X003851Y009521D01*
X004363Y009521D01*
X004434Y009591D01*
X004434Y010217D01*
X004528Y010217D01*
X004528Y009591D01*
X004599Y009521D01*
X005094Y009521D01*
X006531Y008084D01*
X006531Y006000D01*
X006283Y005751D01*
X006236Y005798D01*
X006071Y005867D01*
X005892Y005867D01*
X005726Y005798D01*
X005681Y005753D01*
X005681Y006000D01*
X005564Y006117D01*
X004682Y006999D01*
X004682Y007242D01*
X004612Y007312D01*
X004099Y007312D01*
X004028Y007242D01*
X004028Y006591D01*
X004099Y006521D01*
X004594Y006521D01*
X005281Y005834D01*
X005281Y004834D01*
X005554Y004561D01*
X005531Y004506D01*
X005531Y004327D01*
X005600Y004162D01*
X005726Y004035D01*
X005892Y003967D01*
X006071Y003967D01*
X006236Y004035D01*
X006363Y004162D01*
X006431Y004327D01*
X006431Y004506D01*
X006363Y004672D01*
X006236Y004798D01*
X006071Y004867D01*
X005892Y004867D01*
X005837Y004844D01*
X005681Y005000D01*
X005681Y005080D01*
X005726Y005035D01*
X005892Y004967D01*
X006071Y004967D01*
X006236Y005035D01*
X006363Y005162D01*
X006431Y005327D01*
X006431Y005334D01*
X006931Y005834D01*
X006931Y008250D01*
X006814Y008367D01*
X005182Y009999D01*
X005182Y010217D01*
X005898Y010217D01*
X007183Y008932D01*
X007183Y008857D01*
X007228Y008748D01*
X007312Y008664D01*
X007422Y008619D01*
X007540Y008619D01*
X007650Y008664D01*
X007734Y008748D01*
X007779Y008857D01*
X007779Y008976D01*
X007734Y009086D01*
X007650Y009169D01*
X007540Y009215D01*
X007466Y009215D01*
X007464Y009217D01*
X008814Y009217D01*
X008931Y009334D01*
X008931Y009362D01*
X009127Y009558D01*
X011359Y009558D01*
X011359Y009531D01*
X011676Y009531D01*
X011993Y009531D01*
X011993Y009608D01*
X011984Y009644D01*
X011973Y009662D01*
X011973Y011608D01*
X011903Y011678D01*
X011449Y011678D01*
X011440Y011669D01*
X010483Y011669D01*
X008931Y013221D01*
X008931Y013262D01*
X008986Y013285D01*
X009113Y013412D01*
X009181Y013577D01*
X009181Y013756D01*
X009113Y013922D01*
X008986Y014048D01*
X008821Y014117D01*
X008642Y014117D01*
X008476Y014048D01*
X008350Y013922D01*
X008281Y013756D01*
X008281Y013577D01*
X008350Y013412D01*
X008476Y013285D01*
X008531Y013262D01*
X008531Y013117D01*
X007564Y013117D01*
X007464Y013217D01*
X008111Y013217D01*
X008181Y013287D01*
X008181Y014046D01*
X008111Y014117D01*
X007621Y014117D01*
X006377Y015360D01*
X006377Y015799D01*
X006306Y015869D01*
X005656Y015869D01*
X005586Y015799D01*
X005586Y015286D01*
X005656Y015216D01*
X005842Y015216D01*
X005845Y015213D01*
X007281Y013777D01*
X007268Y013791D02*
X006890Y013791D01*
X006811Y013869D02*
X007189Y013869D01*
X007111Y013948D02*
X006733Y013948D01*
X006654Y014026D02*
X007032Y014026D01*
X006954Y014105D02*
X006576Y014105D01*
X006497Y014183D02*
X006875Y014183D01*
X006797Y014262D02*
X006419Y014262D01*
X006340Y014340D02*
X006718Y014340D01*
X006640Y014419D02*
X006262Y014419D01*
X006183Y014497D02*
X006561Y014497D01*
X006483Y014576D02*
X006105Y014576D01*
X006326Y014733D02*
X003948Y014733D01*
X003924Y014811D02*
X006247Y014811D01*
X006169Y014890D02*
X003931Y014890D01*
X003931Y014968D02*
X006090Y014968D01*
X006012Y015047D02*
X003914Y015047D01*
X003882Y015125D02*
X005933Y015125D01*
X005855Y015204D02*
X005304Y015204D01*
X005311Y015205D02*
X005343Y015224D01*
X005369Y015250D01*
X005387Y015282D01*
X005397Y015318D01*
X005397Y015503D01*
X005021Y015503D01*
X005021Y015583D01*
X004941Y015583D01*
X004941Y015889D01*
X004687Y015889D01*
X004651Y015880D01*
X004620Y015861D01*
X004593Y015835D01*
X004575Y015803D01*
X004566Y015768D01*
X004566Y015583D01*
X004941Y015583D01*
X004941Y015503D01*
X004566Y015503D01*
X004566Y015318D01*
X004575Y015282D01*
X004593Y015250D01*
X004620Y015224D01*
X004651Y015205D01*
X004687Y015196D01*
X004941Y015196D01*
X004941Y015503D01*
X005021Y015503D01*
X005021Y015196D01*
X005275Y015196D01*
X005311Y015205D01*
X005387Y015282D02*
X005590Y015282D01*
X005586Y015361D02*
X005397Y015361D01*
X005397Y015439D02*
X005586Y015439D01*
X005586Y015518D02*
X005021Y015518D01*
X005021Y015583D02*
X005397Y015583D01*
X005397Y015768D01*
X005387Y015803D01*
X005369Y015835D01*
X005343Y015861D01*
X005311Y015880D01*
X005275Y015889D01*
X005021Y015889D01*
X005021Y015583D01*
X005021Y015596D02*
X004941Y015596D01*
X004941Y015518D02*
X001621Y015518D01*
X001621Y015596D02*
X004566Y015596D01*
X004566Y015675D02*
X001621Y015675D01*
X001621Y015753D02*
X004566Y015753D01*
X004591Y015832D02*
X001621Y015832D01*
X001621Y015910D02*
X006531Y015910D01*
X006531Y015832D02*
X006344Y015832D01*
X006377Y015753D02*
X006531Y015753D01*
X006531Y015675D02*
X006377Y015675D01*
X006377Y015596D02*
X006531Y015596D01*
X006531Y015518D02*
X006377Y015518D01*
X006377Y015439D02*
X006531Y015439D01*
X006531Y015361D02*
X006377Y015361D01*
X006455Y015282D02*
X006583Y015282D01*
X006531Y015334D02*
X006648Y015217D01*
X007531Y014334D01*
X007648Y014217D01*
X011427Y014217D01*
X011777Y013867D01*
X011135Y013867D01*
X011113Y013922D01*
X010986Y014048D01*
X010821Y014117D01*
X010642Y014117D01*
X010476Y014048D01*
X010350Y013922D01*
X010281Y013756D01*
X010281Y013577D01*
X010350Y013412D01*
X010476Y013285D01*
X010642Y013217D01*
X010821Y013217D01*
X010986Y013285D01*
X011113Y013412D01*
X011135Y013467D01*
X011677Y013467D01*
X012372Y012771D01*
X012372Y012289D01*
X012345Y012289D01*
X012318Y012289D01*
X012318Y012332D01*
X012328Y012342D01*
X012328Y012491D01*
X012223Y012597D01*
X012223Y012597D01*
X012150Y012669D01*
X012040Y012715D01*
X011922Y012715D01*
X011812Y012669D01*
X011728Y012586D01*
X011683Y012476D01*
X011683Y012357D01*
X011728Y012248D01*
X011812Y012164D01*
X011922Y012119D01*
X011969Y012119D01*
X011969Y011745D01*
X012040Y011675D01*
X012214Y011675D01*
X012232Y011664D01*
X012268Y011655D01*
X012345Y011655D01*
X012345Y011972D01*
X012345Y012289D01*
X012345Y011972D01*
X012345Y011972D01*
X012345Y011972D01*
X012345Y011655D01*
X012423Y011655D01*
X012458Y011664D01*
X012476Y011675D01*
X014423Y011675D01*
X014493Y011745D01*
X014493Y012174D01*
X014536Y012217D01*
X017527Y012217D01*
X016586Y011276D01*
X015103Y011276D01*
X015103Y011302D01*
X014786Y011302D01*
X014469Y011302D01*
X014469Y011225D01*
X014479Y011189D01*
X014489Y011171D01*
X014489Y009225D01*
X014559Y009155D01*
X014988Y009155D01*
X017781Y006362D01*
X017781Y006334D01*
X017898Y006217D01*
X019145Y006217D01*
X019100Y006172D01*
X019077Y006117D01*
X017036Y006117D01*
X014493Y008659D01*
X014493Y009088D01*
X014423Y009159D01*
X013658Y009159D01*
X013639Y009169D01*
X013604Y009179D01*
X013526Y009179D01*
X013449Y009179D01*
X013413Y009169D01*
X013395Y009159D01*
X012040Y009159D01*
X011978Y009097D01*
X011407Y009097D01*
X010927Y008617D01*
X010181Y008617D01*
X010181Y008637D01*
X010787Y008637D01*
X010890Y008679D01*
X011106Y008896D01*
X011150Y008914D01*
X011234Y008998D01*
X011279Y009107D01*
X011279Y009164D01*
X011440Y009164D01*
X011449Y009155D01*
X011903Y009155D01*
X011973Y009225D01*
X011973Y009400D01*
X011984Y009418D01*
X011993Y009453D01*
X011993Y009531D01*
X011676Y009531D01*
X011676Y009531D01*
X011676Y009531D01*
X011359Y009531D01*
X011359Y009504D01*
X011066Y009504D01*
X011056Y009514D01*
X010907Y009514D01*
X010801Y009409D01*
X010801Y009408D01*
X010728Y009336D01*
X010710Y009292D01*
X010615Y009197D01*
X010181Y009197D01*
X010181Y009296D01*
X010111Y009367D01*
X009351Y009367D01*
X009281Y009296D01*
X009281Y008750D01*
X009031Y008500D01*
X009031Y008250D01*
X008878Y008097D01*
X008877Y008097D01*
X008877Y008547D01*
X008806Y008617D01*
X008681Y008617D01*
X008681Y008695D01*
X008734Y008748D01*
X008779Y008857D01*
X008779Y008976D01*
X008734Y009086D01*
X008650Y009169D01*
X008540Y009215D01*
X008422Y009215D01*
X008312Y009169D01*
X008228Y009086D01*
X008183Y008976D01*
X008183Y008857D01*
X008228Y008748D01*
X008281Y008695D01*
X008281Y008617D01*
X008156Y008617D01*
X008086Y008547D01*
X008086Y008097D01*
X008084Y008097D01*
X008064Y008117D01*
X007931Y008117D01*
X007931Y008296D01*
X008086Y008296D01*
X008086Y008374D02*
X006806Y008374D01*
X006728Y008453D02*
X008086Y008453D01*
X008086Y008531D02*
X006649Y008531D01*
X006571Y008610D02*
X008148Y008610D01*
X008281Y008688D02*
X007674Y008688D01*
X007742Y008767D02*
X008221Y008767D01*
X008188Y008845D02*
X007774Y008845D01*
X007779Y008924D02*
X008183Y008924D01*
X008194Y009002D02*
X007768Y009002D01*
X007736Y009081D02*
X008226Y009081D01*
X008302Y009159D02*
X007660Y009159D01*
X007183Y008924D02*
X006257Y008924D01*
X006178Y009002D02*
X007113Y009002D01*
X007034Y009081D02*
X006100Y009081D01*
X006021Y009159D02*
X006956Y009159D01*
X006877Y009238D02*
X005943Y009238D01*
X005864Y009316D02*
X006799Y009316D01*
X006720Y009395D02*
X005786Y009395D01*
X005707Y009473D02*
X006642Y009473D01*
X006563Y009552D02*
X005629Y009552D01*
X005550Y009630D02*
X006485Y009630D01*
X006406Y009709D02*
X005472Y009709D01*
X005393Y009787D02*
X006328Y009787D01*
X006249Y009866D02*
X005315Y009866D01*
X005236Y009944D02*
X006171Y009944D01*
X006092Y010023D02*
X005182Y010023D01*
X005182Y010101D02*
X006014Y010101D01*
X005935Y010180D02*
X005182Y010180D01*
X004528Y010180D02*
X004434Y010180D01*
X004434Y010101D02*
X004528Y010101D01*
X004528Y010023D02*
X004434Y010023D01*
X004434Y009944D02*
X004528Y009944D01*
X004528Y009866D02*
X004434Y009866D01*
X004434Y009787D02*
X004528Y009787D01*
X004528Y009709D02*
X004434Y009709D01*
X004434Y009630D02*
X004528Y009630D01*
X004568Y009552D02*
X004394Y009552D01*
X004599Y009312D02*
X004528Y009242D01*
X004528Y008591D01*
X004599Y008521D01*
X004968Y008521D01*
X005155Y008334D01*
X005272Y008217D01*
X005182Y008217D01*
X005182Y008242D02*
X005112Y008312D01*
X004599Y008312D01*
X004528Y008242D01*
X004528Y007591D01*
X004599Y007521D01*
X004968Y007521D01*
X005031Y007458D01*
X005031Y006834D01*
X005531Y006334D01*
X005531Y006327D01*
X005600Y006162D01*
X005726Y006035D01*
X005892Y005967D01*
X006071Y005967D01*
X006236Y006035D01*
X006363Y006162D01*
X006431Y006327D01*
X006431Y006506D01*
X006363Y006672D01*
X006236Y006798D01*
X006071Y006867D01*
X005892Y006867D01*
X005726Y006798D01*
X005679Y006751D01*
X005431Y007000D01*
X005431Y007624D01*
X005314Y007741D01*
X005182Y007873D01*
X005182Y008242D01*
X005193Y008296D02*
X005128Y008296D01*
X005115Y008374D02*
X003847Y008374D01*
X003834Y008296D02*
X003769Y008296D01*
X003780Y008217D02*
X003460Y008217D01*
X003385Y008139D02*
X003780Y008139D01*
X003926Y008453D02*
X005036Y008453D01*
X005272Y008217D02*
X005398Y008217D01*
X005781Y007834D01*
X005781Y007821D01*
X005726Y007798D01*
X005600Y007672D01*
X005531Y007506D01*
X005531Y007327D01*
X005600Y007162D01*
X005726Y007035D01*
X005892Y006967D01*
X006071Y006967D01*
X006236Y007035D01*
X006363Y007162D01*
X006431Y007327D01*
X006431Y007506D01*
X006363Y007672D01*
X006236Y007798D01*
X006181Y007821D01*
X006181Y008000D01*
X006064Y008117D01*
X005564Y008617D01*
X005438Y008617D01*
X005182Y008873D01*
X005182Y009242D01*
X005112Y009312D01*
X004599Y009312D01*
X004528Y009238D02*
X004434Y009238D01*
X004434Y009159D02*
X004528Y009159D01*
X004528Y009081D02*
X004434Y009081D01*
X004434Y009002D02*
X004528Y009002D01*
X004528Y008924D02*
X004434Y008924D01*
X004434Y008845D02*
X004528Y008845D01*
X004528Y008767D02*
X004434Y008767D01*
X004434Y008688D02*
X004528Y008688D01*
X004528Y008610D02*
X004434Y008610D01*
X004374Y008531D02*
X004589Y008531D01*
X004582Y008296D02*
X004380Y008296D01*
X004434Y008217D02*
X004528Y008217D01*
X004528Y008139D02*
X004434Y008139D01*
X004434Y008060D02*
X004528Y008060D01*
X004528Y007982D02*
X004434Y007982D01*
X004434Y007903D02*
X004528Y007903D01*
X004528Y007825D02*
X004434Y007825D01*
X004434Y007746D02*
X004528Y007746D01*
X004528Y007668D02*
X004434Y007668D01*
X004432Y007589D02*
X004531Y007589D01*
X004649Y007275D02*
X005031Y007275D01*
X005031Y007197D02*
X004682Y007197D01*
X004682Y007118D02*
X005031Y007118D01*
X005031Y007040D02*
X004682Y007040D01*
X004719Y006961D02*
X005031Y006961D01*
X005031Y006883D02*
X004798Y006883D01*
X004876Y006804D02*
X005061Y006804D01*
X005139Y006726D02*
X004955Y006726D01*
X005033Y006647D02*
X005218Y006647D01*
X005296Y006569D02*
X005112Y006569D01*
X005190Y006490D02*
X005375Y006490D01*
X005453Y006412D02*
X005269Y006412D01*
X005347Y006333D02*
X005531Y006333D01*
X005561Y006255D02*
X005426Y006255D01*
X005504Y006176D02*
X005594Y006176D01*
X005583Y006098D02*
X005664Y006098D01*
X005661Y006019D02*
X005765Y006019D01*
X005681Y005941D02*
X006472Y005941D01*
X006531Y006019D02*
X006197Y006019D01*
X006299Y006098D02*
X006531Y006098D01*
X006531Y006176D02*
X006369Y006176D01*
X006401Y006255D02*
X006531Y006255D01*
X006531Y006333D02*
X006431Y006333D01*
X006431Y006412D02*
X006531Y006412D01*
X006531Y006490D02*
X006431Y006490D01*
X006405Y006569D02*
X006531Y006569D01*
X006531Y006647D02*
X006373Y006647D01*
X006308Y006726D02*
X006531Y006726D01*
X006531Y006804D02*
X006221Y006804D01*
X006241Y007040D02*
X006531Y007040D01*
X006531Y007118D02*
X006319Y007118D01*
X006377Y007197D02*
X006531Y007197D01*
X006531Y007275D02*
X006410Y007275D01*
X006431Y007354D02*
X006531Y007354D01*
X006531Y007432D02*
X006431Y007432D01*
X006429Y007511D02*
X006531Y007511D01*
X006531Y007589D02*
X006397Y007589D01*
X006364Y007668D02*
X006531Y007668D01*
X006531Y007746D02*
X006288Y007746D01*
X006181Y007825D02*
X006531Y007825D01*
X006531Y007903D02*
X006181Y007903D01*
X006181Y007982D02*
X006531Y007982D01*
X006531Y008060D02*
X006120Y008060D01*
X006042Y008139D02*
X006476Y008139D01*
X006398Y008217D02*
X005963Y008217D01*
X005885Y008296D02*
X006319Y008296D01*
X006241Y008374D02*
X005806Y008374D01*
X005728Y008453D02*
X006162Y008453D01*
X006084Y008531D02*
X005649Y008531D01*
X005571Y008610D02*
X006005Y008610D01*
X005927Y008688D02*
X005366Y008688D01*
X005288Y008767D02*
X005848Y008767D01*
X005770Y008845D02*
X005209Y008845D01*
X005182Y008924D02*
X005691Y008924D01*
X005613Y009002D02*
X005182Y009002D01*
X005182Y009081D02*
X005534Y009081D01*
X005456Y009159D02*
X005182Y009159D01*
X005182Y009238D02*
X005377Y009238D01*
X005299Y009316D02*
X003508Y009316D01*
X003515Y009395D02*
X005220Y009395D01*
X005142Y009473D02*
X003515Y009473D01*
X003563Y009552D02*
X003820Y009552D01*
X003780Y009630D02*
X003641Y009630D01*
X003720Y009709D02*
X003780Y009709D01*
X003468Y010023D02*
X001621Y010023D01*
X001621Y010101D02*
X003547Y010101D01*
X003390Y009944D02*
X001621Y009944D01*
X001621Y009866D02*
X003311Y009866D01*
X003233Y009787D02*
X001621Y009787D01*
X001621Y009709D02*
X002903Y009709D01*
X002824Y009630D02*
X001621Y009630D01*
X001621Y009552D02*
X002787Y009552D01*
X002759Y009473D02*
X001621Y009473D01*
X001621Y009395D02*
X002759Y009395D01*
X002766Y009316D02*
X001621Y009316D01*
X001621Y009238D02*
X001985Y009238D01*
X001972Y009159D02*
X001621Y009159D01*
X001621Y009081D02*
X001972Y009081D01*
X001972Y009002D02*
X001621Y009002D01*
X001621Y008924D02*
X001972Y008924D01*
X001972Y008845D02*
X001621Y008845D01*
X001621Y008767D02*
X001972Y008767D01*
X001972Y008688D02*
X001621Y008688D01*
X001621Y008610D02*
X001972Y008610D01*
X001621Y008531D02*
X002772Y008531D01*
X002759Y008453D02*
X001621Y008453D01*
X001621Y008374D02*
X002759Y008374D01*
X002781Y008296D02*
X002460Y008296D01*
X002599Y008217D02*
X002814Y008217D01*
X002889Y008139D02*
X002673Y008139D01*
X002239Y008296D02*
X001621Y008296D01*
X001621Y008217D02*
X002100Y008217D01*
X002026Y008139D02*
X001621Y008139D01*
X001621Y008060D02*
X001994Y008060D01*
X001972Y007982D02*
X001621Y007982D01*
X001621Y007903D02*
X001972Y007903D01*
X001985Y007825D02*
X001621Y007825D01*
X001621Y007746D02*
X002018Y007746D01*
X002080Y007668D02*
X001621Y007668D01*
X001621Y007589D02*
X002191Y007589D01*
X002108Y007293D02*
X002108Y006957D01*
X002028Y006957D01*
X002028Y007293D01*
X001813Y007293D01*
X001777Y007283D01*
X001746Y007265D01*
X001719Y007239D01*
X001701Y007207D01*
X001691Y007171D01*
X001691Y006957D01*
X002028Y006957D01*
X002028Y006877D01*
X002108Y006877D01*
X002108Y006957D01*
X002444Y006957D01*
X002444Y007171D01*
X002434Y007207D01*
X002416Y007239D01*
X002390Y007265D01*
X002358Y007283D01*
X002322Y007293D01*
X002108Y007293D01*
X002108Y007275D02*
X002028Y007275D01*
X002028Y007197D02*
X002108Y007197D01*
X002108Y007118D02*
X002028Y007118D01*
X002028Y007040D02*
X002108Y007040D01*
X002108Y006961D02*
X002028Y006961D01*
X002028Y006883D02*
X001621Y006883D01*
X001691Y006877D02*
X001691Y006662D01*
X001701Y006626D01*
X001719Y006594D01*
X001746Y006568D01*
X001777Y006550D01*
X001813Y006540D01*
X002028Y006540D01*
X002028Y006877D01*
X001691Y006877D01*
X001691Y006804D02*
X001621Y006804D01*
X001621Y006726D02*
X001691Y006726D01*
X001695Y006647D02*
X001621Y006647D01*
X001621Y006569D02*
X001745Y006569D01*
X001621Y006490D02*
X004625Y006490D01*
X004703Y006412D02*
X001621Y006412D01*
X001621Y006333D02*
X004782Y006333D01*
X004860Y006255D02*
X004669Y006255D01*
X004682Y006242D02*
X004612Y006312D01*
X004099Y006312D01*
X004028Y006242D01*
X004028Y005591D01*
X004099Y005521D01*
X004594Y005521D01*
X004781Y005334D01*
X004781Y004400D01*
X004636Y004545D01*
X004682Y004591D01*
X004682Y005242D01*
X004612Y005312D01*
X004099Y005312D01*
X004028Y005242D01*
X004028Y004591D01*
X004099Y004521D01*
X004155Y004521D01*
X004155Y004460D01*
X004781Y003834D01*
X004781Y002834D01*
X005281Y002334D01*
X005398Y002217D01*
X005577Y002217D01*
X005600Y002162D01*
X005726Y002035D01*
X005892Y001967D01*
X006071Y001967D01*
X006236Y002035D01*
X006363Y002162D01*
X006431Y002327D01*
X006431Y002506D01*
X006363Y002672D01*
X006236Y002798D01*
X006071Y002867D01*
X005892Y002867D01*
X005726Y002798D01*
X005600Y002672D01*
X005577Y002617D01*
X005564Y002617D01*
X005181Y003000D01*
X005181Y003934D01*
X005554Y003561D01*
X005531Y003506D01*
X005531Y003327D01*
X005600Y003162D01*
X005726Y003035D01*
X005892Y002967D01*
X006071Y002967D01*
X006236Y003035D01*
X006363Y003162D01*
X006431Y003327D01*
X006431Y003506D01*
X006363Y003672D01*
X006236Y003798D01*
X006071Y003867D01*
X005892Y003867D01*
X005837Y003844D01*
X005181Y004500D01*
X005181Y005500D01*
X004682Y005999D01*
X004682Y006242D01*
X004682Y006176D02*
X004939Y006176D01*
X005017Y006098D02*
X004682Y006098D01*
X004682Y006019D02*
X005096Y006019D01*
X005174Y005941D02*
X004740Y005941D01*
X004818Y005862D02*
X005253Y005862D01*
X005281Y005784D02*
X004897Y005784D01*
X004975Y005705D02*
X005281Y005705D01*
X005281Y005627D02*
X005054Y005627D01*
X005132Y005548D02*
X005281Y005548D01*
X005281Y005470D02*
X005181Y005470D01*
X005181Y005391D02*
X005281Y005391D01*
X005281Y005313D02*
X005181Y005313D01*
X005181Y005234D02*
X005281Y005234D01*
X005281Y005156D02*
X005181Y005156D01*
X005181Y005077D02*
X005281Y005077D01*
X005281Y004999D02*
X005181Y004999D01*
X005181Y004920D02*
X005281Y004920D01*
X005281Y004842D02*
X005181Y004842D01*
X005181Y004763D02*
X005352Y004763D01*
X005430Y004685D02*
X005181Y004685D01*
X005181Y004606D02*
X005509Y004606D01*
X005540Y004528D02*
X005181Y004528D01*
X005231Y004449D02*
X005531Y004449D01*
X005531Y004371D02*
X005310Y004371D01*
X005388Y004292D02*
X005546Y004292D01*
X005578Y004214D02*
X005467Y004214D01*
X005545Y004135D02*
X005626Y004135D01*
X005624Y004057D02*
X005705Y004057D01*
X005702Y003978D02*
X005864Y003978D01*
X005781Y003900D02*
X007281Y003900D01*
X007281Y003978D02*
X006098Y003978D01*
X006180Y003821D02*
X007281Y003821D01*
X007281Y003743D02*
X006291Y003743D01*
X006366Y003664D02*
X007281Y003664D01*
X007281Y003617D02*
X007146Y003617D01*
X007076Y003547D01*
X007076Y002995D01*
X007146Y002925D01*
X007162Y002925D01*
X007142Y002919D01*
X007110Y002901D01*
X007084Y002875D01*
X007065Y002843D01*
X007056Y002807D01*
X007056Y002602D01*
X007441Y002602D01*
X007441Y002522D01*
X007521Y002522D01*
X007521Y002196D01*
X007785Y002196D01*
X007821Y002205D01*
X007852Y002224D01*
X007879Y002250D01*
X007897Y002282D01*
X007907Y002318D01*
X007907Y002522D01*
X007521Y002522D01*
X007521Y002602D01*
X007907Y002602D01*
X007907Y002807D01*
X007897Y002843D01*
X007879Y002875D01*
X007852Y002901D01*
X007821Y002919D01*
X007800Y002925D01*
X007816Y002925D01*
X007887Y002995D01*
X007887Y003547D01*
X007816Y003617D01*
X007681Y003617D01*
X007681Y004334D01*
X007837Y004489D01*
X007892Y004467D01*
X008071Y004467D01*
X008236Y004535D01*
X008363Y004662D01*
X008431Y004827D01*
X008431Y005006D01*
X008408Y005061D01*
X010064Y006717D01*
X010280Y006717D01*
X010280Y006499D01*
X009126Y005344D01*
X009071Y005367D01*
X008892Y005367D01*
X008726Y005298D01*
X008600Y005172D01*
X008531Y005006D01*
X008531Y004827D01*
X008600Y004662D01*
X008726Y004535D01*
X008892Y004467D01*
X009071Y004467D01*
X009126Y004489D01*
X009281Y004334D01*
X009281Y003617D01*
X009146Y003617D01*
X009076Y003547D01*
X009076Y002995D01*
X009146Y002925D01*
X009162Y002925D01*
X009142Y002919D01*
X009110Y002901D01*
X009084Y002875D01*
X009065Y002843D01*
X009056Y002807D01*
X009056Y002602D01*
X009441Y002602D01*
X009441Y002522D01*
X009521Y002522D01*
X009521Y002196D01*
X009785Y002196D01*
X009821Y002205D01*
X009852Y002224D01*
X009879Y002250D01*
X009897Y002282D01*
X009907Y002318D01*
X009907Y002522D01*
X009521Y002522D01*
X009521Y002602D01*
X009907Y002602D01*
X009907Y002807D01*
X009897Y002843D01*
X009879Y002875D01*
X009852Y002901D01*
X009821Y002919D01*
X009800Y002925D01*
X009816Y002925D01*
X009887Y002995D01*
X009887Y003547D01*
X009816Y003617D01*
X009681Y003617D01*
X009681Y004500D01*
X009564Y004617D01*
X009408Y004772D01*
X009431Y004827D01*
X009431Y005006D01*
X009408Y005061D01*
X010094Y005747D01*
X011578Y005747D01*
X011137Y005306D01*
X011111Y005317D01*
X010952Y005317D01*
X010805Y005256D01*
X010692Y005143D01*
X010631Y004996D01*
X010631Y004837D01*
X010677Y004727D01*
X010677Y003822D01*
X010601Y003822D01*
X010530Y003752D01*
X010530Y003082D01*
X010601Y003011D01*
X011153Y003011D01*
X011223Y003082D01*
X011223Y003098D01*
X011229Y003077D01*
X011247Y003045D01*
X011273Y003019D01*
X011305Y003001D01*
X011341Y002991D01*
X011545Y002991D01*
X011545Y003377D01*
X011625Y003377D01*
X011625Y002991D01*
X011830Y002991D01*
X011866Y003001D01*
X011898Y003019D01*
X011924Y003045D01*
X011942Y003077D01*
X011952Y003113D01*
X011952Y003377D01*
X011625Y003377D01*
X011625Y003457D01*
X011545Y003457D01*
X011545Y003842D01*
X011341Y003842D01*
X011305Y003833D01*
X011273Y003814D01*
X011247Y003788D01*
X011229Y003756D01*
X011223Y003736D01*
X011223Y003752D01*
X011153Y003822D01*
X011077Y003822D01*
X011077Y004517D01*
X011111Y004517D01*
X011258Y004578D01*
X011370Y004690D01*
X011431Y004837D01*
X011431Y004996D01*
X011420Y005023D01*
X012064Y005667D01*
X012144Y005747D01*
X012407Y005747D01*
X012407Y005158D01*
X012524Y005041D01*
X012542Y005023D01*
X012531Y004996D01*
X012531Y004837D01*
X012592Y004690D01*
X012705Y004578D01*
X012852Y004517D01*
X012885Y004517D01*
X012885Y003822D01*
X012809Y003822D01*
X012739Y003752D01*
X012739Y003736D01*
X012734Y003756D01*
X012715Y003788D01*
X012689Y003814D01*
X012657Y003833D01*
X012622Y003842D01*
X012417Y003842D01*
X012417Y003457D01*
X012337Y003457D01*
X012337Y003842D01*
X012132Y003842D01*
X012096Y003833D01*
X012064Y003814D01*
X012038Y003788D01*
X012020Y003756D01*
X012010Y003721D01*
X012010Y003457D01*
X012337Y003457D01*
X012337Y003377D01*
X012010Y003377D01*
X012010Y003113D01*
X012020Y003077D01*
X012038Y003045D01*
X012064Y003019D01*
X012096Y003001D01*
X012132Y002991D01*
X012337Y002991D01*
X012337Y003377D01*
X012417Y003377D01*
X012417Y002991D01*
X012622Y002991D01*
X012657Y003001D01*
X012689Y003019D01*
X012715Y003045D01*
X012734Y003077D01*
X012739Y003098D01*
X012739Y003082D01*
X012809Y003011D01*
X013362Y003011D01*
X013432Y003082D01*
X013432Y003752D01*
X013362Y003822D01*
X013285Y003822D01*
X013285Y004727D01*
X013331Y004837D01*
X013331Y004996D01*
X013270Y005143D01*
X013158Y005256D01*
X013011Y005317D01*
X012852Y005317D01*
X012825Y005306D01*
X012807Y005324D01*
X012807Y005747D01*
X013552Y005747D01*
X013651Y005846D01*
X013651Y005987D01*
X013614Y006024D01*
X013682Y006091D01*
X013682Y006742D01*
X013651Y006773D01*
X013651Y006987D01*
X013303Y007336D01*
X013303Y007841D01*
X016712Y004431D01*
X016604Y004322D01*
X016059Y004322D01*
X015989Y004252D01*
X015989Y004236D01*
X015984Y004256D01*
X015965Y004288D01*
X015939Y004314D01*
X015907Y004333D01*
X015872Y004342D01*
X015667Y004342D01*
X015667Y003957D01*
X015587Y003957D01*
X015587Y004342D01*
X015382Y004342D01*
X015346Y004333D01*
X015314Y004314D01*
X015288Y004288D01*
X015270Y004256D01*
X015260Y004221D01*
X015260Y003957D01*
X015587Y003957D01*
X015587Y003877D01*
X015260Y003877D01*
X015260Y003613D01*
X015270Y003577D01*
X015288Y003545D01*
X015314Y003519D01*
X015346Y003501D01*
X015382Y003491D01*
X015587Y003491D01*
X015587Y003877D01*
X015667Y003877D01*
X015667Y003491D01*
X015872Y003491D01*
X015907Y003501D01*
X015939Y003519D01*
X015965Y003545D01*
X015984Y003577D01*
X015989Y003598D01*
X015989Y003582D01*
X016059Y003511D01*
X016612Y003511D01*
X016682Y003582D01*
X016682Y003835D01*
X017064Y004217D01*
X017898Y004217D01*
X018264Y003851D01*
X018021Y003607D01*
X018021Y003226D01*
X018291Y002957D01*
X018672Y002957D01*
X018941Y003226D01*
X018941Y003607D01*
X018681Y003867D01*
X018681Y004000D01*
X018564Y004117D01*
X018064Y004617D01*
X017036Y004617D01*
X016936Y004717D01*
X019031Y004717D01*
X019031Y004537D01*
X019101Y004467D01*
X019861Y004467D01*
X019931Y004537D01*
X019931Y005184D01*
X020054Y005061D01*
X020031Y005006D01*
X020031Y004827D01*
X020100Y004662D01*
X020226Y004535D01*
X020392Y004467D01*
X020571Y004467D01*
X020736Y004535D01*
X020863Y004662D01*
X020931Y004827D01*
X020931Y005006D01*
X020863Y005172D01*
X020736Y005298D01*
X020571Y005367D01*
X020392Y005367D01*
X020337Y005344D01*
X020064Y005617D01*
X019817Y005617D01*
X019863Y005662D01*
X019931Y005827D01*
X019931Y006006D01*
X019863Y006172D01*
X019817Y006217D01*
X019898Y006217D01*
X020054Y006061D01*
X020031Y006006D01*
X020031Y005827D01*
X020100Y005662D01*
X020226Y005535D01*
X020392Y005467D01*
X020571Y005467D01*
X020736Y005535D01*
X020863Y005662D01*
X020931Y005827D01*
X020931Y006006D01*
X020863Y006172D01*
X020736Y006298D01*
X020571Y006367D01*
X020392Y006367D01*
X020337Y006344D01*
X020064Y006617D01*
X019817Y006617D01*
X019863Y006662D01*
X019931Y006827D01*
X019931Y007006D01*
X019863Y007172D01*
X019817Y007217D01*
X019898Y007217D01*
X020054Y007061D01*
X020031Y007006D01*
X020031Y006827D01*
X020100Y006662D01*
X020226Y006535D01*
X020392Y006467D01*
X020571Y006467D01*
X020736Y006535D01*
X020863Y006662D01*
X020931Y006827D01*
X020931Y007006D01*
X020863Y007172D01*
X020736Y007298D01*
X020571Y007367D01*
X020392Y007367D01*
X020337Y007344D01*
X020064Y007617D01*
X019817Y007617D01*
X019863Y007662D01*
X019931Y007827D01*
X019931Y008006D01*
X019863Y008172D01*
X019817Y008217D01*
X019898Y008217D01*
X020054Y008061D01*
X020031Y008006D01*
X020031Y007827D01*
X020100Y007662D01*
X020226Y007535D01*
X020392Y007467D01*
X020571Y007467D01*
X020736Y007535D01*
X020863Y007662D01*
X020931Y007827D01*
X020931Y008006D01*
X020863Y008172D01*
X020736Y008298D01*
X020571Y008367D01*
X020392Y008367D01*
X020337Y008344D01*
X020064Y008617D01*
X019817Y008617D01*
X019863Y008662D01*
X019931Y008827D01*
X019931Y009006D01*
X019863Y009172D01*
X019817Y009217D01*
X019898Y009217D01*
X020054Y009061D01*
X020031Y009006D01*
X020031Y008827D01*
X020100Y008662D01*
X020226Y008535D01*
X020392Y008467D01*
X020571Y008467D01*
X020736Y008535D01*
X020863Y008662D01*
X020931Y008827D01*
X020931Y009006D01*
X020863Y009172D01*
X020736Y009298D01*
X020571Y009367D01*
X020392Y009367D01*
X020337Y009344D01*
X020064Y009617D01*
X018036Y009617D01*
X017110Y010542D01*
X017192Y010542D01*
X017746Y009988D01*
X017746Y009960D01*
X017863Y009843D01*
X018336Y009843D01*
X018336Y009786D01*
X018406Y009716D01*
X019056Y009716D01*
X019127Y009786D01*
X019127Y010299D01*
X019056Y010369D01*
X018406Y010369D01*
X018336Y010299D01*
X018336Y010243D01*
X018000Y010243D01*
X017531Y010712D01*
X018433Y011614D01*
X018433Y011607D01*
X018478Y011498D01*
X018562Y011414D01*
X018672Y011369D01*
X018790Y011369D01*
X018900Y011414D01*
X018984Y011498D01*
X019029Y011607D01*
X019029Y011682D01*
X019564Y012217D01*
X020031Y012217D01*
X020031Y012037D01*
X020101Y011967D01*
X020861Y011967D01*
X020931Y012037D01*
X020931Y012796D01*
X020861Y012867D01*
X020101Y012867D01*
X020031Y012796D01*
X020031Y012617D01*
X019436Y012617D01*
X020536Y013717D01*
X020564Y013717D01*
X020681Y013834D01*
X020681Y014967D01*
X020861Y014967D01*
X020931Y015037D01*
X020931Y015796D01*
X020861Y015867D01*
X020186Y015867D01*
X020317Y015998D01*
X020392Y015967D01*
X020571Y015967D01*
X020736Y016035D01*
X020863Y016162D01*
X020931Y016327D01*
X020931Y016506D01*
X020863Y016672D01*
X020736Y016798D01*
X020571Y016867D01*
X020392Y016867D01*
X020226Y016798D01*
X020100Y016672D01*
X020031Y016506D01*
X020031Y016327D01*
X020062Y016252D01*
X019927Y016117D01*
X019898Y016117D01*
X019781Y016000D01*
X019781Y015753D01*
X019736Y015798D01*
X019571Y015867D01*
X019392Y015867D01*
X019226Y015798D01*
X019181Y015753D01*
X019181Y015862D01*
X019317Y015998D01*
X019392Y015967D01*
X019571Y015967D01*
X019736Y016035D01*
X019863Y016162D01*
X019931Y016327D01*
X019931Y016506D01*
X019863Y016672D01*
X019736Y016798D01*
X019571Y016867D01*
X019392Y016867D01*
X019226Y016798D01*
X019100Y016672D01*
X019031Y016506D01*
X019031Y016327D01*
X019062Y016252D01*
X018927Y016117D01*
X018898Y016117D01*
X018781Y016000D01*
X018781Y015753D01*
X018736Y015798D01*
X018571Y015867D01*
X018392Y015867D01*
X018226Y015798D01*
X018181Y015753D01*
X018181Y015862D01*
X018317Y015998D01*
X018392Y015967D01*
X018571Y015967D01*
X018736Y016035D01*
X018863Y016162D01*
X018931Y016327D01*
X018931Y016506D01*
X018863Y016672D01*
X018736Y016798D01*
X018571Y016867D01*
X018392Y016867D01*
X018226Y016798D01*
X018100Y016672D01*
X018031Y016506D01*
X018031Y016327D01*
X018062Y016252D01*
X017927Y016117D01*
X017898Y016117D01*
X017781Y016000D01*
X017781Y015753D01*
X017736Y015798D01*
X017571Y015867D01*
X017392Y015867D01*
X017226Y015798D01*
X017181Y015753D01*
X017181Y015834D01*
X017337Y015989D01*
X017392Y015967D01*
X017571Y015967D01*
X017736Y016035D01*
X017863Y016162D01*
X017931Y016327D01*
X017931Y016506D01*
X017863Y016672D01*
X017736Y016798D01*
X017571Y016867D01*
X017392Y016867D01*
X017226Y016798D01*
X017100Y016672D01*
X017031Y016506D01*
X017031Y016327D01*
X017054Y016272D01*
X016898Y016117D01*
X016781Y016000D01*
X016781Y015753D01*
X016736Y015798D01*
X016571Y015867D01*
X016392Y015867D01*
X016226Y015798D01*
X016100Y015672D01*
X016031Y015506D01*
X016031Y015327D01*
X016054Y015272D01*
X015898Y015117D01*
X014867Y015117D01*
X014867Y015217D01*
X015564Y015217D01*
X016337Y015989D01*
X016392Y015967D01*
X016571Y015967D01*
X016736Y016035D01*
X016863Y016162D01*
X016931Y016327D01*
X016931Y016506D01*
X016908Y016561D01*
X017564Y017217D01*
X018064Y017217D01*
X018564Y017717D01*
X018681Y017834D01*
X018681Y019512D01*
X018736Y019535D01*
X018863Y019662D01*
X018931Y019827D01*
X018931Y020006D01*
X018863Y020172D01*
X018736Y020298D01*
X018571Y020367D01*
X018392Y020367D01*
X018226Y020298D01*
X018100Y020172D01*
X018031Y020006D01*
X018031Y019827D01*
X018100Y019662D01*
X018226Y019535D01*
X018281Y019512D01*
X018281Y018000D01*
X017898Y017617D01*
X017398Y017617D01*
X017281Y017500D01*
X016626Y016844D01*
X016571Y016867D01*
X016392Y016867D01*
X016226Y016798D01*
X016100Y016672D01*
X016031Y016506D01*
X016031Y016327D01*
X016054Y016272D01*
X015398Y015617D01*
X014867Y015617D01*
X014867Y017531D01*
X014870Y017531D01*
X015203Y017531D01*
X015203Y017877D01*
X015283Y017877D01*
X015283Y017957D01*
X015203Y017957D01*
X015203Y018303D01*
X014870Y018303D01*
X014867Y018302D01*
X014867Y019672D01*
X014931Y019827D01*
X014931Y020006D01*
X014867Y020161D01*
X014867Y020462D01*
X021026Y020462D01*
X021026Y001057D01*
X020800Y001057D01*
X020961Y001218D01*
X020961Y001377D01*
X020521Y001377D01*
X020521Y001457D01*
X020441Y001457D01*
X020441Y001897D01*
X020282Y001897D01*
X020001Y001615D01*
X020001Y001457D01*
X020441Y001457D01*
X020441Y001377D01*
X020001Y001377D01*
X020001Y001218D01*
X020162Y001057D01*
X018800Y001057D01*
X018961Y001218D01*
X018961Y001377D01*
X018521Y001377D01*
X018521Y001457D01*
X018441Y001457D01*
X018441Y001897D01*
X018282Y001897D01*
X018001Y001615D01*
X018001Y001457D01*
X018441Y001457D01*
X018441Y001377D01*
X018001Y001377D01*
X018001Y001218D01*
X018162Y001057D01*
X016448Y001057D01*
X016451Y001068D01*
X016451Y001377D01*
X016021Y001377D01*
X016021Y001457D01*
X015941Y001457D01*
X015941Y001887D01*
X015633Y001887D01*
X015597Y001877D01*
X015565Y001859D01*
X015539Y001833D01*
X015521Y001801D01*
X015511Y001765D01*
X015511Y001457D01*
X015941Y001457D01*
X015941Y001377D01*
X015511Y001377D01*
X015511Y001068D01*
X015514Y001057D01*
X015285Y001057D01*
X015287Y001058D01*
X015340Y001110D01*
X015383Y001170D01*
X015417Y001236D01*
X015440Y001307D01*
X015451Y001377D01*
X015021Y001377D01*
X015021Y001457D01*
X014941Y001457D01*
X014941Y001886D01*
X014871Y001875D01*
X014801Y001852D01*
X014735Y001819D01*
X014675Y001775D01*
X014623Y001723D01*
X014579Y001663D01*
X014546Y001597D01*
X014523Y001527D01*
X014512Y001457D01*
X014941Y001457D01*
X014941Y001377D01*
X014512Y001377D01*
X014523Y001307D01*
X014546Y001236D01*
X014579Y001170D01*
X014623Y001110D01*
X014675Y001058D01*
X014677Y001057D01*
X014285Y001057D01*
X014287Y001058D01*
X014340Y001110D01*
X014383Y001170D01*
X014417Y001236D01*
X014440Y001307D01*
X014451Y001377D01*
X014021Y001377D01*
X014021Y001457D01*
X013941Y001457D01*
X013941Y001886D01*
X013871Y001875D01*
X013801Y001852D01*
X013735Y001819D01*
X013675Y001775D01*
X013623Y001723D01*
X013579Y001663D01*
X013546Y001597D01*
X013523Y001527D01*
X013512Y001457D01*
X013941Y001457D01*
X013941Y001377D01*
X013512Y001377D01*
X013523Y001307D01*
X013546Y001236D01*
X013579Y001170D01*
X013623Y001110D01*
X013675Y001058D01*
X013677Y001057D01*
X013285Y001057D01*
X013287Y001058D01*
X013340Y001110D01*
X013383Y001170D01*
X013417Y001236D01*
X013440Y001307D01*
X013451Y001377D01*
X013021Y001377D01*
X013021Y001457D01*
X012941Y001457D01*
X012941Y001886D01*
X012871Y001875D01*
X012801Y001852D01*
X012735Y001819D01*
X012675Y001775D01*
X012623Y001723D01*
X012579Y001663D01*
X012546Y001597D01*
X012523Y001527D01*
X012512Y001457D01*
X012941Y001457D01*
X012941Y001377D01*
X012512Y001377D01*
X012523Y001307D01*
X012546Y001236D01*
X012579Y001170D01*
X012623Y001110D01*
X012675Y001058D01*
X012677Y001057D01*
X011257Y001057D01*
X011363Y001162D01*
X011431Y001327D01*
X011431Y001506D01*
X011363Y001672D01*
X011261Y001773D01*
X011261Y002193D01*
X011283Y002215D01*
X011337Y002346D01*
X011337Y002488D01*
X011283Y002618D01*
X011183Y002719D01*
X011052Y002773D01*
X010910Y002773D01*
X010779Y002719D01*
X010679Y002618D01*
X010625Y002488D01*
X010625Y002346D01*
X010679Y002215D01*
X010701Y002193D01*
X010701Y001773D01*
X010600Y001672D01*
X010531Y001506D01*
X010531Y001327D01*
X010600Y001162D01*
X010705Y001057D01*
X010448Y001057D01*
X010451Y001068D01*
X010451Y001377D01*
X010021Y001377D01*
X010021Y001457D01*
X009941Y001457D01*
X009941Y001887D01*
X009633Y001887D01*
X009597Y001877D01*
X009565Y001859D01*
X009539Y001833D01*
X009521Y001801D01*
X009511Y001765D01*
X009511Y001457D01*
X009941Y001457D01*
X009941Y001377D01*
X009511Y001377D01*
X009511Y001068D01*
X009514Y001057D01*
X006431Y001057D01*
X006431Y001796D01*
X006361Y001867D01*
X005601Y001867D01*
X005531Y001796D01*
X005531Y001617D01*
X004432Y001617D01*
X004172Y001877D01*
X003791Y001877D01*
X003521Y001607D01*
X003521Y001226D01*
X003691Y001057D01*
X002272Y001057D01*
X002441Y001226D01*
X002441Y001607D01*
X002172Y001877D01*
X001791Y001877D01*
X001621Y001707D01*
X001621Y003098D01*
X001782Y002937D01*
X001941Y002937D01*
X001941Y003377D01*
X002021Y003377D01*
X002021Y003457D01*
X001941Y003457D01*
X001941Y003897D01*
X001782Y003897D01*
X001621Y003735D01*
X001621Y016730D01*
X001647Y016680D01*
X001696Y016612D01*
X001755Y016553D01*
X001823Y016504D01*
X001898Y016465D01*
X001978Y016439D01*
X002061Y016426D01*
X002458Y016426D01*
X002458Y016921D01*
X002536Y016921D01*
X002536Y016999D01*
X003424Y016999D01*
X003424Y017002D01*
X003411Y017085D01*
X003385Y017165D01*
X003347Y017240D01*
X003298Y017308D01*
X003238Y017367D01*
X003170Y017416D01*
X003095Y017455D01*
X003016Y017481D01*
X002933Y017494D01*
X002536Y017494D01*
X002536Y016999D01*
X002458Y016999D01*
X002458Y017494D01*
X002061Y017494D01*
X001978Y017481D01*
X001898Y017455D01*
X001823Y017416D01*
X001755Y017367D01*
X001696Y017308D01*
X001647Y017240D01*
X001621Y017189D01*
X001621Y019644D01*
X001647Y019594D01*
X001696Y019526D01*
X001755Y019466D01*
X001823Y019417D01*
X001898Y019379D01*
X001978Y019353D01*
X002061Y019340D01*
X002458Y019340D01*
X002458Y019835D01*
X002536Y019835D01*
X004117Y019835D01*
X004148Y019867D02*
X003898Y019617D01*
X003781Y019500D01*
X003781Y018916D01*
X003877Y018821D01*
X003871Y018807D01*
X003871Y018656D01*
X003929Y018518D01*
X004029Y018417D01*
X003929Y018316D01*
X003871Y018177D01*
X003871Y018027D01*
X003929Y017888D01*
X004035Y017781D01*
X004069Y017767D01*
X004069Y016948D01*
X004174Y016843D01*
X004586Y016432D01*
X004586Y016034D01*
X004656Y015964D01*
X005306Y015964D01*
X005377Y016034D01*
X005377Y016547D01*
X005306Y016617D01*
X004909Y016617D01*
X004429Y017098D01*
X004429Y017567D01*
X004452Y017533D01*
X004507Y017478D01*
X004572Y017434D01*
X004645Y017404D01*
X004721Y017389D01*
X004732Y017389D01*
X004732Y017758D01*
X004790Y017758D01*
X004790Y017816D01*
X005158Y017816D01*
X005158Y017826D01*
X005143Y017903D01*
X005113Y017975D01*
X005070Y018040D01*
X005014Y018096D01*
X004990Y018112D01*
X005074Y018195D01*
X005280Y017989D01*
X005280Y017591D01*
X005351Y017521D01*
X005407Y017521D01*
X005407Y017208D01*
X005524Y017091D01*
X005781Y016834D01*
X005781Y016617D01*
X005656Y016617D01*
X005586Y016547D01*
X005586Y016034D01*
X005656Y015964D01*
X006306Y015964D01*
X006377Y016034D01*
X006377Y016547D01*
X006306Y016617D01*
X006181Y016617D01*
X006181Y017000D01*
X005807Y017374D01*
X005807Y017521D01*
X005863Y017521D01*
X005934Y017591D01*
X005934Y018242D01*
X005884Y018292D01*
X005934Y018341D01*
X005934Y018992D01*
X005863Y019062D01*
X005807Y019062D01*
X005807Y019124D01*
X005464Y019467D01*
X005571Y019467D01*
X005736Y019535D01*
X005837Y019637D01*
X006125Y019637D01*
X006226Y019535D01*
X006392Y019467D01*
X006571Y019467D01*
X006736Y019535D01*
X006837Y019637D01*
X007125Y019637D01*
X007226Y019535D01*
X007392Y019467D01*
X007571Y019467D01*
X007736Y019535D01*
X007780Y019579D01*
X007780Y019053D01*
X007759Y019053D01*
X007759Y018707D01*
X007679Y018707D01*
X007679Y019053D01*
X007347Y019053D01*
X007311Y019043D01*
X007279Y019025D01*
X007253Y018999D01*
X007235Y018967D01*
X007225Y018931D01*
X007225Y018707D01*
X007679Y018707D01*
X007679Y018627D01*
X007225Y018627D01*
X007225Y018402D01*
X007235Y018367D01*
X007253Y018335D01*
X007279Y018309D01*
X007311Y018290D01*
X007347Y018281D01*
X007679Y018281D01*
X007679Y018627D01*
X007759Y018627D01*
X007759Y018281D01*
X007780Y018281D01*
X007780Y015150D01*
X007431Y015500D01*
X007431Y017750D01*
X007181Y018000D01*
X007181Y018500D01*
X006814Y018867D01*
X006682Y018867D01*
X006682Y018992D01*
X006612Y019062D01*
X006099Y019062D01*
X006028Y018992D01*
X006028Y018341D01*
X006078Y018292D01*
X006028Y018242D01*
X006028Y017591D01*
X006099Y017521D01*
X006468Y017521D01*
X006531Y017458D01*
X006531Y015334D01*
X006533Y015204D02*
X006661Y015204D01*
X006612Y015125D02*
X006740Y015125D01*
X006690Y015047D02*
X006818Y015047D01*
X006769Y014968D02*
X006897Y014968D01*
X006847Y014890D02*
X006975Y014890D01*
X006926Y014811D02*
X007054Y014811D01*
X007004Y014733D02*
X007132Y014733D01*
X007083Y014654D02*
X007211Y014654D01*
X007161Y014576D02*
X007289Y014576D01*
X007240Y014497D02*
X007368Y014497D01*
X007318Y014419D02*
X007446Y014419D01*
X007397Y014340D02*
X007525Y014340D01*
X007475Y014262D02*
X007603Y014262D01*
X007554Y014183D02*
X011460Y014183D01*
X011539Y014105D02*
X010849Y014105D01*
X011008Y014026D02*
X011617Y014026D01*
X011696Y013948D02*
X011086Y013948D01*
X011134Y013869D02*
X011774Y013869D01*
X011745Y013398D02*
X011099Y013398D01*
X011021Y013320D02*
X011824Y013320D01*
X011902Y013241D02*
X010880Y013241D01*
X010582Y013241D02*
X009931Y013241D01*
X009912Y013231D02*
X009977Y013265D01*
X010037Y013308D01*
X010090Y013360D01*
X010133Y013420D01*
X010167Y013486D01*
X010190Y013557D01*
X010201Y013627D01*
X009771Y013627D01*
X009771Y013707D01*
X009691Y013707D01*
X009691Y014136D01*
X009621Y014125D01*
X009551Y014102D01*
X009485Y014069D01*
X009425Y014025D01*
X009373Y013973D01*
X009329Y013913D01*
X009296Y013847D01*
X009273Y013777D01*
X009262Y013707D01*
X009691Y013707D01*
X009691Y013627D01*
X009262Y013627D01*
X009273Y013557D01*
X009296Y013486D01*
X009329Y013420D01*
X009373Y013360D01*
X009425Y013308D01*
X009485Y013265D01*
X009551Y013231D01*
X009621Y013208D01*
X009691Y013197D01*
X009691Y013627D01*
X009771Y013627D01*
X009771Y013197D01*
X009841Y013208D01*
X009912Y013231D01*
X009771Y013241D02*
X009691Y013241D01*
X009691Y013320D02*
X009771Y013320D01*
X009771Y013398D02*
X009691Y013398D01*
X009691Y013477D02*
X009771Y013477D01*
X009771Y013555D02*
X009691Y013555D01*
X009691Y013634D02*
X009181Y013634D01*
X009181Y013712D02*
X009262Y013712D01*
X009277Y013791D02*
X009167Y013791D01*
X009134Y013869D02*
X009307Y013869D01*
X009354Y013948D02*
X009086Y013948D01*
X009008Y014026D02*
X009426Y014026D01*
X009558Y014105D02*
X008849Y014105D01*
X008613Y014105D02*
X008123Y014105D01*
X008181Y014026D02*
X008454Y014026D01*
X008376Y013948D02*
X008181Y013948D01*
X008181Y013869D02*
X008328Y013869D01*
X008295Y013791D02*
X008181Y013791D01*
X008181Y013712D02*
X008281Y013712D01*
X008281Y013634D02*
X008181Y013634D01*
X008181Y013555D02*
X008290Y013555D01*
X008323Y013477D02*
X008181Y013477D01*
X008181Y013398D02*
X008363Y013398D01*
X008442Y013320D02*
X008181Y013320D01*
X008135Y013241D02*
X008531Y013241D01*
X008531Y013163D02*
X007518Y013163D01*
X007281Y013477D02*
X007204Y013477D01*
X007281Y013555D02*
X007125Y013555D01*
X006404Y014654D02*
X004026Y014654D01*
X003775Y014340D02*
X003634Y014340D01*
X003696Y014419D02*
X001621Y014419D01*
X001621Y014497D02*
X002269Y014497D01*
X002301Y014481D02*
X002371Y014458D01*
X002441Y014447D01*
X002441Y014877D01*
X002012Y014877D01*
X002023Y014807D01*
X002046Y014736D01*
X002079Y014670D01*
X002123Y014610D01*
X002175Y014558D01*
X002235Y014515D01*
X002301Y014481D01*
X002441Y014497D02*
X002521Y014497D01*
X002521Y014447D02*
X002591Y014458D01*
X002662Y014481D01*
X002727Y014515D01*
X002787Y014558D01*
X002840Y014610D01*
X002883Y014670D01*
X002917Y014736D01*
X002940Y014807D01*
X002951Y014877D01*
X002521Y014877D01*
X002521Y014957D01*
X002441Y014957D01*
X002441Y015386D01*
X002371Y015375D01*
X002301Y015352D01*
X002235Y015319D01*
X002175Y015275D01*
X002123Y015223D01*
X002079Y015163D01*
X002046Y015097D01*
X002023Y015027D01*
X002012Y014957D01*
X002441Y014957D01*
X002441Y014877D01*
X002521Y014877D01*
X002521Y014447D01*
X002521Y014576D02*
X002441Y014576D01*
X002441Y014654D02*
X002521Y014654D01*
X002521Y014733D02*
X002441Y014733D01*
X002441Y014811D02*
X002521Y014811D01*
X002521Y014890D02*
X003031Y014890D01*
X003031Y014968D02*
X002949Y014968D01*
X002951Y014957D02*
X002940Y015027D01*
X002917Y015097D01*
X002883Y015163D01*
X002840Y015223D01*
X002787Y015275D01*
X002727Y015319D01*
X002662Y015352D01*
X002591Y015375D01*
X002521Y015386D01*
X002521Y014957D01*
X002951Y014957D01*
X002933Y015047D02*
X003048Y015047D01*
X003080Y015125D02*
X002902Y015125D01*
X002854Y015204D02*
X003132Y015204D01*
X003210Y015282D02*
X002778Y015282D01*
X002635Y015361D02*
X003377Y015361D01*
X003585Y015361D02*
X004566Y015361D01*
X004566Y015439D02*
X001621Y015439D01*
X001621Y015361D02*
X002327Y015361D01*
X002441Y015361D02*
X002521Y015361D01*
X002521Y015282D02*
X002441Y015282D01*
X002441Y015204D02*
X002521Y015204D01*
X002521Y015125D02*
X002441Y015125D01*
X002441Y015047D02*
X002521Y015047D01*
X002521Y014968D02*
X002441Y014968D01*
X002441Y014890D02*
X001621Y014890D01*
X001621Y014968D02*
X002013Y014968D01*
X002029Y015047D02*
X001621Y015047D01*
X001621Y015125D02*
X002060Y015125D01*
X002109Y015204D02*
X001621Y015204D01*
X001621Y015282D02*
X002185Y015282D01*
X002022Y014811D02*
X001621Y014811D01*
X001621Y014733D02*
X002047Y014733D01*
X002091Y014654D02*
X001621Y014654D01*
X001621Y014576D02*
X002157Y014576D01*
X002328Y014340D02*
X001621Y014340D01*
X001621Y014262D02*
X002190Y014262D01*
X002111Y014183D02*
X001621Y014183D01*
X001621Y014105D02*
X002072Y014105D01*
X002039Y014026D02*
X001621Y014026D01*
X001621Y013948D02*
X002031Y013948D01*
X002031Y013869D02*
X001621Y013869D01*
X001621Y013791D02*
X002046Y013791D01*
X002079Y013712D02*
X001621Y013712D01*
X001621Y013634D02*
X002128Y013634D01*
X002206Y013555D02*
X001621Y013555D01*
X001621Y013477D02*
X002367Y013477D01*
X002278Y013320D02*
X001621Y013320D01*
X001621Y013398D02*
X002717Y013398D01*
X002684Y013320D02*
X002795Y013320D01*
X002793Y013241D02*
X002874Y013241D01*
X002866Y013163D02*
X003096Y013163D01*
X003063Y013084D02*
X002899Y013084D01*
X002931Y013006D02*
X003031Y013006D01*
X003031Y012927D02*
X002931Y012927D01*
X002931Y012849D02*
X003031Y012849D01*
X003055Y012770D02*
X002910Y012770D01*
X002989Y012692D02*
X003087Y012692D01*
X002737Y012378D02*
X001621Y012378D01*
X001621Y012456D02*
X002659Y012456D01*
X002733Y012299D02*
X002816Y012299D01*
X002813Y012221D02*
X002894Y012221D01*
X002875Y012142D02*
X003087Y012142D01*
X003055Y012064D02*
X002907Y012064D01*
X002931Y011985D02*
X003031Y011985D01*
X003031Y011907D02*
X002931Y011907D01*
X002931Y011828D02*
X003031Y011828D01*
X003063Y011750D02*
X002931Y011750D01*
X003009Y011671D02*
X003096Y011671D01*
X002679Y011436D02*
X001621Y011436D01*
X001621Y011514D02*
X002277Y011514D01*
X002169Y011593D02*
X001621Y011593D01*
X001621Y011671D02*
X002096Y011671D01*
X002063Y011750D02*
X001621Y011750D01*
X001621Y011828D02*
X002031Y011828D01*
X002031Y011907D02*
X001621Y011907D01*
X001621Y011985D02*
X002031Y011985D01*
X002055Y012064D02*
X001621Y012064D01*
X001621Y012142D02*
X002087Y012142D01*
X002149Y012221D02*
X001621Y012221D01*
X001621Y012299D02*
X002229Y012299D01*
X002227Y012535D02*
X001621Y012535D01*
X001621Y012613D02*
X002148Y012613D01*
X002087Y012692D02*
X001621Y012692D01*
X001621Y012770D02*
X002055Y012770D01*
X002031Y012849D02*
X001621Y012849D01*
X001621Y012927D02*
X002031Y012927D01*
X002031Y013006D02*
X001621Y013006D01*
X001621Y013084D02*
X002063Y013084D01*
X002096Y013163D02*
X001621Y013163D01*
X001621Y013241D02*
X002169Y013241D01*
X002595Y013477D02*
X002638Y013477D01*
X002968Y013712D02*
X003079Y013712D01*
X003047Y013634D02*
X003128Y013634D01*
X003046Y013791D02*
X002916Y013791D01*
X002931Y013869D02*
X003031Y013869D01*
X003031Y013948D02*
X002931Y013948D01*
X002923Y014026D02*
X003039Y014026D01*
X003072Y014105D02*
X002890Y014105D01*
X002851Y014183D02*
X003111Y014183D01*
X003190Y014262D02*
X002772Y014262D01*
X002634Y014340D02*
X003328Y014340D01*
X003318Y014497D02*
X002693Y014497D01*
X002805Y014576D02*
X003186Y014576D01*
X003107Y014654D02*
X002871Y014654D01*
X002915Y014733D02*
X003070Y014733D01*
X003038Y014811D02*
X002940Y014811D01*
X003752Y015282D02*
X004575Y015282D01*
X004658Y015204D02*
X003830Y015204D01*
X004631Y015989D02*
X001621Y015989D01*
X001621Y016067D02*
X004586Y016067D01*
X004586Y016146D02*
X001621Y016146D01*
X001621Y016224D02*
X004586Y016224D01*
X004586Y016303D02*
X001621Y016303D01*
X001621Y016381D02*
X004586Y016381D01*
X004558Y016460D02*
X003078Y016460D01*
X003095Y016465D02*
X003170Y016504D01*
X003238Y016553D01*
X003298Y016612D01*
X003347Y016680D01*
X003385Y016755D01*
X003411Y016835D01*
X003424Y016918D01*
X003424Y016921D01*
X002536Y016921D01*
X002536Y016426D01*
X002933Y016426D01*
X003016Y016439D01*
X003095Y016465D01*
X003218Y016538D02*
X004479Y016538D01*
X004401Y016617D02*
X003301Y016617D01*
X003355Y016695D02*
X004322Y016695D01*
X004244Y016774D02*
X003391Y016774D01*
X003414Y016852D02*
X004165Y016852D01*
X004087Y016931D02*
X002536Y016931D01*
X002536Y017009D02*
X002458Y017009D01*
X002458Y017088D02*
X002536Y017088D01*
X002536Y017166D02*
X002458Y017166D01*
X002458Y017245D02*
X002536Y017245D01*
X002536Y017323D02*
X002458Y017323D01*
X002458Y017402D02*
X002536Y017402D01*
X002536Y017480D02*
X002458Y017480D01*
X001977Y017480D02*
X001621Y017480D01*
X001621Y017402D02*
X001803Y017402D01*
X001712Y017323D02*
X001621Y017323D01*
X001621Y017245D02*
X001650Y017245D01*
X001621Y017559D02*
X004069Y017559D01*
X004069Y017637D02*
X001621Y017637D01*
X001621Y017716D02*
X004069Y017716D01*
X004022Y017794D02*
X001621Y017794D01*
X001621Y017873D02*
X003944Y017873D01*
X003902Y017951D02*
X001621Y017951D01*
X001621Y018030D02*
X003871Y018030D01*
X003871Y018108D02*
X001621Y018108D01*
X001621Y018187D02*
X003875Y018187D01*
X003908Y018265D02*
X001621Y018265D01*
X001621Y018344D02*
X003957Y018344D01*
X004024Y018422D02*
X001621Y018422D01*
X001621Y018501D02*
X003945Y018501D01*
X003903Y018579D02*
X001621Y018579D01*
X001621Y018658D02*
X003871Y018658D01*
X003871Y018736D02*
X001621Y018736D01*
X001621Y018815D02*
X003874Y018815D01*
X003804Y018893D02*
X001621Y018893D01*
X001621Y018972D02*
X003781Y018972D01*
X003781Y019050D02*
X001621Y019050D01*
X001621Y019129D02*
X003781Y019129D01*
X003781Y019207D02*
X001621Y019207D01*
X001621Y019286D02*
X003781Y019286D01*
X003781Y019364D02*
X003051Y019364D01*
X003016Y019353D02*
X003095Y019379D01*
X003170Y019417D01*
X003238Y019466D01*
X003298Y019526D01*
X003347Y019594D01*
X003385Y019668D01*
X003411Y019748D01*
X003424Y019831D01*
X003424Y019835D01*
X002536Y019835D01*
X002536Y019912D01*
X003424Y019912D01*
X003424Y019915D01*
X003411Y019998D01*
X003385Y020078D01*
X003347Y020153D01*
X003298Y020221D01*
X003238Y020280D01*
X003170Y020330D01*
X003095Y020368D01*
X003016Y020394D01*
X002933Y020407D01*
X002536Y020407D01*
X002536Y019912D01*
X002458Y019912D01*
X002458Y020407D01*
X002061Y020407D01*
X001978Y020394D01*
X001898Y020368D01*
X001823Y020330D01*
X001755Y020280D01*
X001696Y020221D01*
X001647Y020153D01*
X001621Y020103D01*
X001621Y020462D01*
X007780Y020462D01*
X007780Y020254D01*
X007736Y020298D01*
X007571Y020367D01*
X007392Y020367D01*
X007226Y020298D01*
X007125Y020197D01*
X006837Y020197D01*
X006736Y020298D01*
X006571Y020367D01*
X006392Y020367D01*
X006226Y020298D01*
X006125Y020197D01*
X005837Y020197D01*
X005736Y020298D01*
X005571Y020367D01*
X005392Y020367D01*
X005226Y020298D01*
X005100Y020172D01*
X005031Y020006D01*
X005031Y019867D01*
X004148Y019867D01*
X004038Y019757D02*
X003412Y019757D01*
X003388Y019678D02*
X003960Y019678D01*
X003881Y019600D02*
X003350Y019600D01*
X003293Y019521D02*
X003803Y019521D01*
X003781Y019443D02*
X003206Y019443D01*
X003016Y019353D02*
X002933Y019340D01*
X002536Y019340D01*
X002536Y019835D01*
X002536Y019757D02*
X002458Y019757D01*
X002458Y019678D02*
X002536Y019678D01*
X002536Y019600D02*
X002458Y019600D01*
X002458Y019521D02*
X002536Y019521D01*
X002536Y019443D02*
X002458Y019443D01*
X002458Y019364D02*
X002536Y019364D01*
X001943Y019364D02*
X001621Y019364D01*
X001621Y019443D02*
X001788Y019443D01*
X001701Y019521D02*
X001621Y019521D01*
X001621Y019600D02*
X001644Y019600D01*
X001621Y020149D02*
X001645Y020149D01*
X001621Y020228D02*
X001703Y020228D01*
X001621Y020306D02*
X001791Y020306D01*
X001950Y020385D02*
X001621Y020385D01*
X002458Y020385D02*
X002536Y020385D01*
X002536Y020306D02*
X002458Y020306D01*
X002458Y020228D02*
X002536Y020228D01*
X002536Y020149D02*
X002458Y020149D01*
X002458Y020071D02*
X002536Y020071D01*
X002536Y019992D02*
X002458Y019992D01*
X002458Y019914D02*
X002536Y019914D01*
X003044Y020385D02*
X007780Y020385D01*
X007780Y020306D02*
X007717Y020306D01*
X007246Y020306D02*
X006717Y020306D01*
X006806Y020228D02*
X007156Y020228D01*
X007162Y019600D02*
X006801Y019600D01*
X006702Y019521D02*
X007260Y019521D01*
X007702Y019521D02*
X007780Y019521D01*
X007780Y019443D02*
X005488Y019443D01*
X005566Y019364D02*
X007780Y019364D01*
X007780Y019286D02*
X005645Y019286D01*
X005723Y019207D02*
X007780Y019207D01*
X007780Y019129D02*
X005802Y019129D01*
X005876Y019050D02*
X006087Y019050D01*
X006028Y018972D02*
X005934Y018972D01*
X005934Y018893D02*
X006028Y018893D01*
X006028Y018815D02*
X005934Y018815D01*
X005934Y018736D02*
X006028Y018736D01*
X006028Y018658D02*
X005934Y018658D01*
X005934Y018579D02*
X006028Y018579D01*
X006028Y018501D02*
X005934Y018501D01*
X005934Y018422D02*
X006028Y018422D01*
X006028Y018344D02*
X005934Y018344D01*
X005911Y018265D02*
X006052Y018265D01*
X006028Y018187D02*
X005934Y018187D01*
X005934Y018108D02*
X006028Y018108D01*
X006028Y018030D02*
X005934Y018030D01*
X005934Y017951D02*
X006028Y017951D01*
X006028Y017873D02*
X005934Y017873D01*
X005934Y017794D02*
X006028Y017794D01*
X006028Y017716D02*
X005934Y017716D01*
X005934Y017637D02*
X006028Y017637D01*
X006061Y017559D02*
X005901Y017559D01*
X005807Y017480D02*
X006509Y017480D01*
X006531Y017402D02*
X005807Y017402D01*
X005857Y017323D02*
X006531Y017323D01*
X006531Y017245D02*
X005936Y017245D01*
X006014Y017166D02*
X006531Y017166D01*
X006531Y017088D02*
X006093Y017088D01*
X006171Y017009D02*
X006531Y017009D01*
X006531Y016931D02*
X006181Y016931D01*
X006181Y016852D02*
X006531Y016852D01*
X006531Y016774D02*
X006181Y016774D01*
X006181Y016695D02*
X006531Y016695D01*
X006531Y016617D02*
X006307Y016617D01*
X006377Y016538D02*
X006531Y016538D01*
X006531Y016460D02*
X006377Y016460D01*
X006377Y016381D02*
X006531Y016381D01*
X006531Y016303D02*
X006377Y016303D01*
X006377Y016224D02*
X006531Y016224D01*
X006531Y016146D02*
X006377Y016146D01*
X006377Y016067D02*
X006531Y016067D01*
X006531Y015989D02*
X006331Y015989D01*
X005631Y015989D02*
X005331Y015989D01*
X005377Y016067D02*
X005586Y016067D01*
X005586Y016146D02*
X005377Y016146D01*
X005377Y016224D02*
X005586Y016224D01*
X005586Y016303D02*
X005377Y016303D01*
X005377Y016381D02*
X005586Y016381D01*
X005586Y016460D02*
X005377Y016460D01*
X005377Y016538D02*
X005586Y016538D01*
X005655Y016617D02*
X005307Y016617D01*
X005781Y016695D02*
X004831Y016695D01*
X004753Y016774D02*
X005781Y016774D01*
X005763Y016852D02*
X004674Y016852D01*
X004596Y016931D02*
X005684Y016931D01*
X005606Y017009D02*
X004517Y017009D01*
X004439Y017088D02*
X005527Y017088D01*
X005449Y017166D02*
X004429Y017166D01*
X004429Y017245D02*
X005407Y017245D01*
X005407Y017323D02*
X004429Y017323D01*
X004429Y017402D02*
X004657Y017402D01*
X004732Y017402D02*
X004790Y017402D01*
X004790Y017389D02*
X004800Y017389D01*
X004877Y017404D01*
X004949Y017434D01*
X005014Y017478D01*
X005070Y017533D01*
X005113Y017598D01*
X005143Y017671D01*
X005158Y017748D01*
X005158Y017758D01*
X004790Y017758D01*
X004790Y017389D01*
X004864Y017402D02*
X005407Y017402D01*
X005407Y017480D02*
X005017Y017480D01*
X005087Y017559D02*
X005313Y017559D01*
X005280Y017637D02*
X005129Y017637D01*
X005152Y017716D02*
X005280Y017716D01*
X005280Y017794D02*
X004790Y017794D01*
X004790Y017816D02*
X004790Y018039D01*
X004732Y018039D01*
X004732Y017816D01*
X004790Y017816D01*
X004790Y017873D02*
X004732Y017873D01*
X004732Y017816D02*
X004497Y017816D01*
X004463Y017781D01*
X004429Y017767D01*
X004429Y017758D01*
X004732Y017758D01*
X004732Y017816D01*
X004732Y017794D02*
X004476Y017794D01*
X004435Y017559D02*
X004429Y017559D01*
X004429Y017480D02*
X004505Y017480D01*
X004732Y017480D02*
X004790Y017480D01*
X004790Y017559D02*
X004732Y017559D01*
X004732Y017637D02*
X004790Y017637D01*
X004790Y017716D02*
X004732Y017716D01*
X004732Y017951D02*
X004790Y017951D01*
X004790Y018030D02*
X004732Y018030D01*
X004996Y018108D02*
X005161Y018108D01*
X005239Y018030D02*
X005077Y018030D01*
X005123Y017951D02*
X005280Y017951D01*
X005280Y017873D02*
X005149Y017873D01*
X005082Y018187D02*
X005065Y018187D01*
X004069Y017480D02*
X003016Y017480D01*
X003191Y017402D02*
X004069Y017402D01*
X004069Y017323D02*
X003282Y017323D01*
X003343Y017245D02*
X004069Y017245D01*
X004069Y017166D02*
X003384Y017166D01*
X003410Y017088D02*
X004069Y017088D01*
X004069Y017009D02*
X003423Y017009D01*
X002536Y016852D02*
X002458Y016852D01*
X002458Y016774D02*
X002536Y016774D01*
X002536Y016695D02*
X002458Y016695D01*
X002458Y016617D02*
X002536Y016617D01*
X002536Y016538D02*
X002458Y016538D01*
X002458Y016460D02*
X002536Y016460D01*
X001916Y016460D02*
X001621Y016460D01*
X001621Y016538D02*
X001776Y016538D01*
X001693Y016617D02*
X001621Y016617D01*
X001621Y016695D02*
X001639Y016695D01*
X003772Y014262D02*
X003853Y014262D01*
X003851Y014183D02*
X003861Y014183D01*
X004941Y015204D02*
X005021Y015204D01*
X005021Y015282D02*
X004941Y015282D01*
X004941Y015361D02*
X005021Y015361D01*
X005021Y015439D02*
X004941Y015439D01*
X004941Y015675D02*
X005021Y015675D01*
X005021Y015753D02*
X004941Y015753D01*
X004941Y015832D02*
X005021Y015832D01*
X005371Y015832D02*
X005618Y015832D01*
X005586Y015753D02*
X005397Y015753D01*
X005397Y015675D02*
X005586Y015675D01*
X005586Y015596D02*
X005397Y015596D01*
X005845Y015213D02*
X005845Y015213D01*
X007431Y015518D02*
X007780Y015518D01*
X007780Y015596D02*
X007431Y015596D01*
X007431Y015675D02*
X007780Y015675D01*
X007780Y015753D02*
X007431Y015753D01*
X007431Y015832D02*
X007780Y015832D01*
X007780Y015910D02*
X007431Y015910D01*
X007431Y015989D02*
X007780Y015989D01*
X007780Y016067D02*
X007431Y016067D01*
X007431Y016146D02*
X007780Y016146D01*
X007780Y016224D02*
X007431Y016224D01*
X007431Y016303D02*
X007780Y016303D01*
X007780Y016381D02*
X007431Y016381D01*
X007431Y016460D02*
X007780Y016460D01*
X007780Y016538D02*
X007431Y016538D01*
X007431Y016617D02*
X007780Y016617D01*
X007780Y016695D02*
X007431Y016695D01*
X007431Y016774D02*
X007780Y016774D01*
X007780Y016852D02*
X007431Y016852D01*
X007431Y016931D02*
X007780Y016931D01*
X007780Y017009D02*
X007431Y017009D01*
X007431Y017088D02*
X007780Y017088D01*
X007780Y017166D02*
X007431Y017166D01*
X007431Y017245D02*
X007780Y017245D01*
X007780Y017323D02*
X007431Y017323D01*
X007431Y017402D02*
X007780Y017402D01*
X007780Y017480D02*
X007431Y017480D01*
X007431Y017559D02*
X007780Y017559D01*
X007780Y017637D02*
X007431Y017637D01*
X007431Y017716D02*
X007780Y017716D01*
X007780Y017794D02*
X007386Y017794D01*
X007308Y017873D02*
X007780Y017873D01*
X007780Y017951D02*
X007229Y017951D01*
X007181Y018030D02*
X007780Y018030D01*
X007780Y018108D02*
X007181Y018108D01*
X007181Y018187D02*
X007780Y018187D01*
X007780Y018265D02*
X007181Y018265D01*
X007181Y018344D02*
X007248Y018344D01*
X007225Y018422D02*
X007181Y018422D01*
X007180Y018501D02*
X007225Y018501D01*
X007225Y018579D02*
X007101Y018579D01*
X007023Y018658D02*
X007679Y018658D01*
X007679Y018736D02*
X007759Y018736D01*
X007759Y018815D02*
X007679Y018815D01*
X007679Y018893D02*
X007759Y018893D01*
X007759Y018972D02*
X007679Y018972D01*
X007679Y019050D02*
X007759Y019050D01*
X007337Y019050D02*
X006624Y019050D01*
X006682Y018972D02*
X007237Y018972D01*
X007225Y018893D02*
X006682Y018893D01*
X006866Y018815D02*
X007225Y018815D01*
X007225Y018736D02*
X006944Y018736D01*
X007679Y018579D02*
X007759Y018579D01*
X007759Y018501D02*
X007679Y018501D01*
X007679Y018422D02*
X007759Y018422D01*
X007759Y018344D02*
X007679Y018344D01*
X006260Y019521D02*
X005702Y019521D01*
X005801Y019600D02*
X006162Y019600D01*
X006156Y020228D02*
X005806Y020228D01*
X005717Y020306D02*
X006246Y020306D01*
X005246Y020306D02*
X003203Y020306D01*
X003291Y020228D02*
X005156Y020228D01*
X005090Y020149D02*
X003349Y020149D01*
X003388Y020071D02*
X005058Y020071D01*
X005031Y019992D02*
X003412Y019992D01*
X003424Y019914D02*
X005031Y019914D01*
X007491Y015439D02*
X007780Y015439D01*
X007780Y015361D02*
X007570Y015361D01*
X007648Y015282D02*
X007780Y015282D01*
X007780Y015204D02*
X007727Y015204D01*
X009172Y013555D02*
X009273Y013555D01*
X009300Y013477D02*
X009139Y013477D01*
X009099Y013398D02*
X009345Y013398D01*
X009413Y013320D02*
X009021Y013320D01*
X008931Y013241D02*
X009531Y013241D01*
X009771Y013634D02*
X010281Y013634D01*
X010281Y013712D02*
X010200Y013712D01*
X010201Y013707D02*
X010190Y013777D01*
X010167Y013847D01*
X010133Y013913D01*
X010090Y013973D01*
X010037Y014025D01*
X009977Y014069D01*
X009912Y014102D01*
X009841Y014125D01*
X009771Y014136D01*
X009771Y013707D01*
X010201Y013707D01*
X010185Y013791D02*
X010295Y013791D01*
X010328Y013869D02*
X010155Y013869D01*
X010108Y013948D02*
X010376Y013948D01*
X010454Y014026D02*
X010036Y014026D01*
X009904Y014105D02*
X010613Y014105D01*
X010290Y013555D02*
X010189Y013555D01*
X010162Y013477D02*
X010323Y013477D01*
X010363Y013398D02*
X010117Y013398D01*
X010049Y013320D02*
X010442Y013320D01*
X009771Y013712D02*
X009691Y013712D01*
X009691Y013791D02*
X009771Y013791D01*
X009771Y013869D02*
X009691Y013869D01*
X009691Y013948D02*
X009771Y013948D01*
X009771Y014026D02*
X009691Y014026D01*
X009691Y014105D02*
X009771Y014105D01*
X008990Y013163D02*
X011981Y013163D01*
X012059Y013084D02*
X009068Y013084D01*
X009147Y013006D02*
X012138Y013006D01*
X012216Y012927D02*
X009225Y012927D01*
X009304Y012849D02*
X012295Y012849D01*
X012372Y012770D02*
X009382Y012770D01*
X009461Y012692D02*
X011866Y012692D01*
X011756Y012613D02*
X009539Y012613D01*
X009618Y012535D02*
X011707Y012535D01*
X011683Y012456D02*
X009696Y012456D01*
X009775Y012378D02*
X011683Y012378D01*
X011707Y012299D02*
X009853Y012299D01*
X009932Y012221D02*
X011755Y012221D01*
X011865Y012142D02*
X010010Y012142D01*
X010089Y012064D02*
X011969Y012064D01*
X011969Y011985D02*
X010167Y011985D01*
X010246Y011907D02*
X011969Y011907D01*
X011969Y011828D02*
X010324Y011828D01*
X010403Y011750D02*
X011969Y011750D01*
X011910Y011671D02*
X012220Y011671D01*
X012345Y011671D02*
X012345Y011671D01*
X012345Y011750D02*
X012345Y011750D01*
X012345Y011828D02*
X012345Y011828D01*
X012345Y011907D02*
X012345Y011907D01*
X012345Y011985D02*
X012345Y011985D01*
X012345Y012064D02*
X012345Y012064D01*
X012345Y012142D02*
X012345Y012142D01*
X012345Y012221D02*
X012345Y012221D01*
X012318Y012299D02*
X012372Y012299D01*
X012372Y012378D02*
X012328Y012378D01*
X012328Y012456D02*
X012372Y012456D01*
X012372Y012535D02*
X012285Y012535D01*
X012206Y012613D02*
X012372Y012613D01*
X012372Y012692D02*
X012096Y012692D01*
X012471Y011671D02*
X014552Y011671D01*
X014559Y011678D02*
X014489Y011608D01*
X014489Y011434D01*
X014479Y011416D01*
X014469Y011380D01*
X014469Y011302D01*
X014786Y011302D01*
X014786Y011302D01*
X014786Y011302D01*
X015103Y011302D01*
X015103Y011329D01*
X015397Y011329D01*
X015407Y011319D01*
X015556Y011319D01*
X015661Y011425D01*
X015734Y011498D01*
X015779Y011607D01*
X015779Y011726D01*
X015734Y011836D01*
X015650Y011919D01*
X015540Y011965D01*
X015422Y011965D01*
X015312Y011919D01*
X015228Y011836D01*
X015183Y011726D01*
X015183Y011669D01*
X015022Y011669D01*
X015013Y011678D01*
X014559Y011678D01*
X014493Y011750D02*
X015193Y011750D01*
X015183Y011671D02*
X015020Y011671D01*
X015225Y011828D02*
X014493Y011828D01*
X014493Y011907D02*
X015300Y011907D01*
X015663Y011907D02*
X017217Y011907D01*
X017295Y011985D02*
X014493Y011985D01*
X014493Y012064D02*
X017374Y012064D01*
X017452Y012142D02*
X014493Y012142D01*
X014489Y011593D02*
X011973Y011593D01*
X011973Y011514D02*
X014489Y011514D01*
X014489Y011436D02*
X011973Y011436D01*
X011973Y011357D02*
X014469Y011357D01*
X014469Y011279D02*
X011973Y011279D01*
X011973Y011200D02*
X014476Y011200D01*
X014489Y011122D02*
X011973Y011122D01*
X011973Y011043D02*
X014489Y011043D01*
X014489Y010965D02*
X011973Y010965D01*
X011973Y010886D02*
X014489Y010886D01*
X014489Y010808D02*
X011973Y010808D01*
X011973Y010729D02*
X014489Y010729D01*
X014489Y010651D02*
X011973Y010651D01*
X011973Y010572D02*
X014489Y010572D01*
X014489Y010494D02*
X011973Y010494D01*
X011973Y010415D02*
X014489Y010415D01*
X014489Y010337D02*
X011973Y010337D01*
X011973Y010258D02*
X014489Y010258D01*
X014489Y010180D02*
X011973Y010180D01*
X011973Y010101D02*
X014489Y010101D01*
X014489Y010023D02*
X011973Y010023D01*
X011973Y009944D02*
X014489Y009944D01*
X014489Y009866D02*
X011973Y009866D01*
X011973Y009787D02*
X014489Y009787D01*
X014489Y009709D02*
X011973Y009709D01*
X011987Y009630D02*
X014489Y009630D01*
X014489Y009552D02*
X011993Y009552D01*
X011993Y009473D02*
X014489Y009473D01*
X014489Y009395D02*
X011973Y009395D01*
X011973Y009316D02*
X014489Y009316D01*
X014489Y009238D02*
X011973Y009238D01*
X011907Y009159D02*
X013396Y009159D01*
X013526Y009159D02*
X013526Y009159D01*
X013526Y009179D02*
X013526Y008862D01*
X013526Y008862D01*
X013526Y009179D01*
X013526Y009081D02*
X013526Y009081D01*
X013526Y009002D02*
X013526Y009002D01*
X013526Y008924D02*
X013526Y008924D01*
X013657Y009159D02*
X014555Y009159D01*
X014493Y009081D02*
X015063Y009081D01*
X015141Y009002D02*
X014493Y009002D01*
X014493Y008924D02*
X015220Y008924D01*
X015298Y008845D02*
X014493Y008845D01*
X014493Y008767D02*
X015377Y008767D01*
X015455Y008688D02*
X014493Y008688D01*
X014543Y008610D02*
X015534Y008610D01*
X015612Y008531D02*
X014621Y008531D01*
X014700Y008453D02*
X015691Y008453D01*
X015769Y008374D02*
X014778Y008374D01*
X014857Y008296D02*
X015848Y008296D01*
X015926Y008217D02*
X014935Y008217D01*
X015014Y008139D02*
X016005Y008139D01*
X016083Y008060D02*
X015092Y008060D01*
X015171Y007982D02*
X016162Y007982D01*
X016240Y007903D02*
X015249Y007903D01*
X015328Y007825D02*
X016319Y007825D01*
X016397Y007746D02*
X015406Y007746D01*
X015485Y007668D02*
X016476Y007668D01*
X016554Y007589D02*
X015563Y007589D01*
X015642Y007511D02*
X016633Y007511D01*
X016711Y007432D02*
X015720Y007432D01*
X015799Y007354D02*
X016790Y007354D01*
X016868Y007275D02*
X015877Y007275D01*
X015956Y007197D02*
X016947Y007197D01*
X017025Y007118D02*
X016034Y007118D01*
X016113Y007040D02*
X017104Y007040D01*
X017182Y006961D02*
X016191Y006961D01*
X016270Y006883D02*
X017261Y006883D01*
X017339Y006804D02*
X016348Y006804D01*
X016427Y006726D02*
X017418Y006726D01*
X017496Y006647D02*
X016505Y006647D01*
X016584Y006569D02*
X017575Y006569D01*
X017653Y006490D02*
X016662Y006490D01*
X016741Y006412D02*
X017732Y006412D01*
X017782Y006333D02*
X016819Y006333D01*
X016898Y006255D02*
X017860Y006255D01*
X016976Y006176D02*
X019104Y006176D01*
X019848Y006647D02*
X020114Y006647D01*
X020112Y006569D02*
X020193Y006569D01*
X020190Y006490D02*
X020335Y006490D01*
X020269Y006412D02*
X021026Y006412D01*
X021026Y006490D02*
X020627Y006490D01*
X020651Y006333D02*
X021026Y006333D01*
X021026Y006255D02*
X020779Y006255D01*
X020858Y006176D02*
X021026Y006176D01*
X021026Y006098D02*
X020893Y006098D01*
X020926Y006019D02*
X021026Y006019D01*
X021026Y005941D02*
X020931Y005941D01*
X020931Y005862D02*
X021026Y005862D01*
X021026Y005784D02*
X020913Y005784D01*
X020881Y005705D02*
X021026Y005705D01*
X021026Y005627D02*
X020828Y005627D01*
X020749Y005548D02*
X021026Y005548D01*
X021026Y005470D02*
X020578Y005470D01*
X020384Y005470D02*
X020211Y005470D01*
X020213Y005548D02*
X020132Y005548D01*
X020135Y005627D02*
X019828Y005627D01*
X019881Y005705D02*
X020082Y005705D01*
X020049Y005784D02*
X019913Y005784D01*
X019931Y005862D02*
X020031Y005862D01*
X020031Y005941D02*
X019931Y005941D01*
X019926Y006019D02*
X020036Y006019D01*
X020017Y006098D02*
X019893Y006098D01*
X019858Y006176D02*
X019939Y006176D01*
X019889Y006726D02*
X020073Y006726D01*
X020041Y006804D02*
X019922Y006804D01*
X019931Y006883D02*
X020031Y006883D01*
X020031Y006961D02*
X019931Y006961D01*
X019917Y007040D02*
X020045Y007040D01*
X019997Y007118D02*
X019885Y007118D01*
X019918Y007197D02*
X019837Y007197D01*
X020170Y007511D02*
X020285Y007511D01*
X020248Y007432D02*
X021026Y007432D01*
X021026Y007354D02*
X020602Y007354D01*
X020677Y007511D02*
X021026Y007511D01*
X021026Y007589D02*
X020790Y007589D01*
X020865Y007668D02*
X021026Y007668D01*
X021026Y007746D02*
X020898Y007746D01*
X020930Y007825D02*
X021026Y007825D01*
X021026Y007903D02*
X020931Y007903D01*
X020931Y007982D02*
X021026Y007982D01*
X021026Y008060D02*
X020909Y008060D01*
X020876Y008139D02*
X021026Y008139D01*
X021026Y008217D02*
X020817Y008217D01*
X020738Y008296D02*
X021026Y008296D01*
X021026Y008374D02*
X020306Y008374D01*
X020228Y008453D02*
X021026Y008453D01*
X021026Y008531D02*
X020726Y008531D01*
X020811Y008610D02*
X021026Y008610D01*
X021026Y008688D02*
X020874Y008688D01*
X020906Y008767D02*
X021026Y008767D01*
X021026Y008845D02*
X020931Y008845D01*
X020931Y008924D02*
X021026Y008924D01*
X021026Y009002D02*
X020931Y009002D01*
X020900Y009081D02*
X021026Y009081D01*
X021026Y009159D02*
X020868Y009159D01*
X020796Y009238D02*
X021026Y009238D01*
X021026Y009316D02*
X020692Y009316D01*
X021026Y009395D02*
X020286Y009395D01*
X020207Y009473D02*
X021026Y009473D01*
X021026Y009552D02*
X020129Y009552D01*
X019956Y009159D02*
X019868Y009159D01*
X019900Y009081D02*
X020034Y009081D01*
X020031Y009002D02*
X019931Y009002D01*
X019931Y008924D02*
X020031Y008924D01*
X020031Y008845D02*
X019931Y008845D01*
X019906Y008767D02*
X020056Y008767D01*
X020089Y008688D02*
X019874Y008688D01*
X020071Y008610D02*
X020152Y008610D01*
X020149Y008531D02*
X020236Y008531D01*
X019976Y008139D02*
X019876Y008139D01*
X019909Y008060D02*
X020053Y008060D01*
X020031Y007982D02*
X019931Y007982D01*
X019931Y007903D02*
X020031Y007903D01*
X020032Y007825D02*
X019930Y007825D01*
X019898Y007746D02*
X020065Y007746D01*
X020097Y007668D02*
X019865Y007668D01*
X020091Y007589D02*
X020172Y007589D01*
X020327Y007354D02*
X020360Y007354D01*
X020759Y007275D02*
X021026Y007275D01*
X021026Y007197D02*
X020837Y007197D01*
X020885Y007118D02*
X021026Y007118D01*
X021026Y007040D02*
X020917Y007040D01*
X020931Y006961D02*
X021026Y006961D01*
X021026Y006883D02*
X020931Y006883D01*
X020922Y006804D02*
X021026Y006804D01*
X021026Y006726D02*
X020889Y006726D01*
X020848Y006647D02*
X021026Y006647D01*
X021026Y006569D02*
X020770Y006569D01*
X021026Y005391D02*
X020289Y005391D01*
X020701Y005313D02*
X021026Y005313D01*
X021026Y005234D02*
X020800Y005234D01*
X020869Y005156D02*
X021026Y005156D01*
X021026Y005077D02*
X020902Y005077D01*
X020931Y004999D02*
X021026Y004999D01*
X021026Y004920D02*
X020931Y004920D01*
X020931Y004842D02*
X021026Y004842D01*
X021026Y004763D02*
X020905Y004763D01*
X020872Y004685D02*
X021026Y004685D01*
X021026Y004606D02*
X020807Y004606D01*
X020718Y004528D02*
X021026Y004528D01*
X021026Y004449D02*
X018231Y004449D01*
X018153Y004528D02*
X019040Y004528D01*
X019031Y004606D02*
X018074Y004606D01*
X018310Y004371D02*
X021026Y004371D01*
X021026Y004292D02*
X018388Y004292D01*
X018467Y004214D02*
X021026Y004214D01*
X021026Y004135D02*
X018545Y004135D01*
X018624Y004057D02*
X021026Y004057D01*
X021026Y003978D02*
X018681Y003978D01*
X018681Y003900D02*
X021026Y003900D01*
X021026Y003821D02*
X020727Y003821D01*
X020672Y003877D02*
X020291Y003877D01*
X020021Y003607D01*
X020021Y003226D01*
X020291Y002957D01*
X020672Y002957D01*
X020941Y003226D01*
X020941Y003607D01*
X020672Y003877D01*
X020806Y003743D02*
X021026Y003743D01*
X021026Y003664D02*
X020884Y003664D01*
X020941Y003586D02*
X021026Y003586D01*
X021026Y003507D02*
X020941Y003507D01*
X020941Y003429D02*
X021026Y003429D01*
X021026Y003350D02*
X020941Y003350D01*
X020941Y003272D02*
X021026Y003272D01*
X021026Y003193D02*
X020908Y003193D01*
X020830Y003115D02*
X021026Y003115D01*
X021026Y003036D02*
X020751Y003036D01*
X020673Y002958D02*
X021026Y002958D01*
X021026Y002879D02*
X009874Y002879D01*
X009849Y002958D02*
X018290Y002958D01*
X018211Y003036D02*
X013386Y003036D01*
X013432Y003115D02*
X018133Y003115D01*
X018054Y003193D02*
X013432Y003193D01*
X013432Y003272D02*
X018021Y003272D01*
X018021Y003350D02*
X013432Y003350D01*
X013432Y003429D02*
X018021Y003429D01*
X018021Y003507D02*
X015918Y003507D01*
X015986Y003586D02*
X015989Y003586D01*
X015667Y003586D02*
X015587Y003586D01*
X015587Y003664D02*
X015667Y003664D01*
X015667Y003743D02*
X015587Y003743D01*
X015587Y003821D02*
X015667Y003821D01*
X015587Y003900D02*
X013285Y003900D01*
X013285Y003978D02*
X015260Y003978D01*
X015260Y004057D02*
X013285Y004057D01*
X013285Y004135D02*
X015260Y004135D01*
X015260Y004214D02*
X013285Y004214D01*
X013285Y004292D02*
X015292Y004292D01*
X015587Y004292D02*
X015667Y004292D01*
X015667Y004214D02*
X015587Y004214D01*
X015587Y004135D02*
X015667Y004135D01*
X015667Y004057D02*
X015587Y004057D01*
X015587Y003978D02*
X015667Y003978D01*
X015961Y004292D02*
X016029Y004292D01*
X016459Y004685D02*
X013285Y004685D01*
X013285Y004606D02*
X016537Y004606D01*
X016616Y004528D02*
X013285Y004528D01*
X013285Y004449D02*
X016694Y004449D01*
X016652Y004371D02*
X013285Y004371D01*
X013300Y004763D02*
X016380Y004763D01*
X016302Y004842D02*
X013331Y004842D01*
X013331Y004920D02*
X016223Y004920D01*
X016145Y004999D02*
X013330Y004999D01*
X013298Y005077D02*
X016066Y005077D01*
X015988Y005156D02*
X013258Y005156D01*
X013179Y005234D02*
X015909Y005234D01*
X015831Y005313D02*
X013020Y005313D01*
X012842Y005313D02*
X012818Y005313D01*
X012807Y005391D02*
X015752Y005391D01*
X015674Y005470D02*
X012807Y005470D01*
X012807Y005548D02*
X015595Y005548D01*
X015517Y005627D02*
X012807Y005627D01*
X012807Y005705D02*
X015438Y005705D01*
X015360Y005784D02*
X013589Y005784D01*
X013651Y005862D02*
X015281Y005862D01*
X015203Y005941D02*
X013651Y005941D01*
X013619Y006019D02*
X015124Y006019D01*
X015046Y006098D02*
X013682Y006098D01*
X013682Y006176D02*
X014967Y006176D01*
X014889Y006255D02*
X013682Y006255D01*
X013682Y006333D02*
X014810Y006333D01*
X014732Y006412D02*
X013682Y006412D01*
X013682Y006490D02*
X014653Y006490D01*
X014575Y006569D02*
X013682Y006569D01*
X013682Y006647D02*
X014496Y006647D01*
X014418Y006726D02*
X013682Y006726D01*
X013651Y006804D02*
X014339Y006804D01*
X014261Y006883D02*
X013651Y006883D01*
X013651Y006961D02*
X014182Y006961D01*
X014104Y007040D02*
X013598Y007040D01*
X013520Y007118D02*
X014025Y007118D01*
X013947Y007197D02*
X013441Y007197D01*
X013363Y007275D02*
X013868Y007275D01*
X013790Y007354D02*
X013303Y007354D01*
X013303Y007432D02*
X013711Y007432D01*
X013633Y007511D02*
X013303Y007511D01*
X013303Y007589D02*
X013554Y007589D01*
X013476Y007668D02*
X013303Y007668D01*
X013303Y007746D02*
X013397Y007746D01*
X013319Y007825D02*
X013303Y007825D01*
X012372Y008062D02*
X012157Y007847D01*
X011657Y007847D01*
X010927Y007117D01*
X009898Y007117D01*
X008126Y005344D01*
X008071Y005367D01*
X007892Y005367D01*
X007726Y005298D01*
X007600Y005172D01*
X007531Y005006D01*
X007531Y004827D01*
X007554Y004772D01*
X007398Y004617D01*
X007281Y004500D01*
X007281Y003617D01*
X007114Y003586D02*
X006398Y003586D01*
X006431Y003507D02*
X007076Y003507D01*
X007076Y003429D02*
X006431Y003429D01*
X006431Y003350D02*
X007076Y003350D01*
X007076Y003272D02*
X006408Y003272D01*
X006376Y003193D02*
X007076Y003193D01*
X007076Y003115D02*
X006316Y003115D01*
X006237Y003036D02*
X007076Y003036D01*
X007113Y002958D02*
X005223Y002958D01*
X005181Y003036D02*
X005725Y003036D01*
X005647Y003115D02*
X005181Y003115D01*
X005181Y003193D02*
X005587Y003193D01*
X005554Y003272D02*
X005181Y003272D01*
X005181Y003350D02*
X005531Y003350D01*
X005531Y003429D02*
X005181Y003429D01*
X005181Y003507D02*
X005532Y003507D01*
X005529Y003586D02*
X005181Y003586D01*
X005181Y003664D02*
X005451Y003664D01*
X005372Y003743D02*
X005181Y003743D01*
X005181Y003821D02*
X005294Y003821D01*
X005215Y003900D02*
X005181Y003900D01*
X004781Y003821D02*
X004255Y003821D01*
X004180Y003897D02*
X004021Y003897D01*
X004021Y003457D01*
X003941Y003457D01*
X003941Y003897D01*
X003782Y003897D01*
X003501Y003615D01*
X003501Y003457D01*
X003941Y003457D01*
X003941Y003377D01*
X003501Y003377D01*
X003501Y003218D01*
X003782Y002937D01*
X003941Y002937D01*
X003941Y003377D01*
X004021Y003377D01*
X004021Y003457D01*
X004461Y003457D01*
X004461Y003615D01*
X004180Y003897D01*
X004021Y003821D02*
X003941Y003821D01*
X003941Y003743D02*
X004021Y003743D01*
X004021Y003664D02*
X003941Y003664D01*
X003941Y003586D02*
X004021Y003586D01*
X004021Y003507D02*
X003941Y003507D01*
X003941Y003429D02*
X002021Y003429D01*
X002021Y003457D02*
X002461Y003457D01*
X002461Y003615D01*
X002180Y003897D01*
X002021Y003897D01*
X002021Y003457D01*
X002021Y003507D02*
X001941Y003507D01*
X001941Y003586D02*
X002021Y003586D01*
X002021Y003664D02*
X001941Y003664D01*
X001941Y003743D02*
X002021Y003743D01*
X002021Y003821D02*
X001941Y003821D01*
X002255Y003821D02*
X003707Y003821D01*
X003628Y003743D02*
X002334Y003743D01*
X002412Y003664D02*
X003550Y003664D01*
X003501Y003586D02*
X002461Y003586D01*
X002461Y003507D02*
X003501Y003507D01*
X003501Y003350D02*
X002461Y003350D01*
X002461Y003377D02*
X002021Y003377D01*
X002021Y002937D01*
X002180Y002937D01*
X002461Y003218D01*
X002461Y003377D01*
X002461Y003272D02*
X003501Y003272D01*
X003526Y003193D02*
X002436Y003193D01*
X002358Y003115D02*
X003604Y003115D01*
X003683Y003036D02*
X002279Y003036D01*
X002201Y002958D02*
X003761Y002958D01*
X003941Y002958D02*
X004021Y002958D01*
X004021Y002937D02*
X004180Y002937D01*
X004461Y003218D01*
X004461Y003377D01*
X004021Y003377D01*
X004021Y002937D01*
X004021Y003036D02*
X003941Y003036D01*
X003941Y003115D02*
X004021Y003115D01*
X004021Y003193D02*
X003941Y003193D01*
X003941Y003272D02*
X004021Y003272D01*
X004021Y003350D02*
X003941Y003350D01*
X004021Y003429D02*
X004781Y003429D01*
X004781Y003507D02*
X004461Y003507D01*
X004461Y003586D02*
X004781Y003586D01*
X004781Y003664D02*
X004412Y003664D01*
X004334Y003743D02*
X004781Y003743D01*
X004715Y003900D02*
X001621Y003900D01*
X001621Y003978D02*
X004637Y003978D01*
X004558Y004057D02*
X001621Y004057D01*
X001621Y004135D02*
X004480Y004135D01*
X004401Y004214D02*
X001621Y004214D01*
X001621Y004292D02*
X004323Y004292D01*
X004244Y004371D02*
X001621Y004371D01*
X001621Y004449D02*
X004166Y004449D01*
X004092Y004528D02*
X003870Y004528D01*
X003863Y004521D02*
X003934Y004591D01*
X003934Y005242D01*
X003863Y005312D01*
X003351Y005312D01*
X003280Y005242D01*
X003280Y005117D01*
X003251Y005117D01*
X003251Y005203D01*
X003180Y005273D01*
X002609Y005273D01*
X002538Y005203D01*
X002538Y004631D01*
X002609Y004560D01*
X003180Y004560D01*
X003251Y004631D01*
X003251Y004717D01*
X003280Y004717D01*
X003280Y004591D01*
X003351Y004521D01*
X003863Y004521D01*
X003934Y004606D02*
X004028Y004606D01*
X004028Y004685D02*
X003934Y004685D01*
X003934Y004763D02*
X004028Y004763D01*
X004028Y004842D02*
X003934Y004842D01*
X003934Y004920D02*
X004028Y004920D01*
X004028Y004999D02*
X003934Y004999D01*
X003934Y005077D02*
X004028Y005077D01*
X004028Y005156D02*
X003934Y005156D01*
X003934Y005234D02*
X004028Y005234D01*
X003863Y005521D02*
X003934Y005591D01*
X003934Y006242D01*
X003863Y006312D01*
X003351Y006312D01*
X003280Y006242D01*
X003280Y006117D01*
X003251Y006117D01*
X003251Y006203D01*
X003180Y006273D01*
X002609Y006273D01*
X002538Y006203D01*
X002538Y005631D01*
X002609Y005560D01*
X003180Y005560D01*
X003251Y005631D01*
X003251Y005717D01*
X003280Y005717D01*
X003280Y005591D01*
X003351Y005521D01*
X003863Y005521D01*
X003891Y005548D02*
X004072Y005548D01*
X004028Y005627D02*
X003934Y005627D01*
X003934Y005705D02*
X004028Y005705D01*
X004028Y005784D02*
X003934Y005784D01*
X003934Y005862D02*
X004028Y005862D01*
X004028Y005941D02*
X003934Y005941D01*
X003934Y006019D02*
X004028Y006019D01*
X004028Y006098D02*
X003934Y006098D01*
X003934Y006176D02*
X004028Y006176D01*
X004041Y006255D02*
X003921Y006255D01*
X003863Y006521D02*
X003934Y006591D01*
X003934Y007242D01*
X003863Y007312D01*
X003351Y007312D01*
X003280Y007242D01*
X003280Y007117D01*
X003251Y007117D01*
X003251Y007203D01*
X003180Y007273D01*
X002609Y007273D01*
X002538Y007203D01*
X002538Y006631D01*
X002609Y006560D01*
X003180Y006560D01*
X003251Y006631D01*
X003251Y006717D01*
X003280Y006717D01*
X003280Y006591D01*
X003351Y006521D01*
X003863Y006521D01*
X003911Y006569D02*
X004051Y006569D01*
X004028Y006647D02*
X003934Y006647D01*
X003934Y006726D02*
X004028Y006726D01*
X004028Y006804D02*
X003934Y006804D01*
X003934Y006883D02*
X004028Y006883D01*
X004028Y006961D02*
X003934Y006961D01*
X003934Y007040D02*
X004028Y007040D01*
X004028Y007118D02*
X003934Y007118D01*
X003934Y007197D02*
X004028Y007197D01*
X004062Y007275D02*
X003901Y007275D01*
X003783Y007589D02*
X002508Y007589D01*
X002619Y007668D02*
X003780Y007668D01*
X003314Y007275D02*
X002372Y007275D01*
X002437Y007197D02*
X002538Y007197D01*
X002538Y007118D02*
X002444Y007118D01*
X002444Y007040D02*
X002538Y007040D01*
X002538Y006961D02*
X002444Y006961D01*
X002444Y006877D02*
X002108Y006877D01*
X002108Y006540D01*
X002322Y006540D01*
X002358Y006550D01*
X002390Y006568D01*
X002416Y006594D01*
X002434Y006626D01*
X002444Y006662D01*
X002444Y006877D01*
X002444Y006804D02*
X002538Y006804D01*
X002538Y006726D02*
X002444Y006726D01*
X002440Y006647D02*
X002538Y006647D01*
X002600Y006569D02*
X002390Y006569D01*
X002322Y006293D02*
X002108Y006293D01*
X002108Y005957D01*
X002028Y005957D01*
X002028Y006293D01*
X001813Y006293D01*
X001777Y006283D01*
X001746Y006265D01*
X001719Y006239D01*
X001701Y006207D01*
X001691Y006171D01*
X001691Y005957D01*
X002028Y005957D01*
X002028Y005877D01*
X002108Y005877D01*
X002108Y005957D01*
X002444Y005957D01*
X002444Y006171D01*
X002434Y006207D01*
X002416Y006239D01*
X002390Y006265D01*
X002358Y006283D01*
X002322Y006293D01*
X002400Y006255D02*
X002590Y006255D01*
X002538Y006176D02*
X002443Y006176D01*
X002444Y006098D02*
X002538Y006098D01*
X002538Y006019D02*
X002444Y006019D01*
X002538Y005941D02*
X002108Y005941D01*
X002108Y005877D02*
X002444Y005877D01*
X002444Y005662D01*
X002434Y005626D01*
X002416Y005594D01*
X002390Y005568D01*
X002358Y005550D01*
X002322Y005540D01*
X002108Y005540D01*
X002108Y005877D01*
X002108Y005862D02*
X002028Y005862D01*
X002028Y005877D02*
X002028Y005540D01*
X001813Y005540D01*
X001777Y005550D01*
X001746Y005568D01*
X001719Y005594D01*
X001701Y005626D01*
X001691Y005662D01*
X001691Y005877D01*
X002028Y005877D01*
X002028Y005941D02*
X001621Y005941D01*
X001621Y006019D02*
X001691Y006019D01*
X001691Y006098D02*
X001621Y006098D01*
X001621Y006176D02*
X001693Y006176D01*
X001735Y006255D02*
X001621Y006255D01*
X001621Y005862D02*
X001691Y005862D01*
X001691Y005784D02*
X001621Y005784D01*
X001621Y005705D02*
X001691Y005705D01*
X001701Y005627D02*
X001621Y005627D01*
X001621Y005548D02*
X001784Y005548D01*
X001621Y005470D02*
X004645Y005470D01*
X004724Y005391D02*
X001621Y005391D01*
X001621Y005313D02*
X004781Y005313D01*
X004781Y005234D02*
X004682Y005234D01*
X004682Y005156D02*
X004781Y005156D01*
X004781Y005077D02*
X004682Y005077D01*
X004682Y004999D02*
X004781Y004999D01*
X004781Y004920D02*
X004682Y004920D01*
X004682Y004842D02*
X004781Y004842D01*
X004781Y004763D02*
X004682Y004763D01*
X004682Y004685D02*
X004781Y004685D01*
X004781Y004606D02*
X004682Y004606D01*
X004653Y004528D02*
X004781Y004528D01*
X004781Y004449D02*
X004731Y004449D01*
X005682Y004999D02*
X005814Y004999D01*
X005760Y004920D02*
X007531Y004920D01*
X007531Y004842D02*
X006131Y004842D01*
X006148Y004999D02*
X007531Y004999D01*
X007561Y005077D02*
X006278Y005077D01*
X006357Y005156D02*
X007593Y005156D01*
X007662Y005234D02*
X006393Y005234D01*
X006425Y005313D02*
X007761Y005313D01*
X007662Y005481D02*
X007727Y005515D01*
X007787Y005558D01*
X007840Y005610D01*
X007883Y005670D01*
X007917Y005736D01*
X007940Y005807D01*
X007951Y005877D01*
X007521Y005877D01*
X007521Y005957D01*
X007441Y005957D01*
X007441Y006386D01*
X007371Y006375D01*
X007301Y006352D01*
X007235Y006319D01*
X007175Y006275D01*
X007123Y006223D01*
X007079Y006163D01*
X007046Y006097D01*
X007023Y006027D01*
X007012Y005957D01*
X007441Y005957D01*
X007441Y005877D01*
X007012Y005877D01*
X007023Y005807D01*
X007046Y005736D01*
X007079Y005670D01*
X007123Y005610D01*
X007175Y005558D01*
X007235Y005515D01*
X007301Y005481D01*
X007371Y005458D01*
X007441Y005447D01*
X007441Y005877D01*
X007521Y005877D01*
X007521Y005447D01*
X007591Y005458D01*
X007662Y005481D01*
X007626Y005470D02*
X008251Y005470D01*
X008330Y005548D02*
X007774Y005548D01*
X007851Y005627D02*
X008408Y005627D01*
X008487Y005705D02*
X007901Y005705D01*
X007932Y005784D02*
X008565Y005784D01*
X008644Y005862D02*
X007948Y005862D01*
X007951Y005957D02*
X007940Y006027D01*
X007917Y006097D01*
X007883Y006163D01*
X007840Y006223D01*
X007787Y006275D01*
X007727Y006319D01*
X007662Y006352D01*
X007591Y006375D01*
X007521Y006386D01*
X007521Y005957D01*
X007951Y005957D01*
X007941Y006019D02*
X008801Y006019D01*
X008879Y006098D02*
X007916Y006098D01*
X007874Y006176D02*
X008958Y006176D01*
X009036Y006255D02*
X007808Y006255D01*
X007699Y006333D02*
X009115Y006333D01*
X009193Y006412D02*
X006931Y006412D01*
X006931Y006490D02*
X007335Y006490D01*
X007392Y006467D02*
X007571Y006467D01*
X007736Y006535D01*
X007863Y006662D01*
X007885Y006717D01*
X007938Y006717D01*
X008055Y006834D01*
X008437Y007216D01*
X008806Y007216D01*
X008877Y007286D01*
X008877Y007737D01*
X008878Y007737D01*
X008898Y007717D01*
X009064Y007717D01*
X009281Y007934D01*
X009281Y007827D01*
X009350Y007662D01*
X009476Y007535D01*
X009642Y007467D01*
X009821Y007467D01*
X009986Y007535D01*
X010113Y007662D01*
X010181Y007827D01*
X010181Y008006D01*
X010158Y008061D01*
X010314Y008217D01*
X011064Y008217D01*
X011181Y008334D01*
X011181Y008362D01*
X011556Y008737D01*
X011969Y008737D01*
X011969Y008635D01*
X012040Y008564D01*
X012124Y008564D01*
X011940Y008380D01*
X011900Y008419D01*
X011790Y008465D01*
X011672Y008465D01*
X011562Y008419D01*
X011478Y008336D01*
X011433Y008226D01*
X011433Y008107D01*
X011478Y007998D01*
X011562Y007914D01*
X011672Y007869D01*
X011790Y007869D01*
X011900Y007914D01*
X011973Y007987D01*
X012056Y007987D01*
X012161Y008092D01*
X012372Y008303D01*
X012372Y008062D01*
X012370Y008060D02*
X012129Y008060D01*
X012208Y008139D02*
X012372Y008139D01*
X012372Y008217D02*
X012286Y008217D01*
X012365Y008296D02*
X012372Y008296D01*
X012292Y007982D02*
X011968Y007982D01*
X011874Y007903D02*
X012213Y007903D01*
X012013Y008453D02*
X011820Y008453D01*
X011643Y008453D02*
X011272Y008453D01*
X011350Y008531D02*
X012091Y008531D01*
X011994Y008610D02*
X011429Y008610D01*
X011507Y008688D02*
X011969Y008688D01*
X011517Y008374D02*
X011193Y008374D01*
X011143Y008296D02*
X011462Y008296D01*
X011433Y008217D02*
X011064Y008217D01*
X011433Y008139D02*
X010236Y008139D01*
X010159Y008060D02*
X011453Y008060D01*
X011494Y007982D02*
X010181Y007982D01*
X010181Y007903D02*
X011588Y007903D01*
X011635Y007825D02*
X010180Y007825D01*
X010148Y007746D02*
X011556Y007746D01*
X011478Y007668D02*
X010115Y007668D01*
X010040Y007589D02*
X011399Y007589D01*
X011321Y007511D02*
X009927Y007511D01*
X009535Y007511D02*
X008877Y007511D01*
X008877Y007589D02*
X009422Y007589D01*
X009347Y007668D02*
X008877Y007668D01*
X009093Y007746D02*
X009315Y007746D01*
X009282Y007825D02*
X009172Y007825D01*
X009250Y007903D02*
X009281Y007903D01*
X008999Y008217D02*
X008877Y008217D01*
X008877Y008139D02*
X008920Y008139D01*
X008877Y008296D02*
X009031Y008296D01*
X009031Y008374D02*
X008877Y008374D01*
X008877Y008453D02*
X009031Y008453D01*
X009063Y008531D02*
X008877Y008531D01*
X008814Y008610D02*
X009141Y008610D01*
X009220Y008688D02*
X008681Y008688D01*
X008742Y008767D02*
X009281Y008767D01*
X009281Y008845D02*
X008774Y008845D01*
X008779Y008924D02*
X009281Y008924D01*
X009281Y009002D02*
X008768Y009002D01*
X008736Y009081D02*
X009281Y009081D01*
X009281Y009159D02*
X008660Y009159D01*
X008835Y009238D02*
X009281Y009238D01*
X009301Y009316D02*
X008913Y009316D01*
X008964Y009395D02*
X010788Y009395D01*
X010720Y009316D02*
X010161Y009316D01*
X010181Y009238D02*
X010656Y009238D01*
X010866Y009473D02*
X009042Y009473D01*
X009121Y009552D02*
X011359Y009552D01*
X011279Y009159D02*
X011445Y009159D01*
X011391Y009081D02*
X011268Y009081D01*
X011236Y009002D02*
X011312Y009002D01*
X011234Y008924D02*
X011160Y008924D01*
X011155Y008845D02*
X011056Y008845D01*
X011077Y008767D02*
X010977Y008767D01*
X010998Y008688D02*
X010899Y008688D01*
X011242Y007432D02*
X008877Y007432D01*
X008877Y007354D02*
X011164Y007354D01*
X011085Y007275D02*
X008866Y007275D01*
X008418Y007197D02*
X011007Y007197D01*
X010928Y007118D02*
X008339Y007118D01*
X008261Y007040D02*
X009821Y007040D01*
X009743Y006961D02*
X008182Y006961D01*
X008104Y006883D02*
X009664Y006883D01*
X009586Y006804D02*
X008025Y006804D01*
X007947Y006726D02*
X009507Y006726D01*
X009429Y006647D02*
X007848Y006647D01*
X007770Y006569D02*
X009350Y006569D01*
X009272Y006490D02*
X007627Y006490D01*
X007521Y006333D02*
X007441Y006333D01*
X007441Y006255D02*
X007521Y006255D01*
X007521Y006176D02*
X007441Y006176D01*
X007441Y006098D02*
X007521Y006098D01*
X007521Y006019D02*
X007441Y006019D01*
X007441Y005941D02*
X006931Y005941D01*
X006931Y006019D02*
X007021Y006019D01*
X007046Y006098D02*
X006931Y006098D01*
X006931Y006176D02*
X007089Y006176D01*
X007154Y006255D02*
X006931Y006255D01*
X006931Y006333D02*
X007263Y006333D01*
X007392Y006467D02*
X007226Y006535D01*
X007100Y006662D01*
X007031Y006827D01*
X007031Y007006D01*
X007100Y007172D01*
X007226Y007298D01*
X007392Y007367D01*
X007571Y007367D01*
X007736Y007298D01*
X007845Y007189D01*
X008086Y007430D01*
X008086Y007737D01*
X008084Y007737D01*
X008064Y007717D01*
X007931Y007717D01*
X007931Y007537D01*
X007861Y007467D01*
X007101Y007467D01*
X007031Y007537D01*
X007031Y008296D01*
X006885Y008296D01*
X006931Y008217D02*
X007031Y008217D01*
X007031Y008139D02*
X006931Y008139D01*
X006931Y008060D02*
X007031Y008060D01*
X007031Y007982D02*
X006931Y007982D01*
X006931Y007903D02*
X007031Y007903D01*
X007031Y007825D02*
X006931Y007825D01*
X006931Y007746D02*
X007031Y007746D01*
X007031Y007668D02*
X006931Y007668D01*
X006931Y007589D02*
X007031Y007589D01*
X007057Y007511D02*
X006931Y007511D01*
X006931Y007432D02*
X008086Y007432D01*
X008086Y007511D02*
X007905Y007511D01*
X007931Y007589D02*
X008086Y007589D01*
X008086Y007668D02*
X007931Y007668D01*
X008009Y007354D02*
X007602Y007354D01*
X007759Y007275D02*
X007931Y007275D01*
X007852Y007197D02*
X007837Y007197D01*
X007360Y007354D02*
X006931Y007354D01*
X006931Y007275D02*
X007203Y007275D01*
X007125Y007197D02*
X006931Y007197D01*
X006931Y007118D02*
X007077Y007118D01*
X007045Y007040D02*
X006931Y007040D01*
X006931Y006961D02*
X007031Y006961D01*
X007031Y006883D02*
X006931Y006883D01*
X006931Y006804D02*
X007041Y006804D01*
X007073Y006726D02*
X006931Y006726D01*
X006931Y006647D02*
X007114Y006647D01*
X007193Y006569D02*
X006931Y006569D01*
X006531Y006883D02*
X005548Y006883D01*
X005469Y006961D02*
X006531Y006961D01*
X005741Y006804D02*
X005626Y006804D01*
X005722Y007040D02*
X005431Y007040D01*
X005431Y007118D02*
X005643Y007118D01*
X005585Y007197D02*
X005431Y007197D01*
X005431Y007275D02*
X005553Y007275D01*
X005531Y007354D02*
X005431Y007354D01*
X005431Y007432D02*
X005531Y007432D01*
X005533Y007511D02*
X005431Y007511D01*
X005431Y007589D02*
X005565Y007589D01*
X005598Y007668D02*
X005387Y007668D01*
X005308Y007746D02*
X005674Y007746D01*
X005781Y007825D02*
X005230Y007825D01*
X005182Y007903D02*
X005712Y007903D01*
X005633Y007982D02*
X005182Y007982D01*
X005182Y008060D02*
X005555Y008060D01*
X005476Y008139D02*
X005182Y008139D01*
X004978Y007511D02*
X001621Y007511D01*
X001621Y007432D02*
X005031Y007432D01*
X005031Y007354D02*
X001621Y007354D01*
X001621Y007275D02*
X001763Y007275D01*
X001698Y007197D02*
X001621Y007197D01*
X001621Y007118D02*
X001691Y007118D01*
X001691Y007040D02*
X001621Y007040D01*
X001621Y006961D02*
X001691Y006961D01*
X002028Y006804D02*
X002108Y006804D01*
X002108Y006726D02*
X002028Y006726D01*
X002028Y006647D02*
X002108Y006647D01*
X002108Y006569D02*
X002028Y006569D01*
X002028Y006255D02*
X002108Y006255D01*
X002108Y006176D02*
X002028Y006176D01*
X002028Y006098D02*
X002108Y006098D01*
X002108Y006019D02*
X002028Y006019D01*
X002028Y005784D02*
X002108Y005784D01*
X002108Y005705D02*
X002028Y005705D01*
X002028Y005627D02*
X002108Y005627D01*
X002108Y005548D02*
X002028Y005548D01*
X002028Y005293D02*
X001813Y005293D01*
X001777Y005283D01*
X001746Y005265D01*
X001719Y005239D01*
X001701Y005207D01*
X001691Y005171D01*
X001691Y004957D01*
X002028Y004957D01*
X002028Y005293D01*
X002028Y005234D02*
X002108Y005234D01*
X002108Y005293D02*
X002108Y004957D01*
X002028Y004957D01*
X002028Y004877D01*
X002108Y004877D01*
X002108Y004957D01*
X002444Y004957D01*
X002444Y005171D01*
X002434Y005207D01*
X002416Y005239D01*
X002390Y005265D01*
X002358Y005283D01*
X002322Y005293D01*
X002108Y005293D01*
X002108Y005156D02*
X002028Y005156D01*
X002028Y005077D02*
X002108Y005077D01*
X002108Y004999D02*
X002028Y004999D01*
X002028Y004920D02*
X001621Y004920D01*
X001621Y004842D02*
X001691Y004842D01*
X001691Y004877D02*
X001691Y004662D01*
X001701Y004626D01*
X001719Y004594D01*
X001746Y004568D01*
X001777Y004550D01*
X001813Y004540D01*
X002028Y004540D01*
X002028Y004877D01*
X001691Y004877D01*
X001691Y004763D02*
X001621Y004763D01*
X001621Y004685D02*
X001691Y004685D01*
X001713Y004606D02*
X001621Y004606D01*
X001621Y004528D02*
X003344Y004528D01*
X003280Y004606D02*
X003226Y004606D01*
X003251Y004685D02*
X003280Y004685D01*
X003251Y005156D02*
X003280Y005156D01*
X003280Y005234D02*
X003219Y005234D01*
X003324Y005548D02*
X002351Y005548D01*
X002434Y005627D02*
X002542Y005627D01*
X002538Y005705D02*
X002444Y005705D01*
X002444Y005784D02*
X002538Y005784D01*
X002538Y005862D02*
X002444Y005862D01*
X002419Y005234D02*
X002570Y005234D01*
X002538Y005156D02*
X002444Y005156D01*
X002444Y005077D02*
X002538Y005077D01*
X002538Y004999D02*
X002444Y004999D01*
X002444Y004877D02*
X002108Y004877D01*
X002108Y004540D01*
X002322Y004540D01*
X002358Y004550D01*
X002390Y004568D01*
X002416Y004594D01*
X002434Y004626D01*
X002444Y004662D01*
X002444Y004877D01*
X002444Y004842D02*
X002538Y004842D01*
X002538Y004920D02*
X002108Y004920D01*
X002108Y004842D02*
X002028Y004842D01*
X002028Y004763D02*
X002108Y004763D01*
X002108Y004685D02*
X002028Y004685D01*
X002028Y004606D02*
X002108Y004606D01*
X002423Y004606D02*
X002563Y004606D01*
X002538Y004685D02*
X002444Y004685D01*
X002444Y004763D02*
X002538Y004763D01*
X001717Y005234D02*
X001621Y005234D01*
X001621Y005156D02*
X001691Y005156D01*
X001691Y005077D02*
X001621Y005077D01*
X001621Y004999D02*
X001691Y004999D01*
X001707Y003821D02*
X001621Y003821D01*
X001621Y003743D02*
X001628Y003743D01*
X001941Y003350D02*
X002021Y003350D01*
X002021Y003272D02*
X001941Y003272D01*
X001941Y003193D02*
X002021Y003193D01*
X002021Y003115D02*
X001941Y003115D01*
X001941Y003036D02*
X002021Y003036D01*
X002021Y002958D02*
X001941Y002958D01*
X001761Y002958D02*
X001621Y002958D01*
X001621Y003036D02*
X001683Y003036D01*
X001621Y002879D02*
X004781Y002879D01*
X004781Y002958D02*
X004201Y002958D01*
X004279Y003036D02*
X004781Y003036D01*
X004781Y003115D02*
X004358Y003115D01*
X004436Y003193D02*
X004781Y003193D01*
X004781Y003272D02*
X004461Y003272D01*
X004461Y003350D02*
X004781Y003350D01*
X004814Y002801D02*
X001621Y002801D01*
X001621Y002722D02*
X004893Y002722D01*
X004971Y002644D02*
X001621Y002644D01*
X001621Y002565D02*
X005050Y002565D01*
X005128Y002487D02*
X001621Y002487D01*
X001621Y002408D02*
X005207Y002408D01*
X005285Y002330D02*
X001621Y002330D01*
X001621Y002251D02*
X005364Y002251D01*
X005595Y002173D02*
X001621Y002173D01*
X001621Y002094D02*
X005667Y002094D01*
X005773Y002016D02*
X001621Y002016D01*
X001621Y001937D02*
X010701Y001937D01*
X010701Y001859D02*
X010397Y001859D01*
X010365Y001877D01*
X010330Y001887D01*
X010021Y001887D01*
X010021Y001457D01*
X010451Y001457D01*
X010451Y001765D01*
X010442Y001801D01*
X010423Y001833D01*
X010397Y001859D01*
X010447Y001780D02*
X010701Y001780D01*
X010630Y001702D02*
X010451Y001702D01*
X010451Y001623D02*
X010580Y001623D01*
X010547Y001545D02*
X010451Y001545D01*
X010451Y001466D02*
X010531Y001466D01*
X010531Y001388D02*
X010021Y001388D01*
X010021Y001466D02*
X009941Y001466D01*
X009941Y001388D02*
X006431Y001388D01*
X006431Y001466D02*
X009511Y001466D01*
X009511Y001545D02*
X006431Y001545D01*
X006431Y001623D02*
X009511Y001623D01*
X009511Y001702D02*
X006431Y001702D01*
X006431Y001780D02*
X009515Y001780D01*
X009565Y001859D02*
X006369Y001859D01*
X006189Y002016D02*
X010701Y002016D01*
X010701Y002094D02*
X006295Y002094D01*
X006367Y002173D02*
X010701Y002173D01*
X010664Y002251D02*
X009879Y002251D01*
X009907Y002330D02*
X010632Y002330D01*
X010625Y002408D02*
X009907Y002408D01*
X009907Y002487D02*
X010625Y002487D01*
X010657Y002565D02*
X009521Y002565D01*
X009521Y002487D02*
X009441Y002487D01*
X009441Y002522D02*
X009441Y002196D01*
X009177Y002196D01*
X009142Y002205D01*
X009110Y002224D01*
X009084Y002250D01*
X009065Y002282D01*
X009056Y002318D01*
X009056Y002522D01*
X009441Y002522D01*
X009441Y002565D02*
X007521Y002565D01*
X007521Y002487D02*
X007441Y002487D01*
X007441Y002522D02*
X007441Y002196D01*
X007177Y002196D01*
X007142Y002205D01*
X007110Y002224D01*
X007084Y002250D01*
X007065Y002282D01*
X007056Y002318D01*
X007056Y002522D01*
X007441Y002522D01*
X007441Y002565D02*
X006407Y002565D01*
X006431Y002487D02*
X007056Y002487D01*
X007056Y002408D02*
X006431Y002408D01*
X006431Y002330D02*
X007056Y002330D01*
X007083Y002251D02*
X006400Y002251D01*
X006374Y002644D02*
X007056Y002644D01*
X007056Y002722D02*
X006312Y002722D01*
X006230Y002801D02*
X007056Y002801D01*
X007088Y002879D02*
X005301Y002879D01*
X005380Y002801D02*
X005732Y002801D01*
X005650Y002722D02*
X005458Y002722D01*
X005537Y002644D02*
X005588Y002644D01*
X005593Y001859D02*
X004190Y001859D01*
X004268Y001780D02*
X005531Y001780D01*
X005531Y001702D02*
X004347Y001702D01*
X004425Y001623D02*
X005531Y001623D01*
X006431Y001309D02*
X009511Y001309D01*
X009511Y001231D02*
X006431Y001231D01*
X006431Y001152D02*
X009511Y001152D01*
X009511Y001074D02*
X006431Y001074D01*
X007441Y002251D02*
X007521Y002251D01*
X007521Y002330D02*
X007441Y002330D01*
X007441Y002408D02*
X007521Y002408D01*
X007879Y002251D02*
X009083Y002251D01*
X009056Y002330D02*
X007907Y002330D01*
X007907Y002408D02*
X009056Y002408D01*
X009056Y002487D02*
X007907Y002487D01*
X007907Y002644D02*
X009056Y002644D01*
X009056Y002722D02*
X007907Y002722D01*
X007907Y002801D02*
X009056Y002801D01*
X009088Y002879D02*
X007874Y002879D01*
X007849Y002958D02*
X009113Y002958D01*
X009076Y003036D02*
X007887Y003036D01*
X007887Y003115D02*
X009076Y003115D01*
X009076Y003193D02*
X007887Y003193D01*
X007887Y003272D02*
X009076Y003272D01*
X009076Y003350D02*
X007887Y003350D01*
X007887Y003429D02*
X009076Y003429D01*
X009076Y003507D02*
X007887Y003507D01*
X007848Y003586D02*
X009114Y003586D01*
X009281Y003664D02*
X007681Y003664D01*
X007681Y003743D02*
X009281Y003743D01*
X009281Y003821D02*
X007681Y003821D01*
X007681Y003900D02*
X009281Y003900D01*
X009281Y003978D02*
X007681Y003978D01*
X007681Y004057D02*
X009281Y004057D01*
X009281Y004135D02*
X007681Y004135D01*
X007681Y004214D02*
X009281Y004214D01*
X009281Y004292D02*
X007681Y004292D01*
X007718Y004371D02*
X009244Y004371D01*
X009166Y004449D02*
X007796Y004449D01*
X007545Y004763D02*
X006271Y004763D01*
X006349Y004685D02*
X007466Y004685D01*
X007398Y004617D02*
X007398Y004617D01*
X007388Y004606D02*
X006390Y004606D01*
X006422Y004528D02*
X007309Y004528D01*
X007281Y004449D02*
X006431Y004449D01*
X006431Y004371D02*
X007281Y004371D01*
X007281Y004292D02*
X006417Y004292D01*
X006384Y004214D02*
X007281Y004214D01*
X007281Y004135D02*
X006336Y004135D01*
X006258Y004057D02*
X007281Y004057D01*
X008218Y004528D02*
X008744Y004528D01*
X008655Y004606D02*
X008307Y004606D01*
X008372Y004685D02*
X008590Y004685D01*
X008558Y004763D02*
X008405Y004763D01*
X008431Y004842D02*
X008531Y004842D01*
X008531Y004920D02*
X008431Y004920D01*
X008431Y004999D02*
X008531Y004999D01*
X008561Y005077D02*
X008424Y005077D01*
X008503Y005156D02*
X008593Y005156D01*
X008581Y005234D02*
X008662Y005234D01*
X008660Y005313D02*
X008761Y005313D01*
X008738Y005391D02*
X009173Y005391D01*
X009251Y005470D02*
X008817Y005470D01*
X008895Y005548D02*
X009330Y005548D01*
X009408Y005627D02*
X008974Y005627D01*
X009052Y005705D02*
X009487Y005705D01*
X009565Y005784D02*
X009131Y005784D01*
X009209Y005862D02*
X009644Y005862D01*
X009722Y005941D02*
X009288Y005941D01*
X009366Y006019D02*
X009801Y006019D01*
X009879Y006098D02*
X009445Y006098D01*
X009523Y006176D02*
X009958Y006176D01*
X010036Y006255D02*
X009602Y006255D01*
X009680Y006333D02*
X010115Y006333D01*
X010193Y006412D02*
X009759Y006412D01*
X009837Y006490D02*
X010272Y006490D01*
X010280Y006569D02*
X009916Y006569D01*
X009994Y006647D02*
X010280Y006647D01*
X010052Y005705D02*
X011537Y005705D01*
X011458Y005627D02*
X009974Y005627D01*
X009895Y005548D02*
X011380Y005548D01*
X011301Y005470D02*
X009817Y005470D01*
X009738Y005391D02*
X011223Y005391D01*
X011144Y005313D02*
X011120Y005313D01*
X010942Y005313D02*
X009660Y005313D01*
X009581Y005234D02*
X010783Y005234D01*
X010704Y005156D02*
X009503Y005156D01*
X009424Y005077D02*
X010665Y005077D01*
X010632Y004999D02*
X009431Y004999D01*
X009431Y004920D02*
X010631Y004920D01*
X010631Y004842D02*
X009431Y004842D01*
X009417Y004763D02*
X010662Y004763D01*
X010677Y004685D02*
X009496Y004685D01*
X009574Y004606D02*
X010677Y004606D01*
X010677Y004528D02*
X009653Y004528D01*
X009681Y004449D02*
X010677Y004449D01*
X010677Y004371D02*
X009681Y004371D01*
X009681Y004292D02*
X010677Y004292D01*
X010677Y004214D02*
X009681Y004214D01*
X009681Y004135D02*
X010677Y004135D01*
X010677Y004057D02*
X009681Y004057D01*
X009681Y003978D02*
X010677Y003978D01*
X010677Y003900D02*
X009681Y003900D01*
X009681Y003821D02*
X010600Y003821D01*
X010530Y003743D02*
X009681Y003743D01*
X009681Y003664D02*
X010530Y003664D01*
X010530Y003586D02*
X009848Y003586D01*
X009887Y003507D02*
X010530Y003507D01*
X010530Y003429D02*
X009887Y003429D01*
X009887Y003350D02*
X010530Y003350D01*
X010530Y003272D02*
X009887Y003272D01*
X009887Y003193D02*
X010530Y003193D01*
X010530Y003115D02*
X009887Y003115D01*
X009887Y003036D02*
X010576Y003036D01*
X010788Y002722D02*
X009907Y002722D01*
X009907Y002644D02*
X010704Y002644D01*
X011174Y002722D02*
X021026Y002722D01*
X021026Y002644D02*
X011258Y002644D01*
X011305Y002565D02*
X021026Y002565D01*
X021026Y002487D02*
X011337Y002487D01*
X011337Y002408D02*
X021026Y002408D01*
X021026Y002330D02*
X011331Y002330D01*
X011298Y002251D02*
X021026Y002251D01*
X021026Y002173D02*
X011261Y002173D01*
X011261Y002094D02*
X021026Y002094D01*
X021026Y002016D02*
X011261Y002016D01*
X011261Y001937D02*
X021026Y001937D01*
X021026Y001859D02*
X020718Y001859D01*
X020680Y001897D02*
X020961Y001615D01*
X020961Y001457D01*
X020521Y001457D01*
X020521Y001897D01*
X020680Y001897D01*
X020521Y001859D02*
X020441Y001859D01*
X020441Y001780D02*
X020521Y001780D01*
X020521Y001702D02*
X020441Y001702D01*
X020441Y001623D02*
X020521Y001623D01*
X020521Y001545D02*
X020441Y001545D01*
X020441Y001466D02*
X020521Y001466D01*
X020521Y001388D02*
X021026Y001388D01*
X021026Y001466D02*
X020961Y001466D01*
X020961Y001545D02*
X021026Y001545D01*
X021026Y001623D02*
X020953Y001623D01*
X021026Y001702D02*
X020875Y001702D01*
X020796Y001780D02*
X021026Y001780D01*
X021026Y001309D02*
X020961Y001309D01*
X020961Y001231D02*
X021026Y001231D01*
X021026Y001152D02*
X020895Y001152D01*
X020817Y001074D02*
X021026Y001074D01*
X020441Y001388D02*
X018521Y001388D01*
X018521Y001457D02*
X018961Y001457D01*
X018961Y001615D01*
X018680Y001897D01*
X018521Y001897D01*
X018521Y001457D01*
X018521Y001466D02*
X018441Y001466D01*
X018441Y001388D02*
X016021Y001388D01*
X016021Y001457D02*
X016451Y001457D01*
X016451Y001765D01*
X016442Y001801D01*
X016423Y001833D01*
X016397Y001859D01*
X016365Y001877D01*
X016330Y001887D01*
X016021Y001887D01*
X016021Y001457D01*
X016021Y001466D02*
X015941Y001466D01*
X015941Y001388D02*
X015021Y001388D01*
X015021Y001457D02*
X015451Y001457D01*
X015440Y001527D01*
X015417Y001597D01*
X015383Y001663D01*
X015340Y001723D01*
X015287Y001775D01*
X015227Y001819D01*
X015162Y001852D01*
X015091Y001875D01*
X015021Y001886D01*
X015021Y001457D01*
X015021Y001466D02*
X014941Y001466D01*
X014941Y001388D02*
X014021Y001388D01*
X014021Y001457D02*
X014451Y001457D01*
X014440Y001527D01*
X014417Y001597D01*
X014383Y001663D01*
X014340Y001723D01*
X014287Y001775D01*
X014227Y001819D01*
X014162Y001852D01*
X014091Y001875D01*
X014021Y001886D01*
X014021Y001457D01*
X014021Y001466D02*
X013941Y001466D01*
X013941Y001388D02*
X013021Y001388D01*
X013021Y001457D02*
X013451Y001457D01*
X013440Y001527D01*
X013417Y001597D01*
X013383Y001663D01*
X013340Y001723D01*
X013287Y001775D01*
X013227Y001819D01*
X013162Y001852D01*
X013091Y001875D01*
X013021Y001886D01*
X013021Y001457D01*
X013021Y001466D02*
X012941Y001466D01*
X012941Y001388D02*
X011431Y001388D01*
X011431Y001466D02*
X012513Y001466D01*
X012529Y001545D02*
X011415Y001545D01*
X011383Y001623D02*
X012559Y001623D01*
X012607Y001702D02*
X011332Y001702D01*
X011261Y001780D02*
X012682Y001780D01*
X012820Y001859D02*
X011261Y001859D01*
X011424Y001309D02*
X012522Y001309D01*
X012548Y001231D02*
X011391Y001231D01*
X011353Y001152D02*
X012592Y001152D01*
X012659Y001074D02*
X011274Y001074D01*
X010688Y001074D02*
X010451Y001074D01*
X010451Y001152D02*
X010609Y001152D01*
X010571Y001231D02*
X010451Y001231D01*
X010451Y001309D02*
X010539Y001309D01*
X010021Y001545D02*
X009941Y001545D01*
X009941Y001623D02*
X010021Y001623D01*
X010021Y001702D02*
X009941Y001702D01*
X009941Y001780D02*
X010021Y001780D01*
X010021Y001859D02*
X009941Y001859D01*
X009521Y002251D02*
X009441Y002251D01*
X009441Y002330D02*
X009521Y002330D01*
X009521Y002408D02*
X009441Y002408D01*
X009907Y002801D02*
X021026Y002801D01*
X020290Y002958D02*
X018673Y002958D01*
X018751Y003036D02*
X020211Y003036D01*
X020133Y003115D02*
X018830Y003115D01*
X018908Y003193D02*
X020054Y003193D01*
X020021Y003272D02*
X018941Y003272D01*
X018941Y003350D02*
X020021Y003350D01*
X020021Y003429D02*
X018941Y003429D01*
X018941Y003507D02*
X020021Y003507D01*
X020021Y003586D02*
X018941Y003586D01*
X018884Y003664D02*
X020078Y003664D01*
X020157Y003743D02*
X018806Y003743D01*
X018727Y003821D02*
X020235Y003821D01*
X020244Y004528D02*
X019922Y004528D01*
X019931Y004606D02*
X020155Y004606D01*
X020090Y004685D02*
X019931Y004685D01*
X019931Y004763D02*
X020058Y004763D01*
X020031Y004842D02*
X019931Y004842D01*
X019931Y004920D02*
X020031Y004920D01*
X020031Y004999D02*
X019931Y004999D01*
X019931Y005077D02*
X020038Y005077D01*
X019959Y005156D02*
X019931Y005156D01*
X019031Y004685D02*
X016968Y004685D01*
X017061Y004214D02*
X017901Y004214D01*
X017980Y004135D02*
X016982Y004135D01*
X016904Y004057D02*
X018058Y004057D01*
X018137Y003978D02*
X016825Y003978D01*
X016747Y003900D02*
X018215Y003900D01*
X018235Y003821D02*
X016682Y003821D01*
X016682Y003743D02*
X018157Y003743D01*
X018078Y003664D02*
X016682Y003664D01*
X016682Y003586D02*
X018021Y003586D01*
X018244Y001859D02*
X016397Y001859D01*
X016447Y001780D02*
X018166Y001780D01*
X018087Y001702D02*
X016451Y001702D01*
X016451Y001623D02*
X018009Y001623D01*
X018001Y001545D02*
X016451Y001545D01*
X016451Y001466D02*
X018001Y001466D01*
X018001Y001309D02*
X016451Y001309D01*
X016451Y001231D02*
X018001Y001231D01*
X018067Y001152D02*
X016451Y001152D01*
X016451Y001074D02*
X018145Y001074D01*
X018441Y001545D02*
X018521Y001545D01*
X018521Y001623D02*
X018441Y001623D01*
X018441Y001702D02*
X018521Y001702D01*
X018521Y001780D02*
X018441Y001780D01*
X018441Y001859D02*
X018521Y001859D01*
X018718Y001859D02*
X020244Y001859D01*
X020166Y001780D02*
X018796Y001780D01*
X018875Y001702D02*
X020087Y001702D01*
X020009Y001623D02*
X018953Y001623D01*
X018961Y001545D02*
X020001Y001545D01*
X020001Y001466D02*
X018961Y001466D01*
X018961Y001309D02*
X020001Y001309D01*
X020001Y001231D02*
X018961Y001231D01*
X018895Y001152D02*
X020067Y001152D01*
X020145Y001074D02*
X018817Y001074D01*
X016021Y001545D02*
X015941Y001545D01*
X015941Y001623D02*
X016021Y001623D01*
X016021Y001702D02*
X015941Y001702D01*
X015941Y001780D02*
X016021Y001780D01*
X016021Y001859D02*
X015941Y001859D01*
X015565Y001859D02*
X015142Y001859D01*
X015021Y001859D02*
X014941Y001859D01*
X014941Y001780D02*
X015021Y001780D01*
X015021Y001702D02*
X014941Y001702D01*
X014941Y001623D02*
X015021Y001623D01*
X015021Y001545D02*
X014941Y001545D01*
X014820Y001859D02*
X014142Y001859D01*
X014021Y001859D02*
X013941Y001859D01*
X013941Y001780D02*
X014021Y001780D01*
X014021Y001702D02*
X013941Y001702D01*
X013941Y001623D02*
X014021Y001623D01*
X014021Y001545D02*
X013941Y001545D01*
X013820Y001859D02*
X013142Y001859D01*
X013021Y001859D02*
X012941Y001859D01*
X012941Y001780D02*
X013021Y001780D01*
X013021Y001702D02*
X012941Y001702D01*
X012941Y001623D02*
X013021Y001623D01*
X013021Y001545D02*
X012941Y001545D01*
X013280Y001780D02*
X013682Y001780D01*
X013607Y001702D02*
X013355Y001702D01*
X013403Y001623D02*
X013559Y001623D01*
X013529Y001545D02*
X013434Y001545D01*
X013449Y001466D02*
X013513Y001466D01*
X013522Y001309D02*
X013440Y001309D01*
X013414Y001231D02*
X013548Y001231D01*
X013592Y001152D02*
X013370Y001152D01*
X013303Y001074D02*
X013659Y001074D01*
X014280Y001780D02*
X014682Y001780D01*
X014607Y001702D02*
X014355Y001702D01*
X014403Y001623D02*
X014559Y001623D01*
X014529Y001545D02*
X014434Y001545D01*
X014449Y001466D02*
X014513Y001466D01*
X014522Y001309D02*
X014440Y001309D01*
X014414Y001231D02*
X014548Y001231D01*
X014592Y001152D02*
X014370Y001152D01*
X014303Y001074D02*
X014659Y001074D01*
X015303Y001074D02*
X015511Y001074D01*
X015511Y001152D02*
X015370Y001152D01*
X015414Y001231D02*
X015511Y001231D01*
X015511Y001309D02*
X015440Y001309D01*
X015449Y001466D02*
X015511Y001466D01*
X015511Y001545D02*
X015434Y001545D01*
X015403Y001623D02*
X015511Y001623D01*
X015511Y001702D02*
X015355Y001702D01*
X015280Y001780D02*
X015515Y001780D01*
X015587Y003507D02*
X015667Y003507D01*
X015335Y003507D02*
X013432Y003507D01*
X013432Y003586D02*
X015268Y003586D01*
X015260Y003664D02*
X013432Y003664D01*
X013432Y003743D02*
X015260Y003743D01*
X015260Y003821D02*
X013362Y003821D01*
X012885Y003900D02*
X011077Y003900D01*
X011077Y003978D02*
X012885Y003978D01*
X012885Y004057D02*
X011077Y004057D01*
X011077Y004135D02*
X012885Y004135D01*
X012885Y004214D02*
X011077Y004214D01*
X011077Y004292D02*
X012885Y004292D01*
X012885Y004371D02*
X011077Y004371D01*
X011077Y004449D02*
X012885Y004449D01*
X012825Y004528D02*
X011137Y004528D01*
X011286Y004606D02*
X012676Y004606D01*
X012597Y004685D02*
X011365Y004685D01*
X011400Y004763D02*
X012562Y004763D01*
X012531Y004842D02*
X011431Y004842D01*
X011431Y004920D02*
X012531Y004920D01*
X012532Y004999D02*
X011430Y004999D01*
X011474Y005077D02*
X012488Y005077D01*
X012409Y005156D02*
X011553Y005156D01*
X011631Y005234D02*
X012407Y005234D01*
X012407Y005313D02*
X011710Y005313D01*
X011788Y005391D02*
X012407Y005391D01*
X012407Y005470D02*
X011867Y005470D01*
X011945Y005548D02*
X012407Y005548D01*
X012407Y005627D02*
X012024Y005627D01*
X012064Y005667D02*
X012064Y005667D01*
X012102Y005705D02*
X012407Y005705D01*
X011866Y003833D02*
X011830Y003842D01*
X011625Y003842D01*
X011625Y003457D01*
X011952Y003457D01*
X011952Y003721D01*
X011942Y003756D01*
X011924Y003788D01*
X011898Y003814D01*
X011866Y003833D01*
X011886Y003821D02*
X012077Y003821D01*
X012016Y003743D02*
X011946Y003743D01*
X011952Y003664D02*
X012010Y003664D01*
X012010Y003586D02*
X011952Y003586D01*
X011952Y003507D02*
X012010Y003507D01*
X012010Y003350D02*
X011952Y003350D01*
X011952Y003272D02*
X012010Y003272D01*
X012010Y003193D02*
X011952Y003193D01*
X011952Y003115D02*
X012010Y003115D01*
X012047Y003036D02*
X011915Y003036D01*
X011625Y003036D02*
X011545Y003036D01*
X011545Y003115D02*
X011625Y003115D01*
X011625Y003193D02*
X011545Y003193D01*
X011545Y003272D02*
X011625Y003272D01*
X011625Y003350D02*
X011545Y003350D01*
X011625Y003429D02*
X012337Y003429D01*
X012337Y003507D02*
X012417Y003507D01*
X012417Y003586D02*
X012337Y003586D01*
X012337Y003664D02*
X012417Y003664D01*
X012417Y003743D02*
X012337Y003743D01*
X012337Y003821D02*
X012417Y003821D01*
X012677Y003821D02*
X012808Y003821D01*
X012739Y003743D02*
X012737Y003743D01*
X012417Y003350D02*
X012337Y003350D01*
X012337Y003272D02*
X012417Y003272D01*
X012417Y003193D02*
X012337Y003193D01*
X012337Y003115D02*
X012417Y003115D01*
X012417Y003036D02*
X012337Y003036D01*
X012706Y003036D02*
X012784Y003036D01*
X011625Y003507D02*
X011545Y003507D01*
X011545Y003586D02*
X011625Y003586D01*
X011625Y003664D02*
X011545Y003664D01*
X011545Y003743D02*
X011625Y003743D01*
X011625Y003821D02*
X011545Y003821D01*
X011285Y003821D02*
X011154Y003821D01*
X011223Y003743D02*
X011225Y003743D01*
X011256Y003036D02*
X011178Y003036D01*
X008722Y005941D02*
X007521Y005941D01*
X007521Y005862D02*
X007441Y005862D01*
X007441Y005784D02*
X007521Y005784D01*
X007521Y005705D02*
X007441Y005705D01*
X007441Y005627D02*
X007521Y005627D01*
X007521Y005548D02*
X007441Y005548D01*
X007441Y005470D02*
X007521Y005470D01*
X007336Y005470D02*
X006567Y005470D01*
X006645Y005548D02*
X007189Y005548D01*
X007111Y005627D02*
X006724Y005627D01*
X006802Y005705D02*
X007061Y005705D01*
X007030Y005784D02*
X006881Y005784D01*
X006931Y005862D02*
X007014Y005862D01*
X006488Y005391D02*
X008173Y005391D01*
X006394Y005862D02*
X006081Y005862D01*
X006250Y005784D02*
X006315Y005784D01*
X005881Y005862D02*
X005681Y005862D01*
X005681Y005784D02*
X005712Y005784D01*
X005681Y005077D02*
X005684Y005077D01*
X003280Y005627D02*
X003247Y005627D01*
X003251Y005705D02*
X003280Y005705D01*
X003251Y006176D02*
X003280Y006176D01*
X003293Y006255D02*
X003199Y006255D01*
X003189Y006569D02*
X003303Y006569D01*
X003280Y006647D02*
X003251Y006647D01*
X003251Y007118D02*
X003280Y007118D01*
X003280Y007197D02*
X003251Y007197D01*
X002538Y006883D02*
X002108Y006883D01*
X002727Y008610D02*
X002805Y008610D01*
X002866Y008688D02*
X002727Y008688D01*
X002727Y009159D02*
X002852Y009159D01*
X002799Y009238D02*
X002714Y009238D01*
X003475Y009238D02*
X003780Y009238D01*
X003780Y009159D02*
X003660Y009159D01*
X003736Y009081D02*
X003780Y009081D01*
X003768Y009002D02*
X003780Y009002D01*
X003779Y008924D02*
X003780Y008924D01*
X003780Y010180D02*
X001621Y010180D01*
X001621Y010258D02*
X002857Y010258D01*
X002778Y010337D02*
X001621Y010337D01*
X001621Y010415D02*
X002700Y010415D01*
X002074Y010494D02*
X001621Y010494D01*
X001621Y010572D02*
X002031Y010572D01*
X002031Y010651D02*
X001621Y010651D01*
X001621Y010729D02*
X002031Y010729D01*
X002031Y010808D02*
X001621Y010808D01*
X001621Y010886D02*
X002031Y010886D01*
X002031Y010965D02*
X001621Y010965D01*
X001621Y011043D02*
X002031Y011043D01*
X002031Y011122D02*
X001621Y011122D01*
X001621Y011200D02*
X002031Y011200D01*
X002031Y011279D02*
X001621Y011279D01*
X001621Y011357D02*
X002092Y011357D01*
X006335Y008845D02*
X007188Y008845D01*
X007221Y008767D02*
X006414Y008767D01*
X006492Y008688D02*
X007288Y008688D01*
X007101Y008367D02*
X007031Y008296D01*
X007101Y008367D02*
X007861Y008367D01*
X007931Y008296D01*
X007931Y008217D02*
X008086Y008217D01*
X008086Y008139D02*
X007931Y008139D01*
X010481Y011671D02*
X011442Y011671D01*
X014867Y015125D02*
X015907Y015125D01*
X015985Y015204D02*
X014867Y015204D01*
X014867Y015675D02*
X015456Y015675D01*
X015535Y015753D02*
X014867Y015753D01*
X014867Y015832D02*
X015613Y015832D01*
X015692Y015910D02*
X014867Y015910D01*
X014867Y015989D02*
X015770Y015989D01*
X015849Y016067D02*
X014867Y016067D01*
X014867Y016146D02*
X015927Y016146D01*
X016006Y016224D02*
X014867Y016224D01*
X014867Y016303D02*
X016041Y016303D01*
X016031Y016381D02*
X014867Y016381D01*
X014867Y016460D02*
X016031Y016460D01*
X016044Y016538D02*
X014867Y016538D01*
X014867Y016617D02*
X016077Y016617D01*
X016123Y016695D02*
X014867Y016695D01*
X014867Y016774D02*
X016202Y016774D01*
X016357Y016852D02*
X014867Y016852D01*
X014867Y016931D02*
X016712Y016931D01*
X016634Y016852D02*
X016605Y016852D01*
X016791Y017009D02*
X014867Y017009D01*
X014867Y017088D02*
X016869Y017088D01*
X016948Y017166D02*
X014867Y017166D01*
X014867Y017245D02*
X017026Y017245D01*
X017105Y017323D02*
X014867Y017323D01*
X014867Y017402D02*
X017183Y017402D01*
X017262Y017480D02*
X014867Y017480D01*
X015203Y017559D02*
X015283Y017559D01*
X015283Y017531D02*
X015616Y017531D01*
X015651Y017540D01*
X015683Y017559D01*
X017340Y017559D01*
X017513Y017166D02*
X018810Y017166D01*
X018812Y017164D02*
X018922Y017119D01*
X019040Y017119D01*
X019150Y017164D01*
X019234Y017248D01*
X019279Y017357D01*
X019279Y017432D01*
X019564Y017717D01*
X019681Y017834D01*
X019681Y019512D01*
X019736Y019535D01*
X019863Y019662D01*
X019931Y019827D01*
X019931Y020006D01*
X019863Y020172D01*
X019736Y020298D01*
X019571Y020367D01*
X019392Y020367D01*
X019226Y020298D01*
X019100Y020172D01*
X019031Y020006D01*
X019031Y019827D01*
X019100Y019662D01*
X019226Y019535D01*
X019281Y019512D01*
X019281Y018000D01*
X018996Y017715D01*
X018922Y017715D01*
X018812Y017669D01*
X018728Y017586D01*
X018683Y017476D01*
X018683Y017357D01*
X018728Y017248D01*
X018812Y017164D01*
X018731Y017245D02*
X018092Y017245D01*
X018170Y017323D02*
X018697Y017323D01*
X018683Y017402D02*
X018249Y017402D01*
X018327Y017480D02*
X018685Y017480D01*
X018717Y017559D02*
X018406Y017559D01*
X018484Y017637D02*
X018780Y017637D01*
X018641Y017794D02*
X019076Y017794D01*
X018997Y017716D02*
X018563Y017716D01*
X018681Y017873D02*
X019154Y017873D01*
X019233Y017951D02*
X018681Y017951D01*
X018681Y018030D02*
X019281Y018030D01*
X019281Y018108D02*
X018681Y018108D01*
X018681Y018187D02*
X019281Y018187D01*
X019281Y018265D02*
X018681Y018265D01*
X018681Y018344D02*
X019281Y018344D01*
X019281Y018422D02*
X018681Y018422D01*
X018681Y018501D02*
X019281Y018501D01*
X019281Y018579D02*
X018681Y018579D01*
X018681Y018658D02*
X019281Y018658D01*
X019281Y018736D02*
X018681Y018736D01*
X018681Y018815D02*
X019281Y018815D01*
X019281Y018893D02*
X018681Y018893D01*
X018681Y018972D02*
X019281Y018972D01*
X019281Y019050D02*
X018681Y019050D01*
X018681Y019129D02*
X019281Y019129D01*
X019281Y019207D02*
X018681Y019207D01*
X018681Y019286D02*
X019281Y019286D01*
X019281Y019364D02*
X018681Y019364D01*
X018681Y019443D02*
X019281Y019443D01*
X019260Y019521D02*
X018702Y019521D01*
X018801Y019600D02*
X019162Y019600D01*
X019093Y019678D02*
X018869Y019678D01*
X018902Y019757D02*
X019060Y019757D01*
X019031Y019835D02*
X018931Y019835D01*
X018931Y019914D02*
X019031Y019914D01*
X019031Y019992D02*
X018931Y019992D01*
X018904Y020071D02*
X019058Y020071D01*
X019090Y020149D02*
X018872Y020149D01*
X018806Y020228D02*
X019156Y020228D01*
X019246Y020306D02*
X018717Y020306D01*
X018246Y020306D02*
X017921Y020306D01*
X017931Y020296D02*
X017861Y020367D01*
X017101Y020367D01*
X017031Y020296D01*
X017031Y020117D01*
X016751Y020117D01*
X016751Y020203D01*
X016680Y020273D01*
X016109Y020273D01*
X016038Y020203D01*
X016038Y019631D01*
X016109Y019560D01*
X016680Y019560D01*
X016751Y019631D01*
X016751Y019717D01*
X017031Y019717D01*
X017031Y019537D01*
X017101Y019467D01*
X017861Y019467D01*
X017931Y019537D01*
X017931Y020296D01*
X017931Y020228D02*
X018156Y020228D01*
X018090Y020149D02*
X017931Y020149D01*
X017931Y020071D02*
X018058Y020071D01*
X018031Y019992D02*
X017931Y019992D01*
X017931Y019914D02*
X018031Y019914D01*
X018031Y019835D02*
X017931Y019835D01*
X017931Y019757D02*
X018060Y019757D01*
X018093Y019678D02*
X017931Y019678D01*
X017931Y019600D02*
X018162Y019600D01*
X018260Y019521D02*
X017915Y019521D01*
X018281Y019443D02*
X015807Y019443D01*
X015807Y019521D02*
X017047Y019521D01*
X017031Y019600D02*
X016720Y019600D01*
X016751Y019678D02*
X017031Y019678D01*
X017031Y020149D02*
X016751Y020149D01*
X016726Y020228D02*
X017031Y020228D01*
X017041Y020306D02*
X014867Y020306D01*
X014867Y020228D02*
X015237Y020228D01*
X015211Y020203D02*
X015211Y019631D01*
X015282Y019560D01*
X015407Y019560D01*
X015407Y019312D01*
X015351Y019312D01*
X015280Y019242D01*
X015280Y018591D01*
X015351Y018521D01*
X015863Y018521D01*
X015934Y018591D01*
X015934Y019242D01*
X015863Y019312D01*
X015807Y019312D01*
X015807Y019560D01*
X015854Y019560D01*
X015924Y019631D01*
X015924Y020203D01*
X015854Y020273D01*
X015282Y020273D01*
X015211Y020203D01*
X015211Y020149D02*
X014872Y020149D01*
X014904Y020071D02*
X015211Y020071D01*
X015211Y019992D02*
X014931Y019992D01*
X014931Y019914D02*
X015211Y019914D01*
X015211Y019835D02*
X014931Y019835D01*
X014902Y019757D02*
X015211Y019757D01*
X015211Y019678D02*
X014869Y019678D01*
X014867Y019600D02*
X015243Y019600D01*
X015407Y019521D02*
X014867Y019521D01*
X014867Y019443D02*
X015407Y019443D01*
X015407Y019364D02*
X014867Y019364D01*
X014867Y019286D02*
X015324Y019286D01*
X015280Y019207D02*
X014867Y019207D01*
X014867Y019129D02*
X015280Y019129D01*
X015280Y019050D02*
X014867Y019050D01*
X014867Y018972D02*
X015280Y018972D01*
X015280Y018893D02*
X014867Y018893D01*
X014867Y018815D02*
X015280Y018815D01*
X015280Y018736D02*
X014867Y018736D01*
X014867Y018658D02*
X015280Y018658D01*
X015293Y018579D02*
X014867Y018579D01*
X014867Y018501D02*
X018281Y018501D01*
X018281Y018579D02*
X016688Y018579D01*
X016692Y018587D02*
X016702Y018623D01*
X016702Y018877D01*
X016395Y018877D01*
X016395Y018957D01*
X016315Y018957D01*
X016315Y019332D01*
X016130Y019332D01*
X016094Y019323D01*
X016062Y019304D01*
X016036Y019278D01*
X016018Y019246D01*
X016008Y019211D01*
X016008Y018957D01*
X016315Y018957D01*
X016315Y018877D01*
X016008Y018877D01*
X016008Y018623D01*
X016018Y018587D01*
X016036Y018555D01*
X016062Y018529D01*
X016094Y018511D01*
X016130Y018501D01*
X016315Y018501D01*
X016315Y018877D01*
X016395Y018877D01*
X016395Y018501D01*
X016580Y018501D01*
X016616Y018511D01*
X016648Y018529D01*
X016674Y018555D01*
X016692Y018587D01*
X016702Y018658D02*
X018281Y018658D01*
X018281Y018736D02*
X016702Y018736D01*
X016702Y018815D02*
X018281Y018815D01*
X018281Y018893D02*
X016395Y018893D01*
X016395Y018957D02*
X016702Y018957D01*
X016702Y019211D01*
X016692Y019246D01*
X016674Y019278D01*
X016648Y019304D01*
X016616Y019323D01*
X016580Y019332D01*
X016395Y019332D01*
X016395Y018957D01*
X016395Y018972D02*
X016315Y018972D01*
X016315Y019050D02*
X016395Y019050D01*
X016395Y019129D02*
X016315Y019129D01*
X016315Y019207D02*
X016395Y019207D01*
X016395Y019286D02*
X016315Y019286D01*
X016044Y019286D02*
X015890Y019286D01*
X015934Y019207D02*
X016008Y019207D01*
X016008Y019129D02*
X015934Y019129D01*
X015934Y019050D02*
X016008Y019050D01*
X016008Y018972D02*
X015934Y018972D01*
X015934Y018893D02*
X016315Y018893D01*
X016315Y018815D02*
X016395Y018815D01*
X016395Y018736D02*
X016315Y018736D01*
X016315Y018658D02*
X016395Y018658D01*
X016395Y018579D02*
X016315Y018579D01*
X016022Y018579D02*
X015922Y018579D01*
X015934Y018658D02*
X016008Y018658D01*
X016008Y018736D02*
X015934Y018736D01*
X015934Y018815D02*
X016008Y018815D01*
X015807Y019364D02*
X018281Y019364D01*
X018281Y019286D02*
X016666Y019286D01*
X016702Y019207D02*
X018281Y019207D01*
X018281Y019129D02*
X016702Y019129D01*
X016702Y019050D02*
X018281Y019050D01*
X018281Y018972D02*
X016702Y018972D01*
X016069Y019600D02*
X015893Y019600D01*
X015924Y019678D02*
X016038Y019678D01*
X016038Y019757D02*
X015924Y019757D01*
X015924Y019835D02*
X016038Y019835D01*
X016038Y019914D02*
X015924Y019914D01*
X015924Y019992D02*
X016038Y019992D01*
X016038Y020071D02*
X015924Y020071D01*
X015924Y020149D02*
X016038Y020149D01*
X016063Y020228D02*
X015899Y020228D01*
X014867Y020385D02*
X020432Y020385D01*
X020441Y020385D02*
X020521Y020385D01*
X020521Y020386D02*
X020521Y019957D01*
X020441Y019957D01*
X020441Y020386D01*
X020371Y020375D01*
X020301Y020352D01*
X020235Y020319D01*
X020175Y020275D01*
X020123Y020223D01*
X020079Y020163D01*
X020046Y020097D01*
X020023Y020027D01*
X020012Y019957D01*
X020441Y019957D01*
X020441Y019877D01*
X020012Y019877D01*
X020023Y019807D01*
X020046Y019736D01*
X020079Y019670D01*
X020123Y019610D01*
X020175Y019558D01*
X020235Y019515D01*
X020301Y019481D01*
X020371Y019458D01*
X020441Y019447D01*
X020441Y019877D01*
X020521Y019877D01*
X020521Y019957D01*
X020951Y019957D01*
X020940Y020027D01*
X020917Y020097D01*
X020883Y020163D01*
X020840Y020223D01*
X020787Y020275D01*
X020727Y020319D01*
X020662Y020352D01*
X020591Y020375D01*
X020521Y020386D01*
X020530Y020385D02*
X021026Y020385D01*
X021026Y020306D02*
X020745Y020306D01*
X020835Y020228D02*
X021026Y020228D01*
X021026Y020149D02*
X020890Y020149D01*
X020925Y020071D02*
X021026Y020071D01*
X021026Y019992D02*
X020945Y019992D01*
X021026Y019914D02*
X020521Y019914D01*
X020521Y019877D02*
X020951Y019877D01*
X020940Y019807D01*
X020917Y019736D01*
X020883Y019670D01*
X020840Y019610D01*
X020787Y019558D01*
X020727Y019515D01*
X020662Y019481D01*
X020591Y019458D01*
X020521Y019447D01*
X020521Y019877D01*
X020521Y019835D02*
X020441Y019835D01*
X020441Y019757D02*
X020521Y019757D01*
X020521Y019678D02*
X020441Y019678D01*
X020441Y019600D02*
X020521Y019600D01*
X020521Y019521D02*
X020441Y019521D01*
X020226Y019521D02*
X019702Y019521D01*
X019681Y019443D02*
X021026Y019443D01*
X021026Y019521D02*
X020736Y019521D01*
X020829Y019600D02*
X021026Y019600D01*
X021026Y019678D02*
X020887Y019678D01*
X020923Y019757D02*
X021026Y019757D01*
X021026Y019835D02*
X020944Y019835D01*
X020521Y019992D02*
X020441Y019992D01*
X020441Y019914D02*
X019931Y019914D01*
X019931Y019992D02*
X020017Y019992D01*
X020037Y020071D02*
X019904Y020071D01*
X019872Y020149D02*
X020072Y020149D01*
X020127Y020228D02*
X019806Y020228D01*
X019717Y020306D02*
X020218Y020306D01*
X020441Y020306D02*
X020521Y020306D01*
X020521Y020228D02*
X020441Y020228D01*
X020441Y020149D02*
X020521Y020149D01*
X020521Y020071D02*
X020441Y020071D01*
X020018Y019835D02*
X019931Y019835D01*
X019902Y019757D02*
X020039Y019757D01*
X020075Y019678D02*
X019869Y019678D01*
X019801Y019600D02*
X020133Y019600D01*
X019681Y019364D02*
X021026Y019364D01*
X021026Y019286D02*
X019681Y019286D01*
X019681Y019207D02*
X021026Y019207D01*
X021026Y019129D02*
X019681Y019129D01*
X019681Y019050D02*
X021026Y019050D01*
X021026Y018972D02*
X019681Y018972D01*
X019681Y018893D02*
X021026Y018893D01*
X021026Y018815D02*
X019681Y018815D01*
X019681Y018736D02*
X021026Y018736D01*
X021026Y018658D02*
X019681Y018658D01*
X019681Y018579D02*
X021026Y018579D01*
X021026Y018501D02*
X019681Y018501D01*
X019681Y018422D02*
X021026Y018422D01*
X021026Y018344D02*
X019681Y018344D01*
X019681Y018265D02*
X021026Y018265D01*
X021026Y018187D02*
X019681Y018187D01*
X019681Y018108D02*
X021026Y018108D01*
X021026Y018030D02*
X019681Y018030D01*
X019681Y017951D02*
X021026Y017951D01*
X021026Y017873D02*
X019681Y017873D01*
X019641Y017794D02*
X021026Y017794D01*
X021026Y017716D02*
X019563Y017716D01*
X019484Y017637D02*
X021026Y017637D01*
X021026Y017559D02*
X019406Y017559D01*
X019327Y017480D02*
X021026Y017480D01*
X021026Y017402D02*
X019279Y017402D01*
X019265Y017323D02*
X021026Y017323D01*
X021026Y017245D02*
X019231Y017245D01*
X019152Y017166D02*
X021026Y017166D01*
X021026Y017088D02*
X017435Y017088D01*
X017356Y017009D02*
X021026Y017009D01*
X021026Y016931D02*
X017278Y016931D01*
X017199Y016852D02*
X017357Y016852D01*
X017202Y016774D02*
X017121Y016774D01*
X017123Y016695D02*
X017042Y016695D01*
X017077Y016617D02*
X016964Y016617D01*
X016918Y016538D02*
X017044Y016538D01*
X017031Y016460D02*
X016931Y016460D01*
X016931Y016381D02*
X017031Y016381D01*
X017041Y016303D02*
X016921Y016303D01*
X016888Y016224D02*
X017006Y016224D01*
X016927Y016146D02*
X016847Y016146D01*
X016849Y016067D02*
X016768Y016067D01*
X016781Y015989D02*
X016624Y015989D01*
X016655Y015832D02*
X016781Y015832D01*
X016781Y015910D02*
X016257Y015910D01*
X016307Y015832D02*
X016179Y015832D01*
X016181Y015753D02*
X016100Y015753D01*
X016103Y015675D02*
X016022Y015675D01*
X016068Y015596D02*
X015943Y015596D01*
X015865Y015518D02*
X016036Y015518D01*
X016031Y015439D02*
X015786Y015439D01*
X015708Y015361D02*
X016031Y015361D01*
X016050Y015282D02*
X015629Y015282D01*
X016336Y015989D02*
X016338Y015989D01*
X016781Y015753D02*
X016781Y015753D01*
X017181Y015753D02*
X017181Y015753D01*
X017181Y015832D02*
X017307Y015832D01*
X017257Y015910D02*
X017781Y015910D01*
X017781Y015832D02*
X017655Y015832D01*
X017781Y015753D02*
X017781Y015753D01*
X017781Y015989D02*
X017624Y015989D01*
X017768Y016067D02*
X017849Y016067D01*
X017847Y016146D02*
X017956Y016146D01*
X017888Y016224D02*
X018034Y016224D01*
X018041Y016303D02*
X017921Y016303D01*
X017931Y016381D02*
X018031Y016381D01*
X018031Y016460D02*
X017931Y016460D01*
X017918Y016538D02*
X018044Y016538D01*
X018077Y016617D02*
X017885Y016617D01*
X017839Y016695D02*
X018123Y016695D01*
X018202Y016774D02*
X017760Y016774D01*
X017605Y016852D02*
X018357Y016852D01*
X018605Y016852D02*
X019357Y016852D01*
X019202Y016774D02*
X018760Y016774D01*
X018839Y016695D02*
X019123Y016695D01*
X019077Y016617D02*
X018885Y016617D01*
X018918Y016538D02*
X019044Y016538D01*
X019031Y016460D02*
X018931Y016460D01*
X018931Y016381D02*
X019031Y016381D01*
X019041Y016303D02*
X018921Y016303D01*
X018888Y016224D02*
X019034Y016224D01*
X018956Y016146D02*
X018847Y016146D01*
X018849Y016067D02*
X018768Y016067D01*
X018781Y015989D02*
X018624Y015989D01*
X018655Y015832D02*
X018781Y015832D01*
X018781Y015910D02*
X018229Y015910D01*
X018181Y015832D02*
X018307Y015832D01*
X018181Y015753D02*
X018181Y015753D01*
X018308Y015989D02*
X018338Y015989D01*
X018781Y015753D02*
X018781Y015753D01*
X019181Y015753D02*
X019181Y015753D01*
X019181Y015832D02*
X019307Y015832D01*
X019229Y015910D02*
X019781Y015910D01*
X019781Y015832D02*
X019655Y015832D01*
X019781Y015753D02*
X019781Y015753D01*
X019781Y015989D02*
X019624Y015989D01*
X019768Y016067D02*
X019849Y016067D01*
X019847Y016146D02*
X019956Y016146D01*
X019888Y016224D02*
X020034Y016224D01*
X020041Y016303D02*
X019921Y016303D01*
X019931Y016381D02*
X020031Y016381D01*
X020031Y016460D02*
X019931Y016460D01*
X019918Y016538D02*
X020044Y016538D01*
X020077Y016617D02*
X019885Y016617D01*
X019839Y016695D02*
X020123Y016695D01*
X020202Y016774D02*
X019760Y016774D01*
X019605Y016852D02*
X020357Y016852D01*
X020605Y016852D02*
X021026Y016852D01*
X021026Y016774D02*
X020760Y016774D01*
X020839Y016695D02*
X021026Y016695D01*
X021026Y016617D02*
X020885Y016617D01*
X020918Y016538D02*
X021026Y016538D01*
X021026Y016460D02*
X020931Y016460D01*
X020931Y016381D02*
X021026Y016381D01*
X021026Y016303D02*
X020921Y016303D01*
X020888Y016224D02*
X021026Y016224D01*
X021026Y016146D02*
X020847Y016146D01*
X020768Y016067D02*
X021026Y016067D01*
X021026Y015989D02*
X020624Y015989D01*
X020338Y015989D02*
X020308Y015989D01*
X020229Y015910D02*
X021026Y015910D01*
X021026Y015832D02*
X020896Y015832D01*
X020931Y015753D02*
X021026Y015753D01*
X021026Y015675D02*
X020931Y015675D01*
X020931Y015596D02*
X021026Y015596D01*
X021026Y015518D02*
X020931Y015518D01*
X020931Y015439D02*
X021026Y015439D01*
X021026Y015361D02*
X020931Y015361D01*
X020931Y015282D02*
X021026Y015282D01*
X021026Y015204D02*
X020931Y015204D01*
X020931Y015125D02*
X021026Y015125D01*
X021026Y015047D02*
X020931Y015047D01*
X020862Y014968D02*
X021026Y014968D01*
X021026Y014890D02*
X020681Y014890D01*
X020681Y014811D02*
X021026Y014811D01*
X021026Y014733D02*
X020681Y014733D01*
X020681Y014654D02*
X021026Y014654D01*
X021026Y014576D02*
X020681Y014576D01*
X020681Y014497D02*
X021026Y014497D01*
X021026Y014419D02*
X020681Y014419D01*
X020681Y014340D02*
X021026Y014340D01*
X021026Y014262D02*
X020681Y014262D01*
X020681Y014183D02*
X021026Y014183D01*
X021026Y014105D02*
X020681Y014105D01*
X020681Y014026D02*
X021026Y014026D01*
X021026Y013948D02*
X020681Y013948D01*
X020681Y013869D02*
X021026Y013869D01*
X021026Y013791D02*
X020638Y013791D01*
X020531Y013712D02*
X021026Y013712D01*
X021026Y013634D02*
X020453Y013634D01*
X020374Y013555D02*
X021026Y013555D01*
X021026Y013477D02*
X020296Y013477D01*
X020217Y013398D02*
X021026Y013398D01*
X021026Y013320D02*
X020139Y013320D01*
X020060Y013241D02*
X021026Y013241D01*
X021026Y013163D02*
X019982Y013163D01*
X019903Y013084D02*
X021026Y013084D01*
X021026Y013006D02*
X019825Y013006D01*
X019746Y012927D02*
X021026Y012927D01*
X021026Y012849D02*
X020879Y012849D01*
X020931Y012770D02*
X021026Y012770D01*
X021026Y012692D02*
X020931Y012692D01*
X020931Y012613D02*
X021026Y012613D01*
X021026Y012535D02*
X020931Y012535D01*
X020931Y012456D02*
X021026Y012456D01*
X021026Y012378D02*
X020931Y012378D01*
X020931Y012299D02*
X021026Y012299D01*
X021026Y012221D02*
X020931Y012221D01*
X020931Y012142D02*
X021026Y012142D01*
X021026Y012064D02*
X020931Y012064D01*
X020879Y011985D02*
X021026Y011985D01*
X021026Y011907D02*
X019254Y011907D01*
X019332Y011985D02*
X020083Y011985D01*
X020031Y012064D02*
X019411Y012064D01*
X019489Y012142D02*
X020031Y012142D01*
X020226Y011798D02*
X020100Y011672D01*
X020077Y011617D01*
X019274Y011617D01*
X019157Y011500D01*
X018775Y011117D01*
X018406Y011117D01*
X018336Y011047D01*
X018336Y010534D01*
X018406Y010464D01*
X019056Y010464D01*
X019127Y010534D01*
X019127Y010903D01*
X019440Y011217D01*
X020077Y011217D01*
X020100Y011162D01*
X020226Y011035D01*
X020392Y010967D01*
X020571Y010967D01*
X020736Y011035D01*
X020863Y011162D01*
X020931Y011327D01*
X020931Y011506D01*
X020863Y011672D01*
X020736Y011798D01*
X020571Y011867D01*
X020392Y011867D01*
X020226Y011798D01*
X020178Y011750D02*
X019097Y011750D01*
X019029Y011671D02*
X020099Y011671D01*
X020299Y011828D02*
X019175Y011828D01*
X019250Y011593D02*
X019023Y011593D01*
X018991Y011514D02*
X019172Y011514D01*
X019093Y011436D02*
X018922Y011436D01*
X019015Y011357D02*
X018176Y011357D01*
X018098Y011279D02*
X018936Y011279D01*
X018858Y011200D02*
X018019Y011200D01*
X017941Y011122D02*
X018779Y011122D01*
X018540Y011436D02*
X018255Y011436D01*
X018333Y011514D02*
X018472Y011514D01*
X018439Y011593D02*
X018412Y011593D01*
X018336Y011043D02*
X017862Y011043D01*
X017784Y010965D02*
X018336Y010965D01*
X018336Y010886D02*
X017705Y010886D01*
X017627Y010808D02*
X018336Y010808D01*
X018336Y010729D02*
X017548Y010729D01*
X017592Y010651D02*
X018336Y010651D01*
X018336Y010572D02*
X017671Y010572D01*
X017749Y010494D02*
X018376Y010494D01*
X018373Y010337D02*
X017906Y010337D01*
X017828Y010415D02*
X020441Y010415D01*
X020441Y010377D02*
X020012Y010377D01*
X020023Y010307D01*
X020046Y010236D01*
X020079Y010170D01*
X020123Y010110D01*
X020175Y010058D01*
X020235Y010015D01*
X020301Y009981D01*
X020371Y009958D01*
X020441Y009947D01*
X020441Y010377D01*
X020441Y010457D01*
X020441Y010886D01*
X020371Y010875D01*
X020301Y010852D01*
X020235Y010819D01*
X020175Y010775D01*
X020123Y010723D01*
X020079Y010663D01*
X020046Y010597D01*
X020023Y010527D01*
X020012Y010457D01*
X020441Y010457D01*
X020521Y010457D01*
X020521Y010886D01*
X020591Y010875D01*
X020662Y010852D01*
X020727Y010819D01*
X020787Y010775D01*
X020840Y010723D01*
X020883Y010663D01*
X020917Y010597D01*
X020940Y010527D01*
X020951Y010457D01*
X020521Y010457D01*
X020521Y010377D01*
X020951Y010377D01*
X020940Y010307D01*
X020917Y010236D01*
X020883Y010170D01*
X020840Y010110D01*
X020787Y010058D01*
X020727Y010015D01*
X020662Y009981D01*
X020591Y009958D01*
X020521Y009947D01*
X020521Y010377D01*
X020441Y010377D01*
X020441Y010337D02*
X020521Y010337D01*
X020521Y010415D02*
X021026Y010415D01*
X021026Y010337D02*
X020944Y010337D01*
X020924Y010258D02*
X021026Y010258D01*
X021026Y010180D02*
X020888Y010180D01*
X020830Y010101D02*
X021026Y010101D01*
X021026Y010023D02*
X020738Y010023D01*
X020521Y010023D02*
X020441Y010023D01*
X020441Y010101D02*
X020521Y010101D01*
X020521Y010180D02*
X020441Y010180D01*
X020441Y010258D02*
X020521Y010258D01*
X020521Y010494D02*
X020441Y010494D01*
X020441Y010572D02*
X020521Y010572D01*
X020521Y010651D02*
X020441Y010651D01*
X020441Y010729D02*
X020521Y010729D01*
X020521Y010808D02*
X020441Y010808D01*
X020220Y010808D02*
X019127Y010808D01*
X019127Y010886D02*
X021026Y010886D01*
X021026Y010808D02*
X020743Y010808D01*
X020833Y010729D02*
X021026Y010729D01*
X021026Y010651D02*
X020889Y010651D01*
X020925Y010572D02*
X021026Y010572D01*
X021026Y010494D02*
X020945Y010494D01*
X021026Y010965D02*
X019188Y010965D01*
X019266Y011043D02*
X020218Y011043D01*
X020140Y011122D02*
X019345Y011122D01*
X019423Y011200D02*
X020084Y011200D01*
X020129Y010729D02*
X019127Y010729D01*
X019127Y010651D02*
X020073Y010651D01*
X020037Y010572D02*
X019127Y010572D01*
X019086Y010494D02*
X020017Y010494D01*
X020018Y010337D02*
X019089Y010337D01*
X019127Y010258D02*
X020038Y010258D01*
X020074Y010180D02*
X019127Y010180D01*
X019127Y010101D02*
X020132Y010101D01*
X020224Y010023D02*
X019127Y010023D01*
X019127Y009944D02*
X021026Y009944D01*
X021026Y009866D02*
X019127Y009866D01*
X019127Y009787D02*
X021026Y009787D01*
X021026Y009709D02*
X017944Y009709D01*
X018022Y009630D02*
X021026Y009630D01*
X021026Y011043D02*
X020744Y011043D01*
X020823Y011122D02*
X021026Y011122D01*
X021026Y011200D02*
X020879Y011200D01*
X020911Y011279D02*
X021026Y011279D01*
X021026Y011357D02*
X020931Y011357D01*
X020931Y011436D02*
X021026Y011436D01*
X021026Y011514D02*
X020928Y011514D01*
X020895Y011593D02*
X021026Y011593D01*
X021026Y011671D02*
X020863Y011671D01*
X020784Y011750D02*
X021026Y011750D01*
X021026Y011828D02*
X020663Y011828D01*
X020031Y012692D02*
X019511Y012692D01*
X019589Y012770D02*
X020031Y012770D01*
X020083Y012849D02*
X019668Y012849D01*
X017138Y011828D02*
X015737Y011828D01*
X015769Y011750D02*
X017060Y011750D01*
X016981Y011671D02*
X015779Y011671D01*
X015773Y011593D02*
X016903Y011593D01*
X016824Y011514D02*
X015741Y011514D01*
X015672Y011436D02*
X016746Y011436D01*
X016667Y011357D02*
X015594Y011357D01*
X015661Y011425D02*
X015661Y011425D01*
X015103Y011279D02*
X016589Y011279D01*
X017159Y010494D02*
X017240Y010494D01*
X017237Y010415D02*
X017319Y010415D01*
X017316Y010337D02*
X017397Y010337D01*
X017394Y010258D02*
X017476Y010258D01*
X017473Y010180D02*
X017554Y010180D01*
X017551Y010101D02*
X017633Y010101D01*
X017630Y010023D02*
X017711Y010023D01*
X017708Y009944D02*
X017761Y009944D01*
X017787Y009866D02*
X017840Y009866D01*
X017865Y009787D02*
X018336Y009787D01*
X018336Y010258D02*
X017985Y010258D01*
X017336Y015989D02*
X017338Y015989D01*
X017919Y017637D02*
X015733Y017637D01*
X015737Y017652D02*
X015737Y017877D01*
X015283Y017877D01*
X015283Y017531D01*
X015283Y017637D02*
X015203Y017637D01*
X015203Y017716D02*
X015283Y017716D01*
X015283Y017794D02*
X015203Y017794D01*
X015203Y017873D02*
X015283Y017873D01*
X015283Y017951D02*
X018233Y017951D01*
X018281Y018030D02*
X015737Y018030D01*
X015737Y017957D02*
X015737Y018181D01*
X015728Y018217D01*
X015709Y018249D01*
X015683Y018275D01*
X015651Y018293D01*
X015616Y018303D01*
X015283Y018303D01*
X015283Y017957D01*
X015737Y017957D01*
X015737Y017873D02*
X018154Y017873D01*
X018076Y017794D02*
X015737Y017794D01*
X015737Y017716D02*
X017997Y017716D01*
X018281Y018108D02*
X015737Y018108D01*
X015736Y018187D02*
X018281Y018187D01*
X018281Y018265D02*
X015693Y018265D01*
X015283Y018265D02*
X015203Y018265D01*
X015203Y018187D02*
X015283Y018187D01*
X015283Y018108D02*
X015203Y018108D01*
X015203Y018030D02*
X015283Y018030D01*
X014867Y018344D02*
X018281Y018344D01*
X018281Y018422D02*
X014867Y018422D01*
X015737Y017652D02*
X015728Y017617D01*
X015709Y017585D01*
X015683Y017559D01*
X019308Y015989D02*
X019338Y015989D01*
X003773Y001859D02*
X002190Y001859D01*
X002268Y001780D02*
X003694Y001780D01*
X003616Y001702D02*
X002347Y001702D01*
X002425Y001623D02*
X003537Y001623D01*
X003521Y001545D02*
X002441Y001545D01*
X002441Y001466D02*
X003521Y001466D01*
X003521Y001388D02*
X002441Y001388D01*
X002441Y001309D02*
X003521Y001309D01*
X003521Y001231D02*
X002441Y001231D01*
X002367Y001152D02*
X003595Y001152D01*
X003674Y001074D02*
X002289Y001074D01*
X001694Y001780D02*
X001621Y001780D01*
X001621Y001859D02*
X001773Y001859D01*
D36*
X012481Y016917D02*
X015481Y016917D01*
X012481Y016917D02*
X011887Y017511D01*
X011887Y018598D01*
D37*
X010981Y002417D03*
M02*
