G75*
G70*
%OFA0B0*%
%FSLAX24Y24*%
%IPPOS*%
%LPD*%
%AMOC8*
5,1,8,0,0,1.08239X$1,22.5*
%
%ADD10C,0.0000*%
%ADD11C,0.0600*%
%ADD12C,0.0700*%
%ADD13C,0.0556*%
%ADD14R,0.0556X0.0556*%
%ADD15R,0.0512X0.0512*%
%ADD16R,0.0493X0.0611*%
%ADD17R,0.0591X0.0453*%
%ADD18R,0.0453X0.0591*%
%ADD19OC8,0.0720*%
%ADD20R,0.0700X0.0700*%
%ADD21R,0.0611X0.0493*%
%ADD22C,0.0827*%
%ADD23R,0.0158X0.0394*%
%ADD24R,0.0394X0.0158*%
%ADD25R,0.0157X0.0394*%
%ADD26R,0.0394X0.0157*%
%ADD27R,0.0749X0.0532*%
%ADD28R,0.1540X0.0800*%
%ADD29R,0.0460X0.0900*%
D10*
X001481Y000917D02*
X001481Y020602D01*
X021166Y020602D01*
X021166Y000917D01*
X001481Y000917D01*
D11*
X011031Y004917D03*
X012931Y004917D03*
D12*
X009731Y007917D03*
X007481Y006917D03*
X007481Y005917D03*
X007981Y004917D03*
X008981Y004917D03*
X005981Y005417D03*
X005981Y006417D03*
X005981Y007417D03*
X005981Y004417D03*
X005981Y003417D03*
X005981Y002417D03*
X010981Y001417D03*
X012981Y001417D03*
X013981Y001417D03*
X014981Y001417D03*
X019481Y005917D03*
X020481Y005917D03*
X020481Y004917D03*
X020481Y006917D03*
X019481Y006917D03*
X019481Y007917D03*
X019481Y008917D03*
X020481Y008917D03*
X020481Y007917D03*
X020481Y010417D03*
X020481Y011417D03*
X019481Y015417D03*
X019481Y016417D03*
X020481Y016417D03*
X018481Y016417D03*
X018481Y015417D03*
X017481Y015417D03*
X017481Y016417D03*
X016481Y016417D03*
X016481Y015417D03*
X014481Y019917D03*
X013481Y019917D03*
X012481Y019917D03*
X007481Y019917D03*
X006481Y019917D03*
X005481Y019917D03*
X003481Y014917D03*
X003481Y013917D03*
X002481Y013917D03*
X002481Y014917D03*
X002481Y012917D03*
X003481Y012917D03*
X003481Y011917D03*
X003481Y010917D03*
X002481Y011917D03*
X008731Y013667D03*
X009731Y013667D03*
X010731Y013667D03*
X018481Y019917D03*
X019481Y019917D03*
X020481Y019917D03*
D13*
X004761Y019047D03*
X004249Y018732D03*
X004761Y018417D03*
X004249Y018102D03*
X004761Y017787D03*
X003137Y009409D03*
X003137Y008425D03*
X002350Y007932D03*
D14*
X002350Y008917D03*
D15*
X002068Y006917D03*
X002894Y006917D03*
X002894Y005917D03*
X002068Y005917D03*
X002068Y004917D03*
X002894Y004917D03*
X015568Y019917D03*
X016394Y019917D03*
D16*
X016335Y003917D03*
X015627Y003917D03*
X013085Y003417D03*
X012377Y003417D03*
X011585Y003417D03*
X010877Y003417D03*
D17*
X008481Y007543D03*
X008481Y008291D03*
X005981Y015543D03*
X005981Y016291D03*
X004981Y016291D03*
X004981Y015543D03*
X018731Y010791D03*
X018731Y010043D03*
D18*
X013355Y006417D03*
X012607Y006417D03*
X011355Y006417D03*
X010607Y006417D03*
X004855Y007917D03*
X004107Y007917D03*
X004107Y008917D03*
X004855Y008917D03*
X004855Y009917D03*
X004107Y009917D03*
X004355Y006917D03*
X003607Y006917D03*
X003607Y005917D03*
X004355Y005917D03*
X004355Y004917D03*
X003607Y004917D03*
X005607Y017917D03*
X006355Y017917D03*
X006355Y018667D03*
X005607Y018667D03*
X015607Y018917D03*
X016355Y018917D03*
D19*
X018481Y003417D03*
X020481Y003417D03*
X020481Y001417D03*
X018481Y001417D03*
X003981Y001417D03*
X001981Y001417D03*
X001981Y003417D03*
X003981Y003417D03*
D20*
X005981Y001417D03*
X009981Y001417D03*
X015981Y001417D03*
X019481Y004917D03*
X020481Y012417D03*
X020481Y015417D03*
X017481Y019917D03*
X011481Y019917D03*
X008481Y019917D03*
X007731Y013667D03*
X009731Y008917D03*
X007481Y007917D03*
X002481Y010917D03*
D21*
X007481Y003271D03*
X007481Y002562D03*
X009481Y002562D03*
X009481Y003271D03*
D22*
X002891Y016960D02*
X002103Y016960D01*
X002103Y019873D02*
X002891Y019873D01*
D23*
X012148Y011972D03*
X012345Y011972D03*
X012542Y011972D03*
X012739Y011972D03*
X012936Y011972D03*
X013133Y011972D03*
X013330Y011972D03*
X013526Y011972D03*
X013723Y011972D03*
X013920Y011972D03*
X014117Y011972D03*
X014314Y011972D03*
X014314Y008862D03*
X014117Y008862D03*
X013920Y008862D03*
X013723Y008862D03*
X013526Y008862D03*
X013330Y008862D03*
X013133Y008862D03*
X012936Y008862D03*
X012739Y008862D03*
X012542Y008862D03*
X012345Y008862D03*
X012148Y008862D03*
D24*
X011676Y009334D03*
X011676Y009531D03*
X011676Y009728D03*
X011676Y009925D03*
X011676Y010121D03*
X011676Y010318D03*
X011676Y010515D03*
X011676Y010712D03*
X011676Y010909D03*
X011676Y011106D03*
X011676Y011302D03*
X011676Y011499D03*
X014786Y011499D03*
X014786Y011302D03*
X014786Y011106D03*
X014786Y010909D03*
X014786Y010712D03*
X014786Y010515D03*
X014786Y010318D03*
X014786Y010121D03*
X014786Y009925D03*
X014786Y009728D03*
X014786Y009531D03*
X014786Y009334D03*
D25*
X014314Y008862D03*
X014117Y008862D03*
X013920Y008862D03*
X013723Y008862D03*
X013526Y008862D03*
X013330Y008862D03*
X013133Y008862D03*
X012936Y008862D03*
X012739Y008862D03*
X012542Y008862D03*
X012345Y008862D03*
X012148Y008862D03*
X012148Y011972D03*
X012345Y011972D03*
X012542Y011972D03*
X012739Y011972D03*
X012936Y011972D03*
X013133Y011972D03*
X013330Y011972D03*
X013526Y011972D03*
X013723Y011972D03*
X013920Y011972D03*
X014117Y011972D03*
X014314Y011972D03*
D26*
X014786Y011499D03*
X014786Y011302D03*
X014786Y011106D03*
X014786Y010909D03*
X014786Y010712D03*
X014786Y010515D03*
X014786Y010318D03*
X014786Y010121D03*
X014786Y009925D03*
X014786Y009728D03*
X014786Y009531D03*
X014786Y009334D03*
X011676Y009334D03*
X011676Y009531D03*
X011676Y009728D03*
X011676Y009925D03*
X011676Y010121D03*
X011676Y010318D03*
X011676Y010515D03*
X011676Y010712D03*
X011676Y010909D03*
X011676Y011106D03*
X011676Y011302D03*
X011676Y011499D03*
D27*
X014219Y017917D03*
X015243Y017917D03*
X008743Y018667D03*
X007719Y018667D03*
D28*
X010981Y016275D03*
D29*
X010981Y018598D03*
X010076Y018598D03*
X011887Y018598D03*
M02*
