G75*
G70*
%OFA0B0*%
%FSLAX24Y24*%
%IPPOS*%
%LPD*%
%AMOC8*
5,1,8,0,0,1.08239X$1,22.5*
%
%ADD10C,0.0000*%
%ADD11C,0.0130*%
%ADD12C,0.0080*%
%ADD13C,0.0050*%
%ADD14R,0.0492X0.0189*%
%ADD15R,0.0189X0.0492*%
D10*
X001481Y000917D02*
X001481Y020602D01*
X021166Y020602D01*
X021166Y000917D01*
X001481Y000917D01*
X010087Y009228D02*
X010087Y010606D01*
X010875Y010606D01*
X010875Y009228D01*
X010087Y009228D01*
X010292Y007810D02*
X011670Y007810D01*
X011670Y007023D01*
X010292Y007023D01*
X010292Y007810D01*
X011087Y010728D02*
X011875Y010728D01*
X011875Y012106D01*
X011087Y012106D01*
X011087Y010728D01*
X013792Y011523D02*
X015170Y011523D01*
X015170Y012310D01*
X013792Y012310D01*
X013792Y011523D01*
X014042Y008810D02*
X015420Y008810D01*
X015420Y008023D01*
X014042Y008023D01*
X014042Y008810D01*
D11*
X014030Y013482D02*
X014321Y013482D01*
X014466Y013627D01*
X013885Y014207D01*
X013885Y013627D01*
X014030Y013482D01*
X014466Y013627D02*
X014466Y014207D01*
X014321Y014352D01*
X014030Y014352D01*
X013885Y014207D01*
X013545Y014062D02*
X013255Y014352D01*
X013255Y013482D01*
X013545Y013482D02*
X012964Y013482D01*
X012624Y013627D02*
X012479Y013482D01*
X012189Y013482D01*
X012044Y013627D01*
X012044Y013772D01*
X012189Y013917D01*
X012334Y013917D01*
X012189Y013917D02*
X012044Y014062D01*
X012044Y014207D01*
X012189Y014352D01*
X012479Y014352D01*
X012624Y014207D01*
X014806Y014207D02*
X014806Y014062D01*
X015386Y013482D01*
X014806Y013482D01*
X014806Y014207D02*
X014951Y014352D01*
X015241Y014352D01*
X015386Y014207D01*
X016639Y014062D02*
X016784Y014062D01*
X017075Y013772D01*
X017075Y013482D02*
X017075Y014062D01*
X017415Y013917D02*
X017415Y013482D01*
X017850Y013482D01*
X017995Y013627D01*
X017850Y013772D01*
X017415Y013772D01*
X017415Y013917D02*
X017560Y014062D01*
X017850Y014062D01*
X018336Y014352D02*
X018336Y013482D01*
X018626Y014062D02*
X018336Y014352D01*
X018626Y014062D02*
X018916Y014352D01*
X018916Y013482D01*
X014416Y016982D02*
X014126Y016982D01*
X014271Y016982D02*
X014271Y017852D01*
X014416Y017852D02*
X014126Y017852D01*
X013802Y017417D02*
X013802Y017127D01*
X013657Y016982D01*
X013222Y016982D01*
X013222Y016837D02*
X013222Y017562D01*
X013657Y017562D01*
X013802Y017417D01*
X013512Y016691D02*
X013367Y016691D01*
X013222Y016837D01*
X012881Y017127D02*
X012736Y016982D01*
X012446Y016982D01*
X012301Y017127D01*
X012301Y017417D01*
X012446Y017562D01*
X012736Y017562D01*
X012881Y017417D01*
X012881Y017127D01*
X011961Y017272D02*
X011670Y017562D01*
X011525Y017562D01*
X011961Y017562D02*
X011961Y016982D01*
X010273Y016982D02*
X009692Y016982D01*
X009352Y017127D02*
X009352Y017417D01*
X009207Y017562D01*
X008916Y017562D01*
X008771Y017417D01*
X008771Y017272D01*
X009352Y017272D01*
X009352Y017127D02*
X009207Y016982D01*
X008916Y016982D01*
X008431Y016982D02*
X008286Y016982D01*
X008286Y017127D01*
X008431Y017127D01*
X008431Y016982D01*
X010273Y016982D02*
X010273Y017852D01*
D12*
X010437Y004127D02*
X010851Y004127D01*
X010644Y004127D02*
X010644Y003507D01*
X011082Y003507D02*
X011496Y003920D01*
X011726Y004024D02*
X011830Y004127D01*
X012037Y004127D01*
X012140Y004024D01*
X012140Y003610D01*
X012037Y003507D01*
X011830Y003507D01*
X011726Y003610D01*
X011496Y003507D02*
X011082Y003920D01*
X010207Y003817D02*
X010207Y003610D01*
X010103Y003507D01*
X009896Y003507D01*
X009793Y003610D01*
X009793Y003714D01*
X009896Y003817D01*
X010207Y003817D01*
X010000Y004024D01*
X009793Y004127D01*
X008917Y004127D02*
X008917Y003507D01*
X008607Y003507D01*
X008504Y003610D01*
X008504Y003817D01*
X008607Y003920D01*
X008917Y003920D01*
X008273Y003610D02*
X008169Y003714D01*
X007859Y003714D01*
X007859Y003817D02*
X007859Y003507D01*
X008169Y003507D01*
X008273Y003610D01*
X008169Y003920D02*
X007963Y003920D01*
X007859Y003817D01*
X007628Y003817D02*
X007525Y003920D01*
X007215Y003920D01*
X007318Y003714D02*
X007525Y003714D01*
X007628Y003817D01*
X007628Y003507D02*
X007318Y003507D01*
X007215Y003610D01*
X007318Y003714D01*
X006984Y003714D02*
X006570Y003714D01*
X006570Y003817D01*
X006673Y003920D01*
X006880Y003920D01*
X006984Y003817D01*
X006984Y003610D01*
X006880Y003507D01*
X006673Y003507D01*
X012371Y003507D02*
X012785Y003920D01*
X013016Y004024D02*
X013429Y003610D01*
X013326Y003507D01*
X013119Y003507D01*
X013016Y003610D01*
X013016Y004024D01*
X013119Y004127D01*
X013326Y004127D01*
X013429Y004024D01*
X013429Y003610D01*
X013660Y003507D02*
X014074Y003507D01*
X013867Y003507D02*
X013867Y004127D01*
X014074Y003920D01*
X014305Y004127D02*
X014718Y004127D01*
X014718Y003507D01*
X014718Y003817D02*
X014512Y003817D01*
X014949Y003920D02*
X014949Y004024D01*
X015053Y004127D01*
X015259Y004127D01*
X015363Y004024D01*
X014949Y003920D02*
X015363Y003507D01*
X014949Y003507D01*
X015263Y003077D02*
X015263Y002457D01*
X015057Y002457D02*
X015470Y002457D01*
X015470Y002870D02*
X015263Y003077D01*
X015697Y003507D02*
X015904Y003507D01*
X016007Y003610D01*
X015801Y003817D02*
X015697Y003817D01*
X015594Y003714D01*
X015594Y003610D01*
X015697Y003507D01*
X015697Y003817D02*
X015594Y003920D01*
X015594Y004024D01*
X015697Y004127D01*
X015904Y004127D01*
X016007Y004024D01*
X016238Y004127D02*
X016238Y003507D01*
X016652Y003507D02*
X016652Y004127D01*
X016445Y003920D01*
X016238Y004127D01*
X016883Y004127D02*
X017297Y004127D01*
X017090Y004127D02*
X017090Y003507D01*
X017527Y003610D02*
X017631Y003507D01*
X017838Y003507D01*
X017941Y003610D01*
X017838Y003817D02*
X017631Y003817D01*
X017527Y003714D01*
X017527Y003610D01*
X017838Y003817D02*
X017941Y003920D01*
X017941Y004024D01*
X017838Y004127D01*
X017631Y004127D01*
X017527Y004024D01*
X017527Y002870D02*
X017734Y002457D01*
X017941Y002870D01*
X017297Y002767D02*
X017193Y002870D01*
X016986Y002870D01*
X016883Y002767D01*
X016883Y002664D01*
X017297Y002664D01*
X017297Y002767D02*
X017297Y002560D01*
X017193Y002457D01*
X016986Y002457D01*
X016652Y002457D02*
X016652Y002870D01*
X016652Y002664D02*
X016445Y002870D01*
X016342Y002870D01*
X014826Y002560D02*
X014826Y002457D01*
X014722Y002457D01*
X014722Y002560D01*
X014826Y002560D01*
X014504Y002560D02*
X014400Y002457D01*
X014193Y002457D01*
X014090Y002560D01*
X014090Y002974D01*
X014504Y002560D01*
X014504Y002974D01*
X014400Y003077D01*
X014193Y003077D01*
X014090Y002974D01*
X012785Y003507D02*
X012371Y003920D01*
D13*
X011221Y006541D02*
X011071Y006541D01*
X010996Y006616D01*
X010836Y006616D02*
X010761Y006541D01*
X010611Y006541D01*
X010536Y006616D01*
X010536Y006766D01*
X010611Y006841D01*
X010686Y006841D01*
X010836Y006766D01*
X010836Y006991D01*
X010536Y006991D01*
X010587Y007171D02*
X011375Y007171D01*
X011375Y007663D01*
X010587Y007663D01*
X010587Y007171D01*
X010981Y007141D02*
X010981Y007692D01*
X011071Y006991D02*
X011221Y006991D01*
X011296Y006916D01*
X011296Y006616D01*
X011221Y006541D01*
X010996Y006916D02*
X011071Y006991D01*
X010982Y009361D02*
X010907Y009436D01*
X010907Y009586D01*
X010982Y009661D01*
X010907Y009821D02*
X010907Y010122D01*
X010907Y009971D02*
X011357Y009971D01*
X011207Y009821D01*
X011282Y009661D02*
X011357Y009586D01*
X011357Y009436D01*
X011282Y009361D01*
X010982Y009361D01*
X010727Y009523D02*
X010727Y010310D01*
X010235Y010310D01*
X010235Y009523D01*
X010727Y009523D01*
X010757Y009917D02*
X010206Y009917D01*
X011235Y011023D02*
X011727Y011023D01*
X011727Y011810D01*
X011235Y011810D01*
X011235Y011023D01*
X011056Y011177D02*
X010981Y011102D01*
X010681Y011102D01*
X010606Y011177D01*
X010606Y011327D01*
X010681Y011402D01*
X010831Y011562D02*
X010831Y011862D01*
X011056Y011787D02*
X010831Y011562D01*
X010981Y011402D02*
X011056Y011327D01*
X011056Y011177D01*
X011206Y011417D02*
X011757Y011417D01*
X011056Y011787D02*
X010606Y011787D01*
X014087Y011671D02*
X014875Y011671D01*
X014875Y012163D01*
X014087Y012163D01*
X014087Y011671D01*
X014481Y011641D02*
X014481Y012192D01*
X014501Y012342D02*
X014576Y012417D01*
X014501Y012342D02*
X014351Y012342D01*
X014276Y012417D01*
X014276Y012492D01*
X014351Y012567D01*
X014426Y012567D01*
X014351Y012567D02*
X014276Y012643D01*
X014276Y012718D01*
X014351Y012793D01*
X014501Y012793D01*
X014576Y012718D01*
X014737Y012718D02*
X014812Y012793D01*
X014962Y012793D01*
X015037Y012718D01*
X015037Y012417D01*
X014962Y012342D01*
X014812Y012342D01*
X014737Y012417D01*
X015381Y015792D02*
X015306Y015867D01*
X015306Y016242D01*
X015306Y016392D02*
X015306Y016467D01*
X015149Y016242D02*
X015149Y016017D01*
X015074Y015942D01*
X014849Y015942D01*
X014849Y016242D01*
X014689Y016242D02*
X014464Y016242D01*
X014389Y016167D01*
X014389Y015942D01*
X014228Y016017D02*
X014153Y015942D01*
X013928Y015942D01*
X013928Y015867D02*
X013928Y016242D01*
X014153Y016242D01*
X014228Y016167D01*
X014228Y016017D01*
X014078Y015792D02*
X014003Y015792D01*
X013928Y015867D01*
X013768Y016017D02*
X013693Y015942D01*
X013543Y015942D01*
X013468Y016017D01*
X013468Y016167D01*
X013543Y016242D01*
X013693Y016242D01*
X013768Y016167D01*
X013768Y016017D01*
X013308Y015942D02*
X013157Y015942D01*
X013233Y015942D02*
X013233Y016242D01*
X013308Y016242D01*
X013233Y016392D02*
X013233Y016467D01*
X013001Y016167D02*
X012926Y016242D01*
X012700Y016242D01*
X012700Y015867D01*
X012775Y015792D01*
X012851Y015792D01*
X012926Y015942D02*
X012700Y015942D01*
X012540Y016017D02*
X012465Y015942D01*
X012315Y015942D01*
X012240Y016017D01*
X012240Y016167D01*
X012315Y016242D01*
X012465Y016242D01*
X012540Y016167D01*
X012540Y016017D01*
X012926Y015942D02*
X013001Y016017D01*
X013001Y016167D01*
X012080Y016242D02*
X012080Y015942D01*
X012080Y016092D02*
X011930Y016242D01*
X011855Y016242D01*
X011696Y016392D02*
X011621Y016392D01*
X011621Y015942D01*
X011696Y015942D02*
X011546Y015942D01*
X011389Y016017D02*
X011389Y016317D01*
X011314Y016392D01*
X011164Y016392D01*
X011089Y016317D01*
X011089Y016167D01*
X011164Y016092D01*
X011164Y016242D01*
X011314Y016242D01*
X011314Y016092D01*
X011164Y016092D01*
X011089Y016017D02*
X011164Y015942D01*
X011314Y015942D01*
X011389Y016017D01*
X010929Y016017D02*
X010854Y015942D01*
X010629Y015942D01*
X010629Y015867D02*
X010629Y016242D01*
X010854Y016242D01*
X010929Y016167D01*
X010929Y016017D01*
X010779Y015792D02*
X010704Y015792D01*
X010629Y015867D01*
X010469Y015942D02*
X010469Y016242D01*
X010393Y016242D01*
X010318Y016167D01*
X010243Y016242D01*
X010168Y016167D01*
X010168Y015942D01*
X010318Y015942D02*
X010318Y016167D01*
X010008Y016017D02*
X009933Y015942D01*
X009708Y015942D01*
X009708Y016167D01*
X009783Y016242D01*
X009933Y016242D01*
X009933Y016092D02*
X009708Y016092D01*
X009548Y016242D02*
X009473Y016242D01*
X009473Y015942D01*
X009548Y015942D02*
X009398Y015942D01*
X009241Y015942D02*
X009091Y015942D01*
X009166Y015942D02*
X009166Y016392D01*
X009241Y016392D01*
X009473Y016392D02*
X009473Y016467D01*
X009933Y016092D02*
X010008Y016017D01*
X008934Y016017D02*
X008934Y015942D01*
X008859Y015942D01*
X008859Y016017D01*
X008934Y016017D01*
X008704Y016017D02*
X008629Y015942D01*
X008403Y015942D01*
X008243Y016017D02*
X008168Y015942D01*
X008018Y015942D01*
X007943Y016017D01*
X007943Y016167D01*
X008018Y016242D01*
X008168Y016242D01*
X008243Y016167D01*
X008243Y016017D01*
X008403Y016242D02*
X008629Y016242D01*
X008704Y016167D01*
X008704Y016017D01*
X007783Y015942D02*
X007783Y016242D01*
X007708Y016242D01*
X007633Y016167D01*
X007558Y016242D01*
X007483Y016167D01*
X007483Y015942D01*
X007633Y015942D02*
X007633Y016167D01*
X014689Y016242D02*
X014689Y015942D01*
X015381Y015792D02*
X015456Y015792D01*
X014731Y008692D02*
X014731Y008141D01*
X014821Y007991D02*
X014971Y007991D01*
X015046Y007916D01*
X015046Y007616D01*
X014971Y007541D01*
X014821Y007541D01*
X014746Y007616D01*
X014586Y007541D02*
X014286Y007841D01*
X014286Y007916D01*
X014361Y007991D01*
X014511Y007991D01*
X014586Y007916D01*
X014746Y007916D02*
X014821Y007991D01*
X015125Y008171D02*
X015125Y008663D01*
X014337Y008663D01*
X014337Y008171D01*
X015125Y008171D01*
X014586Y007541D02*
X014286Y007541D01*
D14*
X010481Y009617D03*
X010481Y010216D03*
X011481Y011117D03*
X011481Y011716D03*
D15*
X014182Y011917D03*
X014780Y011917D03*
X015030Y008417D03*
X014432Y008417D03*
X011280Y007417D03*
X010682Y007417D03*
M02*
