G75*
G70*
%OFA0B0*%
%FSLAX24Y24*%
%IPPOS*%
%LPD*%
%AMOC8*
5,1,8,0,0,1.08239X$1,22.5*
%
%ADD10C,0.0000*%
%ADD11C,0.0050*%
%ADD12C,0.0060*%
%ADD13C,0.0160*%
%ADD14R,0.0160X0.0230*%
%ADD15C,0.0040*%
%ADD16R,0.0118X0.0059*%
%ADD17R,0.0118X0.0118*%
%ADD18R,0.0236X0.0531*%
%ADD19R,0.1634X0.0030*%
%ADD20R,0.0049X0.0591*%
%ADD21R,0.0197X0.0591*%
%ADD22R,0.0189X0.0492*%
%ADD23R,0.0492X0.0157*%
%ADD24R,0.0157X0.0492*%
%ADD25R,0.0200X0.0200*%
%ADD26R,0.0492X0.0189*%
%ADD27R,0.0100X0.0200*%
%ADD28R,0.0200X0.0100*%
%ADD29C,0.0080*%
%ADD30C,0.0394*%
%ADD31R,0.0079X0.0295*%
%ADD32R,0.0295X0.0079*%
%ADD33C,0.0236*%
%ADD34C,0.0197*%
%ADD35R,0.0050X0.0472*%
D10*
X001481Y000917D02*
X001481Y020602D01*
X021166Y020602D01*
X021166Y000917D01*
X001481Y000917D01*
X003292Y004543D02*
X003292Y005291D01*
X004670Y005291D01*
X004670Y004543D01*
X003292Y004543D01*
X003292Y005543D02*
X003292Y006291D01*
X004670Y006291D01*
X004670Y005543D01*
X003292Y005543D01*
X003292Y006543D02*
X003292Y007291D01*
X004670Y007291D01*
X004670Y006543D01*
X003292Y006543D01*
X003792Y007543D02*
X003792Y008291D01*
X005170Y008291D01*
X005170Y007543D01*
X003792Y007543D01*
X003792Y008543D02*
X003792Y009291D01*
X005170Y009291D01*
X005170Y008543D01*
X003792Y008543D01*
X003792Y009543D02*
X003792Y010291D01*
X005170Y010291D01*
X005170Y009543D01*
X003792Y009543D01*
X008107Y008606D02*
X008107Y007228D01*
X008855Y007228D01*
X008855Y008606D01*
X008107Y008606D01*
X010292Y006791D02*
X011670Y006791D01*
X011670Y006043D01*
X010292Y006043D01*
X010292Y006791D01*
X012292Y006791D02*
X012292Y006043D01*
X013670Y006043D01*
X013670Y006791D01*
X012292Y006791D01*
X012042Y003810D02*
X013420Y003810D01*
X013420Y003023D01*
X012042Y003023D01*
X012042Y003810D01*
X011920Y003810D02*
X011920Y003023D01*
X010542Y003023D01*
X010542Y003810D01*
X011920Y003810D01*
X009875Y003606D02*
X009875Y002228D01*
X009087Y002228D01*
X009087Y003606D01*
X009875Y003606D01*
X007875Y003606D02*
X007875Y002228D01*
X007087Y002228D01*
X007087Y003606D01*
X007875Y003606D01*
X015292Y003523D02*
X015292Y004310D01*
X016670Y004310D01*
X016670Y003523D01*
X015292Y003523D01*
X018357Y009728D02*
X018357Y011106D01*
X019105Y011106D01*
X019105Y009728D01*
X018357Y009728D01*
X015696Y017464D02*
X013767Y017464D01*
X013767Y018369D01*
X015696Y018369D01*
X015696Y017464D01*
X015292Y018543D02*
X015292Y019291D01*
X016670Y019291D01*
X016670Y018543D01*
X015292Y018543D01*
X009196Y018214D02*
X007267Y018214D01*
X007267Y019119D01*
X009196Y019119D01*
X009196Y018214D01*
X006670Y018291D02*
X006670Y017543D01*
X005292Y017543D01*
X005292Y018291D01*
X006670Y018291D01*
X006670Y018293D02*
X005292Y018293D01*
X005292Y019041D01*
X006670Y019041D01*
X006670Y018293D01*
X006355Y016606D02*
X005607Y016606D01*
X005607Y015228D01*
X006355Y015228D01*
X006355Y016606D01*
X005355Y016606D02*
X005355Y015228D01*
X004607Y015228D01*
X004607Y016606D01*
X005355Y016606D01*
D11*
X005227Y016310D02*
X005227Y015523D01*
X004735Y015523D01*
X004735Y016310D01*
X005227Y016310D01*
X005735Y016310D02*
X005735Y015523D01*
X006227Y015523D01*
X006227Y016310D01*
X005735Y016310D01*
X006406Y016362D02*
X006406Y016062D01*
X006632Y016062D01*
X006556Y016212D01*
X006556Y016287D01*
X006632Y016362D01*
X006782Y016362D01*
X006857Y016287D01*
X006857Y016137D01*
X006782Y016062D01*
X006857Y015902D02*
X006707Y015752D01*
X006707Y015827D02*
X006707Y015602D01*
X006857Y015602D02*
X006406Y015602D01*
X006406Y015827D01*
X006481Y015902D01*
X006632Y015902D01*
X006707Y015827D01*
X006648Y015142D02*
X006348Y015142D01*
X006348Y014917D01*
X006498Y014992D01*
X006573Y014992D01*
X006648Y014917D01*
X006648Y014767D01*
X006573Y014692D01*
X006423Y014692D01*
X006348Y014767D01*
X006188Y014692D02*
X005887Y014692D01*
X006037Y014692D02*
X006037Y015142D01*
X005887Y014992D01*
X005727Y014992D02*
X005727Y014692D01*
X005727Y014917D02*
X005427Y014917D01*
X005427Y014992D02*
X005427Y014692D01*
X005427Y014992D02*
X005577Y015142D01*
X005727Y014992D01*
X005887Y014142D02*
X006112Y014142D01*
X006188Y014067D01*
X006188Y013992D01*
X006112Y013917D01*
X005887Y013917D01*
X005887Y013692D02*
X005887Y014142D01*
X006112Y013917D02*
X006188Y013842D01*
X006188Y013767D01*
X006112Y013692D01*
X005887Y013692D01*
X006348Y013767D02*
X006423Y013692D01*
X006573Y013692D01*
X006648Y013767D01*
X006648Y013842D01*
X006573Y013917D01*
X006498Y013917D01*
X006573Y013917D02*
X006648Y013992D01*
X006648Y014067D01*
X006573Y014142D01*
X006423Y014142D01*
X006348Y014067D01*
X006348Y013142D02*
X006348Y012917D01*
X006498Y012992D01*
X006573Y012992D01*
X006648Y012917D01*
X006648Y012767D01*
X006573Y012692D01*
X006423Y012692D01*
X006348Y012767D01*
X006188Y012767D02*
X006188Y012842D01*
X006112Y012917D01*
X005887Y012917D01*
X005887Y012692D02*
X005887Y013142D01*
X006112Y013142D01*
X006188Y013067D01*
X006188Y012992D01*
X006112Y012917D01*
X006188Y012767D02*
X006112Y012692D01*
X005887Y012692D01*
X006348Y013142D02*
X006648Y013142D01*
X007506Y012956D02*
X007581Y013032D01*
X007656Y013032D01*
X007731Y012956D01*
X007806Y013032D01*
X007881Y013032D01*
X007956Y012956D01*
X007956Y012806D01*
X007881Y012731D01*
X007806Y012571D02*
X007506Y012571D01*
X007581Y012731D02*
X007506Y012806D01*
X007506Y012956D01*
X007731Y012956D02*
X007731Y012881D01*
X007806Y012571D02*
X007956Y012421D01*
X007806Y012271D01*
X007506Y012271D01*
X007581Y012111D02*
X007656Y012111D01*
X007731Y012036D01*
X007806Y012111D01*
X007881Y012111D01*
X007956Y012036D01*
X007956Y011886D01*
X007881Y011810D01*
X007731Y011961D02*
X007731Y012036D01*
X007581Y012111D02*
X007506Y012036D01*
X007506Y011886D01*
X007581Y011810D01*
X007731Y011650D02*
X007731Y011350D01*
X007581Y011500D02*
X007881Y011500D01*
X008506Y011350D02*
X008956Y011350D01*
X008806Y011500D01*
X008956Y011650D01*
X008506Y011650D01*
X008581Y011810D02*
X008506Y011886D01*
X008506Y012036D01*
X008581Y012111D01*
X008506Y012271D02*
X008956Y012271D01*
X008956Y012571D01*
X008956Y012731D02*
X008506Y012731D01*
X008731Y012806D02*
X008956Y013032D01*
X008806Y012731D02*
X008506Y013032D01*
X008881Y012111D02*
X008956Y012036D01*
X008956Y011886D01*
X008881Y011810D01*
X008581Y011810D01*
X008581Y011190D02*
X008506Y011115D01*
X008506Y010965D01*
X008581Y010890D01*
X008656Y010890D01*
X008731Y010965D01*
X008731Y011115D01*
X008806Y011190D01*
X008881Y011190D01*
X008956Y011115D01*
X008956Y010965D01*
X008881Y010890D01*
X009581Y011810D02*
X009881Y011810D01*
X009956Y011886D01*
X009956Y012036D01*
X009881Y012111D01*
X009731Y012111D01*
X009731Y011961D01*
X009581Y012111D02*
X009506Y012036D01*
X009506Y011886D01*
X009581Y011810D01*
X009506Y012271D02*
X009956Y012571D01*
X009506Y012571D01*
X009506Y012731D02*
X009506Y012956D01*
X009581Y013032D01*
X009881Y013032D01*
X009956Y012956D01*
X009956Y012731D01*
X009506Y012731D01*
X009506Y012271D02*
X009956Y012271D01*
X010506Y012189D02*
X010506Y011964D01*
X010956Y011964D01*
X010956Y012189D01*
X010881Y012264D01*
X010581Y012264D01*
X010506Y012189D01*
X010506Y012424D02*
X010506Y012574D01*
X010506Y012499D02*
X010956Y012499D01*
X010956Y012424D02*
X010956Y012574D01*
X010881Y012731D02*
X010956Y012806D01*
X010956Y012956D01*
X010881Y013032D01*
X010581Y013032D01*
X010506Y012956D01*
X010506Y012806D01*
X010581Y012731D01*
X010881Y012731D01*
X010956Y011804D02*
X010506Y011804D01*
X010806Y011654D02*
X010956Y011804D01*
X010806Y011654D02*
X010956Y011504D01*
X010506Y011504D01*
X010581Y011343D02*
X010506Y011268D01*
X010506Y011118D01*
X010581Y011043D01*
X010656Y011043D01*
X010731Y011118D01*
X010731Y011268D01*
X010806Y011343D01*
X010881Y011343D01*
X010956Y011268D01*
X010956Y011118D01*
X010881Y011043D01*
X010476Y009312D02*
X010476Y009011D01*
X010476Y009161D02*
X010926Y009161D01*
X010926Y008851D02*
X010626Y008851D01*
X010476Y008701D01*
X010626Y008551D01*
X010926Y008551D01*
X010851Y008391D02*
X010926Y008316D01*
X010926Y008090D01*
X010476Y008090D01*
X010476Y008316D01*
X010551Y008391D01*
X010626Y008391D01*
X010701Y008316D01*
X010701Y008090D01*
X010776Y007930D02*
X010476Y007930D01*
X010776Y007930D02*
X010926Y007780D01*
X010776Y007630D01*
X010476Y007630D01*
X010701Y008316D02*
X010776Y008391D01*
X010851Y008391D01*
X010701Y008551D02*
X010701Y008851D01*
X008727Y008310D02*
X008727Y007523D01*
X008235Y007523D01*
X008235Y008310D01*
X008727Y008310D01*
X008556Y008861D02*
X008105Y008861D01*
X008105Y009086D01*
X008180Y009161D01*
X008330Y009161D01*
X008405Y009086D01*
X008405Y008861D01*
X008405Y009011D02*
X008556Y009161D01*
X008556Y009321D02*
X008556Y009622D01*
X008556Y009471D02*
X008105Y009471D01*
X008255Y009321D01*
X007676Y009355D02*
X007601Y009430D01*
X007301Y009430D01*
X007226Y009355D01*
X007226Y009205D01*
X007301Y009130D01*
X007601Y009130D01*
X007676Y009205D01*
X007676Y009355D01*
X007601Y009590D02*
X007301Y009590D01*
X007226Y009666D01*
X007226Y009816D01*
X007301Y009891D01*
X007601Y009891D01*
X007676Y009816D01*
X007676Y009666D01*
X007601Y009590D01*
X007601Y008970D02*
X007676Y008895D01*
X007676Y008670D01*
X007226Y008670D01*
X007226Y008895D01*
X007301Y008970D01*
X007376Y008970D01*
X007451Y008895D01*
X007451Y008670D01*
X007451Y008895D02*
X007526Y008970D01*
X007601Y008970D01*
X007226Y010051D02*
X007226Y010351D01*
X007226Y010201D02*
X007676Y010201D01*
X007601Y010511D02*
X007301Y010511D01*
X007226Y010586D01*
X007226Y010736D01*
X007301Y010812D01*
X007601Y010511D01*
X007676Y010586D01*
X007676Y010736D01*
X007601Y010812D01*
X007301Y010812D01*
X006648Y010767D02*
X006648Y011067D01*
X006573Y011142D01*
X006423Y011142D01*
X006348Y011067D01*
X006348Y010992D01*
X006423Y010917D01*
X006648Y010917D01*
X006648Y010767D02*
X006573Y010692D01*
X006423Y010692D01*
X006348Y010767D01*
X006188Y010767D02*
X006112Y010692D01*
X005887Y010692D01*
X005887Y011142D01*
X006112Y011142D01*
X006188Y011067D01*
X006188Y010992D01*
X006112Y010917D01*
X005887Y010917D01*
X005727Y010992D02*
X005652Y010917D01*
X005727Y010842D01*
X005727Y010767D01*
X005652Y010692D01*
X005502Y010692D01*
X005427Y010767D01*
X005267Y010692D02*
X004966Y010692D01*
X005117Y010692D02*
X005117Y011142D01*
X004966Y010992D01*
X004806Y011067D02*
X004731Y011142D01*
X004581Y011142D01*
X004506Y011067D01*
X004506Y010767D01*
X004581Y010692D01*
X004731Y010692D01*
X004806Y010767D01*
X005206Y010241D02*
X005431Y010241D01*
X005506Y010166D01*
X005506Y010016D01*
X005431Y009941D01*
X005206Y009941D01*
X005356Y009941D02*
X005506Y009791D01*
X005666Y009791D02*
X005966Y009791D01*
X005816Y009791D02*
X005816Y010241D01*
X005666Y010091D01*
X006126Y010166D02*
X006201Y010241D01*
X006352Y010241D01*
X006427Y010166D01*
X006427Y010091D01*
X006126Y009791D01*
X006427Y009791D01*
X006277Y009491D02*
X006277Y009041D01*
X006427Y009041D02*
X006126Y009041D01*
X005966Y009041D02*
X005666Y009041D01*
X005816Y009041D02*
X005816Y009491D01*
X005666Y009341D01*
X005506Y009416D02*
X005506Y009266D01*
X005431Y009191D01*
X005206Y009191D01*
X005356Y009191D02*
X005506Y009041D01*
X005206Y009041D02*
X005206Y009491D01*
X005431Y009491D01*
X005506Y009416D01*
X005206Y009791D02*
X005206Y010241D01*
X004875Y010163D02*
X004087Y010163D01*
X004087Y009671D01*
X004875Y009671D01*
X004875Y010163D01*
X005577Y010917D02*
X005652Y010917D01*
X005727Y010992D02*
X005727Y011067D01*
X005652Y011142D01*
X005502Y011142D01*
X005427Y011067D01*
X005192Y011692D02*
X005042Y011692D01*
X004966Y011767D01*
X004966Y011842D01*
X005042Y011917D01*
X005192Y011917D01*
X005267Y011842D01*
X005267Y011767D01*
X005192Y011692D01*
X005192Y011917D02*
X005267Y011992D01*
X005267Y012067D01*
X005192Y012142D01*
X005042Y012142D01*
X004966Y012067D01*
X004966Y011992D01*
X005042Y011917D01*
X004806Y011992D02*
X004731Y011917D01*
X004506Y011917D01*
X004506Y011692D02*
X004506Y012142D01*
X004731Y012142D01*
X004806Y012067D01*
X004806Y011992D01*
X004731Y011917D02*
X004806Y011842D01*
X004806Y011767D01*
X004731Y011692D01*
X004506Y011692D01*
X004506Y012692D02*
X004731Y012692D01*
X004806Y012767D01*
X004806Y012842D01*
X004731Y012917D01*
X004506Y012917D01*
X004506Y012692D02*
X004506Y013142D01*
X004731Y013142D01*
X004806Y013067D01*
X004806Y012992D01*
X004731Y012917D01*
X004966Y012917D02*
X004966Y012767D01*
X005042Y012692D01*
X005192Y012692D01*
X005267Y012767D01*
X005267Y012842D01*
X005192Y012917D01*
X004966Y012917D01*
X005117Y013067D01*
X005267Y013142D01*
X005192Y013692D02*
X005192Y014142D01*
X004966Y013917D01*
X005267Y013917D01*
X004806Y013992D02*
X004731Y013917D01*
X004506Y013917D01*
X004506Y013692D02*
X004506Y014142D01*
X004731Y014142D01*
X004806Y014067D01*
X004806Y013992D01*
X004731Y013917D02*
X004806Y013842D01*
X004806Y013767D01*
X004731Y013692D01*
X004506Y013692D01*
X004581Y014692D02*
X004731Y014692D01*
X004806Y014767D01*
X004806Y014917D01*
X004656Y014917D01*
X004506Y015067D02*
X004506Y014767D01*
X004581Y014692D01*
X004506Y015067D02*
X004581Y015142D01*
X004731Y015142D01*
X004806Y015067D01*
X004306Y015611D02*
X003855Y015611D01*
X003855Y015836D01*
X003930Y015911D01*
X004080Y015911D01*
X004155Y015836D01*
X004155Y015611D01*
X004155Y015761D02*
X004306Y015911D01*
X004230Y016071D02*
X004306Y016146D01*
X004306Y016297D01*
X004230Y016372D01*
X004155Y016372D01*
X004080Y016297D01*
X004080Y016071D01*
X004230Y016071D01*
X004080Y016071D02*
X003930Y016221D01*
X003855Y016372D01*
X003627Y016802D02*
X002564Y016802D01*
X002031Y016202D02*
X002106Y016127D01*
X002106Y015977D01*
X002031Y015902D01*
X001881Y016052D02*
X001881Y016127D01*
X001956Y016202D01*
X002031Y016202D01*
X001881Y016127D02*
X001806Y016202D01*
X001731Y016202D01*
X001656Y016127D01*
X001656Y015977D01*
X001731Y015902D01*
X001656Y015742D02*
X001656Y015592D01*
X001656Y015667D02*
X002031Y015667D01*
X002106Y015592D01*
X002106Y015517D01*
X002031Y015442D01*
X000981Y016802D02*
X004800Y016802D01*
X004800Y016881D02*
X004800Y017590D01*
X005587Y017671D02*
X006375Y017671D01*
X006375Y018163D01*
X005587Y018163D01*
X005587Y017671D01*
X005587Y018421D02*
X006375Y018421D01*
X006375Y018913D01*
X005587Y018913D01*
X005587Y018421D01*
X004800Y019243D02*
X004800Y019952D01*
X004800Y020031D02*
X000981Y020031D01*
X000989Y019952D02*
X000989Y016881D01*
X002564Y020031D02*
X003627Y020031D01*
X006855Y019047D02*
X007080Y018821D01*
X007080Y019122D01*
X006855Y019047D02*
X007306Y019047D01*
X007562Y019021D02*
X008900Y019021D01*
X008861Y018982D02*
X008609Y018982D01*
X008609Y018352D01*
X007601Y018352D01*
X007601Y018982D01*
X008609Y018982D01*
X008861Y018982D02*
X008861Y018352D01*
X008609Y018352D01*
X008640Y018163D02*
X008640Y017712D01*
X008490Y017712D02*
X008790Y017712D01*
X008490Y018013D02*
X008640Y018163D01*
X008900Y018312D02*
X007562Y018312D01*
X007644Y018163D02*
X007569Y018088D01*
X007569Y017787D01*
X007644Y017712D01*
X007794Y017712D01*
X007869Y017787D01*
X008030Y017712D02*
X008330Y017712D01*
X008180Y017712D02*
X008180Y018163D01*
X008030Y018013D01*
X007869Y018088D02*
X007794Y018163D01*
X007644Y018163D01*
X007306Y018047D02*
X007306Y017896D01*
X007230Y017821D01*
X007306Y017661D02*
X007155Y017511D01*
X007155Y017586D02*
X007155Y017361D01*
X007306Y017361D02*
X006855Y017361D01*
X006855Y017586D01*
X006930Y017661D01*
X007080Y017661D01*
X007155Y017586D01*
X006930Y017821D02*
X006855Y017896D01*
X006855Y018047D01*
X006930Y018122D01*
X007005Y018122D01*
X007080Y018047D01*
X007155Y018122D01*
X007230Y018122D01*
X007306Y018047D01*
X007080Y018047D02*
X007080Y017971D01*
X007155Y018361D02*
X007155Y018586D01*
X007080Y018661D01*
X006930Y018661D01*
X006855Y018586D01*
X006855Y018361D01*
X007306Y018361D01*
X007155Y018511D02*
X007306Y018661D01*
X009256Y019667D02*
X009331Y019592D01*
X009481Y019592D01*
X009556Y019667D01*
X009556Y019817D01*
X009481Y019892D01*
X009406Y019892D01*
X009256Y019817D01*
X009256Y020042D01*
X009556Y020042D01*
X009716Y020042D02*
X009716Y019742D01*
X009867Y019592D01*
X010017Y019742D01*
X010017Y020042D01*
X009643Y018165D02*
X012320Y018165D01*
X012320Y016669D01*
X009643Y016669D01*
X009643Y018165D01*
X012256Y018917D02*
X012331Y018842D01*
X012481Y018842D01*
X012556Y018917D01*
X012556Y018992D01*
X012481Y019067D01*
X012406Y019067D01*
X012481Y019067D02*
X012556Y019142D01*
X012556Y019217D01*
X012481Y019292D01*
X012331Y019292D01*
X012256Y019217D01*
X012716Y019292D02*
X012716Y018992D01*
X012867Y018842D01*
X013017Y018992D01*
X013017Y019292D01*
X013177Y019217D02*
X013252Y019292D01*
X013402Y019292D01*
X013477Y019217D01*
X013477Y019142D01*
X013402Y019067D01*
X013477Y018992D01*
X013477Y018917D01*
X013402Y018842D01*
X013252Y018842D01*
X013177Y018917D01*
X013327Y019067D02*
X013402Y019067D01*
X014062Y018271D02*
X015400Y018271D01*
X015361Y018232D02*
X015361Y017602D01*
X014353Y017602D01*
X014353Y018232D01*
X015361Y018232D01*
X015587Y018671D02*
X015587Y019163D01*
X016375Y019163D01*
X016375Y018671D01*
X015587Y018671D01*
X016256Y018338D02*
X016331Y018413D01*
X016631Y018112D01*
X016706Y018188D01*
X016706Y018338D01*
X016631Y018413D01*
X016331Y018413D01*
X016256Y018338D02*
X016256Y018188D01*
X016331Y018112D01*
X016631Y018112D01*
X016706Y017952D02*
X016706Y017652D01*
X016706Y017802D02*
X016256Y017802D01*
X016406Y017652D01*
X016406Y017492D02*
X016706Y017492D01*
X016481Y017492D02*
X016481Y017192D01*
X016406Y017192D02*
X016256Y017342D01*
X016406Y017492D01*
X016406Y017192D02*
X016706Y017192D01*
X017256Y017342D02*
X017406Y017492D01*
X017706Y017492D01*
X017631Y017652D02*
X017556Y017652D01*
X017481Y017727D01*
X017481Y017877D01*
X017556Y017952D01*
X017631Y017952D01*
X017706Y017877D01*
X017706Y017727D01*
X017631Y017652D01*
X017481Y017727D02*
X017406Y017652D01*
X017331Y017652D01*
X017256Y017727D01*
X017256Y017877D01*
X017331Y017952D01*
X017406Y017952D01*
X017481Y017877D01*
X017481Y017492D02*
X017481Y017192D01*
X017406Y017192D02*
X017256Y017342D01*
X017406Y017192D02*
X017706Y017192D01*
X018256Y017192D02*
X018256Y017417D01*
X018331Y017492D01*
X018406Y017492D01*
X018481Y017417D01*
X018481Y017192D01*
X018481Y017417D02*
X018556Y017492D01*
X018631Y017492D01*
X018706Y017417D01*
X018706Y017192D01*
X018256Y017192D01*
X018406Y017652D02*
X018256Y017802D01*
X018706Y017802D01*
X018706Y017652D02*
X018706Y017952D01*
X018481Y018112D02*
X018481Y018413D01*
X018706Y018338D02*
X018256Y018338D01*
X018481Y018112D01*
X018556Y018692D02*
X018406Y018842D01*
X018481Y018842D02*
X018256Y018842D01*
X018256Y018692D02*
X018256Y019142D01*
X018481Y019142D01*
X018556Y019067D01*
X018556Y018917D01*
X018481Y018842D01*
X018716Y018992D02*
X019017Y018692D01*
X019406Y018692D02*
X019406Y019142D01*
X019256Y019142D02*
X019556Y019142D01*
X019716Y018992D02*
X020017Y018692D01*
X020017Y018992D02*
X019716Y018692D01*
X019706Y018413D02*
X019706Y018112D01*
X019406Y018413D01*
X019331Y018413D01*
X019256Y018338D01*
X019256Y018188D01*
X019331Y018112D01*
X019256Y017802D02*
X019706Y017802D01*
X019706Y017652D02*
X019706Y017952D01*
X019406Y017652D02*
X019256Y017802D01*
X019331Y017492D02*
X019406Y017492D01*
X019481Y017417D01*
X019481Y017192D01*
X019481Y017417D02*
X019556Y017492D01*
X019631Y017492D01*
X019706Y017417D01*
X019706Y017192D01*
X019256Y017192D01*
X019256Y017417D01*
X019331Y017492D01*
X020256Y017417D02*
X020256Y017192D01*
X020706Y017192D01*
X020706Y017417D01*
X020631Y017492D01*
X020556Y017492D01*
X020481Y017417D01*
X020481Y017192D01*
X020481Y017417D02*
X020406Y017492D01*
X020331Y017492D01*
X020256Y017417D01*
X020406Y017652D02*
X020256Y017802D01*
X020706Y017802D01*
X020706Y017652D02*
X020706Y017952D01*
X020631Y018112D02*
X020706Y018188D01*
X020706Y018338D01*
X020631Y018413D01*
X020331Y018413D01*
X020631Y018112D01*
X020331Y018112D01*
X020256Y018188D01*
X020256Y018338D01*
X020331Y018413D01*
X019017Y018992D02*
X018716Y018692D01*
X017896Y018667D02*
X017821Y018592D01*
X017671Y018592D01*
X017596Y018667D01*
X017436Y018592D02*
X017136Y018592D01*
X017286Y018592D02*
X017286Y019043D01*
X017136Y018893D01*
X016976Y018968D02*
X016901Y019043D01*
X016675Y019043D01*
X016675Y018592D01*
X016675Y018742D02*
X016901Y018742D01*
X016976Y018817D01*
X016976Y018968D01*
X016826Y018742D02*
X016976Y018592D01*
X017596Y018968D02*
X017671Y019043D01*
X017821Y019043D01*
X017896Y018968D01*
X017896Y018893D01*
X017821Y018817D01*
X017896Y018742D01*
X017896Y018667D01*
X017821Y018817D02*
X017746Y018817D01*
X015400Y017562D02*
X014062Y017562D01*
X014101Y017602D02*
X014353Y017602D01*
X014101Y017602D02*
X014101Y018232D01*
X014353Y018232D01*
X014172Y017371D02*
X014172Y016921D01*
X014022Y016921D02*
X014322Y016921D01*
X014483Y016921D02*
X014783Y017221D01*
X014783Y017296D01*
X014708Y017371D01*
X014558Y017371D01*
X014483Y017296D01*
X014172Y017371D02*
X014022Y017221D01*
X013862Y017296D02*
X013787Y017371D01*
X013637Y017371D01*
X013562Y017296D01*
X013562Y016996D01*
X013637Y016921D01*
X013787Y016921D01*
X013862Y016996D01*
X014483Y016921D02*
X014783Y016921D01*
X015235Y016542D02*
X015386Y016542D01*
X015311Y016542D02*
X015311Y016167D01*
X015235Y016092D01*
X015160Y016092D01*
X015085Y016167D01*
X015546Y016317D02*
X015846Y016317D01*
X015771Y016092D02*
X015771Y016542D01*
X015546Y016317D01*
X017256Y014413D02*
X017256Y014112D01*
X017481Y014112D01*
X017406Y014263D01*
X017406Y014338D01*
X017481Y014413D01*
X017631Y014413D01*
X017706Y014338D01*
X017706Y014188D01*
X017631Y014112D01*
X017706Y013952D02*
X017706Y013652D01*
X017706Y013802D02*
X017256Y013802D01*
X017406Y013652D01*
X017406Y013492D02*
X017481Y013417D01*
X017481Y013192D01*
X017481Y013417D02*
X017556Y013492D01*
X017631Y013492D01*
X017706Y013417D01*
X017706Y013192D01*
X017256Y013192D01*
X017256Y013417D01*
X017331Y013492D01*
X017406Y013492D01*
X016706Y013492D02*
X016406Y013492D01*
X016256Y013342D01*
X016406Y013192D01*
X016706Y013192D01*
X016481Y013192D02*
X016481Y013492D01*
X016406Y013652D02*
X016481Y013727D01*
X016481Y013952D01*
X016631Y013952D02*
X016331Y013952D01*
X016256Y013877D01*
X016256Y013727D01*
X016331Y013652D01*
X016406Y013652D01*
X016631Y013652D02*
X016706Y013727D01*
X016706Y013877D01*
X016631Y013952D01*
X018256Y013802D02*
X018706Y013802D01*
X018706Y013652D02*
X018706Y013952D01*
X018631Y014112D02*
X018706Y014188D01*
X018706Y014338D01*
X018631Y014413D01*
X018556Y014413D01*
X018481Y014338D01*
X018481Y014263D01*
X018481Y014338D02*
X018406Y014413D01*
X018331Y014413D01*
X018256Y014338D01*
X018256Y014188D01*
X018331Y014112D01*
X018256Y013802D02*
X018406Y013652D01*
X018406Y013492D02*
X018481Y013417D01*
X018481Y013192D01*
X018481Y013417D02*
X018556Y013492D01*
X018631Y013492D01*
X018706Y013417D01*
X018706Y013192D01*
X018256Y013192D01*
X018256Y013417D01*
X018331Y013492D01*
X018406Y013492D01*
X019256Y013417D02*
X019256Y013192D01*
X019706Y013192D01*
X019706Y013417D01*
X019631Y013492D01*
X019556Y013492D01*
X019481Y013417D01*
X019481Y013192D01*
X019481Y013417D02*
X019406Y013492D01*
X019331Y013492D01*
X019256Y013417D01*
X019406Y013652D02*
X019256Y013802D01*
X019706Y013802D01*
X019706Y013652D02*
X019706Y013952D01*
X019706Y014112D02*
X019706Y014413D01*
X019706Y014263D02*
X019256Y014263D01*
X019406Y014112D01*
X020256Y013877D02*
X020256Y013727D01*
X020331Y013652D01*
X020331Y013492D02*
X020406Y013492D01*
X020481Y013417D01*
X020481Y013192D01*
X020481Y013417D02*
X020556Y013492D01*
X020631Y013492D01*
X020706Y013417D01*
X020706Y013192D01*
X020256Y013192D01*
X020256Y013417D01*
X020331Y013492D01*
X020256Y013877D02*
X020331Y013952D01*
X020406Y013952D01*
X020706Y013652D01*
X020706Y013952D01*
X019226Y011672D02*
X019076Y011522D01*
X019226Y011672D02*
X019226Y011222D01*
X019076Y011222D02*
X019376Y011222D01*
X018977Y010810D02*
X018977Y010023D01*
X018485Y010023D01*
X018485Y010810D01*
X018977Y010810D01*
X018765Y011222D02*
X018765Y011672D01*
X018615Y011672D02*
X018916Y011672D01*
X018455Y011597D02*
X018455Y011297D01*
X018380Y011222D01*
X018230Y011222D01*
X018155Y011297D01*
X018155Y011597D01*
X018230Y011672D01*
X018380Y011672D01*
X018455Y011597D01*
X017995Y011597D02*
X017995Y011297D01*
X017920Y011222D01*
X017770Y011222D01*
X017695Y011297D01*
X017695Y011597D01*
X017770Y011672D01*
X017920Y011672D01*
X017995Y011597D01*
X017534Y011597D02*
X017534Y011522D01*
X017459Y011447D01*
X017234Y011447D01*
X017234Y011222D02*
X017234Y011672D01*
X017459Y011672D01*
X017534Y011597D01*
X017459Y011447D02*
X017534Y011372D01*
X017534Y011297D01*
X017459Y011222D01*
X017234Y011222D01*
X017855Y010547D02*
X017855Y010396D01*
X017930Y010321D01*
X017930Y010161D02*
X018080Y010161D01*
X018155Y010086D01*
X018155Y009861D01*
X018155Y010011D02*
X018306Y010161D01*
X018306Y010321D02*
X018005Y010622D01*
X017930Y010622D01*
X017855Y010547D01*
X017930Y010161D02*
X017855Y010086D01*
X017855Y009861D01*
X018306Y009861D01*
X018306Y010321D02*
X018306Y010622D01*
X019506Y010317D02*
X019506Y010017D01*
X019806Y010317D01*
X019806Y010017D01*
X019731Y009942D01*
X019581Y009942D01*
X019506Y010017D01*
X019506Y010317D02*
X019581Y010392D01*
X019731Y010392D01*
X019806Y010317D01*
X018419Y009142D02*
X018419Y008692D01*
X018569Y008692D02*
X018268Y008692D01*
X018108Y008767D02*
X018033Y008692D01*
X017808Y008692D01*
X017808Y009142D01*
X018033Y009142D01*
X018108Y009067D01*
X018108Y008992D01*
X018033Y008917D01*
X017808Y008917D01*
X017648Y008917D02*
X017648Y009067D01*
X017573Y009142D01*
X017348Y009142D01*
X017348Y008692D01*
X017348Y008842D02*
X017573Y008842D01*
X017648Y008917D01*
X018033Y008917D02*
X018108Y008842D01*
X018108Y008767D01*
X018268Y008992D02*
X018419Y009142D01*
X018268Y008142D02*
X018569Y008142D01*
X018569Y008067D01*
X018268Y007767D01*
X018268Y007692D01*
X018108Y007692D02*
X018108Y007992D01*
X017958Y008142D01*
X017808Y007992D01*
X017808Y007692D01*
X017808Y007917D02*
X018108Y007917D01*
X017648Y007917D02*
X017573Y007842D01*
X017348Y007842D01*
X017348Y007692D02*
X017348Y008142D01*
X017573Y008142D01*
X017648Y008067D01*
X017648Y007917D01*
X017573Y007142D02*
X017348Y007142D01*
X017348Y006692D01*
X017348Y006842D02*
X017573Y006842D01*
X017648Y006917D01*
X017648Y007067D01*
X017573Y007142D01*
X017808Y006992D02*
X017958Y007142D01*
X018108Y006992D01*
X018108Y006692D01*
X018268Y006767D02*
X018344Y006692D01*
X018494Y006692D01*
X018569Y006767D01*
X018569Y006917D01*
X018494Y006992D01*
X018419Y006992D01*
X018268Y006917D01*
X018268Y007142D01*
X018569Y007142D01*
X018108Y006917D02*
X017808Y006917D01*
X017808Y006992D02*
X017808Y006692D01*
X017958Y006142D02*
X017808Y005992D01*
X017808Y005692D01*
X017808Y005917D02*
X018108Y005917D01*
X018108Y005992D02*
X018108Y005692D01*
X018268Y005767D02*
X018344Y005692D01*
X018494Y005692D01*
X018569Y005767D01*
X018569Y005842D01*
X018494Y005917D01*
X018419Y005917D01*
X018494Y005917D02*
X018569Y005992D01*
X018569Y006067D01*
X018494Y006142D01*
X018344Y006142D01*
X018268Y006067D01*
X018108Y005992D02*
X017958Y006142D01*
X017648Y006067D02*
X017648Y005917D01*
X017573Y005842D01*
X017348Y005842D01*
X017348Y005692D02*
X017348Y006142D01*
X017573Y006142D01*
X017648Y006067D01*
X016727Y006067D02*
X016652Y006142D01*
X016502Y006142D01*
X016427Y006067D01*
X016267Y005992D02*
X016267Y005692D01*
X016427Y005692D02*
X016727Y005992D01*
X016727Y006067D01*
X016727Y005692D02*
X016427Y005692D01*
X016267Y005917D02*
X015966Y005917D01*
X015966Y005992D02*
X015966Y005692D01*
X015806Y005917D02*
X015731Y005842D01*
X015506Y005842D01*
X015506Y005692D02*
X015506Y006142D01*
X015731Y006142D01*
X015806Y006067D01*
X015806Y005917D01*
X015966Y005992D02*
X016117Y006142D01*
X016267Y005992D01*
X016267Y006692D02*
X016267Y006992D01*
X016117Y007142D01*
X015966Y006992D01*
X015966Y006692D01*
X015966Y006917D02*
X016267Y006917D01*
X016427Y006917D02*
X016577Y006992D01*
X016652Y006992D01*
X016727Y006917D01*
X016727Y006767D01*
X016652Y006692D01*
X016502Y006692D01*
X016427Y006767D01*
X016427Y006917D02*
X016427Y007142D01*
X016727Y007142D01*
X016652Y007692D02*
X016502Y007692D01*
X016427Y007767D01*
X016427Y007917D01*
X016652Y007917D01*
X016727Y007842D01*
X016727Y007767D01*
X016652Y007692D01*
X016427Y007917D02*
X016577Y008067D01*
X016727Y008142D01*
X016267Y007992D02*
X016267Y007692D01*
X016267Y007917D02*
X015966Y007917D01*
X015966Y007992D02*
X016117Y008142D01*
X016267Y007992D01*
X015966Y007992D02*
X015966Y007692D01*
X015806Y007917D02*
X015731Y007842D01*
X015506Y007842D01*
X015506Y007692D02*
X015506Y008142D01*
X015731Y008142D01*
X015806Y008067D01*
X015806Y007917D01*
X015966Y008692D02*
X016192Y008692D01*
X016267Y008767D01*
X016267Y008842D01*
X016192Y008917D01*
X015966Y008917D01*
X015806Y008917D02*
X015731Y008842D01*
X015506Y008842D01*
X015506Y008692D02*
X015506Y009142D01*
X015731Y009142D01*
X015806Y009067D01*
X015806Y008917D01*
X015966Y008692D02*
X015966Y009142D01*
X016192Y009142D01*
X016267Y009067D01*
X016267Y008992D01*
X016192Y008917D01*
X016427Y009067D02*
X016502Y009142D01*
X016652Y009142D01*
X016727Y009067D01*
X016427Y008767D01*
X016502Y008692D01*
X016652Y008692D01*
X016727Y008767D01*
X016727Y009067D01*
X016427Y009067D02*
X016427Y008767D01*
X015731Y007142D02*
X015506Y007142D01*
X015506Y006692D01*
X015506Y006842D02*
X015731Y006842D01*
X015806Y006917D01*
X015806Y007067D01*
X015731Y007142D01*
X015071Y006793D02*
X014846Y006567D01*
X015146Y006567D01*
X015071Y006342D02*
X015071Y006793D01*
X014536Y006793D02*
X014536Y006342D01*
X014386Y006342D02*
X014686Y006342D01*
X014386Y006643D02*
X014536Y006793D01*
X014226Y006718D02*
X014226Y006567D01*
X014151Y006492D01*
X013925Y006492D01*
X013925Y006342D02*
X013925Y006793D01*
X014151Y006793D01*
X014226Y006718D01*
X014076Y006492D02*
X014226Y006342D01*
X013375Y006171D02*
X012587Y006171D01*
X012587Y006663D01*
X013375Y006663D01*
X013375Y006171D01*
X014306Y004881D02*
X014756Y004881D01*
X014756Y004731D02*
X014756Y005032D01*
X014456Y004731D02*
X014306Y004881D01*
X014381Y004571D02*
X014681Y004571D01*
X014756Y004496D01*
X014756Y004346D01*
X014681Y004271D01*
X014381Y004271D01*
X014306Y004346D01*
X014306Y004496D01*
X014381Y004571D01*
X014606Y004421D02*
X014756Y004571D01*
X015506Y004692D02*
X015506Y005142D01*
X015731Y005142D01*
X015806Y005067D01*
X015806Y004917D01*
X015731Y004842D01*
X015506Y004842D01*
X015966Y004917D02*
X016267Y004917D01*
X016267Y004992D02*
X016267Y004692D01*
X016427Y004767D02*
X016727Y005067D01*
X016727Y004767D01*
X016652Y004692D01*
X016502Y004692D01*
X016427Y004767D01*
X016427Y005067D01*
X016502Y005142D01*
X016652Y005142D01*
X016727Y005067D01*
X016267Y004992D02*
X016117Y005142D01*
X015966Y004992D01*
X015966Y004692D01*
X015981Y004192D02*
X015981Y003641D01*
X015891Y003491D02*
X015741Y003491D01*
X015666Y003416D01*
X015666Y003116D01*
X015741Y003041D01*
X015891Y003041D01*
X015966Y003116D01*
X016126Y003116D02*
X016126Y003266D01*
X016352Y003266D01*
X016427Y003191D01*
X016427Y003116D01*
X016352Y003041D01*
X016201Y003041D01*
X016126Y003116D01*
X016126Y003266D02*
X016277Y003416D01*
X016427Y003491D01*
X016375Y003671D02*
X015587Y003671D01*
X015587Y004163D01*
X016375Y004163D01*
X016375Y003671D01*
X015966Y003416D02*
X015891Y003491D01*
X015271Y002742D02*
X015046Y002742D01*
X015046Y002292D01*
X015271Y002292D01*
X015346Y002367D01*
X015346Y002667D01*
X015271Y002742D01*
X014886Y002742D02*
X014886Y002292D01*
X014585Y002742D01*
X014585Y002292D01*
X014425Y002367D02*
X014425Y002517D01*
X014275Y002517D01*
X014125Y002667D02*
X014125Y002367D01*
X014200Y002292D01*
X014350Y002292D01*
X014425Y002367D01*
X014425Y002667D02*
X014350Y002742D01*
X014200Y002742D01*
X014125Y002667D01*
X014136Y003342D02*
X014136Y003417D01*
X014436Y003718D01*
X014436Y003793D01*
X014136Y003793D01*
X013976Y003718D02*
X013901Y003793D01*
X013750Y003793D01*
X013675Y003718D01*
X013675Y003417D01*
X013750Y003342D01*
X013901Y003342D01*
X013976Y003417D01*
X013125Y003663D02*
X013125Y003171D01*
X012337Y003171D01*
X012337Y003663D01*
X013125Y003663D01*
X012731Y003692D02*
X012731Y003141D01*
X012768Y002492D02*
X013069Y002492D01*
X012919Y002492D02*
X012919Y002042D01*
X012608Y002042D02*
X012608Y002342D01*
X012458Y002492D01*
X012308Y002342D01*
X012308Y002042D01*
X012148Y002117D02*
X012148Y002192D01*
X012073Y002267D01*
X011848Y002267D01*
X012073Y002267D02*
X012148Y002342D01*
X012148Y002417D01*
X012073Y002492D01*
X011848Y002492D01*
X011848Y002042D01*
X012073Y002042D01*
X012148Y002117D01*
X012308Y002267D02*
X012608Y002267D01*
X011688Y001967D02*
X011387Y001967D01*
X011077Y002042D02*
X011077Y002492D01*
X010927Y002492D02*
X011227Y002492D01*
X010767Y002492D02*
X010466Y002042D01*
X010306Y002042D02*
X010006Y002042D01*
X010006Y002492D01*
X010306Y002492D01*
X010282Y002602D02*
X010357Y002677D01*
X010357Y002827D01*
X010282Y002902D01*
X010282Y003062D02*
X010357Y003137D01*
X010357Y003287D01*
X010282Y003362D01*
X009981Y003362D01*
X009906Y003287D01*
X009906Y003137D01*
X009981Y003062D01*
X010056Y003062D01*
X010132Y003137D01*
X010132Y003362D01*
X010211Y003592D02*
X010136Y003667D01*
X010136Y003742D01*
X010211Y003817D01*
X010361Y003817D01*
X010436Y003742D01*
X010436Y003667D01*
X010361Y003592D01*
X010211Y003592D01*
X010211Y003817D02*
X010136Y003893D01*
X010136Y003968D01*
X010211Y004043D01*
X010361Y004043D01*
X010436Y003968D01*
X010436Y003893D01*
X010361Y003817D01*
X009976Y003667D02*
X009901Y003592D01*
X009750Y003592D01*
X009675Y003667D01*
X009675Y003968D01*
X009750Y004043D01*
X009901Y004043D01*
X009976Y003968D01*
X009727Y003310D02*
X009235Y003310D01*
X009235Y002523D01*
X009727Y002523D01*
X009727Y003310D01*
X009757Y002917D02*
X009206Y002917D01*
X008706Y003296D02*
X008706Y003446D01*
X008631Y003521D01*
X008331Y003521D01*
X008256Y003446D01*
X008256Y003296D01*
X008331Y003221D01*
X008631Y003221D01*
X008706Y003296D01*
X008556Y003371D02*
X008706Y003521D01*
X008706Y003681D02*
X008406Y003982D01*
X008331Y003982D01*
X008256Y003906D01*
X008256Y003756D01*
X008331Y003681D01*
X008706Y003681D02*
X008706Y003982D01*
X007727Y003310D02*
X007727Y002523D01*
X007235Y002523D01*
X007235Y003310D01*
X007727Y003310D01*
X007757Y002917D02*
X007206Y002917D01*
X006846Y002567D02*
X006846Y002417D01*
X006771Y002342D01*
X006546Y002342D01*
X006696Y002342D02*
X006846Y002192D01*
X006546Y002192D02*
X006546Y002642D01*
X006771Y002642D01*
X006846Y002567D01*
X006771Y003192D02*
X006846Y003267D01*
X006846Y003417D01*
X006696Y003417D01*
X006846Y003567D02*
X006771Y003642D01*
X006621Y003642D01*
X006546Y003567D01*
X006546Y003267D01*
X006621Y003192D01*
X006771Y003192D01*
X006771Y004192D02*
X006546Y004192D01*
X006546Y004642D01*
X006771Y004642D01*
X006846Y004567D01*
X006846Y004492D01*
X006771Y004417D01*
X006546Y004417D01*
X006771Y004417D02*
X006846Y004342D01*
X006846Y004267D01*
X006771Y004192D01*
X005357Y005352D02*
X004906Y005352D01*
X004906Y005577D01*
X004981Y005652D01*
X005132Y005652D01*
X005207Y005577D01*
X005207Y005352D01*
X005207Y005502D02*
X005357Y005652D01*
X005282Y005812D02*
X005207Y005812D01*
X005132Y005887D01*
X005132Y006037D01*
X005207Y006112D01*
X005282Y006112D01*
X005357Y006037D01*
X005357Y005887D01*
X005282Y005812D01*
X005132Y005887D02*
X005056Y005812D01*
X004981Y005812D01*
X004906Y005887D01*
X004906Y006037D01*
X004981Y006112D01*
X005056Y006112D01*
X005132Y006037D01*
X005207Y006602D02*
X005207Y006827D01*
X005132Y006902D01*
X004981Y006902D01*
X004906Y006827D01*
X004906Y006602D01*
X005357Y006602D01*
X005207Y006752D02*
X005357Y006902D01*
X005282Y007062D02*
X005357Y007137D01*
X005357Y007287D01*
X005282Y007362D01*
X004981Y007362D01*
X004906Y007287D01*
X004906Y007137D01*
X004981Y007062D01*
X005056Y007062D01*
X005132Y007137D01*
X005132Y007362D01*
X004875Y007671D02*
X004087Y007671D01*
X004087Y008163D01*
X004875Y008163D01*
X004875Y007671D01*
X005206Y008041D02*
X005206Y008491D01*
X005431Y008491D01*
X005506Y008416D01*
X005506Y008266D01*
X005431Y008191D01*
X005206Y008191D01*
X005356Y008191D02*
X005506Y008041D01*
X005666Y008041D02*
X005966Y008041D01*
X005816Y008041D02*
X005816Y008491D01*
X005666Y008341D01*
X006126Y008416D02*
X006126Y008116D01*
X006427Y008416D01*
X006427Y008116D01*
X006352Y008041D01*
X006201Y008041D01*
X006126Y008116D01*
X006126Y008416D02*
X006201Y008491D01*
X006352Y008491D01*
X006427Y008416D01*
X006126Y009341D02*
X006277Y009491D01*
X006188Y010767D02*
X006188Y010842D01*
X006112Y010917D01*
X006112Y011692D02*
X005887Y011692D01*
X005887Y012142D01*
X006112Y012142D01*
X006188Y012067D01*
X006188Y011992D01*
X006112Y011917D01*
X005887Y011917D01*
X006112Y011917D02*
X006188Y011842D01*
X006188Y011767D01*
X006112Y011692D01*
X006348Y011692D02*
X006348Y011767D01*
X006648Y012067D01*
X006648Y012142D01*
X006348Y012142D01*
X007301Y014412D02*
X007226Y014487D01*
X007301Y014412D02*
X007451Y014412D01*
X007526Y014487D01*
X007526Y014562D01*
X007451Y014637D01*
X007301Y014637D01*
X007226Y014712D01*
X007226Y014787D01*
X007301Y014862D01*
X007451Y014862D01*
X007526Y014787D01*
X007686Y014862D02*
X007686Y014412D01*
X007837Y014562D01*
X007987Y014412D01*
X007987Y014862D01*
X008147Y014862D02*
X008372Y014862D01*
X008447Y014787D01*
X008447Y014487D01*
X008372Y014412D01*
X008147Y014412D01*
X008147Y014862D01*
X003287Y010142D02*
X003287Y009692D01*
X003216Y009586D02*
X003216Y007736D01*
X002251Y007736D01*
X002251Y009586D01*
X003216Y009586D01*
X003137Y009692D02*
X003438Y009692D01*
X003137Y009992D02*
X003287Y010142D01*
X002977Y010067D02*
X002977Y009767D01*
X002902Y009692D01*
X002677Y009692D01*
X002677Y010142D01*
X002902Y010142D01*
X002977Y010067D01*
X002517Y010142D02*
X002216Y010142D01*
X002216Y009692D01*
X002517Y009692D01*
X002367Y009917D02*
X002216Y009917D01*
X002056Y009692D02*
X001756Y009692D01*
X001756Y010142D01*
X004087Y009163D02*
X004087Y008671D01*
X004875Y008671D01*
X004875Y009163D01*
X004087Y009163D01*
X003631Y007742D02*
X003556Y007742D01*
X003481Y007667D01*
X003481Y007442D01*
X003481Y007667D02*
X003406Y007742D01*
X003331Y007742D01*
X003256Y007667D01*
X003256Y007442D01*
X003706Y007442D01*
X003706Y007667D01*
X003631Y007742D01*
X003587Y007163D02*
X004375Y007163D01*
X004375Y006671D01*
X003587Y006671D01*
X003587Y007163D01*
X003381Y006492D02*
X003231Y006492D01*
X003231Y006342D01*
X003381Y006492D02*
X003456Y006417D01*
X003456Y006267D01*
X003381Y006192D01*
X003081Y006192D01*
X003006Y006267D01*
X003006Y006417D01*
X003081Y006492D01*
X003587Y006163D02*
X004375Y006163D01*
X004375Y005671D01*
X003587Y005671D01*
X003587Y006163D01*
X003587Y005163D02*
X004375Y005163D01*
X004375Y004671D01*
X003587Y004671D01*
X003587Y005163D01*
X003666Y004491D02*
X003891Y004491D01*
X003966Y004416D01*
X003966Y004266D01*
X003891Y004191D01*
X003666Y004191D01*
X003666Y004041D02*
X003666Y004491D01*
X003816Y004191D02*
X003966Y004041D01*
X004126Y004041D02*
X004126Y004116D01*
X004427Y004416D01*
X004427Y004491D01*
X004126Y004491D01*
X003206Y004492D02*
X003056Y004342D01*
X003056Y004417D02*
X003056Y004192D01*
X003206Y004192D02*
X002756Y004192D01*
X002756Y004417D01*
X002831Y004492D01*
X002981Y004492D01*
X003056Y004417D01*
X003042Y002942D02*
X002966Y002867D01*
X003042Y002942D02*
X003192Y002942D01*
X003267Y002867D01*
X003267Y002792D01*
X002966Y002492D01*
X003267Y002492D01*
X002806Y002567D02*
X002731Y002492D01*
X002581Y002492D01*
X002506Y002567D01*
X002581Y002717D02*
X002506Y002792D01*
X002506Y002867D01*
X002581Y002942D01*
X002731Y002942D01*
X002806Y002867D01*
X002731Y002717D02*
X002806Y002642D01*
X002806Y002567D01*
X002731Y002717D02*
X002581Y002717D01*
X004856Y002667D02*
X004856Y002517D01*
X004931Y002442D01*
X005006Y002442D01*
X005081Y002517D01*
X005081Y002667D01*
X005156Y002742D01*
X005231Y002742D01*
X005306Y002667D01*
X005306Y002517D01*
X005231Y002442D01*
X004931Y002742D02*
X004856Y002667D01*
X004856Y002902D02*
X005156Y002902D01*
X005306Y003052D01*
X005156Y003202D01*
X004856Y003202D01*
X005006Y003362D02*
X004856Y003513D01*
X005306Y003513D01*
X005306Y003663D02*
X005306Y003362D01*
X006750Y001793D02*
X006675Y001718D01*
X006675Y001417D01*
X006750Y001342D01*
X006901Y001342D01*
X006976Y001417D01*
X007136Y001342D02*
X007436Y001342D01*
X007286Y001342D02*
X007286Y001793D01*
X007136Y001643D01*
X006976Y001718D02*
X006901Y001793D01*
X006750Y001793D01*
X007596Y001718D02*
X007596Y001417D01*
X007896Y001718D01*
X007896Y001417D01*
X007821Y001342D01*
X007671Y001342D01*
X007596Y001417D01*
X007596Y001718D02*
X007671Y001793D01*
X007821Y001793D01*
X007896Y001718D01*
X010006Y002267D02*
X010156Y002267D01*
X010282Y002602D02*
X009981Y002602D01*
X009906Y002677D01*
X009906Y002827D01*
X009981Y002902D01*
X010466Y002492D02*
X010767Y002042D01*
X010837Y003171D02*
X011625Y003171D01*
X011625Y003663D01*
X010837Y003663D01*
X010837Y003171D01*
X011231Y003141D02*
X011231Y003692D01*
X011375Y006171D02*
X010587Y006171D01*
X010587Y006663D01*
X011375Y006663D01*
X011375Y006171D01*
X010177Y006366D02*
X010102Y006291D01*
X009951Y006291D01*
X009876Y006366D01*
X009876Y006516D02*
X010027Y006591D01*
X010102Y006591D01*
X010177Y006516D01*
X010177Y006366D01*
X009876Y006516D02*
X009876Y006741D01*
X010177Y006741D01*
X009716Y006291D02*
X009416Y006291D01*
X009566Y006291D02*
X009566Y006741D01*
X009416Y006591D01*
X009256Y006666D02*
X009256Y006516D01*
X009181Y006441D01*
X008956Y006441D01*
X009106Y006441D02*
X009256Y006291D01*
X008956Y006291D02*
X008956Y006741D01*
X009181Y006741D01*
X009256Y006666D01*
X008556Y006067D02*
X008256Y005767D01*
X008331Y005692D01*
X008481Y005692D01*
X008556Y005767D01*
X008556Y006067D01*
X008481Y006142D01*
X008331Y006142D01*
X008256Y006067D01*
X008256Y005767D01*
X017348Y005142D02*
X017348Y004692D01*
X017348Y004842D02*
X017573Y004842D01*
X017648Y004917D01*
X017648Y005067D01*
X017573Y005142D01*
X017348Y005142D01*
X017808Y004992D02*
X017958Y005142D01*
X018108Y004992D01*
X018108Y004692D01*
X018156Y004627D02*
X018156Y004477D01*
X018231Y004402D01*
X018156Y004242D02*
X018156Y004092D01*
X018156Y004167D02*
X018531Y004167D01*
X018606Y004092D01*
X018606Y004017D01*
X018531Y003942D01*
X018606Y004402D02*
X018306Y004702D01*
X018231Y004702D01*
X018156Y004627D01*
X018268Y004692D02*
X018569Y004692D01*
X018606Y004702D02*
X018606Y004402D01*
X018419Y004692D02*
X018419Y005142D01*
X018268Y004992D01*
X018108Y004917D02*
X017808Y004917D01*
X017808Y004992D02*
X017808Y004692D01*
X019331Y002942D02*
X019256Y002867D01*
X019256Y002792D01*
X019331Y002717D01*
X019481Y002717D01*
X019556Y002642D01*
X019556Y002567D01*
X019481Y002492D01*
X019331Y002492D01*
X019256Y002567D01*
X019331Y002942D02*
X019481Y002942D01*
X019556Y002867D01*
X019716Y002792D02*
X019867Y002942D01*
X019867Y002492D01*
X020017Y002492D02*
X019716Y002492D01*
D12*
X019681Y002417D02*
X020081Y002417D01*
X020231Y002417D02*
X020381Y002417D01*
X020331Y002167D02*
X020481Y002667D01*
X020481Y002917D01*
X019981Y003417D02*
X018981Y003417D01*
X018481Y002917D02*
X018481Y002667D01*
X018331Y002167D01*
X018481Y002167D02*
X018481Y001917D01*
X018981Y001417D02*
X019981Y001417D01*
X020481Y001917D02*
X020481Y002167D01*
X019531Y002417D02*
X019131Y002417D01*
X018981Y002417D02*
X018581Y002417D01*
X017701Y002374D02*
X017488Y002160D01*
X017488Y002267D02*
X017488Y001947D01*
X017701Y001947D02*
X017061Y001947D01*
X017061Y002267D01*
X017167Y002374D01*
X017381Y002374D01*
X017488Y002267D01*
X017381Y002591D02*
X017274Y002698D01*
X017274Y003018D01*
X017274Y003236D02*
X017274Y003449D01*
X017167Y003343D02*
X017594Y003343D01*
X017701Y003449D01*
X017981Y003767D02*
X018131Y003917D01*
X020831Y003917D01*
X020981Y003767D01*
X020981Y001067D01*
X020831Y000917D01*
X018131Y000917D01*
X017981Y001067D01*
X017981Y003767D01*
X017594Y003018D02*
X017488Y002911D01*
X017488Y002698D01*
X017381Y002591D01*
X017701Y002591D02*
X017701Y002911D01*
X017594Y003018D01*
X016481Y001917D02*
X015581Y001917D01*
X015481Y001817D01*
X015381Y001917D01*
X014581Y001917D01*
X014481Y001817D01*
X014381Y001917D01*
X013581Y001917D01*
X013481Y001817D01*
X013381Y001917D01*
X012481Y001917D01*
X012481Y000917D01*
X013381Y000917D01*
X013481Y001017D01*
X013581Y000917D01*
X014381Y000917D01*
X014481Y001017D01*
X014581Y000917D01*
X015381Y000917D01*
X015481Y001017D01*
X015581Y000917D01*
X016481Y000917D01*
X016481Y001917D01*
X016181Y001617D02*
X016081Y001617D01*
X016081Y001717D01*
X015881Y001717D01*
X015881Y001617D01*
X015781Y001617D01*
X015781Y001217D01*
X015881Y001217D01*
X015881Y001117D01*
X016081Y001117D01*
X016081Y001217D01*
X016181Y001217D01*
X016181Y001617D01*
X015181Y001617D02*
X015181Y001217D01*
X015081Y001217D01*
X015081Y001117D01*
X014881Y001117D01*
X014881Y001217D01*
X014781Y001217D01*
X014781Y001617D01*
X014881Y001617D01*
X014881Y001717D01*
X015081Y001717D01*
X015081Y001617D01*
X015181Y001617D01*
X014181Y001617D02*
X014181Y001217D01*
X014081Y001217D01*
X014081Y001117D01*
X013881Y001117D01*
X013881Y001217D01*
X013781Y001217D01*
X013781Y001617D01*
X013881Y001617D01*
X013881Y001717D01*
X014081Y001717D01*
X014081Y001617D01*
X014181Y001617D01*
X013181Y001617D02*
X013181Y001217D01*
X013081Y001217D01*
X013081Y001117D01*
X012881Y001117D01*
X012881Y001217D01*
X012781Y001217D01*
X012781Y001617D01*
X012881Y001617D01*
X012881Y001717D01*
X013081Y001717D01*
X013081Y001617D01*
X013181Y001617D01*
X011938Y001517D02*
X011511Y001517D01*
X011725Y001730D02*
X011725Y001303D01*
X011481Y000917D02*
X011481Y001917D01*
X010581Y001917D01*
X010481Y001817D01*
X010381Y001917D01*
X009481Y001917D01*
X009481Y000917D01*
X010381Y000917D01*
X010481Y001017D01*
X010581Y000917D01*
X011481Y000917D01*
X011181Y001217D02*
X011181Y001617D01*
X011081Y001617D01*
X011081Y001717D01*
X010881Y001717D01*
X010881Y001617D01*
X010781Y001617D01*
X010781Y001217D01*
X010881Y001217D01*
X010881Y001117D01*
X011081Y001117D01*
X011081Y001217D01*
X011181Y001217D01*
X010181Y001217D02*
X010181Y001617D01*
X010081Y001617D01*
X010081Y001717D01*
X009881Y001717D01*
X009881Y001617D01*
X009781Y001617D01*
X009781Y001217D01*
X009881Y001217D01*
X009881Y001117D01*
X010081Y001117D01*
X010081Y001217D01*
X010181Y001217D01*
X009081Y001117D02*
X009081Y004117D01*
X009031Y004117D01*
X007931Y004117D01*
X007881Y004117D01*
X007881Y001117D01*
X007883Y001100D01*
X007887Y001083D01*
X007894Y001067D01*
X007904Y001053D01*
X007917Y001040D01*
X007931Y001030D01*
X007947Y001023D01*
X007964Y001019D01*
X007981Y001017D01*
X008981Y001017D01*
X008998Y001019D01*
X009015Y001023D01*
X009031Y001030D01*
X009045Y001040D01*
X009058Y001053D01*
X009068Y001067D01*
X009075Y001083D01*
X009079Y001100D01*
X009081Y001117D01*
X008481Y002367D02*
X008481Y002567D01*
X008181Y002567D01*
X008181Y002717D02*
X008781Y002717D01*
X008781Y002867D01*
X008181Y002867D01*
X008181Y002717D01*
X008481Y002567D02*
X008781Y002567D01*
X008781Y003017D02*
X008481Y003017D01*
X008181Y003017D01*
X008481Y003017D02*
X008481Y003217D01*
X007931Y004117D02*
X007931Y004267D01*
X009031Y004267D01*
X009031Y004117D01*
X008731Y004667D02*
X008981Y004917D01*
X008231Y004667D02*
X007981Y004917D01*
X007731Y005417D02*
X007231Y005417D01*
X006981Y005667D01*
X006981Y006167D01*
X007231Y006417D01*
X006981Y006667D01*
X006981Y007167D01*
X007231Y007417D01*
X006981Y007667D01*
X006981Y008167D01*
X007231Y008417D01*
X007731Y008417D01*
X007981Y008167D01*
X007981Y007667D01*
X007731Y007417D01*
X007981Y007167D01*
X007981Y006667D01*
X007731Y006417D01*
X007981Y006167D01*
X007981Y005667D01*
X007731Y005417D01*
X007731Y006417D02*
X007231Y006417D01*
X006481Y006017D02*
X006481Y006817D01*
X006381Y006917D01*
X006481Y007017D01*
X006481Y007917D01*
X005481Y007917D01*
X005481Y007017D01*
X005581Y006917D01*
X005481Y006817D01*
X005481Y006017D01*
X005581Y005917D01*
X005481Y005817D01*
X005481Y005017D01*
X005581Y004917D01*
X005481Y004817D01*
X005481Y004017D01*
X005581Y003917D01*
X005481Y003817D01*
X005481Y003017D01*
X005581Y002917D01*
X005481Y002817D01*
X005481Y002017D01*
X005581Y001917D01*
X005481Y001817D01*
X005481Y000917D01*
X006481Y000917D01*
X006481Y001817D01*
X006381Y001917D01*
X006481Y002017D01*
X006481Y002817D01*
X006381Y002917D01*
X006481Y003017D01*
X006481Y003817D01*
X006381Y003917D01*
X006481Y004017D01*
X006481Y004817D01*
X006381Y004917D01*
X006481Y005017D01*
X006481Y005817D01*
X006381Y005917D01*
X006481Y006017D01*
X006281Y006317D02*
X006281Y006517D01*
X006181Y006517D01*
X006181Y006617D01*
X005781Y006617D01*
X005781Y006517D01*
X005681Y006517D01*
X005681Y006317D01*
X005781Y006317D01*
X005781Y006217D01*
X006181Y006217D01*
X006181Y006317D01*
X006281Y006317D01*
X006181Y005617D02*
X005781Y005617D01*
X005781Y005517D01*
X005681Y005517D01*
X005681Y005317D01*
X005781Y005317D01*
X005781Y005217D01*
X006181Y005217D01*
X006181Y005317D01*
X006281Y005317D01*
X006281Y005517D01*
X006181Y005517D01*
X006181Y005617D01*
X006181Y004617D02*
X005781Y004617D01*
X005781Y004517D01*
X005681Y004517D01*
X005681Y004317D01*
X005781Y004317D01*
X005781Y004217D01*
X006181Y004217D01*
X006181Y004317D01*
X006281Y004317D01*
X006281Y004517D01*
X006181Y004517D01*
X006181Y004617D01*
X006181Y003617D02*
X005781Y003617D01*
X005781Y003517D01*
X005681Y003517D01*
X005681Y003317D01*
X005781Y003317D01*
X005781Y003217D01*
X006181Y003217D01*
X006181Y003317D01*
X006281Y003317D01*
X006281Y003517D01*
X006181Y003517D01*
X006181Y003617D01*
X006181Y002617D02*
X005781Y002617D01*
X005781Y002517D01*
X005681Y002517D01*
X005681Y002317D01*
X005781Y002317D01*
X005781Y002217D01*
X006181Y002217D01*
X006181Y002317D01*
X006281Y002317D01*
X006281Y002517D01*
X006181Y002517D01*
X006181Y002617D01*
X004481Y003767D02*
X004481Y001067D01*
X004331Y000917D01*
X001631Y000917D01*
X001481Y001067D01*
X001481Y003767D01*
X001631Y003917D01*
X004331Y003917D01*
X004481Y003767D01*
X003981Y002917D02*
X003981Y002667D01*
X004131Y002667D02*
X003981Y002167D01*
X003981Y001917D01*
X003481Y001417D02*
X002481Y001417D01*
X001981Y001917D02*
X001981Y002167D01*
X002131Y002667D01*
X001981Y002667D02*
X001981Y002917D01*
X002081Y002417D02*
X002231Y002417D01*
X002381Y002417D02*
X002781Y002417D01*
X002931Y002417D02*
X003331Y002417D01*
X003481Y002417D02*
X003881Y002417D01*
X003481Y003417D02*
X002481Y003417D01*
X005781Y007217D02*
X006181Y007217D01*
X006181Y007317D01*
X006281Y007317D01*
X006281Y007517D01*
X006181Y007517D01*
X006181Y007617D01*
X005781Y007617D01*
X005781Y007517D01*
X005681Y007517D01*
X005681Y007317D01*
X005781Y007317D01*
X005781Y007217D01*
X007231Y007417D02*
X007731Y007417D01*
X009231Y007667D02*
X009231Y008167D01*
X009481Y008417D01*
X009231Y008667D01*
X009231Y009167D01*
X009481Y009417D01*
X009981Y009417D01*
X010231Y009167D01*
X010231Y008667D01*
X009981Y008417D01*
X010231Y008167D01*
X010231Y007667D01*
X009981Y007417D01*
X009481Y007417D01*
X009231Y007667D01*
X009481Y008417D02*
X009981Y008417D01*
X010781Y005567D02*
X013181Y005567D01*
X013231Y005565D01*
X013280Y005559D01*
X013329Y005550D01*
X013377Y005537D01*
X013424Y005520D01*
X013469Y005500D01*
X013513Y005476D01*
X013555Y005449D01*
X013595Y005418D01*
X013632Y005385D01*
X013666Y005349D01*
X013698Y005311D01*
X013727Y005270D01*
X013752Y005228D01*
X013774Y005183D01*
X013793Y005137D01*
X013808Y005089D01*
X013819Y005041D01*
X013827Y004992D01*
X013831Y004942D01*
X013831Y004892D01*
X013827Y004842D01*
X013819Y004793D01*
X013808Y004745D01*
X013793Y004697D01*
X013774Y004651D01*
X013752Y004606D01*
X013727Y004564D01*
X013698Y004523D01*
X013666Y004485D01*
X013632Y004449D01*
X013595Y004416D01*
X013555Y004385D01*
X013513Y004358D01*
X013469Y004334D01*
X013424Y004314D01*
X013377Y004297D01*
X013329Y004284D01*
X013280Y004275D01*
X013231Y004269D01*
X013181Y004267D01*
X010781Y004267D01*
X010731Y004269D01*
X010682Y004275D01*
X010633Y004284D01*
X010585Y004297D01*
X010538Y004314D01*
X010493Y004334D01*
X010449Y004358D01*
X010407Y004385D01*
X010367Y004416D01*
X010330Y004449D01*
X010296Y004485D01*
X010264Y004523D01*
X010235Y004564D01*
X010210Y004606D01*
X010188Y004651D01*
X010169Y004697D01*
X010154Y004745D01*
X010143Y004793D01*
X010135Y004842D01*
X010131Y004892D01*
X010131Y004942D01*
X010135Y004992D01*
X010143Y005041D01*
X010154Y005089D01*
X010169Y005137D01*
X010188Y005183D01*
X010210Y005228D01*
X010235Y005270D01*
X010264Y005311D01*
X010296Y005349D01*
X010330Y005385D01*
X010367Y005418D01*
X010407Y005449D01*
X010449Y005476D01*
X010493Y005500D01*
X010538Y005520D01*
X010585Y005537D01*
X010633Y005550D01*
X010682Y005559D01*
X010731Y005565D01*
X010781Y005567D01*
X011481Y004917D02*
X011731Y004917D01*
X011731Y005217D01*
X011881Y005217D02*
X012081Y005217D01*
X012081Y004617D01*
X011881Y004617D01*
X011881Y005217D01*
X011731Y004917D02*
X011731Y004617D01*
X012231Y004617D02*
X012231Y004917D01*
X012481Y004917D01*
X012231Y004917D02*
X012231Y005217D01*
X018781Y004667D02*
X018781Y009167D01*
X018783Y009197D01*
X018788Y009227D01*
X018797Y009256D01*
X018810Y009283D01*
X018825Y009309D01*
X018844Y009333D01*
X018865Y009354D01*
X018889Y009373D01*
X018915Y009388D01*
X018942Y009401D01*
X018971Y009410D01*
X019001Y009415D01*
X019031Y009417D01*
X020931Y009417D01*
X020961Y009415D01*
X020991Y009410D01*
X021020Y009401D01*
X021047Y009388D01*
X021073Y009373D01*
X021097Y009354D01*
X021118Y009333D01*
X021137Y009309D01*
X021152Y009283D01*
X021165Y009256D01*
X021174Y009227D01*
X021179Y009197D01*
X021181Y009167D01*
X021181Y004667D01*
X021179Y004637D01*
X021174Y004607D01*
X021165Y004578D01*
X021152Y004551D01*
X021137Y004525D01*
X021118Y004501D01*
X021097Y004480D01*
X021073Y004461D01*
X021047Y004446D01*
X021020Y004433D01*
X020991Y004424D01*
X020961Y004419D01*
X020931Y004417D01*
X019031Y004417D01*
X019001Y004419D01*
X018971Y004424D01*
X018942Y004433D01*
X018915Y004446D01*
X018889Y004461D01*
X018865Y004480D01*
X018844Y004501D01*
X018825Y004525D01*
X018810Y004551D01*
X018797Y004578D01*
X018788Y004607D01*
X018783Y004637D01*
X018781Y004667D01*
X019131Y004917D02*
X019133Y004954D01*
X019139Y004991D01*
X019149Y005027D01*
X019162Y005062D01*
X019179Y005095D01*
X019200Y005126D01*
X019224Y005154D01*
X019251Y005180D01*
X019280Y005203D01*
X019311Y005223D01*
X019345Y005239D01*
X019380Y005252D01*
X019416Y005261D01*
X019453Y005266D01*
X019490Y005267D01*
X019527Y005264D01*
X019564Y005257D01*
X019600Y005246D01*
X019634Y005232D01*
X019667Y005214D01*
X019697Y005192D01*
X019725Y005168D01*
X019750Y005140D01*
X019773Y005110D01*
X019792Y005078D01*
X019807Y005044D01*
X019819Y005009D01*
X019827Y004973D01*
X019831Y004936D01*
X019831Y004898D01*
X019827Y004861D01*
X019819Y004825D01*
X019807Y004790D01*
X019792Y004756D01*
X019773Y004724D01*
X019750Y004694D01*
X019725Y004666D01*
X019697Y004642D01*
X019667Y004620D01*
X019634Y004602D01*
X019600Y004588D01*
X019564Y004577D01*
X019527Y004570D01*
X019490Y004567D01*
X019453Y004568D01*
X019416Y004573D01*
X019380Y004582D01*
X019345Y004595D01*
X019311Y004611D01*
X019280Y004631D01*
X019251Y004654D01*
X019224Y004680D01*
X019200Y004708D01*
X019179Y004739D01*
X019162Y004772D01*
X019149Y004807D01*
X019139Y004843D01*
X019133Y004880D01*
X019131Y004917D01*
X019131Y005917D02*
X019133Y005954D01*
X019139Y005991D01*
X019149Y006027D01*
X019162Y006062D01*
X019179Y006095D01*
X019200Y006126D01*
X019224Y006154D01*
X019251Y006180D01*
X019280Y006203D01*
X019311Y006223D01*
X019345Y006239D01*
X019380Y006252D01*
X019416Y006261D01*
X019453Y006266D01*
X019490Y006267D01*
X019527Y006264D01*
X019564Y006257D01*
X019600Y006246D01*
X019634Y006232D01*
X019667Y006214D01*
X019697Y006192D01*
X019725Y006168D01*
X019750Y006140D01*
X019773Y006110D01*
X019792Y006078D01*
X019807Y006044D01*
X019819Y006009D01*
X019827Y005973D01*
X019831Y005936D01*
X019831Y005898D01*
X019827Y005861D01*
X019819Y005825D01*
X019807Y005790D01*
X019792Y005756D01*
X019773Y005724D01*
X019750Y005694D01*
X019725Y005666D01*
X019697Y005642D01*
X019667Y005620D01*
X019634Y005602D01*
X019600Y005588D01*
X019564Y005577D01*
X019527Y005570D01*
X019490Y005567D01*
X019453Y005568D01*
X019416Y005573D01*
X019380Y005582D01*
X019345Y005595D01*
X019311Y005611D01*
X019280Y005631D01*
X019251Y005654D01*
X019224Y005680D01*
X019200Y005708D01*
X019179Y005739D01*
X019162Y005772D01*
X019149Y005807D01*
X019139Y005843D01*
X019133Y005880D01*
X019131Y005917D01*
X019131Y006917D02*
X019133Y006954D01*
X019139Y006991D01*
X019149Y007027D01*
X019162Y007062D01*
X019179Y007095D01*
X019200Y007126D01*
X019224Y007154D01*
X019251Y007180D01*
X019280Y007203D01*
X019311Y007223D01*
X019345Y007239D01*
X019380Y007252D01*
X019416Y007261D01*
X019453Y007266D01*
X019490Y007267D01*
X019527Y007264D01*
X019564Y007257D01*
X019600Y007246D01*
X019634Y007232D01*
X019667Y007214D01*
X019697Y007192D01*
X019725Y007168D01*
X019750Y007140D01*
X019773Y007110D01*
X019792Y007078D01*
X019807Y007044D01*
X019819Y007009D01*
X019827Y006973D01*
X019831Y006936D01*
X019831Y006898D01*
X019827Y006861D01*
X019819Y006825D01*
X019807Y006790D01*
X019792Y006756D01*
X019773Y006724D01*
X019750Y006694D01*
X019725Y006666D01*
X019697Y006642D01*
X019667Y006620D01*
X019634Y006602D01*
X019600Y006588D01*
X019564Y006577D01*
X019527Y006570D01*
X019490Y006567D01*
X019453Y006568D01*
X019416Y006573D01*
X019380Y006582D01*
X019345Y006595D01*
X019311Y006611D01*
X019280Y006631D01*
X019251Y006654D01*
X019224Y006680D01*
X019200Y006708D01*
X019179Y006739D01*
X019162Y006772D01*
X019149Y006807D01*
X019139Y006843D01*
X019133Y006880D01*
X019131Y006917D01*
X019131Y007917D02*
X019133Y007954D01*
X019139Y007991D01*
X019149Y008027D01*
X019162Y008062D01*
X019179Y008095D01*
X019200Y008126D01*
X019224Y008154D01*
X019251Y008180D01*
X019280Y008203D01*
X019311Y008223D01*
X019345Y008239D01*
X019380Y008252D01*
X019416Y008261D01*
X019453Y008266D01*
X019490Y008267D01*
X019527Y008264D01*
X019564Y008257D01*
X019600Y008246D01*
X019634Y008232D01*
X019667Y008214D01*
X019697Y008192D01*
X019725Y008168D01*
X019750Y008140D01*
X019773Y008110D01*
X019792Y008078D01*
X019807Y008044D01*
X019819Y008009D01*
X019827Y007973D01*
X019831Y007936D01*
X019831Y007898D01*
X019827Y007861D01*
X019819Y007825D01*
X019807Y007790D01*
X019792Y007756D01*
X019773Y007724D01*
X019750Y007694D01*
X019725Y007666D01*
X019697Y007642D01*
X019667Y007620D01*
X019634Y007602D01*
X019600Y007588D01*
X019564Y007577D01*
X019527Y007570D01*
X019490Y007567D01*
X019453Y007568D01*
X019416Y007573D01*
X019380Y007582D01*
X019345Y007595D01*
X019311Y007611D01*
X019280Y007631D01*
X019251Y007654D01*
X019224Y007680D01*
X019200Y007708D01*
X019179Y007739D01*
X019162Y007772D01*
X019149Y007807D01*
X019139Y007843D01*
X019133Y007880D01*
X019131Y007917D01*
X019131Y008917D02*
X019133Y008954D01*
X019139Y008991D01*
X019149Y009027D01*
X019162Y009062D01*
X019179Y009095D01*
X019200Y009126D01*
X019224Y009154D01*
X019251Y009180D01*
X019280Y009203D01*
X019311Y009223D01*
X019345Y009239D01*
X019380Y009252D01*
X019416Y009261D01*
X019453Y009266D01*
X019490Y009267D01*
X019527Y009264D01*
X019564Y009257D01*
X019600Y009246D01*
X019634Y009232D01*
X019667Y009214D01*
X019697Y009192D01*
X019725Y009168D01*
X019750Y009140D01*
X019773Y009110D01*
X019792Y009078D01*
X019807Y009044D01*
X019819Y009009D01*
X019827Y008973D01*
X019831Y008936D01*
X019831Y008898D01*
X019827Y008861D01*
X019819Y008825D01*
X019807Y008790D01*
X019792Y008756D01*
X019773Y008724D01*
X019750Y008694D01*
X019725Y008666D01*
X019697Y008642D01*
X019667Y008620D01*
X019634Y008602D01*
X019600Y008588D01*
X019564Y008577D01*
X019527Y008570D01*
X019490Y008567D01*
X019453Y008568D01*
X019416Y008573D01*
X019380Y008582D01*
X019345Y008595D01*
X019311Y008611D01*
X019280Y008631D01*
X019251Y008654D01*
X019224Y008680D01*
X019200Y008708D01*
X019179Y008739D01*
X019162Y008772D01*
X019149Y008807D01*
X019139Y008843D01*
X019133Y008880D01*
X019131Y008917D01*
X020231Y009917D02*
X019981Y010167D01*
X019981Y010667D01*
X020231Y010917D01*
X019981Y011167D01*
X019981Y011667D01*
X020231Y011917D01*
X019981Y012167D01*
X019981Y012667D01*
X020231Y012917D01*
X020731Y012917D01*
X020981Y012667D01*
X020981Y012167D01*
X020731Y011917D01*
X020981Y011667D01*
X020981Y011167D01*
X020731Y010917D01*
X020981Y010667D01*
X020981Y010167D01*
X020731Y009917D01*
X020231Y009917D01*
X020231Y010917D02*
X020731Y010917D01*
X020731Y011917D02*
X020231Y011917D01*
X020731Y014717D02*
X016231Y014717D01*
X016201Y014719D01*
X016171Y014724D01*
X016142Y014733D01*
X016115Y014746D01*
X016089Y014761D01*
X016065Y014780D01*
X016044Y014801D01*
X016025Y014825D01*
X016010Y014851D01*
X015997Y014878D01*
X015988Y014907D01*
X015983Y014937D01*
X015981Y014967D01*
X015981Y016867D01*
X015983Y016897D01*
X015988Y016927D01*
X015997Y016956D01*
X016010Y016983D01*
X016025Y017009D01*
X016044Y017033D01*
X016065Y017054D01*
X016089Y017073D01*
X016115Y017088D01*
X016142Y017101D01*
X016171Y017110D01*
X016201Y017115D01*
X016231Y017117D01*
X020731Y017117D01*
X020761Y017115D01*
X020791Y017110D01*
X020820Y017101D01*
X020847Y017088D01*
X020873Y017073D01*
X020897Y017054D01*
X020918Y017033D01*
X020937Y017009D01*
X020952Y016983D01*
X020965Y016956D01*
X020974Y016927D01*
X020979Y016897D01*
X020981Y016867D01*
X020981Y014967D01*
X020979Y014937D01*
X020974Y014907D01*
X020965Y014878D01*
X020952Y014851D01*
X020937Y014825D01*
X020918Y014801D01*
X020897Y014780D01*
X020873Y014761D01*
X020847Y014746D01*
X020820Y014733D01*
X020791Y014724D01*
X020761Y014719D01*
X020731Y014717D01*
X020131Y015417D02*
X020133Y015454D01*
X020139Y015491D01*
X020149Y015527D01*
X020162Y015562D01*
X020179Y015595D01*
X020200Y015626D01*
X020224Y015654D01*
X020251Y015680D01*
X020280Y015703D01*
X020311Y015723D01*
X020345Y015739D01*
X020380Y015752D01*
X020416Y015761D01*
X020453Y015766D01*
X020490Y015767D01*
X020527Y015764D01*
X020564Y015757D01*
X020600Y015746D01*
X020634Y015732D01*
X020667Y015714D01*
X020697Y015692D01*
X020725Y015668D01*
X020750Y015640D01*
X020773Y015610D01*
X020792Y015578D01*
X020807Y015544D01*
X020819Y015509D01*
X020827Y015473D01*
X020831Y015436D01*
X020831Y015398D01*
X020827Y015361D01*
X020819Y015325D01*
X020807Y015290D01*
X020792Y015256D01*
X020773Y015224D01*
X020750Y015194D01*
X020725Y015166D01*
X020697Y015142D01*
X020667Y015120D01*
X020634Y015102D01*
X020600Y015088D01*
X020564Y015077D01*
X020527Y015070D01*
X020490Y015067D01*
X020453Y015068D01*
X020416Y015073D01*
X020380Y015082D01*
X020345Y015095D01*
X020311Y015111D01*
X020280Y015131D01*
X020251Y015154D01*
X020224Y015180D01*
X020200Y015208D01*
X020179Y015239D01*
X020162Y015272D01*
X020149Y015307D01*
X020139Y015343D01*
X020133Y015380D01*
X020131Y015417D01*
X019131Y015417D02*
X019133Y015454D01*
X019139Y015491D01*
X019149Y015527D01*
X019162Y015562D01*
X019179Y015595D01*
X019200Y015626D01*
X019224Y015654D01*
X019251Y015680D01*
X019280Y015703D01*
X019311Y015723D01*
X019345Y015739D01*
X019380Y015752D01*
X019416Y015761D01*
X019453Y015766D01*
X019490Y015767D01*
X019527Y015764D01*
X019564Y015757D01*
X019600Y015746D01*
X019634Y015732D01*
X019667Y015714D01*
X019697Y015692D01*
X019725Y015668D01*
X019750Y015640D01*
X019773Y015610D01*
X019792Y015578D01*
X019807Y015544D01*
X019819Y015509D01*
X019827Y015473D01*
X019831Y015436D01*
X019831Y015398D01*
X019827Y015361D01*
X019819Y015325D01*
X019807Y015290D01*
X019792Y015256D01*
X019773Y015224D01*
X019750Y015194D01*
X019725Y015166D01*
X019697Y015142D01*
X019667Y015120D01*
X019634Y015102D01*
X019600Y015088D01*
X019564Y015077D01*
X019527Y015070D01*
X019490Y015067D01*
X019453Y015068D01*
X019416Y015073D01*
X019380Y015082D01*
X019345Y015095D01*
X019311Y015111D01*
X019280Y015131D01*
X019251Y015154D01*
X019224Y015180D01*
X019200Y015208D01*
X019179Y015239D01*
X019162Y015272D01*
X019149Y015307D01*
X019139Y015343D01*
X019133Y015380D01*
X019131Y015417D01*
X018131Y015417D02*
X018133Y015454D01*
X018139Y015491D01*
X018149Y015527D01*
X018162Y015562D01*
X018179Y015595D01*
X018200Y015626D01*
X018224Y015654D01*
X018251Y015680D01*
X018280Y015703D01*
X018311Y015723D01*
X018345Y015739D01*
X018380Y015752D01*
X018416Y015761D01*
X018453Y015766D01*
X018490Y015767D01*
X018527Y015764D01*
X018564Y015757D01*
X018600Y015746D01*
X018634Y015732D01*
X018667Y015714D01*
X018697Y015692D01*
X018725Y015668D01*
X018750Y015640D01*
X018773Y015610D01*
X018792Y015578D01*
X018807Y015544D01*
X018819Y015509D01*
X018827Y015473D01*
X018831Y015436D01*
X018831Y015398D01*
X018827Y015361D01*
X018819Y015325D01*
X018807Y015290D01*
X018792Y015256D01*
X018773Y015224D01*
X018750Y015194D01*
X018725Y015166D01*
X018697Y015142D01*
X018667Y015120D01*
X018634Y015102D01*
X018600Y015088D01*
X018564Y015077D01*
X018527Y015070D01*
X018490Y015067D01*
X018453Y015068D01*
X018416Y015073D01*
X018380Y015082D01*
X018345Y015095D01*
X018311Y015111D01*
X018280Y015131D01*
X018251Y015154D01*
X018224Y015180D01*
X018200Y015208D01*
X018179Y015239D01*
X018162Y015272D01*
X018149Y015307D01*
X018139Y015343D01*
X018133Y015380D01*
X018131Y015417D01*
X017131Y015417D02*
X017133Y015454D01*
X017139Y015491D01*
X017149Y015527D01*
X017162Y015562D01*
X017179Y015595D01*
X017200Y015626D01*
X017224Y015654D01*
X017251Y015680D01*
X017280Y015703D01*
X017311Y015723D01*
X017345Y015739D01*
X017380Y015752D01*
X017416Y015761D01*
X017453Y015766D01*
X017490Y015767D01*
X017527Y015764D01*
X017564Y015757D01*
X017600Y015746D01*
X017634Y015732D01*
X017667Y015714D01*
X017697Y015692D01*
X017725Y015668D01*
X017750Y015640D01*
X017773Y015610D01*
X017792Y015578D01*
X017807Y015544D01*
X017819Y015509D01*
X017827Y015473D01*
X017831Y015436D01*
X017831Y015398D01*
X017827Y015361D01*
X017819Y015325D01*
X017807Y015290D01*
X017792Y015256D01*
X017773Y015224D01*
X017750Y015194D01*
X017725Y015166D01*
X017697Y015142D01*
X017667Y015120D01*
X017634Y015102D01*
X017600Y015088D01*
X017564Y015077D01*
X017527Y015070D01*
X017490Y015067D01*
X017453Y015068D01*
X017416Y015073D01*
X017380Y015082D01*
X017345Y015095D01*
X017311Y015111D01*
X017280Y015131D01*
X017251Y015154D01*
X017224Y015180D01*
X017200Y015208D01*
X017179Y015239D01*
X017162Y015272D01*
X017149Y015307D01*
X017139Y015343D01*
X017133Y015380D01*
X017131Y015417D01*
X016131Y015417D02*
X016133Y015454D01*
X016139Y015491D01*
X016149Y015527D01*
X016162Y015562D01*
X016179Y015595D01*
X016200Y015626D01*
X016224Y015654D01*
X016251Y015680D01*
X016280Y015703D01*
X016311Y015723D01*
X016345Y015739D01*
X016380Y015752D01*
X016416Y015761D01*
X016453Y015766D01*
X016490Y015767D01*
X016527Y015764D01*
X016564Y015757D01*
X016600Y015746D01*
X016634Y015732D01*
X016667Y015714D01*
X016697Y015692D01*
X016725Y015668D01*
X016750Y015640D01*
X016773Y015610D01*
X016792Y015578D01*
X016807Y015544D01*
X016819Y015509D01*
X016827Y015473D01*
X016831Y015436D01*
X016831Y015398D01*
X016827Y015361D01*
X016819Y015325D01*
X016807Y015290D01*
X016792Y015256D01*
X016773Y015224D01*
X016750Y015194D01*
X016725Y015166D01*
X016697Y015142D01*
X016667Y015120D01*
X016634Y015102D01*
X016600Y015088D01*
X016564Y015077D01*
X016527Y015070D01*
X016490Y015067D01*
X016453Y015068D01*
X016416Y015073D01*
X016380Y015082D01*
X016345Y015095D01*
X016311Y015111D01*
X016280Y015131D01*
X016251Y015154D01*
X016224Y015180D01*
X016200Y015208D01*
X016179Y015239D01*
X016162Y015272D01*
X016149Y015307D01*
X016139Y015343D01*
X016133Y015380D01*
X016131Y015417D01*
X016131Y016417D02*
X016133Y016454D01*
X016139Y016491D01*
X016149Y016527D01*
X016162Y016562D01*
X016179Y016595D01*
X016200Y016626D01*
X016224Y016654D01*
X016251Y016680D01*
X016280Y016703D01*
X016311Y016723D01*
X016345Y016739D01*
X016380Y016752D01*
X016416Y016761D01*
X016453Y016766D01*
X016490Y016767D01*
X016527Y016764D01*
X016564Y016757D01*
X016600Y016746D01*
X016634Y016732D01*
X016667Y016714D01*
X016697Y016692D01*
X016725Y016668D01*
X016750Y016640D01*
X016773Y016610D01*
X016792Y016578D01*
X016807Y016544D01*
X016819Y016509D01*
X016827Y016473D01*
X016831Y016436D01*
X016831Y016398D01*
X016827Y016361D01*
X016819Y016325D01*
X016807Y016290D01*
X016792Y016256D01*
X016773Y016224D01*
X016750Y016194D01*
X016725Y016166D01*
X016697Y016142D01*
X016667Y016120D01*
X016634Y016102D01*
X016600Y016088D01*
X016564Y016077D01*
X016527Y016070D01*
X016490Y016067D01*
X016453Y016068D01*
X016416Y016073D01*
X016380Y016082D01*
X016345Y016095D01*
X016311Y016111D01*
X016280Y016131D01*
X016251Y016154D01*
X016224Y016180D01*
X016200Y016208D01*
X016179Y016239D01*
X016162Y016272D01*
X016149Y016307D01*
X016139Y016343D01*
X016133Y016380D01*
X016131Y016417D01*
X017131Y016417D02*
X017133Y016454D01*
X017139Y016491D01*
X017149Y016527D01*
X017162Y016562D01*
X017179Y016595D01*
X017200Y016626D01*
X017224Y016654D01*
X017251Y016680D01*
X017280Y016703D01*
X017311Y016723D01*
X017345Y016739D01*
X017380Y016752D01*
X017416Y016761D01*
X017453Y016766D01*
X017490Y016767D01*
X017527Y016764D01*
X017564Y016757D01*
X017600Y016746D01*
X017634Y016732D01*
X017667Y016714D01*
X017697Y016692D01*
X017725Y016668D01*
X017750Y016640D01*
X017773Y016610D01*
X017792Y016578D01*
X017807Y016544D01*
X017819Y016509D01*
X017827Y016473D01*
X017831Y016436D01*
X017831Y016398D01*
X017827Y016361D01*
X017819Y016325D01*
X017807Y016290D01*
X017792Y016256D01*
X017773Y016224D01*
X017750Y016194D01*
X017725Y016166D01*
X017697Y016142D01*
X017667Y016120D01*
X017634Y016102D01*
X017600Y016088D01*
X017564Y016077D01*
X017527Y016070D01*
X017490Y016067D01*
X017453Y016068D01*
X017416Y016073D01*
X017380Y016082D01*
X017345Y016095D01*
X017311Y016111D01*
X017280Y016131D01*
X017251Y016154D01*
X017224Y016180D01*
X017200Y016208D01*
X017179Y016239D01*
X017162Y016272D01*
X017149Y016307D01*
X017139Y016343D01*
X017133Y016380D01*
X017131Y016417D01*
X018131Y016417D02*
X018133Y016454D01*
X018139Y016491D01*
X018149Y016527D01*
X018162Y016562D01*
X018179Y016595D01*
X018200Y016626D01*
X018224Y016654D01*
X018251Y016680D01*
X018280Y016703D01*
X018311Y016723D01*
X018345Y016739D01*
X018380Y016752D01*
X018416Y016761D01*
X018453Y016766D01*
X018490Y016767D01*
X018527Y016764D01*
X018564Y016757D01*
X018600Y016746D01*
X018634Y016732D01*
X018667Y016714D01*
X018697Y016692D01*
X018725Y016668D01*
X018750Y016640D01*
X018773Y016610D01*
X018792Y016578D01*
X018807Y016544D01*
X018819Y016509D01*
X018827Y016473D01*
X018831Y016436D01*
X018831Y016398D01*
X018827Y016361D01*
X018819Y016325D01*
X018807Y016290D01*
X018792Y016256D01*
X018773Y016224D01*
X018750Y016194D01*
X018725Y016166D01*
X018697Y016142D01*
X018667Y016120D01*
X018634Y016102D01*
X018600Y016088D01*
X018564Y016077D01*
X018527Y016070D01*
X018490Y016067D01*
X018453Y016068D01*
X018416Y016073D01*
X018380Y016082D01*
X018345Y016095D01*
X018311Y016111D01*
X018280Y016131D01*
X018251Y016154D01*
X018224Y016180D01*
X018200Y016208D01*
X018179Y016239D01*
X018162Y016272D01*
X018149Y016307D01*
X018139Y016343D01*
X018133Y016380D01*
X018131Y016417D01*
X019131Y016417D02*
X019133Y016454D01*
X019139Y016491D01*
X019149Y016527D01*
X019162Y016562D01*
X019179Y016595D01*
X019200Y016626D01*
X019224Y016654D01*
X019251Y016680D01*
X019280Y016703D01*
X019311Y016723D01*
X019345Y016739D01*
X019380Y016752D01*
X019416Y016761D01*
X019453Y016766D01*
X019490Y016767D01*
X019527Y016764D01*
X019564Y016757D01*
X019600Y016746D01*
X019634Y016732D01*
X019667Y016714D01*
X019697Y016692D01*
X019725Y016668D01*
X019750Y016640D01*
X019773Y016610D01*
X019792Y016578D01*
X019807Y016544D01*
X019819Y016509D01*
X019827Y016473D01*
X019831Y016436D01*
X019831Y016398D01*
X019827Y016361D01*
X019819Y016325D01*
X019807Y016290D01*
X019792Y016256D01*
X019773Y016224D01*
X019750Y016194D01*
X019725Y016166D01*
X019697Y016142D01*
X019667Y016120D01*
X019634Y016102D01*
X019600Y016088D01*
X019564Y016077D01*
X019527Y016070D01*
X019490Y016067D01*
X019453Y016068D01*
X019416Y016073D01*
X019380Y016082D01*
X019345Y016095D01*
X019311Y016111D01*
X019280Y016131D01*
X019251Y016154D01*
X019224Y016180D01*
X019200Y016208D01*
X019179Y016239D01*
X019162Y016272D01*
X019149Y016307D01*
X019139Y016343D01*
X019133Y016380D01*
X019131Y016417D01*
X020131Y016417D02*
X020133Y016454D01*
X020139Y016491D01*
X020149Y016527D01*
X020162Y016562D01*
X020179Y016595D01*
X020200Y016626D01*
X020224Y016654D01*
X020251Y016680D01*
X020280Y016703D01*
X020311Y016723D01*
X020345Y016739D01*
X020380Y016752D01*
X020416Y016761D01*
X020453Y016766D01*
X020490Y016767D01*
X020527Y016764D01*
X020564Y016757D01*
X020600Y016746D01*
X020634Y016732D01*
X020667Y016714D01*
X020697Y016692D01*
X020725Y016668D01*
X020750Y016640D01*
X020773Y016610D01*
X020792Y016578D01*
X020807Y016544D01*
X020819Y016509D01*
X020827Y016473D01*
X020831Y016436D01*
X020831Y016398D01*
X020827Y016361D01*
X020819Y016325D01*
X020807Y016290D01*
X020792Y016256D01*
X020773Y016224D01*
X020750Y016194D01*
X020725Y016166D01*
X020697Y016142D01*
X020667Y016120D01*
X020634Y016102D01*
X020600Y016088D01*
X020564Y016077D01*
X020527Y016070D01*
X020490Y016067D01*
X020453Y016068D01*
X020416Y016073D01*
X020380Y016082D01*
X020345Y016095D01*
X020311Y016111D01*
X020280Y016131D01*
X020251Y016154D01*
X020224Y016180D01*
X020200Y016208D01*
X020179Y016239D01*
X020162Y016272D01*
X020149Y016307D01*
X020139Y016343D01*
X020133Y016380D01*
X020131Y016417D01*
X020231Y019417D02*
X020731Y019417D01*
X020981Y019667D01*
X020981Y020167D01*
X020731Y020417D01*
X020231Y020417D01*
X019981Y020167D01*
X019981Y019667D01*
X020231Y019417D01*
X019981Y019667D02*
X019731Y019417D01*
X019231Y019417D01*
X018981Y019667D01*
X018731Y019417D01*
X018231Y019417D01*
X017981Y019667D01*
X017731Y019417D01*
X017231Y019417D01*
X016981Y019667D01*
X016981Y020167D01*
X017231Y020417D01*
X017731Y020417D01*
X017981Y020167D01*
X018231Y020417D01*
X018731Y020417D01*
X018981Y020167D01*
X018981Y019667D01*
X018981Y020167D02*
X019231Y020417D01*
X019731Y020417D01*
X019981Y020167D01*
X017981Y020167D02*
X017981Y019667D01*
X014981Y019417D02*
X014981Y020417D01*
X014081Y020417D01*
X013981Y020317D01*
X013881Y020417D01*
X013081Y020417D01*
X012981Y020317D01*
X012881Y020417D01*
X012081Y020417D01*
X011981Y020317D01*
X011881Y020417D01*
X010981Y020417D01*
X010981Y019417D01*
X011881Y019417D01*
X011981Y019517D01*
X012081Y019417D01*
X012881Y019417D01*
X012981Y019517D01*
X013081Y019417D01*
X013881Y019417D01*
X013981Y019517D01*
X014081Y019417D01*
X014981Y019417D01*
X014681Y019717D02*
X014681Y020117D01*
X014581Y020117D01*
X014581Y020217D01*
X014381Y020217D01*
X014381Y020117D01*
X014281Y020117D01*
X014281Y019717D01*
X014381Y019717D01*
X014381Y019617D01*
X014581Y019617D01*
X014581Y019717D01*
X014681Y019717D01*
X013681Y019717D02*
X013681Y020117D01*
X013581Y020117D01*
X013581Y020217D01*
X013381Y020217D01*
X013381Y020117D01*
X013281Y020117D01*
X013281Y019717D01*
X013381Y019717D01*
X013381Y019617D01*
X013581Y019617D01*
X013581Y019717D01*
X013681Y019717D01*
X012681Y019717D02*
X012681Y020117D01*
X012581Y020117D01*
X012581Y020217D01*
X012381Y020217D01*
X012381Y020117D01*
X012281Y020117D01*
X012281Y019717D01*
X012381Y019717D01*
X012381Y019617D01*
X012581Y019617D01*
X012581Y019717D01*
X012681Y019717D01*
X011681Y019717D02*
X011681Y020117D01*
X011581Y020117D01*
X011581Y020217D01*
X011381Y020217D01*
X011381Y020117D01*
X011281Y020117D01*
X011281Y019717D01*
X011381Y019717D01*
X011381Y019617D01*
X011581Y019617D01*
X011581Y019717D01*
X011681Y019717D01*
X012511Y018383D02*
X012951Y018383D01*
X012951Y018236D02*
X012951Y018530D01*
X012658Y018236D02*
X012511Y018383D01*
X012511Y018069D02*
X012878Y018069D01*
X012951Y017996D01*
X012951Y017849D01*
X012878Y017776D01*
X012511Y017776D01*
X008981Y019417D02*
X008081Y019417D01*
X007981Y019517D01*
X007881Y019417D01*
X007081Y019417D01*
X006981Y019517D01*
X006881Y019417D01*
X006081Y019417D01*
X005981Y019517D01*
X005881Y019417D01*
X004981Y019417D01*
X004981Y020417D01*
X005881Y020417D01*
X005981Y020317D01*
X006081Y020417D01*
X006881Y020417D01*
X006981Y020317D01*
X007081Y020417D01*
X007881Y020417D01*
X007981Y020317D01*
X008081Y020417D01*
X008981Y020417D01*
X008981Y019417D01*
X008681Y019717D02*
X008681Y020117D01*
X008581Y020117D01*
X008581Y020217D01*
X008381Y020217D01*
X008381Y020117D01*
X008281Y020117D01*
X008281Y019717D01*
X008381Y019717D01*
X008381Y019617D01*
X008581Y019617D01*
X008581Y019717D01*
X008681Y019717D01*
X007681Y019717D02*
X007681Y020117D01*
X007581Y020117D01*
X007581Y020217D01*
X007381Y020217D01*
X007381Y020117D01*
X007281Y020117D01*
X007281Y019717D01*
X007381Y019717D01*
X007381Y019617D01*
X007581Y019617D01*
X007581Y019717D01*
X007681Y019717D01*
X006681Y019717D02*
X006681Y020117D01*
X006581Y020117D01*
X006581Y020217D01*
X006381Y020217D01*
X006381Y020117D01*
X006281Y020117D01*
X006281Y019717D01*
X006381Y019717D01*
X006381Y019617D01*
X006581Y019617D01*
X006581Y019717D01*
X006681Y019717D01*
X005681Y019717D02*
X005681Y020117D01*
X005581Y020117D01*
X005581Y020217D01*
X005381Y020217D01*
X005381Y020117D01*
X005281Y020117D01*
X005281Y019717D01*
X005381Y019717D01*
X005381Y019617D01*
X005581Y019617D01*
X005581Y019717D01*
X005681Y019717D01*
X003931Y015417D02*
X002031Y015417D01*
X002001Y015415D01*
X001971Y015410D01*
X001942Y015401D01*
X001915Y015388D01*
X001889Y015373D01*
X001865Y015354D01*
X001844Y015333D01*
X001825Y015309D01*
X001810Y015283D01*
X001797Y015256D01*
X001788Y015227D01*
X001783Y015197D01*
X001781Y015167D01*
X001781Y010667D01*
X001783Y010637D01*
X001788Y010607D01*
X001797Y010578D01*
X001810Y010551D01*
X001825Y010525D01*
X001844Y010501D01*
X001865Y010480D01*
X001889Y010461D01*
X001915Y010446D01*
X001942Y010433D01*
X001971Y010424D01*
X002001Y010419D01*
X002031Y010417D01*
X003931Y010417D01*
X003961Y010419D01*
X003991Y010424D01*
X004020Y010433D01*
X004047Y010446D01*
X004073Y010461D01*
X004097Y010480D01*
X004118Y010501D01*
X004137Y010525D01*
X004152Y010551D01*
X004165Y010578D01*
X004174Y010607D01*
X004179Y010637D01*
X004181Y010667D01*
X004181Y015167D01*
X004179Y015197D01*
X004174Y015227D01*
X004165Y015256D01*
X004152Y015283D01*
X004137Y015309D01*
X004118Y015333D01*
X004097Y015354D01*
X004073Y015373D01*
X004047Y015388D01*
X004020Y015401D01*
X003991Y015410D01*
X003961Y015415D01*
X003931Y015417D01*
X003131Y014917D02*
X003133Y014954D01*
X003139Y014991D01*
X003149Y015027D01*
X003162Y015062D01*
X003179Y015095D01*
X003200Y015126D01*
X003224Y015154D01*
X003251Y015180D01*
X003280Y015203D01*
X003311Y015223D01*
X003345Y015239D01*
X003380Y015252D01*
X003416Y015261D01*
X003453Y015266D01*
X003490Y015267D01*
X003527Y015264D01*
X003564Y015257D01*
X003600Y015246D01*
X003634Y015232D01*
X003667Y015214D01*
X003697Y015192D01*
X003725Y015168D01*
X003750Y015140D01*
X003773Y015110D01*
X003792Y015078D01*
X003807Y015044D01*
X003819Y015009D01*
X003827Y014973D01*
X003831Y014936D01*
X003831Y014898D01*
X003827Y014861D01*
X003819Y014825D01*
X003807Y014790D01*
X003792Y014756D01*
X003773Y014724D01*
X003750Y014694D01*
X003725Y014666D01*
X003697Y014642D01*
X003667Y014620D01*
X003634Y014602D01*
X003600Y014588D01*
X003564Y014577D01*
X003527Y014570D01*
X003490Y014567D01*
X003453Y014568D01*
X003416Y014573D01*
X003380Y014582D01*
X003345Y014595D01*
X003311Y014611D01*
X003280Y014631D01*
X003251Y014654D01*
X003224Y014680D01*
X003200Y014708D01*
X003179Y014739D01*
X003162Y014772D01*
X003149Y014807D01*
X003139Y014843D01*
X003133Y014880D01*
X003131Y014917D01*
X002131Y014917D02*
X002133Y014954D01*
X002139Y014991D01*
X002149Y015027D01*
X002162Y015062D01*
X002179Y015095D01*
X002200Y015126D01*
X002224Y015154D01*
X002251Y015180D01*
X002280Y015203D01*
X002311Y015223D01*
X002345Y015239D01*
X002380Y015252D01*
X002416Y015261D01*
X002453Y015266D01*
X002490Y015267D01*
X002527Y015264D01*
X002564Y015257D01*
X002600Y015246D01*
X002634Y015232D01*
X002667Y015214D01*
X002697Y015192D01*
X002725Y015168D01*
X002750Y015140D01*
X002773Y015110D01*
X002792Y015078D01*
X002807Y015044D01*
X002819Y015009D01*
X002827Y014973D01*
X002831Y014936D01*
X002831Y014898D01*
X002827Y014861D01*
X002819Y014825D01*
X002807Y014790D01*
X002792Y014756D01*
X002773Y014724D01*
X002750Y014694D01*
X002725Y014666D01*
X002697Y014642D01*
X002667Y014620D01*
X002634Y014602D01*
X002600Y014588D01*
X002564Y014577D01*
X002527Y014570D01*
X002490Y014567D01*
X002453Y014568D01*
X002416Y014573D01*
X002380Y014582D01*
X002345Y014595D01*
X002311Y014611D01*
X002280Y014631D01*
X002251Y014654D01*
X002224Y014680D01*
X002200Y014708D01*
X002179Y014739D01*
X002162Y014772D01*
X002149Y014807D01*
X002139Y014843D01*
X002133Y014880D01*
X002131Y014917D01*
X002131Y013917D02*
X002133Y013954D01*
X002139Y013991D01*
X002149Y014027D01*
X002162Y014062D01*
X002179Y014095D01*
X002200Y014126D01*
X002224Y014154D01*
X002251Y014180D01*
X002280Y014203D01*
X002311Y014223D01*
X002345Y014239D01*
X002380Y014252D01*
X002416Y014261D01*
X002453Y014266D01*
X002490Y014267D01*
X002527Y014264D01*
X002564Y014257D01*
X002600Y014246D01*
X002634Y014232D01*
X002667Y014214D01*
X002697Y014192D01*
X002725Y014168D01*
X002750Y014140D01*
X002773Y014110D01*
X002792Y014078D01*
X002807Y014044D01*
X002819Y014009D01*
X002827Y013973D01*
X002831Y013936D01*
X002831Y013898D01*
X002827Y013861D01*
X002819Y013825D01*
X002807Y013790D01*
X002792Y013756D01*
X002773Y013724D01*
X002750Y013694D01*
X002725Y013666D01*
X002697Y013642D01*
X002667Y013620D01*
X002634Y013602D01*
X002600Y013588D01*
X002564Y013577D01*
X002527Y013570D01*
X002490Y013567D01*
X002453Y013568D01*
X002416Y013573D01*
X002380Y013582D01*
X002345Y013595D01*
X002311Y013611D01*
X002280Y013631D01*
X002251Y013654D01*
X002224Y013680D01*
X002200Y013708D01*
X002179Y013739D01*
X002162Y013772D01*
X002149Y013807D01*
X002139Y013843D01*
X002133Y013880D01*
X002131Y013917D01*
X002131Y012917D02*
X002133Y012954D01*
X002139Y012991D01*
X002149Y013027D01*
X002162Y013062D01*
X002179Y013095D01*
X002200Y013126D01*
X002224Y013154D01*
X002251Y013180D01*
X002280Y013203D01*
X002311Y013223D01*
X002345Y013239D01*
X002380Y013252D01*
X002416Y013261D01*
X002453Y013266D01*
X002490Y013267D01*
X002527Y013264D01*
X002564Y013257D01*
X002600Y013246D01*
X002634Y013232D01*
X002667Y013214D01*
X002697Y013192D01*
X002725Y013168D01*
X002750Y013140D01*
X002773Y013110D01*
X002792Y013078D01*
X002807Y013044D01*
X002819Y013009D01*
X002827Y012973D01*
X002831Y012936D01*
X002831Y012898D01*
X002827Y012861D01*
X002819Y012825D01*
X002807Y012790D01*
X002792Y012756D01*
X002773Y012724D01*
X002750Y012694D01*
X002725Y012666D01*
X002697Y012642D01*
X002667Y012620D01*
X002634Y012602D01*
X002600Y012588D01*
X002564Y012577D01*
X002527Y012570D01*
X002490Y012567D01*
X002453Y012568D01*
X002416Y012573D01*
X002380Y012582D01*
X002345Y012595D01*
X002311Y012611D01*
X002280Y012631D01*
X002251Y012654D01*
X002224Y012680D01*
X002200Y012708D01*
X002179Y012739D01*
X002162Y012772D01*
X002149Y012807D01*
X002139Y012843D01*
X002133Y012880D01*
X002131Y012917D01*
X002131Y011917D02*
X002133Y011954D01*
X002139Y011991D01*
X002149Y012027D01*
X002162Y012062D01*
X002179Y012095D01*
X002200Y012126D01*
X002224Y012154D01*
X002251Y012180D01*
X002280Y012203D01*
X002311Y012223D01*
X002345Y012239D01*
X002380Y012252D01*
X002416Y012261D01*
X002453Y012266D01*
X002490Y012267D01*
X002527Y012264D01*
X002564Y012257D01*
X002600Y012246D01*
X002634Y012232D01*
X002667Y012214D01*
X002697Y012192D01*
X002725Y012168D01*
X002750Y012140D01*
X002773Y012110D01*
X002792Y012078D01*
X002807Y012044D01*
X002819Y012009D01*
X002827Y011973D01*
X002831Y011936D01*
X002831Y011898D01*
X002827Y011861D01*
X002819Y011825D01*
X002807Y011790D01*
X002792Y011756D01*
X002773Y011724D01*
X002750Y011694D01*
X002725Y011666D01*
X002697Y011642D01*
X002667Y011620D01*
X002634Y011602D01*
X002600Y011588D01*
X002564Y011577D01*
X002527Y011570D01*
X002490Y011567D01*
X002453Y011568D01*
X002416Y011573D01*
X002380Y011582D01*
X002345Y011595D01*
X002311Y011611D01*
X002280Y011631D01*
X002251Y011654D01*
X002224Y011680D01*
X002200Y011708D01*
X002179Y011739D01*
X002162Y011772D01*
X002149Y011807D01*
X002139Y011843D01*
X002133Y011880D01*
X002131Y011917D01*
X002131Y010917D02*
X002133Y010954D01*
X002139Y010991D01*
X002149Y011027D01*
X002162Y011062D01*
X002179Y011095D01*
X002200Y011126D01*
X002224Y011154D01*
X002251Y011180D01*
X002280Y011203D01*
X002311Y011223D01*
X002345Y011239D01*
X002380Y011252D01*
X002416Y011261D01*
X002453Y011266D01*
X002490Y011267D01*
X002527Y011264D01*
X002564Y011257D01*
X002600Y011246D01*
X002634Y011232D01*
X002667Y011214D01*
X002697Y011192D01*
X002725Y011168D01*
X002750Y011140D01*
X002773Y011110D01*
X002792Y011078D01*
X002807Y011044D01*
X002819Y011009D01*
X002827Y010973D01*
X002831Y010936D01*
X002831Y010898D01*
X002827Y010861D01*
X002819Y010825D01*
X002807Y010790D01*
X002792Y010756D01*
X002773Y010724D01*
X002750Y010694D01*
X002725Y010666D01*
X002697Y010642D01*
X002667Y010620D01*
X002634Y010602D01*
X002600Y010588D01*
X002564Y010577D01*
X002527Y010570D01*
X002490Y010567D01*
X002453Y010568D01*
X002416Y010573D01*
X002380Y010582D01*
X002345Y010595D01*
X002311Y010611D01*
X002280Y010631D01*
X002251Y010654D01*
X002224Y010680D01*
X002200Y010708D01*
X002179Y010739D01*
X002162Y010772D01*
X002149Y010807D01*
X002139Y010843D01*
X002133Y010880D01*
X002131Y010917D01*
X003131Y010917D02*
X003133Y010954D01*
X003139Y010991D01*
X003149Y011027D01*
X003162Y011062D01*
X003179Y011095D01*
X003200Y011126D01*
X003224Y011154D01*
X003251Y011180D01*
X003280Y011203D01*
X003311Y011223D01*
X003345Y011239D01*
X003380Y011252D01*
X003416Y011261D01*
X003453Y011266D01*
X003490Y011267D01*
X003527Y011264D01*
X003564Y011257D01*
X003600Y011246D01*
X003634Y011232D01*
X003667Y011214D01*
X003697Y011192D01*
X003725Y011168D01*
X003750Y011140D01*
X003773Y011110D01*
X003792Y011078D01*
X003807Y011044D01*
X003819Y011009D01*
X003827Y010973D01*
X003831Y010936D01*
X003831Y010898D01*
X003827Y010861D01*
X003819Y010825D01*
X003807Y010790D01*
X003792Y010756D01*
X003773Y010724D01*
X003750Y010694D01*
X003725Y010666D01*
X003697Y010642D01*
X003667Y010620D01*
X003634Y010602D01*
X003600Y010588D01*
X003564Y010577D01*
X003527Y010570D01*
X003490Y010567D01*
X003453Y010568D01*
X003416Y010573D01*
X003380Y010582D01*
X003345Y010595D01*
X003311Y010611D01*
X003280Y010631D01*
X003251Y010654D01*
X003224Y010680D01*
X003200Y010708D01*
X003179Y010739D01*
X003162Y010772D01*
X003149Y010807D01*
X003139Y010843D01*
X003133Y010880D01*
X003131Y010917D01*
X003131Y011917D02*
X003133Y011954D01*
X003139Y011991D01*
X003149Y012027D01*
X003162Y012062D01*
X003179Y012095D01*
X003200Y012126D01*
X003224Y012154D01*
X003251Y012180D01*
X003280Y012203D01*
X003311Y012223D01*
X003345Y012239D01*
X003380Y012252D01*
X003416Y012261D01*
X003453Y012266D01*
X003490Y012267D01*
X003527Y012264D01*
X003564Y012257D01*
X003600Y012246D01*
X003634Y012232D01*
X003667Y012214D01*
X003697Y012192D01*
X003725Y012168D01*
X003750Y012140D01*
X003773Y012110D01*
X003792Y012078D01*
X003807Y012044D01*
X003819Y012009D01*
X003827Y011973D01*
X003831Y011936D01*
X003831Y011898D01*
X003827Y011861D01*
X003819Y011825D01*
X003807Y011790D01*
X003792Y011756D01*
X003773Y011724D01*
X003750Y011694D01*
X003725Y011666D01*
X003697Y011642D01*
X003667Y011620D01*
X003634Y011602D01*
X003600Y011588D01*
X003564Y011577D01*
X003527Y011570D01*
X003490Y011567D01*
X003453Y011568D01*
X003416Y011573D01*
X003380Y011582D01*
X003345Y011595D01*
X003311Y011611D01*
X003280Y011631D01*
X003251Y011654D01*
X003224Y011680D01*
X003200Y011708D01*
X003179Y011739D01*
X003162Y011772D01*
X003149Y011807D01*
X003139Y011843D01*
X003133Y011880D01*
X003131Y011917D01*
X003131Y012917D02*
X003133Y012954D01*
X003139Y012991D01*
X003149Y013027D01*
X003162Y013062D01*
X003179Y013095D01*
X003200Y013126D01*
X003224Y013154D01*
X003251Y013180D01*
X003280Y013203D01*
X003311Y013223D01*
X003345Y013239D01*
X003380Y013252D01*
X003416Y013261D01*
X003453Y013266D01*
X003490Y013267D01*
X003527Y013264D01*
X003564Y013257D01*
X003600Y013246D01*
X003634Y013232D01*
X003667Y013214D01*
X003697Y013192D01*
X003725Y013168D01*
X003750Y013140D01*
X003773Y013110D01*
X003792Y013078D01*
X003807Y013044D01*
X003819Y013009D01*
X003827Y012973D01*
X003831Y012936D01*
X003831Y012898D01*
X003827Y012861D01*
X003819Y012825D01*
X003807Y012790D01*
X003792Y012756D01*
X003773Y012724D01*
X003750Y012694D01*
X003725Y012666D01*
X003697Y012642D01*
X003667Y012620D01*
X003634Y012602D01*
X003600Y012588D01*
X003564Y012577D01*
X003527Y012570D01*
X003490Y012567D01*
X003453Y012568D01*
X003416Y012573D01*
X003380Y012582D01*
X003345Y012595D01*
X003311Y012611D01*
X003280Y012631D01*
X003251Y012654D01*
X003224Y012680D01*
X003200Y012708D01*
X003179Y012739D01*
X003162Y012772D01*
X003149Y012807D01*
X003139Y012843D01*
X003133Y012880D01*
X003131Y012917D01*
X003131Y013917D02*
X003133Y013954D01*
X003139Y013991D01*
X003149Y014027D01*
X003162Y014062D01*
X003179Y014095D01*
X003200Y014126D01*
X003224Y014154D01*
X003251Y014180D01*
X003280Y014203D01*
X003311Y014223D01*
X003345Y014239D01*
X003380Y014252D01*
X003416Y014261D01*
X003453Y014266D01*
X003490Y014267D01*
X003527Y014264D01*
X003564Y014257D01*
X003600Y014246D01*
X003634Y014232D01*
X003667Y014214D01*
X003697Y014192D01*
X003725Y014168D01*
X003750Y014140D01*
X003773Y014110D01*
X003792Y014078D01*
X003807Y014044D01*
X003819Y014009D01*
X003827Y013973D01*
X003831Y013936D01*
X003831Y013898D01*
X003827Y013861D01*
X003819Y013825D01*
X003807Y013790D01*
X003792Y013756D01*
X003773Y013724D01*
X003750Y013694D01*
X003725Y013666D01*
X003697Y013642D01*
X003667Y013620D01*
X003634Y013602D01*
X003600Y013588D01*
X003564Y013577D01*
X003527Y013570D01*
X003490Y013567D01*
X003453Y013568D01*
X003416Y013573D01*
X003380Y013582D01*
X003345Y013595D01*
X003311Y013611D01*
X003280Y013631D01*
X003251Y013654D01*
X003224Y013680D01*
X003200Y013708D01*
X003179Y013739D01*
X003162Y013772D01*
X003149Y013807D01*
X003139Y013843D01*
X003133Y013880D01*
X003131Y013917D01*
X007231Y013917D02*
X007231Y013417D01*
X007481Y013167D01*
X007981Y013167D01*
X008231Y013417D01*
X008481Y013167D01*
X008981Y013167D01*
X009231Y013417D01*
X009231Y013917D01*
X008981Y014167D01*
X008481Y014167D01*
X008231Y013917D01*
X008231Y013417D01*
X008231Y013917D02*
X007981Y014167D01*
X007481Y014167D01*
X007231Y013917D01*
X009231Y013917D02*
X009481Y014167D01*
X009981Y014167D01*
X010231Y013917D01*
X010481Y014167D01*
X010981Y014167D01*
X011231Y013917D01*
X011231Y013417D01*
X010981Y013167D01*
X010481Y013167D01*
X010231Y013417D01*
X009981Y013167D01*
X009481Y013167D01*
X009231Y013417D01*
X010231Y013417D02*
X010231Y013917D01*
X020131Y008917D02*
X020133Y008954D01*
X020139Y008991D01*
X020149Y009027D01*
X020162Y009062D01*
X020179Y009095D01*
X020200Y009126D01*
X020224Y009154D01*
X020251Y009180D01*
X020280Y009203D01*
X020311Y009223D01*
X020345Y009239D01*
X020380Y009252D01*
X020416Y009261D01*
X020453Y009266D01*
X020490Y009267D01*
X020527Y009264D01*
X020564Y009257D01*
X020600Y009246D01*
X020634Y009232D01*
X020667Y009214D01*
X020697Y009192D01*
X020725Y009168D01*
X020750Y009140D01*
X020773Y009110D01*
X020792Y009078D01*
X020807Y009044D01*
X020819Y009009D01*
X020827Y008973D01*
X020831Y008936D01*
X020831Y008898D01*
X020827Y008861D01*
X020819Y008825D01*
X020807Y008790D01*
X020792Y008756D01*
X020773Y008724D01*
X020750Y008694D01*
X020725Y008666D01*
X020697Y008642D01*
X020667Y008620D01*
X020634Y008602D01*
X020600Y008588D01*
X020564Y008577D01*
X020527Y008570D01*
X020490Y008567D01*
X020453Y008568D01*
X020416Y008573D01*
X020380Y008582D01*
X020345Y008595D01*
X020311Y008611D01*
X020280Y008631D01*
X020251Y008654D01*
X020224Y008680D01*
X020200Y008708D01*
X020179Y008739D01*
X020162Y008772D01*
X020149Y008807D01*
X020139Y008843D01*
X020133Y008880D01*
X020131Y008917D01*
X020131Y007917D02*
X020133Y007954D01*
X020139Y007991D01*
X020149Y008027D01*
X020162Y008062D01*
X020179Y008095D01*
X020200Y008126D01*
X020224Y008154D01*
X020251Y008180D01*
X020280Y008203D01*
X020311Y008223D01*
X020345Y008239D01*
X020380Y008252D01*
X020416Y008261D01*
X020453Y008266D01*
X020490Y008267D01*
X020527Y008264D01*
X020564Y008257D01*
X020600Y008246D01*
X020634Y008232D01*
X020667Y008214D01*
X020697Y008192D01*
X020725Y008168D01*
X020750Y008140D01*
X020773Y008110D01*
X020792Y008078D01*
X020807Y008044D01*
X020819Y008009D01*
X020827Y007973D01*
X020831Y007936D01*
X020831Y007898D01*
X020827Y007861D01*
X020819Y007825D01*
X020807Y007790D01*
X020792Y007756D01*
X020773Y007724D01*
X020750Y007694D01*
X020725Y007666D01*
X020697Y007642D01*
X020667Y007620D01*
X020634Y007602D01*
X020600Y007588D01*
X020564Y007577D01*
X020527Y007570D01*
X020490Y007567D01*
X020453Y007568D01*
X020416Y007573D01*
X020380Y007582D01*
X020345Y007595D01*
X020311Y007611D01*
X020280Y007631D01*
X020251Y007654D01*
X020224Y007680D01*
X020200Y007708D01*
X020179Y007739D01*
X020162Y007772D01*
X020149Y007807D01*
X020139Y007843D01*
X020133Y007880D01*
X020131Y007917D01*
X020131Y006917D02*
X020133Y006954D01*
X020139Y006991D01*
X020149Y007027D01*
X020162Y007062D01*
X020179Y007095D01*
X020200Y007126D01*
X020224Y007154D01*
X020251Y007180D01*
X020280Y007203D01*
X020311Y007223D01*
X020345Y007239D01*
X020380Y007252D01*
X020416Y007261D01*
X020453Y007266D01*
X020490Y007267D01*
X020527Y007264D01*
X020564Y007257D01*
X020600Y007246D01*
X020634Y007232D01*
X020667Y007214D01*
X020697Y007192D01*
X020725Y007168D01*
X020750Y007140D01*
X020773Y007110D01*
X020792Y007078D01*
X020807Y007044D01*
X020819Y007009D01*
X020827Y006973D01*
X020831Y006936D01*
X020831Y006898D01*
X020827Y006861D01*
X020819Y006825D01*
X020807Y006790D01*
X020792Y006756D01*
X020773Y006724D01*
X020750Y006694D01*
X020725Y006666D01*
X020697Y006642D01*
X020667Y006620D01*
X020634Y006602D01*
X020600Y006588D01*
X020564Y006577D01*
X020527Y006570D01*
X020490Y006567D01*
X020453Y006568D01*
X020416Y006573D01*
X020380Y006582D01*
X020345Y006595D01*
X020311Y006611D01*
X020280Y006631D01*
X020251Y006654D01*
X020224Y006680D01*
X020200Y006708D01*
X020179Y006739D01*
X020162Y006772D01*
X020149Y006807D01*
X020139Y006843D01*
X020133Y006880D01*
X020131Y006917D01*
X020131Y005917D02*
X020133Y005954D01*
X020139Y005991D01*
X020149Y006027D01*
X020162Y006062D01*
X020179Y006095D01*
X020200Y006126D01*
X020224Y006154D01*
X020251Y006180D01*
X020280Y006203D01*
X020311Y006223D01*
X020345Y006239D01*
X020380Y006252D01*
X020416Y006261D01*
X020453Y006266D01*
X020490Y006267D01*
X020527Y006264D01*
X020564Y006257D01*
X020600Y006246D01*
X020634Y006232D01*
X020667Y006214D01*
X020697Y006192D01*
X020725Y006168D01*
X020750Y006140D01*
X020773Y006110D01*
X020792Y006078D01*
X020807Y006044D01*
X020819Y006009D01*
X020827Y005973D01*
X020831Y005936D01*
X020831Y005898D01*
X020827Y005861D01*
X020819Y005825D01*
X020807Y005790D01*
X020792Y005756D01*
X020773Y005724D01*
X020750Y005694D01*
X020725Y005666D01*
X020697Y005642D01*
X020667Y005620D01*
X020634Y005602D01*
X020600Y005588D01*
X020564Y005577D01*
X020527Y005570D01*
X020490Y005567D01*
X020453Y005568D01*
X020416Y005573D01*
X020380Y005582D01*
X020345Y005595D01*
X020311Y005611D01*
X020280Y005631D01*
X020251Y005654D01*
X020224Y005680D01*
X020200Y005708D01*
X020179Y005739D01*
X020162Y005772D01*
X020149Y005807D01*
X020139Y005843D01*
X020133Y005880D01*
X020131Y005917D01*
X020131Y004917D02*
X020133Y004954D01*
X020139Y004991D01*
X020149Y005027D01*
X020162Y005062D01*
X020179Y005095D01*
X020200Y005126D01*
X020224Y005154D01*
X020251Y005180D01*
X020280Y005203D01*
X020311Y005223D01*
X020345Y005239D01*
X020380Y005252D01*
X020416Y005261D01*
X020453Y005266D01*
X020490Y005267D01*
X020527Y005264D01*
X020564Y005257D01*
X020600Y005246D01*
X020634Y005232D01*
X020667Y005214D01*
X020697Y005192D01*
X020725Y005168D01*
X020750Y005140D01*
X020773Y005110D01*
X020792Y005078D01*
X020807Y005044D01*
X020819Y005009D01*
X020827Y004973D01*
X020831Y004936D01*
X020831Y004898D01*
X020827Y004861D01*
X020819Y004825D01*
X020807Y004790D01*
X020792Y004756D01*
X020773Y004724D01*
X020750Y004694D01*
X020725Y004666D01*
X020697Y004642D01*
X020667Y004620D01*
X020634Y004602D01*
X020600Y004588D01*
X020564Y004577D01*
X020527Y004570D01*
X020490Y004567D01*
X020453Y004568D01*
X020416Y004573D01*
X020380Y004582D01*
X020345Y004595D01*
X020311Y004611D01*
X020280Y004631D01*
X020251Y004654D01*
X020224Y004680D01*
X020200Y004708D01*
X020179Y004739D01*
X020162Y004772D01*
X020149Y004807D01*
X020139Y004843D01*
X020133Y004880D01*
X020131Y004917D01*
D13*
X020431Y004917D02*
X020433Y004930D01*
X020438Y004943D01*
X020447Y004954D01*
X020458Y004961D01*
X020471Y004966D01*
X020484Y004967D01*
X020498Y004964D01*
X020510Y004958D01*
X020520Y004949D01*
X020527Y004937D01*
X020531Y004924D01*
X020531Y004910D01*
X020527Y004897D01*
X020520Y004885D01*
X020510Y004876D01*
X020498Y004870D01*
X020484Y004867D01*
X020471Y004868D01*
X020458Y004873D01*
X020447Y004880D01*
X020438Y004891D01*
X020433Y004904D01*
X020431Y004917D01*
X019431Y004917D02*
X019433Y004930D01*
X019438Y004943D01*
X019447Y004954D01*
X019458Y004961D01*
X019471Y004966D01*
X019484Y004967D01*
X019498Y004964D01*
X019510Y004958D01*
X019520Y004949D01*
X019527Y004937D01*
X019531Y004924D01*
X019531Y004910D01*
X019527Y004897D01*
X019520Y004885D01*
X019510Y004876D01*
X019498Y004870D01*
X019484Y004867D01*
X019471Y004868D01*
X019458Y004873D01*
X019447Y004880D01*
X019438Y004891D01*
X019433Y004904D01*
X019431Y004917D01*
X019431Y005917D02*
X019433Y005930D01*
X019438Y005943D01*
X019447Y005954D01*
X019458Y005961D01*
X019471Y005966D01*
X019484Y005967D01*
X019498Y005964D01*
X019510Y005958D01*
X019520Y005949D01*
X019527Y005937D01*
X019531Y005924D01*
X019531Y005910D01*
X019527Y005897D01*
X019520Y005885D01*
X019510Y005876D01*
X019498Y005870D01*
X019484Y005867D01*
X019471Y005868D01*
X019458Y005873D01*
X019447Y005880D01*
X019438Y005891D01*
X019433Y005904D01*
X019431Y005917D01*
X020431Y005917D02*
X020433Y005930D01*
X020438Y005943D01*
X020447Y005954D01*
X020458Y005961D01*
X020471Y005966D01*
X020484Y005967D01*
X020498Y005964D01*
X020510Y005958D01*
X020520Y005949D01*
X020527Y005937D01*
X020531Y005924D01*
X020531Y005910D01*
X020527Y005897D01*
X020520Y005885D01*
X020510Y005876D01*
X020498Y005870D01*
X020484Y005867D01*
X020471Y005868D01*
X020458Y005873D01*
X020447Y005880D01*
X020438Y005891D01*
X020433Y005904D01*
X020431Y005917D01*
X020431Y006917D02*
X020433Y006930D01*
X020438Y006943D01*
X020447Y006954D01*
X020458Y006961D01*
X020471Y006966D01*
X020484Y006967D01*
X020498Y006964D01*
X020510Y006958D01*
X020520Y006949D01*
X020527Y006937D01*
X020531Y006924D01*
X020531Y006910D01*
X020527Y006897D01*
X020520Y006885D01*
X020510Y006876D01*
X020498Y006870D01*
X020484Y006867D01*
X020471Y006868D01*
X020458Y006873D01*
X020447Y006880D01*
X020438Y006891D01*
X020433Y006904D01*
X020431Y006917D01*
X019431Y006917D02*
X019433Y006930D01*
X019438Y006943D01*
X019447Y006954D01*
X019458Y006961D01*
X019471Y006966D01*
X019484Y006967D01*
X019498Y006964D01*
X019510Y006958D01*
X019520Y006949D01*
X019527Y006937D01*
X019531Y006924D01*
X019531Y006910D01*
X019527Y006897D01*
X019520Y006885D01*
X019510Y006876D01*
X019498Y006870D01*
X019484Y006867D01*
X019471Y006868D01*
X019458Y006873D01*
X019447Y006880D01*
X019438Y006891D01*
X019433Y006904D01*
X019431Y006917D01*
X019431Y007917D02*
X019433Y007930D01*
X019438Y007943D01*
X019447Y007954D01*
X019458Y007961D01*
X019471Y007966D01*
X019484Y007967D01*
X019498Y007964D01*
X019510Y007958D01*
X019520Y007949D01*
X019527Y007937D01*
X019531Y007924D01*
X019531Y007910D01*
X019527Y007897D01*
X019520Y007885D01*
X019510Y007876D01*
X019498Y007870D01*
X019484Y007867D01*
X019471Y007868D01*
X019458Y007873D01*
X019447Y007880D01*
X019438Y007891D01*
X019433Y007904D01*
X019431Y007917D01*
X019431Y008917D02*
X019433Y008930D01*
X019438Y008943D01*
X019447Y008954D01*
X019458Y008961D01*
X019471Y008966D01*
X019484Y008967D01*
X019498Y008964D01*
X019510Y008958D01*
X019520Y008949D01*
X019527Y008937D01*
X019531Y008924D01*
X019531Y008910D01*
X019527Y008897D01*
X019520Y008885D01*
X019510Y008876D01*
X019498Y008870D01*
X019484Y008867D01*
X019471Y008868D01*
X019458Y008873D01*
X019447Y008880D01*
X019438Y008891D01*
X019433Y008904D01*
X019431Y008917D01*
X020431Y008917D02*
X020433Y008930D01*
X020438Y008943D01*
X020447Y008954D01*
X020458Y008961D01*
X020471Y008966D01*
X020484Y008967D01*
X020498Y008964D01*
X020510Y008958D01*
X020520Y008949D01*
X020527Y008937D01*
X020531Y008924D01*
X020531Y008910D01*
X020527Y008897D01*
X020520Y008885D01*
X020510Y008876D01*
X020498Y008870D01*
X020484Y008867D01*
X020471Y008868D01*
X020458Y008873D01*
X020447Y008880D01*
X020438Y008891D01*
X020433Y008904D01*
X020431Y008917D01*
X020431Y007917D02*
X020433Y007930D01*
X020438Y007943D01*
X020447Y007954D01*
X020458Y007961D01*
X020471Y007966D01*
X020484Y007967D01*
X020498Y007964D01*
X020510Y007958D01*
X020520Y007949D01*
X020527Y007937D01*
X020531Y007924D01*
X020531Y007910D01*
X020527Y007897D01*
X020520Y007885D01*
X020510Y007876D01*
X020498Y007870D01*
X020484Y007867D01*
X020471Y007868D01*
X020458Y007873D01*
X020447Y007880D01*
X020438Y007891D01*
X020433Y007904D01*
X020431Y007917D01*
X013181Y005767D02*
X010781Y005767D01*
X010724Y005765D01*
X010668Y005759D01*
X010612Y005750D01*
X010556Y005737D01*
X010502Y005720D01*
X010449Y005700D01*
X010398Y005676D01*
X010348Y005648D01*
X010300Y005618D01*
X010254Y005584D01*
X010211Y005547D01*
X010170Y005508D01*
X010132Y005466D01*
X010097Y005421D01*
X010065Y005374D01*
X010036Y005325D01*
X010010Y005275D01*
X009988Y005222D01*
X009969Y005169D01*
X009954Y005114D01*
X009943Y005058D01*
X009935Y005002D01*
X009931Y004945D01*
X009931Y004889D01*
X009935Y004832D01*
X009943Y004776D01*
X009954Y004720D01*
X009969Y004665D01*
X009988Y004612D01*
X010010Y004559D01*
X010036Y004509D01*
X010065Y004460D01*
X010097Y004413D01*
X010132Y004368D01*
X010170Y004326D01*
X010211Y004287D01*
X010254Y004250D01*
X010300Y004216D01*
X010348Y004186D01*
X010398Y004158D01*
X010449Y004134D01*
X010502Y004114D01*
X010556Y004097D01*
X010612Y004084D01*
X010668Y004075D01*
X010724Y004069D01*
X010781Y004067D01*
X013181Y004067D01*
X013238Y004069D01*
X013294Y004075D01*
X013350Y004084D01*
X013406Y004097D01*
X013460Y004114D01*
X013513Y004134D01*
X013564Y004158D01*
X013614Y004186D01*
X013662Y004216D01*
X013708Y004250D01*
X013751Y004287D01*
X013792Y004326D01*
X013830Y004368D01*
X013865Y004413D01*
X013897Y004460D01*
X013926Y004509D01*
X013952Y004559D01*
X013974Y004612D01*
X013993Y004665D01*
X014008Y004720D01*
X014019Y004776D01*
X014027Y004832D01*
X014031Y004889D01*
X014031Y004945D01*
X014027Y005002D01*
X014019Y005058D01*
X014008Y005114D01*
X013993Y005169D01*
X013974Y005222D01*
X013952Y005275D01*
X013926Y005325D01*
X013897Y005374D01*
X013865Y005421D01*
X013830Y005466D01*
X013792Y005508D01*
X013751Y005547D01*
X013708Y005584D01*
X013662Y005618D01*
X013614Y005648D01*
X013564Y005676D01*
X013513Y005700D01*
X013460Y005720D01*
X013406Y005737D01*
X013350Y005750D01*
X013294Y005759D01*
X013238Y005765D01*
X013181Y005767D01*
X008701Y004637D02*
X008681Y004617D01*
X008681Y004517D01*
X008281Y004467D02*
X008281Y004617D01*
X008261Y004637D01*
X003431Y010917D02*
X003433Y010930D01*
X003438Y010943D01*
X003447Y010954D01*
X003458Y010961D01*
X003471Y010966D01*
X003484Y010967D01*
X003498Y010964D01*
X003510Y010958D01*
X003520Y010949D01*
X003527Y010937D01*
X003531Y010924D01*
X003531Y010910D01*
X003527Y010897D01*
X003520Y010885D01*
X003510Y010876D01*
X003498Y010870D01*
X003484Y010867D01*
X003471Y010868D01*
X003458Y010873D01*
X003447Y010880D01*
X003438Y010891D01*
X003433Y010904D01*
X003431Y010917D01*
X003431Y011917D02*
X003433Y011930D01*
X003438Y011943D01*
X003447Y011954D01*
X003458Y011961D01*
X003471Y011966D01*
X003484Y011967D01*
X003498Y011964D01*
X003510Y011958D01*
X003520Y011949D01*
X003527Y011937D01*
X003531Y011924D01*
X003531Y011910D01*
X003527Y011897D01*
X003520Y011885D01*
X003510Y011876D01*
X003498Y011870D01*
X003484Y011867D01*
X003471Y011868D01*
X003458Y011873D01*
X003447Y011880D01*
X003438Y011891D01*
X003433Y011904D01*
X003431Y011917D01*
X002431Y011917D02*
X002433Y011930D01*
X002438Y011943D01*
X002447Y011954D01*
X002458Y011961D01*
X002471Y011966D01*
X002484Y011967D01*
X002498Y011964D01*
X002510Y011958D01*
X002520Y011949D01*
X002527Y011937D01*
X002531Y011924D01*
X002531Y011910D01*
X002527Y011897D01*
X002520Y011885D01*
X002510Y011876D01*
X002498Y011870D01*
X002484Y011867D01*
X002471Y011868D01*
X002458Y011873D01*
X002447Y011880D01*
X002438Y011891D01*
X002433Y011904D01*
X002431Y011917D01*
X002431Y010917D02*
X002433Y010930D01*
X002438Y010943D01*
X002447Y010954D01*
X002458Y010961D01*
X002471Y010966D01*
X002484Y010967D01*
X002498Y010964D01*
X002510Y010958D01*
X002520Y010949D01*
X002527Y010937D01*
X002531Y010924D01*
X002531Y010910D01*
X002527Y010897D01*
X002520Y010885D01*
X002510Y010876D01*
X002498Y010870D01*
X002484Y010867D01*
X002471Y010868D01*
X002458Y010873D01*
X002447Y010880D01*
X002438Y010891D01*
X002433Y010904D01*
X002431Y010917D01*
X002431Y012917D02*
X002433Y012930D01*
X002438Y012943D01*
X002447Y012954D01*
X002458Y012961D01*
X002471Y012966D01*
X002484Y012967D01*
X002498Y012964D01*
X002510Y012958D01*
X002520Y012949D01*
X002527Y012937D01*
X002531Y012924D01*
X002531Y012910D01*
X002527Y012897D01*
X002520Y012885D01*
X002510Y012876D01*
X002498Y012870D01*
X002484Y012867D01*
X002471Y012868D01*
X002458Y012873D01*
X002447Y012880D01*
X002438Y012891D01*
X002433Y012904D01*
X002431Y012917D01*
X002431Y013917D02*
X002433Y013930D01*
X002438Y013943D01*
X002447Y013954D01*
X002458Y013961D01*
X002471Y013966D01*
X002484Y013967D01*
X002498Y013964D01*
X002510Y013958D01*
X002520Y013949D01*
X002527Y013937D01*
X002531Y013924D01*
X002531Y013910D01*
X002527Y013897D01*
X002520Y013885D01*
X002510Y013876D01*
X002498Y013870D01*
X002484Y013867D01*
X002471Y013868D01*
X002458Y013873D01*
X002447Y013880D01*
X002438Y013891D01*
X002433Y013904D01*
X002431Y013917D01*
X002431Y014917D02*
X002433Y014930D01*
X002438Y014943D01*
X002447Y014954D01*
X002458Y014961D01*
X002471Y014966D01*
X002484Y014967D01*
X002498Y014964D01*
X002510Y014958D01*
X002520Y014949D01*
X002527Y014937D01*
X002531Y014924D01*
X002531Y014910D01*
X002527Y014897D01*
X002520Y014885D01*
X002510Y014876D01*
X002498Y014870D01*
X002484Y014867D01*
X002471Y014868D01*
X002458Y014873D01*
X002447Y014880D01*
X002438Y014891D01*
X002433Y014904D01*
X002431Y014917D01*
X003431Y014917D02*
X003433Y014930D01*
X003438Y014943D01*
X003447Y014954D01*
X003458Y014961D01*
X003471Y014966D01*
X003484Y014967D01*
X003498Y014964D01*
X003510Y014958D01*
X003520Y014949D01*
X003527Y014937D01*
X003531Y014924D01*
X003531Y014910D01*
X003527Y014897D01*
X003520Y014885D01*
X003510Y014876D01*
X003498Y014870D01*
X003484Y014867D01*
X003471Y014868D01*
X003458Y014873D01*
X003447Y014880D01*
X003438Y014891D01*
X003433Y014904D01*
X003431Y014917D01*
X003431Y013917D02*
X003433Y013930D01*
X003438Y013943D01*
X003447Y013954D01*
X003458Y013961D01*
X003471Y013966D01*
X003484Y013967D01*
X003498Y013964D01*
X003510Y013958D01*
X003520Y013949D01*
X003527Y013937D01*
X003531Y013924D01*
X003531Y013910D01*
X003527Y013897D01*
X003520Y013885D01*
X003510Y013876D01*
X003498Y013870D01*
X003484Y013867D01*
X003471Y013868D01*
X003458Y013873D01*
X003447Y013880D01*
X003438Y013891D01*
X003433Y013904D01*
X003431Y013917D01*
X003431Y012917D02*
X003433Y012930D01*
X003438Y012943D01*
X003447Y012954D01*
X003458Y012961D01*
X003471Y012966D01*
X003484Y012967D01*
X003498Y012964D01*
X003510Y012958D01*
X003520Y012949D01*
X003527Y012937D01*
X003531Y012924D01*
X003531Y012910D01*
X003527Y012897D01*
X003520Y012885D01*
X003510Y012876D01*
X003498Y012870D01*
X003484Y012867D01*
X003471Y012868D01*
X003458Y012873D01*
X003447Y012880D01*
X003438Y012891D01*
X003433Y012904D01*
X003431Y012917D01*
X016431Y015417D02*
X016433Y015430D01*
X016438Y015443D01*
X016447Y015454D01*
X016458Y015461D01*
X016471Y015466D01*
X016484Y015467D01*
X016498Y015464D01*
X016510Y015458D01*
X016520Y015449D01*
X016527Y015437D01*
X016531Y015424D01*
X016531Y015410D01*
X016527Y015397D01*
X016520Y015385D01*
X016510Y015376D01*
X016498Y015370D01*
X016484Y015367D01*
X016471Y015368D01*
X016458Y015373D01*
X016447Y015380D01*
X016438Y015391D01*
X016433Y015404D01*
X016431Y015417D01*
X016431Y016417D02*
X016433Y016430D01*
X016438Y016443D01*
X016447Y016454D01*
X016458Y016461D01*
X016471Y016466D01*
X016484Y016467D01*
X016498Y016464D01*
X016510Y016458D01*
X016520Y016449D01*
X016527Y016437D01*
X016531Y016424D01*
X016531Y016410D01*
X016527Y016397D01*
X016520Y016385D01*
X016510Y016376D01*
X016498Y016370D01*
X016484Y016367D01*
X016471Y016368D01*
X016458Y016373D01*
X016447Y016380D01*
X016438Y016391D01*
X016433Y016404D01*
X016431Y016417D01*
X017431Y016417D02*
X017433Y016430D01*
X017438Y016443D01*
X017447Y016454D01*
X017458Y016461D01*
X017471Y016466D01*
X017484Y016467D01*
X017498Y016464D01*
X017510Y016458D01*
X017520Y016449D01*
X017527Y016437D01*
X017531Y016424D01*
X017531Y016410D01*
X017527Y016397D01*
X017520Y016385D01*
X017510Y016376D01*
X017498Y016370D01*
X017484Y016367D01*
X017471Y016368D01*
X017458Y016373D01*
X017447Y016380D01*
X017438Y016391D01*
X017433Y016404D01*
X017431Y016417D01*
X017431Y015417D02*
X017433Y015430D01*
X017438Y015443D01*
X017447Y015454D01*
X017458Y015461D01*
X017471Y015466D01*
X017484Y015467D01*
X017498Y015464D01*
X017510Y015458D01*
X017520Y015449D01*
X017527Y015437D01*
X017531Y015424D01*
X017531Y015410D01*
X017527Y015397D01*
X017520Y015385D01*
X017510Y015376D01*
X017498Y015370D01*
X017484Y015367D01*
X017471Y015368D01*
X017458Y015373D01*
X017447Y015380D01*
X017438Y015391D01*
X017433Y015404D01*
X017431Y015417D01*
X018431Y015417D02*
X018433Y015430D01*
X018438Y015443D01*
X018447Y015454D01*
X018458Y015461D01*
X018471Y015466D01*
X018484Y015467D01*
X018498Y015464D01*
X018510Y015458D01*
X018520Y015449D01*
X018527Y015437D01*
X018531Y015424D01*
X018531Y015410D01*
X018527Y015397D01*
X018520Y015385D01*
X018510Y015376D01*
X018498Y015370D01*
X018484Y015367D01*
X018471Y015368D01*
X018458Y015373D01*
X018447Y015380D01*
X018438Y015391D01*
X018433Y015404D01*
X018431Y015417D01*
X018431Y016417D02*
X018433Y016430D01*
X018438Y016443D01*
X018447Y016454D01*
X018458Y016461D01*
X018471Y016466D01*
X018484Y016467D01*
X018498Y016464D01*
X018510Y016458D01*
X018520Y016449D01*
X018527Y016437D01*
X018531Y016424D01*
X018531Y016410D01*
X018527Y016397D01*
X018520Y016385D01*
X018510Y016376D01*
X018498Y016370D01*
X018484Y016367D01*
X018471Y016368D01*
X018458Y016373D01*
X018447Y016380D01*
X018438Y016391D01*
X018433Y016404D01*
X018431Y016417D01*
X019431Y016417D02*
X019433Y016430D01*
X019438Y016443D01*
X019447Y016454D01*
X019458Y016461D01*
X019471Y016466D01*
X019484Y016467D01*
X019498Y016464D01*
X019510Y016458D01*
X019520Y016449D01*
X019527Y016437D01*
X019531Y016424D01*
X019531Y016410D01*
X019527Y016397D01*
X019520Y016385D01*
X019510Y016376D01*
X019498Y016370D01*
X019484Y016367D01*
X019471Y016368D01*
X019458Y016373D01*
X019447Y016380D01*
X019438Y016391D01*
X019433Y016404D01*
X019431Y016417D01*
X019431Y015417D02*
X019433Y015430D01*
X019438Y015443D01*
X019447Y015454D01*
X019458Y015461D01*
X019471Y015466D01*
X019484Y015467D01*
X019498Y015464D01*
X019510Y015458D01*
X019520Y015449D01*
X019527Y015437D01*
X019531Y015424D01*
X019531Y015410D01*
X019527Y015397D01*
X019520Y015385D01*
X019510Y015376D01*
X019498Y015370D01*
X019484Y015367D01*
X019471Y015368D01*
X019458Y015373D01*
X019447Y015380D01*
X019438Y015391D01*
X019433Y015404D01*
X019431Y015417D01*
X020431Y015417D02*
X020433Y015430D01*
X020438Y015443D01*
X020447Y015454D01*
X020458Y015461D01*
X020471Y015466D01*
X020484Y015467D01*
X020498Y015464D01*
X020510Y015458D01*
X020520Y015449D01*
X020527Y015437D01*
X020531Y015424D01*
X020531Y015410D01*
X020527Y015397D01*
X020520Y015385D01*
X020510Y015376D01*
X020498Y015370D01*
X020484Y015367D01*
X020471Y015368D01*
X020458Y015373D01*
X020447Y015380D01*
X020438Y015391D01*
X020433Y015404D01*
X020431Y015417D01*
X020431Y016417D02*
X020433Y016430D01*
X020438Y016443D01*
X020447Y016454D01*
X020458Y016461D01*
X020471Y016466D01*
X020484Y016467D01*
X020498Y016464D01*
X020510Y016458D01*
X020520Y016449D01*
X020527Y016437D01*
X020531Y016424D01*
X020531Y016410D01*
X020527Y016397D01*
X020520Y016385D01*
X020510Y016376D01*
X020498Y016370D01*
X020484Y016367D01*
X020471Y016368D01*
X020458Y016373D01*
X020447Y016380D01*
X020438Y016391D01*
X020433Y016404D01*
X020431Y016417D01*
D14*
X008681Y004402D03*
X008281Y004402D03*
D15*
X002658Y004671D02*
X002304Y004671D01*
X002304Y005163D02*
X002668Y005163D01*
X002658Y005671D02*
X002304Y005671D01*
X002304Y006163D02*
X002668Y006163D01*
X002658Y006671D02*
X002304Y006671D01*
X002304Y007163D02*
X002668Y007163D01*
X003835Y016872D02*
X003912Y016949D01*
X003912Y017026D01*
X003835Y017102D01*
X003451Y017102D01*
X003451Y017026D02*
X003451Y017179D01*
X003605Y017333D02*
X003451Y017486D01*
X003912Y017486D01*
X003912Y017333D02*
X003912Y017639D01*
X003177Y018090D02*
X003177Y018744D01*
X003178Y018744D02*
X003175Y018762D01*
X003168Y018779D01*
X003159Y018794D01*
X003146Y018807D01*
X003131Y018816D01*
X003114Y018823D01*
X003096Y018826D01*
X003096Y018825D02*
X001501Y018907D01*
X001485Y018905D01*
X001470Y018901D01*
X001455Y018893D01*
X001443Y018883D01*
X001433Y018871D01*
X001425Y018856D01*
X001421Y018841D01*
X001419Y018825D01*
X001420Y018825D02*
X001420Y018825D01*
X001419Y018825D02*
X001421Y018809D01*
X001425Y018794D01*
X001433Y018779D01*
X001443Y018767D01*
X001455Y018757D01*
X001470Y018749D01*
X001485Y018745D01*
X001501Y018743D01*
X001501Y018744D02*
X002850Y018662D01*
X002850Y018171D01*
X001501Y018090D01*
X001485Y018088D01*
X001470Y018084D01*
X001455Y018076D01*
X001443Y018066D01*
X001433Y018054D01*
X001425Y018039D01*
X001421Y018024D01*
X001419Y018008D01*
X001421Y017992D01*
X001425Y017977D01*
X001433Y017962D01*
X001443Y017950D01*
X001455Y017940D01*
X001470Y017932D01*
X001485Y017928D01*
X001501Y017926D01*
X003096Y018008D01*
X003096Y018007D02*
X003114Y018010D01*
X003131Y018017D01*
X003146Y018026D01*
X003159Y018039D01*
X003168Y018054D01*
X003175Y018071D01*
X003178Y018089D01*
X002585Y017824D02*
X002585Y017742D01*
X001644Y017640D01*
X001644Y017436D01*
X002585Y017334D01*
X002585Y017252D01*
X001501Y017334D01*
X001501Y017333D02*
X001482Y017337D01*
X001463Y017343D01*
X001446Y017353D01*
X001430Y017365D01*
X001417Y017380D01*
X001406Y017397D01*
X001399Y017415D01*
X001399Y017640D02*
X001406Y017658D01*
X001417Y017675D01*
X001430Y017690D01*
X001446Y017702D01*
X001463Y017712D01*
X001482Y017718D01*
X001501Y017722D01*
X002585Y017824D01*
X001400Y017640D02*
X001391Y017603D01*
X001385Y017566D01*
X001383Y017528D01*
X001385Y017490D01*
X001391Y017453D01*
X001400Y017416D01*
X001501Y019112D02*
X002585Y019009D01*
X002585Y019091D01*
X001644Y019193D01*
X001644Y019398D01*
X002585Y019500D01*
X002585Y019582D01*
X001501Y019500D01*
X001482Y019496D01*
X001463Y019490D01*
X001446Y019480D01*
X001430Y019468D01*
X001417Y019453D01*
X001406Y019436D01*
X001399Y019418D01*
X001399Y019193D02*
X001406Y019175D01*
X001417Y019158D01*
X001430Y019143D01*
X001446Y019131D01*
X001463Y019121D01*
X001482Y019115D01*
X001501Y019111D01*
X001400Y019194D02*
X001391Y019231D01*
X001385Y019268D01*
X001383Y019306D01*
X001385Y019344D01*
X001391Y019381D01*
X001400Y019418D01*
X012410Y010552D02*
X012410Y010399D01*
X012487Y010322D01*
X012410Y010169D02*
X012794Y010169D01*
X012871Y010092D01*
X012871Y009939D01*
X012794Y009862D01*
X012410Y009862D01*
X012871Y010322D02*
X012564Y010629D01*
X012487Y010629D01*
X012410Y010552D01*
X012871Y010629D02*
X012871Y010322D01*
X013778Y018787D02*
X014018Y018787D01*
X014146Y018787D02*
X014146Y019147D01*
X014386Y019147D01*
X014514Y019147D02*
X014695Y019147D01*
X014755Y019087D01*
X014755Y018847D01*
X014695Y018787D01*
X014514Y018787D01*
X014514Y019147D01*
X014266Y018967D02*
X014146Y018967D01*
X014146Y018787D02*
X014386Y018787D01*
X014883Y018847D02*
X014943Y018787D01*
X015063Y018787D01*
X015123Y018847D01*
X015123Y018967D01*
X015063Y019027D01*
X015003Y019027D01*
X014883Y018967D01*
X014883Y019147D01*
X015123Y019147D01*
X015804Y019671D02*
X016158Y019671D01*
X016168Y020163D02*
X015804Y020163D01*
X013778Y019147D02*
X013778Y018787D01*
D16*
X015922Y019680D03*
X015922Y020153D03*
X002422Y007153D03*
X002422Y006680D03*
X002422Y006153D03*
X002422Y005680D03*
X002422Y005153D03*
X002422Y004680D03*
D17*
X002422Y004917D03*
X002422Y005917D03*
X002422Y006917D03*
X015922Y019917D03*
D18*
X015686Y019917D03*
X016276Y019917D03*
X002776Y006917D03*
X002186Y006917D03*
X002186Y005917D03*
X002776Y005917D03*
X002776Y004917D03*
X002186Y004917D03*
D19*
X002412Y005227D03*
X002412Y005607D03*
X002412Y006227D03*
X002412Y006607D03*
X002412Y007227D03*
X002412Y004607D03*
X015912Y019607D03*
X015912Y020227D03*
D20*
X016705Y019917D03*
X003205Y006917D03*
X003205Y005917D03*
X003205Y004917D03*
D21*
X001694Y004917D03*
X001694Y005917D03*
X001694Y006917D03*
X015194Y019917D03*
D22*
X015682Y003917D03*
X016280Y003917D03*
X013030Y003417D03*
X012432Y003417D03*
X011530Y003417D03*
X010932Y003417D03*
D23*
X008481Y007602D03*
X008481Y008232D03*
X005981Y015602D03*
X005981Y016232D03*
X004981Y016232D03*
X004981Y015602D03*
X018731Y010732D03*
X018731Y010102D03*
D24*
X013296Y006417D03*
X012666Y006417D03*
X011296Y006417D03*
X010666Y006417D03*
X004796Y007917D03*
X004166Y007917D03*
X004166Y008917D03*
X004796Y008917D03*
X004796Y009917D03*
X004166Y009917D03*
X004296Y006917D03*
X003666Y006917D03*
X003666Y005917D03*
X004296Y005917D03*
X004296Y004917D03*
X003666Y004917D03*
X005666Y017917D03*
X006296Y017917D03*
X006296Y018667D03*
X005666Y018667D03*
X015666Y018917D03*
X016296Y018917D03*
D25*
X017481Y019917D03*
X018481Y019917D03*
X019481Y019917D03*
X020481Y019917D03*
X020481Y012417D03*
X020481Y011417D03*
X020481Y010417D03*
X010731Y013667D03*
X009731Y013667D03*
X008731Y013667D03*
X007731Y013667D03*
X009731Y008917D03*
X009731Y007917D03*
X007481Y007917D03*
X007481Y006917D03*
X007481Y005917D03*
D26*
X007481Y003216D03*
X007481Y002617D03*
X009481Y002617D03*
X009481Y003216D03*
D27*
X009981Y001617D03*
X009981Y001217D03*
X010981Y001217D03*
X010981Y001617D03*
X012981Y001617D03*
X012981Y001217D03*
X013981Y001217D03*
X013981Y001617D03*
X014981Y001617D03*
X014981Y001217D03*
X015981Y001217D03*
X015981Y001617D03*
X014481Y019717D03*
X014481Y020117D03*
X013481Y020117D03*
X013481Y019717D03*
X012481Y019717D03*
X012481Y020117D03*
X011481Y020117D03*
X011481Y019717D03*
X008481Y019717D03*
X008481Y020117D03*
X007481Y020117D03*
X007481Y019717D03*
X006481Y019717D03*
X006481Y020117D03*
X005481Y020117D03*
X005481Y019717D03*
D28*
X005781Y007417D03*
X006181Y007417D03*
X006181Y006417D03*
X005781Y006417D03*
X005781Y005417D03*
X006181Y005417D03*
X006181Y004417D03*
X005781Y004417D03*
X005781Y003417D03*
X006181Y003417D03*
X006181Y002417D03*
X005781Y002417D03*
D29*
X012011Y009078D02*
X014452Y009078D01*
X014570Y009196D01*
X014570Y011637D01*
X014452Y011755D01*
X012011Y011755D01*
X011893Y011637D01*
X011893Y009196D01*
X012011Y009078D01*
D30*
X012247Y009432D03*
D31*
X012345Y008901D03*
X012148Y008901D03*
X012542Y008901D03*
X012739Y008901D03*
X012936Y008901D03*
X013133Y008901D03*
X013330Y008901D03*
X013526Y008901D03*
X013723Y008901D03*
X013920Y008901D03*
X014117Y008901D03*
X014314Y008901D03*
X014314Y011932D03*
X014117Y011932D03*
X013920Y011932D03*
X013723Y011932D03*
X013526Y011932D03*
X013330Y011932D03*
X013133Y011932D03*
X012936Y011932D03*
X012739Y011932D03*
X012542Y011932D03*
X012345Y011932D03*
X012148Y011932D03*
D32*
X011715Y011499D03*
X011715Y011302D03*
X011715Y011106D03*
X011715Y010909D03*
X011715Y010712D03*
X011715Y010515D03*
X011715Y010318D03*
X011715Y010121D03*
X011715Y009925D03*
X011715Y009728D03*
X011715Y009531D03*
X011715Y009334D03*
X014747Y009334D03*
X014747Y009531D03*
X014747Y009728D03*
X014747Y009925D03*
X014747Y010121D03*
X014747Y010318D03*
X014747Y010515D03*
X014747Y010712D03*
X014747Y010909D03*
X014747Y011106D03*
X014747Y011302D03*
X014747Y011499D03*
D33*
X011853Y008842D03*
D34*
X009124Y018222D03*
X013838Y018361D03*
D35*
X014051Y017917D03*
X015411Y017917D03*
X008911Y018667D03*
X007551Y018667D03*
M02*
