G75*
G70*
%OFA0B0*%
%FSLAX24Y24*%
%IPPOS*%
%LPD*%
%AMOC8*
5,1,8,0,0,1.08239X$1,22.5*
%
%ADD10C,0.0000*%
%ADD11C,0.0560*%
%ADD12C,0.0660*%
%ADD13C,0.0516*%
%ADD14R,0.0516X0.0516*%
%ADD15R,0.0571X0.0453*%
%ADD16R,0.0453X0.0571*%
%ADD17C,0.0740*%
%ADD18R,0.0660X0.0660*%
%ADD19C,0.0787*%
%ADD20C,0.0356*%
%ADD21C,0.0120*%
%ADD22C,0.0240*%
%ADD23C,0.0317*%
%ADD24C,0.0320*%
%ADD25C,0.0160*%
%ADD26C,0.0472*%
D10*
X001481Y000917D02*
X001481Y020602D01*
X021166Y020602D01*
X021166Y000917D01*
X001481Y000917D01*
D11*
X011031Y004917D03*
X012931Y004917D03*
D12*
X009731Y007917D03*
X007481Y006917D03*
X007481Y005917D03*
X007981Y004917D03*
X008981Y004917D03*
X005981Y005417D03*
X005981Y006417D03*
X005981Y007417D03*
X005981Y004417D03*
X005981Y003417D03*
X005981Y002417D03*
X010981Y001417D03*
X012981Y001417D03*
X013981Y001417D03*
X014981Y001417D03*
X019481Y005917D03*
X019481Y006917D03*
X019481Y007917D03*
X019481Y008917D03*
X020481Y008917D03*
X020481Y007917D03*
X020481Y006917D03*
X020481Y005917D03*
X020481Y004917D03*
X020481Y010417D03*
X020481Y011417D03*
X019481Y015417D03*
X019481Y016417D03*
X018481Y016417D03*
X017481Y016417D03*
X017481Y015417D03*
X018481Y015417D03*
X016481Y015417D03*
X016481Y016417D03*
X014481Y019917D03*
X013481Y019917D03*
X012481Y019917D03*
X007481Y019917D03*
X006481Y019917D03*
X005481Y019917D03*
X003481Y014917D03*
X003481Y013917D03*
X002481Y013917D03*
X002481Y014917D03*
X002481Y012917D03*
X003481Y012917D03*
X003481Y011917D03*
X003481Y010917D03*
X002481Y011917D03*
X008731Y013667D03*
X009731Y013667D03*
X010731Y013667D03*
X018481Y019917D03*
X019481Y019917D03*
X020481Y019917D03*
X020481Y016417D03*
D13*
X004761Y017787D03*
X004249Y018102D03*
X004761Y018417D03*
X004249Y018732D03*
X004761Y019047D03*
X003137Y009409D03*
X003137Y008425D03*
X002350Y007932D03*
D14*
X002350Y008917D03*
D15*
X010481Y009562D03*
X010481Y010271D03*
X011481Y011062D03*
X011481Y011771D03*
D16*
X014127Y011917D03*
X014835Y011917D03*
X015085Y008417D03*
X014377Y008417D03*
X011335Y007417D03*
X010627Y007417D03*
D17*
X004561Y003307D03*
X004561Y001527D03*
X002001Y001527D03*
X002001Y003307D03*
X017951Y003307D03*
X017951Y001527D03*
X020511Y001527D03*
X020511Y003307D03*
D18*
X019481Y004917D03*
X015981Y001417D03*
X009981Y001417D03*
X005981Y001417D03*
X007481Y007917D03*
X009731Y008917D03*
X007731Y013667D03*
X002481Y010917D03*
X008481Y019917D03*
X011481Y019917D03*
X017481Y019917D03*
X020481Y015417D03*
X020481Y012417D03*
D19*
X002891Y016960D02*
X002103Y016960D01*
X002103Y019873D02*
X002891Y019873D01*
D20*
X008481Y015917D03*
X009481Y016917D03*
X008981Y017917D03*
X010981Y017417D03*
X012481Y016417D03*
X013981Y015917D03*
X012981Y018917D03*
X009981Y019917D03*
X011981Y012417D03*
X015481Y011667D03*
X018731Y011667D03*
X018981Y017417D03*
X010981Y009167D03*
X011731Y008167D03*
X008481Y008917D03*
X007481Y008917D03*
X008231Y010167D03*
X003481Y008917D03*
D21*
X008174Y015484D02*
X008174Y019427D01*
X008877Y019427D01*
X008971Y019520D01*
X008971Y020313D01*
X008877Y020407D01*
X008174Y020407D01*
X008174Y020442D01*
X014473Y020442D01*
X014473Y019937D01*
X014461Y019937D01*
X014461Y020407D01*
X014443Y020407D01*
X014366Y020395D01*
X014293Y020371D01*
X014224Y020336D01*
X014162Y020290D01*
X014107Y020236D01*
X014062Y020173D01*
X014027Y020105D01*
X014003Y020031D01*
X013991Y019955D01*
X013991Y019937D01*
X014461Y019937D01*
X014461Y019897D01*
X013991Y019897D01*
X013991Y019878D01*
X014003Y019802D01*
X014027Y019729D01*
X014062Y019660D01*
X014107Y019597D01*
X014162Y019543D01*
X014224Y019498D01*
X014293Y019463D01*
X014366Y019439D01*
X014443Y019427D01*
X014461Y019427D01*
X014461Y019897D01*
X014473Y019897D01*
X014473Y015484D01*
X008174Y015484D01*
X008174Y015492D02*
X014473Y015492D01*
X014473Y015611D02*
X008174Y015611D01*
X008174Y015729D02*
X014473Y015729D01*
X014473Y015848D02*
X008174Y015848D01*
X008174Y015966D02*
X014473Y015966D01*
X014473Y016085D02*
X008174Y016085D01*
X008174Y016203D02*
X014473Y016203D01*
X014473Y016322D02*
X008174Y016322D01*
X008174Y016440D02*
X014473Y016440D01*
X014473Y016559D02*
X008174Y016559D01*
X008174Y016677D02*
X014473Y016677D01*
X014473Y016796D02*
X008174Y016796D01*
X008174Y016914D02*
X014473Y016914D01*
X014473Y017033D02*
X008174Y017033D01*
X008174Y017151D02*
X014473Y017151D01*
X014473Y017270D02*
X008174Y017270D01*
X008174Y017388D02*
X014473Y017388D01*
X014473Y017507D02*
X008174Y017507D01*
X008174Y017625D02*
X014473Y017625D01*
X014473Y017744D02*
X008174Y017744D01*
X008174Y017862D02*
X014473Y017862D01*
X014473Y017981D02*
X008174Y017981D01*
X008174Y018099D02*
X014473Y018099D01*
X014473Y018218D02*
X008174Y018218D01*
X008174Y018336D02*
X014473Y018336D01*
X014473Y018455D02*
X008174Y018455D01*
X008174Y018573D02*
X014473Y018573D01*
X014473Y018692D02*
X008174Y018692D01*
X008174Y018810D02*
X014473Y018810D01*
X014473Y018929D02*
X008174Y018929D01*
X008174Y019047D02*
X014473Y019047D01*
X014473Y019166D02*
X008174Y019166D01*
X008174Y019284D02*
X014473Y019284D01*
X014473Y019403D02*
X008174Y019403D01*
X008971Y019521D02*
X011004Y019521D01*
X011002Y019525D02*
X011023Y019488D01*
X011053Y019459D01*
X011089Y019438D01*
X011130Y019427D01*
X011461Y019427D01*
X011461Y019897D01*
X010991Y019897D01*
X010991Y019566D01*
X011002Y019525D01*
X010991Y019640D02*
X008971Y019640D01*
X008971Y019758D02*
X010991Y019758D01*
X010991Y019877D02*
X008971Y019877D01*
X008971Y019995D02*
X010991Y019995D01*
X010991Y019937D02*
X010991Y020268D01*
X011002Y020308D01*
X011023Y020345D01*
X011053Y020375D01*
X011089Y020396D01*
X011130Y020407D01*
X011461Y020407D01*
X011461Y019937D01*
X011501Y019937D01*
X011501Y020407D01*
X011832Y020407D01*
X011873Y020396D01*
X011909Y020375D01*
X011939Y020345D01*
X011960Y020308D01*
X011971Y020268D01*
X011971Y019937D01*
X011501Y019937D01*
X011501Y019897D01*
X011971Y019897D01*
X011971Y019566D01*
X011960Y019525D01*
X011939Y019488D01*
X011909Y019459D01*
X011873Y019438D01*
X011832Y019427D01*
X011501Y019427D01*
X011501Y019897D01*
X011461Y019897D01*
X011461Y019937D01*
X010991Y019937D01*
X010991Y020114D02*
X008971Y020114D01*
X008971Y020232D02*
X010991Y020232D01*
X011029Y020351D02*
X008933Y020351D01*
X011461Y020351D02*
X011501Y020351D01*
X011501Y020232D02*
X011461Y020232D01*
X011461Y020114D02*
X011501Y020114D01*
X011501Y019995D02*
X011461Y019995D01*
X011461Y019877D02*
X011501Y019877D01*
X011501Y019758D02*
X011461Y019758D01*
X011461Y019640D02*
X011501Y019640D01*
X011501Y019521D02*
X011461Y019521D01*
X011958Y019521D02*
X012192Y019521D01*
X012162Y019543D02*
X012224Y019498D01*
X012293Y019463D01*
X012366Y019439D01*
X012443Y019427D01*
X012461Y019427D01*
X012461Y019897D01*
X011991Y019897D01*
X011991Y019878D01*
X012003Y019802D01*
X012027Y019729D01*
X012062Y019660D01*
X012107Y019597D01*
X012162Y019543D01*
X012077Y019640D02*
X011971Y019640D01*
X011971Y019758D02*
X012017Y019758D01*
X011991Y019877D02*
X011971Y019877D01*
X011991Y019937D02*
X012461Y019937D01*
X012461Y020407D01*
X012443Y020407D01*
X012366Y020395D01*
X012293Y020371D01*
X012224Y020336D01*
X012162Y020290D01*
X012107Y020236D01*
X012062Y020173D01*
X012027Y020105D01*
X012003Y020031D01*
X011991Y019955D01*
X011991Y019937D01*
X011997Y019995D02*
X011971Y019995D01*
X011971Y020114D02*
X012032Y020114D01*
X011971Y020232D02*
X012105Y020232D01*
X012254Y020351D02*
X011933Y020351D01*
X012461Y020351D02*
X012501Y020351D01*
X012501Y020407D02*
X012501Y019937D01*
X012461Y019937D01*
X012461Y019897D01*
X012501Y019897D01*
X012501Y019937D01*
X012971Y019937D01*
X012971Y019955D01*
X012959Y020031D01*
X012935Y020105D01*
X012900Y020173D01*
X012855Y020236D01*
X012800Y020290D01*
X012738Y020336D01*
X012669Y020371D01*
X012596Y020395D01*
X012520Y020407D01*
X012501Y020407D01*
X012501Y020232D02*
X012461Y020232D01*
X012461Y020114D02*
X012501Y020114D01*
X012501Y019995D02*
X012461Y019995D01*
X012501Y019897D02*
X012971Y019897D01*
X012971Y019878D01*
X012959Y019802D01*
X012935Y019729D01*
X012900Y019660D01*
X012855Y019597D01*
X012800Y019543D01*
X012738Y019498D01*
X012669Y019463D01*
X012596Y019439D01*
X012520Y019427D01*
X012501Y019427D01*
X012501Y019897D01*
X012501Y019877D02*
X012461Y019877D01*
X012461Y019758D02*
X012501Y019758D01*
X012501Y019640D02*
X012461Y019640D01*
X012461Y019521D02*
X012501Y019521D01*
X012770Y019521D02*
X013192Y019521D01*
X013162Y019543D02*
X013224Y019498D01*
X013293Y019463D01*
X013366Y019439D01*
X013443Y019427D01*
X013461Y019427D01*
X013461Y019897D01*
X012991Y019897D01*
X012991Y019878D01*
X013003Y019802D01*
X013027Y019729D01*
X013062Y019660D01*
X013107Y019597D01*
X013162Y019543D01*
X013077Y019640D02*
X012886Y019640D01*
X012945Y019758D02*
X013017Y019758D01*
X012991Y019877D02*
X012971Y019877D01*
X012991Y019937D02*
X013461Y019937D01*
X013461Y020407D01*
X013443Y020407D01*
X013366Y020395D01*
X013293Y020371D01*
X013224Y020336D01*
X013162Y020290D01*
X013107Y020236D01*
X013062Y020173D01*
X013027Y020105D01*
X013003Y020031D01*
X012991Y019955D01*
X012991Y019937D01*
X012997Y019995D02*
X012965Y019995D01*
X012931Y020114D02*
X013032Y020114D01*
X013105Y020232D02*
X012858Y020232D01*
X012709Y020351D02*
X013254Y020351D01*
X013461Y020351D02*
X013501Y020351D01*
X013501Y020407D02*
X013501Y019937D01*
X013461Y019937D01*
X013461Y019897D01*
X013501Y019897D01*
X013501Y019937D01*
X013971Y019937D01*
X013971Y019955D01*
X013959Y020031D01*
X013935Y020105D01*
X013900Y020173D01*
X013855Y020236D01*
X013800Y020290D01*
X013738Y020336D01*
X013669Y020371D01*
X013596Y020395D01*
X013520Y020407D01*
X013501Y020407D01*
X013501Y020232D02*
X013461Y020232D01*
X013461Y020114D02*
X013501Y020114D01*
X013501Y019995D02*
X013461Y019995D01*
X013501Y019897D02*
X013971Y019897D01*
X013971Y019878D01*
X013959Y019802D01*
X013935Y019729D01*
X013900Y019660D01*
X013855Y019597D01*
X013800Y019543D01*
X013738Y019498D01*
X013669Y019463D01*
X013596Y019439D01*
X013520Y019427D01*
X013501Y019427D01*
X013501Y019897D01*
X013501Y019877D02*
X013461Y019877D01*
X013461Y019758D02*
X013501Y019758D01*
X013501Y019640D02*
X013461Y019640D01*
X013461Y019521D02*
X013501Y019521D01*
X013770Y019521D02*
X014192Y019521D01*
X014077Y019640D02*
X013886Y019640D01*
X013945Y019758D02*
X014017Y019758D01*
X013991Y019877D02*
X013971Y019877D01*
X013965Y019995D02*
X013997Y019995D01*
X014032Y020114D02*
X013931Y020114D01*
X013858Y020232D02*
X014105Y020232D01*
X014254Y020351D02*
X013709Y020351D01*
X014461Y020351D02*
X014473Y020351D01*
X014461Y020232D02*
X014473Y020232D01*
X014461Y020114D02*
X014473Y020114D01*
X014461Y019995D02*
X014473Y019995D01*
X014461Y019877D02*
X014473Y019877D01*
X014461Y019758D02*
X014473Y019758D01*
X014461Y019640D02*
X014473Y019640D01*
X014461Y019521D02*
X014473Y019521D01*
D22*
X014481Y019917D02*
X017481Y019917D01*
X008481Y015917D02*
X007731Y015167D01*
X007731Y013667D01*
D23*
X005481Y014917D03*
X005231Y016917D03*
X006981Y019167D03*
X010481Y012417D03*
X012481Y011167D03*
X012731Y009917D03*
X012231Y009417D03*
X013731Y009417D03*
X014231Y009917D03*
X013981Y011167D03*
X016481Y012067D03*
X013631Y008217D03*
X015731Y007917D03*
X014481Y005917D03*
X011981Y002667D03*
X009231Y005667D03*
X009231Y007167D03*
X008981Y009167D03*
X005981Y009667D03*
X001981Y010167D03*
X007231Y001667D03*
X015481Y016917D03*
X017481Y018417D03*
X020481Y018917D03*
D24*
X013231Y015917D02*
X013231Y011167D01*
X011981Y012417D01*
X011481Y011917D01*
X011481Y011771D01*
X012231Y010417D02*
X010981Y009167D01*
X010877Y009167D01*
X010481Y009562D01*
X009731Y007917D02*
X010231Y007417D01*
X010481Y007417D01*
X010627Y007417D01*
X010481Y007417D02*
X009981Y006917D01*
X009981Y003417D01*
X010981Y002417D01*
X013631Y008217D02*
X014177Y008217D01*
X014377Y008417D01*
X013631Y008217D02*
X013231Y008617D01*
X013231Y010417D01*
X013231Y011167D01*
X013231Y010417D02*
X012231Y010417D01*
X013231Y010417D02*
X014231Y010417D01*
X015481Y011667D01*
X015231Y011917D01*
X014835Y011917D01*
X008481Y019917D02*
X007481Y019917D01*
X006481Y019917D01*
X005481Y019917D01*
X004761Y019196D01*
X004761Y019047D01*
D25*
X004481Y019358D02*
X004406Y019283D01*
X004348Y019143D01*
X004332Y019149D01*
X004166Y019149D01*
X004012Y019086D01*
X003895Y018968D01*
X003831Y018815D01*
X003831Y018649D01*
X003895Y018495D01*
X003973Y018417D01*
X003895Y018338D01*
X003831Y018185D01*
X003831Y018019D01*
X003895Y017865D01*
X004012Y017748D01*
X004166Y017684D01*
X004332Y017684D01*
X004334Y017685D01*
X004334Y017684D01*
X004355Y017619D01*
X004386Y017557D01*
X004427Y017502D01*
X004475Y017453D01*
X004531Y017412D01*
X004593Y017381D01*
X004658Y017360D01*
X004726Y017349D01*
X004761Y017349D01*
X004795Y017349D01*
X004863Y017360D01*
X004929Y017381D01*
X004990Y017412D01*
X005046Y017453D01*
X005095Y017502D01*
X005135Y017557D01*
X005166Y017619D01*
X005188Y017684D01*
X005198Y017752D01*
X005198Y017787D01*
X005198Y017821D01*
X005188Y017889D01*
X005166Y017955D01*
X005135Y018016D01*
X005095Y018072D01*
X005051Y018116D01*
X005115Y018180D01*
X005178Y018334D01*
X005178Y018500D01*
X005115Y018653D01*
X005037Y018732D01*
X005115Y018810D01*
X005178Y018963D01*
X005178Y019130D01*
X005169Y019152D01*
X005444Y019427D01*
X005579Y019427D01*
X005759Y019501D01*
X005854Y019597D01*
X006108Y019597D01*
X006204Y019501D01*
X006384Y019427D01*
X006579Y019427D01*
X006759Y019501D01*
X006854Y019597D01*
X007108Y019597D01*
X007204Y019501D01*
X007384Y019427D01*
X007579Y019427D01*
X007759Y019501D01*
X007780Y019523D01*
X007780Y016157D01*
X004683Y016157D01*
X004595Y016120D01*
X004528Y016053D01*
X004028Y015553D01*
X003991Y015464D01*
X003991Y009766D01*
X003555Y009330D01*
X003555Y009492D01*
X003491Y009645D01*
X003374Y009763D01*
X003220Y009827D01*
X003054Y009827D01*
X002900Y009763D01*
X002783Y009645D01*
X002719Y009492D01*
X002719Y009326D01*
X002745Y009263D01*
X002674Y009334D01*
X002026Y009334D01*
X001932Y009241D01*
X001932Y008593D01*
X002026Y008499D01*
X002674Y008499D01*
X002745Y008570D01*
X002719Y008508D01*
X002719Y008341D01*
X002783Y008188D01*
X002900Y008070D01*
X003054Y008007D01*
X003220Y008007D01*
X003374Y008070D01*
X003491Y008188D01*
X003555Y008341D01*
X003555Y008508D01*
X003525Y008579D01*
X003548Y008579D01*
X003673Y008630D01*
X003768Y008725D01*
X003819Y008849D01*
X003819Y008915D01*
X004367Y009463D01*
X004435Y009531D01*
X004471Y009619D01*
X004471Y015317D01*
X004831Y015677D01*
X007780Y015677D01*
X007780Y015612D01*
X007572Y015404D01*
X007494Y015325D01*
X007451Y015222D01*
X007451Y014157D01*
X007335Y014157D01*
X007241Y014063D01*
X007241Y013270D01*
X007335Y013177D01*
X008127Y013177D01*
X008221Y013270D01*
X008221Y014063D01*
X008127Y014157D01*
X008011Y014157D01*
X008011Y015051D01*
X008050Y015090D01*
X012911Y015090D01*
X012911Y011939D01*
X012286Y012564D01*
X012268Y012608D01*
X012173Y012703D01*
X012048Y012755D01*
X011914Y012755D01*
X011790Y012703D01*
X011694Y012608D01*
X011676Y012564D01*
X011269Y012157D01*
X011129Y012157D01*
X011036Y012064D01*
X011036Y011478D01*
X011083Y011431D01*
X011052Y011399D01*
X011028Y011358D01*
X011016Y011312D01*
X011016Y011096D01*
X011448Y011096D01*
X011448Y011029D01*
X011514Y011029D01*
X011514Y010656D01*
X011790Y010656D01*
X011836Y010668D01*
X011877Y010692D01*
X011911Y010725D01*
X011934Y010766D01*
X011947Y010812D01*
X011947Y011029D01*
X011514Y011029D01*
X011514Y011096D01*
X011947Y011096D01*
X011947Y011312D01*
X011934Y011358D01*
X011911Y011399D01*
X011879Y011431D01*
X011927Y011478D01*
X011927Y011910D01*
X011981Y011964D01*
X012911Y011034D01*
X012911Y010737D01*
X012167Y010737D01*
X012050Y010688D01*
X010929Y009567D01*
X010927Y009569D01*
X010927Y009855D01*
X010879Y009903D01*
X010911Y009934D01*
X010934Y009975D01*
X010947Y010021D01*
X010947Y010238D01*
X010514Y010238D01*
X010514Y010304D01*
X010448Y010304D01*
X010448Y010238D01*
X010016Y010238D01*
X010016Y010021D01*
X010028Y009975D01*
X010052Y009934D01*
X010083Y009903D01*
X010036Y009855D01*
X010036Y009407D01*
X009335Y009407D01*
X009241Y009313D01*
X009241Y008657D01*
X008699Y008657D01*
X008768Y008725D01*
X008819Y008849D01*
X008819Y008984D01*
X008768Y009108D01*
X008673Y009203D01*
X008548Y009255D01*
X008482Y009255D01*
X008471Y009266D01*
X008471Y009929D01*
X008518Y009975D01*
X008569Y010099D01*
X008569Y010234D01*
X008518Y010358D01*
X008423Y010453D01*
X008298Y010505D01*
X008164Y010505D01*
X008040Y010453D01*
X007944Y010358D01*
X007893Y010234D01*
X007893Y010099D01*
X007944Y009975D01*
X007991Y009929D01*
X007991Y009119D01*
X008028Y009031D01*
X008143Y008915D01*
X008143Y008849D01*
X008194Y008725D01*
X008263Y008657D01*
X008081Y008657D01*
X007819Y008918D01*
X007819Y008984D01*
X007768Y009108D01*
X007673Y009203D01*
X007548Y009255D01*
X007414Y009255D01*
X007290Y009203D01*
X007194Y009108D01*
X007143Y008984D01*
X007143Y008849D01*
X007194Y008725D01*
X007290Y008630D01*
X007414Y008579D01*
X007480Y008579D01*
X007652Y008407D01*
X007085Y008407D01*
X006991Y008313D01*
X006991Y007520D01*
X007085Y007427D01*
X007877Y007427D01*
X007971Y007520D01*
X007971Y008177D01*
X009308Y008177D01*
X009241Y008014D01*
X009241Y007819D01*
X009316Y007639D01*
X009454Y007501D01*
X009634Y007427D01*
X009769Y007427D01*
X009904Y007292D01*
X009800Y007188D01*
X009710Y007098D01*
X007936Y007098D01*
X007971Y007014D02*
X007897Y007194D01*
X007759Y007332D01*
X007579Y007407D01*
X007384Y007407D01*
X007204Y007332D01*
X007066Y007194D01*
X006991Y007014D01*
X006991Y006819D01*
X007066Y006639D01*
X007204Y006501D01*
X007384Y006427D01*
X007579Y006427D01*
X007759Y006501D01*
X007897Y006639D01*
X007971Y006819D01*
X007971Y007014D01*
X007971Y006940D02*
X009661Y006940D01*
X009661Y006980D02*
X009661Y003353D01*
X009710Y003235D01*
X010585Y002360D01*
X010585Y002338D01*
X010645Y002192D01*
X010757Y002081D01*
X010902Y002020D01*
X011060Y002020D01*
X011206Y002081D01*
X011317Y002192D01*
X011377Y002338D01*
X011377Y002495D01*
X011317Y002641D01*
X011206Y002753D01*
X011060Y002813D01*
X011037Y002813D01*
X010301Y003549D01*
X010301Y006784D01*
X010488Y006971D01*
X010919Y006971D01*
X010967Y007019D01*
X010999Y006987D01*
X011040Y006963D01*
X011085Y006951D01*
X011302Y006951D01*
X011302Y007383D01*
X011369Y007383D01*
X011369Y007450D01*
X011742Y007450D01*
X011742Y007726D01*
X011730Y007772D01*
X011706Y007813D01*
X011690Y007829D01*
X011798Y007829D01*
X011923Y007880D01*
X012018Y007975D01*
X012069Y008099D01*
X012069Y008234D01*
X012018Y008358D01*
X011923Y008453D01*
X011798Y008505D01*
X011664Y008505D01*
X011540Y008453D01*
X011493Y008407D01*
X010831Y008407D01*
X010685Y008553D01*
X010617Y008620D01*
X010529Y008657D01*
X010221Y008657D01*
X010221Y009176D01*
X010415Y009176D01*
X010696Y008895D01*
X010813Y008847D01*
X010870Y008847D01*
X010914Y008829D01*
X011048Y008829D01*
X011173Y008880D01*
X011268Y008975D01*
X011286Y009019D01*
X012364Y010097D01*
X012911Y010097D01*
X012911Y008553D01*
X012960Y008435D01*
X013050Y008345D01*
X013360Y008035D01*
X013450Y007945D01*
X013567Y007897D01*
X014240Y007897D01*
X014358Y007945D01*
X014384Y007971D01*
X014669Y007971D01*
X014717Y008019D01*
X014749Y007987D01*
X014790Y007963D01*
X014835Y007951D01*
X015052Y007951D01*
X015052Y008383D01*
X015119Y008383D01*
X015119Y008450D01*
X015492Y008450D01*
X015492Y008726D01*
X015480Y008772D01*
X015456Y008813D01*
X015422Y008846D01*
X015381Y008870D01*
X015336Y008882D01*
X015119Y008882D01*
X015119Y008450D01*
X015052Y008450D01*
X015052Y008882D01*
X014835Y008882D01*
X014790Y008870D01*
X014749Y008846D01*
X014717Y008815D01*
X014669Y008862D01*
X014084Y008862D01*
X013990Y008768D01*
X013990Y008537D01*
X013764Y008537D01*
X013551Y008749D01*
X013551Y010097D01*
X014295Y010097D01*
X014412Y010145D01*
X015629Y011362D01*
X015673Y011380D01*
X015719Y011427D01*
X018493Y011427D01*
X018540Y011380D01*
X018664Y011329D01*
X018798Y011329D01*
X018923Y011380D01*
X019018Y011475D01*
X019069Y011599D01*
X019069Y011734D01*
X019018Y011858D01*
X018923Y011953D01*
X018798Y012005D01*
X018664Y012005D01*
X018540Y011953D01*
X018493Y011907D01*
X015719Y011907D01*
X015673Y011953D01*
X015629Y011971D01*
X015412Y012188D01*
X015295Y012237D01*
X015222Y012237D01*
X015222Y012268D01*
X015128Y012362D01*
X014543Y012362D01*
X014495Y012315D01*
X014464Y012346D01*
X014423Y012370D01*
X014377Y012382D01*
X014160Y012382D01*
X014160Y011950D01*
X014094Y011950D01*
X014094Y012382D01*
X013877Y012382D01*
X013831Y012370D01*
X013790Y012346D01*
X013756Y012313D01*
X013733Y012272D01*
X013720Y012226D01*
X013720Y011950D01*
X014094Y011950D01*
X014094Y011883D01*
X014160Y011883D01*
X014160Y011451D01*
X014377Y011451D01*
X014423Y011463D01*
X014464Y011487D01*
X014495Y011519D01*
X014543Y011471D01*
X014833Y011471D01*
X014099Y010737D01*
X013551Y010737D01*
X013551Y015090D01*
X014867Y015090D01*
X014867Y019610D01*
X014894Y019637D01*
X016991Y019637D01*
X016991Y019520D01*
X017085Y019427D01*
X017877Y019427D01*
X017971Y019520D01*
X017971Y020313D01*
X017877Y020407D01*
X017085Y020407D01*
X016991Y020313D01*
X016991Y020197D01*
X014894Y020197D01*
X014867Y020224D01*
X014867Y020422D01*
X020410Y020422D01*
X020362Y020414D01*
X020285Y020389D01*
X020214Y020353D01*
X020149Y020306D01*
X020092Y020249D01*
X020045Y020184D01*
X020008Y020112D01*
X019984Y020036D01*
X019971Y019957D01*
X019971Y019937D01*
X019971Y019937D01*
X020461Y019937D01*
X020461Y019897D01*
X019971Y019897D01*
X019971Y019877D01*
X019984Y019797D01*
X020008Y019721D01*
X020045Y019649D01*
X020092Y019584D01*
X020149Y019528D01*
X020214Y019480D01*
X020285Y019444D01*
X020362Y019419D01*
X020441Y019407D01*
X020461Y019407D01*
X020461Y019897D01*
X020501Y019897D01*
X020501Y019407D01*
X020521Y019407D01*
X020601Y019419D01*
X020677Y019444D01*
X020748Y019480D01*
X020813Y019528D01*
X020870Y019584D01*
X020917Y019649D01*
X020954Y019721D01*
X020979Y019797D01*
X020986Y019845D01*
X020986Y010488D01*
X020979Y010536D01*
X020954Y010612D01*
X020917Y010684D01*
X020870Y010749D01*
X020813Y010806D01*
X020748Y010853D01*
X020677Y010889D01*
X020601Y010914D01*
X020521Y010927D01*
X020501Y010927D01*
X020501Y010437D01*
X020461Y010437D01*
X020461Y010927D01*
X020441Y010927D01*
X020362Y010914D01*
X020285Y010889D01*
X020214Y010853D01*
X020149Y010806D01*
X020092Y010749D01*
X020045Y010684D01*
X020008Y010612D01*
X019984Y010536D01*
X019971Y010457D01*
X019971Y010437D01*
X020461Y010437D01*
X020461Y010397D01*
X019971Y010397D01*
X019971Y010377D01*
X019984Y010297D01*
X020008Y010221D01*
X020045Y010149D01*
X020092Y010084D01*
X020149Y010028D01*
X020214Y009980D01*
X020285Y009944D01*
X020362Y009919D01*
X020441Y009907D01*
X020461Y009907D01*
X020461Y010397D01*
X020501Y010397D01*
X020501Y009907D01*
X020521Y009907D01*
X020601Y009919D01*
X020677Y009944D01*
X020748Y009980D01*
X020813Y010028D01*
X020870Y010084D01*
X020917Y010149D01*
X020954Y010221D01*
X020979Y010297D01*
X020986Y010345D01*
X020986Y003545D01*
X020960Y003607D01*
X020811Y003756D01*
X020617Y003837D01*
X020406Y003837D01*
X020211Y003756D01*
X020062Y003607D01*
X019981Y003412D01*
X019981Y003201D01*
X020062Y003006D01*
X020211Y002857D01*
X020406Y002777D01*
X020617Y002777D01*
X020811Y002857D01*
X020960Y003006D01*
X020986Y003069D01*
X020986Y001806D01*
X020982Y001815D01*
X020931Y001885D01*
X020869Y001946D01*
X020799Y001997D01*
X020722Y002036D01*
X020640Y002063D01*
X020554Y002077D01*
X020531Y002077D01*
X020531Y001547D01*
X020491Y001547D01*
X020491Y002077D01*
X020468Y002077D01*
X020382Y002063D01*
X020300Y002036D01*
X020223Y001997D01*
X020153Y001946D01*
X020092Y001885D01*
X020041Y001815D01*
X020001Y001738D01*
X019975Y001655D01*
X019961Y001570D01*
X019961Y001547D01*
X020491Y001547D01*
X020491Y001507D01*
X019961Y001507D01*
X019961Y001483D01*
X019975Y001398D01*
X020001Y001316D01*
X020041Y001238D01*
X020092Y001168D01*
X020153Y001107D01*
X020167Y001097D01*
X018295Y001097D01*
X018309Y001107D01*
X018371Y001168D01*
X018422Y001238D01*
X018461Y001316D01*
X018488Y001398D01*
X018501Y001483D01*
X018501Y001507D01*
X017971Y001507D01*
X017971Y001547D01*
X017931Y001547D01*
X017931Y002077D01*
X017908Y002077D01*
X017822Y002063D01*
X017740Y002036D01*
X017663Y001997D01*
X017593Y001946D01*
X017532Y001885D01*
X017481Y001815D01*
X017441Y001738D01*
X017415Y001655D01*
X017401Y001570D01*
X017401Y001547D01*
X017931Y001547D01*
X017931Y001507D01*
X017401Y001507D01*
X017401Y001483D01*
X017415Y001398D01*
X017441Y001316D01*
X017481Y001238D01*
X017532Y001168D01*
X017593Y001107D01*
X017607Y001097D01*
X016491Y001097D01*
X016491Y001417D01*
X016491Y001770D01*
X016479Y001816D01*
X016455Y001857D01*
X016422Y001891D01*
X016381Y001914D01*
X016335Y001927D01*
X015981Y001927D01*
X015627Y001927D01*
X015582Y001914D01*
X015541Y001891D01*
X015507Y001857D01*
X015483Y001816D01*
X015471Y001770D01*
X015471Y001559D01*
X015454Y001612D01*
X015417Y001684D01*
X015370Y001749D01*
X015313Y001806D01*
X015248Y001853D01*
X015177Y001889D01*
X015101Y001914D01*
X015021Y001927D01*
X014981Y001927D01*
X014941Y001927D01*
X014862Y001914D01*
X014785Y001889D01*
X014714Y001853D01*
X014649Y001806D01*
X014592Y001749D01*
X014545Y001684D01*
X014508Y001612D01*
X014484Y001536D01*
X014481Y001520D01*
X014479Y001536D01*
X014454Y001612D01*
X014417Y001684D01*
X014370Y001749D01*
X014313Y001806D01*
X014248Y001853D01*
X014177Y001889D01*
X014101Y001914D01*
X014021Y001927D01*
X013981Y001927D01*
X013941Y001927D01*
X013862Y001914D01*
X013785Y001889D01*
X013714Y001853D01*
X013649Y001806D01*
X013592Y001749D01*
X013545Y001684D01*
X013508Y001612D01*
X013484Y001536D01*
X013481Y001520D01*
X013479Y001536D01*
X013454Y001612D01*
X013417Y001684D01*
X013370Y001749D01*
X013313Y001806D01*
X013248Y001853D01*
X013177Y001889D01*
X013101Y001914D01*
X013021Y001927D01*
X012981Y001927D01*
X012941Y001927D01*
X012862Y001914D01*
X012785Y001889D01*
X012714Y001853D01*
X012649Y001806D01*
X012592Y001749D01*
X012545Y001684D01*
X012508Y001612D01*
X012484Y001536D01*
X012471Y001457D01*
X012471Y001417D01*
X012981Y001417D01*
X012981Y001927D01*
X012981Y001417D01*
X012981Y001417D01*
X012981Y001417D01*
X013491Y001417D01*
X013981Y001417D01*
X013981Y001927D01*
X013981Y001417D01*
X013981Y001417D01*
X013981Y001417D01*
X014491Y001417D01*
X014981Y001417D01*
X014981Y001927D01*
X014981Y001417D01*
X014981Y001417D01*
X014981Y001417D01*
X015491Y001417D01*
X015981Y001417D01*
X015981Y001927D01*
X015981Y001417D01*
X015981Y001417D01*
X015981Y001417D01*
X016491Y001417D01*
X015981Y001417D01*
X015981Y001417D01*
X014981Y001417D01*
X014981Y001417D01*
X013981Y001417D01*
X013981Y001417D01*
X012981Y001417D01*
X012981Y001417D01*
X012471Y001417D01*
X012471Y001377D01*
X012484Y001297D01*
X012508Y001221D01*
X012545Y001149D01*
X012583Y001097D01*
X011354Y001097D01*
X011397Y001139D01*
X011471Y001319D01*
X011471Y001514D01*
X011397Y001694D01*
X011259Y001832D01*
X011079Y001907D01*
X010884Y001907D01*
X010704Y001832D01*
X010566Y001694D01*
X010491Y001514D01*
X010491Y001319D01*
X010566Y001139D01*
X010608Y001097D01*
X010491Y001097D01*
X010491Y001417D01*
X010491Y001770D01*
X010479Y001816D01*
X010455Y001857D01*
X010422Y001891D01*
X010381Y001914D01*
X010335Y001927D01*
X009981Y001927D01*
X009627Y001927D01*
X009582Y001914D01*
X009541Y001891D01*
X009507Y001857D01*
X009483Y001816D01*
X009471Y001770D01*
X009471Y001417D01*
X009981Y001417D01*
X009981Y001927D01*
X009981Y001417D01*
X009981Y001417D01*
X009981Y001417D01*
X010491Y001417D01*
X009981Y001417D01*
X009981Y001417D01*
X009471Y001417D01*
X009471Y001097D01*
X006471Y001097D01*
X006471Y001813D01*
X006377Y001907D01*
X005585Y001907D01*
X005491Y001813D01*
X005491Y001657D01*
X005081Y001657D01*
X005010Y001827D01*
X004861Y001976D01*
X004667Y002057D01*
X004456Y002057D01*
X004261Y001976D01*
X004112Y001827D01*
X004031Y001632D01*
X004031Y001421D01*
X004112Y001226D01*
X004242Y001097D01*
X002321Y001097D01*
X002450Y001226D01*
X002531Y001421D01*
X002531Y001632D01*
X002450Y001827D01*
X002301Y001976D01*
X002107Y002057D01*
X001896Y002057D01*
X001701Y001976D01*
X001661Y001936D01*
X001661Y002874D01*
X001713Y002836D01*
X001790Y002797D01*
X001872Y002770D01*
X001958Y002757D01*
X001981Y002757D01*
X001981Y003287D01*
X002021Y003287D01*
X002021Y003327D01*
X001981Y003327D01*
X001981Y003857D01*
X001958Y003857D01*
X001872Y003843D01*
X001790Y003816D01*
X001713Y003777D01*
X001661Y003739D01*
X001661Y016592D01*
X001666Y016586D01*
X001729Y016522D01*
X001802Y016469D01*
X001883Y016428D01*
X001969Y016400D01*
X002058Y016386D01*
X002497Y016386D01*
X002936Y016386D01*
X003025Y016400D01*
X003111Y016428D01*
X003191Y016469D01*
X003264Y016522D01*
X003328Y016586D01*
X003381Y016659D01*
X003422Y016740D01*
X003450Y016826D01*
X003464Y016915D01*
X003464Y016960D01*
X003464Y017005D01*
X003450Y017094D01*
X003422Y017180D01*
X003381Y017261D01*
X003328Y017334D01*
X003264Y017398D01*
X003191Y017451D01*
X003111Y017492D01*
X003025Y017520D01*
X002936Y017534D01*
X002497Y017534D01*
X002497Y016960D01*
X003464Y016960D01*
X002497Y016960D01*
X002497Y016960D01*
X002497Y016960D01*
X002497Y016386D01*
X002497Y016960D01*
X002497Y016960D01*
X002497Y017534D01*
X002058Y017534D01*
X001969Y017520D01*
X001883Y017492D01*
X001802Y017451D01*
X001729Y017398D01*
X001666Y017334D01*
X001661Y017328D01*
X001661Y019506D01*
X001666Y019500D01*
X001729Y019436D01*
X001802Y019383D01*
X001883Y019342D01*
X001969Y019314D01*
X002058Y019300D01*
X002497Y019300D01*
X002936Y019300D01*
X003025Y019314D01*
X003111Y019342D01*
X003191Y019383D01*
X003264Y019436D01*
X003328Y019500D01*
X003381Y019573D01*
X003422Y019653D01*
X003450Y019739D01*
X003464Y019828D01*
X003464Y019873D01*
X002497Y019873D01*
X002497Y019300D01*
X002497Y019873D01*
X002497Y019873D01*
X002497Y019873D01*
X003464Y019873D01*
X003464Y019919D01*
X003450Y020008D01*
X003422Y020094D01*
X003381Y020174D01*
X003328Y020247D01*
X003264Y020311D01*
X003191Y020364D01*
X003111Y020405D01*
X003059Y020422D01*
X007780Y020422D01*
X007780Y020310D01*
X007759Y020332D01*
X007579Y020407D01*
X007384Y020407D01*
X007204Y020332D01*
X007108Y020237D01*
X006854Y020237D01*
X006759Y020332D01*
X006579Y020407D01*
X006384Y020407D01*
X006204Y020332D01*
X006108Y020237D01*
X005854Y020237D01*
X005759Y020332D01*
X005579Y020407D01*
X005384Y020407D01*
X005204Y020332D01*
X005066Y020194D01*
X004991Y020014D01*
X004991Y019879D01*
X004579Y019467D01*
X004489Y019377D01*
X004481Y019358D01*
X004426Y019303D02*
X002955Y019303D01*
X003290Y019461D02*
X004573Y019461D01*
X004732Y019620D02*
X003405Y019620D01*
X003456Y019778D02*
X004890Y019778D01*
X004991Y019937D02*
X003461Y019937D01*
X003421Y020095D02*
X005025Y020095D01*
X005125Y020254D02*
X003322Y020254D01*
X003089Y020412D02*
X007780Y020412D01*
X007125Y020254D02*
X006837Y020254D01*
X006125Y020254D02*
X005837Y020254D01*
X005662Y019461D02*
X006300Y019461D01*
X006662Y019461D02*
X007300Y019461D01*
X007662Y019461D02*
X007780Y019461D01*
X007780Y019303D02*
X005320Y019303D01*
X005172Y019144D02*
X007780Y019144D01*
X007780Y018986D02*
X005178Y018986D01*
X005122Y018827D02*
X007780Y018827D01*
X007780Y018669D02*
X005099Y018669D01*
X005174Y018510D02*
X007780Y018510D01*
X007780Y018352D02*
X005178Y018352D01*
X005120Y018193D02*
X007780Y018193D01*
X007780Y018035D02*
X005122Y018035D01*
X005190Y017876D02*
X007780Y017876D01*
X007780Y017718D02*
X005193Y017718D01*
X005198Y017787D02*
X004761Y017787D01*
X005198Y017787D01*
X005136Y017559D02*
X007780Y017559D01*
X007780Y017401D02*
X004967Y017401D01*
X004761Y017401D02*
X004761Y017401D01*
X004761Y017349D02*
X004761Y017787D01*
X004761Y017787D01*
X004761Y017999D01*
X004761Y017999D01*
X004761Y017787D01*
X004761Y017787D01*
X004761Y017787D01*
X004525Y017787D01*
X004525Y017787D01*
X004761Y017787D01*
X004761Y017787D01*
X004761Y017349D01*
X004761Y017559D02*
X004761Y017559D01*
X004761Y017718D02*
X004761Y017718D01*
X004761Y017876D02*
X004761Y017876D01*
X004385Y017559D02*
X001661Y017559D01*
X001661Y017401D02*
X001734Y017401D01*
X001661Y017718D02*
X004084Y017718D01*
X003890Y017876D02*
X001661Y017876D01*
X001661Y018035D02*
X003831Y018035D01*
X003834Y018193D02*
X001661Y018193D01*
X001661Y018352D02*
X003908Y018352D01*
X003888Y018510D02*
X001661Y018510D01*
X001661Y018669D02*
X003831Y018669D01*
X003836Y018827D02*
X001661Y018827D01*
X001661Y018986D02*
X003912Y018986D01*
X004153Y019144D02*
X001661Y019144D01*
X001661Y019303D02*
X002039Y019303D01*
X001704Y019461D02*
X001661Y019461D01*
X002497Y019461D02*
X002497Y019461D01*
X002497Y019303D02*
X002497Y019303D01*
X002497Y019620D02*
X002497Y019620D01*
X002497Y019778D02*
X002497Y019778D01*
X004345Y019144D02*
X004349Y019144D01*
X004554Y017401D02*
X003260Y017401D01*
X003391Y017242D02*
X007780Y017242D01*
X007780Y017084D02*
X003452Y017084D01*
X003464Y016925D02*
X007780Y016925D01*
X007780Y016767D02*
X003431Y016767D01*
X003344Y016608D02*
X007780Y016608D01*
X007780Y016450D02*
X003153Y016450D01*
X002497Y016450D02*
X002497Y016450D01*
X002497Y016608D02*
X002497Y016608D01*
X002497Y016767D02*
X002497Y016767D01*
X002497Y016925D02*
X002497Y016925D01*
X002497Y017084D02*
X002497Y017084D01*
X002497Y017242D02*
X002497Y017242D01*
X002497Y017401D02*
X002497Y017401D01*
X001841Y016450D02*
X001661Y016450D01*
X001661Y016291D02*
X007780Y016291D01*
X007780Y015657D02*
X004811Y015657D01*
X004653Y015499D02*
X007667Y015499D01*
X007509Y015340D02*
X004494Y015340D01*
X004471Y015182D02*
X007451Y015182D01*
X007451Y015023D02*
X004471Y015023D01*
X004471Y014865D02*
X007451Y014865D01*
X007451Y014706D02*
X004471Y014706D01*
X004471Y014548D02*
X007451Y014548D01*
X007451Y014389D02*
X004471Y014389D01*
X004471Y014231D02*
X007451Y014231D01*
X007250Y014072D02*
X004471Y014072D01*
X004471Y013914D02*
X007241Y013914D01*
X007241Y013755D02*
X004471Y013755D01*
X004471Y013597D02*
X007241Y013597D01*
X007241Y013438D02*
X004471Y013438D01*
X004471Y013280D02*
X007241Y013280D01*
X008221Y013280D02*
X008425Y013280D01*
X008454Y013251D02*
X008634Y013177D01*
X008829Y013177D01*
X009009Y013251D01*
X009147Y013389D01*
X009221Y013569D01*
X009221Y013764D01*
X009147Y013944D01*
X009009Y014082D01*
X008829Y014157D01*
X008634Y014157D01*
X008454Y014082D01*
X008316Y013944D01*
X008241Y013764D01*
X008241Y013569D01*
X008316Y013389D01*
X008454Y013251D01*
X008295Y013438D02*
X008221Y013438D01*
X008221Y013597D02*
X008241Y013597D01*
X008241Y013755D02*
X008221Y013755D01*
X008221Y013914D02*
X008303Y013914D01*
X008212Y014072D02*
X008444Y014072D01*
X008011Y014231D02*
X012911Y014231D01*
X012911Y014389D02*
X008011Y014389D01*
X008011Y014548D02*
X012911Y014548D01*
X012911Y014706D02*
X008011Y014706D01*
X008011Y014865D02*
X012911Y014865D01*
X012911Y015023D02*
X008011Y015023D01*
X008481Y015917D02*
X004731Y015917D01*
X004231Y015417D01*
X004231Y009667D01*
X003481Y008917D01*
X003726Y008683D02*
X007236Y008683D01*
X007146Y008842D02*
X003816Y008842D01*
X003904Y009000D02*
X007150Y009000D01*
X007245Y009159D02*
X004063Y009159D01*
X004221Y009317D02*
X007991Y009317D01*
X007991Y009159D02*
X007717Y009159D01*
X007812Y009000D02*
X008058Y009000D01*
X008146Y008842D02*
X007895Y008842D01*
X008054Y008683D02*
X008236Y008683D01*
X008481Y008917D02*
X008231Y009167D01*
X008231Y010167D01*
X008013Y010427D02*
X004471Y010427D01*
X004471Y010585D02*
X010039Y010585D01*
X010028Y010567D02*
X010016Y010521D01*
X010016Y010304D01*
X010448Y010304D01*
X010448Y010677D01*
X010172Y010677D01*
X010126Y010665D01*
X010085Y010641D01*
X010052Y010608D01*
X010028Y010567D01*
X010016Y010427D02*
X008449Y010427D01*
X008555Y010268D02*
X010448Y010268D01*
X010514Y010268D02*
X011630Y010268D01*
X011472Y010110D02*
X010947Y010110D01*
X010920Y009951D02*
X011313Y009951D01*
X011155Y009793D02*
X010927Y009793D01*
X010927Y009634D02*
X010996Y009634D01*
X011426Y009159D02*
X012911Y009159D01*
X012911Y009317D02*
X011584Y009317D01*
X011743Y009476D02*
X012911Y009476D01*
X012911Y009634D02*
X011901Y009634D01*
X012060Y009793D02*
X012911Y009793D01*
X012911Y009951D02*
X012218Y009951D01*
X011789Y010427D02*
X010947Y010427D01*
X010947Y010521D02*
X010947Y010304D01*
X010514Y010304D01*
X010514Y010677D01*
X010790Y010677D01*
X010836Y010665D01*
X010877Y010641D01*
X010911Y010608D01*
X010934Y010567D01*
X010947Y010521D01*
X010924Y010585D02*
X011947Y010585D01*
X011921Y010744D02*
X012911Y010744D01*
X012911Y010902D02*
X011947Y010902D01*
X011947Y011219D02*
X012726Y011219D01*
X012885Y011061D02*
X011514Y011061D01*
X011448Y011061D02*
X004471Y011061D01*
X004471Y011219D02*
X011016Y011219D01*
X011039Y011378D02*
X004471Y011378D01*
X004471Y011536D02*
X011036Y011536D01*
X011036Y011695D02*
X004471Y011695D01*
X004471Y011853D02*
X011036Y011853D01*
X011036Y012012D02*
X004471Y012012D01*
X004471Y012170D02*
X011282Y012170D01*
X011441Y012329D02*
X004471Y012329D01*
X004471Y012487D02*
X011599Y012487D01*
X011732Y012646D02*
X004471Y012646D01*
X004471Y012804D02*
X012911Y012804D01*
X012911Y012646D02*
X012230Y012646D01*
X012363Y012487D02*
X012911Y012487D01*
X012911Y012329D02*
X012522Y012329D01*
X012680Y012170D02*
X012911Y012170D01*
X012911Y012012D02*
X012839Y012012D01*
X012409Y011536D02*
X011927Y011536D01*
X011923Y011378D02*
X012568Y011378D01*
X012251Y011695D02*
X011927Y011695D01*
X011927Y011853D02*
X012092Y011853D01*
X011448Y011029D02*
X011016Y011029D01*
X011016Y010812D01*
X011028Y010766D01*
X011052Y010725D01*
X011085Y010692D01*
X011126Y010668D01*
X011172Y010656D01*
X011448Y010656D01*
X011448Y011029D01*
X011448Y010902D02*
X011514Y010902D01*
X011514Y010744D02*
X011448Y010744D01*
X011041Y010744D02*
X004471Y010744D01*
X004471Y010902D02*
X011016Y010902D01*
X010514Y010585D02*
X010448Y010585D01*
X010448Y010427D02*
X010514Y010427D01*
X010016Y010110D02*
X008569Y010110D01*
X008494Y009951D02*
X010042Y009951D01*
X010036Y009793D02*
X008471Y009793D01*
X008471Y009634D02*
X010036Y009634D01*
X010036Y009476D02*
X008471Y009476D01*
X008471Y009317D02*
X009245Y009317D01*
X009241Y009159D02*
X008717Y009159D01*
X008812Y009000D02*
X009241Y009000D01*
X009241Y008842D02*
X008816Y008842D01*
X008726Y008683D02*
X009241Y008683D01*
X009256Y008049D02*
X007971Y008049D01*
X007971Y007891D02*
X009241Y007891D01*
X009277Y007732D02*
X007971Y007732D01*
X007971Y007574D02*
X009381Y007574D01*
X009780Y007415D02*
X006471Y007415D01*
X006471Y007319D02*
X006397Y007139D01*
X006259Y007001D01*
X006079Y006927D01*
X005884Y006927D01*
X005704Y007001D01*
X005566Y007139D01*
X005491Y007319D01*
X005491Y007514D01*
X005566Y007694D01*
X005704Y007832D01*
X005884Y007907D01*
X006079Y007907D01*
X006259Y007832D01*
X006397Y007694D01*
X006471Y007514D01*
X006471Y007319D01*
X006445Y007257D02*
X007128Y007257D01*
X007026Y007098D02*
X006356Y007098D01*
X006259Y006832D02*
X006079Y006907D01*
X005884Y006907D01*
X005704Y006832D01*
X005566Y006694D01*
X005491Y006514D01*
X005491Y006319D01*
X005566Y006139D01*
X005704Y006001D01*
X005884Y005927D01*
X006079Y005927D01*
X006259Y006001D01*
X006397Y006139D01*
X006471Y006319D01*
X006471Y006514D01*
X006397Y006694D01*
X006259Y006832D01*
X006310Y006781D02*
X007007Y006781D01*
X006991Y006940D02*
X006110Y006940D01*
X005852Y006940D02*
X001661Y006940D01*
X001661Y007098D02*
X005607Y007098D01*
X005517Y007257D02*
X001661Y007257D01*
X001661Y007415D02*
X005491Y007415D01*
X005516Y007574D02*
X002575Y007574D01*
X002586Y007578D02*
X002704Y007696D01*
X002767Y007849D01*
X002767Y008016D01*
X002704Y008169D01*
X002586Y008287D01*
X002433Y008350D01*
X002267Y008350D01*
X002113Y008287D01*
X001995Y008169D01*
X001932Y008016D01*
X001932Y007849D01*
X001995Y007696D01*
X002113Y007578D01*
X002267Y007515D01*
X002433Y007515D01*
X002586Y007578D01*
X002719Y007732D02*
X005604Y007732D01*
X005845Y007891D02*
X002767Y007891D01*
X002753Y008049D02*
X002951Y008049D01*
X002775Y008208D02*
X002665Y008208D01*
X002719Y008366D02*
X001661Y008366D01*
X001661Y008208D02*
X002034Y008208D01*
X001946Y008049D02*
X001661Y008049D01*
X001661Y007891D02*
X001932Y007891D01*
X001980Y007732D02*
X001661Y007732D01*
X001661Y007574D02*
X002124Y007574D01*
X001661Y006781D02*
X005653Y006781D01*
X005536Y006623D02*
X001661Y006623D01*
X001661Y006464D02*
X005491Y006464D01*
X005497Y006306D02*
X001661Y006306D01*
X001661Y006147D02*
X005562Y006147D01*
X005734Y005989D02*
X001661Y005989D01*
X001661Y005830D02*
X005702Y005830D01*
X005704Y005832D02*
X005566Y005694D01*
X005491Y005514D01*
X005491Y005319D01*
X005566Y005139D01*
X005704Y005001D01*
X005884Y004927D01*
X006079Y004927D01*
X006259Y005001D01*
X006397Y005139D01*
X006471Y005319D01*
X006471Y005514D01*
X006397Y005694D01*
X006259Y005832D01*
X006079Y005907D01*
X005884Y005907D01*
X005704Y005832D01*
X005556Y005672D02*
X001661Y005672D01*
X001661Y005513D02*
X005491Y005513D01*
X005491Y005355D02*
X001661Y005355D01*
X001661Y005196D02*
X005542Y005196D01*
X005667Y005038D02*
X001661Y005038D01*
X001661Y004879D02*
X005817Y004879D01*
X005884Y004907D02*
X005704Y004832D01*
X005566Y004694D01*
X005491Y004514D01*
X005491Y004319D01*
X005566Y004139D01*
X005704Y004001D01*
X005884Y003927D01*
X006079Y003927D01*
X006259Y004001D01*
X006397Y004139D01*
X006471Y004319D01*
X006471Y004514D01*
X006397Y004694D01*
X006259Y004832D01*
X006079Y004907D01*
X005884Y004907D01*
X006145Y004879D02*
X007491Y004879D01*
X007491Y004819D02*
X007566Y004639D01*
X007704Y004501D01*
X007884Y004427D01*
X008079Y004427D01*
X008259Y004501D01*
X008397Y004639D01*
X008471Y004819D01*
X008471Y005014D01*
X008397Y005194D01*
X008259Y005332D01*
X008079Y005407D01*
X007884Y005407D01*
X007704Y005332D01*
X007566Y005194D01*
X007491Y005014D01*
X007491Y004819D01*
X007532Y004721D02*
X006370Y004721D01*
X006451Y004562D02*
X007643Y004562D01*
X007501Y005038D02*
X006295Y005038D01*
X006420Y005196D02*
X007568Y005196D01*
X007521Y005407D02*
X007601Y005419D01*
X007677Y005444D01*
X007748Y005480D01*
X007813Y005528D01*
X007870Y005584D01*
X007917Y005649D01*
X007954Y005721D01*
X007979Y005797D01*
X007991Y005877D01*
X007991Y005897D01*
X007501Y005897D01*
X007501Y005937D01*
X007461Y005937D01*
X007461Y006427D01*
X007441Y006427D01*
X007362Y006414D01*
X007285Y006389D01*
X007214Y006353D01*
X007149Y006306D01*
X006465Y006306D01*
X006471Y006464D02*
X007293Y006464D01*
X007501Y006427D02*
X007521Y006427D01*
X007601Y006414D01*
X007677Y006389D01*
X007748Y006353D01*
X007813Y006306D01*
X009661Y006306D01*
X009661Y006464D02*
X007669Y006464D01*
X007501Y006427D02*
X007501Y005937D01*
X007991Y005937D01*
X007991Y005957D01*
X007979Y006036D01*
X007954Y006112D01*
X007917Y006184D01*
X007870Y006249D01*
X007813Y006306D01*
X007936Y006147D02*
X009661Y006147D01*
X009661Y005989D02*
X007986Y005989D01*
X007984Y005830D02*
X009661Y005830D01*
X009661Y005672D02*
X007929Y005672D01*
X007793Y005513D02*
X009661Y005513D01*
X009661Y005355D02*
X009204Y005355D01*
X009259Y005332D02*
X009079Y005407D01*
X008884Y005407D01*
X008704Y005332D01*
X008566Y005194D01*
X008491Y005014D01*
X008491Y004819D01*
X008566Y004639D01*
X008704Y004501D01*
X008884Y004427D01*
X009079Y004427D01*
X009259Y004501D01*
X009397Y004639D01*
X009471Y004819D01*
X009471Y005014D01*
X009397Y005194D01*
X009259Y005332D01*
X009395Y005196D02*
X009661Y005196D01*
X009661Y005038D02*
X009461Y005038D01*
X009471Y004879D02*
X009661Y004879D01*
X009661Y004721D02*
X009430Y004721D01*
X009320Y004562D02*
X009661Y004562D01*
X009661Y004404D02*
X006471Y004404D01*
X006440Y004245D02*
X009661Y004245D01*
X009661Y004087D02*
X006344Y004087D01*
X006259Y003832D02*
X006079Y003907D01*
X005884Y003907D01*
X005704Y003832D01*
X005566Y003694D01*
X005491Y003514D01*
X005491Y003319D01*
X005566Y003139D01*
X005704Y003001D01*
X005884Y002927D01*
X006079Y002927D01*
X006259Y003001D01*
X006397Y003139D01*
X006471Y003319D01*
X006471Y003514D01*
X006397Y003694D01*
X006259Y003832D01*
X006321Y003770D02*
X009661Y003770D01*
X009661Y003928D02*
X006082Y003928D01*
X005880Y003928D02*
X001661Y003928D01*
X001661Y003770D02*
X001703Y003770D01*
X001981Y003770D02*
X002021Y003770D01*
X002021Y003857D02*
X002021Y003327D01*
X002551Y003327D01*
X002551Y003350D01*
X002538Y003435D01*
X002511Y003518D01*
X002472Y003595D01*
X002421Y003665D01*
X002359Y003726D01*
X002289Y003777D01*
X002212Y003816D01*
X002130Y003843D01*
X002044Y003857D01*
X002021Y003857D01*
X001661Y004087D02*
X005618Y004087D01*
X005522Y004245D02*
X001661Y004245D01*
X001661Y004404D02*
X005491Y004404D01*
X005511Y004562D02*
X001661Y004562D01*
X001661Y004721D02*
X005592Y004721D01*
X006471Y005355D02*
X007758Y005355D01*
X007521Y005407D02*
X007501Y005407D01*
X007501Y005897D01*
X007461Y005897D01*
X006971Y005897D01*
X006971Y005877D01*
X006984Y005797D01*
X007008Y005721D01*
X007045Y005649D01*
X007092Y005584D01*
X007149Y005528D01*
X007214Y005480D01*
X007285Y005444D01*
X007362Y005419D01*
X007441Y005407D01*
X007461Y005407D01*
X007461Y005897D01*
X007461Y005937D01*
X006971Y005937D01*
X006971Y005957D01*
X006984Y006036D01*
X007008Y006112D01*
X007045Y006184D01*
X007092Y006249D01*
X007149Y006306D01*
X007026Y006147D02*
X006400Y006147D01*
X006228Y005989D02*
X006976Y005989D01*
X006978Y005830D02*
X006261Y005830D01*
X006406Y005672D02*
X007034Y005672D01*
X007169Y005513D02*
X006471Y005513D01*
X007461Y005513D02*
X007501Y005513D01*
X007501Y005672D02*
X007461Y005672D01*
X007461Y005830D02*
X007501Y005830D01*
X007501Y005989D02*
X007461Y005989D01*
X007461Y006147D02*
X007501Y006147D01*
X007501Y006306D02*
X007461Y006306D01*
X007082Y006623D02*
X006426Y006623D01*
X006446Y007574D02*
X006991Y007574D01*
X006991Y007732D02*
X006359Y007732D01*
X006117Y007891D02*
X006991Y007891D01*
X006991Y008049D02*
X003323Y008049D01*
X003499Y008208D02*
X006991Y008208D01*
X007044Y008366D02*
X003555Y008366D01*
X003548Y008525D02*
X007534Y008525D01*
X007481Y008917D02*
X007981Y008417D01*
X010481Y008417D01*
X010731Y008167D01*
X011731Y008167D01*
X011493Y007927D02*
X011538Y007882D01*
X011369Y007882D01*
X011369Y007450D01*
X011302Y007450D01*
X011302Y007882D01*
X011085Y007882D01*
X011040Y007870D01*
X010999Y007846D01*
X010967Y007815D01*
X010919Y007862D01*
X010334Y007862D01*
X010286Y007814D01*
X010221Y007879D01*
X010221Y008014D01*
X010154Y008177D01*
X010382Y008177D01*
X010595Y007963D01*
X010683Y007927D01*
X011493Y007927D01*
X011529Y007891D02*
X010221Y007891D01*
X010207Y008049D02*
X010509Y008049D01*
X010713Y008525D02*
X012923Y008525D01*
X012911Y008683D02*
X010221Y008683D01*
X010221Y008842D02*
X010882Y008842D01*
X011080Y008842D02*
X012911Y008842D01*
X012911Y009000D02*
X011278Y009000D01*
X010591Y009000D02*
X010221Y009000D01*
X010221Y009159D02*
X010432Y009159D01*
X011302Y007732D02*
X011369Y007732D01*
X011369Y007574D02*
X011302Y007574D01*
X011369Y007415D02*
X020986Y007415D01*
X020986Y007257D02*
X020834Y007257D01*
X020897Y007194D02*
X020759Y007332D01*
X020579Y007407D01*
X020384Y007407D01*
X020204Y007332D01*
X020066Y007194D01*
X019991Y007014D01*
X019991Y006819D01*
X020066Y006639D01*
X020204Y006501D01*
X020384Y006427D01*
X020579Y006427D01*
X020759Y006501D01*
X020897Y006639D01*
X020971Y006819D01*
X020971Y007014D01*
X020897Y007194D01*
X020936Y007098D02*
X020986Y007098D01*
X020971Y006940D02*
X020986Y006940D01*
X020986Y006781D02*
X020955Y006781D01*
X020986Y006623D02*
X020880Y006623D01*
X020986Y006464D02*
X020669Y006464D01*
X020579Y006407D02*
X020384Y006407D01*
X020204Y006332D01*
X020066Y006194D01*
X019991Y006014D01*
X019991Y005819D01*
X020066Y005639D01*
X020204Y005501D01*
X020384Y005427D01*
X020579Y005427D01*
X020759Y005501D01*
X020897Y005639D01*
X020971Y005819D01*
X020971Y006014D01*
X020897Y006194D01*
X020759Y006332D01*
X020579Y006407D01*
X020785Y006306D02*
X020986Y006306D01*
X020986Y006147D02*
X020916Y006147D01*
X020971Y005989D02*
X020986Y005989D01*
X020971Y005830D02*
X020986Y005830D01*
X020986Y005672D02*
X020910Y005672D01*
X020986Y005513D02*
X020771Y005513D01*
X020704Y005355D02*
X020986Y005355D01*
X020986Y005196D02*
X020895Y005196D01*
X020897Y005194D02*
X020759Y005332D01*
X020579Y005407D01*
X020384Y005407D01*
X020204Y005332D01*
X020066Y005194D01*
X019991Y005014D01*
X019991Y004819D01*
X020066Y004639D01*
X020204Y004501D01*
X020384Y004427D01*
X020579Y004427D01*
X020759Y004501D01*
X020897Y004639D01*
X020971Y004819D01*
X020971Y005014D01*
X020897Y005194D01*
X020961Y005038D02*
X020986Y005038D01*
X020971Y004879D02*
X020986Y004879D01*
X020986Y004721D02*
X020930Y004721D01*
X020986Y004562D02*
X020820Y004562D01*
X020986Y004404D02*
X010301Y004404D01*
X010301Y004562D02*
X010763Y004562D01*
X010782Y004544D02*
X010944Y004477D01*
X011119Y004477D01*
X011280Y004544D01*
X011404Y004667D01*
X011471Y004829D01*
X011471Y005004D01*
X011404Y005166D01*
X011280Y005290D01*
X011119Y005357D01*
X010944Y005357D01*
X010782Y005290D01*
X010658Y005166D01*
X010591Y005004D01*
X010591Y004829D01*
X010658Y004667D01*
X010782Y004544D01*
X010636Y004721D02*
X010301Y004721D01*
X010301Y004879D02*
X010591Y004879D01*
X010605Y005038D02*
X010301Y005038D01*
X010301Y005196D02*
X010688Y005196D01*
X010939Y005355D02*
X010301Y005355D01*
X010301Y005513D02*
X019192Y005513D01*
X019204Y005501D02*
X019384Y005427D01*
X019579Y005427D01*
X019759Y005501D01*
X019897Y005639D01*
X019971Y005819D01*
X019971Y006014D01*
X019897Y006194D01*
X019759Y006332D01*
X019579Y006407D01*
X019384Y006407D01*
X019204Y006332D01*
X019066Y006194D01*
X018991Y006014D01*
X018991Y005819D01*
X019066Y005639D01*
X019204Y005501D01*
X019085Y005407D02*
X018991Y005313D01*
X018991Y004520D01*
X019085Y004427D01*
X019877Y004427D01*
X019971Y004520D01*
X019971Y005313D01*
X019877Y005407D01*
X019085Y005407D01*
X019033Y005355D02*
X013023Y005355D01*
X013019Y005357D02*
X012844Y005357D01*
X012682Y005290D01*
X012558Y005166D01*
X012491Y005004D01*
X012491Y004829D01*
X012558Y004667D01*
X012682Y004544D01*
X012844Y004477D01*
X013019Y004477D01*
X013180Y004544D01*
X013304Y004667D01*
X013371Y004829D01*
X013371Y005004D01*
X013304Y005166D01*
X013180Y005290D01*
X013019Y005357D01*
X012839Y005355D02*
X011123Y005355D01*
X011374Y005196D02*
X012588Y005196D01*
X012505Y005038D02*
X011457Y005038D01*
X011471Y004879D02*
X012491Y004879D01*
X012536Y004721D02*
X011426Y004721D01*
X011299Y004562D02*
X012663Y004562D01*
X013199Y004562D02*
X018991Y004562D01*
X018991Y004721D02*
X013326Y004721D01*
X013371Y004879D02*
X018991Y004879D01*
X018991Y005038D02*
X013357Y005038D01*
X013274Y005196D02*
X018991Y005196D01*
X019052Y005672D02*
X010301Y005672D01*
X010301Y005830D02*
X018991Y005830D01*
X018991Y005989D02*
X010301Y005989D01*
X010301Y006147D02*
X019046Y006147D01*
X019177Y006306D02*
X010301Y006306D01*
X010301Y006464D02*
X019293Y006464D01*
X019204Y006501D02*
X019384Y006427D01*
X019579Y006427D01*
X019759Y006501D01*
X019897Y006639D01*
X019971Y006819D01*
X019971Y007014D01*
X019897Y007194D01*
X019759Y007332D01*
X019579Y007407D01*
X019384Y007407D01*
X019204Y007332D01*
X019066Y007194D01*
X018991Y007014D01*
X018991Y006819D01*
X019066Y006639D01*
X019204Y006501D01*
X019082Y006623D02*
X010301Y006623D01*
X010301Y006781D02*
X019007Y006781D01*
X018991Y006940D02*
X010457Y006940D01*
X009869Y007257D02*
X007834Y007257D01*
X007955Y006781D02*
X009661Y006781D01*
X009661Y006623D02*
X007880Y006623D01*
X008204Y005355D02*
X008758Y005355D01*
X008568Y005196D02*
X008395Y005196D01*
X008461Y005038D02*
X008501Y005038D01*
X008491Y004879D02*
X008471Y004879D01*
X008430Y004721D02*
X008532Y004721D01*
X008643Y004562D02*
X008320Y004562D01*
X009661Y003611D02*
X006431Y003611D01*
X006471Y003453D02*
X009661Y003453D01*
X009685Y003294D02*
X006461Y003294D01*
X006393Y003136D02*
X009810Y003136D01*
X009968Y002977D02*
X006200Y002977D01*
X006079Y002907D02*
X005884Y002907D01*
X005704Y002832D01*
X005566Y002694D01*
X005491Y002514D01*
X005491Y002319D01*
X005566Y002139D01*
X005704Y002001D01*
X005884Y001927D01*
X006079Y001927D01*
X006259Y002001D01*
X006397Y002139D01*
X006471Y002319D01*
X006471Y002514D01*
X006397Y002694D01*
X006259Y002832D01*
X006079Y002907D01*
X006272Y002819D02*
X010127Y002819D01*
X010285Y002660D02*
X006411Y002660D01*
X006471Y002502D02*
X010444Y002502D01*
X010585Y002343D02*
X006471Y002343D01*
X006415Y002185D02*
X010653Y002185D01*
X010888Y002026D02*
X006284Y002026D01*
X006416Y001868D02*
X009518Y001868D01*
X009471Y001709D02*
X006471Y001709D01*
X006471Y001551D02*
X009471Y001551D01*
X009471Y001392D02*
X006471Y001392D01*
X006471Y001234D02*
X009471Y001234D01*
X009981Y001551D02*
X009981Y001551D01*
X009981Y001709D02*
X009981Y001709D01*
X009981Y001868D02*
X009981Y001868D01*
X010445Y001868D02*
X010789Y001868D01*
X010581Y001709D02*
X010491Y001709D01*
X010491Y001551D02*
X010506Y001551D01*
X010491Y001392D02*
X010491Y001392D01*
X010491Y001234D02*
X010527Y001234D01*
X011173Y001868D02*
X012743Y001868D01*
X012981Y001868D02*
X012981Y001868D01*
X012981Y001709D02*
X012981Y001709D01*
X012981Y001551D02*
X012981Y001551D01*
X013219Y001868D02*
X013743Y001868D01*
X013981Y001868D02*
X013981Y001868D01*
X013981Y001709D02*
X013981Y001709D01*
X013981Y001551D02*
X013981Y001551D01*
X014219Y001868D02*
X014743Y001868D01*
X014981Y001868D02*
X014981Y001868D01*
X014981Y001709D02*
X014981Y001709D01*
X014981Y001551D02*
X014981Y001551D01*
X015219Y001868D02*
X015518Y001868D01*
X015471Y001709D02*
X015399Y001709D01*
X015981Y001709D02*
X015981Y001709D01*
X015981Y001551D02*
X015981Y001551D01*
X015981Y001868D02*
X015981Y001868D01*
X016445Y001868D02*
X017519Y001868D01*
X017432Y001709D02*
X016491Y001709D01*
X016491Y001551D02*
X017401Y001551D01*
X017416Y001392D02*
X016491Y001392D01*
X016491Y001234D02*
X017484Y001234D01*
X017931Y001551D02*
X017971Y001551D01*
X017971Y001547D02*
X017971Y002077D01*
X017994Y002077D01*
X018080Y002063D01*
X018162Y002036D01*
X018239Y001997D01*
X018309Y001946D01*
X018371Y001885D01*
X018422Y001815D01*
X018461Y001738D01*
X018488Y001655D01*
X018501Y001570D01*
X018501Y001547D01*
X017971Y001547D01*
X017971Y001709D02*
X017931Y001709D01*
X017931Y001868D02*
X017971Y001868D01*
X017971Y002026D02*
X017931Y002026D01*
X017720Y002026D02*
X011074Y002026D01*
X011309Y002185D02*
X020986Y002185D01*
X020986Y002343D02*
X011377Y002343D01*
X011375Y002502D02*
X020986Y002502D01*
X020986Y002660D02*
X011298Y002660D01*
X011032Y002819D02*
X017744Y002819D01*
X017651Y002857D02*
X017846Y002777D01*
X018057Y002777D01*
X018251Y002857D01*
X018400Y003006D01*
X018481Y003201D01*
X018481Y003412D01*
X018400Y003607D01*
X018251Y003756D01*
X018057Y003837D01*
X017846Y003837D01*
X017651Y003756D01*
X017502Y003607D01*
X017421Y003412D01*
X017421Y003201D01*
X017502Y003006D01*
X017651Y002857D01*
X017531Y002977D02*
X010873Y002977D01*
X010715Y003136D02*
X017448Y003136D01*
X017421Y003294D02*
X010556Y003294D01*
X010398Y003453D02*
X017438Y003453D01*
X017506Y003611D02*
X010301Y003611D01*
X010301Y003770D02*
X017684Y003770D01*
X018218Y003770D02*
X020244Y003770D01*
X020066Y003611D02*
X018396Y003611D01*
X018464Y003453D02*
X019998Y003453D01*
X019981Y003294D02*
X018481Y003294D01*
X018454Y003136D02*
X020008Y003136D01*
X020091Y002977D02*
X018371Y002977D01*
X018158Y002819D02*
X020304Y002819D01*
X020718Y002819D02*
X020986Y002819D01*
X020986Y002977D02*
X020931Y002977D01*
X020956Y003611D02*
X020986Y003611D01*
X020986Y003770D02*
X020778Y003770D01*
X020986Y003928D02*
X010301Y003928D01*
X010301Y004087D02*
X020986Y004087D01*
X020986Y004245D02*
X010301Y004245D01*
X011382Y001709D02*
X012563Y001709D01*
X012488Y001551D02*
X011456Y001551D01*
X011471Y001392D02*
X012471Y001392D01*
X012504Y001234D02*
X011436Y001234D01*
X013399Y001709D02*
X013563Y001709D01*
X013488Y001551D02*
X013474Y001551D01*
X014399Y001709D02*
X014563Y001709D01*
X014488Y001551D02*
X014474Y001551D01*
X018182Y002026D02*
X020280Y002026D01*
X020491Y002026D02*
X020531Y002026D01*
X020531Y001868D02*
X020491Y001868D01*
X020491Y001709D02*
X020531Y001709D01*
X020531Y001551D02*
X020491Y001551D01*
X020079Y001868D02*
X018383Y001868D01*
X018470Y001709D02*
X019992Y001709D01*
X019961Y001551D02*
X018501Y001551D01*
X018486Y001392D02*
X019976Y001392D01*
X020044Y001234D02*
X018418Y001234D01*
X020742Y002026D02*
X020986Y002026D01*
X020986Y001868D02*
X020943Y001868D01*
X020143Y004562D02*
X019971Y004562D01*
X019971Y004721D02*
X020032Y004721D01*
X019991Y004879D02*
X019971Y004879D01*
X019971Y005038D02*
X020001Y005038D01*
X019971Y005196D02*
X020068Y005196D01*
X019929Y005355D02*
X020258Y005355D01*
X020192Y005513D02*
X019771Y005513D01*
X019910Y005672D02*
X020052Y005672D01*
X019991Y005830D02*
X019971Y005830D01*
X019971Y005989D02*
X019991Y005989D01*
X020046Y006147D02*
X019916Y006147D01*
X019785Y006306D02*
X020177Y006306D01*
X020293Y006464D02*
X019669Y006464D01*
X019880Y006623D02*
X020082Y006623D01*
X020007Y006781D02*
X019955Y006781D01*
X019971Y006940D02*
X019991Y006940D01*
X020026Y007098D02*
X019936Y007098D01*
X019834Y007257D02*
X020128Y007257D01*
X020204Y007501D02*
X020384Y007427D01*
X020579Y007427D01*
X020759Y007501D01*
X020897Y007639D01*
X020971Y007819D01*
X020971Y008014D01*
X020897Y008194D01*
X020759Y008332D01*
X020579Y008407D01*
X020384Y008407D01*
X020204Y008332D01*
X020066Y008194D01*
X019991Y008014D01*
X019991Y007819D01*
X020066Y007639D01*
X020204Y007501D01*
X020131Y007574D02*
X019831Y007574D01*
X019897Y007639D02*
X019971Y007819D01*
X019971Y008014D01*
X019897Y008194D01*
X019759Y008332D01*
X019579Y008407D01*
X019384Y008407D01*
X019204Y008332D01*
X019066Y008194D01*
X018991Y008014D01*
X018991Y007819D01*
X019066Y007639D01*
X019204Y007501D01*
X019384Y007427D01*
X019579Y007427D01*
X019759Y007501D01*
X019897Y007639D01*
X019935Y007732D02*
X020027Y007732D01*
X019991Y007891D02*
X019971Y007891D01*
X019957Y008049D02*
X020006Y008049D01*
X020079Y008208D02*
X019883Y008208D01*
X019676Y008366D02*
X020286Y008366D01*
X020384Y008427D02*
X020579Y008427D01*
X020759Y008501D01*
X020897Y008639D01*
X020971Y008819D01*
X020971Y009014D01*
X020897Y009194D01*
X020759Y009332D01*
X020579Y009407D01*
X020384Y009407D01*
X020204Y009332D01*
X020066Y009194D01*
X019991Y009014D01*
X019991Y008819D01*
X020066Y008639D01*
X020204Y008501D01*
X020384Y008427D01*
X020180Y008525D02*
X019782Y008525D01*
X019759Y008501D02*
X019897Y008639D01*
X019971Y008819D01*
X019971Y009014D01*
X019897Y009194D01*
X019759Y009332D01*
X019579Y009407D01*
X019384Y009407D01*
X019204Y009332D01*
X019066Y009194D01*
X018991Y009014D01*
X018991Y008819D01*
X019066Y008639D01*
X019204Y008501D01*
X019384Y008427D01*
X019579Y008427D01*
X019759Y008501D01*
X019915Y008683D02*
X020047Y008683D01*
X019991Y008842D02*
X019971Y008842D01*
X019971Y009000D02*
X019991Y009000D01*
X020051Y009159D02*
X019911Y009159D01*
X019774Y009317D02*
X020189Y009317D01*
X020774Y009317D02*
X020986Y009317D01*
X020986Y009159D02*
X020911Y009159D01*
X020971Y009000D02*
X020986Y009000D01*
X020971Y008842D02*
X020986Y008842D01*
X020986Y008683D02*
X020915Y008683D01*
X020986Y008525D02*
X020782Y008525D01*
X020676Y008366D02*
X020986Y008366D01*
X020986Y008208D02*
X020883Y008208D01*
X020957Y008049D02*
X020986Y008049D01*
X020971Y007891D02*
X020986Y007891D01*
X020986Y007732D02*
X020935Y007732D01*
X020986Y007574D02*
X020831Y007574D01*
X019131Y007574D02*
X011742Y007574D01*
X011740Y007732D02*
X019027Y007732D01*
X018991Y007891D02*
X011933Y007891D01*
X012048Y008049D02*
X013346Y008049D01*
X013188Y008208D02*
X012069Y008208D01*
X012010Y008366D02*
X013029Y008366D01*
X013050Y008345D02*
X013050Y008345D01*
X013551Y008842D02*
X014064Y008842D01*
X013990Y008683D02*
X013617Y008683D01*
X013551Y009000D02*
X018991Y009000D01*
X018991Y008842D02*
X015427Y008842D01*
X015492Y008683D02*
X019047Y008683D01*
X019180Y008525D02*
X015492Y008525D01*
X015492Y008383D02*
X015119Y008383D01*
X015119Y007951D01*
X015336Y007951D01*
X015381Y007963D01*
X015422Y007987D01*
X015456Y008021D01*
X015480Y008062D01*
X015492Y008108D01*
X015492Y008383D01*
X015492Y008366D02*
X019286Y008366D01*
X019079Y008208D02*
X015492Y008208D01*
X015472Y008049D02*
X019006Y008049D01*
X019128Y007257D02*
X011742Y007257D01*
X011742Y007383D02*
X011369Y007383D01*
X011369Y006951D01*
X011586Y006951D01*
X011631Y006963D01*
X011672Y006987D01*
X011706Y007021D01*
X011730Y007062D01*
X011742Y007108D01*
X011742Y007383D01*
X011739Y007098D02*
X019026Y007098D01*
X019051Y009159D02*
X013551Y009159D01*
X013551Y009317D02*
X019189Y009317D01*
X020074Y010110D02*
X014326Y010110D01*
X014535Y010268D02*
X019993Y010268D01*
X020000Y010585D02*
X014852Y010585D01*
X014694Y010427D02*
X020461Y010427D01*
X020461Y010585D02*
X020501Y010585D01*
X020501Y010744D02*
X020461Y010744D01*
X020461Y010902D02*
X020501Y010902D01*
X020579Y010927D02*
X020759Y011001D01*
X020897Y011139D01*
X020971Y011319D01*
X020971Y011514D01*
X020897Y011694D01*
X020759Y011832D01*
X020579Y011907D01*
X020384Y011907D01*
X020204Y011832D01*
X020066Y011694D01*
X019991Y011514D01*
X019991Y011319D01*
X020066Y011139D01*
X020204Y011001D01*
X020384Y010927D01*
X020579Y010927D01*
X020637Y010902D02*
X020986Y010902D01*
X020986Y010744D02*
X020874Y010744D01*
X020963Y010585D02*
X020986Y010585D01*
X020969Y010268D02*
X020986Y010268D01*
X020986Y010110D02*
X020888Y010110D01*
X020986Y009951D02*
X020691Y009951D01*
X020501Y009951D02*
X020461Y009951D01*
X020461Y010110D02*
X020501Y010110D01*
X020501Y010268D02*
X020461Y010268D01*
X020271Y009951D02*
X013551Y009951D01*
X013551Y009793D02*
X020986Y009793D01*
X020986Y009634D02*
X013551Y009634D01*
X013551Y009476D02*
X020986Y009476D01*
X020088Y010744D02*
X015011Y010744D01*
X015169Y010902D02*
X020325Y010902D01*
X020144Y011061D02*
X015328Y011061D01*
X015486Y011219D02*
X020033Y011219D01*
X019991Y011378D02*
X018917Y011378D01*
X019043Y011536D02*
X020000Y011536D01*
X020066Y011695D02*
X019069Y011695D01*
X019020Y011853D02*
X020255Y011853D01*
X020085Y011927D02*
X019991Y012020D01*
X019991Y012813D01*
X020085Y012907D01*
X020877Y012907D01*
X020971Y012813D01*
X020971Y012020D01*
X020877Y011927D01*
X020085Y011927D01*
X020000Y012012D02*
X015589Y012012D01*
X015430Y012170D02*
X019991Y012170D01*
X019991Y012329D02*
X015161Y012329D01*
X014509Y012329D02*
X014481Y012329D01*
X014160Y012329D02*
X014094Y012329D01*
X014094Y012170D02*
X014160Y012170D01*
X014160Y012012D02*
X014094Y012012D01*
X014094Y011883D02*
X013720Y011883D01*
X013720Y011608D01*
X013733Y011562D01*
X013756Y011521D01*
X013790Y011487D01*
X013831Y011463D01*
X013877Y011451D01*
X014094Y011451D01*
X014094Y011883D01*
X014094Y011853D02*
X014160Y011853D01*
X014160Y011695D02*
X014094Y011695D01*
X014094Y011536D02*
X014160Y011536D01*
X013747Y011536D02*
X013551Y011536D01*
X013551Y011378D02*
X014740Y011378D01*
X014581Y011219D02*
X013551Y011219D01*
X013551Y011061D02*
X014423Y011061D01*
X014264Y010902D02*
X013551Y010902D01*
X013551Y010744D02*
X014106Y010744D01*
X013720Y011695D02*
X013551Y011695D01*
X013551Y011853D02*
X013720Y011853D01*
X013720Y012012D02*
X013551Y012012D01*
X013551Y012170D02*
X013720Y012170D01*
X013772Y012329D02*
X013551Y012329D01*
X013551Y012487D02*
X019991Y012487D01*
X019991Y012646D02*
X013551Y012646D01*
X013551Y012804D02*
X019991Y012804D01*
X020971Y012804D02*
X020986Y012804D01*
X020971Y012646D02*
X020986Y012646D01*
X020971Y012487D02*
X020986Y012487D01*
X020971Y012329D02*
X020986Y012329D01*
X020971Y012170D02*
X020986Y012170D01*
X020986Y012012D02*
X020962Y012012D01*
X020986Y011853D02*
X020708Y011853D01*
X020896Y011695D02*
X020986Y011695D01*
X020986Y011536D02*
X020962Y011536D01*
X020971Y011378D02*
X020986Y011378D01*
X020986Y011219D02*
X020930Y011219D01*
X020986Y011061D02*
X020818Y011061D01*
X020986Y012963D02*
X013551Y012963D01*
X013551Y013121D02*
X020986Y013121D01*
X020986Y013280D02*
X013551Y013280D01*
X013551Y013438D02*
X020986Y013438D01*
X020986Y013597D02*
X013551Y013597D01*
X013551Y013755D02*
X020986Y013755D01*
X020986Y013914D02*
X013551Y013914D01*
X013551Y014072D02*
X020986Y014072D01*
X020986Y014231D02*
X013551Y014231D01*
X013551Y014389D02*
X020986Y014389D01*
X020986Y014548D02*
X013551Y014548D01*
X013551Y014706D02*
X020986Y014706D01*
X020986Y014865D02*
X013551Y014865D01*
X013551Y015023D02*
X016182Y015023D01*
X016204Y015001D02*
X016384Y014927D01*
X016579Y014927D01*
X016759Y015001D01*
X016897Y015139D01*
X016971Y015319D01*
X016971Y015514D01*
X016956Y015552D01*
X017043Y015639D01*
X016991Y015514D01*
X016991Y015319D01*
X017066Y015139D01*
X017204Y015001D01*
X017384Y014927D01*
X017579Y014927D01*
X017759Y015001D01*
X017897Y015139D01*
X017971Y015319D01*
X017971Y015514D01*
X017897Y015694D01*
X017759Y015832D01*
X017579Y015907D01*
X017384Y015907D01*
X017206Y015833D01*
X017221Y015869D01*
X017221Y015994D01*
X017384Y015927D01*
X017579Y015927D01*
X017759Y016001D01*
X017897Y016139D01*
X017971Y016319D01*
X017971Y016514D01*
X017897Y016694D01*
X017759Y016832D01*
X017579Y016907D01*
X017384Y016907D01*
X017259Y016855D01*
X017581Y017177D01*
X018743Y017177D01*
X018790Y017130D01*
X018914Y017079D01*
X019048Y017079D01*
X019173Y017130D01*
X019268Y017225D01*
X019319Y017349D01*
X019319Y017484D01*
X019268Y017608D01*
X019173Y017703D01*
X019048Y017755D01*
X018914Y017755D01*
X018790Y017703D01*
X018743Y017657D01*
X017433Y017657D01*
X017345Y017620D01*
X017278Y017553D01*
X016778Y017053D01*
X016741Y016964D01*
X016741Y016839D01*
X016579Y016907D01*
X016384Y016907D01*
X016204Y016832D01*
X016066Y016694D01*
X015991Y016514D01*
X015991Y016319D01*
X016066Y016139D01*
X016204Y016001D01*
X016384Y015927D01*
X016579Y015927D01*
X016703Y015978D01*
X016616Y015891D01*
X016579Y015907D01*
X016384Y015907D01*
X016204Y015832D01*
X016066Y015694D01*
X015991Y015514D01*
X015991Y015319D01*
X016066Y015139D01*
X016204Y015001D01*
X016048Y015182D02*
X014867Y015182D01*
X014867Y015340D02*
X015991Y015340D01*
X015991Y015499D02*
X014867Y015499D01*
X014867Y015657D02*
X016050Y015657D01*
X016187Y015816D02*
X014867Y015816D01*
X014867Y015974D02*
X016269Y015974D01*
X016072Y016133D02*
X014867Y016133D01*
X014867Y016291D02*
X016003Y016291D01*
X015991Y016450D02*
X014867Y016450D01*
X014867Y016608D02*
X016030Y016608D01*
X016138Y016767D02*
X014867Y016767D01*
X014867Y016925D02*
X016741Y016925D01*
X016809Y017084D02*
X014867Y017084D01*
X014867Y017242D02*
X016967Y017242D01*
X017126Y017401D02*
X014867Y017401D01*
X014867Y017559D02*
X017284Y017559D01*
X017481Y017417D02*
X018981Y017417D01*
X019288Y017559D02*
X020986Y017559D01*
X020986Y017401D02*
X019319Y017401D01*
X019275Y017242D02*
X020986Y017242D01*
X020986Y017084D02*
X019061Y017084D01*
X018901Y017084D02*
X017488Y017084D01*
X017329Y016925D02*
X020986Y016925D01*
X020986Y016767D02*
X020824Y016767D01*
X020759Y016832D02*
X020579Y016907D01*
X020384Y016907D01*
X020204Y016832D01*
X020066Y016694D01*
X019991Y016514D01*
X019991Y016319D01*
X020066Y016139D01*
X020204Y016001D01*
X020384Y015927D01*
X020579Y015927D01*
X020759Y016001D01*
X020897Y016139D01*
X020971Y016319D01*
X020971Y016514D01*
X020897Y016694D01*
X020759Y016832D01*
X020932Y016608D02*
X020986Y016608D01*
X020971Y016450D02*
X020986Y016450D01*
X020986Y016291D02*
X020959Y016291D01*
X020986Y016133D02*
X020890Y016133D01*
X020986Y015974D02*
X020693Y015974D01*
X020877Y015907D02*
X020085Y015907D01*
X019991Y015813D01*
X019991Y015020D01*
X020085Y014927D01*
X020877Y014927D01*
X020971Y015020D01*
X020971Y015813D01*
X020877Y015907D01*
X020968Y015816D02*
X020986Y015816D01*
X020971Y015657D02*
X020986Y015657D01*
X020971Y015499D02*
X020986Y015499D01*
X020971Y015340D02*
X020986Y015340D01*
X020971Y015182D02*
X020986Y015182D01*
X020971Y015023D02*
X020986Y015023D01*
X019991Y015023D02*
X019781Y015023D01*
X019759Y015001D02*
X019897Y015139D01*
X019971Y015319D01*
X019971Y015514D01*
X019897Y015694D01*
X019759Y015832D01*
X019579Y015907D01*
X019384Y015907D01*
X019204Y015832D01*
X019066Y015694D01*
X018991Y015514D01*
X018991Y015319D01*
X019066Y015139D01*
X019204Y015001D01*
X019384Y014927D01*
X019579Y014927D01*
X019759Y015001D01*
X019914Y015182D02*
X019991Y015182D01*
X019991Y015340D02*
X019971Y015340D01*
X019971Y015499D02*
X019991Y015499D01*
X019991Y015657D02*
X019912Y015657D01*
X019994Y015816D02*
X019775Y015816D01*
X019693Y015974D02*
X020269Y015974D01*
X020072Y016133D02*
X019890Y016133D01*
X019897Y016139D02*
X019971Y016319D01*
X019971Y016514D01*
X019897Y016694D01*
X019759Y016832D01*
X019579Y016907D01*
X019384Y016907D01*
X019204Y016832D01*
X019066Y016694D01*
X018991Y016514D01*
X018991Y016319D01*
X019066Y016139D01*
X019204Y016001D01*
X019384Y015927D01*
X019579Y015927D01*
X019759Y016001D01*
X019897Y016139D01*
X019959Y016291D02*
X020003Y016291D01*
X019991Y016450D02*
X019971Y016450D01*
X019932Y016608D02*
X020030Y016608D01*
X020138Y016767D02*
X019824Y016767D01*
X019138Y016767D02*
X018824Y016767D01*
X018759Y016832D02*
X018579Y016907D01*
X018384Y016907D01*
X018204Y016832D01*
X018066Y016694D01*
X017991Y016514D01*
X017991Y016319D01*
X018066Y016139D01*
X018204Y016001D01*
X018384Y015927D01*
X018579Y015927D01*
X018759Y016001D01*
X018897Y016139D01*
X018971Y016319D01*
X018971Y016514D01*
X018897Y016694D01*
X018759Y016832D01*
X018932Y016608D02*
X019030Y016608D01*
X018991Y016450D02*
X018971Y016450D01*
X018959Y016291D02*
X019003Y016291D01*
X019072Y016133D02*
X018890Y016133D01*
X018693Y015974D02*
X019269Y015974D01*
X019187Y015816D02*
X018775Y015816D01*
X018759Y015832D02*
X018579Y015907D01*
X018384Y015907D01*
X018204Y015832D01*
X018066Y015694D01*
X017991Y015514D01*
X017991Y015319D01*
X018066Y015139D01*
X018204Y015001D01*
X018384Y014927D01*
X018579Y014927D01*
X018759Y015001D01*
X018897Y015139D01*
X018971Y015319D01*
X018971Y015514D01*
X018897Y015694D01*
X018759Y015832D01*
X018912Y015657D02*
X019050Y015657D01*
X018991Y015499D02*
X018971Y015499D01*
X018971Y015340D02*
X018991Y015340D01*
X019048Y015182D02*
X018914Y015182D01*
X018781Y015023D02*
X019182Y015023D01*
X018182Y015023D02*
X017781Y015023D01*
X017914Y015182D02*
X018048Y015182D01*
X017991Y015340D02*
X017971Y015340D01*
X017971Y015499D02*
X017991Y015499D01*
X018050Y015657D02*
X017912Y015657D01*
X017775Y015816D02*
X018187Y015816D01*
X018269Y015974D02*
X017693Y015974D01*
X017890Y016133D02*
X018072Y016133D01*
X018003Y016291D02*
X017959Y016291D01*
X017971Y016450D02*
X017991Y016450D01*
X018030Y016608D02*
X017932Y016608D01*
X017824Y016767D02*
X018138Y016767D01*
X017481Y017417D02*
X016981Y016917D01*
X016981Y015917D01*
X016481Y015417D01*
X016914Y015182D02*
X017048Y015182D01*
X016991Y015340D02*
X016971Y015340D01*
X016971Y015499D02*
X016991Y015499D01*
X017182Y015023D02*
X016781Y015023D01*
X016699Y015974D02*
X016693Y015974D01*
X017221Y015974D02*
X017269Y015974D01*
X018824Y017718D02*
X014867Y017718D01*
X014867Y017876D02*
X020986Y017876D01*
X020986Y017718D02*
X019138Y017718D01*
X019384Y019427D02*
X019204Y019501D01*
X019066Y019639D01*
X018991Y019819D01*
X018991Y020014D01*
X019066Y020194D01*
X019204Y020332D01*
X019384Y020407D01*
X019579Y020407D01*
X019759Y020332D01*
X019897Y020194D01*
X019971Y020014D01*
X019971Y019819D01*
X019897Y019639D01*
X019759Y019501D01*
X019579Y019427D01*
X019384Y019427D01*
X019300Y019461D02*
X018662Y019461D01*
X018579Y019427D02*
X018759Y019501D01*
X018897Y019639D01*
X018971Y019819D01*
X018971Y020014D01*
X018897Y020194D01*
X018759Y020332D01*
X018579Y020407D01*
X018384Y020407D01*
X018204Y020332D01*
X018066Y020194D01*
X017991Y020014D01*
X017991Y019819D01*
X018066Y019639D01*
X018204Y019501D01*
X018384Y019427D01*
X018579Y019427D01*
X018300Y019461D02*
X017912Y019461D01*
X017971Y019620D02*
X018085Y019620D01*
X018008Y019778D02*
X017971Y019778D01*
X017971Y019937D02*
X017991Y019937D01*
X017971Y020095D02*
X018025Y020095D01*
X017971Y020254D02*
X018125Y020254D01*
X018837Y020254D02*
X019125Y020254D01*
X019025Y020095D02*
X018938Y020095D01*
X018971Y019937D02*
X018991Y019937D01*
X019008Y019778D02*
X018954Y019778D01*
X018877Y019620D02*
X019085Y019620D01*
X019662Y019461D02*
X020252Y019461D01*
X020461Y019461D02*
X020501Y019461D01*
X020501Y019620D02*
X020461Y019620D01*
X020461Y019778D02*
X020501Y019778D01*
X020711Y019461D02*
X020986Y019461D01*
X020986Y019303D02*
X014867Y019303D01*
X014867Y019461D02*
X017050Y019461D01*
X016991Y019620D02*
X014877Y019620D01*
X014867Y019144D02*
X020986Y019144D01*
X020986Y018986D02*
X014867Y018986D01*
X014867Y018827D02*
X020986Y018827D01*
X020986Y018669D02*
X014867Y018669D01*
X014867Y018510D02*
X020986Y018510D01*
X020986Y018352D02*
X014867Y018352D01*
X014867Y018193D02*
X020986Y018193D01*
X020986Y018035D02*
X014867Y018035D01*
X014867Y020254D02*
X016991Y020254D01*
X014867Y020412D02*
X020356Y020412D01*
X020097Y020254D02*
X019837Y020254D01*
X019938Y020095D02*
X020003Y020095D01*
X019990Y019778D02*
X019954Y019778D01*
X019877Y019620D02*
X020066Y019620D01*
X020896Y019620D02*
X020986Y019620D01*
X020972Y019778D02*
X020986Y019778D01*
X012911Y014072D02*
X011019Y014072D01*
X011009Y014082D02*
X010829Y014157D01*
X010634Y014157D01*
X010454Y014082D01*
X010316Y013944D01*
X010241Y013764D01*
X010241Y013569D01*
X010316Y013389D01*
X010454Y013251D01*
X010634Y013177D01*
X010829Y013177D01*
X011009Y013251D01*
X011147Y013389D01*
X011221Y013569D01*
X011221Y013764D01*
X011147Y013944D01*
X011009Y014082D01*
X011159Y013914D02*
X012911Y013914D01*
X012911Y013755D02*
X011221Y013755D01*
X011221Y013597D02*
X012911Y013597D01*
X012911Y013438D02*
X011167Y013438D01*
X011037Y013280D02*
X012911Y013280D01*
X012911Y013121D02*
X004471Y013121D01*
X004471Y012963D02*
X012911Y012963D01*
X010425Y013280D02*
X010065Y013280D01*
X010063Y013278D02*
X010120Y013334D01*
X010167Y013399D01*
X010204Y013471D01*
X010229Y013547D01*
X010241Y013627D01*
X010241Y013647D01*
X009751Y013647D01*
X009751Y013687D01*
X009711Y013687D01*
X009711Y014177D01*
X009691Y014177D01*
X009612Y014164D01*
X009535Y014139D01*
X009464Y014103D01*
X009399Y014056D01*
X009342Y013999D01*
X009295Y013934D01*
X009258Y013862D01*
X009234Y013786D01*
X009221Y013707D01*
X009221Y013687D01*
X009711Y013687D01*
X009711Y013647D01*
X009221Y013647D01*
X009221Y013627D01*
X009234Y013547D01*
X009258Y013471D01*
X009295Y013399D01*
X009342Y013334D01*
X009399Y013278D01*
X009464Y013230D01*
X009535Y013194D01*
X009612Y013169D01*
X009691Y013157D01*
X009711Y013157D01*
X009711Y013647D01*
X009751Y013647D01*
X009751Y013157D01*
X009771Y013157D01*
X009851Y013169D01*
X009927Y013194D01*
X009998Y013230D01*
X010063Y013278D01*
X010187Y013438D02*
X010295Y013438D01*
X010241Y013597D02*
X010236Y013597D01*
X010241Y013687D02*
X010241Y013707D01*
X010229Y013786D01*
X010204Y013862D01*
X010167Y013934D01*
X010120Y013999D01*
X010063Y014056D01*
X009998Y014103D01*
X009927Y014139D01*
X009851Y014164D01*
X009771Y014177D01*
X009751Y014177D01*
X009751Y013687D01*
X010241Y013687D01*
X010233Y013755D02*
X010241Y013755D01*
X010303Y013914D02*
X010178Y013914D01*
X010041Y014072D02*
X010444Y014072D01*
X009751Y014072D02*
X009711Y014072D01*
X009711Y013914D02*
X009751Y013914D01*
X009751Y013755D02*
X009711Y013755D01*
X009711Y013597D02*
X009751Y013597D01*
X009751Y013438D02*
X009711Y013438D01*
X009711Y013280D02*
X009751Y013280D01*
X009397Y013280D02*
X009037Y013280D01*
X009167Y013438D02*
X009275Y013438D01*
X009226Y013597D02*
X009221Y013597D01*
X009221Y013755D02*
X009229Y013755D01*
X009285Y013914D02*
X009159Y013914D01*
X009019Y014072D02*
X009422Y014072D01*
X007907Y010268D02*
X004471Y010268D01*
X004471Y010110D02*
X007893Y010110D01*
X007968Y009951D02*
X004471Y009951D01*
X004471Y009793D02*
X007991Y009793D01*
X007991Y009634D02*
X004471Y009634D01*
X004380Y009476D02*
X007991Y009476D01*
X009710Y007098D02*
X009661Y006980D01*
X011302Y007098D02*
X011369Y007098D01*
X011369Y007257D02*
X011302Y007257D01*
X014690Y008842D02*
X014744Y008842D01*
X015052Y008842D02*
X015119Y008842D01*
X015119Y008683D02*
X015052Y008683D01*
X015052Y008525D02*
X015119Y008525D01*
X015119Y008366D02*
X015052Y008366D01*
X015052Y008208D02*
X015119Y008208D01*
X015119Y008049D02*
X015052Y008049D01*
X015667Y011378D02*
X018545Y011378D01*
X018731Y011667D02*
X015481Y011667D01*
X005762Y002977D02*
X005002Y002977D01*
X004981Y002948D02*
X005032Y003018D01*
X005071Y003096D01*
X005098Y003178D01*
X005111Y003263D01*
X005111Y003287D01*
X004581Y003287D01*
X004581Y003327D01*
X004541Y003327D01*
X004541Y003857D01*
X004518Y003857D01*
X004432Y003843D01*
X004350Y003816D01*
X004273Y003777D01*
X004203Y003726D01*
X004142Y003665D01*
X004091Y003595D01*
X004051Y003518D01*
X004025Y003435D01*
X004011Y003350D01*
X004011Y003327D01*
X004541Y003327D01*
X004541Y003287D01*
X004011Y003287D01*
X004011Y003263D01*
X004025Y003178D01*
X004051Y003096D01*
X004091Y003018D01*
X004142Y002948D01*
X004203Y002887D01*
X004273Y002836D01*
X004350Y002797D01*
X004432Y002770D01*
X004518Y002757D01*
X004541Y002757D01*
X004541Y003287D01*
X004581Y003287D01*
X004581Y002757D01*
X004604Y002757D01*
X004690Y002770D01*
X004772Y002797D01*
X004849Y002836D01*
X004919Y002887D01*
X004981Y002948D01*
X004815Y002819D02*
X005690Y002819D01*
X005552Y002660D02*
X001661Y002660D01*
X001661Y002502D02*
X005491Y002502D01*
X005491Y002343D02*
X001661Y002343D01*
X001661Y002185D02*
X005547Y002185D01*
X005679Y002026D02*
X004740Y002026D01*
X004970Y001868D02*
X005546Y001868D01*
X005491Y001709D02*
X005059Y001709D01*
X004671Y001417D02*
X004561Y001527D01*
X004671Y001417D02*
X005981Y001417D01*
X004382Y002026D02*
X002180Y002026D01*
X002410Y001868D02*
X004153Y001868D01*
X004063Y001709D02*
X002499Y001709D01*
X002531Y001551D02*
X004031Y001551D01*
X004043Y001392D02*
X002519Y001392D01*
X002453Y001234D02*
X004109Y001234D01*
X004307Y002819D02*
X002255Y002819D01*
X002289Y002836D02*
X002359Y002887D01*
X002421Y002948D01*
X002472Y003018D01*
X002511Y003096D01*
X002538Y003178D01*
X002551Y003263D01*
X002551Y003287D01*
X002021Y003287D01*
X002021Y002757D01*
X002044Y002757D01*
X002130Y002770D01*
X002212Y002797D01*
X002289Y002836D01*
X002442Y002977D02*
X004121Y002977D01*
X004038Y003136D02*
X002524Y003136D01*
X002532Y003453D02*
X004030Y003453D01*
X004103Y003611D02*
X002460Y003611D01*
X002300Y003770D02*
X004263Y003770D01*
X004541Y003770D02*
X004581Y003770D01*
X004581Y003857D02*
X004604Y003857D01*
X004690Y003843D01*
X004772Y003816D01*
X004849Y003777D01*
X004919Y003726D01*
X004981Y003665D01*
X005032Y003595D01*
X005071Y003518D01*
X005098Y003435D01*
X005111Y003350D01*
X005111Y003327D01*
X004581Y003327D01*
X004581Y003857D01*
X004581Y003611D02*
X004541Y003611D01*
X004541Y003453D02*
X004581Y003453D01*
X004581Y003294D02*
X005501Y003294D01*
X005491Y003453D02*
X005092Y003453D01*
X005020Y003611D02*
X005531Y003611D01*
X005641Y003770D02*
X004860Y003770D01*
X004541Y003294D02*
X002021Y003294D01*
X002021Y003136D02*
X001981Y003136D01*
X001981Y002977D02*
X002021Y002977D01*
X002021Y002819D02*
X001981Y002819D01*
X001747Y002819D02*
X001661Y002819D01*
X001981Y003453D02*
X002021Y003453D01*
X002021Y003611D02*
X001981Y003611D01*
X001822Y002026D02*
X001661Y002026D01*
X004541Y002819D02*
X004581Y002819D01*
X004581Y002977D02*
X004541Y002977D01*
X004541Y003136D02*
X004581Y003136D01*
X005084Y003136D02*
X005569Y003136D01*
X002726Y008525D02*
X002699Y008525D01*
X002000Y008525D02*
X001661Y008525D01*
X001661Y008683D02*
X001932Y008683D01*
X001932Y008842D02*
X001661Y008842D01*
X001661Y009000D02*
X001932Y009000D01*
X001932Y009159D02*
X001661Y009159D01*
X001661Y009317D02*
X002008Y009317D01*
X001661Y009476D02*
X002719Y009476D01*
X002723Y009317D02*
X002691Y009317D01*
X002778Y009634D02*
X001661Y009634D01*
X001661Y009793D02*
X002972Y009793D01*
X003302Y009793D02*
X003991Y009793D01*
X003991Y009951D02*
X001661Y009951D01*
X001661Y010110D02*
X003991Y010110D01*
X003991Y010268D02*
X001661Y010268D01*
X001661Y010427D02*
X002085Y010427D01*
X002877Y010427D01*
X002971Y010520D01*
X002971Y011313D01*
X002877Y011407D01*
X002085Y011407D01*
X001991Y011313D01*
X001991Y010520D01*
X002085Y010427D01*
X001991Y010585D02*
X001661Y010585D01*
X001661Y010744D02*
X001991Y010744D01*
X001991Y010902D02*
X001661Y010902D01*
X001661Y011061D02*
X001991Y011061D01*
X001991Y011219D02*
X001661Y011219D01*
X001661Y011378D02*
X002056Y011378D01*
X002204Y011501D02*
X002066Y011639D01*
X001991Y011819D01*
X001991Y012014D01*
X002066Y012194D01*
X002204Y012332D01*
X002384Y012407D01*
X002579Y012407D01*
X002759Y012332D01*
X002897Y012194D01*
X002971Y012014D01*
X002971Y011819D01*
X002897Y011639D01*
X002759Y011501D01*
X002579Y011427D01*
X002384Y011427D01*
X002204Y011501D01*
X002169Y011536D02*
X001661Y011536D01*
X001661Y011695D02*
X002043Y011695D01*
X001991Y011853D02*
X001661Y011853D01*
X001661Y012012D02*
X001991Y012012D01*
X002056Y012170D02*
X001661Y012170D01*
X001661Y012329D02*
X002200Y012329D01*
X002238Y012487D02*
X001661Y012487D01*
X001661Y012646D02*
X002063Y012646D01*
X002066Y012639D02*
X002204Y012501D01*
X002384Y012427D01*
X002579Y012427D01*
X002759Y012501D01*
X002897Y012639D01*
X002971Y012819D01*
X002971Y013014D01*
X002897Y013194D01*
X002759Y013332D01*
X002579Y013407D01*
X002384Y013407D01*
X002204Y013332D01*
X002066Y013194D01*
X001991Y013014D01*
X001991Y012819D01*
X002066Y012639D01*
X001997Y012804D02*
X001661Y012804D01*
X001661Y012963D02*
X001991Y012963D01*
X002035Y013121D02*
X001661Y013121D01*
X001661Y013280D02*
X002151Y013280D01*
X002204Y013501D02*
X002066Y013639D01*
X001991Y013819D01*
X001991Y014014D01*
X002066Y014194D01*
X002204Y014332D01*
X002384Y014407D01*
X002579Y014407D01*
X002759Y014332D01*
X002897Y014194D01*
X002971Y014014D01*
X002971Y013819D01*
X002897Y013639D01*
X002759Y013501D01*
X002579Y013427D01*
X002384Y013427D01*
X002204Y013501D01*
X002108Y013597D02*
X001661Y013597D01*
X001661Y013755D02*
X002018Y013755D01*
X001991Y013914D02*
X001661Y013914D01*
X001661Y014072D02*
X002015Y014072D01*
X002102Y014231D02*
X001661Y014231D01*
X001661Y014389D02*
X002341Y014389D01*
X002362Y014419D02*
X002441Y014407D01*
X002473Y014407D01*
X002473Y014908D01*
X002490Y014908D01*
X002490Y014925D01*
X002991Y014925D01*
X002991Y014957D01*
X002979Y015036D01*
X002954Y015112D01*
X002917Y015184D01*
X002870Y015249D01*
X002813Y015306D01*
X002748Y015353D01*
X002677Y015389D01*
X002601Y015414D01*
X002521Y015427D01*
X002490Y015427D01*
X002490Y014925D01*
X002473Y014925D01*
X002473Y015427D01*
X002441Y015427D01*
X002362Y015414D01*
X002285Y015389D01*
X002214Y015353D01*
X002149Y015306D01*
X002092Y015249D01*
X002045Y015184D01*
X002008Y015112D01*
X001984Y015036D01*
X001971Y014957D01*
X001971Y014925D01*
X002473Y014925D01*
X002473Y014908D01*
X001971Y014908D01*
X001971Y014877D01*
X001984Y014797D01*
X002008Y014721D01*
X002045Y014649D01*
X002092Y014584D01*
X002149Y014528D01*
X002214Y014480D01*
X002285Y014444D01*
X002362Y014419D01*
X002490Y014407D02*
X002521Y014407D01*
X002601Y014419D01*
X002677Y014444D01*
X002748Y014480D01*
X002813Y014528D01*
X002870Y014584D01*
X002917Y014649D01*
X002954Y014721D01*
X002979Y014797D01*
X002991Y014877D01*
X002991Y014908D01*
X002490Y014908D01*
X002490Y014407D01*
X002621Y014389D02*
X003341Y014389D01*
X003384Y014407D02*
X003204Y014332D01*
X003066Y014194D01*
X002991Y014014D01*
X002991Y013819D01*
X003066Y013639D01*
X003204Y013501D01*
X003384Y013427D01*
X003579Y013427D01*
X003759Y013501D01*
X003897Y013639D01*
X003971Y013819D01*
X003971Y014014D01*
X003897Y014194D01*
X003759Y014332D01*
X003579Y014407D01*
X003384Y014407D01*
X003384Y014427D02*
X003579Y014427D01*
X003759Y014501D01*
X003897Y014639D01*
X003971Y014819D01*
X003971Y015014D01*
X003897Y015194D01*
X003759Y015332D01*
X003579Y015407D01*
X003384Y015407D01*
X003204Y015332D01*
X003066Y015194D01*
X002991Y015014D01*
X002991Y014819D01*
X003066Y014639D01*
X003204Y014501D01*
X003384Y014427D01*
X003621Y014389D02*
X003991Y014389D01*
X003991Y014231D02*
X003860Y014231D01*
X003947Y014072D02*
X003991Y014072D01*
X003991Y013914D02*
X003971Y013914D01*
X003991Y013755D02*
X003945Y013755D01*
X003991Y013597D02*
X003854Y013597D01*
X003991Y013438D02*
X003606Y013438D01*
X003579Y013407D02*
X003384Y013407D01*
X003204Y013332D01*
X003066Y013194D01*
X002991Y013014D01*
X002991Y012819D01*
X003066Y012639D01*
X003204Y012501D01*
X003384Y012427D01*
X003579Y012427D01*
X003759Y012501D01*
X003897Y012639D01*
X003971Y012819D01*
X003971Y013014D01*
X003897Y013194D01*
X003759Y013332D01*
X003579Y013407D01*
X003356Y013438D02*
X002606Y013438D01*
X002356Y013438D02*
X001661Y013438D01*
X002725Y012487D02*
X003238Y012487D01*
X003204Y012332D02*
X003384Y012407D01*
X003579Y012407D01*
X003759Y012332D01*
X003897Y012194D01*
X003971Y012014D01*
X003971Y011819D01*
X003897Y011639D01*
X003759Y011501D01*
X003579Y011427D01*
X003384Y011427D01*
X003204Y011501D01*
X003066Y011639D01*
X002991Y011819D01*
X002991Y012014D01*
X003066Y012194D01*
X003204Y012332D01*
X003200Y012329D02*
X002762Y012329D01*
X002906Y012170D02*
X003056Y012170D01*
X002991Y012012D02*
X002971Y012012D01*
X002971Y011853D02*
X002991Y011853D01*
X003043Y011695D02*
X002920Y011695D01*
X002794Y011536D02*
X003169Y011536D01*
X003204Y011332D02*
X003066Y011194D01*
X002991Y011014D01*
X002991Y010819D01*
X003066Y010639D01*
X003204Y010501D01*
X003384Y010427D01*
X003579Y010427D01*
X003991Y010427D01*
X003991Y010585D02*
X003843Y010585D01*
X003897Y010639D02*
X003971Y010819D01*
X003971Y011014D01*
X003897Y011194D01*
X003759Y011332D01*
X003579Y011407D01*
X003384Y011407D01*
X003204Y011332D01*
X003314Y011378D02*
X002906Y011378D01*
X002971Y011219D02*
X003091Y011219D01*
X003010Y011061D02*
X002971Y011061D01*
X002971Y010902D02*
X002991Y010902D01*
X002971Y010744D02*
X003022Y010744D01*
X002971Y010585D02*
X003120Y010585D01*
X002877Y010427D02*
X003384Y010427D01*
X003579Y010427D02*
X003759Y010501D01*
X003897Y010639D01*
X003940Y010744D02*
X003991Y010744D01*
X003991Y010902D02*
X003971Y010902D01*
X003952Y011061D02*
X003991Y011061D01*
X003991Y011219D02*
X003872Y011219D01*
X003991Y011378D02*
X003649Y011378D01*
X003794Y011536D02*
X003991Y011536D01*
X003991Y011695D02*
X003920Y011695D01*
X003971Y011853D02*
X003991Y011853D01*
X003991Y012012D02*
X003971Y012012D01*
X003991Y012170D02*
X003906Y012170D01*
X003991Y012329D02*
X003762Y012329D01*
X003725Y012487D02*
X003991Y012487D01*
X003991Y012646D02*
X003899Y012646D01*
X003965Y012804D02*
X003991Y012804D01*
X003991Y012963D02*
X003971Y012963D01*
X003991Y013121D02*
X003927Y013121D01*
X003991Y013280D02*
X003811Y013280D01*
X003151Y013280D02*
X002811Y013280D01*
X002927Y013121D02*
X003035Y013121D01*
X002991Y012963D02*
X002971Y012963D01*
X002965Y012804D02*
X002997Y012804D01*
X003063Y012646D02*
X002899Y012646D01*
X002854Y013597D02*
X003108Y013597D01*
X003018Y013755D02*
X002945Y013755D01*
X002971Y013914D02*
X002991Y013914D01*
X003015Y014072D02*
X002947Y014072D01*
X002860Y014231D02*
X003102Y014231D01*
X003157Y014548D02*
X002833Y014548D01*
X002946Y014706D02*
X003038Y014706D01*
X002991Y014865D02*
X002989Y014865D01*
X002981Y015023D02*
X002995Y015023D01*
X003061Y015182D02*
X002918Y015182D01*
X002766Y015340D02*
X003223Y015340D01*
X003739Y015340D02*
X003991Y015340D01*
X003991Y015182D02*
X003902Y015182D01*
X003967Y015023D02*
X003991Y015023D01*
X003991Y014865D02*
X003971Y014865D01*
X003991Y014706D02*
X003924Y014706D01*
X003991Y014548D02*
X003805Y014548D01*
X004005Y015499D02*
X001661Y015499D01*
X001661Y015657D02*
X004132Y015657D01*
X004291Y015816D02*
X001661Y015816D01*
X001661Y015974D02*
X004449Y015974D01*
X004625Y016133D02*
X001661Y016133D01*
X001661Y015340D02*
X002196Y015340D01*
X002044Y015182D02*
X001661Y015182D01*
X001661Y015023D02*
X001982Y015023D01*
X001973Y014865D02*
X001661Y014865D01*
X001661Y014706D02*
X002016Y014706D01*
X002129Y014548D02*
X001661Y014548D01*
X002473Y014548D02*
X002490Y014548D01*
X002473Y014706D02*
X002490Y014706D01*
X002473Y014865D02*
X002490Y014865D01*
X002473Y015023D02*
X002490Y015023D01*
X002473Y015182D02*
X002490Y015182D01*
X002473Y015340D02*
X002490Y015340D01*
X003496Y009634D02*
X003859Y009634D01*
X003701Y009476D02*
X003555Y009476D01*
D26*
X010981Y002417D03*
M02*
