G75*
%MOIN*%
%OFA0B0*%
%FSLAX24Y24*%
%IPPOS*%
%LPD*%
%AMOC8*
5,1,8,0,0,1.08239X$1,22.5*
%
%ADD10C,0.0000*%
%ADD11C,0.0400*%
%ADD12C,0.0050*%
%ADD13C,0.0060*%
%ADD14C,0.0070*%
%ADD15C,0.0020*%
%ADD16R,0.0200X0.0450*%
%ADD17R,0.0492X0.0189*%
%ADD18R,0.0492X0.0157*%
%ADD19C,0.0040*%
%ADD20R,0.0059X0.0118*%
%ADD21R,0.0118X0.0118*%
%ADD22R,0.0531X0.0236*%
%ADD23R,0.0030X0.1634*%
%ADD24R,0.0591X0.0049*%
%ADD25R,0.0591X0.0197*%
%ADD26C,0.0080*%
%ADD27C,0.0004*%
%ADD28R,0.0450X0.0502*%
%ADD29R,0.0450X0.0492*%
%ADD30R,0.0200X1.2200*%
%ADD31R,0.0984X0.0472*%
%ADD32R,0.0630X0.7244*%
%ADD33R,0.0200X0.0200*%
D10*
X004680Y002050D02*
X004680Y011499D01*
X023971Y011499D01*
X023971Y002050D01*
X004680Y002050D01*
X007286Y003611D02*
X007286Y004989D01*
X008074Y004989D01*
X008074Y003611D01*
X007286Y003611D01*
X008786Y003611D02*
X008786Y004989D01*
X009574Y004989D01*
X009574Y003611D01*
X008786Y003611D01*
X010286Y003611D02*
X010286Y004989D01*
X011074Y004989D01*
X011074Y003611D01*
X010286Y003611D01*
X011786Y003611D02*
X011786Y004989D01*
X012574Y004989D01*
X012574Y003611D01*
X011786Y003611D01*
X013806Y003611D02*
X013806Y004989D01*
X014554Y004989D01*
X014554Y003611D01*
X013806Y003611D01*
X021589Y004550D02*
X021591Y004598D01*
X021597Y004646D01*
X021607Y004693D01*
X021620Y004739D01*
X021638Y004784D01*
X021658Y004828D01*
X021683Y004870D01*
X021711Y004909D01*
X021741Y004946D01*
X021775Y004980D01*
X021812Y005012D01*
X021850Y005041D01*
X021891Y005066D01*
X021934Y005088D01*
X021979Y005106D01*
X022025Y005120D01*
X022072Y005131D01*
X022120Y005138D01*
X022168Y005141D01*
X022216Y005140D01*
X022264Y005135D01*
X022312Y005126D01*
X022358Y005114D01*
X022403Y005097D01*
X022447Y005077D01*
X022489Y005054D01*
X022529Y005027D01*
X022567Y004997D01*
X022602Y004964D01*
X022634Y004928D01*
X022664Y004890D01*
X022690Y004849D01*
X022712Y004806D01*
X022732Y004762D01*
X022747Y004717D01*
X022759Y004670D01*
X022767Y004622D01*
X022771Y004574D01*
X022771Y004526D01*
X022767Y004478D01*
X022759Y004430D01*
X022747Y004383D01*
X022732Y004338D01*
X022712Y004294D01*
X022690Y004251D01*
X022664Y004210D01*
X022634Y004172D01*
X022602Y004136D01*
X022567Y004103D01*
X022529Y004073D01*
X022489Y004046D01*
X022447Y004023D01*
X022403Y004003D01*
X022358Y003986D01*
X022312Y003974D01*
X022264Y003965D01*
X022216Y003960D01*
X022168Y003959D01*
X022120Y003962D01*
X022072Y003969D01*
X022025Y003980D01*
X021979Y003994D01*
X021934Y004012D01*
X021891Y004034D01*
X021850Y004059D01*
X021812Y004088D01*
X021775Y004120D01*
X021741Y004154D01*
X021711Y004191D01*
X021683Y004230D01*
X021658Y004272D01*
X021638Y004316D01*
X021620Y004361D01*
X021607Y004407D01*
X021597Y004454D01*
X021591Y004502D01*
X021589Y004550D01*
X021589Y009050D02*
X021591Y009098D01*
X021597Y009146D01*
X021607Y009193D01*
X021620Y009239D01*
X021638Y009284D01*
X021658Y009328D01*
X021683Y009370D01*
X021711Y009409D01*
X021741Y009446D01*
X021775Y009480D01*
X021812Y009512D01*
X021850Y009541D01*
X021891Y009566D01*
X021934Y009588D01*
X021979Y009606D01*
X022025Y009620D01*
X022072Y009631D01*
X022120Y009638D01*
X022168Y009641D01*
X022216Y009640D01*
X022264Y009635D01*
X022312Y009626D01*
X022358Y009614D01*
X022403Y009597D01*
X022447Y009577D01*
X022489Y009554D01*
X022529Y009527D01*
X022567Y009497D01*
X022602Y009464D01*
X022634Y009428D01*
X022664Y009390D01*
X022690Y009349D01*
X022712Y009306D01*
X022732Y009262D01*
X022747Y009217D01*
X022759Y009170D01*
X022767Y009122D01*
X022771Y009074D01*
X022771Y009026D01*
X022767Y008978D01*
X022759Y008930D01*
X022747Y008883D01*
X022732Y008838D01*
X022712Y008794D01*
X022690Y008751D01*
X022664Y008710D01*
X022634Y008672D01*
X022602Y008636D01*
X022567Y008603D01*
X022529Y008573D01*
X022489Y008546D01*
X022447Y008523D01*
X022403Y008503D01*
X022358Y008486D01*
X022312Y008474D01*
X022264Y008465D01*
X022216Y008460D01*
X022168Y008459D01*
X022120Y008462D01*
X022072Y008469D01*
X022025Y008480D01*
X021979Y008494D01*
X021934Y008512D01*
X021891Y008534D01*
X021850Y008559D01*
X021812Y008588D01*
X021775Y008620D01*
X021741Y008654D01*
X021711Y008691D01*
X021683Y008730D01*
X021658Y008772D01*
X021638Y008816D01*
X021620Y008861D01*
X021607Y008907D01*
X021597Y008954D01*
X021591Y009002D01*
X021589Y009050D01*
X022089Y010550D02*
X022091Y010598D01*
X022097Y010646D01*
X022107Y010693D01*
X022120Y010739D01*
X022138Y010784D01*
X022158Y010828D01*
X022183Y010870D01*
X022211Y010909D01*
X022241Y010946D01*
X022275Y010980D01*
X022312Y011012D01*
X022350Y011041D01*
X022391Y011066D01*
X022434Y011088D01*
X022479Y011106D01*
X022525Y011120D01*
X022572Y011131D01*
X022620Y011138D01*
X022668Y011141D01*
X022716Y011140D01*
X022764Y011135D01*
X022812Y011126D01*
X022858Y011114D01*
X022903Y011097D01*
X022947Y011077D01*
X022989Y011054D01*
X023029Y011027D01*
X023067Y010997D01*
X023102Y010964D01*
X023134Y010928D01*
X023164Y010890D01*
X023190Y010849D01*
X023212Y010806D01*
X023232Y010762D01*
X023247Y010717D01*
X023259Y010670D01*
X023267Y010622D01*
X023271Y010574D01*
X023271Y010526D01*
X023267Y010478D01*
X023259Y010430D01*
X023247Y010383D01*
X023232Y010338D01*
X023212Y010294D01*
X023190Y010251D01*
X023164Y010210D01*
X023134Y010172D01*
X023102Y010136D01*
X023067Y010103D01*
X023029Y010073D01*
X022989Y010046D01*
X022947Y010023D01*
X022903Y010003D01*
X022858Y009986D01*
X022812Y009974D01*
X022764Y009965D01*
X022716Y009960D01*
X022668Y009959D01*
X022620Y009962D01*
X022572Y009969D01*
X022525Y009980D01*
X022479Y009994D01*
X022434Y010012D01*
X022391Y010034D01*
X022350Y010059D01*
X022312Y010088D01*
X022275Y010120D01*
X022241Y010154D01*
X022211Y010191D01*
X022183Y010230D01*
X022158Y010272D01*
X022138Y010316D01*
X022120Y010361D01*
X022107Y010407D01*
X022097Y010454D01*
X022091Y010502D01*
X022089Y010550D01*
X007774Y010739D02*
X007774Y009361D01*
X006986Y009361D01*
X006986Y010739D01*
X007774Y010739D01*
D11*
X008430Y007300D03*
D12*
X008505Y007775D02*
X008505Y007925D01*
X008505Y007850D02*
X008055Y007850D01*
X008055Y007775D02*
X008055Y007925D01*
X008130Y008082D02*
X008430Y008082D01*
X008505Y008157D01*
X008505Y008307D01*
X008430Y008382D01*
X008505Y008542D02*
X008505Y008843D01*
X008505Y008692D02*
X008055Y008692D01*
X008205Y008542D01*
X008130Y008382D02*
X008055Y008307D01*
X008055Y008157D01*
X008130Y008082D01*
X006879Y009494D02*
X006579Y009494D01*
X006504Y009569D01*
X006504Y009719D01*
X006579Y009795D01*
X006504Y009955D02*
X006729Y009955D01*
X006654Y010105D01*
X006654Y010180D01*
X006729Y010255D01*
X006879Y010255D01*
X006954Y010180D01*
X006954Y010030D01*
X006879Y009955D01*
X006879Y009795D02*
X006954Y009719D01*
X006954Y009569D01*
X006879Y009494D01*
X007134Y009656D02*
X007134Y010444D01*
X007626Y010444D01*
X007626Y009656D01*
X007134Y009656D01*
X007104Y010050D02*
X007656Y010050D01*
X006504Y009955D02*
X006504Y010255D01*
X004013Y009052D02*
X004013Y008902D01*
X003938Y008827D01*
X003788Y008827D02*
X003712Y008977D01*
X003712Y009052D01*
X003788Y009127D01*
X003938Y009127D01*
X004013Y009052D01*
X003788Y008827D02*
X003562Y008827D01*
X003562Y009127D01*
X000730Y005506D02*
X000430Y005506D01*
X000355Y005431D01*
X000355Y005206D01*
X000805Y005206D01*
X000805Y005431D01*
X000730Y005506D01*
X000730Y005046D02*
X000430Y005046D01*
X000355Y004971D01*
X000355Y004821D01*
X000430Y004746D01*
X000505Y004746D01*
X000580Y004821D01*
X000580Y005046D01*
X000730Y005046D02*
X000805Y004971D01*
X000805Y004821D01*
X000730Y004746D01*
X000730Y004586D02*
X000430Y004586D01*
X000730Y004285D01*
X000805Y004360D01*
X000805Y004511D01*
X000730Y004586D01*
X000430Y004586D02*
X000355Y004511D01*
X000355Y004360D01*
X000430Y004285D01*
X000730Y004285D01*
X000355Y004125D02*
X000355Y003825D01*
X000805Y003825D01*
X000580Y003825D02*
X000580Y003975D01*
X003562Y004644D02*
X003712Y004494D01*
X003562Y004644D02*
X004013Y004644D01*
X004013Y004494D02*
X004013Y004795D01*
X006804Y004355D02*
X007254Y004355D01*
X007254Y004205D02*
X007254Y004505D01*
X007434Y004694D02*
X007926Y004694D01*
X007926Y003906D01*
X007434Y003906D01*
X007434Y004694D01*
X007404Y004300D02*
X007956Y004300D01*
X008304Y004280D02*
X008304Y004430D01*
X008379Y004505D01*
X008454Y004505D01*
X008754Y004205D01*
X008754Y004505D01*
X008934Y004694D02*
X009426Y004694D01*
X009426Y003906D01*
X008934Y003906D01*
X008934Y004694D01*
X008904Y004300D02*
X009456Y004300D01*
X009804Y004280D02*
X009804Y004430D01*
X009879Y004505D01*
X009954Y004505D01*
X010029Y004430D01*
X010104Y004505D01*
X010179Y004505D01*
X010254Y004430D01*
X010254Y004280D01*
X010179Y004205D01*
X010029Y004355D02*
X010029Y004430D01*
X009879Y004205D02*
X009804Y004280D01*
X009879Y004045D02*
X009804Y003969D01*
X009804Y003819D01*
X009879Y003744D01*
X010179Y003744D01*
X010254Y003819D01*
X010254Y003969D01*
X010179Y004045D01*
X010434Y003906D02*
X010434Y004694D01*
X010926Y004694D01*
X010926Y003906D01*
X010434Y003906D01*
X010404Y004300D02*
X010956Y004300D01*
X011304Y004430D02*
X011529Y004205D01*
X011529Y004505D01*
X011754Y004430D02*
X011304Y004430D01*
X011904Y004300D02*
X012456Y004300D01*
X012426Y003906D02*
X011934Y003906D01*
X011934Y004694D01*
X012426Y004694D01*
X012426Y003906D01*
X011754Y003969D02*
X011754Y003819D01*
X011679Y003744D01*
X011379Y003744D01*
X011304Y003819D01*
X011304Y003969D01*
X011379Y004045D01*
X011679Y004045D02*
X011754Y003969D01*
X013304Y003969D02*
X013304Y003744D01*
X013754Y003744D01*
X013604Y003744D02*
X013604Y003969D01*
X013529Y004045D01*
X013379Y004045D01*
X013304Y003969D01*
X013604Y003894D02*
X013754Y004045D01*
X013934Y003906D02*
X013934Y004694D01*
X014426Y004694D01*
X014426Y003906D01*
X013934Y003906D01*
X013754Y004205D02*
X013754Y004505D01*
X013754Y004355D02*
X013304Y004355D01*
X013454Y004205D01*
X013305Y005983D02*
X012855Y005983D01*
X013305Y005983D02*
X013305Y006284D01*
X013305Y006444D02*
X013305Y006744D01*
X013305Y006904D02*
X013305Y007129D01*
X013230Y007204D01*
X012930Y007204D01*
X012855Y007129D01*
X012855Y006904D01*
X013305Y006904D01*
X013080Y006594D02*
X013080Y006444D01*
X012855Y006444D02*
X013305Y006444D01*
X012855Y006444D02*
X012855Y006744D01*
X013005Y007365D02*
X012855Y007515D01*
X013305Y007515D01*
X013305Y007365D02*
X013305Y007665D01*
X015385Y007389D02*
X015385Y007254D01*
X015655Y007254D01*
X015565Y007254D02*
X015565Y007389D01*
X015520Y007434D01*
X015430Y007434D01*
X015385Y007389D01*
X015565Y007344D02*
X015655Y007434D01*
X015655Y007548D02*
X015475Y007728D01*
X015475Y007548D02*
X015655Y007728D01*
X015385Y008138D02*
X015385Y008318D01*
X015385Y008228D02*
X015655Y008228D01*
X015655Y008432D02*
X015475Y008612D01*
X015475Y008432D02*
X015655Y008612D01*
X015610Y009022D02*
X015430Y009022D01*
X015385Y009067D01*
X015385Y009157D01*
X015430Y009202D01*
X015520Y009202D02*
X015520Y009112D01*
X015520Y009202D02*
X015610Y009202D01*
X015655Y009157D01*
X015655Y009067D01*
X015610Y009022D01*
X015655Y009316D02*
X015475Y009316D01*
X015475Y009451D01*
X015520Y009496D01*
X015655Y009496D01*
X015610Y009611D02*
X015520Y009611D01*
X015475Y009656D01*
X015475Y009791D01*
X015385Y009791D02*
X015655Y009791D01*
X015655Y009656D01*
X015610Y009611D01*
X017425Y009720D02*
X017425Y009870D01*
X017500Y009945D01*
X017575Y009945D01*
X017650Y009870D01*
X017725Y009945D01*
X017800Y009945D01*
X017875Y009870D01*
X017875Y009720D01*
X017800Y009645D01*
X017650Y009795D02*
X017650Y009870D01*
X017500Y009645D02*
X017425Y009720D01*
X017425Y009484D02*
X017425Y009334D01*
X017425Y009409D02*
X017800Y009409D01*
X017875Y009334D01*
X017875Y009259D01*
X017800Y009184D01*
X015655Y006844D02*
X015655Y006709D01*
X015610Y006664D01*
X015520Y006664D01*
X015475Y006709D01*
X015475Y006844D01*
X015475Y006550D02*
X015475Y006415D01*
X015520Y006370D01*
X015610Y006370D01*
X015655Y006415D01*
X015655Y006550D01*
X015565Y006255D02*
X015385Y006255D01*
X015565Y006255D02*
X015655Y006165D01*
X015565Y006075D01*
X015385Y006075D01*
X008754Y003969D02*
X008754Y003819D01*
X008679Y003744D01*
X008379Y003744D01*
X008304Y003819D01*
X008304Y003969D01*
X008379Y004045D01*
X008679Y004045D02*
X008754Y003969D01*
X008379Y004205D02*
X008304Y004280D01*
X007254Y003969D02*
X007254Y003819D01*
X007179Y003744D01*
X006879Y003744D01*
X006804Y003819D01*
X006804Y003969D01*
X006879Y004045D01*
X007179Y004045D02*
X007254Y003969D01*
X006954Y004205D02*
X006804Y004355D01*
D13*
X004180Y002993D02*
X004180Y010607D01*
X004180Y010600D02*
X004178Y010630D01*
X004173Y010660D01*
X004164Y010689D01*
X004151Y010716D01*
X004136Y010742D01*
X004117Y010766D01*
X004096Y010787D01*
X004072Y010806D01*
X004046Y010821D01*
X004019Y010834D01*
X003990Y010843D01*
X003960Y010848D01*
X003930Y010850D01*
X002980Y010850D01*
X002980Y010900D01*
X002780Y010900D01*
X002659Y010250D02*
X002657Y010220D01*
X002652Y010190D01*
X002643Y010161D01*
X002630Y010134D01*
X002615Y010108D01*
X002596Y010084D01*
X002575Y010063D01*
X002551Y010044D01*
X002525Y010029D01*
X002498Y010016D01*
X002469Y010007D01*
X002439Y010002D01*
X002409Y010000D01*
X000330Y010000D01*
X000304Y009998D01*
X000278Y009993D01*
X000253Y009985D01*
X000230Y009973D01*
X000208Y009959D01*
X000189Y009941D01*
X000171Y009922D01*
X000157Y009900D01*
X000145Y009877D01*
X000137Y009852D01*
X000132Y009826D01*
X000130Y009800D01*
X000130Y003800D01*
X000132Y003774D01*
X000137Y003748D01*
X000145Y003723D01*
X000157Y003700D01*
X000171Y003678D01*
X000189Y003659D01*
X000208Y003641D01*
X000230Y003627D01*
X000253Y003615D01*
X000278Y003607D01*
X000304Y003602D01*
X000330Y003600D01*
X002409Y003600D01*
X002439Y003598D01*
X002469Y003593D01*
X002498Y003584D01*
X002525Y003571D01*
X002551Y003556D01*
X002575Y003537D01*
X002596Y003516D01*
X002615Y003492D01*
X002630Y003466D01*
X002643Y003439D01*
X002652Y003410D01*
X002657Y003380D01*
X002659Y003350D01*
X002780Y002700D02*
X002980Y002700D01*
X002980Y002750D01*
X003930Y002750D01*
X003960Y002752D01*
X003990Y002757D01*
X004019Y002766D01*
X004046Y002779D01*
X004072Y002794D01*
X004096Y002813D01*
X004117Y002834D01*
X004136Y002858D01*
X004151Y002884D01*
X004164Y002911D01*
X004173Y002940D01*
X004178Y002970D01*
X004180Y003000D01*
X008830Y007780D02*
X012530Y007780D01*
X012553Y007782D01*
X012576Y007787D01*
X012598Y007796D01*
X012618Y007809D01*
X012636Y007824D01*
X012651Y007842D01*
X012664Y007862D01*
X012673Y007884D01*
X012678Y007907D01*
X012680Y007930D01*
X012680Y009170D01*
X012678Y009193D01*
X012673Y009216D01*
X012664Y009238D01*
X012651Y009258D01*
X012636Y009276D01*
X012618Y009291D01*
X012598Y009304D01*
X012576Y009313D01*
X012553Y009318D01*
X012530Y009320D01*
X008830Y009320D01*
X008807Y009318D01*
X008784Y009313D01*
X008762Y009304D01*
X008742Y009291D01*
X008724Y009276D01*
X008709Y009258D01*
X008696Y009238D01*
X008687Y009216D01*
X008682Y009193D01*
X008680Y009170D01*
X008680Y008750D01*
X008680Y008350D01*
X008680Y007930D01*
X008682Y007907D01*
X008687Y007884D01*
X008696Y007862D01*
X008709Y007842D01*
X008724Y007824D01*
X008742Y007809D01*
X008762Y007796D01*
X008784Y007787D01*
X008807Y007782D01*
X008830Y007780D01*
X008680Y008350D02*
X008707Y008352D01*
X008734Y008357D01*
X008760Y008367D01*
X008784Y008379D01*
X008806Y008395D01*
X008826Y008413D01*
X008843Y008435D01*
X008858Y008458D01*
X008868Y008483D01*
X008876Y008509D01*
X008880Y008536D01*
X008880Y008564D01*
X008876Y008591D01*
X008868Y008617D01*
X008858Y008642D01*
X008843Y008665D01*
X008826Y008687D01*
X008806Y008705D01*
X008784Y008721D01*
X008760Y008733D01*
X008734Y008743D01*
X008707Y008748D01*
X008680Y008750D01*
X013710Y010687D02*
X013817Y010580D01*
X014030Y010580D01*
X014137Y010687D01*
X014137Y010794D01*
X014030Y010900D01*
X013817Y010900D01*
X013710Y011007D01*
X013710Y011114D01*
X013817Y011221D01*
X014030Y011221D01*
X014137Y011114D01*
X014355Y010900D02*
X014461Y011007D01*
X014675Y011007D01*
X014782Y010900D01*
X014782Y010794D01*
X014355Y010794D01*
X014355Y010900D02*
X014355Y010687D01*
X014461Y010580D01*
X014675Y010580D01*
X014999Y010580D02*
X015319Y010580D01*
X015426Y010687D01*
X015426Y010900D01*
X015319Y011007D01*
X014999Y011007D01*
X014999Y010366D01*
X016180Y009800D02*
X016180Y009300D01*
X016430Y009050D01*
X016180Y008800D01*
X016180Y008300D01*
X016430Y008050D01*
X016930Y008050D01*
X017180Y008300D01*
X017180Y008800D01*
X016930Y009050D01*
X016430Y009050D01*
X016930Y009050D02*
X017180Y009300D01*
X017180Y009800D01*
X016930Y010050D01*
X016430Y010050D01*
X016180Y009800D01*
X016288Y010580D02*
X016715Y011007D01*
X016715Y011114D01*
X016608Y011221D01*
X016395Y011221D01*
X016288Y011114D01*
X016933Y011114D02*
X017040Y011221D01*
X017253Y011221D01*
X017360Y011114D01*
X016933Y010687D01*
X017040Y010580D01*
X017253Y010580D01*
X017360Y010687D01*
X017360Y011114D01*
X017577Y011007D02*
X017791Y011221D01*
X017791Y010580D01*
X018004Y010580D02*
X017577Y010580D01*
X018222Y010687D02*
X018329Y010580D01*
X018542Y010580D01*
X018649Y010687D01*
X018649Y010794D01*
X018542Y010900D01*
X018435Y010900D01*
X018542Y010900D02*
X018649Y011007D01*
X018649Y011114D01*
X018542Y011221D01*
X018329Y011221D01*
X018222Y011114D01*
X016933Y011114D02*
X016933Y010687D01*
X016715Y010580D02*
X016288Y010580D01*
X016430Y008050D02*
X016180Y007800D01*
X016180Y007300D01*
X016430Y007050D01*
X016180Y006800D01*
X016180Y006300D01*
X016430Y006050D01*
X016930Y006050D01*
X017180Y006300D01*
X017180Y006800D01*
X016930Y007050D01*
X016430Y007050D01*
X016930Y007050D02*
X017180Y007300D01*
X017180Y007800D01*
X016930Y008050D01*
D14*
X017598Y003075D02*
X017598Y002585D01*
X017409Y002667D02*
X017328Y002748D01*
X017164Y002748D01*
X017082Y002830D01*
X017164Y002912D01*
X017409Y002912D01*
X017598Y002830D02*
X017680Y002912D01*
X017843Y002912D01*
X017925Y002830D01*
X017925Y002585D01*
X018114Y002667D02*
X018114Y002830D01*
X018195Y002912D01*
X018359Y002912D01*
X018441Y002830D01*
X018441Y002748D01*
X018114Y002748D01*
X018114Y002667D02*
X018195Y002585D01*
X018359Y002585D01*
X018629Y002585D02*
X018629Y002912D01*
X018875Y002912D01*
X018956Y002830D01*
X018956Y002585D01*
X019145Y002585D02*
X019145Y003075D01*
X019390Y002912D02*
X019145Y002748D01*
X019390Y002585D01*
X019575Y002667D02*
X019656Y002585D01*
X019820Y002585D01*
X019902Y002667D01*
X019902Y002830D01*
X019820Y002912D01*
X019656Y002912D01*
X019575Y002830D01*
X019575Y002667D01*
X017409Y002667D02*
X017328Y002585D01*
X017082Y002585D01*
X016894Y002748D02*
X016567Y002748D01*
X016567Y002667D02*
X016567Y002830D01*
X016649Y002912D01*
X016812Y002912D01*
X016894Y002830D01*
X016894Y002748D01*
X016812Y002585D02*
X016649Y002585D01*
X016567Y002667D01*
X016378Y002585D02*
X016051Y002585D01*
X016051Y003075D01*
X015351Y002912D02*
X015269Y002912D01*
X015106Y002748D01*
X015106Y002585D02*
X015106Y002912D01*
X014917Y002830D02*
X014917Y002667D01*
X014835Y002585D01*
X014672Y002585D01*
X014590Y002667D01*
X014590Y002830D01*
X014672Y002912D01*
X014835Y002912D01*
X014917Y002830D01*
X014402Y002912D02*
X014156Y002912D01*
X014075Y002830D01*
X014075Y002667D01*
X014156Y002585D01*
X014402Y002585D01*
X014402Y002503D02*
X014402Y002912D01*
X013894Y003075D02*
X013731Y003075D01*
X013813Y003075D02*
X013813Y002585D01*
X013894Y002585D02*
X013731Y002585D01*
X014238Y002422D02*
X014320Y002422D01*
X014402Y002503D01*
X013026Y002503D02*
X012945Y002422D01*
X012863Y002422D01*
X012781Y002585D02*
X013026Y002585D01*
X013026Y002503D02*
X013026Y002912D01*
X012700Y002912D02*
X012700Y002667D01*
X012781Y002585D01*
X012511Y002667D02*
X012511Y002830D01*
X012429Y002912D01*
X012184Y002912D01*
X012184Y003075D02*
X012184Y002585D01*
X012429Y002585D01*
X012511Y002667D01*
X011480Y002585D02*
X011234Y002585D01*
X011153Y002667D01*
X011153Y002830D01*
X011234Y002912D01*
X011480Y002912D01*
X011480Y003075D02*
X011480Y002585D01*
X010964Y002748D02*
X010964Y002830D01*
X010882Y002912D01*
X010719Y002912D01*
X010637Y002830D01*
X010637Y002667D01*
X010719Y002585D01*
X010882Y002585D01*
X010964Y002748D02*
X010637Y002748D01*
X010448Y002830D02*
X010367Y002912D01*
X010121Y002912D01*
X010121Y002585D01*
X009933Y002585D02*
X009687Y002585D01*
X009606Y002667D01*
X009606Y002830D01*
X009687Y002912D01*
X009933Y002912D01*
X009933Y002503D01*
X009851Y002422D01*
X009769Y002422D01*
X009425Y002585D02*
X009262Y002585D01*
X009344Y002585D02*
X009344Y002912D01*
X009262Y002912D01*
X009073Y002912D02*
X008828Y002912D01*
X008746Y002830D01*
X008828Y002748D01*
X008991Y002748D01*
X009073Y002667D01*
X008991Y002585D01*
X008746Y002585D01*
X008558Y002748D02*
X008231Y002748D01*
X008231Y002667D02*
X008231Y002830D01*
X008312Y002912D01*
X008476Y002912D01*
X008558Y002830D01*
X008558Y002748D01*
X008476Y002585D02*
X008312Y002585D01*
X008231Y002667D01*
X008042Y002667D02*
X007960Y002585D01*
X007715Y002585D01*
X007715Y003075D01*
X007960Y003075D01*
X008042Y002994D01*
X008042Y002667D01*
X009344Y003075D02*
X009344Y003157D01*
X010448Y002830D02*
X010448Y002585D01*
D15*
X008680Y007920D02*
X012680Y007920D01*
D16*
X012430Y007555D03*
X011930Y007555D03*
X011430Y007555D03*
X010930Y007555D03*
X010430Y007555D03*
X009930Y007565D03*
X009430Y007555D03*
X008930Y007555D03*
X008930Y009545D03*
X009430Y009545D03*
X009930Y009545D03*
X010430Y009545D03*
X010930Y009545D03*
X011430Y009545D03*
X011930Y009545D03*
X012430Y009545D03*
D17*
X007380Y009751D03*
X007380Y010349D03*
X007680Y004599D03*
X007680Y004001D03*
X009180Y004001D03*
X009180Y004599D03*
X010680Y004599D03*
X010680Y004001D03*
X012180Y004001D03*
X012180Y004599D03*
D18*
X014180Y004615D03*
X014180Y003985D03*
D19*
X013934Y006873D02*
X013934Y007237D01*
X014426Y007227D02*
X014426Y006873D01*
D20*
X014416Y006991D03*
X013944Y006991D03*
D21*
X014180Y006991D03*
D22*
X014180Y006755D03*
X014180Y007345D03*
D23*
X013870Y006981D03*
X014490Y006981D03*
D24*
X014180Y007773D03*
D25*
X014180Y006263D03*
D26*
X017921Y003837D02*
X025244Y003837D01*
X025244Y009763D01*
X017921Y009763D01*
X017921Y003837D01*
D27*
X024350Y003475D02*
X024350Y010125D01*
D28*
X024114Y010043D03*
D29*
X024114Y003552D03*
D30*
X002719Y006800D03*
D31*
X005271Y006800D03*
X005271Y005720D03*
X005271Y004640D03*
X005271Y007880D03*
X005271Y008960D03*
D32*
X004503Y006800D03*
D33*
X016680Y006550D03*
X016680Y007550D03*
X016680Y008550D03*
X016680Y009550D03*
M02*
