%
M48
M72
T01C0.0197
T02C0.0236
T03C0.0276
T04C0.0354
T05C0.0400
T06C0.1181
T07C0.1260
%
T01
X9930Y9050
X7950Y7050
X8580Y5950
X10980Y5950
T02
X19680Y10550
T03
X13180Y3926
X20580Y7050
X8680Y10750
X8180Y9750
X7680Y8550
T04
X18680Y8550
X19680Y8050
X18680Y7550
X19680Y7050
X18680Y6550
X19680Y6050
X18680Y5550
X19680Y5050
T05
X16680Y9550
X16680Y8550
X16680Y7550
X16680Y6550
T06
X22180Y9050
X22680Y10550
X22180Y4550
T07
X5680Y3050
X5680Y10550
M30
