G75*
%MOIN*%
%OFA0B0*%
%FSLAX24Y24*%
%IPPOS*%
%LPD*%
%AMOC8*
5,1,8,0,0,1.08239X$1,22.5*
%
%ADD10C,0.0000*%
%ADD11C,0.0787*%
%ADD12R,0.0787X0.0787*%
%ADD13R,0.1378X0.0669*%
%ADD14C,0.0640*%
%ADD15C,0.0413*%
%ADD16C,0.0320*%
%ADD17C,0.0356*%
%ADD18C,0.0160*%
%ADD19C,0.0317*%
%ADD20C,0.1660*%
D10*
X004680Y002050D02*
X004680Y011499D01*
X023971Y011499D01*
X023971Y002050D01*
X004680Y002050D01*
X021589Y004550D02*
X021591Y004598D01*
X021597Y004646D01*
X021607Y004693D01*
X021620Y004739D01*
X021638Y004784D01*
X021658Y004828D01*
X021683Y004870D01*
X021711Y004909D01*
X021741Y004946D01*
X021775Y004980D01*
X021812Y005012D01*
X021850Y005041D01*
X021891Y005066D01*
X021934Y005088D01*
X021979Y005106D01*
X022025Y005120D01*
X022072Y005131D01*
X022120Y005138D01*
X022168Y005141D01*
X022216Y005140D01*
X022264Y005135D01*
X022312Y005126D01*
X022358Y005114D01*
X022403Y005097D01*
X022447Y005077D01*
X022489Y005054D01*
X022529Y005027D01*
X022567Y004997D01*
X022602Y004964D01*
X022634Y004928D01*
X022664Y004890D01*
X022690Y004849D01*
X022712Y004806D01*
X022732Y004762D01*
X022747Y004717D01*
X022759Y004670D01*
X022767Y004622D01*
X022771Y004574D01*
X022771Y004526D01*
X022767Y004478D01*
X022759Y004430D01*
X022747Y004383D01*
X022732Y004338D01*
X022712Y004294D01*
X022690Y004251D01*
X022664Y004210D01*
X022634Y004172D01*
X022602Y004136D01*
X022567Y004103D01*
X022529Y004073D01*
X022489Y004046D01*
X022447Y004023D01*
X022403Y004003D01*
X022358Y003986D01*
X022312Y003974D01*
X022264Y003965D01*
X022216Y003960D01*
X022168Y003959D01*
X022120Y003962D01*
X022072Y003969D01*
X022025Y003980D01*
X021979Y003994D01*
X021934Y004012D01*
X021891Y004034D01*
X021850Y004059D01*
X021812Y004088D01*
X021775Y004120D01*
X021741Y004154D01*
X021711Y004191D01*
X021683Y004230D01*
X021658Y004272D01*
X021638Y004316D01*
X021620Y004361D01*
X021607Y004407D01*
X021597Y004454D01*
X021591Y004502D01*
X021589Y004550D01*
X021589Y009050D02*
X021591Y009098D01*
X021597Y009146D01*
X021607Y009193D01*
X021620Y009239D01*
X021638Y009284D01*
X021658Y009328D01*
X021683Y009370D01*
X021711Y009409D01*
X021741Y009446D01*
X021775Y009480D01*
X021812Y009512D01*
X021850Y009541D01*
X021891Y009566D01*
X021934Y009588D01*
X021979Y009606D01*
X022025Y009620D01*
X022072Y009631D01*
X022120Y009638D01*
X022168Y009641D01*
X022216Y009640D01*
X022264Y009635D01*
X022312Y009626D01*
X022358Y009614D01*
X022403Y009597D01*
X022447Y009577D01*
X022489Y009554D01*
X022529Y009527D01*
X022567Y009497D01*
X022602Y009464D01*
X022634Y009428D01*
X022664Y009390D01*
X022690Y009349D01*
X022712Y009306D01*
X022732Y009262D01*
X022747Y009217D01*
X022759Y009170D01*
X022767Y009122D01*
X022771Y009074D01*
X022771Y009026D01*
X022767Y008978D01*
X022759Y008930D01*
X022747Y008883D01*
X022732Y008838D01*
X022712Y008794D01*
X022690Y008751D01*
X022664Y008710D01*
X022634Y008672D01*
X022602Y008636D01*
X022567Y008603D01*
X022529Y008573D01*
X022489Y008546D01*
X022447Y008523D01*
X022403Y008503D01*
X022358Y008486D01*
X022312Y008474D01*
X022264Y008465D01*
X022216Y008460D01*
X022168Y008459D01*
X022120Y008462D01*
X022072Y008469D01*
X022025Y008480D01*
X021979Y008494D01*
X021934Y008512D01*
X021891Y008534D01*
X021850Y008559D01*
X021812Y008588D01*
X021775Y008620D01*
X021741Y008654D01*
X021711Y008691D01*
X021683Y008730D01*
X021658Y008772D01*
X021638Y008816D01*
X021620Y008861D01*
X021607Y008907D01*
X021597Y008954D01*
X021591Y009002D01*
X021589Y009050D01*
X022089Y010550D02*
X022091Y010598D01*
X022097Y010646D01*
X022107Y010693D01*
X022120Y010739D01*
X022138Y010784D01*
X022158Y010828D01*
X022183Y010870D01*
X022211Y010909D01*
X022241Y010946D01*
X022275Y010980D01*
X022312Y011012D01*
X022350Y011041D01*
X022391Y011066D01*
X022434Y011088D01*
X022479Y011106D01*
X022525Y011120D01*
X022572Y011131D01*
X022620Y011138D01*
X022668Y011141D01*
X022716Y011140D01*
X022764Y011135D01*
X022812Y011126D01*
X022858Y011114D01*
X022903Y011097D01*
X022947Y011077D01*
X022989Y011054D01*
X023029Y011027D01*
X023067Y010997D01*
X023102Y010964D01*
X023134Y010928D01*
X023164Y010890D01*
X023190Y010849D01*
X023212Y010806D01*
X023232Y010762D01*
X023247Y010717D01*
X023259Y010670D01*
X023267Y010622D01*
X023271Y010574D01*
X023271Y010526D01*
X023267Y010478D01*
X023259Y010430D01*
X023247Y010383D01*
X023232Y010338D01*
X023212Y010294D01*
X023190Y010251D01*
X023164Y010210D01*
X023134Y010172D01*
X023102Y010136D01*
X023067Y010103D01*
X023029Y010073D01*
X022989Y010046D01*
X022947Y010023D01*
X022903Y010003D01*
X022858Y009986D01*
X022812Y009974D01*
X022764Y009965D01*
X022716Y009960D01*
X022668Y009959D01*
X022620Y009962D01*
X022572Y009969D01*
X022525Y009980D01*
X022479Y009994D01*
X022434Y010012D01*
X022391Y010034D01*
X022350Y010059D01*
X022312Y010088D01*
X022275Y010120D01*
X022241Y010154D01*
X022211Y010191D01*
X022183Y010230D01*
X022158Y010272D01*
X022138Y010316D01*
X022120Y010361D01*
X022107Y010407D01*
X022097Y010454D01*
X022091Y010502D01*
X022089Y010550D01*
D11*
X018680Y008550D03*
X019680Y008050D03*
X018680Y007550D03*
X019680Y007050D03*
X018680Y006550D03*
X019680Y006050D03*
X018680Y005550D03*
D12*
X019680Y005050D03*
D13*
X005560Y005180D03*
X005560Y006260D03*
X005560Y007340D03*
X005560Y008420D03*
D14*
X016360Y008550D02*
X017000Y008550D01*
X017000Y007550D02*
X016360Y007550D01*
X016360Y006550D02*
X017000Y006550D01*
X017000Y009550D02*
X016360Y009550D01*
D15*
X020580Y007050D03*
X013180Y003926D03*
X007680Y008550D03*
X008180Y009750D03*
X008680Y010750D03*
D16*
X008680Y011050D02*
X008680Y010230D01*
X008397Y010230D02*
X008285Y010277D01*
X008075Y010277D01*
X007882Y010197D01*
X007733Y010048D01*
X007653Y009855D01*
X007653Y009645D01*
X007733Y009452D01*
X007882Y009303D01*
X008075Y009223D01*
X008285Y009223D01*
X008397Y009270D01*
X009503Y009270D01*
X009452Y009145D01*
X009452Y009137D01*
X007834Y007520D01*
X007679Y007456D01*
X007544Y007321D01*
X007471Y007145D01*
X007471Y006955D01*
X007544Y006779D01*
X007679Y006644D01*
X007855Y006572D01*
X008045Y006572D01*
X008221Y006644D01*
X008356Y006779D01*
X008428Y006955D01*
X008428Y006983D01*
X010017Y008572D01*
X010025Y008572D01*
X010201Y008644D01*
X010336Y008779D01*
X010408Y008955D01*
X010408Y009145D01*
X010357Y009270D01*
X013975Y009270D01*
X014152Y009343D01*
X014287Y009478D01*
X014879Y010070D01*
X016103Y010070D01*
X016056Y010046D01*
X015982Y009992D01*
X015918Y009928D01*
X015864Y009854D01*
X015822Y009773D01*
X015794Y009686D01*
X015780Y009596D01*
X015780Y009550D01*
X016680Y009550D01*
X021180Y009550D01*
X021180Y010050D02*
X017296Y010050D01*
X017304Y010046D02*
X017257Y010070D01*
X019537Y010070D01*
X019581Y010052D01*
X019779Y010052D01*
X019962Y010128D01*
X020102Y010268D01*
X020178Y010451D01*
X020178Y010649D01*
X020102Y010832D01*
X019962Y010972D01*
X019779Y011048D01*
X019581Y011048D01*
X019537Y011030D01*
X014585Y011030D01*
X014408Y010957D01*
X013681Y010230D01*
X008397Y010230D01*
X008180Y010277D02*
X008180Y011050D01*
X007680Y011050D02*
X007680Y009919D01*
X007735Y010050D02*
X007180Y010050D01*
X007180Y009550D02*
X007693Y009550D01*
X007680Y009581D02*
X007680Y007456D01*
X007864Y007550D02*
X007180Y007550D01*
X007180Y008050D02*
X008364Y008050D01*
X008180Y007866D02*
X008180Y009223D01*
X008680Y009270D02*
X008680Y008366D01*
X008864Y008550D02*
X007180Y008550D01*
X007180Y009050D02*
X009364Y009050D01*
X009180Y008866D02*
X009180Y009270D01*
X008180Y009750D02*
X013880Y009750D01*
X014680Y010550D01*
X019680Y010550D01*
X020178Y010550D02*
X021180Y010550D01*
X021180Y011050D02*
X021180Y002550D01*
X007180Y002550D01*
X007180Y011050D01*
X021180Y011050D01*
X020680Y011050D02*
X020680Y002550D01*
X020180Y002550D02*
X020180Y004354D01*
X020137Y004336D02*
X020255Y004385D01*
X020345Y004475D01*
X020394Y004593D01*
X020394Y005507D01*
X020345Y005625D01*
X020297Y005673D01*
X020394Y005908D01*
X020394Y006192D01*
X020285Y006454D01*
X020147Y006592D01*
X020173Y006618D01*
X020225Y006686D01*
X020268Y006760D01*
X020300Y006839D01*
X020323Y006922D01*
X020334Y007007D01*
X020334Y007050D01*
X020334Y007093D01*
X020323Y007178D01*
X020300Y007261D01*
X020268Y007340D01*
X020225Y007414D01*
X020173Y007482D01*
X020147Y007508D01*
X020285Y007646D01*
X020394Y007908D01*
X020394Y008192D01*
X020285Y008454D01*
X020084Y008655D01*
X019822Y008764D01*
X019538Y008764D01*
X019389Y008702D01*
X019285Y008954D01*
X019084Y009155D01*
X018822Y009264D01*
X018538Y009264D01*
X018276Y009155D01*
X018075Y008954D01*
X017966Y008692D01*
X017966Y008408D01*
X018075Y008146D01*
X018171Y008050D01*
X018075Y007954D01*
X017966Y007692D01*
X017966Y007408D01*
X018075Y007146D01*
X018171Y007050D01*
X018075Y006954D01*
X017966Y006692D01*
X017966Y006408D01*
X018075Y006146D01*
X018171Y006050D01*
X017405Y006050D01*
X017363Y006007D02*
X017543Y006187D01*
X017640Y006423D01*
X017640Y006677D01*
X017543Y006913D01*
X017405Y007050D01*
X018171Y007050D01*
X017543Y007187D02*
X017640Y007423D01*
X017640Y007677D01*
X017543Y007913D01*
X017405Y008050D01*
X018171Y008050D01*
X017543Y008187D02*
X017640Y008423D01*
X017640Y008677D01*
X017543Y008913D01*
X017363Y009093D01*
X017359Y009094D01*
X017378Y009108D01*
X017442Y009172D01*
X017496Y009246D01*
X017538Y009327D01*
X017566Y009414D01*
X017580Y009504D01*
X017580Y009550D01*
X017580Y009596D01*
X017566Y009686D01*
X017538Y009773D01*
X017496Y009854D01*
X017442Y009928D01*
X017378Y009992D01*
X017304Y010046D01*
X017680Y010070D02*
X017680Y002550D01*
X017180Y002550D02*
X017180Y005932D01*
X017127Y005910D02*
X017363Y006007D01*
X017127Y005910D02*
X016233Y005910D01*
X015997Y006007D01*
X015817Y006187D01*
X015720Y006423D01*
X015720Y006677D01*
X015817Y006913D01*
X015955Y007050D01*
X008496Y007050D01*
X008680Y007234D02*
X008680Y006426D01*
X008675Y006428D02*
X008485Y006428D01*
X008309Y006356D01*
X008174Y006221D01*
X008102Y006045D01*
X008102Y005855D01*
X008174Y005679D01*
X008309Y005544D01*
X008485Y005472D01*
X008675Y005472D01*
X008851Y005544D01*
X008857Y005550D01*
X010703Y005550D01*
X010709Y005544D01*
X010885Y005472D01*
X011075Y005472D01*
X011251Y005544D01*
X011386Y005679D01*
X011458Y005855D01*
X011458Y006045D01*
X011386Y006221D01*
X011251Y006356D01*
X011075Y006428D01*
X010885Y006428D01*
X010709Y006356D01*
X010703Y006350D01*
X008857Y006350D01*
X008851Y006356D01*
X008675Y006428D01*
X009180Y006350D02*
X009180Y007734D01*
X008996Y007550D02*
X015720Y007550D01*
X015720Y007677D02*
X015720Y007423D01*
X015817Y007187D01*
X015955Y007050D01*
X015720Y006550D02*
X007180Y006550D01*
X007680Y006644D02*
X007680Y002550D01*
X007180Y002550D02*
X021180Y002550D01*
X021180Y003050D02*
X007180Y003050D01*
X007180Y002550D02*
X007180Y011050D01*
X007180Y010550D02*
X014001Y010550D01*
X014180Y010729D02*
X014180Y011050D01*
X013680Y011050D02*
X013680Y010230D01*
X013180Y010230D02*
X013180Y011050D01*
X012680Y011050D02*
X012680Y010230D01*
X012180Y010230D02*
X012180Y011050D01*
X011680Y011050D02*
X011680Y010230D01*
X011180Y010230D02*
X011180Y011050D01*
X010680Y011050D02*
X010680Y010230D01*
X010180Y010230D02*
X010180Y011050D01*
X009680Y011050D02*
X009680Y010230D01*
X009180Y010230D02*
X009180Y011050D01*
X010680Y009270D02*
X010680Y006350D01*
X010180Y006350D02*
X010180Y008636D01*
X009996Y008550D02*
X015720Y008550D01*
X015720Y008677D02*
X015720Y008423D01*
X015817Y008187D01*
X015955Y008050D01*
X009496Y008050D01*
X009680Y008234D02*
X009680Y006350D01*
X009680Y005550D02*
X009680Y002550D01*
X009180Y002550D02*
X009180Y005550D01*
X008680Y005474D02*
X008680Y002550D01*
X008180Y002550D02*
X008180Y005673D01*
X008303Y005550D02*
X007180Y005550D01*
X007180Y005050D02*
X018171Y005050D01*
X018180Y005041D02*
X018180Y002550D01*
X018680Y002550D02*
X018680Y004836D01*
X018538Y004836D02*
X018822Y004836D01*
X018966Y004896D01*
X018966Y004593D01*
X019015Y004475D01*
X019105Y004385D01*
X019223Y004336D01*
X020137Y004336D01*
X020376Y004550D02*
X021180Y004550D01*
X021180Y004050D02*
X007180Y004050D01*
X007180Y004550D02*
X018984Y004550D01*
X019180Y004354D02*
X019180Y002550D01*
X019680Y002550D02*
X019680Y004336D01*
X018538Y004836D02*
X018276Y004945D01*
X018075Y005146D01*
X017966Y005408D01*
X017966Y005692D01*
X018075Y005954D01*
X018171Y006050D01*
X017966Y006550D02*
X017640Y006550D01*
X017405Y007050D02*
X017543Y007187D01*
X017640Y007550D02*
X017966Y007550D01*
X017405Y008050D02*
X017543Y008187D01*
X017640Y008550D02*
X017966Y008550D01*
X018171Y009050D02*
X017405Y009050D01*
X018180Y009059D02*
X018180Y010070D01*
X018680Y010070D02*
X018680Y009264D01*
X019180Y009059D02*
X019180Y010070D01*
X019680Y010052D02*
X019680Y008764D01*
X020180Y008559D02*
X020180Y011050D01*
X019680Y011048D02*
X019680Y011050D01*
X019180Y011030D02*
X019180Y011050D01*
X018680Y011030D02*
X018680Y011050D01*
X018180Y011030D02*
X018180Y011050D01*
X017680Y011030D02*
X017680Y011050D01*
X017180Y011030D02*
X017180Y011050D01*
X016680Y011030D02*
X016680Y011050D01*
X016180Y011030D02*
X016180Y011050D01*
X015680Y011030D02*
X015680Y011050D01*
X015180Y011030D02*
X015180Y011050D01*
X014680Y011030D02*
X014680Y011050D01*
X015180Y010070D02*
X015180Y002550D01*
X014680Y002550D02*
X014680Y009871D01*
X014859Y010050D02*
X016064Y010050D01*
X015680Y010070D02*
X015680Y002550D01*
X016180Y002550D02*
X016180Y005932D01*
X015955Y006050D02*
X011456Y006050D01*
X011180Y006385D02*
X011180Y009270D01*
X011680Y009270D02*
X011680Y002550D01*
X012180Y002550D02*
X012180Y009270D01*
X012680Y009270D02*
X012680Y002550D01*
X013180Y002550D02*
X013180Y009270D01*
X013680Y009270D02*
X013680Y002550D01*
X014180Y002550D02*
X014180Y009371D01*
X014359Y009550D02*
X016680Y009550D01*
X017580Y009550D01*
X016680Y009550D01*
X016680Y009550D01*
X016680Y009550D01*
X015780Y009550D01*
X015780Y009504D01*
X015794Y009414D01*
X015822Y009327D01*
X015864Y009246D01*
X015918Y009172D01*
X015982Y009108D01*
X016001Y009094D01*
X015997Y009093D01*
X015817Y008913D01*
X015720Y008677D01*
X015955Y009050D02*
X010408Y009050D01*
X007471Y007050D02*
X007180Y007050D01*
X008180Y006627D02*
X008180Y006227D01*
X008104Y006050D02*
X007180Y006050D01*
X010180Y005550D02*
X010180Y002550D01*
X010680Y002550D02*
X010680Y005550D01*
X011180Y005515D02*
X011180Y002550D01*
X007180Y003550D02*
X021180Y003550D01*
X021180Y005050D02*
X020394Y005050D01*
X020376Y005550D02*
X021180Y005550D01*
X021180Y006050D02*
X020394Y006050D01*
X020189Y006550D02*
X021180Y006550D01*
X021180Y007050D02*
X019680Y007050D01*
X020334Y007050D01*
X019680Y007050D01*
X019680Y007050D01*
X020180Y007050D02*
X020180Y007050D01*
X020180Y007472D02*
X020180Y007541D01*
X020189Y007550D02*
X021180Y007550D01*
X021180Y008050D02*
X020394Y008050D01*
X020189Y008550D02*
X021180Y008550D01*
X021180Y009050D02*
X019189Y009050D01*
X017180Y009550D02*
X017180Y009550D01*
X016180Y009550D02*
X016180Y009550D01*
X015955Y008050D02*
X015817Y007913D01*
X015720Y007677D01*
X016680Y005910D02*
X016680Y002550D01*
X017966Y005550D02*
X011257Y005550D01*
X020180Y006559D02*
X020180Y006628D01*
D17*
X019680Y010550D03*
D18*
X010980Y005950D02*
X008580Y005950D01*
X007950Y007050D02*
X007930Y007050D01*
X009930Y009050D01*
D19*
X009930Y009050D03*
X007950Y007050D03*
X008580Y005950D03*
X010980Y005950D03*
D20*
X005680Y003050D03*
X005680Y010550D03*
M02*
