G75*
G70*
%OFA0B0*%
%FSLAX24Y24*%
%IPPOS*%
%LPD*%
%AMOC8*
5,1,8,0,0,1.08239X$1,22.5*
%
%ADD10C,0.0000*%
%ADD11C,0.0520*%
%ADD12OC8,0.0600*%
%ADD13C,0.1000*%
%ADD14OC8,0.0520*%
%ADD15C,0.0520*%
%ADD16R,0.0860X0.0860*%
%ADD17C,0.0860*%
%ADD18C,0.0660*%
%ADD19C,0.0600*%
%ADD20C,0.0660*%
%ADD21C,0.0591*%
%ADD22C,0.0160*%
%ADD23C,0.0475*%
%ADD24C,0.0320*%
D10*
X000180Y000887D02*
X000180Y018998D01*
X000182Y019052D01*
X000187Y019105D01*
X000196Y019158D01*
X000209Y019210D01*
X000225Y019262D01*
X000245Y019312D01*
X000268Y019360D01*
X000295Y019407D01*
X000324Y019452D01*
X000357Y019495D01*
X000392Y019535D01*
X000430Y019573D01*
X000470Y019608D01*
X000513Y019641D01*
X000558Y019670D01*
X000605Y019697D01*
X000653Y019720D01*
X000703Y019740D01*
X000755Y019756D01*
X000807Y019769D01*
X000860Y019778D01*
X000913Y019783D01*
X000967Y019785D01*
X019078Y019785D01*
X019132Y019783D01*
X019185Y019778D01*
X019238Y019769D01*
X019290Y019756D01*
X019342Y019740D01*
X019392Y019720D01*
X019440Y019697D01*
X019487Y019670D01*
X019532Y019641D01*
X019575Y019608D01*
X019615Y019573D01*
X019653Y019535D01*
X019688Y019495D01*
X019721Y019452D01*
X019750Y019407D01*
X019777Y019360D01*
X019800Y019312D01*
X019820Y019262D01*
X019836Y019210D01*
X019849Y019158D01*
X019858Y019105D01*
X019863Y019052D01*
X019865Y018998D01*
X019865Y000887D01*
X019863Y000833D01*
X019858Y000780D01*
X019849Y000727D01*
X019836Y000675D01*
X019820Y000623D01*
X019800Y000573D01*
X019777Y000525D01*
X019750Y000478D01*
X019721Y000433D01*
X019688Y000390D01*
X019653Y000350D01*
X019615Y000312D01*
X019575Y000277D01*
X019532Y000244D01*
X019487Y000215D01*
X019440Y000188D01*
X019392Y000165D01*
X019342Y000145D01*
X019290Y000129D01*
X019238Y000116D01*
X019185Y000107D01*
X019132Y000102D01*
X019078Y000100D01*
X000967Y000100D01*
X000913Y000102D01*
X000860Y000107D01*
X000807Y000116D01*
X000755Y000129D01*
X000703Y000145D01*
X000653Y000165D01*
X000605Y000188D01*
X000558Y000215D01*
X000513Y000244D01*
X000470Y000277D01*
X000430Y000312D01*
X000392Y000350D01*
X000357Y000390D01*
X000324Y000433D01*
X000295Y000478D01*
X000268Y000525D01*
X000245Y000573D01*
X000225Y000623D01*
X000209Y000675D01*
X000196Y000727D01*
X000187Y000780D01*
X000182Y000833D01*
X000180Y000887D01*
D11*
X002180Y011650D03*
X002180Y013550D03*
D12*
X004680Y004600D03*
X008680Y004600D03*
D13*
X010280Y002100D02*
X010280Y001100D01*
X012280Y001100D02*
X012280Y002100D01*
X006080Y002100D02*
X006080Y001100D01*
X004080Y001100D02*
X004080Y002100D01*
D14*
X013180Y001600D03*
X013180Y003100D03*
X017180Y001600D03*
X018180Y003100D03*
D15*
X018180Y006080D02*
X018180Y006600D01*
X017180Y006600D02*
X017180Y006080D01*
X017180Y009600D02*
X017180Y010120D01*
X018180Y010120D02*
X018180Y009600D01*
D16*
X001680Y006100D03*
D17*
X001680Y004100D03*
D18*
X005180Y007100D03*
X008180Y007100D03*
X010680Y006100D03*
X012680Y006100D03*
X012680Y010100D03*
X011680Y010100D03*
X010680Y010100D03*
D19*
X010180Y018300D02*
X010180Y018900D01*
X009180Y018900D02*
X009180Y018300D01*
X008180Y018300D02*
X008180Y018900D01*
X007180Y018900D02*
X007180Y018300D01*
X006180Y018300D02*
X006180Y018900D01*
X005180Y018900D02*
X005180Y018300D01*
D20*
X010680Y006100D02*
X010680Y001600D01*
X010280Y001600D01*
X012180Y001600D01*
X006180Y001600D02*
X004080Y001600D01*
D21*
X014680Y010850D03*
X014680Y012350D03*
X015180Y006350D03*
X015180Y004850D03*
D22*
X019385Y008850D02*
X000660Y008850D01*
X000660Y017735D01*
X000680Y017716D01*
X000933Y017570D01*
X001215Y017494D01*
X001507Y017494D01*
X001790Y017570D01*
X002043Y017716D01*
X002249Y017922D01*
X002395Y018176D01*
X002471Y018458D01*
X002471Y018750D01*
X002395Y019032D01*
X002249Y019285D01*
X002230Y019305D01*
X004921Y019305D01*
X004867Y019266D01*
X004814Y019213D01*
X004769Y019152D01*
X004735Y019084D01*
X004712Y019012D01*
X004700Y018938D01*
X004700Y018620D01*
X005160Y018620D01*
X005160Y018580D01*
X005200Y018580D01*
X005200Y018620D01*
X005660Y018620D01*
X005660Y018938D01*
X005648Y019012D01*
X005625Y019084D01*
X005591Y019152D01*
X005546Y019213D01*
X005493Y019266D01*
X005439Y019305D01*
X005921Y019305D01*
X005867Y019266D01*
X005814Y019213D01*
X005769Y019152D01*
X005735Y019084D01*
X005712Y019012D01*
X005700Y018938D01*
X005700Y018620D01*
X006160Y018620D01*
X006160Y018580D01*
X006200Y018580D01*
X006200Y017820D01*
X006218Y017820D01*
X006292Y017832D01*
X006364Y017855D01*
X006432Y017889D01*
X006493Y017934D01*
X006546Y017987D01*
X006591Y018048D01*
X006625Y018116D01*
X006645Y018179D01*
X006722Y017994D01*
X006874Y017842D01*
X007073Y017760D01*
X007287Y017760D01*
X007486Y017842D01*
X007638Y017994D01*
X007680Y018096D01*
X007722Y017994D01*
X007874Y017842D01*
X008073Y017760D01*
X008287Y017760D01*
X008486Y017842D01*
X008638Y017994D01*
X008680Y018096D01*
X008722Y017994D01*
X008874Y017842D01*
X009073Y017760D01*
X009287Y017760D01*
X009486Y017842D01*
X009638Y017994D01*
X009680Y018096D01*
X009722Y017994D01*
X009780Y017936D01*
X009780Y017766D01*
X009514Y017500D01*
X008600Y017500D01*
X008453Y017439D01*
X007453Y016439D01*
X007341Y016327D01*
X007280Y016180D01*
X007280Y014375D01*
X007275Y014370D01*
X007203Y014195D01*
X007203Y014005D01*
X007275Y013830D01*
X007410Y013695D01*
X007585Y013623D01*
X007775Y013623D01*
X007950Y013695D01*
X008085Y013830D01*
X008157Y014005D01*
X008157Y014195D01*
X008085Y014370D01*
X008080Y014375D01*
X008080Y015934D01*
X008846Y016700D01*
X009760Y016700D01*
X009907Y016761D01*
X010019Y016873D01*
X010519Y017373D01*
X010580Y017520D01*
X010580Y017936D01*
X010638Y017994D01*
X010720Y018193D01*
X010720Y018200D01*
X016405Y018200D01*
X016410Y018195D01*
X016585Y018123D01*
X016775Y018123D01*
X016950Y018195D01*
X017085Y018330D01*
X017157Y018505D01*
X017157Y018695D01*
X017085Y018870D01*
X016950Y019005D01*
X016775Y019077D01*
X016585Y019077D01*
X016410Y019005D01*
X016405Y019000D01*
X010720Y019000D01*
X010720Y019007D01*
X010638Y019206D01*
X010539Y019305D01*
X017815Y019305D01*
X017796Y019285D01*
X017650Y019032D01*
X017574Y018750D01*
X017574Y018458D01*
X017650Y018176D01*
X017796Y017922D01*
X018002Y017716D01*
X018256Y017570D01*
X018538Y017494D01*
X018830Y017494D01*
X019112Y017570D01*
X019365Y017716D01*
X019385Y017735D01*
X019385Y008850D01*
X019385Y008976D02*
X000660Y008976D01*
X000660Y009135D02*
X016997Y009135D01*
X017081Y009100D02*
X017279Y009100D01*
X017463Y009176D01*
X017604Y009317D01*
X017680Y009501D01*
X017756Y009317D01*
X017897Y009176D01*
X018081Y009100D01*
X018279Y009100D01*
X018463Y009176D01*
X018604Y009317D01*
X018680Y009501D01*
X018680Y010219D01*
X018604Y010403D01*
X018463Y010544D01*
X018279Y010620D01*
X018081Y010620D01*
X017897Y010544D01*
X017756Y010403D01*
X017680Y010219D01*
X017680Y009501D01*
X017680Y010219D01*
X017604Y010403D01*
X017463Y010544D01*
X017279Y010620D01*
X017081Y010620D01*
X017080Y010620D01*
X017080Y016825D01*
X017085Y016830D01*
X017157Y017005D01*
X017157Y017195D01*
X017085Y017370D01*
X016950Y017505D01*
X016775Y017577D01*
X016585Y017577D01*
X016410Y017505D01*
X016275Y017370D01*
X016203Y017195D01*
X016203Y017005D01*
X016275Y016830D01*
X016280Y016825D01*
X016280Y010020D01*
X016341Y009873D01*
X016453Y009761D01*
X016680Y009534D01*
X016680Y009501D01*
X016756Y009317D01*
X016897Y009176D01*
X017081Y009100D01*
X017363Y009135D02*
X017997Y009135D01*
X017780Y009293D02*
X017580Y009293D01*
X017660Y009452D02*
X017700Y009452D01*
X017680Y009610D02*
X017680Y009610D01*
X017680Y009769D02*
X017680Y009769D01*
X017680Y009927D02*
X017680Y009927D01*
X017680Y010086D02*
X017680Y010086D01*
X017670Y010244D02*
X017690Y010244D01*
X017756Y010403D02*
X017604Y010403D01*
X017422Y010561D02*
X017938Y010561D01*
X018422Y010561D02*
X019385Y010561D01*
X019385Y010403D02*
X018604Y010403D01*
X018670Y010244D02*
X019385Y010244D01*
X019385Y010086D02*
X018680Y010086D01*
X018680Y009927D02*
X019385Y009927D01*
X019385Y009769D02*
X018680Y009769D01*
X018680Y009610D02*
X019385Y009610D01*
X019385Y009452D02*
X018660Y009452D01*
X018580Y009293D02*
X019385Y009293D01*
X019385Y009135D02*
X018363Y009135D01*
X016780Y009293D02*
X000660Y009293D01*
X000660Y009452D02*
X016700Y009452D01*
X016604Y009610D02*
X012822Y009610D01*
X012799Y009603D02*
X012876Y009627D01*
X012947Y009664D01*
X013012Y009711D01*
X013069Y009768D01*
X013116Y009833D01*
X013153Y009904D01*
X013177Y009981D01*
X013190Y010060D01*
X013190Y010091D01*
X012689Y010091D01*
X012689Y010109D01*
X012671Y010109D01*
X012671Y010610D01*
X012640Y010610D01*
X012561Y010597D01*
X012484Y010573D01*
X012413Y010536D01*
X012348Y010489D01*
X012291Y010432D01*
X012244Y010367D01*
X012212Y010305D01*
X012163Y010423D01*
X012003Y010583D01*
X011793Y010670D01*
X011567Y010670D01*
X011357Y010583D01*
X011197Y010423D01*
X011180Y010382D01*
X011163Y010423D01*
X011003Y010583D01*
X010793Y010670D01*
X010567Y010670D01*
X010357Y010583D01*
X010197Y010423D01*
X010110Y010213D01*
X010110Y009987D01*
X010197Y009777D01*
X010357Y009617D01*
X010567Y009530D01*
X010793Y009530D01*
X011003Y009617D01*
X011163Y009777D01*
X011180Y009818D01*
X011197Y009777D01*
X011357Y009617D01*
X011567Y009530D01*
X011793Y009530D01*
X012003Y009617D01*
X012163Y009777D01*
X012212Y009895D01*
X012244Y009833D01*
X012291Y009768D01*
X012348Y009711D01*
X012413Y009664D01*
X012484Y009627D01*
X012561Y009603D01*
X012640Y009590D01*
X012671Y009590D01*
X012671Y010091D01*
X012689Y010091D01*
X012689Y009590D01*
X012720Y009590D01*
X012799Y009603D01*
X012689Y009610D02*
X012671Y009610D01*
X012538Y009610D02*
X011987Y009610D01*
X012155Y009769D02*
X012290Y009769D01*
X012671Y009769D02*
X012689Y009769D01*
X012689Y009927D02*
X012671Y009927D01*
X012671Y010086D02*
X012689Y010086D01*
X012689Y010109D02*
X013190Y010109D01*
X013190Y010140D01*
X013177Y010219D01*
X013153Y010296D01*
X013116Y010367D01*
X013069Y010432D01*
X013012Y010489D01*
X012947Y010536D01*
X012876Y010573D01*
X012799Y010597D01*
X012720Y010610D01*
X012689Y010610D01*
X012689Y010109D01*
X012689Y010244D02*
X012671Y010244D01*
X012671Y010403D02*
X012689Y010403D01*
X012689Y010561D02*
X012671Y010561D01*
X012461Y010561D02*
X012025Y010561D01*
X012172Y010403D02*
X012269Y010403D01*
X012899Y010561D02*
X016280Y010561D01*
X016280Y010403D02*
X013091Y010403D01*
X013169Y010244D02*
X016280Y010244D01*
X016280Y010086D02*
X013190Y010086D01*
X013160Y009927D02*
X016319Y009927D01*
X016446Y009769D02*
X013070Y009769D01*
X011373Y009610D02*
X010987Y009610D01*
X011155Y009769D02*
X011205Y009769D01*
X011172Y010403D02*
X011188Y010403D01*
X011335Y010561D02*
X011025Y010561D01*
X010335Y010561D02*
X000660Y010561D01*
X000660Y010403D02*
X010188Y010403D01*
X010123Y010244D02*
X000660Y010244D01*
X000660Y010086D02*
X010110Y010086D01*
X010135Y009927D02*
X000660Y009927D01*
X000660Y009769D02*
X010205Y009769D01*
X010373Y009610D02*
X000660Y009610D01*
X000660Y010720D02*
X016280Y010720D01*
X016280Y010878D02*
X000660Y010878D01*
X000660Y011037D02*
X016280Y011037D01*
X016280Y011195D02*
X002388Y011195D01*
X002463Y011226D02*
X002279Y011150D01*
X002081Y011150D01*
X001897Y011226D01*
X001756Y011367D01*
X001680Y011551D01*
X001680Y011749D01*
X001756Y011933D01*
X001897Y012074D01*
X002081Y012150D01*
X002279Y012150D01*
X002463Y012074D01*
X002604Y011933D01*
X002680Y011749D01*
X002680Y011551D01*
X002604Y011367D01*
X002463Y011226D01*
X002591Y011354D02*
X016280Y011354D01*
X016280Y011512D02*
X002664Y011512D01*
X002680Y011671D02*
X016280Y011671D01*
X016280Y011829D02*
X014821Y011829D01*
X014786Y011815D02*
X014983Y011896D01*
X015134Y012047D01*
X015215Y012244D01*
X015215Y012456D01*
X015134Y012653D01*
X014983Y012804D01*
X014786Y012885D01*
X014574Y012885D01*
X014377Y012804D01*
X014226Y012653D01*
X014145Y012456D01*
X014145Y012244D01*
X014226Y012047D01*
X014377Y011896D01*
X014574Y011815D01*
X014786Y011815D01*
X014539Y011829D02*
X002647Y011829D01*
X002550Y011988D02*
X014285Y011988D01*
X014185Y012146D02*
X002289Y012146D01*
X002071Y012146D02*
X000660Y012146D01*
X000660Y011988D02*
X001810Y011988D01*
X001713Y011829D02*
X000660Y011829D01*
X000660Y011671D02*
X001680Y011671D01*
X001696Y011512D02*
X000660Y011512D01*
X000660Y011354D02*
X001769Y011354D01*
X001972Y011195D02*
X000660Y011195D01*
X000660Y012305D02*
X014145Y012305D01*
X014147Y012463D02*
X000660Y012463D01*
X000660Y012622D02*
X014213Y012622D01*
X014353Y012780D02*
X000660Y012780D01*
X000660Y012939D02*
X016280Y012939D01*
X016280Y013097D02*
X002393Y013097D01*
X002463Y013126D02*
X002279Y013050D01*
X002081Y013050D01*
X001897Y013126D01*
X001756Y013267D01*
X001680Y013451D01*
X001680Y013649D01*
X001756Y013833D01*
X001897Y013974D01*
X002081Y014050D01*
X002279Y014050D01*
X002463Y013974D01*
X002604Y013833D01*
X002680Y013649D01*
X002680Y013451D01*
X002604Y013267D01*
X002463Y013126D01*
X002593Y013256D02*
X016280Y013256D01*
X016280Y013414D02*
X002665Y013414D01*
X002680Y013573D02*
X016280Y013573D01*
X016280Y013731D02*
X007986Y013731D01*
X008110Y013890D02*
X016280Y013890D01*
X016280Y014048D02*
X008157Y014048D01*
X008153Y014207D02*
X016280Y014207D01*
X016280Y014365D02*
X008087Y014365D01*
X008080Y014524D02*
X016280Y014524D01*
X016280Y014682D02*
X008080Y014682D01*
X008080Y014841D02*
X016280Y014841D01*
X016280Y014999D02*
X008080Y014999D01*
X008080Y015158D02*
X016280Y015158D01*
X016280Y015316D02*
X008080Y015316D01*
X008080Y015475D02*
X016280Y015475D01*
X016280Y015633D02*
X008080Y015633D01*
X008080Y015792D02*
X016280Y015792D01*
X016280Y015950D02*
X008096Y015950D01*
X008254Y016109D02*
X016280Y016109D01*
X016280Y016267D02*
X008413Y016267D01*
X008571Y016426D02*
X016280Y016426D01*
X016280Y016584D02*
X008730Y016584D01*
X008232Y017218D02*
X000660Y017218D01*
X000660Y017060D02*
X008074Y017060D01*
X007915Y016901D02*
X000660Y016901D01*
X000660Y016743D02*
X007757Y016743D01*
X007598Y016584D02*
X000660Y016584D01*
X000660Y016426D02*
X007440Y016426D01*
X007316Y016267D02*
X000660Y016267D01*
X000660Y016109D02*
X007280Y016109D01*
X007280Y015950D02*
X000660Y015950D01*
X000660Y015792D02*
X007280Y015792D01*
X007280Y015633D02*
X000660Y015633D01*
X000660Y015475D02*
X007280Y015475D01*
X007280Y015316D02*
X000660Y015316D01*
X000660Y015158D02*
X007280Y015158D01*
X007280Y014999D02*
X000660Y014999D01*
X000660Y014841D02*
X007280Y014841D01*
X007280Y014682D02*
X000660Y014682D01*
X000660Y014524D02*
X007280Y014524D01*
X007273Y014365D02*
X000660Y014365D01*
X000660Y014207D02*
X007207Y014207D01*
X007203Y014048D02*
X002284Y014048D01*
X002076Y014048D02*
X000660Y014048D01*
X000660Y013890D02*
X001812Y013890D01*
X001714Y013731D02*
X000660Y013731D01*
X000660Y013573D02*
X001680Y013573D01*
X001695Y013414D02*
X000660Y013414D01*
X000660Y013256D02*
X001767Y013256D01*
X001967Y013097D02*
X000660Y013097D01*
X002548Y013890D02*
X007250Y013890D01*
X007374Y013731D02*
X002646Y013731D01*
X000660Y017377D02*
X008391Y017377D01*
X008496Y017852D02*
X008864Y017852D01*
X008715Y018011D02*
X008645Y018011D01*
X007864Y017852D02*
X007496Y017852D01*
X007645Y018011D02*
X007715Y018011D01*
X006864Y017852D02*
X006355Y017852D01*
X006200Y017852D02*
X006160Y017852D01*
X006160Y017820D02*
X006160Y018580D01*
X005700Y018580D01*
X005700Y018262D01*
X005712Y018188D01*
X005735Y018116D01*
X005769Y018048D01*
X005814Y017987D01*
X005867Y017934D01*
X005928Y017889D01*
X005996Y017855D01*
X006068Y017832D01*
X006142Y017820D01*
X006160Y017820D01*
X006005Y017852D02*
X005355Y017852D01*
X005364Y017855D02*
X005432Y017889D01*
X005493Y017934D01*
X005546Y017987D01*
X005591Y018048D01*
X005625Y018116D01*
X005648Y018188D01*
X005660Y018262D01*
X005660Y018580D01*
X005200Y018580D01*
X005200Y017820D01*
X005218Y017820D01*
X005292Y017832D01*
X005364Y017855D01*
X005200Y017852D02*
X005160Y017852D01*
X005160Y017820D02*
X005160Y018580D01*
X004700Y018580D01*
X004700Y018262D01*
X004712Y018188D01*
X004735Y018116D01*
X004769Y018048D01*
X004814Y017987D01*
X004867Y017934D01*
X004928Y017889D01*
X004996Y017855D01*
X005068Y017832D01*
X005142Y017820D01*
X005160Y017820D01*
X005005Y017852D02*
X002179Y017852D01*
X002300Y018011D02*
X004797Y018011D01*
X004718Y018169D02*
X002392Y018169D01*
X002436Y018328D02*
X004700Y018328D01*
X004700Y018486D02*
X002471Y018486D01*
X002471Y018645D02*
X004700Y018645D01*
X004700Y018803D02*
X002457Y018803D01*
X002414Y018962D02*
X004704Y018962D01*
X004753Y019120D02*
X002345Y019120D01*
X002253Y019279D02*
X004884Y019279D01*
X005476Y019279D02*
X005884Y019279D01*
X005753Y019120D02*
X005607Y019120D01*
X005656Y018962D02*
X005704Y018962D01*
X005700Y018803D02*
X005660Y018803D01*
X005660Y018645D02*
X005700Y018645D01*
X005700Y018486D02*
X005660Y018486D01*
X005660Y018328D02*
X005700Y018328D01*
X005718Y018169D02*
X005642Y018169D01*
X005563Y018011D02*
X005797Y018011D01*
X006160Y018011D02*
X006200Y018011D01*
X006200Y018169D02*
X006160Y018169D01*
X006160Y018328D02*
X006200Y018328D01*
X006200Y018486D02*
X006160Y018486D01*
X006642Y018169D02*
X006650Y018169D01*
X006715Y018011D02*
X006563Y018011D01*
X005200Y018011D02*
X005160Y018011D01*
X005160Y018169D02*
X005200Y018169D01*
X005200Y018328D02*
X005160Y018328D01*
X005160Y018486D02*
X005200Y018486D01*
X002004Y017694D02*
X009708Y017694D01*
X009780Y017852D02*
X009496Y017852D01*
X009645Y018011D02*
X009715Y018011D01*
X009549Y017535D02*
X001660Y017535D01*
X001062Y017535D02*
X000660Y017535D01*
X000660Y017694D02*
X000718Y017694D01*
X009862Y016743D02*
X016280Y016743D01*
X016246Y016901D02*
X010047Y016901D01*
X010205Y017060D02*
X016203Y017060D01*
X016212Y017218D02*
X010364Y017218D01*
X010520Y017377D02*
X016281Y017377D01*
X016483Y017535D02*
X010580Y017535D01*
X010580Y017694D02*
X018041Y017694D01*
X017866Y017852D02*
X010580Y017852D01*
X010645Y018011D02*
X017745Y018011D01*
X017653Y018169D02*
X016887Y018169D01*
X017083Y018328D02*
X017609Y018328D01*
X017574Y018486D02*
X017150Y018486D01*
X017157Y018645D02*
X017574Y018645D01*
X017588Y018803D02*
X017113Y018803D01*
X016994Y018962D02*
X017631Y018962D01*
X017700Y019120D02*
X010673Y019120D01*
X010565Y019279D02*
X017792Y019279D01*
X016473Y018169D02*
X010710Y018169D01*
X015007Y012780D02*
X016280Y012780D01*
X016280Y012622D02*
X015147Y012622D01*
X015213Y012463D02*
X016280Y012463D01*
X016280Y012305D02*
X015215Y012305D01*
X015175Y012146D02*
X016280Y012146D01*
X016280Y011988D02*
X015075Y011988D01*
X017080Y011988D02*
X019385Y011988D01*
X019385Y012146D02*
X017080Y012146D01*
X017080Y012305D02*
X019385Y012305D01*
X019385Y012463D02*
X017080Y012463D01*
X017080Y012622D02*
X019385Y012622D01*
X019385Y012780D02*
X017080Y012780D01*
X017080Y012939D02*
X019385Y012939D01*
X019385Y013097D02*
X017080Y013097D01*
X017080Y013256D02*
X019385Y013256D01*
X019385Y013414D02*
X017080Y013414D01*
X017080Y013573D02*
X019385Y013573D01*
X019385Y013731D02*
X017080Y013731D01*
X017080Y013890D02*
X019385Y013890D01*
X019385Y014048D02*
X017080Y014048D01*
X017080Y014207D02*
X019385Y014207D01*
X019385Y014365D02*
X017080Y014365D01*
X017080Y014524D02*
X019385Y014524D01*
X019385Y014682D02*
X017080Y014682D01*
X017080Y014841D02*
X019385Y014841D01*
X019385Y014999D02*
X017080Y014999D01*
X017080Y015158D02*
X019385Y015158D01*
X019385Y015316D02*
X017080Y015316D01*
X017080Y015475D02*
X019385Y015475D01*
X019385Y015633D02*
X017080Y015633D01*
X017080Y015792D02*
X019385Y015792D01*
X019385Y015950D02*
X017080Y015950D01*
X017080Y016109D02*
X019385Y016109D01*
X019385Y016267D02*
X017080Y016267D01*
X017080Y016426D02*
X019385Y016426D01*
X019385Y016584D02*
X017080Y016584D01*
X017080Y016743D02*
X019385Y016743D01*
X019385Y016901D02*
X017114Y016901D01*
X017157Y017060D02*
X019385Y017060D01*
X019385Y017218D02*
X017148Y017218D01*
X017079Y017377D02*
X019385Y017377D01*
X019385Y017535D02*
X018983Y017535D01*
X019327Y017694D02*
X019385Y017694D01*
X018385Y017535D02*
X016877Y017535D01*
X017080Y011829D02*
X019385Y011829D01*
X019385Y011671D02*
X017080Y011671D01*
X017080Y011512D02*
X019385Y011512D01*
X019385Y011354D02*
X017080Y011354D01*
X017080Y011195D02*
X019385Y011195D01*
X019385Y011037D02*
X017080Y011037D01*
X017080Y010878D02*
X019385Y010878D01*
X019385Y010720D02*
X017080Y010720D01*
D23*
X019180Y009100D03*
X015680Y013600D03*
X018680Y014100D03*
X016680Y017100D03*
X016680Y018600D03*
X012680Y014600D03*
X010680Y013600D03*
X008430Y015600D03*
X007680Y014100D03*
X007180Y012600D03*
X004930Y013850D03*
X002680Y017100D03*
X002680Y009600D03*
X011680Y017450D03*
D24*
X010180Y017600D02*
X009680Y017100D01*
X008680Y017100D01*
X007680Y016100D01*
X007680Y014100D01*
X010180Y017600D02*
X010180Y018600D01*
X016680Y018600D01*
X016680Y017100D02*
X016680Y010100D01*
X017180Y009600D01*
M02*
