G75*
G70*
%OFA0B0*%
%FSLAX24Y24*%
%IPPOS*%
%LPD*%
%AMOC8*
5,1,8,0,0,1.08239X$1,22.5*
%
%ADD10C,0.0000*%
%ADD11R,0.0866X0.0236*%
%ADD12C,0.0520*%
%ADD13R,0.0571X0.0453*%
%ADD14R,0.0551X0.0413*%
%ADD15OC8,0.0600*%
%ADD16C,0.1000*%
%ADD17OC8,0.0520*%
%ADD18C,0.0520*%
%ADD19R,0.0860X0.0860*%
%ADD20C,0.0860*%
%ADD21C,0.0660*%
%ADD22C,0.0138*%
%ADD23R,0.0925X0.0886*%
%ADD24R,0.0650X0.0453*%
%ADD25R,0.0850X0.0701*%
%ADD26C,0.0600*%
%ADD27R,0.0394X0.0551*%
%ADD28C,0.0660*%
%ADD29C,0.0400*%
%ADD30C,0.0320*%
%ADD31C,0.0591*%
%ADD32C,0.0160*%
%ADD33C,0.0475*%
%ADD34C,0.0240*%
D10*
X000180Y000887D02*
X000180Y018998D01*
X000182Y019052D01*
X000187Y019105D01*
X000196Y019158D01*
X000209Y019210D01*
X000225Y019262D01*
X000245Y019312D01*
X000268Y019360D01*
X000295Y019407D01*
X000324Y019452D01*
X000357Y019495D01*
X000392Y019535D01*
X000430Y019573D01*
X000470Y019608D01*
X000513Y019641D01*
X000558Y019670D01*
X000605Y019697D01*
X000653Y019720D01*
X000703Y019740D01*
X000755Y019756D01*
X000807Y019769D01*
X000860Y019778D01*
X000913Y019783D01*
X000967Y019785D01*
X019078Y019785D01*
X019132Y019783D01*
X019185Y019778D01*
X019238Y019769D01*
X019290Y019756D01*
X019342Y019740D01*
X019392Y019720D01*
X019440Y019697D01*
X019487Y019670D01*
X019532Y019641D01*
X019575Y019608D01*
X019615Y019573D01*
X019653Y019535D01*
X019688Y019495D01*
X019721Y019452D01*
X019750Y019407D01*
X019777Y019360D01*
X019800Y019312D01*
X019820Y019262D01*
X019836Y019210D01*
X019849Y019158D01*
X019858Y019105D01*
X019863Y019052D01*
X019865Y018998D01*
X019865Y000887D01*
X019863Y000833D01*
X019858Y000780D01*
X019849Y000727D01*
X019836Y000675D01*
X019820Y000623D01*
X019800Y000573D01*
X019777Y000525D01*
X019750Y000478D01*
X019721Y000433D01*
X019688Y000390D01*
X019653Y000350D01*
X019615Y000312D01*
X019575Y000277D01*
X019532Y000244D01*
X019487Y000215D01*
X019440Y000188D01*
X019392Y000165D01*
X019342Y000145D01*
X019290Y000129D01*
X019238Y000116D01*
X019185Y000107D01*
X019132Y000102D01*
X019078Y000100D01*
X000967Y000100D01*
X000913Y000102D01*
X000860Y000107D01*
X000807Y000116D01*
X000755Y000129D01*
X000703Y000145D01*
X000653Y000165D01*
X000605Y000188D01*
X000558Y000215D01*
X000513Y000244D01*
X000470Y000277D01*
X000430Y000312D01*
X000392Y000350D01*
X000357Y000390D01*
X000324Y000433D01*
X000295Y000478D01*
X000268Y000525D01*
X000245Y000573D01*
X000225Y000623D01*
X000209Y000675D01*
X000196Y000727D01*
X000187Y000780D01*
X000182Y000833D01*
X000180Y000887D01*
D11*
X005869Y012350D03*
X005869Y012850D03*
X005869Y013350D03*
X005869Y013850D03*
X005869Y014350D03*
X005869Y014850D03*
X005869Y015350D03*
X005869Y015850D03*
X009491Y015850D03*
X009491Y015350D03*
X009491Y014850D03*
X009491Y014350D03*
X009491Y013850D03*
X009491Y013350D03*
X009491Y012850D03*
X009491Y012350D03*
D12*
X002180Y011650D03*
X002180Y013550D03*
D13*
X003680Y013746D03*
X003680Y014454D03*
X003680Y016246D03*
X003680Y016954D03*
X003680Y011454D03*
X003680Y010746D03*
X007180Y010954D03*
X007180Y010246D03*
X011680Y013746D03*
X011680Y014454D03*
X011680Y015246D03*
X011680Y015954D03*
X018180Y015746D03*
X018180Y016454D03*
D14*
X016680Y016474D03*
X016680Y015726D03*
X016680Y011974D03*
X016680Y011226D03*
X018180Y011226D03*
X018180Y011974D03*
X008680Y010974D03*
X008680Y010226D03*
X003680Y012226D03*
X003680Y012974D03*
D15*
X004680Y004600D03*
X008680Y004600D03*
D16*
X010280Y002100D02*
X010280Y001100D01*
X012280Y001100D02*
X012280Y002100D01*
X006080Y002100D02*
X006080Y001100D01*
X004080Y001100D02*
X004080Y002100D01*
D17*
X013180Y001600D03*
X013180Y003100D03*
X017180Y001600D03*
X018180Y003100D03*
D18*
X018180Y006080D02*
X018180Y006600D01*
X017180Y006600D02*
X017180Y006080D01*
X017180Y009600D02*
X017180Y010120D01*
X018180Y010120D02*
X018180Y009600D01*
D19*
X001680Y006100D03*
D20*
X001680Y004100D03*
D21*
X005180Y007100D03*
X008180Y007100D03*
X010680Y006100D03*
X012680Y006100D03*
X012680Y010100D03*
X011680Y010100D03*
X010680Y010100D03*
D22*
X015497Y010685D02*
X015497Y011235D01*
X015497Y010685D02*
X013863Y010685D01*
X013863Y011235D01*
X015497Y011235D01*
X015497Y010822D02*
X013863Y010822D01*
X013863Y010959D02*
X015497Y010959D01*
X015497Y011096D02*
X013863Y011096D01*
X013863Y011233D02*
X015497Y011233D01*
X015497Y011965D02*
X015497Y012515D01*
X015497Y011965D02*
X013863Y011965D01*
X013863Y012515D01*
X015497Y012515D01*
X015497Y012102D02*
X013863Y012102D01*
X013863Y012239D02*
X015497Y012239D01*
X015497Y012376D02*
X013863Y012376D01*
X013863Y012513D02*
X015497Y012513D01*
X014363Y006515D02*
X014363Y005965D01*
X014363Y006515D02*
X015997Y006515D01*
X015997Y005965D01*
X014363Y005965D01*
X014363Y006102D02*
X015997Y006102D01*
X015997Y006239D02*
X014363Y006239D01*
X014363Y006376D02*
X015997Y006376D01*
X015997Y006513D02*
X014363Y006513D01*
X014363Y005235D02*
X014363Y004685D01*
X014363Y005235D02*
X015997Y005235D01*
X015997Y004685D01*
X014363Y004685D01*
X014363Y004822D02*
X015997Y004822D01*
X015997Y004959D02*
X014363Y004959D01*
X014363Y005096D02*
X015997Y005096D01*
X015997Y005233D02*
X014363Y005233D01*
D23*
X015145Y018100D03*
X013215Y018100D03*
D24*
X011680Y012691D03*
X011680Y011509D03*
D25*
X014180Y014301D03*
X014180Y015903D03*
D26*
X010180Y018300D02*
X010180Y018900D01*
X009180Y018900D02*
X009180Y018300D01*
X008180Y018300D02*
X008180Y018900D01*
X007180Y018900D02*
X007180Y018300D01*
X006180Y018300D02*
X006180Y018900D01*
X005180Y018900D02*
X005180Y018300D01*
D27*
X017056Y013417D03*
X017804Y013417D03*
X017430Y014283D03*
D28*
X015180Y006240D02*
X012820Y006240D01*
X012680Y006100D01*
X010680Y006100D02*
X009180Y006100D01*
X008180Y007100D01*
X009040Y004960D02*
X008680Y004600D01*
X009040Y004960D02*
X015180Y004960D01*
X013180Y003100D02*
X013180Y001600D01*
X012280Y001600D01*
X010280Y001600D01*
X006080Y001600D02*
X004080Y001600D01*
X001680Y004000D01*
X001680Y004100D01*
X001680Y006100D02*
X004680Y006100D01*
X004680Y006600D01*
X005180Y007100D01*
X004680Y006100D02*
X004680Y004600D01*
D29*
X017180Y003600D02*
X017180Y001600D01*
X018180Y003100D02*
X018180Y006600D01*
X017180Y006600D02*
X017180Y003600D01*
D30*
X014180Y003600D01*
X013680Y004100D01*
X012680Y004100D01*
X012180Y003600D01*
X005680Y003600D01*
X004680Y004600D01*
X016680Y016474D02*
X016680Y017100D01*
X016680Y018600D01*
X013215Y018100D02*
X010680Y018100D01*
X010180Y018600D01*
D31*
X014680Y012350D03*
X014680Y010850D03*
X015180Y006350D03*
X015180Y004850D03*
D32*
X019385Y008850D02*
X000660Y008850D01*
X000660Y017735D01*
X000680Y017716D01*
X000933Y017570D01*
X001215Y017494D01*
X001507Y017494D01*
X001790Y017570D01*
X002043Y017716D01*
X002249Y017922D01*
X002395Y018176D01*
X002471Y018458D01*
X002471Y018750D01*
X002395Y019032D01*
X002249Y019285D01*
X002230Y019305D01*
X004921Y019305D01*
X004867Y019266D01*
X004814Y019213D01*
X004769Y019152D01*
X004735Y019084D01*
X004712Y019012D01*
X004700Y018938D01*
X004700Y018620D01*
X005160Y018620D01*
X005160Y018580D01*
X005200Y018580D01*
X005200Y018620D01*
X005660Y018620D01*
X005660Y018938D01*
X005648Y019012D01*
X005625Y019084D01*
X005591Y019152D01*
X005546Y019213D01*
X005493Y019266D01*
X005439Y019305D01*
X005921Y019305D01*
X005867Y019266D01*
X005814Y019213D01*
X005769Y019152D01*
X005735Y019084D01*
X005712Y019012D01*
X005700Y018938D01*
X005700Y018620D01*
X006160Y018620D01*
X006160Y018580D01*
X006200Y018580D01*
X006200Y017820D01*
X006218Y017820D01*
X006292Y017832D01*
X006364Y017855D01*
X006432Y017889D01*
X006493Y017934D01*
X006546Y017987D01*
X006591Y018048D01*
X006625Y018116D01*
X006645Y018179D01*
X006722Y017994D01*
X006820Y017896D01*
X006820Y017749D01*
X006031Y016960D01*
X005108Y016960D01*
X004976Y016905D01*
X004875Y016804D01*
X004625Y016554D01*
X004570Y016422D01*
X004570Y015758D01*
X004205Y016185D01*
X004205Y016520D01*
X004169Y016608D01*
X004128Y016649D01*
X004133Y016658D01*
X004145Y016704D01*
X004145Y016921D01*
X003713Y016921D01*
X003713Y016988D01*
X003647Y016988D01*
X003647Y017361D01*
X003371Y017361D01*
X003325Y017348D01*
X003284Y017325D01*
X003251Y017291D01*
X003227Y017250D01*
X003215Y017204D01*
X003215Y016988D01*
X003647Y016988D01*
X003647Y016921D01*
X003215Y016921D01*
X003215Y016704D01*
X003227Y016658D01*
X003232Y016649D01*
X003191Y016608D01*
X003155Y016520D01*
X003155Y015972D01*
X003191Y015883D01*
X003259Y015816D01*
X003347Y015779D01*
X003605Y015779D01*
X004224Y015055D01*
X004229Y015042D01*
X004270Y015001D01*
X004307Y014957D01*
X004320Y014951D01*
X004726Y014545D01*
X004858Y014490D01*
X005196Y014490D01*
X005196Y014184D01*
X005232Y014096D01*
X005276Y014052D01*
X005268Y014038D01*
X005256Y013992D01*
X005256Y013850D01*
X005256Y013708D01*
X005268Y013662D01*
X005276Y013648D01*
X005232Y013604D01*
X005196Y013516D01*
X005196Y013210D01*
X004196Y013210D01*
X004196Y013228D01*
X004159Y013317D01*
X004131Y013345D01*
X004169Y013383D01*
X004205Y013472D01*
X004205Y014020D01*
X004169Y014108D01*
X004128Y014149D01*
X004133Y014158D01*
X004145Y014204D01*
X004145Y014421D01*
X003713Y014421D01*
X003713Y014488D01*
X003647Y014488D01*
X003647Y014861D01*
X003371Y014861D01*
X003325Y014848D01*
X003284Y014825D01*
X003251Y014791D01*
X003227Y014750D01*
X003215Y014704D01*
X003215Y014488D01*
X003647Y014488D01*
X003647Y014421D01*
X003215Y014421D01*
X003215Y014204D01*
X003227Y014158D01*
X003232Y014149D01*
X003191Y014108D01*
X003155Y014020D01*
X003155Y013910D01*
X002527Y013910D01*
X002463Y013974D01*
X002279Y014050D01*
X002081Y014050D01*
X001897Y013974D01*
X001756Y013833D01*
X001680Y013649D01*
X001680Y013451D01*
X001756Y013267D01*
X001897Y013126D01*
X002081Y013050D01*
X002279Y013050D01*
X002463Y013126D01*
X002527Y013190D01*
X003164Y013190D01*
X003164Y012720D01*
X003201Y012631D01*
X003232Y012600D01*
X003201Y012569D01*
X003164Y012480D01*
X003164Y012010D01*
X002527Y012010D01*
X002463Y012074D01*
X002279Y012150D01*
X002081Y012150D01*
X001897Y012074D01*
X001756Y011933D01*
X001680Y011749D01*
X001680Y011551D01*
X001756Y011367D01*
X001897Y011226D01*
X002081Y011150D01*
X002279Y011150D01*
X002463Y011226D01*
X002527Y011290D01*
X003155Y011290D01*
X003155Y011180D01*
X003191Y011092D01*
X003232Y011051D01*
X003227Y011042D01*
X003215Y010996D01*
X003215Y010779D01*
X003647Y010779D01*
X003647Y010712D01*
X003713Y010712D01*
X003713Y010339D01*
X003989Y010339D01*
X004035Y010352D01*
X004076Y010375D01*
X004109Y010409D01*
X004133Y010450D01*
X004145Y010496D01*
X004145Y010712D01*
X003713Y010712D01*
X003713Y010779D01*
X004145Y010779D01*
X004145Y010996D01*
X004133Y011042D01*
X004128Y011051D01*
X004169Y011092D01*
X004205Y011180D01*
X004205Y011728D01*
X004169Y011817D01*
X004131Y011855D01*
X004159Y011883D01*
X004196Y011972D01*
X004196Y011990D01*
X005941Y011990D01*
X005945Y011992D01*
X006350Y011992D01*
X006438Y012028D01*
X006506Y012096D01*
X006542Y012184D01*
X006542Y012516D01*
X006507Y012600D01*
X006542Y012684D01*
X006542Y013016D01*
X006507Y013100D01*
X006542Y013184D01*
X006542Y013516D01*
X006506Y013604D01*
X006461Y013648D01*
X006470Y013662D01*
X006482Y013708D01*
X006482Y013850D01*
X006482Y013992D01*
X006470Y014038D01*
X006461Y014052D01*
X006506Y014096D01*
X006542Y014184D01*
X006542Y014490D01*
X006781Y014490D01*
X007203Y014068D01*
X007203Y014005D01*
X007275Y013830D01*
X007410Y013695D01*
X007585Y013623D01*
X007648Y013623D01*
X008125Y013146D01*
X008226Y013045D01*
X008358Y012990D01*
X008818Y012990D01*
X008818Y012684D01*
X008854Y012596D01*
X008899Y012552D01*
X008890Y012538D01*
X008878Y012492D01*
X008878Y012350D01*
X008878Y012208D01*
X008890Y012162D01*
X008914Y012121D01*
X008947Y012088D01*
X008988Y012064D01*
X009034Y012052D01*
X009491Y012052D01*
X009491Y012350D01*
X009491Y012350D01*
X008878Y012350D01*
X009491Y012350D01*
X009491Y012350D01*
X009491Y012052D01*
X009948Y012052D01*
X009994Y012064D01*
X010035Y012088D01*
X010068Y012121D01*
X010092Y012162D01*
X010104Y012208D01*
X010104Y012350D01*
X010104Y012490D01*
X011115Y012490D01*
X011115Y012416D01*
X011152Y012328D01*
X011219Y012261D01*
X011307Y012224D01*
X012053Y012224D01*
X012141Y012261D01*
X012208Y012328D01*
X012209Y012331D01*
X012342Y012331D01*
X012474Y012385D01*
X013800Y013710D01*
X014653Y013710D01*
X014741Y013747D01*
X014809Y013814D01*
X014845Y013903D01*
X014845Y014699D01*
X014809Y014787D01*
X014741Y014855D01*
X014653Y014891D01*
X013898Y014891D01*
X012530Y016260D01*
X012397Y016314D01*
X012170Y016314D01*
X012169Y016317D01*
X012101Y016384D01*
X012013Y016421D01*
X011347Y016421D01*
X011259Y016384D01*
X011191Y016317D01*
X011155Y016228D01*
X011155Y015680D01*
X011188Y015600D01*
X011177Y015574D01*
X011122Y015551D01*
X011020Y015450D01*
X010781Y015210D01*
X010164Y015210D01*
X010164Y015516D01*
X010129Y015600D01*
X010164Y015684D01*
X010164Y016016D01*
X010128Y016104D01*
X010060Y016172D01*
X009972Y016208D01*
X009010Y016208D01*
X008922Y016172D01*
X008854Y016104D01*
X008818Y016016D01*
X008818Y015684D01*
X008853Y015600D01*
X008818Y015516D01*
X008818Y015184D01*
X008853Y015100D01*
X008818Y015016D01*
X008818Y014710D01*
X007858Y014710D01*
X007726Y014655D01*
X007680Y014609D01*
X007134Y015155D01*
X007002Y015210D01*
X006542Y015210D01*
X006542Y015490D01*
X007002Y015490D01*
X007134Y015545D01*
X007384Y015795D01*
X007485Y015896D01*
X007540Y016028D01*
X007540Y016451D01*
X008384Y017295D01*
X008485Y017396D01*
X008540Y017528D01*
X008540Y017896D01*
X008638Y017994D01*
X008680Y018096D01*
X008722Y017994D01*
X008820Y017896D01*
X008820Y017528D01*
X008875Y017396D01*
X008976Y017295D01*
X009726Y016545D01*
X009858Y016490D01*
X015031Y016490D01*
X015320Y016201D01*
X015320Y016028D01*
X015375Y015896D01*
X015476Y015795D01*
X015850Y015421D01*
X015982Y015366D01*
X016218Y015366D01*
X016268Y015316D01*
X013473Y015316D01*
X013611Y015442D02*
X013644Y015409D01*
X013685Y015385D01*
X013731Y015373D01*
X014100Y015373D01*
X014100Y015823D01*
X014260Y015823D01*
X014260Y015373D01*
X014629Y015373D01*
X014675Y015385D01*
X014716Y015409D01*
X014749Y015442D01*
X014773Y015483D01*
X014785Y015529D01*
X014785Y015823D01*
X014260Y015823D01*
X014260Y015983D01*
X014785Y015983D01*
X014785Y016277D01*
X014773Y016323D01*
X014749Y016364D01*
X014716Y016398D01*
X014675Y016421D01*
X014629Y016434D01*
X014260Y016434D01*
X014260Y015983D01*
X014100Y015983D01*
X014100Y015823D01*
X013575Y015823D01*
X013575Y015529D01*
X013587Y015483D01*
X013611Y015442D01*
X013592Y015475D02*
X013315Y015475D01*
X013156Y015633D02*
X013575Y015633D01*
X013575Y015792D02*
X012998Y015792D01*
X012839Y015950D02*
X014100Y015950D01*
X014100Y015983D02*
X013575Y015983D01*
X013575Y016277D01*
X013587Y016323D01*
X013611Y016364D01*
X013644Y016398D01*
X013685Y016421D01*
X013731Y016434D01*
X014100Y016434D01*
X014100Y015983D01*
X014100Y016109D02*
X014260Y016109D01*
X014260Y016267D02*
X014100Y016267D01*
X014100Y016426D02*
X014260Y016426D01*
X014659Y016426D02*
X015095Y016426D01*
X015254Y016267D02*
X014785Y016267D01*
X014785Y016109D02*
X015320Y016109D01*
X015352Y015950D02*
X014260Y015950D01*
X014260Y015792D02*
X014100Y015792D01*
X014100Y015633D02*
X014260Y015633D01*
X014260Y015475D02*
X014100Y015475D01*
X013632Y015158D02*
X017070Y015158D01*
X017003Y015279D02*
X017070Y015307D01*
X017070Y014735D01*
X017030Y014695D01*
X016993Y014606D01*
X016993Y013960D01*
X017004Y013933D01*
X016811Y013933D01*
X016723Y013896D01*
X016656Y013828D01*
X016619Y013740D01*
X016619Y013094D01*
X016656Y013005D01*
X016723Y012938D01*
X016735Y012933D01*
X016751Y012894D01*
X016852Y012793D01*
X017664Y011980D01*
X017664Y011720D01*
X017701Y011631D01*
X017732Y011600D01*
X017718Y011586D01*
X017142Y011586D01*
X017092Y011636D01*
X017083Y011640D01*
X017100Y011657D01*
X017123Y011698D01*
X017136Y011744D01*
X017136Y011951D01*
X016703Y011951D01*
X016703Y011997D01*
X017136Y011997D01*
X017136Y012204D01*
X017123Y012250D01*
X017100Y012291D01*
X017066Y012325D01*
X017025Y012348D01*
X016979Y012361D01*
X016703Y012361D01*
X016703Y011997D01*
X016657Y011997D01*
X016657Y011951D01*
X016224Y011951D01*
X016224Y011744D01*
X016237Y011698D01*
X016260Y011657D01*
X016277Y011640D01*
X016268Y011636D01*
X016201Y011569D01*
X016164Y011480D01*
X016164Y010972D01*
X016201Y010883D01*
X016268Y010816D01*
X016357Y010779D01*
X017003Y010779D01*
X017092Y010816D01*
X017142Y010866D01*
X017718Y010866D01*
X017768Y010816D01*
X017820Y010794D01*
X017820Y010467D01*
X017756Y010403D01*
X017680Y010219D01*
X017604Y010403D01*
X017463Y010544D01*
X017279Y010620D01*
X017081Y010620D01*
X016897Y010544D01*
X016756Y010403D01*
X016680Y010219D01*
X016680Y009501D01*
X016756Y009317D01*
X016897Y009176D01*
X017081Y009100D01*
X017279Y009100D01*
X017463Y009176D01*
X017604Y009317D01*
X017680Y009501D01*
X017680Y010219D01*
X017680Y009501D01*
X017756Y009317D01*
X017897Y009176D01*
X018081Y009100D01*
X018279Y009100D01*
X018463Y009176D01*
X018604Y009317D01*
X018680Y009501D01*
X018680Y010219D01*
X018604Y010403D01*
X018540Y010467D01*
X018540Y010794D01*
X018592Y010816D01*
X018659Y010883D01*
X018696Y010972D01*
X018696Y011480D01*
X018659Y011569D01*
X018628Y011600D01*
X018659Y011631D01*
X018696Y011720D01*
X018696Y012228D01*
X018659Y012317D01*
X018592Y012384D01*
X018503Y012421D01*
X018242Y012421D01*
X017702Y012961D01*
X017786Y012961D01*
X017786Y013398D01*
X017822Y013398D01*
X017822Y012961D01*
X018025Y012961D01*
X018070Y012974D01*
X018111Y012997D01*
X018145Y013031D01*
X018169Y013072D01*
X018181Y013118D01*
X018181Y013399D01*
X017822Y013399D01*
X017822Y013435D01*
X018181Y013435D01*
X018181Y013716D01*
X018169Y013762D01*
X018145Y013803D01*
X018111Y013837D01*
X018070Y013860D01*
X018025Y013873D01*
X017831Y013873D01*
X017867Y013960D01*
X017867Y014606D01*
X017830Y014695D01*
X017790Y014735D01*
X017790Y015303D01*
X017847Y015279D01*
X018513Y015279D01*
X018601Y015316D01*
X018669Y015383D01*
X018705Y015472D01*
X018705Y016020D01*
X018669Y016108D01*
X018628Y016149D01*
X018633Y016158D01*
X018645Y016204D01*
X018645Y016421D01*
X018213Y016421D01*
X018213Y016488D01*
X018147Y016488D01*
X018147Y016861D01*
X017871Y016861D01*
X017825Y016848D01*
X017784Y016825D01*
X017751Y016791D01*
X017727Y016750D01*
X017715Y016704D01*
X017715Y016488D01*
X018147Y016488D01*
X018147Y016421D01*
X017715Y016421D01*
X017715Y016204D01*
X017727Y016158D01*
X017732Y016149D01*
X017691Y016108D01*
X017690Y016106D01*
X017133Y016106D01*
X017159Y016131D01*
X017196Y016220D01*
X017196Y016728D01*
X017159Y016817D01*
X017103Y016873D01*
X017157Y017005D01*
X017157Y017195D01*
X017085Y017370D01*
X017080Y017375D01*
X017080Y018325D01*
X017085Y018330D01*
X017157Y018505D01*
X017157Y018695D01*
X017085Y018870D01*
X016950Y019005D01*
X016775Y019077D01*
X016585Y019077D01*
X016410Y019005D01*
X016275Y018870D01*
X016203Y018695D01*
X016203Y018505D01*
X016275Y018330D01*
X016280Y018325D01*
X016280Y017375D01*
X016275Y017370D01*
X016203Y017195D01*
X016203Y017005D01*
X016257Y016873D01*
X016201Y016817D01*
X016164Y016728D01*
X016164Y016220D01*
X016201Y016131D01*
X016232Y016100D01*
X016218Y016086D01*
X016203Y016086D01*
X016040Y016249D01*
X016040Y016422D01*
X015985Y016554D01*
X015485Y017054D01*
X015384Y017155D01*
X015252Y017210D01*
X010079Y017210D01*
X009540Y017749D01*
X009540Y017896D01*
X009638Y017994D01*
X009680Y018096D01*
X009722Y017994D01*
X009874Y017842D01*
X010073Y017760D01*
X010287Y017760D01*
X010405Y017809D01*
X010453Y017761D01*
X010600Y017700D01*
X012513Y017700D01*
X012513Y017609D01*
X012549Y017521D01*
X012617Y017454D01*
X012705Y017417D01*
X013726Y017417D01*
X013814Y017454D01*
X013881Y017521D01*
X013918Y017609D01*
X013918Y018591D01*
X013881Y018679D01*
X013814Y018746D01*
X013726Y018783D01*
X012705Y018783D01*
X012617Y018746D01*
X012549Y018679D01*
X012513Y018591D01*
X012513Y018500D01*
X010846Y018500D01*
X010720Y018626D01*
X010720Y019007D01*
X010638Y019206D01*
X010539Y019305D01*
X017815Y019305D01*
X017796Y019285D01*
X017650Y019032D01*
X017574Y018750D01*
X017574Y018458D01*
X017650Y018176D01*
X017796Y017922D01*
X018002Y017716D01*
X018256Y017570D01*
X018538Y017494D01*
X018830Y017494D01*
X019112Y017570D01*
X019365Y017716D01*
X019385Y017735D01*
X019385Y008850D01*
X019385Y008976D02*
X000660Y008976D01*
X000660Y009135D02*
X016997Y009135D01*
X016780Y009293D02*
X000660Y009293D01*
X000660Y009452D02*
X016700Y009452D01*
X016680Y009610D02*
X012822Y009610D01*
X012799Y009603D02*
X012876Y009627D01*
X012947Y009664D01*
X013012Y009711D01*
X013069Y009768D01*
X013116Y009833D01*
X013153Y009904D01*
X013177Y009981D01*
X013190Y010060D01*
X013190Y010091D01*
X012689Y010091D01*
X012689Y010109D01*
X012671Y010109D01*
X012671Y010610D01*
X012640Y010610D01*
X012561Y010597D01*
X012484Y010573D01*
X012413Y010536D01*
X012348Y010489D01*
X012291Y010432D01*
X012244Y010367D01*
X012212Y010305D01*
X012163Y010423D01*
X012003Y010583D01*
X011793Y010670D01*
X011567Y010670D01*
X011357Y010583D01*
X011197Y010423D01*
X011180Y010382D01*
X011163Y010423D01*
X011088Y010498D01*
X011632Y011043D01*
X012053Y011043D01*
X012141Y011080D01*
X012208Y011147D01*
X012245Y011235D01*
X012245Y011240D01*
X012752Y011240D01*
X012884Y011295D01*
X013469Y011880D01*
X013564Y011880D01*
X013601Y011789D01*
X013688Y011702D01*
X013802Y011655D01*
X015558Y011655D01*
X015672Y011702D01*
X015759Y011789D01*
X015806Y011903D01*
X015806Y012577D01*
X015759Y012690D01*
X015672Y012777D01*
X015558Y012824D01*
X014934Y012824D01*
X014786Y012885D01*
X014574Y012885D01*
X014426Y012824D01*
X013802Y012824D01*
X013688Y012777D01*
X013601Y012690D01*
X013564Y012600D01*
X013248Y012600D01*
X013116Y012545D01*
X013015Y012444D01*
X012531Y011960D01*
X012091Y011960D01*
X012053Y011976D01*
X011307Y011976D01*
X011219Y011939D01*
X011152Y011872D01*
X011115Y011784D01*
X011115Y011544D01*
X010680Y011109D01*
X010611Y011178D01*
X010510Y011279D01*
X010378Y011334D01*
X009142Y011334D01*
X009092Y011384D01*
X009003Y011421D01*
X008357Y011421D01*
X008268Y011384D01*
X008201Y011317D01*
X008200Y011314D01*
X007670Y011314D01*
X007669Y011317D01*
X007601Y011384D01*
X007513Y011421D01*
X006847Y011421D01*
X006759Y011384D01*
X006691Y011317D01*
X006655Y011228D01*
X006655Y010680D01*
X006691Y010592D01*
X006732Y010551D01*
X006727Y010542D01*
X006715Y010496D01*
X006715Y010279D01*
X007147Y010279D01*
X007147Y010212D01*
X007213Y010212D01*
X007213Y009839D01*
X007489Y009839D01*
X007535Y009852D01*
X007576Y009875D01*
X007609Y009909D01*
X007633Y009950D01*
X007645Y009996D01*
X007645Y010212D01*
X007213Y010212D01*
X007213Y010279D01*
X007645Y010279D01*
X007645Y010496D01*
X007633Y010542D01*
X007628Y010551D01*
X007669Y010592D01*
X007670Y010594D01*
X008238Y010594D01*
X008268Y010564D01*
X008277Y010560D01*
X008260Y010543D01*
X008237Y010502D01*
X008224Y010456D01*
X008224Y010249D01*
X008657Y010249D01*
X008657Y010203D01*
X008703Y010203D01*
X008703Y010249D01*
X009136Y010249D01*
X009136Y010456D01*
X009123Y010502D01*
X009100Y010543D01*
X009083Y010560D01*
X009092Y010564D01*
X009142Y010614D01*
X010157Y010614D01*
X010272Y010498D01*
X010197Y010423D01*
X010110Y010213D01*
X010110Y009987D01*
X010197Y009777D01*
X010357Y009617D01*
X010567Y009530D01*
X010793Y009530D01*
X011003Y009617D01*
X011163Y009777D01*
X011180Y009818D01*
X011197Y009777D01*
X011357Y009617D01*
X011567Y009530D01*
X011793Y009530D01*
X012003Y009617D01*
X012163Y009777D01*
X012212Y009895D01*
X012244Y009833D01*
X012291Y009768D01*
X012348Y009711D01*
X012413Y009664D01*
X012484Y009627D01*
X012561Y009603D01*
X012640Y009590D01*
X012671Y009590D01*
X012671Y010091D01*
X012689Y010091D01*
X012689Y009590D01*
X012720Y009590D01*
X012799Y009603D01*
X012689Y009610D02*
X012671Y009610D01*
X012538Y009610D02*
X011987Y009610D01*
X012155Y009769D02*
X012290Y009769D01*
X012671Y009769D02*
X012689Y009769D01*
X012689Y009927D02*
X012671Y009927D01*
X012671Y010086D02*
X012689Y010086D01*
X012689Y010109D02*
X013190Y010109D01*
X013190Y010140D01*
X013177Y010219D01*
X013153Y010296D01*
X013116Y010367D01*
X013069Y010432D01*
X013012Y010489D01*
X012947Y010536D01*
X012876Y010573D01*
X012799Y010597D01*
X012720Y010610D01*
X012689Y010610D01*
X012689Y010109D01*
X012689Y010244D02*
X012671Y010244D01*
X012671Y010403D02*
X012689Y010403D01*
X012689Y010561D02*
X012671Y010561D01*
X012461Y010561D02*
X012025Y010561D01*
X012172Y010403D02*
X012269Y010403D01*
X012899Y010561D02*
X013646Y010561D01*
X013643Y010567D02*
X013670Y010526D01*
X013704Y010491D01*
X013745Y010464D01*
X013790Y010445D01*
X013839Y010436D01*
X014600Y010436D01*
X014600Y010880D01*
X014760Y010880D01*
X014760Y010436D01*
X015521Y010436D01*
X015570Y010445D01*
X015615Y010464D01*
X015656Y010491D01*
X015690Y010526D01*
X015717Y010567D01*
X015736Y010612D01*
X015746Y010660D01*
X015746Y010880D01*
X014760Y010880D01*
X014760Y011040D01*
X015746Y011040D01*
X015746Y011260D01*
X015736Y011308D01*
X015717Y011354D01*
X015690Y011394D01*
X015656Y011429D01*
X015615Y011456D01*
X015570Y011475D01*
X015521Y011485D01*
X014760Y011485D01*
X014760Y011040D01*
X014600Y011040D01*
X014600Y010880D01*
X013614Y010880D01*
X013614Y010660D01*
X013624Y010612D01*
X013643Y010567D01*
X013614Y010720D02*
X011309Y010720D01*
X011335Y010561D02*
X011150Y010561D01*
X011172Y010403D02*
X011188Y010403D01*
X011467Y010878D02*
X013614Y010878D01*
X013614Y011040D02*
X013614Y011260D01*
X013624Y011308D01*
X013643Y011354D01*
X013670Y011394D01*
X013704Y011429D01*
X013745Y011456D01*
X013790Y011475D01*
X013839Y011485D01*
X014600Y011485D01*
X014600Y011040D01*
X013614Y011040D01*
X013614Y011195D02*
X012228Y011195D01*
X011626Y011037D02*
X014600Y011037D01*
X014600Y011195D02*
X014760Y011195D01*
X014760Y011037D02*
X016164Y011037D01*
X016164Y011195D02*
X015746Y011195D01*
X015718Y011354D02*
X016164Y011354D01*
X016178Y011512D02*
X013101Y011512D01*
X012943Y011354D02*
X013642Y011354D01*
X013765Y011671D02*
X013260Y011671D01*
X013418Y011829D02*
X013585Y011829D01*
X012875Y012305D02*
X012185Y012305D01*
X012552Y012463D02*
X013034Y012463D01*
X012869Y012780D02*
X013695Y012780D01*
X013573Y012622D02*
X012711Y012622D01*
X013028Y012939D02*
X016723Y012939D01*
X016619Y013097D02*
X013186Y013097D01*
X013345Y013256D02*
X016619Y013256D01*
X016619Y013414D02*
X013503Y013414D01*
X013662Y013573D02*
X016619Y013573D01*
X016619Y013731D02*
X014703Y013731D01*
X014840Y013890D02*
X016717Y013890D01*
X016993Y014048D02*
X014845Y014048D01*
X014845Y014207D02*
X016993Y014207D01*
X016993Y014365D02*
X014845Y014365D01*
X014845Y014524D02*
X016993Y014524D01*
X017024Y014682D02*
X014845Y014682D01*
X014755Y014841D02*
X017070Y014841D01*
X017070Y014999D02*
X013790Y014999D01*
X013247Y014524D02*
X012205Y014524D01*
X012205Y014682D02*
X013089Y014682D01*
X012930Y014841D02*
X012145Y014841D01*
X012136Y014850D02*
X012169Y014883D01*
X012205Y014972D01*
X012205Y015520D01*
X012175Y015594D01*
X012177Y015594D01*
X013421Y014350D01*
X012166Y013095D01*
X012141Y013120D01*
X012053Y013157D01*
X011720Y013157D01*
X011592Y013210D01*
X010164Y013210D01*
X010164Y013516D01*
X010128Y013604D01*
X010084Y013648D01*
X010092Y013662D01*
X010104Y013708D01*
X010104Y013850D01*
X010104Y013990D01*
X011215Y013990D01*
X011215Y013779D01*
X011647Y013779D01*
X011647Y013712D01*
X011713Y013712D01*
X011713Y013339D01*
X011989Y013339D01*
X012035Y013352D01*
X012076Y013375D01*
X012109Y013409D01*
X012133Y013450D01*
X012145Y013496D01*
X012145Y013712D01*
X011713Y013712D01*
X011713Y013779D01*
X012145Y013779D01*
X012145Y013996D01*
X012133Y014042D01*
X012128Y014051D01*
X012169Y014092D01*
X012205Y014180D01*
X012205Y014728D01*
X012169Y014817D01*
X012136Y014850D01*
X012205Y014999D02*
X012772Y014999D01*
X012613Y015158D02*
X012205Y015158D01*
X012205Y015316D02*
X012455Y015316D01*
X012296Y015475D02*
X012205Y015475D01*
X012681Y016109D02*
X013575Y016109D01*
X013575Y016267D02*
X012511Y016267D01*
X013701Y016426D02*
X007540Y016426D01*
X007540Y016267D02*
X011171Y016267D01*
X011155Y016109D02*
X010123Y016109D01*
X010164Y015950D02*
X011155Y015950D01*
X011155Y015792D02*
X010164Y015792D01*
X010143Y015633D02*
X011174Y015633D01*
X011045Y015475D02*
X010164Y015475D01*
X010164Y015316D02*
X010887Y015316D01*
X012205Y014365D02*
X013406Y014365D01*
X013277Y014207D02*
X012205Y014207D01*
X012129Y014048D02*
X013119Y014048D01*
X012960Y013890D02*
X012145Y013890D01*
X012145Y013573D02*
X012643Y013573D01*
X012802Y013731D02*
X011713Y013731D01*
X011647Y013731D02*
X010104Y013731D01*
X010104Y013850D02*
X009491Y013850D01*
X009491Y013850D01*
X008878Y013850D01*
X008878Y013710D01*
X008579Y013710D01*
X008299Y013990D01*
X008878Y013990D01*
X008878Y013850D01*
X009491Y013850D01*
X010104Y013850D01*
X010104Y013890D02*
X011215Y013890D01*
X011215Y013712D02*
X011215Y013496D01*
X011227Y013450D01*
X011251Y013409D01*
X011284Y013375D01*
X011325Y013352D01*
X011371Y013339D01*
X011647Y013339D01*
X011647Y013712D01*
X011215Y013712D01*
X011215Y013573D02*
X010141Y013573D01*
X010164Y013414D02*
X011247Y013414D01*
X011647Y013414D02*
X011713Y013414D01*
X011713Y013573D02*
X011647Y013573D01*
X012113Y013414D02*
X012485Y013414D01*
X012326Y013256D02*
X010164Y013256D01*
X009491Y013850D02*
X009491Y013850D01*
X008878Y013890D02*
X008400Y013890D01*
X008558Y013731D02*
X008878Y013731D01*
X008174Y013097D02*
X006508Y013097D01*
X006542Y012939D02*
X008818Y012939D01*
X008818Y012780D02*
X006542Y012780D01*
X006516Y012622D02*
X008844Y012622D01*
X008878Y012463D02*
X006542Y012463D01*
X006542Y012305D02*
X008878Y012305D01*
X008900Y012146D02*
X006526Y012146D01*
X006728Y011354D02*
X004205Y011354D01*
X004205Y011512D02*
X011083Y011512D01*
X011115Y011671D02*
X004205Y011671D01*
X004157Y011829D02*
X011134Y011829D01*
X010924Y011354D02*
X009122Y011354D01*
X009085Y010561D02*
X010210Y010561D01*
X010188Y010403D02*
X009136Y010403D01*
X009136Y010203D02*
X008703Y010203D01*
X008703Y009839D01*
X008979Y009839D01*
X009025Y009852D01*
X009066Y009875D01*
X009100Y009909D01*
X009123Y009950D01*
X009136Y009996D01*
X009136Y010203D01*
X009136Y010086D02*
X010110Y010086D01*
X010123Y010244D02*
X008703Y010244D01*
X008657Y010244D02*
X007213Y010244D01*
X007147Y010244D02*
X000660Y010244D01*
X000660Y010086D02*
X006715Y010086D01*
X006715Y009996D02*
X006715Y010212D01*
X007147Y010212D01*
X007147Y009839D01*
X006871Y009839D01*
X006825Y009852D01*
X006784Y009875D01*
X006751Y009909D01*
X006727Y009950D01*
X006715Y009996D01*
X006740Y009927D02*
X000660Y009927D01*
X000660Y009769D02*
X010205Y009769D01*
X010135Y009927D02*
X009110Y009927D01*
X008703Y009927D02*
X008657Y009927D01*
X008657Y009839D02*
X008657Y010203D01*
X008224Y010203D01*
X008224Y009996D01*
X008237Y009950D01*
X008260Y009909D01*
X008294Y009875D01*
X008335Y009852D01*
X008381Y009839D01*
X008657Y009839D01*
X008657Y010086D02*
X008703Y010086D01*
X008224Y010086D02*
X007645Y010086D01*
X007620Y009927D02*
X008250Y009927D01*
X008224Y010403D02*
X007645Y010403D01*
X007638Y010561D02*
X008275Y010561D01*
X008238Y011354D02*
X007632Y011354D01*
X006655Y011195D02*
X004205Y011195D01*
X004135Y011037D02*
X006655Y011037D01*
X006655Y010878D02*
X004145Y010878D01*
X004145Y010561D02*
X006722Y010561D01*
X006715Y010403D02*
X004103Y010403D01*
X003713Y010403D02*
X003647Y010403D01*
X003647Y010339D02*
X003647Y010712D01*
X003215Y010712D01*
X003215Y010496D01*
X003227Y010450D01*
X003251Y010409D01*
X003284Y010375D01*
X003325Y010352D01*
X003371Y010339D01*
X003647Y010339D01*
X003647Y010561D02*
X003713Y010561D01*
X003713Y010720D02*
X006655Y010720D01*
X007147Y010086D02*
X007213Y010086D01*
X007213Y009927D02*
X007147Y009927D01*
X009491Y012146D02*
X009491Y012146D01*
X009491Y012305D02*
X009491Y012305D01*
X009491Y012350D02*
X009491Y012350D01*
X010104Y012350D01*
X009491Y012350D01*
X010104Y012305D02*
X011175Y012305D01*
X011115Y012463D02*
X010104Y012463D01*
X010082Y012146D02*
X012717Y012146D01*
X012558Y011988D02*
X004196Y011988D01*
X003164Y012146D02*
X002289Y012146D01*
X002071Y012146D02*
X000660Y012146D01*
X000660Y011988D02*
X001810Y011988D01*
X001713Y011829D02*
X000660Y011829D01*
X000660Y011671D02*
X001680Y011671D01*
X001696Y011512D02*
X000660Y011512D01*
X000660Y011354D02*
X001769Y011354D01*
X001972Y011195D02*
X000660Y011195D01*
X000660Y011037D02*
X003225Y011037D01*
X003215Y010878D02*
X000660Y010878D01*
X000660Y010720D02*
X003647Y010720D01*
X003215Y010561D02*
X000660Y010561D01*
X000660Y010403D02*
X003257Y010403D01*
X003155Y011195D02*
X002388Y011195D01*
X003164Y012305D02*
X000660Y012305D01*
X000660Y012463D02*
X003164Y012463D01*
X003211Y012622D02*
X000660Y012622D01*
X000660Y012780D02*
X003164Y012780D01*
X003164Y012939D02*
X000660Y012939D01*
X000660Y013097D02*
X001967Y013097D01*
X001767Y013256D02*
X000660Y013256D01*
X000660Y013414D02*
X001695Y013414D01*
X001680Y013573D02*
X000660Y013573D01*
X000660Y013731D02*
X001714Y013731D01*
X001812Y013890D02*
X000660Y013890D01*
X000660Y014048D02*
X002076Y014048D01*
X002284Y014048D02*
X003166Y014048D01*
X003215Y014207D02*
X000660Y014207D01*
X000660Y014365D02*
X003215Y014365D01*
X003215Y014524D02*
X000660Y014524D01*
X000660Y014682D02*
X003215Y014682D01*
X003311Y014841D02*
X000660Y014841D01*
X000660Y014999D02*
X004272Y014999D01*
X004136Y015158D02*
X000660Y015158D01*
X000660Y015316D02*
X004001Y015316D01*
X003865Y015475D02*
X000660Y015475D01*
X000660Y015633D02*
X003730Y015633D01*
X003317Y015792D02*
X000660Y015792D01*
X000660Y015950D02*
X003163Y015950D01*
X003155Y016109D02*
X000660Y016109D01*
X000660Y016267D02*
X003155Y016267D01*
X003155Y016426D02*
X000660Y016426D01*
X000660Y016584D02*
X003181Y016584D01*
X003215Y016743D02*
X000660Y016743D01*
X000660Y016901D02*
X003215Y016901D01*
X003215Y017060D02*
X000660Y017060D01*
X000660Y017218D02*
X003218Y017218D01*
X003647Y017218D02*
X003713Y017218D01*
X003713Y017361D02*
X003713Y016988D01*
X004145Y016988D01*
X004145Y017204D01*
X004133Y017250D01*
X004109Y017291D01*
X004076Y017325D01*
X004035Y017348D01*
X003989Y017361D01*
X003713Y017361D01*
X003713Y017060D02*
X003647Y017060D01*
X004145Y017060D02*
X006130Y017060D01*
X006289Y017218D02*
X004142Y017218D01*
X004145Y016901D02*
X004972Y016901D01*
X004813Y016743D02*
X004145Y016743D01*
X004179Y016584D02*
X004655Y016584D01*
X004572Y016426D02*
X004205Y016426D01*
X004205Y016267D02*
X004570Y016267D01*
X004570Y016109D02*
X004271Y016109D01*
X004406Y015950D02*
X004570Y015950D01*
X004570Y015792D02*
X004541Y015792D01*
X004430Y014841D02*
X004049Y014841D01*
X004035Y014848D02*
X003989Y014861D01*
X003713Y014861D01*
X003713Y014488D01*
X004145Y014488D01*
X004145Y014704D01*
X004133Y014750D01*
X004109Y014791D01*
X004076Y014825D01*
X004035Y014848D01*
X004145Y014682D02*
X004589Y014682D01*
X004777Y014524D02*
X004145Y014524D01*
X004145Y014365D02*
X005196Y014365D01*
X005196Y014207D02*
X004145Y014207D01*
X004194Y014048D02*
X005274Y014048D01*
X005256Y013890D02*
X004205Y013890D01*
X004205Y013731D02*
X005256Y013731D01*
X005256Y013850D02*
X005869Y013850D01*
X006482Y013850D01*
X005869Y013850D01*
X005869Y013850D01*
X005869Y013850D01*
X005256Y013850D01*
X005219Y013573D02*
X004205Y013573D01*
X004182Y013414D02*
X005196Y013414D01*
X005196Y013256D02*
X004184Y013256D01*
X003164Y013097D02*
X002393Y013097D01*
X003647Y014524D02*
X003713Y014524D01*
X003713Y014682D02*
X003647Y014682D01*
X003647Y014841D02*
X003713Y014841D01*
X006464Y014048D02*
X007203Y014048D01*
X007250Y013890D02*
X006482Y013890D01*
X006482Y013731D02*
X007374Y013731D01*
X007698Y013573D02*
X006519Y013573D01*
X006542Y013414D02*
X007857Y013414D01*
X008015Y013256D02*
X006542Y013256D01*
X006542Y014207D02*
X007064Y014207D01*
X006906Y014365D02*
X006542Y014365D01*
X007290Y014999D02*
X008818Y014999D01*
X008818Y014841D02*
X007449Y014841D01*
X007607Y014682D02*
X007791Y014682D01*
X007128Y015158D02*
X008829Y015158D01*
X008818Y015316D02*
X006542Y015316D01*
X006542Y015475D02*
X008818Y015475D01*
X008839Y015633D02*
X007222Y015633D01*
X007381Y015792D02*
X008818Y015792D01*
X008818Y015950D02*
X007508Y015950D01*
X007540Y016109D02*
X008859Y016109D01*
X009528Y016743D02*
X007832Y016743D01*
X007990Y016901D02*
X009370Y016901D01*
X009211Y017060D02*
X008149Y017060D01*
X008307Y017218D02*
X009053Y017218D01*
X008894Y017377D02*
X008466Y017377D01*
X008384Y017295D02*
X008384Y017295D01*
X008540Y017535D02*
X008820Y017535D01*
X008820Y017694D02*
X008540Y017694D01*
X008540Y017852D02*
X008820Y017852D01*
X008715Y018011D02*
X008645Y018011D01*
X009540Y017852D02*
X009864Y017852D01*
X009715Y018011D02*
X009645Y018011D01*
X009596Y017694D02*
X012513Y017694D01*
X012544Y017535D02*
X009754Y017535D01*
X009913Y017377D02*
X016280Y017377D01*
X016280Y017535D02*
X015740Y017535D01*
X015751Y017547D02*
X015775Y017588D01*
X015787Y017633D01*
X015787Y018020D01*
X015225Y018020D01*
X015225Y018180D01*
X015787Y018180D01*
X015787Y018567D01*
X015775Y018612D01*
X015751Y018653D01*
X015718Y018687D01*
X015677Y018711D01*
X015631Y018723D01*
X015225Y018723D01*
X015225Y018180D01*
X015065Y018180D01*
X015065Y018723D01*
X014658Y018723D01*
X014612Y018711D01*
X014571Y018687D01*
X014538Y018653D01*
X014514Y018612D01*
X014502Y018567D01*
X014502Y018180D01*
X015065Y018180D01*
X015065Y018020D01*
X015225Y018020D01*
X015225Y017477D01*
X015631Y017477D01*
X015677Y017489D01*
X015718Y017513D01*
X015751Y017547D01*
X015787Y017694D02*
X016280Y017694D01*
X016280Y017852D02*
X015787Y017852D01*
X015787Y018011D02*
X016280Y018011D01*
X016280Y018169D02*
X015225Y018169D01*
X015225Y018011D02*
X015065Y018011D01*
X015065Y018020D02*
X015065Y017477D01*
X014658Y017477D01*
X014612Y017489D01*
X014571Y017513D01*
X014538Y017547D01*
X014514Y017588D01*
X014502Y017633D01*
X014502Y018020D01*
X015065Y018020D01*
X015065Y018169D02*
X013918Y018169D01*
X013918Y018011D02*
X014502Y018011D01*
X014502Y017852D02*
X013918Y017852D01*
X013918Y017694D02*
X014502Y017694D01*
X014549Y017535D02*
X013887Y017535D01*
X013918Y018328D02*
X014502Y018328D01*
X014502Y018486D02*
X013918Y018486D01*
X013896Y018645D02*
X014533Y018645D01*
X015065Y018645D02*
X015225Y018645D01*
X015225Y018486D02*
X015065Y018486D01*
X015065Y018328D02*
X015225Y018328D01*
X015225Y017852D02*
X015065Y017852D01*
X015065Y017694D02*
X015225Y017694D01*
X015225Y017535D02*
X015065Y017535D01*
X015480Y017060D02*
X016203Y017060D01*
X016212Y017218D02*
X010071Y017218D01*
X009687Y016584D02*
X007673Y016584D01*
X006606Y017535D02*
X001660Y017535D01*
X002004Y017694D02*
X006764Y017694D01*
X006820Y017852D02*
X006355Y017852D01*
X006200Y017852D02*
X006160Y017852D01*
X006160Y017820D02*
X006160Y018580D01*
X005700Y018580D01*
X005700Y018262D01*
X005712Y018188D01*
X005735Y018116D01*
X005769Y018048D01*
X005814Y017987D01*
X005867Y017934D01*
X005928Y017889D01*
X005996Y017855D01*
X006068Y017832D01*
X006142Y017820D01*
X006160Y017820D01*
X006005Y017852D02*
X005355Y017852D01*
X005364Y017855D02*
X005432Y017889D01*
X005493Y017934D01*
X005546Y017987D01*
X005591Y018048D01*
X005625Y018116D01*
X005648Y018188D01*
X005660Y018262D01*
X005660Y018580D01*
X005200Y018580D01*
X005200Y017820D01*
X005218Y017820D01*
X005292Y017832D01*
X005364Y017855D01*
X005200Y017852D02*
X005160Y017852D01*
X005160Y017820D02*
X005160Y018580D01*
X004700Y018580D01*
X004700Y018262D01*
X004712Y018188D01*
X004735Y018116D01*
X004769Y018048D01*
X004814Y017987D01*
X004867Y017934D01*
X004928Y017889D01*
X004996Y017855D01*
X005068Y017832D01*
X005142Y017820D01*
X005160Y017820D01*
X005005Y017852D02*
X002179Y017852D01*
X002300Y018011D02*
X004797Y018011D01*
X004718Y018169D02*
X002392Y018169D01*
X002436Y018328D02*
X004700Y018328D01*
X004700Y018486D02*
X002471Y018486D01*
X002471Y018645D02*
X004700Y018645D01*
X004700Y018803D02*
X002457Y018803D01*
X002414Y018962D02*
X004704Y018962D01*
X004753Y019120D02*
X002345Y019120D01*
X002253Y019279D02*
X004884Y019279D01*
X005476Y019279D02*
X005884Y019279D01*
X005753Y019120D02*
X005607Y019120D01*
X005656Y018962D02*
X005704Y018962D01*
X005700Y018803D02*
X005660Y018803D01*
X005660Y018645D02*
X005700Y018645D01*
X005700Y018486D02*
X005660Y018486D01*
X005660Y018328D02*
X005700Y018328D01*
X005718Y018169D02*
X005642Y018169D01*
X005563Y018011D02*
X005797Y018011D01*
X006160Y018011D02*
X006200Y018011D01*
X006200Y018169D02*
X006160Y018169D01*
X006160Y018328D02*
X006200Y018328D01*
X006200Y018486D02*
X006160Y018486D01*
X006642Y018169D02*
X006650Y018169D01*
X006715Y018011D02*
X006563Y018011D01*
X006447Y017377D02*
X000660Y017377D01*
X000660Y017535D02*
X001062Y017535D01*
X000718Y017694D02*
X000660Y017694D01*
X005160Y018011D02*
X005200Y018011D01*
X005200Y018169D02*
X005160Y018169D01*
X005160Y018328D02*
X005200Y018328D01*
X005200Y018486D02*
X005160Y018486D01*
X010565Y019279D02*
X017792Y019279D01*
X017700Y019120D02*
X010673Y019120D01*
X010720Y018962D02*
X016366Y018962D01*
X016247Y018803D02*
X010720Y018803D01*
X010720Y018645D02*
X012535Y018645D01*
X014785Y015792D02*
X015479Y015792D01*
X015638Y015633D02*
X014785Y015633D01*
X014768Y015475D02*
X015796Y015475D01*
X016268Y015316D02*
X016357Y015279D01*
X017003Y015279D01*
X017790Y015158D02*
X019385Y015158D01*
X019385Y015316D02*
X018602Y015316D01*
X018705Y015475D02*
X019385Y015475D01*
X019385Y015633D02*
X018705Y015633D01*
X018705Y015792D02*
X019385Y015792D01*
X019385Y015950D02*
X018705Y015950D01*
X018668Y016109D02*
X019385Y016109D01*
X019385Y016267D02*
X018645Y016267D01*
X018645Y016488D02*
X018645Y016704D01*
X018633Y016750D01*
X018609Y016791D01*
X018576Y016825D01*
X018535Y016848D01*
X018489Y016861D01*
X018213Y016861D01*
X018213Y016488D01*
X018645Y016488D01*
X018645Y016584D02*
X019385Y016584D01*
X019385Y016426D02*
X018213Y016426D01*
X018147Y016426D02*
X017196Y016426D01*
X017196Y016584D02*
X017715Y016584D01*
X017725Y016743D02*
X017190Y016743D01*
X017114Y016901D02*
X019385Y016901D01*
X019385Y016743D02*
X018635Y016743D01*
X018213Y016743D02*
X018147Y016743D01*
X018147Y016584D02*
X018213Y016584D01*
X017715Y016267D02*
X017196Y016267D01*
X017136Y016109D02*
X017692Y016109D01*
X017157Y017060D02*
X019385Y017060D01*
X019385Y017218D02*
X017148Y017218D01*
X017080Y017377D02*
X019385Y017377D01*
X019385Y017535D02*
X018983Y017535D01*
X019327Y017694D02*
X019385Y017694D01*
X018385Y017535D02*
X017080Y017535D01*
X017080Y017694D02*
X018041Y017694D01*
X017866Y017852D02*
X017080Y017852D01*
X017080Y018011D02*
X017745Y018011D01*
X017653Y018169D02*
X017080Y018169D01*
X017083Y018328D02*
X017609Y018328D01*
X017574Y018486D02*
X017150Y018486D01*
X017157Y018645D02*
X017574Y018645D01*
X017588Y018803D02*
X017113Y018803D01*
X016994Y018962D02*
X017631Y018962D01*
X016203Y018645D02*
X015756Y018645D01*
X015787Y018486D02*
X016210Y018486D01*
X016277Y018328D02*
X015787Y018328D01*
X015638Y016901D02*
X016246Y016901D01*
X016170Y016743D02*
X015797Y016743D01*
X015955Y016584D02*
X016164Y016584D01*
X016164Y016426D02*
X016038Y016426D01*
X016040Y016267D02*
X016164Y016267D01*
X016181Y016109D02*
X016224Y016109D01*
X017790Y014999D02*
X019385Y014999D01*
X019385Y014841D02*
X017790Y014841D01*
X017836Y014682D02*
X019385Y014682D01*
X019385Y014524D02*
X017867Y014524D01*
X017867Y014365D02*
X019385Y014365D01*
X019385Y014207D02*
X017867Y014207D01*
X017867Y014048D02*
X019385Y014048D01*
X019385Y013890D02*
X017838Y013890D01*
X018177Y013731D02*
X019385Y013731D01*
X019385Y013573D02*
X018181Y013573D01*
X018181Y013256D02*
X019385Y013256D01*
X019385Y013414D02*
X017822Y013414D01*
X017822Y013256D02*
X017786Y013256D01*
X017786Y013097D02*
X017822Y013097D01*
X017725Y012939D02*
X019385Y012939D01*
X019385Y013097D02*
X018175Y013097D01*
X017883Y012780D02*
X019385Y012780D01*
X019385Y012622D02*
X018042Y012622D01*
X018200Y012463D02*
X019385Y012463D01*
X019385Y012305D02*
X018664Y012305D01*
X018696Y012146D02*
X019385Y012146D01*
X019385Y011988D02*
X018696Y011988D01*
X018696Y011829D02*
X019385Y011829D01*
X019385Y011671D02*
X018675Y011671D01*
X018683Y011512D02*
X019385Y011512D01*
X019385Y011354D02*
X018696Y011354D01*
X018696Y011195D02*
X019385Y011195D01*
X019385Y011037D02*
X018696Y011037D01*
X018654Y010878D02*
X019385Y010878D01*
X019385Y010720D02*
X018540Y010720D01*
X018540Y010561D02*
X019385Y010561D01*
X019385Y010403D02*
X018604Y010403D01*
X018670Y010244D02*
X019385Y010244D01*
X019385Y010086D02*
X018680Y010086D01*
X018680Y009927D02*
X019385Y009927D01*
X019385Y009769D02*
X018680Y009769D01*
X018680Y009610D02*
X019385Y009610D01*
X019385Y009452D02*
X018660Y009452D01*
X018580Y009293D02*
X019385Y009293D01*
X019385Y009135D02*
X018363Y009135D01*
X017997Y009135D02*
X017363Y009135D01*
X017580Y009293D02*
X017780Y009293D01*
X017700Y009452D02*
X017660Y009452D01*
X017680Y009610D02*
X017680Y009610D01*
X017680Y009769D02*
X017680Y009769D01*
X017680Y009927D02*
X017680Y009927D01*
X017680Y010086D02*
X017680Y010086D01*
X017670Y010244D02*
X017690Y010244D01*
X017756Y010403D02*
X017604Y010403D01*
X017422Y010561D02*
X017820Y010561D01*
X017820Y010720D02*
X015746Y010720D01*
X015746Y010878D02*
X016206Y010878D01*
X015714Y010561D02*
X016938Y010561D01*
X016756Y010403D02*
X013091Y010403D01*
X013169Y010244D02*
X016690Y010244D01*
X016680Y010086D02*
X013190Y010086D01*
X013160Y009927D02*
X016680Y009927D01*
X016680Y009769D02*
X013070Y009769D01*
X014600Y010561D02*
X014760Y010561D01*
X014760Y010720D02*
X014600Y010720D01*
X014600Y010878D02*
X014760Y010878D01*
X014760Y011354D02*
X014600Y011354D01*
X015595Y011671D02*
X016252Y011671D01*
X016224Y011829D02*
X015775Y011829D01*
X015806Y011988D02*
X016657Y011988D01*
X016657Y011997D02*
X016224Y011997D01*
X016224Y012204D01*
X016237Y012250D01*
X016260Y012291D01*
X016294Y012325D01*
X016335Y012348D01*
X016381Y012361D01*
X016657Y012361D01*
X016657Y011997D01*
X016703Y011988D02*
X017657Y011988D01*
X017664Y011829D02*
X017136Y011829D01*
X017108Y011671D02*
X017685Y011671D01*
X017499Y012146D02*
X017136Y012146D01*
X017086Y012305D02*
X017340Y012305D01*
X017182Y012463D02*
X015806Y012463D01*
X015806Y012305D02*
X016274Y012305D01*
X016224Y012146D02*
X015806Y012146D01*
X015787Y012622D02*
X017023Y012622D01*
X016865Y012780D02*
X015665Y012780D01*
X016657Y012305D02*
X016703Y012305D01*
X016703Y012146D02*
X016657Y012146D01*
X012168Y013097D02*
X012164Y013097D01*
X010766Y011195D02*
X010594Y011195D01*
X011155Y009769D02*
X011205Y009769D01*
X011373Y009610D02*
X010987Y009610D01*
X010373Y009610D02*
X000660Y009610D01*
D33*
X002680Y009600D03*
X007180Y012600D03*
X007680Y014100D03*
X008430Y015600D03*
X010680Y013600D03*
X012680Y014600D03*
X015680Y013600D03*
X018680Y014100D03*
X016680Y017100D03*
X016680Y018600D03*
X011680Y017450D03*
X004930Y013850D03*
X002680Y017100D03*
X019180Y009100D03*
D34*
X018180Y009600D02*
X018180Y011226D01*
X016680Y011226D01*
X018180Y011974D02*
X017056Y013098D01*
X017056Y013417D01*
X017430Y014283D02*
X017430Y015746D01*
X018180Y015746D01*
X017430Y015746D02*
X016700Y015746D01*
X016680Y015726D01*
X016054Y015726D01*
X015680Y016100D01*
X015680Y016350D01*
X015180Y016850D01*
X009930Y016850D01*
X009180Y017600D01*
X009180Y018600D01*
X008180Y018600D02*
X008180Y017600D01*
X007180Y016600D01*
X007180Y016100D01*
X006930Y015850D01*
X005869Y015850D01*
X005869Y015350D02*
X005180Y015350D01*
X004930Y015600D01*
X004930Y016350D01*
X005180Y016600D01*
X006180Y016600D01*
X007180Y017600D01*
X007180Y018600D01*
X003680Y016246D02*
X004534Y015246D01*
X004930Y014850D01*
X005869Y014850D01*
X006930Y014850D01*
X007680Y014100D01*
X008430Y013350D01*
X009491Y013350D01*
X009491Y012850D02*
X011521Y012850D01*
X011680Y012691D01*
X012271Y012691D01*
X013881Y014301D01*
X014180Y014301D01*
X013979Y014301D01*
X012326Y015954D01*
X011680Y015954D01*
X011680Y015246D02*
X011326Y015246D01*
X010930Y014850D01*
X009491Y014850D01*
X009491Y014350D02*
X011576Y014350D01*
X011680Y014454D01*
X009491Y014350D02*
X007930Y014350D01*
X007680Y014100D01*
X005869Y012850D02*
X003804Y012850D01*
X003680Y012974D01*
X003680Y013746D01*
X003484Y013550D01*
X002180Y013550D01*
X003680Y012226D02*
X003680Y011454D01*
X003484Y011650D01*
X002180Y011650D01*
X003680Y012226D02*
X003804Y012350D01*
X005869Y012350D01*
X007180Y010954D02*
X008660Y010954D01*
X008680Y010974D01*
X010306Y010974D01*
X010680Y010600D01*
X010680Y010100D01*
X010680Y010600D02*
X011589Y011509D01*
X011680Y011509D01*
X011771Y011600D01*
X012680Y011600D01*
X013320Y012240D01*
X014680Y012240D01*
M02*
