G75*
G70*
%OFA0B0*%
%FSLAX24Y24*%
%IPPOS*%
%LPD*%
%AMOC8*
5,1,8,0,0,1.08239X$1,22.5*
%
%ADD10C,0.0000*%
%ADD11C,0.1340*%
%ADD12C,0.0600*%
%ADD13OC8,0.0680*%
%ADD14C,0.1080*%
%ADD15OC8,0.0600*%
%ADD16C,0.0600*%
%ADD17R,0.0940X0.0940*%
%ADD18C,0.0940*%
%ADD19C,0.0740*%
%ADD20C,0.0680*%
%ADD21C,0.0671*%
D10*
X000180Y000887D02*
X000180Y018998D01*
X000182Y019052D01*
X000187Y019105D01*
X000196Y019158D01*
X000209Y019210D01*
X000225Y019262D01*
X000245Y019312D01*
X000268Y019360D01*
X000295Y019407D01*
X000324Y019452D01*
X000357Y019495D01*
X000392Y019535D01*
X000430Y019573D01*
X000470Y019608D01*
X000513Y019641D01*
X000558Y019670D01*
X000605Y019697D01*
X000653Y019720D01*
X000703Y019740D01*
X000755Y019756D01*
X000807Y019769D01*
X000860Y019778D01*
X000913Y019783D01*
X000967Y019785D01*
X019078Y019785D01*
X019132Y019783D01*
X019185Y019778D01*
X019238Y019769D01*
X019290Y019756D01*
X019342Y019740D01*
X019392Y019720D01*
X019440Y019697D01*
X019487Y019670D01*
X019532Y019641D01*
X019575Y019608D01*
X019615Y019573D01*
X019653Y019535D01*
X019688Y019495D01*
X019721Y019452D01*
X019750Y019407D01*
X019777Y019360D01*
X019800Y019312D01*
X019820Y019262D01*
X019836Y019210D01*
X019849Y019158D01*
X019858Y019105D01*
X019863Y019052D01*
X019865Y018998D01*
X019865Y000887D01*
X019863Y000833D01*
X019858Y000780D01*
X019849Y000727D01*
X019836Y000675D01*
X019820Y000623D01*
X019800Y000573D01*
X019777Y000525D01*
X019750Y000478D01*
X019721Y000433D01*
X019688Y000390D01*
X019653Y000350D01*
X019615Y000312D01*
X019575Y000277D01*
X019532Y000244D01*
X019487Y000215D01*
X019440Y000188D01*
X019392Y000165D01*
X019342Y000145D01*
X019290Y000129D01*
X019238Y000116D01*
X019185Y000107D01*
X019132Y000102D01*
X019078Y000100D01*
X000967Y000100D01*
X000913Y000102D01*
X000860Y000107D01*
X000807Y000116D01*
X000755Y000129D01*
X000703Y000145D01*
X000653Y000165D01*
X000605Y000188D01*
X000558Y000215D01*
X000513Y000244D01*
X000470Y000277D01*
X000430Y000312D01*
X000392Y000350D01*
X000357Y000390D01*
X000324Y000433D01*
X000295Y000478D01*
X000268Y000525D01*
X000245Y000573D01*
X000225Y000623D01*
X000209Y000675D01*
X000196Y000727D01*
X000187Y000780D01*
X000182Y000833D01*
X000180Y000887D01*
D11*
X001361Y001281D03*
X018684Y001281D03*
X018684Y018604D03*
X001361Y018604D03*
D12*
X002180Y013550D03*
X002180Y011650D03*
D13*
X004680Y004600D03*
X008680Y004600D03*
D14*
X010280Y002100D02*
X010280Y001100D01*
X012280Y001100D02*
X012280Y002100D01*
X006080Y002100D02*
X006080Y001100D01*
X004080Y001100D02*
X004080Y002100D01*
D15*
X013180Y001600D03*
X013180Y003100D03*
X017180Y001600D03*
X018180Y003100D03*
D16*
X018180Y006080D02*
X018180Y006600D01*
X017180Y006600D02*
X017180Y006080D01*
X017180Y009600D02*
X017180Y010120D01*
X018180Y010120D02*
X018180Y009600D01*
D17*
X001680Y006100D03*
D18*
X001680Y004100D03*
D19*
X005180Y007100D03*
X008180Y007100D03*
X010680Y006100D03*
X012680Y006100D03*
X012680Y010100D03*
X011680Y010100D03*
X010680Y010100D03*
D20*
X010180Y018300D02*
X010180Y018900D01*
X009180Y018900D02*
X009180Y018300D01*
X008180Y018300D02*
X008180Y018900D01*
X007180Y018900D02*
X007180Y018300D01*
X006180Y018300D02*
X006180Y018900D01*
X005180Y018900D02*
X005180Y018300D01*
D21*
X014680Y012350D03*
X014680Y010850D03*
X015180Y006350D03*
X015180Y004850D03*
M02*
