%
M48
M72
T01C0.0315
T02C0.0320
T03C0.0354
T04C0.0394
T05C0.0400
T06C0.0433
T07C0.0520
T08C0.1260
%
T01
X2680Y17100
X4930Y13850
X7180Y12600
X7680Y14100
X8430Y15600
X10680Y13600
X12680Y14600
X15680Y13600
X18680Y14100
X16680Y17100
X16680Y18600
X11680Y17450
X2680Y9600
X19180Y9100
T02
X2180Y11650
X2180Y13550
X17180Y9600
X18180Y9600
X18180Y6600
X17180Y6600
X18180Y3100
X17180Y1600
X13180Y1600
X13180Y3100
T03
X10680Y10100
X11680Y10100
X12680Y10100
X12680Y6100
X10680Y6100
X8180Y7100
X5180Y7100
T04
X14680Y12350
X14680Y10850
X15180Y6350
X15180Y4850
T05
X5180Y18600
X6180Y18600
X7180Y18600
X8180Y18600
X9180Y18600
X10180Y18600
X8680Y4600
X4680Y4600
T06
X1680Y4100
X1680Y6100
T07
X4080Y1600
X6080Y1600
X10280Y1600
X12280Y1600
T08
X1361Y18604
X18684Y18604
X18684Y1281
X1361Y1281
M30
