G75*
G70*
%OFA0B0*%
%FSLAX24Y24*%
%IPPOS*%
%LPD*%
%AMOC8*
5,1,8,0,0,1.08239X$1,22.5*
%
%ADD10C,0.0000*%
%ADD11C,0.0090*%
%ADD12C,0.0050*%
%ADD13R,0.0984X0.0472*%
D10*
X004680Y002050D02*
X004680Y011499D01*
X023971Y011499D01*
X023971Y002050D01*
X004680Y002050D01*
X021589Y004550D02*
X021591Y004598D01*
X021597Y004646D01*
X021607Y004693D01*
X021620Y004739D01*
X021638Y004784D01*
X021658Y004828D01*
X021683Y004870D01*
X021711Y004909D01*
X021741Y004946D01*
X021775Y004980D01*
X021812Y005012D01*
X021850Y005041D01*
X021891Y005066D01*
X021934Y005088D01*
X021979Y005106D01*
X022025Y005120D01*
X022072Y005131D01*
X022120Y005138D01*
X022168Y005141D01*
X022216Y005140D01*
X022264Y005135D01*
X022312Y005126D01*
X022358Y005114D01*
X022403Y005097D01*
X022447Y005077D01*
X022489Y005054D01*
X022529Y005027D01*
X022567Y004997D01*
X022602Y004964D01*
X022634Y004928D01*
X022664Y004890D01*
X022690Y004849D01*
X022712Y004806D01*
X022732Y004762D01*
X022747Y004717D01*
X022759Y004670D01*
X022767Y004622D01*
X022771Y004574D01*
X022771Y004526D01*
X022767Y004478D01*
X022759Y004430D01*
X022747Y004383D01*
X022732Y004338D01*
X022712Y004294D01*
X022690Y004251D01*
X022664Y004210D01*
X022634Y004172D01*
X022602Y004136D01*
X022567Y004103D01*
X022529Y004073D01*
X022489Y004046D01*
X022447Y004023D01*
X022403Y004003D01*
X022358Y003986D01*
X022312Y003974D01*
X022264Y003965D01*
X022216Y003960D01*
X022168Y003959D01*
X022120Y003962D01*
X022072Y003969D01*
X022025Y003980D01*
X021979Y003994D01*
X021934Y004012D01*
X021891Y004034D01*
X021850Y004059D01*
X021812Y004088D01*
X021775Y004120D01*
X021741Y004154D01*
X021711Y004191D01*
X021683Y004230D01*
X021658Y004272D01*
X021638Y004316D01*
X021620Y004361D01*
X021607Y004407D01*
X021597Y004454D01*
X021591Y004502D01*
X021589Y004550D01*
X021589Y009050D02*
X021591Y009098D01*
X021597Y009146D01*
X021607Y009193D01*
X021620Y009239D01*
X021638Y009284D01*
X021658Y009328D01*
X021683Y009370D01*
X021711Y009409D01*
X021741Y009446D01*
X021775Y009480D01*
X021812Y009512D01*
X021850Y009541D01*
X021891Y009566D01*
X021934Y009588D01*
X021979Y009606D01*
X022025Y009620D01*
X022072Y009631D01*
X022120Y009638D01*
X022168Y009641D01*
X022216Y009640D01*
X022264Y009635D01*
X022312Y009626D01*
X022358Y009614D01*
X022403Y009597D01*
X022447Y009577D01*
X022489Y009554D01*
X022529Y009527D01*
X022567Y009497D01*
X022602Y009464D01*
X022634Y009428D01*
X022664Y009390D01*
X022690Y009349D01*
X022712Y009306D01*
X022732Y009262D01*
X022747Y009217D01*
X022759Y009170D01*
X022767Y009122D01*
X022771Y009074D01*
X022771Y009026D01*
X022767Y008978D01*
X022759Y008930D01*
X022747Y008883D01*
X022732Y008838D01*
X022712Y008794D01*
X022690Y008751D01*
X022664Y008710D01*
X022634Y008672D01*
X022602Y008636D01*
X022567Y008603D01*
X022529Y008573D01*
X022489Y008546D01*
X022447Y008523D01*
X022403Y008503D01*
X022358Y008486D01*
X022312Y008474D01*
X022264Y008465D01*
X022216Y008460D01*
X022168Y008459D01*
X022120Y008462D01*
X022072Y008469D01*
X022025Y008480D01*
X021979Y008494D01*
X021934Y008512D01*
X021891Y008534D01*
X021850Y008559D01*
X021812Y008588D01*
X021775Y008620D01*
X021741Y008654D01*
X021711Y008691D01*
X021683Y008730D01*
X021658Y008772D01*
X021638Y008816D01*
X021620Y008861D01*
X021607Y008907D01*
X021597Y008954D01*
X021591Y009002D01*
X021589Y009050D01*
X022089Y010550D02*
X022091Y010598D01*
X022097Y010646D01*
X022107Y010693D01*
X022120Y010739D01*
X022138Y010784D01*
X022158Y010828D01*
X022183Y010870D01*
X022211Y010909D01*
X022241Y010946D01*
X022275Y010980D01*
X022312Y011012D01*
X022350Y011041D01*
X022391Y011066D01*
X022434Y011088D01*
X022479Y011106D01*
X022525Y011120D01*
X022572Y011131D01*
X022620Y011138D01*
X022668Y011141D01*
X022716Y011140D01*
X022764Y011135D01*
X022812Y011126D01*
X022858Y011114D01*
X022903Y011097D01*
X022947Y011077D01*
X022989Y011054D01*
X023029Y011027D01*
X023067Y010997D01*
X023102Y010964D01*
X023134Y010928D01*
X023164Y010890D01*
X023190Y010849D01*
X023212Y010806D01*
X023232Y010762D01*
X023247Y010717D01*
X023259Y010670D01*
X023267Y010622D01*
X023271Y010574D01*
X023271Y010526D01*
X023267Y010478D01*
X023259Y010430D01*
X023247Y010383D01*
X023232Y010338D01*
X023212Y010294D01*
X023190Y010251D01*
X023164Y010210D01*
X023134Y010172D01*
X023102Y010136D01*
X023067Y010103D01*
X023029Y010073D01*
X022989Y010046D01*
X022947Y010023D01*
X022903Y010003D01*
X022858Y009986D01*
X022812Y009974D01*
X022764Y009965D01*
X022716Y009960D01*
X022668Y009959D01*
X022620Y009962D01*
X022572Y009969D01*
X022525Y009980D01*
X022479Y009994D01*
X022434Y010012D01*
X022391Y010034D01*
X022350Y010059D01*
X022312Y010088D01*
X022275Y010120D01*
X022241Y010154D01*
X022211Y010191D01*
X022183Y010230D01*
X022158Y010272D01*
X022138Y010316D01*
X022120Y010361D01*
X022107Y010407D01*
X022097Y010454D01*
X022091Y010502D01*
X022089Y010550D01*
D11*
X013635Y007173D02*
X013557Y007095D01*
X013478Y007095D01*
X013400Y007173D01*
X013400Y007565D01*
X013478Y007565D02*
X013321Y007565D01*
X013119Y007487D02*
X013119Y007409D01*
X013041Y007330D01*
X012884Y007330D01*
X012806Y007252D01*
X012806Y007173D01*
X012884Y007095D01*
X013041Y007095D01*
X013119Y007173D01*
X013119Y007487D02*
X013041Y007565D01*
X012884Y007565D01*
X012806Y007487D01*
X012604Y007565D02*
X012604Y007095D01*
X012290Y007095D01*
X012088Y007095D02*
X012088Y007565D01*
X011853Y007565D01*
X011774Y007487D01*
X011774Y007330D01*
X011853Y007252D01*
X012088Y007252D01*
X011931Y007252D02*
X011774Y007095D01*
X011572Y007095D02*
X011416Y007095D01*
X011494Y007095D02*
X011494Y007565D01*
X011572Y007565D02*
X011416Y007565D01*
X011229Y007409D02*
X011072Y007565D01*
X010915Y007409D01*
X010915Y007095D01*
X010713Y007095D02*
X010399Y007095D01*
X010713Y007095D02*
X010713Y007565D01*
X010915Y007330D02*
X011229Y007330D01*
X011229Y007409D02*
X011229Y007095D01*
X012290Y007565D02*
X012604Y007565D01*
X012604Y007330D02*
X012447Y007330D01*
X009682Y007409D02*
X009525Y007095D01*
X009368Y007409D01*
X009166Y007409D02*
X009009Y007565D01*
X009009Y007095D01*
X008853Y007095D02*
X009166Y007095D01*
X008650Y007095D02*
X008572Y007095D01*
X008572Y007173D01*
X008650Y007173D01*
X008650Y007095D01*
X008393Y007095D02*
X008079Y007409D01*
X008079Y007487D01*
X008157Y007565D01*
X008314Y007565D01*
X008393Y007487D01*
X008393Y007095D02*
X008079Y007095D01*
D12*
X004020Y008228D02*
X003945Y008153D01*
X003870Y008153D01*
X003795Y008228D01*
X003795Y008453D01*
X003645Y008453D02*
X003945Y008453D01*
X004020Y008378D01*
X004020Y008228D01*
X003645Y008153D02*
X003570Y008228D01*
X003570Y008378D01*
X003645Y008453D01*
X003645Y005257D02*
X003720Y005257D01*
X003795Y005182D01*
X003795Y004956D01*
X003645Y004956D01*
X003570Y005031D01*
X003570Y005182D01*
X003645Y005257D01*
X003945Y005107D02*
X003795Y004956D01*
X003945Y005107D02*
X004020Y005257D01*
D13*
X005271Y005180D03*
X005271Y006260D03*
X005271Y007340D03*
X005271Y008420D03*
M02*
