G75*
G70*
%OFA0B0*%
%FSLAX24Y24*%
%IPPOS*%
%LPD*%
%AMOC8*
5,1,8,0,0,1.08239X$1,22.5*
%
%ADD10C,0.0000*%
%ADD11C,0.1221*%
%ADD12R,0.1418X0.0709*%
%ADD13C,0.0827*%
%ADD14C,0.0808*%
%ADD15C,0.0640*%
%ADD16C,0.0926*%
%ADD17C,0.0906*%
%ADD18R,0.0512X0.0512*%
%ADD19C,0.0780*%
D10*
X004180Y004050D02*
X013680Y004050D01*
X013680Y023550D01*
X004180Y023550D01*
X004180Y004050D01*
D11*
X008930Y006050D03*
D12*
X005560Y005720D03*
X005560Y006800D03*
X005560Y007880D03*
X005560Y008960D03*
X005560Y004640D03*
X012300Y004640D03*
X012300Y005720D03*
X012300Y006800D03*
X012300Y007880D03*
X012300Y008960D03*
D13*
X006574Y019060D02*
X005786Y019060D01*
X004999Y020556D02*
X004999Y021344D01*
X007400Y021344D02*
X007400Y020556D01*
D14*
X006542Y017412D03*
X005755Y015050D03*
X006542Y012688D03*
X011345Y012688D03*
X011345Y017412D03*
D15*
X012680Y011350D03*
X011930Y010850D03*
X012680Y010350D03*
D16*
X009180Y020200D03*
X009180Y021700D03*
D17*
X010680Y021700D03*
X010680Y020200D03*
X012680Y020200D03*
X012680Y021700D03*
D18*
X012093Y023050D03*
X011267Y023050D03*
X006593Y023050D03*
X005767Y023050D03*
D19*
X006900Y010940D03*
X006900Y009160D03*
X009460Y009160D03*
X009460Y010940D03*
M02*
