G75*
G70*
%OFA0B0*%
%FSLAX24Y24*%
%IPPOS*%
%LPD*%
%AMOC8*
5,1,8,0,0,1.08239X$1,22.5*
%
%ADD10C,0.0000*%
%ADD11R,0.1378X0.0669*%
%ADD12C,0.0787*%
%ADD13C,0.0768*%
%ADD14C,0.0600*%
%ADD15C,0.0886*%
%ADD16R,0.0472X0.0472*%
%ADD17C,0.0740*%
%ADD18C,0.0100*%
%ADD19C,0.0317*%
%ADD20C,0.0160*%
%ADD21C,0.0320*%
D10*
X004180Y004050D02*
X013680Y004050D01*
X013680Y023550D01*
X004180Y023550D01*
X004180Y004050D01*
D11*
X005560Y004640D03*
X005560Y005720D03*
X005560Y006800D03*
X005560Y007880D03*
X005560Y008960D03*
X012300Y008960D03*
X012300Y007880D03*
X012300Y006800D03*
X012300Y005720D03*
X012300Y004640D03*
D12*
X006574Y019060D02*
X005786Y019060D01*
X004999Y020556D02*
X004999Y021344D01*
X007400Y021344D02*
X007400Y020556D01*
D13*
X006542Y017412D03*
X005755Y015050D03*
X006542Y012688D03*
X011345Y012688D03*
X011345Y017412D03*
D14*
X012680Y011350D03*
X011930Y010850D03*
X012680Y010350D03*
D15*
X009180Y020200D03*
X009180Y021700D03*
D16*
X011267Y023050D03*
X012093Y023050D03*
X006593Y023050D03*
X005767Y023050D03*
D17*
X006900Y010940D03*
X006900Y009160D03*
X009460Y009160D03*
X009460Y010940D03*
D18*
X009870Y010530D02*
X011529Y010530D01*
X011498Y010561D02*
X011641Y010418D01*
X011829Y010340D01*
X012031Y010340D01*
X012170Y010397D01*
X012170Y010249D01*
X012248Y010061D01*
X012391Y009918D01*
X012579Y009840D01*
X012781Y009840D01*
X012969Y009918D01*
X013112Y010061D01*
X013180Y010224D01*
X013180Y009050D01*
X013139Y009049D01*
X013139Y009314D01*
X013129Y009352D01*
X013109Y009387D01*
X013081Y009415D01*
X013047Y009434D01*
X013009Y009445D01*
X012350Y009445D01*
X012350Y009026D01*
X012250Y009023D01*
X012250Y009445D01*
X011591Y009445D01*
X011553Y009434D01*
X011519Y009415D01*
X011491Y009387D01*
X011471Y009352D01*
X011461Y009314D01*
X011461Y009010D01*
X011817Y009010D01*
X009939Y008955D01*
X009942Y008960D01*
X009967Y009038D01*
X009979Y009110D01*
X009510Y009110D01*
X009510Y009210D01*
X009410Y009210D01*
X009410Y009679D01*
X009338Y009667D01*
X009260Y009642D01*
X009187Y009605D01*
X009121Y009557D01*
X009063Y009499D01*
X009015Y009433D01*
X008978Y009360D01*
X008953Y009282D01*
X008941Y009210D01*
X009410Y009210D01*
X009410Y009110D01*
X008941Y009110D01*
X008953Y009038D01*
X008978Y008960D01*
X008995Y008927D01*
X007338Y008878D01*
X007345Y008887D01*
X007382Y008960D01*
X007407Y009038D01*
X007419Y009110D01*
X006950Y009110D01*
X006950Y009210D01*
X006850Y009210D01*
X006850Y009679D01*
X006778Y009667D01*
X006700Y009642D01*
X006627Y009605D01*
X006561Y009557D01*
X006503Y009499D01*
X006455Y009433D01*
X006418Y009360D01*
X006399Y009300D01*
X006399Y009314D01*
X006389Y009352D01*
X006369Y009387D01*
X006341Y009415D01*
X006307Y009434D01*
X006269Y009445D01*
X005610Y009445D01*
X005610Y009010D01*
X006399Y009010D01*
X006399Y009020D01*
X006418Y008960D01*
X006455Y008887D01*
X006480Y008853D01*
X006399Y008851D01*
X006399Y008910D01*
X005610Y008910D01*
X005610Y009010D01*
X005510Y009010D01*
X005510Y009445D01*
X004851Y009445D01*
X004813Y009434D01*
X004779Y009415D01*
X004751Y009387D01*
X004731Y009352D01*
X004721Y009314D01*
X004721Y009010D01*
X005510Y009010D01*
X005510Y008910D01*
X004721Y008910D01*
X004721Y008801D01*
X004680Y008800D01*
X004680Y020116D01*
X004714Y020091D01*
X004790Y020052D01*
X004872Y020026D01*
X004950Y020013D01*
X004950Y020902D01*
X005047Y020902D01*
X005047Y020998D01*
X005543Y020998D01*
X005543Y021386D01*
X005529Y021471D01*
X005503Y021552D01*
X005464Y021629D01*
X005414Y021698D01*
X005353Y021758D01*
X005284Y021809D01*
X005208Y021848D01*
X005126Y021874D01*
X005047Y021887D01*
X005047Y020998D01*
X004950Y020998D01*
X004950Y021887D01*
X004872Y021874D01*
X004790Y021848D01*
X004714Y021809D01*
X004680Y021784D01*
X004680Y022550D01*
X005490Y022550D01*
X005490Y022492D01*
X005534Y022386D01*
X005616Y022304D01*
X005722Y022260D01*
X006973Y022260D01*
X007140Y022093D01*
X007140Y021889D01*
X007059Y021855D01*
X006889Y021686D01*
X006797Y021464D01*
X006797Y020436D01*
X006889Y020214D01*
X007059Y020045D01*
X007280Y019953D01*
X007521Y019953D01*
X007742Y020045D01*
X007912Y020214D01*
X008004Y020436D01*
X008004Y021464D01*
X007912Y021686D01*
X007742Y021855D01*
X007720Y021865D01*
X007720Y022271D01*
X007676Y022378D01*
X007504Y022550D01*
X008890Y022550D01*
X008890Y022287D01*
X008810Y022254D01*
X008626Y022070D01*
X008527Y021830D01*
X008527Y021570D01*
X007960Y021570D01*
X008004Y021330D02*
X008627Y021330D01*
X008626Y021330D02*
X008810Y021146D01*
X009050Y021047D01*
X009310Y021047D01*
X009550Y021146D01*
X009734Y021330D01*
X009833Y021570D01*
X009980Y021570D01*
X009833Y021570D02*
X009833Y021830D01*
X009734Y022070D01*
X009550Y022254D01*
X009470Y022287D01*
X009470Y022430D01*
X009590Y022550D01*
X013180Y022550D01*
X013180Y022350D01*
X012009Y022350D01*
X011980Y022321D01*
X011980Y019579D01*
X012009Y019550D01*
X013180Y019550D01*
X013180Y011476D01*
X013112Y011639D01*
X012969Y011782D01*
X012781Y011860D01*
X012579Y011860D01*
X012391Y011782D01*
X012248Y011639D01*
X012170Y011451D01*
X012170Y011303D01*
X012031Y011360D01*
X011829Y011360D01*
X011794Y011346D01*
X010548Y012592D01*
X010548Y012623D01*
X010492Y012759D01*
X010396Y012855D01*
X010722Y013182D01*
X010753Y013182D01*
X010889Y013238D01*
X010992Y013341D01*
X011048Y013477D01*
X011048Y013623D01*
X010992Y013759D01*
X010889Y013862D01*
X010753Y013918D01*
X010607Y013918D01*
X010471Y013862D01*
X010368Y013759D01*
X010312Y013623D01*
X010312Y013592D01*
X009316Y012596D01*
X009234Y012514D01*
X009190Y012408D01*
X009190Y011456D01*
X009131Y011432D01*
X008968Y011269D01*
X008880Y011055D01*
X008880Y010825D01*
X008968Y010611D01*
X009131Y010448D01*
X009345Y010360D01*
X009575Y010360D01*
X009789Y010448D01*
X009952Y010611D01*
X010040Y010825D01*
X010040Y011055D01*
X009952Y011269D01*
X009789Y011432D01*
X009770Y011439D01*
X009770Y012230D01*
X009875Y012334D01*
X009971Y012238D01*
X010107Y012182D01*
X010138Y012182D01*
X011420Y010900D01*
X011420Y010749D01*
X011498Y010561D01*
X011620Y010439D02*
X011620Y009445D01*
X011465Y009330D02*
X009952Y009330D01*
X009942Y009360D02*
X009905Y009433D01*
X009857Y009499D01*
X009799Y009557D01*
X009733Y009605D01*
X009660Y009642D01*
X009582Y009667D01*
X009510Y009679D01*
X009510Y009210D01*
X009979Y009210D01*
X009967Y009282D01*
X009942Y009360D01*
X009940Y009363D02*
X009940Y010600D01*
X010017Y010770D02*
X011420Y010770D01*
X011380Y010940D02*
X011380Y008997D01*
X011461Y009090D02*
X009975Y009090D01*
X009940Y009110D02*
X009940Y009210D01*
X009940Y008957D02*
X009940Y008955D01*
X010180Y008962D02*
X010180Y012140D01*
X010038Y012210D02*
X009770Y012210D01*
X009940Y012269D02*
X009940Y011280D01*
X009959Y011250D02*
X011070Y011250D01*
X011140Y011180D02*
X011140Y008990D01*
X010900Y008983D02*
X010900Y011420D01*
X010830Y011490D02*
X009770Y011490D01*
X009770Y011730D02*
X010590Y011730D01*
X010660Y011660D02*
X010660Y008976D01*
X010420Y008969D02*
X010420Y011900D01*
X010350Y011970D02*
X009770Y011970D01*
X009190Y011970D02*
X007950Y011970D01*
X007950Y011903D02*
X007950Y013124D01*
X007894Y013260D01*
X007790Y013364D01*
X006311Y014842D01*
X006349Y014932D01*
X006349Y015168D01*
X006258Y015386D01*
X006091Y015553D01*
X005873Y015644D01*
X005637Y015644D01*
X005418Y015553D01*
X005251Y015386D01*
X005161Y015168D01*
X005161Y014932D01*
X005251Y014714D01*
X005418Y014547D01*
X005637Y014456D01*
X005651Y014456D01*
X007210Y012897D01*
X007210Y011676D01*
X007266Y011540D01*
X007370Y011436D01*
X007470Y011336D01*
X007606Y011280D01*
X007754Y011280D01*
X007890Y011336D01*
X007994Y011440D01*
X008050Y011576D01*
X008050Y011724D01*
X007994Y011860D01*
X007950Y011903D01*
X008020Y011796D02*
X008020Y013932D01*
X008007Y013932D02*
X008153Y013932D01*
X008289Y013988D01*
X008392Y014091D01*
X008448Y014227D01*
X008448Y014373D01*
X008392Y014509D01*
X008370Y014531D01*
X008370Y015608D01*
X008398Y015677D01*
X008398Y015823D01*
X008342Y015959D01*
X008239Y016062D01*
X008103Y016118D01*
X007957Y016118D01*
X007821Y016062D01*
X007718Y015959D01*
X007662Y015823D01*
X007662Y015677D01*
X007718Y015541D01*
X007790Y015469D01*
X007790Y014531D01*
X007768Y014509D01*
X007712Y014373D01*
X007712Y014227D01*
X007768Y014091D01*
X007871Y013988D01*
X008007Y013932D01*
X008260Y013976D02*
X008260Y008905D01*
X008020Y008898D02*
X008020Y011504D01*
X008014Y011490D02*
X009190Y011490D01*
X009190Y011730D02*
X008047Y011730D01*
X007950Y012210D02*
X009190Y012210D01*
X009208Y012450D02*
X007950Y012450D01*
X007950Y012690D02*
X009410Y012690D01*
X009460Y012740D02*
X009460Y019677D01*
X009491Y019693D02*
X009566Y019748D01*
X009632Y019814D01*
X009687Y019889D01*
X009729Y019972D01*
X009758Y020061D01*
X009772Y020150D01*
X009230Y020150D01*
X009230Y020250D01*
X009772Y020250D01*
X009758Y020339D01*
X009729Y020428D01*
X009687Y020511D01*
X009632Y020586D01*
X009566Y020652D01*
X009491Y020707D01*
X009408Y020749D01*
X009319Y020778D01*
X009230Y020792D01*
X009230Y020250D01*
X009130Y020250D01*
X009130Y020792D01*
X009041Y020778D01*
X008952Y020749D01*
X008869Y020707D01*
X008794Y020652D01*
X008728Y020586D01*
X008673Y020511D01*
X008631Y020428D01*
X008602Y020339D01*
X008588Y020250D01*
X009130Y020250D01*
X009130Y020150D01*
X009230Y020150D01*
X009230Y019608D01*
X009319Y019622D01*
X009408Y019651D01*
X009491Y019693D01*
X009406Y019650D02*
X009980Y019650D01*
X009980Y019579D02*
X010009Y019550D01*
X011301Y019550D01*
X011330Y019579D01*
X011330Y022321D01*
X011301Y022350D01*
X010009Y022350D01*
X009980Y022321D01*
X009980Y019579D01*
X010180Y019550D02*
X010180Y013460D01*
X010130Y013410D02*
X007743Y013410D01*
X007780Y013373D02*
X007780Y014079D01*
X007752Y014130D02*
X007023Y014130D01*
X007060Y014093D02*
X007060Y017110D01*
X007046Y017076D02*
X007136Y017294D01*
X007136Y017530D01*
X007046Y017749D01*
X006879Y017916D01*
X006660Y018006D01*
X006424Y018006D01*
X006206Y017916D01*
X006039Y017749D01*
X005948Y017530D01*
X005948Y017294D01*
X006039Y017076D01*
X006206Y016909D01*
X006424Y016818D01*
X006660Y016818D01*
X006879Y016909D01*
X007046Y017076D01*
X006980Y017010D02*
X010908Y017010D01*
X010900Y017018D02*
X010900Y013851D01*
X010822Y013890D02*
X013180Y013890D01*
X013180Y013650D02*
X011037Y013650D01*
X011021Y013410D02*
X013180Y013410D01*
X013180Y013170D02*
X011703Y013170D01*
X011682Y013191D02*
X011463Y013282D01*
X011227Y013282D01*
X011009Y013191D01*
X010842Y013024D01*
X010751Y012806D01*
X010751Y012570D01*
X010842Y012351D01*
X011009Y012184D01*
X011227Y012094D01*
X011463Y012094D01*
X011682Y012184D01*
X011849Y012351D01*
X011939Y012570D01*
X011939Y012806D01*
X011849Y013024D01*
X011682Y013191D01*
X011620Y013217D02*
X011620Y016883D01*
X011682Y016909D02*
X011463Y016818D01*
X011227Y016818D01*
X011009Y016909D01*
X010842Y017076D01*
X010751Y017294D01*
X010751Y017530D01*
X010842Y017749D01*
X011009Y017916D01*
X011227Y018006D01*
X011463Y018006D01*
X011682Y017916D01*
X011849Y017749D01*
X011939Y017530D01*
X011939Y017294D01*
X011849Y017076D01*
X011682Y016909D01*
X011783Y017010D02*
X013180Y017010D01*
X013180Y016770D02*
X004680Y016770D01*
X004680Y016530D02*
X013180Y016530D01*
X013180Y016290D02*
X004680Y016290D01*
X004680Y016050D02*
X007809Y016050D01*
X007780Y016021D02*
X007780Y020082D01*
X007828Y020130D02*
X008591Y020130D01*
X008588Y020150D02*
X008602Y020061D01*
X008631Y019972D01*
X008673Y019889D01*
X008728Y019814D01*
X008794Y019748D01*
X008869Y019693D01*
X008952Y019651D01*
X009041Y019622D01*
X009130Y019608D01*
X009130Y020150D01*
X008588Y020150D01*
X008740Y020150D02*
X008740Y020250D01*
X008612Y020370D02*
X007977Y020370D01*
X008004Y020610D02*
X008751Y020610D01*
X008740Y020599D02*
X008740Y021217D01*
X008626Y021330D02*
X008527Y021570D01*
X008527Y021810D02*
X007788Y021810D01*
X007780Y021818D02*
X007780Y022550D01*
X008020Y022550D02*
X008020Y016118D01*
X008251Y016050D02*
X013180Y016050D01*
X013180Y015810D02*
X008398Y015810D01*
X008370Y015570D02*
X013180Y015570D01*
X013180Y015330D02*
X008370Y015330D01*
X008370Y015090D02*
X013180Y015090D01*
X013180Y014850D02*
X008370Y014850D01*
X008370Y014610D02*
X013180Y014610D01*
X013180Y014370D02*
X008448Y014370D01*
X008408Y014130D02*
X013180Y014130D01*
X013180Y012930D02*
X011888Y012930D01*
X011860Y012997D02*
X011860Y017103D01*
X011921Y017250D02*
X013180Y017250D01*
X013180Y017490D02*
X011939Y017490D01*
X011860Y017722D02*
X011860Y022550D01*
X012100Y022550D02*
X012100Y022350D01*
X011980Y022290D02*
X011330Y022290D01*
X011140Y022350D02*
X011140Y022550D01*
X011380Y022550D02*
X011380Y018006D01*
X011551Y017970D02*
X013180Y017970D01*
X013180Y017730D02*
X011857Y017730D01*
X011620Y017941D02*
X011620Y022550D01*
X011330Y022050D02*
X011980Y022050D01*
X011980Y021810D02*
X011330Y021810D01*
X011330Y021570D02*
X011980Y021570D01*
X011980Y021330D02*
X011330Y021330D01*
X011330Y021090D02*
X011980Y021090D01*
X011980Y020850D02*
X011330Y020850D01*
X011330Y020610D02*
X011980Y020610D01*
X011980Y020370D02*
X011330Y020370D01*
X011330Y020130D02*
X011980Y020130D01*
X011980Y019890D02*
X011330Y019890D01*
X011330Y019650D02*
X011980Y019650D01*
X012100Y019550D02*
X012100Y011332D01*
X012186Y011490D02*
X011650Y011490D01*
X011620Y011520D02*
X011620Y012159D01*
X011707Y012210D02*
X013180Y012210D01*
X013180Y011970D02*
X011170Y011970D01*
X011140Y012000D02*
X011140Y012130D01*
X010983Y012210D02*
X010930Y012210D01*
X010900Y012240D02*
X010900Y012293D01*
X010801Y012450D02*
X010690Y012450D01*
X010660Y012480D02*
X010660Y013120D01*
X010710Y013170D02*
X010988Y013170D01*
X010900Y013249D02*
X010900Y013082D01*
X010803Y012930D02*
X010470Y012930D01*
X010420Y012880D02*
X010420Y012831D01*
X010521Y012690D02*
X010751Y012690D01*
X011140Y013246D02*
X011140Y016854D01*
X011380Y016818D02*
X011380Y013282D01*
X011939Y012690D02*
X013180Y012690D01*
X013180Y012450D02*
X011890Y012450D01*
X011860Y012378D02*
X011860Y011360D01*
X011410Y011730D02*
X012339Y011730D01*
X012340Y011731D02*
X012340Y019550D01*
X012580Y019550D02*
X012580Y011860D01*
X012820Y011844D02*
X012820Y019550D01*
X013060Y019550D02*
X013060Y011691D01*
X013021Y011730D02*
X013180Y011730D01*
X013174Y011490D02*
X013180Y011490D01*
X013180Y011224D02*
X013180Y010476D01*
X013112Y010639D01*
X012969Y010782D01*
X012806Y010850D01*
X012969Y010918D01*
X013112Y011061D01*
X013180Y011224D01*
X013180Y011010D02*
X013061Y011010D01*
X013060Y011009D02*
X013060Y010691D01*
X012981Y010770D02*
X013180Y010770D01*
X013180Y010530D02*
X013157Y010530D01*
X012820Y010844D02*
X012820Y010856D01*
X013101Y010050D02*
X013180Y010050D01*
X013060Y010009D02*
X013060Y009427D01*
X013135Y009330D02*
X013180Y009330D01*
X013180Y009090D02*
X013139Y009090D01*
X012820Y009445D02*
X012820Y009856D01*
X012580Y009840D02*
X012580Y009445D01*
X012350Y009330D02*
X012250Y009330D01*
X012100Y009445D02*
X012100Y010368D01*
X012170Y010290D02*
X004680Y010290D01*
X004680Y010050D02*
X012259Y010050D01*
X012340Y009969D02*
X012340Y009025D01*
X012350Y009090D02*
X012250Y009090D01*
X011860Y009445D02*
X011860Y010340D01*
X011310Y011010D02*
X010040Y011010D01*
X009700Y010412D02*
X009700Y009621D01*
X009780Y009570D02*
X013180Y009570D01*
X013180Y009810D02*
X004680Y009810D01*
X004680Y009570D02*
X006580Y009570D01*
X006580Y010445D01*
X006571Y010448D02*
X006785Y010360D01*
X007015Y010360D01*
X007229Y010448D01*
X007392Y010611D01*
X007480Y010825D01*
X007480Y011055D01*
X007392Y011269D01*
X007229Y011432D01*
X007015Y011520D01*
X006785Y011520D01*
X006571Y011432D01*
X006408Y011269D01*
X006320Y011055D01*
X006320Y010825D01*
X006408Y010611D01*
X006571Y010448D01*
X006490Y010530D02*
X004680Y010530D01*
X004680Y010770D02*
X006343Y010770D01*
X006340Y010776D02*
X006340Y009415D01*
X006395Y009330D02*
X006408Y009330D01*
X006340Y009010D02*
X006340Y008910D01*
X006100Y008910D02*
X006100Y009010D01*
X005860Y009010D02*
X005860Y008910D01*
X005620Y008910D02*
X005620Y009010D01*
X005610Y009090D02*
X005510Y009090D01*
X005380Y009010D02*
X005380Y008910D01*
X005140Y008910D02*
X005140Y009010D01*
X005140Y009445D02*
X005140Y020030D01*
X005126Y020026D02*
X005208Y020052D01*
X005284Y020091D01*
X005353Y020142D01*
X005414Y020202D01*
X005464Y020271D01*
X005503Y020348D01*
X005529Y020429D01*
X005543Y020514D01*
X005543Y020902D01*
X005047Y020902D01*
X005047Y020013D01*
X005126Y020026D01*
X005047Y020130D02*
X004950Y020130D01*
X004900Y020021D02*
X004900Y009445D01*
X004725Y009330D02*
X004680Y009330D01*
X004680Y009090D02*
X004721Y009090D01*
X004900Y009010D02*
X004900Y008910D01*
X004721Y008850D02*
X004680Y008850D01*
X005380Y009445D02*
X005380Y014585D01*
X005355Y014610D02*
X004680Y014610D01*
X004680Y014370D02*
X005737Y014370D01*
X005620Y014463D02*
X005620Y009445D01*
X005610Y009330D02*
X005510Y009330D01*
X005860Y009445D02*
X005860Y014247D01*
X005977Y014130D02*
X004680Y014130D01*
X004680Y013890D02*
X006217Y013890D01*
X006100Y014007D02*
X006100Y012987D01*
X006086Y012968D02*
X006047Y012893D01*
X006021Y012813D01*
X006010Y012738D01*
X006492Y012738D01*
X006492Y013220D01*
X006417Y013209D01*
X006337Y013183D01*
X006262Y013144D01*
X006194Y013095D01*
X006135Y013036D01*
X006086Y012968D01*
X006066Y012930D02*
X004680Y012930D01*
X004680Y012690D02*
X006492Y012690D01*
X006492Y012738D02*
X006492Y012638D01*
X006010Y012638D01*
X006021Y012563D01*
X006047Y012483D01*
X006086Y012408D01*
X006135Y012340D01*
X006194Y012281D01*
X006262Y012231D01*
X006337Y012193D01*
X006417Y012167D01*
X006492Y012155D01*
X006492Y012638D01*
X006592Y012638D01*
X006592Y012155D01*
X006667Y012167D01*
X006747Y012193D01*
X006822Y012231D01*
X006890Y012281D01*
X006949Y012340D01*
X006999Y012408D01*
X007037Y012483D01*
X007063Y012563D01*
X007075Y012638D01*
X006592Y012638D01*
X006592Y012738D01*
X006492Y012738D01*
X006580Y012738D02*
X006580Y013527D01*
X006697Y013410D02*
X004680Y013410D01*
X004680Y013170D02*
X006313Y013170D01*
X006340Y013183D02*
X006340Y013767D01*
X006457Y013650D02*
X004680Y013650D01*
X004680Y012450D02*
X006064Y012450D01*
X006100Y012388D02*
X006100Y009445D01*
X006820Y009674D02*
X006820Y010360D01*
X007060Y010378D02*
X007060Y009655D01*
X007022Y009667D02*
X006950Y009679D01*
X006950Y009210D01*
X007419Y009210D01*
X007407Y009282D01*
X007382Y009360D01*
X007345Y009433D01*
X007297Y009499D01*
X007239Y009557D01*
X007173Y009605D01*
X007100Y009642D01*
X007022Y009667D01*
X006950Y009570D02*
X006850Y009570D01*
X006850Y009330D02*
X006950Y009330D01*
X007060Y009210D02*
X007060Y009110D01*
X007300Y009110D02*
X007300Y009210D01*
X007392Y009330D02*
X008968Y009330D01*
X008980Y009363D02*
X008980Y010600D01*
X009050Y010530D02*
X007310Y010530D01*
X007300Y010520D02*
X007300Y009494D01*
X007220Y009570D02*
X009140Y009570D01*
X009220Y009621D02*
X009220Y010412D01*
X009460Y010360D02*
X009460Y009210D01*
X009410Y009330D02*
X009510Y009330D01*
X009700Y009210D02*
X009700Y009110D01*
X009220Y009110D02*
X009220Y009210D01*
X008980Y009210D02*
X008980Y009110D01*
X008945Y009090D02*
X007415Y009090D01*
X007540Y008884D02*
X007540Y011308D01*
X007399Y011250D02*
X008961Y011250D01*
X008980Y011280D02*
X008980Y019642D01*
X008954Y019650D02*
X004680Y019650D01*
X004680Y019410D02*
X005368Y019410D01*
X005372Y019414D02*
X005321Y019345D01*
X005282Y019269D01*
X005256Y019188D01*
X005243Y019109D01*
X006132Y019109D01*
X006132Y019604D01*
X005744Y019604D01*
X005659Y019591D01*
X005578Y019564D01*
X005501Y019525D01*
X005432Y019475D01*
X005372Y019414D01*
X005380Y019423D02*
X005380Y020168D01*
X005337Y020130D02*
X006973Y020130D01*
X007060Y020044D02*
X007060Y019303D01*
X007078Y019269D02*
X007039Y019345D01*
X006988Y019414D01*
X006928Y019475D01*
X006859Y019525D01*
X006782Y019564D01*
X006701Y019591D01*
X006616Y019604D01*
X006228Y019604D01*
X006228Y019109D01*
X006132Y019109D01*
X006132Y019012D01*
X006228Y019012D01*
X006228Y018517D01*
X006616Y018517D01*
X006701Y018530D01*
X006782Y018556D01*
X006859Y018595D01*
X006928Y018646D01*
X006988Y018706D01*
X007039Y018775D01*
X007078Y018852D01*
X007104Y018933D01*
X007117Y019012D01*
X006228Y019012D01*
X006228Y019109D01*
X007117Y019109D01*
X007104Y019188D01*
X007078Y019269D01*
X007107Y019170D02*
X013180Y019170D01*
X013180Y018930D02*
X007103Y018930D01*
X007060Y019012D02*
X007060Y019109D01*
X006820Y019109D02*
X006820Y019012D01*
X006580Y019012D02*
X006580Y019109D01*
X006340Y019109D02*
X006340Y019012D01*
X006228Y018930D02*
X006132Y018930D01*
X006132Y019012D02*
X006132Y018517D01*
X005744Y018517D01*
X005659Y018530D01*
X005578Y018556D01*
X005501Y018595D01*
X005432Y018646D01*
X005372Y018706D01*
X005321Y018775D01*
X005282Y018852D01*
X005256Y018933D01*
X005243Y019012D01*
X006132Y019012D01*
X006100Y019012D02*
X006100Y019109D01*
X006132Y019170D02*
X006228Y019170D01*
X006228Y019410D02*
X006132Y019410D01*
X006100Y019604D02*
X006100Y022260D01*
X005860Y022260D02*
X005860Y019604D01*
X005620Y019578D02*
X005620Y022302D01*
X005650Y022290D02*
X004680Y022290D01*
X004680Y022050D02*
X007140Y022050D01*
X007060Y022173D02*
X007060Y021856D01*
X007013Y021810D02*
X005281Y021810D01*
X005380Y021732D02*
X005380Y022550D01*
X005490Y022530D02*
X004680Y022530D01*
X004900Y022550D02*
X004900Y021879D01*
X004950Y021810D02*
X005047Y021810D01*
X005140Y021870D02*
X005140Y022550D01*
X004716Y021810D02*
X004680Y021810D01*
X004950Y021570D02*
X005047Y021570D01*
X005047Y021330D02*
X004950Y021330D01*
X004950Y021090D02*
X005047Y021090D01*
X005140Y020998D02*
X005140Y020902D01*
X005047Y020850D02*
X004950Y020850D01*
X004950Y020610D02*
X005047Y020610D01*
X005047Y020370D02*
X004950Y020370D01*
X004680Y019890D02*
X008673Y019890D01*
X008740Y019801D02*
X008740Y008919D01*
X008500Y008912D02*
X008500Y022550D01*
X008740Y022550D02*
X008740Y022183D01*
X008618Y022050D02*
X007720Y022050D01*
X007712Y022290D02*
X008890Y022290D01*
X008890Y022530D02*
X007524Y022530D01*
X007540Y022514D02*
X007540Y022550D01*
X008260Y022550D02*
X008260Y016041D01*
X007780Y015479D02*
X007780Y014521D01*
X007790Y014610D02*
X006543Y014610D01*
X006580Y014573D02*
X006580Y016818D01*
X006820Y016884D02*
X006820Y014333D01*
X006783Y014370D02*
X007712Y014370D01*
X007790Y014850D02*
X006315Y014850D01*
X006340Y014813D02*
X006340Y014911D01*
X006349Y015090D02*
X007790Y015090D01*
X007790Y015330D02*
X006282Y015330D01*
X006340Y015189D02*
X006340Y016853D01*
X006105Y017010D02*
X004680Y017010D01*
X004680Y017250D02*
X005967Y017250D01*
X005948Y017490D02*
X004680Y017490D01*
X004680Y017730D02*
X006031Y017730D01*
X006100Y017810D02*
X006100Y018517D01*
X006132Y018690D02*
X006228Y018690D01*
X006340Y018517D02*
X006340Y017971D01*
X006337Y017970D02*
X004680Y017970D01*
X004680Y018210D02*
X013180Y018210D01*
X013180Y018450D02*
X004680Y018450D01*
X004680Y018690D02*
X005388Y018690D01*
X005380Y018698D02*
X005380Y015515D01*
X005458Y015570D02*
X004680Y015570D01*
X004680Y015330D02*
X005228Y015330D01*
X005161Y015090D02*
X004680Y015090D01*
X004680Y014850D02*
X005195Y014850D01*
X005620Y015637D02*
X005620Y018543D01*
X005860Y018517D02*
X005860Y015644D01*
X006051Y015570D02*
X007706Y015570D01*
X007662Y015810D02*
X004680Y015810D01*
X006100Y015545D02*
X006100Y017015D01*
X006747Y017970D02*
X011140Y017970D01*
X011140Y019550D01*
X010900Y019550D02*
X010900Y017807D01*
X010834Y017730D02*
X007053Y017730D01*
X007060Y017714D02*
X007060Y018817D01*
X006972Y018690D02*
X013180Y018690D01*
X013180Y019410D02*
X006992Y019410D01*
X006820Y019545D02*
X006820Y020380D01*
X006824Y020370D02*
X005510Y020370D01*
X005543Y020610D02*
X006797Y020610D01*
X006797Y020850D02*
X005543Y020850D01*
X005380Y020902D02*
X005380Y020998D01*
X005543Y021090D02*
X006797Y021090D01*
X006797Y021330D02*
X005543Y021330D01*
X005494Y021570D02*
X006841Y021570D01*
X006820Y021520D02*
X006820Y022260D01*
X006580Y022260D02*
X006580Y019604D01*
X006340Y019604D02*
X006340Y022260D01*
X008004Y021090D02*
X008947Y021090D01*
X008980Y021076D02*
X008980Y020758D01*
X009130Y020610D02*
X009230Y020610D01*
X009230Y020370D02*
X009130Y020370D01*
X009220Y020250D02*
X009220Y021047D01*
X009413Y021090D02*
X009980Y021090D01*
X009980Y021330D02*
X009733Y021330D01*
X009700Y021297D02*
X009700Y020485D01*
X009748Y020370D02*
X009980Y020370D01*
X009980Y020130D02*
X009769Y020130D01*
X009700Y020150D02*
X009700Y020250D01*
X009460Y020250D02*
X009460Y020150D01*
X009230Y020130D02*
X009130Y020130D01*
X009220Y020150D02*
X009220Y012480D01*
X009650Y012930D02*
X007950Y012930D01*
X007931Y013170D02*
X009890Y013170D01*
X009940Y013220D02*
X009940Y022550D01*
X010180Y022550D02*
X010180Y022350D01*
X009980Y022290D02*
X009470Y022290D01*
X009570Y022530D02*
X013180Y022530D01*
X013060Y022550D02*
X013060Y022350D01*
X012820Y022350D02*
X012820Y022550D01*
X012580Y022550D02*
X012580Y022350D01*
X012340Y022350D02*
X012340Y022550D01*
X010900Y022550D02*
X010900Y022350D01*
X010660Y022350D02*
X010660Y022550D01*
X010420Y022550D02*
X010420Y022350D01*
X009980Y022050D02*
X009742Y022050D01*
X009700Y022103D02*
X009700Y022550D01*
X009833Y021810D02*
X009980Y021810D01*
X009460Y021109D02*
X009460Y020723D01*
X009609Y020610D02*
X009980Y020610D01*
X009980Y020850D02*
X008004Y020850D01*
X007540Y019961D02*
X007540Y013613D01*
X007503Y013650D02*
X010323Y013650D01*
X010420Y013811D02*
X010420Y019550D01*
X010660Y019550D02*
X010660Y013918D01*
X010538Y013890D02*
X007263Y013890D01*
X007300Y013853D02*
X007300Y019953D01*
X006820Y018576D02*
X006820Y017940D01*
X006580Y018006D02*
X006580Y018517D01*
X005860Y019012D02*
X005860Y019109D01*
X005620Y019109D02*
X005620Y019012D01*
X005380Y019012D02*
X005380Y019109D01*
X005253Y019170D02*
X004680Y019170D01*
X004680Y018930D02*
X005257Y018930D01*
X007136Y017490D02*
X010751Y017490D01*
X010770Y017250D02*
X007118Y017250D01*
X009130Y019650D02*
X009230Y019650D01*
X009230Y019890D02*
X009130Y019890D01*
X008980Y020150D02*
X008980Y020250D01*
X009687Y019890D02*
X009980Y019890D01*
X009700Y019915D02*
X009700Y012980D01*
X008880Y011010D02*
X007480Y011010D01*
X007457Y010770D02*
X008903Y010770D01*
X009410Y009570D02*
X009510Y009570D01*
X008980Y008957D02*
X008980Y008926D01*
X007780Y008891D02*
X007780Y011291D01*
X007300Y011360D02*
X007300Y011507D01*
X007317Y011490D02*
X007088Y011490D01*
X007060Y011502D02*
X007060Y012554D01*
X007060Y012638D02*
X007060Y012738D01*
X007075Y012738D02*
X007063Y012813D01*
X007037Y012893D01*
X006999Y012968D01*
X006949Y013036D01*
X006890Y013095D01*
X006822Y013144D01*
X006747Y013183D01*
X006667Y013209D01*
X006592Y013220D01*
X006592Y012738D01*
X007075Y012738D01*
X007060Y012822D02*
X007060Y013047D01*
X007018Y012930D02*
X007177Y012930D01*
X007210Y012690D02*
X006592Y012690D01*
X006580Y012638D02*
X006580Y011435D01*
X006712Y011490D02*
X004680Y011490D01*
X004680Y011250D02*
X006401Y011250D01*
X006340Y011104D02*
X006340Y012192D01*
X006304Y012210D02*
X004680Y012210D01*
X004680Y011970D02*
X007210Y011970D01*
X007210Y011730D02*
X004680Y011730D01*
X004680Y011010D02*
X006320Y011010D01*
X006820Y011520D02*
X006820Y012230D01*
X006780Y012210D02*
X007210Y012210D01*
X007210Y012450D02*
X007020Y012450D01*
X006820Y012638D02*
X006820Y012738D01*
X006592Y012930D02*
X006492Y012930D01*
X006492Y013170D02*
X006592Y013170D01*
X006772Y013170D02*
X006937Y013170D01*
X006820Y013145D02*
X006820Y013287D01*
X006340Y012738D02*
X006340Y012638D01*
X006100Y012638D02*
X006100Y012738D01*
X006492Y012450D02*
X006592Y012450D01*
X006592Y012210D02*
X006492Y012210D01*
X007790Y013364D02*
X007790Y013364D01*
X011380Y012094D02*
X011380Y011760D01*
X011620Y009010D02*
X011620Y009004D01*
X012280Y007950D02*
X012300Y007880D01*
X005680Y005550D02*
X005560Y005720D01*
X005560Y007880D02*
X005580Y007950D01*
D19*
X007180Y008450D03*
X007180Y007350D03*
X008930Y007950D03*
X010680Y008450D03*
X010730Y007350D03*
X007680Y011650D03*
X008080Y014300D03*
X008030Y015750D03*
X010180Y015550D03*
X010680Y013550D03*
X010180Y012550D03*
X007680Y023050D03*
X012930Y023050D03*
D20*
X012093Y023050D01*
X011267Y023050D02*
X009680Y023050D01*
X009180Y022550D01*
X009180Y021700D01*
X007680Y023050D02*
X006593Y023050D01*
X007093Y022550D02*
X005780Y022550D01*
X005780Y023050D01*
X007093Y022550D02*
X007430Y022213D01*
X007430Y020950D01*
X008030Y015750D02*
X008080Y015700D01*
X008080Y014300D01*
X009480Y012350D02*
X009480Y011050D01*
X009480Y010960D01*
X009460Y010940D01*
X009480Y010950D02*
X009480Y010960D01*
X009480Y012350D02*
X010680Y013550D01*
X010180Y012550D02*
X011880Y010850D01*
X011930Y010850D01*
X010680Y008450D02*
X007180Y008450D01*
X007380Y007550D02*
X007180Y007350D01*
X007380Y007550D02*
X010530Y007550D01*
X010730Y007350D01*
X009830Y006900D02*
X012280Y006900D01*
X012300Y006800D01*
X012280Y007950D02*
X008930Y007950D01*
X005580Y007950D01*
X005580Y006850D02*
X005560Y006800D01*
X005580Y006850D02*
X007980Y006850D01*
X008180Y007050D01*
X009680Y007050D01*
X009830Y006900D01*
X010180Y005550D02*
X009680Y005050D01*
X008180Y005050D01*
X007680Y005550D01*
X005680Y005550D01*
X005560Y004640D02*
X005650Y004550D01*
X012180Y004550D01*
X012280Y004650D01*
X012280Y005550D02*
X010180Y005550D01*
D21*
X007680Y011650D02*
X007580Y011750D01*
X007580Y013050D01*
X005780Y014850D01*
X005780Y014950D01*
X005755Y015050D01*
M02*
