%
M48
M72
T01C0.0197
T02C0.0320
T03C0.0394
T04C0.0400
T05C0.0512
T06C0.0591
T07C0.0866
T08C0.1181
%
T01
X7180Y7350
X7180Y8450
X8930Y7950
X10680Y8450
X10730Y7350
X7680Y11650
X8080Y14300
X8030Y15750
X10180Y15550
X10680Y13550
X10180Y12550
X7680Y23050
X12930Y23050
T02
X12680Y11350
X11930Y10850
X12680Y10350
T03
X6180Y19060
X4999Y20950
X7400Y20950
T04
X6900Y9160
X6900Y10940
X9460Y10940
X9460Y9160
T05
X11345Y12688
X11345Y17412
X6542Y17412
X5755Y15050
X6542Y12688
T06
X9180Y20200
X9180Y21700
T07
X10680Y21700
X10680Y20200
X12680Y20200
X12680Y21700
T08
X8930Y6050
M30
