G75*
G70*
%OFA0B0*%
%FSLAX24Y24*%
%IPPOS*%
%LPD*%
%AMOC8*
5,1,8,0,0,1.08239X$1,22.5*
%
%ADD10C,0.0030*%
%ADD11C,0.0090*%
%ADD12C,0.0000*%
%ADD13C,0.0050*%
%ADD14R,0.0984X0.0472*%
%ADD15C,0.0060*%
%ADD16R,0.0140X0.0560*%
%ADD17C,0.0040*%
%ADD18C,0.0100*%
%ADD19R,0.0295X0.0335*%
%ADD20R,0.0354X0.0531*%
%ADD21R,0.0335X0.0295*%
%ADD22R,0.0531X0.0354*%
%ADD23R,0.0400X0.0600*%
%ADD24R,0.0230X0.0180*%
%ADD25R,0.0197X0.0128*%
%ADD26R,0.0098X0.0059*%
%ADD27R,0.0069X0.0157*%
%ADD28R,0.0079X0.0079*%
%ADD29R,0.0118X0.0118*%
%ADD30R,0.0030X0.0128*%
D10*
X004623Y011302D02*
X004575Y011351D01*
X004575Y011447D01*
X004623Y011496D01*
X004672Y011496D01*
X004720Y011447D01*
X004720Y011351D01*
X004768Y011302D01*
X004817Y011302D01*
X004865Y011351D01*
X004865Y011447D01*
X004817Y011496D01*
X004865Y011694D02*
X004575Y011694D01*
X004575Y011790D02*
X004575Y011597D01*
X004623Y011892D02*
X004575Y011940D01*
X004575Y012085D01*
X004865Y012085D01*
X004768Y012085D02*
X004768Y011940D01*
X004720Y011892D01*
X004623Y011892D01*
X004768Y011988D02*
X004865Y011892D01*
X005875Y011890D02*
X005875Y012035D01*
X006165Y012035D01*
X006165Y011890D01*
X006117Y011842D01*
X005923Y011842D01*
X005875Y011890D01*
X005875Y011740D02*
X005875Y011547D01*
X005875Y011644D02*
X006165Y011644D01*
X006165Y011446D02*
X005875Y011446D01*
X005875Y011301D01*
X005923Y011252D01*
X006020Y011252D01*
X006068Y011301D01*
X006068Y011446D01*
X006068Y011349D02*
X006165Y011252D01*
D11*
X006642Y007665D02*
X006547Y007570D01*
X006927Y007190D01*
X006832Y007095D01*
X006642Y007095D01*
X006547Y007190D01*
X006547Y007570D01*
X006642Y007665D02*
X006832Y007665D01*
X006927Y007570D01*
X006927Y007190D01*
X007136Y007190D02*
X007136Y007095D01*
X007231Y007095D01*
X007231Y007190D01*
X007136Y007190D01*
X007458Y007095D02*
X007839Y007095D01*
X007649Y007095D02*
X007649Y007665D01*
X007839Y007475D01*
X008066Y007475D02*
X008256Y007095D01*
X008446Y007475D01*
X009282Y007380D02*
X009377Y007285D01*
X009662Y007285D01*
X009662Y007095D02*
X009662Y007665D01*
X009377Y007665D01*
X009282Y007570D01*
X009282Y007380D01*
X009472Y007285D02*
X009282Y007095D01*
X009889Y007095D02*
X009889Y007665D01*
X010270Y007665D02*
X010270Y007095D01*
X010079Y007285D01*
X009889Y007095D01*
X010497Y007380D02*
X010592Y007285D01*
X010877Y007285D01*
X010877Y007095D02*
X010877Y007665D01*
X010592Y007665D01*
X010497Y007570D01*
X010497Y007380D01*
X011105Y007665D02*
X011295Y007665D01*
X011200Y007665D02*
X011200Y007190D01*
X011295Y007095D01*
X011390Y007095D01*
X011485Y007190D01*
D12*
X013680Y004050D02*
X004180Y004050D01*
X004180Y023550D01*
X013680Y023550D01*
X013680Y004050D01*
D13*
X003645Y004956D02*
X003570Y005031D01*
X003570Y005182D01*
X003645Y005257D01*
X003720Y005257D01*
X003795Y005182D01*
X003795Y004956D01*
X003645Y004956D01*
X003795Y004956D02*
X003945Y005107D01*
X004020Y005257D01*
X003945Y008153D02*
X003870Y008153D01*
X003795Y008228D01*
X003795Y008453D01*
X003645Y008453D02*
X003945Y008453D01*
X004020Y008378D01*
X004020Y008228D01*
X003945Y008153D01*
X003645Y008153D02*
X003570Y008228D01*
X003570Y008378D01*
X003645Y008453D01*
X004906Y010823D02*
X004929Y010550D01*
X004929Y010550D01*
X004906Y010277D01*
X004905Y010276D01*
X004873Y010281D01*
X004841Y010290D01*
X004811Y010302D01*
X004783Y010318D01*
X004756Y010337D01*
X004732Y010359D01*
X004711Y010383D01*
X004693Y010410D01*
X004678Y010439D01*
X004667Y010470D01*
X004659Y010501D01*
X004655Y010534D01*
X004655Y010566D01*
X004659Y010599D01*
X004667Y010630D01*
X004678Y010661D01*
X004693Y010690D01*
X004711Y010717D01*
X004732Y010741D01*
X004756Y010763D01*
X004783Y010782D01*
X004811Y010798D01*
X004841Y010810D01*
X004873Y010819D01*
X004905Y010824D01*
X004905Y010777D01*
X004877Y010772D01*
X004849Y010763D01*
X004823Y010751D01*
X004798Y010736D01*
X004775Y010718D01*
X004755Y010697D01*
X004738Y010673D01*
X004724Y010648D01*
X004713Y010621D01*
X004706Y010593D01*
X004702Y010564D01*
X004702Y010536D01*
X004706Y010507D01*
X004713Y010479D01*
X004724Y010452D01*
X004738Y010427D01*
X004755Y010403D01*
X004775Y010382D01*
X004798Y010364D01*
X004823Y010349D01*
X004849Y010337D01*
X004877Y010328D01*
X004905Y010323D01*
X004905Y010371D01*
X004880Y010376D01*
X004855Y010385D01*
X004833Y010397D01*
X004812Y010413D01*
X004793Y010431D01*
X004778Y010452D01*
X004765Y010475D01*
X004756Y010499D01*
X004751Y010524D01*
X004749Y010550D01*
X004751Y010576D01*
X004756Y010601D01*
X004765Y010625D01*
X004778Y010648D01*
X004793Y010669D01*
X004812Y010687D01*
X004833Y010703D01*
X004855Y010715D01*
X004880Y010724D01*
X004905Y010729D01*
X004905Y010682D01*
X004884Y010676D01*
X004864Y010667D01*
X004846Y010655D01*
X004830Y010640D01*
X004817Y010622D01*
X004807Y010603D01*
X004800Y010582D01*
X004796Y010561D01*
X004796Y010539D01*
X004800Y010518D01*
X004807Y010497D01*
X004817Y010478D01*
X004830Y010460D01*
X004846Y010445D01*
X004864Y010433D01*
X004884Y010424D01*
X004905Y010418D01*
X004905Y010467D01*
X004889Y010473D01*
X004875Y010482D01*
X004863Y010495D01*
X004853Y010509D01*
X004847Y010525D01*
X004843Y010541D01*
X004843Y010559D01*
X004847Y010575D01*
X004853Y010591D01*
X004863Y010605D01*
X004875Y010618D01*
X004889Y010627D01*
X004905Y010633D01*
X004907Y010582D01*
X004899Y010575D01*
X004893Y010566D01*
X004890Y010555D01*
X004890Y010545D01*
X004893Y010534D01*
X004899Y010525D01*
X004907Y010518D01*
X005754Y010277D02*
X005731Y010550D01*
X005731Y010550D01*
X005754Y010823D01*
X005755Y010824D01*
X005787Y010819D01*
X005819Y010810D01*
X005849Y010798D01*
X005877Y010782D01*
X005904Y010763D01*
X005928Y010741D01*
X005949Y010717D01*
X005967Y010690D01*
X005982Y010661D01*
X005993Y010630D01*
X006001Y010599D01*
X006005Y010566D01*
X006005Y010534D01*
X006001Y010501D01*
X005993Y010470D01*
X005982Y010439D01*
X005967Y010410D01*
X005949Y010383D01*
X005928Y010359D01*
X005904Y010337D01*
X005877Y010318D01*
X005849Y010302D01*
X005819Y010290D01*
X005787Y010281D01*
X005755Y010276D01*
X005755Y010323D01*
X005783Y010328D01*
X005811Y010337D01*
X005837Y010349D01*
X005862Y010364D01*
X005885Y010382D01*
X005905Y010403D01*
X005922Y010427D01*
X005936Y010452D01*
X005947Y010479D01*
X005954Y010507D01*
X005958Y010536D01*
X005958Y010564D01*
X005954Y010593D01*
X005947Y010621D01*
X005936Y010648D01*
X005922Y010673D01*
X005905Y010697D01*
X005885Y010718D01*
X005862Y010736D01*
X005837Y010751D01*
X005811Y010763D01*
X005783Y010772D01*
X005755Y010777D01*
X005755Y010729D01*
X005780Y010724D01*
X005805Y010715D01*
X005827Y010703D01*
X005848Y010687D01*
X005867Y010669D01*
X005882Y010648D01*
X005895Y010625D01*
X005904Y010601D01*
X005909Y010576D01*
X005911Y010550D01*
X005909Y010524D01*
X005904Y010499D01*
X005895Y010475D01*
X005882Y010452D01*
X005867Y010431D01*
X005848Y010413D01*
X005827Y010397D01*
X005805Y010385D01*
X005780Y010376D01*
X005755Y010371D01*
X005755Y010418D01*
X005776Y010424D01*
X005796Y010433D01*
X005814Y010445D01*
X005830Y010460D01*
X005843Y010478D01*
X005853Y010497D01*
X005860Y010518D01*
X005864Y010539D01*
X005864Y010561D01*
X005860Y010582D01*
X005853Y010603D01*
X005843Y010622D01*
X005830Y010640D01*
X005814Y010655D01*
X005796Y010667D01*
X005776Y010676D01*
X005755Y010682D01*
X005755Y010633D01*
X005771Y010627D01*
X005785Y010618D01*
X005797Y010605D01*
X005807Y010591D01*
X005813Y010575D01*
X005817Y010559D01*
X005817Y010541D01*
X005813Y010525D01*
X005807Y010509D01*
X005797Y010495D01*
X005785Y010482D01*
X005771Y010473D01*
X005755Y010467D01*
X005753Y010518D01*
X005761Y010525D01*
X005767Y010534D01*
X005770Y010545D01*
X005770Y010555D01*
X005767Y010566D01*
X005761Y010575D01*
X005753Y010582D01*
X010430Y010475D02*
X010430Y010775D01*
X010430Y010475D02*
X010780Y010475D01*
X010930Y010975D02*
X010930Y011125D01*
X010780Y011625D02*
X010430Y011625D01*
X010430Y011325D01*
X013840Y008502D02*
X013915Y008577D01*
X014216Y008577D01*
X014291Y008502D01*
X014291Y008352D01*
X014216Y008277D01*
X014140Y008277D01*
X014065Y008352D01*
X014065Y008577D01*
X013840Y008502D02*
X013840Y008352D01*
X013915Y008277D01*
X013915Y005293D02*
X013990Y005293D01*
X014065Y005218D01*
X014065Y004993D01*
X013915Y004993D01*
X013840Y005068D01*
X013840Y005218D01*
X013915Y005293D01*
X014065Y004993D02*
X014216Y005143D01*
X014291Y005293D01*
D14*
X012589Y005180D03*
X012589Y006260D03*
X012589Y007340D03*
X012589Y008420D03*
X005271Y008420D03*
X005271Y007340D03*
X005271Y006260D03*
X005271Y005180D03*
D15*
X005330Y010150D02*
X005330Y010250D01*
X005330Y010850D02*
X005330Y010950D01*
X004630Y010550D02*
X004430Y010550D01*
X004380Y010250D02*
X004380Y010850D01*
X004382Y010867D01*
X004386Y010884D01*
X004393Y010900D01*
X004403Y010914D01*
X004416Y010927D01*
X004430Y010937D01*
X004446Y010944D01*
X004463Y010948D01*
X004480Y010950D01*
X006180Y010950D01*
X006197Y010948D01*
X006214Y010944D01*
X006230Y010937D01*
X006244Y010927D01*
X006257Y010914D01*
X006267Y010900D01*
X006274Y010884D01*
X006278Y010867D01*
X006280Y010850D01*
X006280Y010250D01*
X006278Y010233D01*
X006274Y010216D01*
X006267Y010200D01*
X006257Y010186D01*
X006244Y010173D01*
X006230Y010163D01*
X006214Y010156D01*
X006197Y010152D01*
X006180Y010150D01*
X004480Y010150D01*
X004463Y010152D01*
X004446Y010156D01*
X004430Y010163D01*
X004416Y010173D01*
X004403Y010186D01*
X004393Y010200D01*
X004386Y010216D01*
X004382Y010233D01*
X004380Y010250D01*
X006030Y010550D02*
X006230Y010550D01*
X008900Y013800D02*
X009460Y013800D01*
X009460Y014300D02*
X008900Y014300D01*
X008900Y014800D02*
X009460Y014800D01*
X009460Y015300D02*
X008900Y015300D01*
X008900Y015800D02*
X009460Y015800D01*
X009460Y016300D02*
X008900Y016300D01*
X010900Y016300D02*
X011460Y016300D01*
X011460Y015800D02*
X010900Y015800D01*
X010900Y015300D02*
X011460Y015300D01*
X011460Y014800D02*
X010900Y014800D01*
D16*
X010840Y015050D03*
X011520Y015050D03*
X011520Y016050D03*
X010840Y016050D03*
X009520Y016050D03*
X008840Y016050D03*
X008840Y015050D03*
X009520Y015050D03*
X009520Y014050D03*
X008840Y014050D03*
D17*
X008739Y013530D02*
X008739Y013070D01*
X008739Y013223D02*
X008432Y013530D01*
X008662Y013300D02*
X008432Y013070D01*
X008893Y013147D02*
X008969Y013070D01*
X009123Y013070D01*
X009200Y013147D01*
X008893Y013454D01*
X008893Y013147D01*
X008893Y013454D02*
X008969Y013530D01*
X009123Y013530D01*
X009200Y013454D01*
X009200Y013147D01*
X009353Y013070D02*
X009660Y013070D01*
X009507Y013070D02*
X009507Y013530D01*
X009660Y013377D01*
X010202Y014070D02*
X010432Y014300D01*
X010509Y014223D02*
X010202Y014530D01*
X010509Y014530D02*
X010509Y014070D01*
X010662Y014454D02*
X010969Y014147D01*
X010969Y014070D01*
X011123Y014070D02*
X011200Y014070D01*
X011200Y014147D01*
X011123Y014147D01*
X011123Y014070D01*
X011430Y014070D02*
X011430Y014530D01*
X011660Y014300D01*
X011353Y014300D01*
X010969Y014530D02*
X010662Y014530D01*
X010662Y014454D01*
X010813Y016570D02*
X011044Y016800D01*
X011120Y016723D02*
X010813Y017030D01*
X011120Y017030D02*
X011120Y016570D01*
X011274Y016954D02*
X011581Y016647D01*
X011581Y016570D01*
X011734Y016570D02*
X011811Y016570D01*
X011811Y016647D01*
X011734Y016647D01*
X011734Y016570D01*
X011964Y016800D02*
X012271Y016800D01*
X012041Y017030D01*
X012041Y016570D01*
X011581Y017030D02*
X011274Y017030D01*
X011274Y016954D01*
X010160Y016800D02*
X009853Y016800D01*
X009700Y016647D02*
X009623Y016647D01*
X009623Y016570D01*
X009700Y016570D01*
X009700Y016647D01*
X009469Y016647D02*
X009469Y016570D01*
X009469Y016647D02*
X009162Y016954D01*
X009162Y017030D01*
X009469Y017030D01*
X009009Y017030D02*
X009009Y016570D01*
X009009Y016723D02*
X008702Y017030D01*
X008932Y016800D02*
X008702Y016570D01*
X008357Y015530D02*
X008357Y015070D01*
X008510Y015070D02*
X008203Y015070D01*
X008050Y015070D02*
X008050Y015530D01*
X007973Y015300D02*
X007743Y015070D01*
X008050Y015223D02*
X007743Y015530D01*
X008357Y015530D02*
X008510Y015377D01*
X009930Y016570D02*
X009930Y017030D01*
X010160Y016800D01*
X010120Y022870D02*
X010120Y023177D01*
X009967Y023177D02*
X009813Y023177D01*
X009890Y023254D02*
X009890Y022947D01*
X009813Y022870D01*
X010120Y022870D02*
X010351Y022870D01*
X010427Y022947D01*
X010427Y023177D01*
X010581Y023254D02*
X010658Y023330D01*
X010811Y023330D01*
X010888Y023254D01*
X010888Y022947D01*
X010811Y022870D01*
X010658Y022870D01*
X010581Y022947D01*
X010581Y023254D01*
X011315Y023187D02*
X011337Y023182D01*
X011357Y023174D01*
X011375Y023163D01*
X011392Y023148D01*
X011406Y023132D01*
X011418Y023113D01*
X011426Y023093D01*
X011431Y023072D01*
X011433Y023050D01*
X011431Y023028D01*
X011426Y023007D01*
X011418Y022987D01*
X011406Y022968D01*
X011392Y022952D01*
X011375Y022937D01*
X011357Y022926D01*
X011337Y022918D01*
X011315Y022913D01*
X011483Y022824D02*
X012044Y022824D01*
X011974Y022873D02*
X011976Y022885D01*
X011981Y022896D01*
X011989Y022905D01*
X012000Y022911D01*
X012012Y022914D01*
X012024Y022913D01*
X012036Y022909D01*
X012045Y022901D01*
X012052Y022891D01*
X012056Y022879D01*
X012056Y022867D01*
X012052Y022855D01*
X012045Y022845D01*
X012035Y022837D01*
X012024Y022833D01*
X012012Y022832D01*
X012000Y022835D01*
X011989Y022841D01*
X011981Y022850D01*
X011976Y022861D01*
X011974Y022873D01*
X012045Y022913D02*
X012023Y022918D01*
X012003Y022926D01*
X011985Y022937D01*
X011968Y022952D01*
X011954Y022968D01*
X011942Y022987D01*
X011934Y023007D01*
X011929Y023028D01*
X011927Y023050D01*
X011929Y023072D01*
X011934Y023093D01*
X011942Y023113D01*
X011954Y023132D01*
X011968Y023148D01*
X011985Y023163D01*
X012003Y023174D01*
X012023Y023182D01*
X012045Y023187D01*
X011887Y023276D02*
X011473Y023276D01*
X006545Y023187D02*
X006523Y023182D01*
X006503Y023174D01*
X006485Y023163D01*
X006468Y023148D01*
X006454Y023132D01*
X006442Y023113D01*
X006434Y023093D01*
X006429Y023072D01*
X006427Y023050D01*
X006429Y023028D01*
X006434Y023007D01*
X006442Y022987D01*
X006454Y022968D01*
X006468Y022952D01*
X006485Y022937D01*
X006503Y022926D01*
X006523Y022918D01*
X006545Y022913D01*
X006474Y022873D02*
X006476Y022885D01*
X006481Y022896D01*
X006489Y022905D01*
X006500Y022911D01*
X006512Y022914D01*
X006524Y022913D01*
X006536Y022909D01*
X006545Y022901D01*
X006552Y022891D01*
X006556Y022879D01*
X006556Y022867D01*
X006552Y022855D01*
X006545Y022845D01*
X006535Y022837D01*
X006524Y022833D01*
X006512Y022832D01*
X006500Y022835D01*
X006489Y022841D01*
X006481Y022850D01*
X006476Y022861D01*
X006474Y022873D01*
X006544Y022824D02*
X005983Y022824D01*
X005815Y022913D02*
X005837Y022918D01*
X005857Y022926D01*
X005875Y022937D01*
X005892Y022952D01*
X005906Y022968D01*
X005918Y022987D01*
X005926Y023007D01*
X005931Y023028D01*
X005933Y023050D01*
X005931Y023072D01*
X005926Y023093D01*
X005918Y023113D01*
X005906Y023132D01*
X005892Y023148D01*
X005875Y023163D01*
X005857Y023174D01*
X005837Y023182D01*
X005815Y023187D01*
X005973Y023276D02*
X006387Y023276D01*
X005427Y023330D02*
X005274Y023330D01*
X005351Y023330D02*
X005351Y022870D01*
X005427Y022870D02*
X005274Y022870D01*
X005120Y022870D02*
X005120Y023177D01*
X004890Y023177D01*
X004813Y023100D01*
X004813Y022870D01*
D18*
X006904Y015483D02*
X007456Y015483D01*
X007456Y014617D01*
X006904Y014617D01*
X006904Y015483D01*
X008247Y012826D02*
X008247Y012274D01*
X009113Y012274D01*
X009113Y012826D01*
X008247Y012826D01*
D19*
X008060Y012560D03*
X009300Y012560D03*
D20*
X008444Y012540D03*
D21*
X007190Y014430D03*
X007190Y015670D03*
D22*
X007170Y015286D03*
D23*
X005330Y010550D03*
D24*
X010285Y011050D03*
X011075Y010680D03*
X011075Y011420D03*
D25*
X011385Y022868D03*
X011385Y023232D03*
X011975Y023232D03*
X006475Y023232D03*
X005885Y023232D03*
X005885Y022868D03*
D26*
X005934Y022952D03*
X005934Y023148D03*
X006426Y023148D03*
X006426Y022952D03*
X011434Y022952D03*
X011434Y023148D03*
X011926Y023148D03*
X011926Y022952D03*
D27*
X011911Y023050D03*
X011449Y023050D03*
X006411Y023050D03*
X005949Y023050D03*
D28*
X006219Y023050D03*
X011719Y023050D03*
D29*
X011936Y022873D03*
X006436Y022873D03*
D30*
X006559Y022868D03*
X012059Y022868D03*
M02*
