G75*
G70*
%OFA0B0*%
%FSLAX24Y24*%
%IPPOS*%
%LPD*%
%AMOC8*
5,1,8,0,0,1.08239X$1,22.5*
%
%ADD10C,0.0000*%
%ADD11C,0.1221*%
%ADD12OC8,0.0600*%
%ADD13C,0.0634*%
%ADD14R,0.0634X0.0634*%
%ADD15R,0.1418X0.0709*%
%ADD16C,0.0680*%
%ADD17C,0.0827*%
%ADD18C,0.0808*%
%ADD19C,0.0640*%
%ADD20C,0.0926*%
%ADD21C,0.1024*%
%ADD22C,0.0780*%
%ADD23C,0.1700*%
D10*
X004380Y000300D02*
X004380Y017249D01*
X023671Y017249D01*
X023671Y000300D01*
X004380Y000300D01*
X019888Y002300D02*
X019890Y002344D01*
X019896Y002388D01*
X019906Y002431D01*
X019919Y002473D01*
X019937Y002513D01*
X019958Y002552D01*
X019982Y002589D01*
X020009Y002624D01*
X020040Y002656D01*
X020073Y002685D01*
X020109Y002711D01*
X020147Y002733D01*
X020187Y002752D01*
X020228Y002768D01*
X020271Y002780D01*
X020314Y002788D01*
X020358Y002792D01*
X020402Y002792D01*
X020446Y002788D01*
X020489Y002780D01*
X020532Y002768D01*
X020573Y002752D01*
X020613Y002733D01*
X020651Y002711D01*
X020687Y002685D01*
X020720Y002656D01*
X020751Y002624D01*
X020778Y002589D01*
X020802Y002552D01*
X020823Y002513D01*
X020841Y002473D01*
X020854Y002431D01*
X020864Y002388D01*
X020870Y002344D01*
X020872Y002300D01*
X020870Y002256D01*
X020864Y002212D01*
X020854Y002169D01*
X020841Y002127D01*
X020823Y002087D01*
X020802Y002048D01*
X020778Y002011D01*
X020751Y001976D01*
X020720Y001944D01*
X020687Y001915D01*
X020651Y001889D01*
X020613Y001867D01*
X020573Y001848D01*
X020532Y001832D01*
X020489Y001820D01*
X020446Y001812D01*
X020402Y001808D01*
X020358Y001808D01*
X020314Y001812D01*
X020271Y001820D01*
X020228Y001832D01*
X020187Y001848D01*
X020147Y001867D01*
X020109Y001889D01*
X020073Y001915D01*
X020040Y001944D01*
X020009Y001976D01*
X019982Y002011D01*
X019958Y002048D01*
X019937Y002087D01*
X019919Y002127D01*
X019906Y002169D01*
X019896Y002212D01*
X019890Y002256D01*
X019888Y002300D01*
X021888Y001550D02*
X021890Y001594D01*
X021896Y001638D01*
X021906Y001681D01*
X021919Y001723D01*
X021937Y001763D01*
X021958Y001802D01*
X021982Y001839D01*
X022009Y001874D01*
X022040Y001906D01*
X022073Y001935D01*
X022109Y001961D01*
X022147Y001983D01*
X022187Y002002D01*
X022228Y002018D01*
X022271Y002030D01*
X022314Y002038D01*
X022358Y002042D01*
X022402Y002042D01*
X022446Y002038D01*
X022489Y002030D01*
X022532Y002018D01*
X022573Y002002D01*
X022613Y001983D01*
X022651Y001961D01*
X022687Y001935D01*
X022720Y001906D01*
X022751Y001874D01*
X022778Y001839D01*
X022802Y001802D01*
X022823Y001763D01*
X022841Y001723D01*
X022854Y001681D01*
X022864Y001638D01*
X022870Y001594D01*
X022872Y001550D01*
X022870Y001506D01*
X022864Y001462D01*
X022854Y001419D01*
X022841Y001377D01*
X022823Y001337D01*
X022802Y001298D01*
X022778Y001261D01*
X022751Y001226D01*
X022720Y001194D01*
X022687Y001165D01*
X022651Y001139D01*
X022613Y001117D01*
X022573Y001098D01*
X022532Y001082D01*
X022489Y001070D01*
X022446Y001062D01*
X022402Y001058D01*
X022358Y001058D01*
X022314Y001062D01*
X022271Y001070D01*
X022228Y001082D01*
X022187Y001098D01*
X022147Y001117D01*
X022109Y001139D01*
X022073Y001165D01*
X022040Y001194D01*
X022009Y001226D01*
X021982Y001261D01*
X021958Y001298D01*
X021937Y001337D01*
X021919Y001377D01*
X021906Y001419D01*
X021896Y001462D01*
X021890Y001506D01*
X021888Y001550D01*
X021888Y003050D02*
X021890Y003094D01*
X021896Y003138D01*
X021906Y003181D01*
X021919Y003223D01*
X021937Y003263D01*
X021958Y003302D01*
X021982Y003339D01*
X022009Y003374D01*
X022040Y003406D01*
X022073Y003435D01*
X022109Y003461D01*
X022147Y003483D01*
X022187Y003502D01*
X022228Y003518D01*
X022271Y003530D01*
X022314Y003538D01*
X022358Y003542D01*
X022402Y003542D01*
X022446Y003538D01*
X022489Y003530D01*
X022532Y003518D01*
X022573Y003502D01*
X022613Y003483D01*
X022651Y003461D01*
X022687Y003435D01*
X022720Y003406D01*
X022751Y003374D01*
X022778Y003339D01*
X022802Y003302D01*
X022823Y003263D01*
X022841Y003223D01*
X022854Y003181D01*
X022864Y003138D01*
X022870Y003094D01*
X022872Y003050D01*
X022870Y003006D01*
X022864Y002962D01*
X022854Y002919D01*
X022841Y002877D01*
X022823Y002837D01*
X022802Y002798D01*
X022778Y002761D01*
X022751Y002726D01*
X022720Y002694D01*
X022687Y002665D01*
X022651Y002639D01*
X022613Y002617D01*
X022573Y002598D01*
X022532Y002582D01*
X022489Y002570D01*
X022446Y002562D01*
X022402Y002558D01*
X022358Y002558D01*
X022314Y002562D01*
X022271Y002570D01*
X022228Y002582D01*
X022187Y002598D01*
X022147Y002617D01*
X022109Y002639D01*
X022073Y002665D01*
X022040Y002694D01*
X022009Y002726D01*
X021982Y002761D01*
X021958Y002798D01*
X021937Y002837D01*
X021919Y002877D01*
X021906Y002919D01*
X021896Y002962D01*
X021890Y003006D01*
X021888Y003050D01*
X020789Y010300D02*
X020791Y010348D01*
X020797Y010396D01*
X020807Y010443D01*
X020820Y010489D01*
X020838Y010534D01*
X020858Y010578D01*
X020883Y010620D01*
X020911Y010659D01*
X020941Y010696D01*
X020975Y010730D01*
X021012Y010762D01*
X021050Y010791D01*
X021091Y010816D01*
X021134Y010838D01*
X021179Y010856D01*
X021225Y010870D01*
X021272Y010881D01*
X021320Y010888D01*
X021368Y010891D01*
X021416Y010890D01*
X021464Y010885D01*
X021512Y010876D01*
X021558Y010864D01*
X021603Y010847D01*
X021647Y010827D01*
X021689Y010804D01*
X021729Y010777D01*
X021767Y010747D01*
X021802Y010714D01*
X021834Y010678D01*
X021864Y010640D01*
X021890Y010599D01*
X021912Y010556D01*
X021932Y010512D01*
X021947Y010467D01*
X021959Y010420D01*
X021967Y010372D01*
X021971Y010324D01*
X021971Y010276D01*
X021967Y010228D01*
X021959Y010180D01*
X021947Y010133D01*
X021932Y010088D01*
X021912Y010044D01*
X021890Y010001D01*
X021864Y009960D01*
X021834Y009922D01*
X021802Y009886D01*
X021767Y009853D01*
X021729Y009823D01*
X021689Y009796D01*
X021647Y009773D01*
X021603Y009753D01*
X021558Y009736D01*
X021512Y009724D01*
X021464Y009715D01*
X021416Y009710D01*
X021368Y009709D01*
X021320Y009712D01*
X021272Y009719D01*
X021225Y009730D01*
X021179Y009744D01*
X021134Y009762D01*
X021091Y009784D01*
X021050Y009809D01*
X021012Y009838D01*
X020975Y009870D01*
X020941Y009904D01*
X020911Y009941D01*
X020883Y009980D01*
X020858Y010022D01*
X020838Y010066D01*
X020820Y010111D01*
X020807Y010157D01*
X020797Y010204D01*
X020791Y010252D01*
X020789Y010300D01*
X020789Y014800D02*
X020791Y014848D01*
X020797Y014896D01*
X020807Y014943D01*
X020820Y014989D01*
X020838Y015034D01*
X020858Y015078D01*
X020883Y015120D01*
X020911Y015159D01*
X020941Y015196D01*
X020975Y015230D01*
X021012Y015262D01*
X021050Y015291D01*
X021091Y015316D01*
X021134Y015338D01*
X021179Y015356D01*
X021225Y015370D01*
X021272Y015381D01*
X021320Y015388D01*
X021368Y015391D01*
X021416Y015390D01*
X021464Y015385D01*
X021512Y015376D01*
X021558Y015364D01*
X021603Y015347D01*
X021647Y015327D01*
X021689Y015304D01*
X021729Y015277D01*
X021767Y015247D01*
X021802Y015214D01*
X021834Y015178D01*
X021864Y015140D01*
X021890Y015099D01*
X021912Y015056D01*
X021932Y015012D01*
X021947Y014967D01*
X021959Y014920D01*
X021967Y014872D01*
X021971Y014824D01*
X021971Y014776D01*
X021967Y014728D01*
X021959Y014680D01*
X021947Y014633D01*
X021932Y014588D01*
X021912Y014544D01*
X021890Y014501D01*
X021864Y014460D01*
X021834Y014422D01*
X021802Y014386D01*
X021767Y014353D01*
X021729Y014323D01*
X021689Y014296D01*
X021647Y014273D01*
X021603Y014253D01*
X021558Y014236D01*
X021512Y014224D01*
X021464Y014215D01*
X021416Y014210D01*
X021368Y014209D01*
X021320Y014212D01*
X021272Y014219D01*
X021225Y014230D01*
X021179Y014244D01*
X021134Y014262D01*
X021091Y014284D01*
X021050Y014309D01*
X021012Y014338D01*
X020975Y014370D01*
X020941Y014404D01*
X020911Y014441D01*
X020883Y014480D01*
X020858Y014522D01*
X020838Y014566D01*
X020820Y014611D01*
X020807Y014657D01*
X020797Y014704D01*
X020791Y014752D01*
X020789Y014800D01*
X021789Y016300D02*
X021791Y016348D01*
X021797Y016396D01*
X021807Y016443D01*
X021820Y016489D01*
X021838Y016534D01*
X021858Y016578D01*
X021883Y016620D01*
X021911Y016659D01*
X021941Y016696D01*
X021975Y016730D01*
X022012Y016762D01*
X022050Y016791D01*
X022091Y016816D01*
X022134Y016838D01*
X022179Y016856D01*
X022225Y016870D01*
X022272Y016881D01*
X022320Y016888D01*
X022368Y016891D01*
X022416Y016890D01*
X022464Y016885D01*
X022512Y016876D01*
X022558Y016864D01*
X022603Y016847D01*
X022647Y016827D01*
X022689Y016804D01*
X022729Y016777D01*
X022767Y016747D01*
X022802Y016714D01*
X022834Y016678D01*
X022864Y016640D01*
X022890Y016599D01*
X022912Y016556D01*
X022932Y016512D01*
X022947Y016467D01*
X022959Y016420D01*
X022967Y016372D01*
X022971Y016324D01*
X022971Y016276D01*
X022967Y016228D01*
X022959Y016180D01*
X022947Y016133D01*
X022932Y016088D01*
X022912Y016044D01*
X022890Y016001D01*
X022864Y015960D01*
X022834Y015922D01*
X022802Y015886D01*
X022767Y015853D01*
X022729Y015823D01*
X022689Y015796D01*
X022647Y015773D01*
X022603Y015753D01*
X022558Y015736D01*
X022512Y015724D01*
X022464Y015715D01*
X022416Y015710D01*
X022368Y015709D01*
X022320Y015712D01*
X022272Y015719D01*
X022225Y015730D01*
X022179Y015744D01*
X022134Y015762D01*
X022091Y015784D01*
X022050Y015809D01*
X022012Y015838D01*
X021975Y015870D01*
X021941Y015904D01*
X021911Y015941D01*
X021883Y015980D01*
X021858Y016022D01*
X021838Y016066D01*
X021820Y016111D01*
X021807Y016157D01*
X021797Y016204D01*
X021791Y016252D01*
X021789Y016300D01*
D11*
X022380Y016300D03*
X021380Y014800D03*
X021380Y010300D03*
D12*
X015380Y009800D03*
X014380Y009800D03*
X013880Y010800D03*
X013880Y011800D03*
X013880Y013300D03*
X013880Y014300D03*
X013380Y008300D03*
X014380Y008300D03*
X011380Y008300D03*
X010380Y008300D03*
X008880Y008300D03*
X008880Y007050D03*
X007880Y005800D03*
X006880Y005800D03*
X005880Y005800D03*
X004880Y005800D03*
X006880Y007050D03*
X006880Y008300D03*
X018880Y004800D03*
X019880Y004800D03*
X021880Y004800D03*
X022880Y004800D03*
D13*
X017880Y011300D03*
X018880Y011800D03*
X017880Y012300D03*
X018880Y012800D03*
X017880Y013300D03*
X018880Y013800D03*
X017880Y014300D03*
D14*
X018880Y010800D03*
D15*
X022800Y010930D03*
X022800Y012010D03*
X022800Y013090D03*
X022800Y014170D03*
X005560Y014170D03*
X005560Y013090D03*
X005560Y012010D03*
X005560Y010930D03*
D16*
X015560Y012300D02*
X016200Y012300D01*
X016200Y013300D02*
X015560Y013300D01*
X015560Y014300D02*
X016200Y014300D01*
X016200Y015300D02*
X015560Y015300D01*
D17*
X008600Y003694D02*
X008600Y002906D01*
X007774Y001410D02*
X006986Y001410D01*
X006199Y002906D02*
X006199Y003694D01*
D18*
X010455Y003800D03*
X011242Y001438D03*
X016045Y001438D03*
X016045Y006162D03*
X011242Y006162D03*
D19*
X016880Y007800D03*
X017380Y008550D03*
X017880Y007800D03*
D20*
X018880Y003050D03*
X018880Y001550D03*
D21*
X020380Y002300D03*
X022380Y001550D03*
X022380Y003050D03*
D22*
X022660Y006410D03*
X022660Y008190D03*
X020100Y008190D03*
X020100Y006410D03*
D23*
X005380Y016300D03*
M02*
