%
M48
M72
T01C0.0197
T02C0.0236
T03C0.0320
T04C0.0354
T05C0.0394
T06C0.0400
T07C0.0512
T08C0.0591
T09C0.0984
T10C0.1181
T11C0.1260
%
T01
X12430Y7700
X13380Y7100
X12430Y8900
X11130Y11050
X10680Y11700
X12130Y12050
X14880Y11300
X19380Y9800
X19880Y9300
X20530Y11450
X21380Y12000
X21580Y11450
X21380Y12550
X20380Y12550
X9630Y14800
X7650Y12800
X8280Y11700
T02
X7080Y14050
X7880Y15500
X8080Y16350
X18380Y16300
X20380Y16300
X5380Y6800
T03
X4880Y5800
X5880Y5800
X6880Y5800
X7880Y5800
X6880Y7050
X6880Y8300
X8880Y8300
X10380Y8300
X11380Y8300
X13380Y8300
X14380Y8300
X14380Y9800
X15380Y9800
X13880Y10800
X13880Y11800
X13880Y13300
X13880Y14300
X17380Y8550
X16880Y7800
X17880Y7800
X18880Y4800
X19880Y4800
X21880Y4800
X22880Y4800
X8880Y7050
T04
X17880Y11300
X18880Y10800
X18880Y11800
X17880Y12300
X18880Y12800
X17880Y13300
X18880Y13800
X17880Y14300
T05
X6199Y3300
X8600Y3300
X7380Y1410
T06
X20100Y6410
X20100Y8190
X22660Y8190
X22660Y6410
X15880Y12300
X15880Y13300
X15880Y14300
X15880Y15300
T07
X16045Y6162
X11242Y6162
X10455Y3800
X11242Y1438
X16045Y1438
T08
X18880Y1550
X18880Y3050
T09
X20380Y2300
X22380Y1550
X22380Y3050
T10
X21380Y10300
X21380Y14800
X22380Y16300
T11
X5380Y16300
M30
