G75*
G70*
%OFA0B0*%
%FSLAX24Y24*%
%IPPOS*%
%LPD*%
%AMOC8*
5,1,8,0,0,1.08239X$1,22.5*
%
%ADD10C,0.0000*%
%ADD11C,0.0120*%
%ADD12C,0.0400*%
%ADD13C,0.0050*%
%ADD14C,0.0060*%
%ADD15C,0.0100*%
%ADD16C,0.0040*%
%ADD17C,0.0020*%
%ADD18C,0.0240*%
%ADD19C,0.0080*%
%ADD20R,0.0450X0.0502*%
%ADD21R,0.0450X0.0492*%
%ADD22R,0.0200X1.2200*%
%ADD23R,0.0630X0.7244*%
%ADD24C,0.0070*%
%ADD25R,0.0200X0.0700*%
D10*
X004380Y000300D02*
X004380Y017249D01*
X023671Y017249D01*
X023671Y000300D01*
X004380Y000300D01*
X019888Y002300D02*
X019890Y002344D01*
X019896Y002388D01*
X019906Y002431D01*
X019919Y002473D01*
X019937Y002513D01*
X019958Y002552D01*
X019982Y002589D01*
X020009Y002624D01*
X020040Y002656D01*
X020073Y002685D01*
X020109Y002711D01*
X020147Y002733D01*
X020187Y002752D01*
X020228Y002768D01*
X020271Y002780D01*
X020314Y002788D01*
X020358Y002792D01*
X020402Y002792D01*
X020446Y002788D01*
X020489Y002780D01*
X020532Y002768D01*
X020573Y002752D01*
X020613Y002733D01*
X020651Y002711D01*
X020687Y002685D01*
X020720Y002656D01*
X020751Y002624D01*
X020778Y002589D01*
X020802Y002552D01*
X020823Y002513D01*
X020841Y002473D01*
X020854Y002431D01*
X020864Y002388D01*
X020870Y002344D01*
X020872Y002300D01*
X020870Y002256D01*
X020864Y002212D01*
X020854Y002169D01*
X020841Y002127D01*
X020823Y002087D01*
X020802Y002048D01*
X020778Y002011D01*
X020751Y001976D01*
X020720Y001944D01*
X020687Y001915D01*
X020651Y001889D01*
X020613Y001867D01*
X020573Y001848D01*
X020532Y001832D01*
X020489Y001820D01*
X020446Y001812D01*
X020402Y001808D01*
X020358Y001808D01*
X020314Y001812D01*
X020271Y001820D01*
X020228Y001832D01*
X020187Y001848D01*
X020147Y001867D01*
X020109Y001889D01*
X020073Y001915D01*
X020040Y001944D01*
X020009Y001976D01*
X019982Y002011D01*
X019958Y002048D01*
X019937Y002087D01*
X019919Y002127D01*
X019906Y002169D01*
X019896Y002212D01*
X019890Y002256D01*
X019888Y002300D01*
X021888Y001550D02*
X021890Y001594D01*
X021896Y001638D01*
X021906Y001681D01*
X021919Y001723D01*
X021937Y001763D01*
X021958Y001802D01*
X021982Y001839D01*
X022009Y001874D01*
X022040Y001906D01*
X022073Y001935D01*
X022109Y001961D01*
X022147Y001983D01*
X022187Y002002D01*
X022228Y002018D01*
X022271Y002030D01*
X022314Y002038D01*
X022358Y002042D01*
X022402Y002042D01*
X022446Y002038D01*
X022489Y002030D01*
X022532Y002018D01*
X022573Y002002D01*
X022613Y001983D01*
X022651Y001961D01*
X022687Y001935D01*
X022720Y001906D01*
X022751Y001874D01*
X022778Y001839D01*
X022802Y001802D01*
X022823Y001763D01*
X022841Y001723D01*
X022854Y001681D01*
X022864Y001638D01*
X022870Y001594D01*
X022872Y001550D01*
X022870Y001506D01*
X022864Y001462D01*
X022854Y001419D01*
X022841Y001377D01*
X022823Y001337D01*
X022802Y001298D01*
X022778Y001261D01*
X022751Y001226D01*
X022720Y001194D01*
X022687Y001165D01*
X022651Y001139D01*
X022613Y001117D01*
X022573Y001098D01*
X022532Y001082D01*
X022489Y001070D01*
X022446Y001062D01*
X022402Y001058D01*
X022358Y001058D01*
X022314Y001062D01*
X022271Y001070D01*
X022228Y001082D01*
X022187Y001098D01*
X022147Y001117D01*
X022109Y001139D01*
X022073Y001165D01*
X022040Y001194D01*
X022009Y001226D01*
X021982Y001261D01*
X021958Y001298D01*
X021937Y001337D01*
X021919Y001377D01*
X021906Y001419D01*
X021896Y001462D01*
X021890Y001506D01*
X021888Y001550D01*
X021888Y003050D02*
X021890Y003094D01*
X021896Y003138D01*
X021906Y003181D01*
X021919Y003223D01*
X021937Y003263D01*
X021958Y003302D01*
X021982Y003339D01*
X022009Y003374D01*
X022040Y003406D01*
X022073Y003435D01*
X022109Y003461D01*
X022147Y003483D01*
X022187Y003502D01*
X022228Y003518D01*
X022271Y003530D01*
X022314Y003538D01*
X022358Y003542D01*
X022402Y003542D01*
X022446Y003538D01*
X022489Y003530D01*
X022532Y003518D01*
X022573Y003502D01*
X022613Y003483D01*
X022651Y003461D01*
X022687Y003435D01*
X022720Y003406D01*
X022751Y003374D01*
X022778Y003339D01*
X022802Y003302D01*
X022823Y003263D01*
X022841Y003223D01*
X022854Y003181D01*
X022864Y003138D01*
X022870Y003094D01*
X022872Y003050D01*
X022870Y003006D01*
X022864Y002962D01*
X022854Y002919D01*
X022841Y002877D01*
X022823Y002837D01*
X022802Y002798D01*
X022778Y002761D01*
X022751Y002726D01*
X022720Y002694D01*
X022687Y002665D01*
X022651Y002639D01*
X022613Y002617D01*
X022573Y002598D01*
X022532Y002582D01*
X022489Y002570D01*
X022446Y002562D01*
X022402Y002558D01*
X022358Y002558D01*
X022314Y002562D01*
X022271Y002570D01*
X022228Y002582D01*
X022187Y002598D01*
X022147Y002617D01*
X022109Y002639D01*
X022073Y002665D01*
X022040Y002694D01*
X022009Y002726D01*
X021982Y002761D01*
X021958Y002798D01*
X021937Y002837D01*
X021919Y002877D01*
X021906Y002919D01*
X021896Y002962D01*
X021890Y003006D01*
X021888Y003050D01*
X020789Y010300D02*
X020791Y010348D01*
X020797Y010396D01*
X020807Y010443D01*
X020820Y010489D01*
X020838Y010534D01*
X020858Y010578D01*
X020883Y010620D01*
X020911Y010659D01*
X020941Y010696D01*
X020975Y010730D01*
X021012Y010762D01*
X021050Y010791D01*
X021091Y010816D01*
X021134Y010838D01*
X021179Y010856D01*
X021225Y010870D01*
X021272Y010881D01*
X021320Y010888D01*
X021368Y010891D01*
X021416Y010890D01*
X021464Y010885D01*
X021512Y010876D01*
X021558Y010864D01*
X021603Y010847D01*
X021647Y010827D01*
X021689Y010804D01*
X021729Y010777D01*
X021767Y010747D01*
X021802Y010714D01*
X021834Y010678D01*
X021864Y010640D01*
X021890Y010599D01*
X021912Y010556D01*
X021932Y010512D01*
X021947Y010467D01*
X021959Y010420D01*
X021967Y010372D01*
X021971Y010324D01*
X021971Y010276D01*
X021967Y010228D01*
X021959Y010180D01*
X021947Y010133D01*
X021932Y010088D01*
X021912Y010044D01*
X021890Y010001D01*
X021864Y009960D01*
X021834Y009922D01*
X021802Y009886D01*
X021767Y009853D01*
X021729Y009823D01*
X021689Y009796D01*
X021647Y009773D01*
X021603Y009753D01*
X021558Y009736D01*
X021512Y009724D01*
X021464Y009715D01*
X021416Y009710D01*
X021368Y009709D01*
X021320Y009712D01*
X021272Y009719D01*
X021225Y009730D01*
X021179Y009744D01*
X021134Y009762D01*
X021091Y009784D01*
X021050Y009809D01*
X021012Y009838D01*
X020975Y009870D01*
X020941Y009904D01*
X020911Y009941D01*
X020883Y009980D01*
X020858Y010022D01*
X020838Y010066D01*
X020820Y010111D01*
X020807Y010157D01*
X020797Y010204D01*
X020791Y010252D01*
X020789Y010300D01*
X020789Y014800D02*
X020791Y014848D01*
X020797Y014896D01*
X020807Y014943D01*
X020820Y014989D01*
X020838Y015034D01*
X020858Y015078D01*
X020883Y015120D01*
X020911Y015159D01*
X020941Y015196D01*
X020975Y015230D01*
X021012Y015262D01*
X021050Y015291D01*
X021091Y015316D01*
X021134Y015338D01*
X021179Y015356D01*
X021225Y015370D01*
X021272Y015381D01*
X021320Y015388D01*
X021368Y015391D01*
X021416Y015390D01*
X021464Y015385D01*
X021512Y015376D01*
X021558Y015364D01*
X021603Y015347D01*
X021647Y015327D01*
X021689Y015304D01*
X021729Y015277D01*
X021767Y015247D01*
X021802Y015214D01*
X021834Y015178D01*
X021864Y015140D01*
X021890Y015099D01*
X021912Y015056D01*
X021932Y015012D01*
X021947Y014967D01*
X021959Y014920D01*
X021967Y014872D01*
X021971Y014824D01*
X021971Y014776D01*
X021967Y014728D01*
X021959Y014680D01*
X021947Y014633D01*
X021932Y014588D01*
X021912Y014544D01*
X021890Y014501D01*
X021864Y014460D01*
X021834Y014422D01*
X021802Y014386D01*
X021767Y014353D01*
X021729Y014323D01*
X021689Y014296D01*
X021647Y014273D01*
X021603Y014253D01*
X021558Y014236D01*
X021512Y014224D01*
X021464Y014215D01*
X021416Y014210D01*
X021368Y014209D01*
X021320Y014212D01*
X021272Y014219D01*
X021225Y014230D01*
X021179Y014244D01*
X021134Y014262D01*
X021091Y014284D01*
X021050Y014309D01*
X021012Y014338D01*
X020975Y014370D01*
X020941Y014404D01*
X020911Y014441D01*
X020883Y014480D01*
X020858Y014522D01*
X020838Y014566D01*
X020820Y014611D01*
X020807Y014657D01*
X020797Y014704D01*
X020791Y014752D01*
X020789Y014800D01*
X021789Y016300D02*
X021791Y016348D01*
X021797Y016396D01*
X021807Y016443D01*
X021820Y016489D01*
X021838Y016534D01*
X021858Y016578D01*
X021883Y016620D01*
X021911Y016659D01*
X021941Y016696D01*
X021975Y016730D01*
X022012Y016762D01*
X022050Y016791D01*
X022091Y016816D01*
X022134Y016838D01*
X022179Y016856D01*
X022225Y016870D01*
X022272Y016881D01*
X022320Y016888D01*
X022368Y016891D01*
X022416Y016890D01*
X022464Y016885D01*
X022512Y016876D01*
X022558Y016864D01*
X022603Y016847D01*
X022647Y016827D01*
X022689Y016804D01*
X022729Y016777D01*
X022767Y016747D01*
X022802Y016714D01*
X022834Y016678D01*
X022864Y016640D01*
X022890Y016599D01*
X022912Y016556D01*
X022932Y016512D01*
X022947Y016467D01*
X022959Y016420D01*
X022967Y016372D01*
X022971Y016324D01*
X022971Y016276D01*
X022967Y016228D01*
X022959Y016180D01*
X022947Y016133D01*
X022932Y016088D01*
X022912Y016044D01*
X022890Y016001D01*
X022864Y015960D01*
X022834Y015922D01*
X022802Y015886D01*
X022767Y015853D01*
X022729Y015823D01*
X022689Y015796D01*
X022647Y015773D01*
X022603Y015753D01*
X022558Y015736D01*
X022512Y015724D01*
X022464Y015715D01*
X022416Y015710D01*
X022368Y015709D01*
X022320Y015712D01*
X022272Y015719D01*
X022225Y015730D01*
X022179Y015744D01*
X022134Y015762D01*
X022091Y015784D01*
X022050Y015809D01*
X022012Y015838D01*
X021975Y015870D01*
X021941Y015904D01*
X021911Y015941D01*
X021883Y015980D01*
X021858Y016022D01*
X021838Y016066D01*
X021820Y016111D01*
X021807Y016157D01*
X021797Y016204D01*
X021791Y016252D01*
X021789Y016300D01*
D11*
X014330Y013050D02*
X014180Y013050D01*
X013580Y013050D02*
X013430Y013050D01*
D12*
X008130Y013050D03*
D13*
X008205Y013525D02*
X008205Y013675D01*
X008205Y013600D02*
X007755Y013600D01*
X007755Y013525D02*
X007755Y013675D01*
X007830Y013832D02*
X008130Y013832D01*
X008205Y013907D01*
X008205Y014057D01*
X008130Y014132D01*
X008205Y014292D02*
X008205Y014593D01*
X008205Y014442D02*
X007755Y014442D01*
X007905Y014292D01*
X007830Y014132D02*
X007755Y014057D01*
X007755Y013907D01*
X007830Y013832D01*
X004013Y014652D02*
X003938Y014577D01*
X004013Y014652D02*
X004013Y014802D01*
X003938Y014877D01*
X003788Y014877D01*
X003712Y014802D01*
X003712Y014727D01*
X003788Y014577D01*
X003562Y014577D01*
X003562Y014877D01*
X004013Y010545D02*
X004013Y010244D01*
X004013Y010394D02*
X003562Y010394D01*
X003712Y010244D01*
X007834Y007925D02*
X007834Y007475D01*
X008059Y007475D01*
X008134Y007550D01*
X008134Y007850D01*
X008059Y007925D01*
X007834Y007925D01*
X008295Y007850D02*
X008370Y007925D01*
X008520Y007925D01*
X008595Y007850D01*
X008595Y007775D01*
X008295Y007475D01*
X008595Y007475D01*
X008435Y006606D02*
X008735Y006306D01*
X008660Y006381D02*
X008885Y006606D01*
X008885Y006306D02*
X008435Y006306D01*
X008435Y006146D02*
X008510Y006146D01*
X008810Y005846D01*
X008885Y005846D01*
X008885Y005690D02*
X008885Y005615D01*
X008810Y005615D01*
X008810Y005690D01*
X008885Y005690D01*
X008885Y005380D02*
X008435Y005380D01*
X008660Y005155D01*
X008660Y005455D01*
X008435Y005846D02*
X008435Y006146D01*
X007265Y005300D02*
X007190Y005375D01*
X007040Y005375D01*
X006965Y005300D01*
X006804Y005300D02*
X006804Y005150D01*
X006729Y005075D01*
X006504Y005075D01*
X006504Y004925D02*
X006504Y005375D01*
X006729Y005375D01*
X006804Y005300D01*
X006654Y005075D02*
X006804Y004925D01*
X006965Y004925D02*
X007265Y005225D01*
X007265Y005300D01*
X007265Y004925D02*
X006965Y004925D01*
X010004Y007425D02*
X010004Y007875D01*
X010229Y007875D01*
X010304Y007800D01*
X010304Y007650D01*
X010229Y007575D01*
X010004Y007575D01*
X010154Y007575D02*
X010304Y007425D01*
X010465Y007500D02*
X010540Y007425D01*
X010690Y007425D01*
X010765Y007500D01*
X010765Y007575D01*
X010690Y007650D01*
X010465Y007650D01*
X010465Y007500D01*
X010465Y007650D02*
X010615Y007800D01*
X010765Y007875D01*
X010765Y008705D02*
X010540Y008930D01*
X010465Y008855D02*
X010765Y009155D01*
X010465Y009155D02*
X010465Y008705D01*
X010304Y008780D02*
X010229Y008705D01*
X010079Y008705D01*
X010004Y008780D01*
X010304Y009080D01*
X010304Y008780D01*
X010004Y008780D02*
X010004Y009080D01*
X010079Y009155D01*
X010229Y009155D01*
X010304Y009080D01*
X009844Y008705D02*
X009544Y008705D01*
X009694Y008705D02*
X009694Y009155D01*
X009544Y009005D01*
X008666Y008825D02*
X008365Y008825D01*
X008516Y008825D02*
X008516Y009275D01*
X008365Y009125D01*
X008205Y009200D02*
X008130Y009275D01*
X007905Y009275D01*
X007905Y008825D01*
X008130Y008825D01*
X008205Y008900D01*
X008205Y009200D01*
X013005Y011305D02*
X013005Y011530D01*
X013080Y011605D01*
X013230Y011605D01*
X013305Y011530D01*
X013305Y011305D01*
X013455Y011305D02*
X013005Y011305D01*
X013305Y011455D02*
X013455Y011605D01*
X013455Y011765D02*
X013455Y012066D01*
X013455Y011916D02*
X013005Y011916D01*
X013155Y011765D01*
X014285Y011765D02*
X014285Y012066D01*
X014360Y012066D01*
X014660Y011765D01*
X014735Y011765D01*
X014735Y011530D02*
X014285Y011530D01*
X014510Y011305D01*
X014510Y011605D01*
X015085Y011825D02*
X015265Y011825D01*
X015355Y011915D01*
X015265Y012005D01*
X015085Y012005D01*
X015220Y012120D02*
X015175Y012165D01*
X015175Y012300D01*
X015220Y012414D02*
X015175Y012459D01*
X015175Y012594D01*
X015355Y012594D02*
X015355Y012459D01*
X015310Y012414D01*
X015220Y012414D01*
X015355Y012300D02*
X015355Y012165D01*
X015310Y012120D01*
X015220Y012120D01*
X014735Y012301D02*
X014735Y012451D01*
X014660Y012526D01*
X014360Y012526D01*
X014660Y012226D01*
X014735Y012301D01*
X014660Y012226D02*
X014360Y012226D01*
X014285Y012301D01*
X014285Y012451D01*
X014360Y012526D01*
X015085Y013004D02*
X015085Y013139D01*
X015130Y013184D01*
X015220Y013184D01*
X015265Y013139D01*
X015265Y013004D01*
X015265Y013094D02*
X015355Y013184D01*
X015355Y013298D02*
X015175Y013478D01*
X015175Y013298D02*
X015355Y013478D01*
X015085Y013888D02*
X015085Y014068D01*
X015085Y013978D02*
X015355Y013978D01*
X015355Y014182D02*
X015175Y014362D01*
X015175Y014182D02*
X015355Y014362D01*
X015310Y014772D02*
X015130Y014772D01*
X015085Y014817D01*
X015085Y014907D01*
X015130Y014952D01*
X015220Y014952D02*
X015220Y014862D01*
X015220Y014952D02*
X015310Y014952D01*
X015355Y014907D01*
X015355Y014817D01*
X015310Y014772D01*
X015355Y015066D02*
X015175Y015066D01*
X015175Y015201D01*
X015220Y015246D01*
X015355Y015246D01*
X015310Y015361D02*
X015220Y015361D01*
X015175Y015406D01*
X015175Y015541D01*
X015085Y015541D02*
X015355Y015541D01*
X015355Y015406D01*
X015310Y015361D01*
X014836Y014975D02*
X014536Y014975D01*
X014686Y014975D02*
X014686Y015425D01*
X014536Y015275D01*
X014376Y015350D02*
X014301Y015425D01*
X014076Y015425D01*
X014076Y014975D01*
X014301Y014975D01*
X014376Y015050D01*
X014376Y015350D01*
X013916Y015425D02*
X013615Y015425D01*
X013615Y014975D01*
X013916Y014975D01*
X013766Y015200D02*
X013615Y015200D01*
X013455Y014975D02*
X013155Y014975D01*
X013155Y015425D01*
X015085Y013004D02*
X015355Y013004D01*
X015254Y010905D02*
X015554Y010905D01*
X015554Y010830D01*
X015254Y010530D01*
X015254Y010455D01*
X015099Y010455D02*
X015024Y010455D01*
X015024Y010530D01*
X015099Y010530D01*
X015099Y010455D01*
X014789Y010455D02*
X014789Y010905D01*
X014564Y010680D01*
X014864Y010680D01*
X015715Y010605D02*
X016015Y010905D01*
X015715Y010905D02*
X015715Y010455D01*
X015790Y010680D02*
X016015Y010455D01*
X015690Y009375D02*
X015465Y009150D01*
X015765Y009150D01*
X015690Y008925D02*
X015690Y009375D01*
X015304Y009300D02*
X015304Y009150D01*
X015229Y009075D01*
X015004Y009075D01*
X015004Y008925D02*
X015004Y009375D01*
X015229Y009375D01*
X015304Y009300D01*
X015154Y009075D02*
X015304Y008925D01*
X014146Y008950D02*
X014146Y008800D01*
X014071Y008725D01*
X013920Y008725D01*
X013845Y008800D01*
X013845Y008950D02*
X013996Y009025D01*
X014071Y009025D01*
X014146Y008950D01*
X014146Y009175D02*
X013845Y009175D01*
X013845Y008950D01*
X013685Y008950D02*
X013685Y009100D01*
X013610Y009175D01*
X013385Y009175D01*
X013385Y008725D01*
X013385Y008875D02*
X013610Y008875D01*
X013685Y008950D01*
X013535Y008875D02*
X013685Y008725D01*
X013535Y007795D02*
X013535Y007345D01*
X013385Y007345D02*
X013685Y007345D01*
X013845Y007345D02*
X013845Y007795D01*
X013920Y007570D02*
X014146Y007345D01*
X013845Y007495D02*
X014146Y007795D01*
X013535Y007795D02*
X013385Y007645D01*
X018655Y008150D02*
X018730Y008075D01*
X018880Y008075D01*
X018955Y008150D01*
X018955Y008450D01*
X018880Y008525D01*
X018730Y008525D01*
X018655Y008450D01*
X018655Y008150D01*
X018805Y008225D02*
X018955Y008075D01*
X019115Y008075D02*
X019416Y008075D01*
X019266Y008075D02*
X019266Y008525D01*
X019115Y008375D01*
X021405Y008900D02*
X021480Y008825D01*
X021630Y008825D01*
X021705Y008900D01*
X021705Y008975D01*
X021630Y009050D01*
X021480Y009050D01*
X021405Y009125D01*
X021405Y009200D01*
X021480Y009275D01*
X021630Y009275D01*
X021705Y009200D01*
X021865Y009125D02*
X022016Y009275D01*
X022016Y008825D01*
X022166Y008825D02*
X021865Y008825D01*
X024347Y010275D02*
X024797Y010275D01*
X024797Y010125D02*
X024797Y010426D01*
X024497Y010125D02*
X024347Y010275D01*
X024347Y014433D02*
X024572Y014433D01*
X024497Y014583D01*
X024497Y014658D01*
X024572Y014733D01*
X024722Y014733D01*
X024797Y014658D01*
X024797Y014508D01*
X024722Y014433D01*
X024347Y014433D02*
X024347Y014733D01*
X017075Y015009D02*
X017000Y014934D01*
X017075Y015009D02*
X017075Y015084D01*
X017000Y015159D01*
X016625Y015159D01*
X016625Y015084D02*
X016625Y015234D01*
X016700Y015395D02*
X016625Y015470D01*
X016625Y015620D01*
X016700Y015695D01*
X016775Y015695D01*
X016850Y015620D01*
X016925Y015695D01*
X017000Y015695D01*
X017075Y015620D01*
X017075Y015470D01*
X017000Y015395D01*
X016850Y015545D02*
X016850Y015620D01*
X018885Y005675D02*
X019110Y005675D01*
X019185Y005600D01*
X019185Y005450D01*
X019110Y005375D01*
X018885Y005375D01*
X018885Y005225D02*
X018885Y005675D01*
X019035Y005375D02*
X019185Y005225D01*
X019345Y005300D02*
X019420Y005225D01*
X019571Y005225D01*
X019646Y005300D01*
X019646Y005375D01*
X019571Y005450D01*
X019496Y005450D01*
X019571Y005450D02*
X019646Y005525D01*
X019646Y005600D01*
X019571Y005675D01*
X019420Y005675D01*
X019345Y005600D01*
X019576Y004395D02*
X019876Y004395D01*
X019876Y004320D01*
X019576Y004020D01*
X019576Y003945D01*
X019420Y003945D02*
X019345Y003945D01*
X019345Y004020D01*
X019420Y004020D01*
X019420Y003945D01*
X019110Y003945D02*
X019110Y004395D01*
X018885Y004170D01*
X019185Y004170D01*
X020036Y004095D02*
X020336Y004395D01*
X020036Y004395D02*
X020036Y003945D01*
X020111Y004170D02*
X020336Y003945D01*
D14*
X018380Y004800D02*
X018382Y004844D01*
X018388Y004888D01*
X018398Y004931D01*
X018411Y004973D01*
X018428Y005014D01*
X018449Y005053D01*
X018473Y005090D01*
X018500Y005125D01*
X018530Y005157D01*
X018563Y005187D01*
X018599Y005213D01*
X018636Y005237D01*
X018676Y005256D01*
X018717Y005273D01*
X018760Y005285D01*
X018803Y005294D01*
X018847Y005299D01*
X018891Y005300D01*
X018935Y005297D01*
X018979Y005290D01*
X019022Y005279D01*
X019064Y005265D01*
X019104Y005247D01*
X019143Y005225D01*
X019179Y005201D01*
X019213Y005173D01*
X019245Y005142D01*
X019274Y005108D01*
X019300Y005072D01*
X019322Y005034D01*
X019341Y004994D01*
X019356Y004952D01*
X019368Y004910D01*
X019376Y004866D01*
X019380Y004822D01*
X019380Y004778D01*
X019376Y004734D01*
X019368Y004690D01*
X019356Y004648D01*
X019341Y004606D01*
X019322Y004566D01*
X019300Y004528D01*
X019274Y004492D01*
X019245Y004458D01*
X019213Y004427D01*
X019179Y004399D01*
X019143Y004375D01*
X019104Y004353D01*
X019064Y004335D01*
X019022Y004321D01*
X018979Y004310D01*
X018935Y004303D01*
X018891Y004300D01*
X018847Y004301D01*
X018803Y004306D01*
X018760Y004315D01*
X018717Y004327D01*
X018676Y004344D01*
X018636Y004363D01*
X018599Y004387D01*
X018563Y004413D01*
X018530Y004443D01*
X018500Y004475D01*
X018473Y004510D01*
X018449Y004547D01*
X018428Y004586D01*
X018411Y004627D01*
X018398Y004669D01*
X018388Y004712D01*
X018382Y004756D01*
X018380Y004800D01*
X016603Y005262D02*
X016564Y005116D01*
X016379Y005010D01*
X016234Y005049D01*
X016219Y005287D02*
X016497Y005447D01*
X016603Y005262D02*
X016390Y005632D01*
X016244Y005671D01*
X016059Y005564D01*
X016020Y005419D01*
X016073Y005326D01*
X016219Y005287D01*
X015832Y005310D02*
X015778Y005402D01*
X015408Y005189D01*
X015273Y004988D02*
X015128Y005027D01*
X014943Y004920D01*
X014904Y004774D01*
X015117Y004404D01*
X015273Y004988D01*
X015487Y004618D01*
X015448Y004472D01*
X015263Y004365D01*
X015117Y004404D01*
X014929Y004295D02*
X014890Y004150D01*
X014705Y004043D01*
X014559Y004082D01*
X014452Y004267D01*
X014730Y004427D01*
X014875Y004388D01*
X014929Y004295D01*
X014452Y004267D02*
X014530Y004559D01*
X014662Y004758D01*
X014264Y004158D02*
X013894Y003945D01*
X014011Y004382D01*
X014331Y003827D01*
X013095Y003606D02*
X013002Y003553D01*
X012924Y003261D01*
X013031Y003076D02*
X012817Y003446D01*
X012682Y003245D02*
X012536Y003284D01*
X012351Y003177D01*
X012312Y003031D01*
X012419Y002847D01*
X012565Y002807D01*
X012750Y002914D01*
X012736Y003153D02*
X012366Y002939D01*
X012284Y002645D02*
X012007Y002485D01*
X011861Y002524D01*
X011754Y002709D01*
X011793Y002855D01*
X012071Y003015D01*
X011964Y003200D02*
X012284Y002645D01*
X012736Y003153D02*
X012682Y003245D01*
X011513Y002693D02*
X011421Y002640D01*
X011342Y002348D01*
X011449Y002163D02*
X011236Y002533D01*
X011101Y002332D02*
X010955Y002371D01*
X010770Y002264D01*
X010731Y002118D01*
X010838Y001933D01*
X010983Y001894D01*
X011168Y002001D01*
X011207Y002147D01*
X011101Y002332D01*
X015675Y004726D02*
X015729Y004634D01*
X015675Y004726D02*
X015832Y005310D01*
X016555Y007150D02*
X018205Y007150D01*
X018267Y007700D02*
X018425Y007700D01*
X018205Y007150D02*
X018242Y007201D01*
X018277Y007254D01*
X018309Y007310D01*
X018337Y007367D01*
X018361Y007426D01*
X018382Y007486D01*
X018399Y007547D01*
X018413Y007609D01*
X018422Y007672D01*
X018428Y007735D01*
X018430Y007799D01*
X018428Y007863D01*
X018422Y007926D01*
X018413Y007989D01*
X018400Y008051D01*
X018382Y008112D01*
X018362Y008172D01*
X018337Y008231D01*
X018310Y008288D01*
X018278Y008344D01*
X018244Y008397D01*
X018206Y008448D01*
X018165Y008497D01*
X018121Y008543D01*
X018075Y008587D01*
X018026Y008628D01*
X017975Y008665D01*
X017921Y008700D01*
X017866Y008731D01*
X017809Y008759D01*
X017750Y008783D01*
X017690Y008803D01*
X017070Y008803D02*
X017010Y008783D01*
X016951Y008759D01*
X016894Y008731D01*
X016839Y008700D01*
X016785Y008665D01*
X016734Y008628D01*
X016685Y008587D01*
X016639Y008543D01*
X016595Y008497D01*
X016554Y008448D01*
X016516Y008397D01*
X016482Y008344D01*
X016451Y008288D01*
X016423Y008231D01*
X016398Y008172D01*
X016378Y008112D01*
X016360Y008051D01*
X016347Y007989D01*
X016338Y007926D01*
X016332Y007863D01*
X016330Y007799D01*
X016332Y007735D01*
X016338Y007672D01*
X016347Y007609D01*
X016361Y007547D01*
X016378Y007486D01*
X016399Y007426D01*
X016423Y007367D01*
X016451Y007310D01*
X016483Y007254D01*
X016518Y007201D01*
X016555Y007150D01*
X016493Y007700D02*
X016335Y007700D01*
X014880Y009800D02*
X014882Y009844D01*
X014888Y009888D01*
X014898Y009931D01*
X014911Y009973D01*
X014928Y010014D01*
X014949Y010053D01*
X014973Y010090D01*
X015000Y010125D01*
X015030Y010157D01*
X015063Y010187D01*
X015099Y010213D01*
X015136Y010237D01*
X015176Y010256D01*
X015217Y010273D01*
X015260Y010285D01*
X015303Y010294D01*
X015347Y010299D01*
X015391Y010300D01*
X015435Y010297D01*
X015479Y010290D01*
X015522Y010279D01*
X015564Y010265D01*
X015604Y010247D01*
X015643Y010225D01*
X015679Y010201D01*
X015713Y010173D01*
X015745Y010142D01*
X015774Y010108D01*
X015800Y010072D01*
X015822Y010034D01*
X015841Y009994D01*
X015856Y009952D01*
X015868Y009910D01*
X015876Y009866D01*
X015880Y009822D01*
X015880Y009778D01*
X015876Y009734D01*
X015868Y009690D01*
X015856Y009648D01*
X015841Y009606D01*
X015822Y009566D01*
X015800Y009528D01*
X015774Y009492D01*
X015745Y009458D01*
X015713Y009427D01*
X015679Y009399D01*
X015643Y009375D01*
X015604Y009353D01*
X015564Y009335D01*
X015522Y009321D01*
X015479Y009310D01*
X015435Y009303D01*
X015391Y009300D01*
X015347Y009301D01*
X015303Y009306D01*
X015260Y009315D01*
X015217Y009327D01*
X015176Y009344D01*
X015136Y009363D01*
X015099Y009387D01*
X015063Y009413D01*
X015030Y009443D01*
X015000Y009475D01*
X014973Y009510D01*
X014949Y009547D01*
X014928Y009586D01*
X014911Y009627D01*
X014898Y009669D01*
X014888Y009712D01*
X014882Y009756D01*
X014880Y009800D01*
X013380Y010800D02*
X013382Y010844D01*
X013388Y010888D01*
X013398Y010931D01*
X013411Y010973D01*
X013428Y011014D01*
X013449Y011053D01*
X013473Y011090D01*
X013500Y011125D01*
X013530Y011157D01*
X013563Y011187D01*
X013599Y011213D01*
X013636Y011237D01*
X013676Y011256D01*
X013717Y011273D01*
X013760Y011285D01*
X013803Y011294D01*
X013847Y011299D01*
X013891Y011300D01*
X013935Y011297D01*
X013979Y011290D01*
X014022Y011279D01*
X014064Y011265D01*
X014104Y011247D01*
X014143Y011225D01*
X014179Y011201D01*
X014213Y011173D01*
X014245Y011142D01*
X014274Y011108D01*
X014300Y011072D01*
X014322Y011034D01*
X014341Y010994D01*
X014356Y010952D01*
X014368Y010910D01*
X014376Y010866D01*
X014380Y010822D01*
X014380Y010778D01*
X014376Y010734D01*
X014368Y010690D01*
X014356Y010648D01*
X014341Y010606D01*
X014322Y010566D01*
X014300Y010528D01*
X014274Y010492D01*
X014245Y010458D01*
X014213Y010427D01*
X014179Y010399D01*
X014143Y010375D01*
X014104Y010353D01*
X014064Y010335D01*
X014022Y010321D01*
X013979Y010310D01*
X013935Y010303D01*
X013891Y010300D01*
X013847Y010301D01*
X013803Y010306D01*
X013760Y010315D01*
X013717Y010327D01*
X013676Y010344D01*
X013636Y010363D01*
X013599Y010387D01*
X013563Y010413D01*
X013530Y010443D01*
X013500Y010475D01*
X013473Y010510D01*
X013449Y010547D01*
X013428Y010586D01*
X013411Y010627D01*
X013398Y010669D01*
X013388Y010712D01*
X013382Y010756D01*
X013380Y010800D01*
X015380Y012050D02*
X015380Y012550D01*
X015630Y012800D01*
X015380Y013050D01*
X015380Y013550D01*
X015630Y013800D01*
X015380Y014050D01*
X015380Y014550D01*
X015630Y014800D01*
X015380Y015050D01*
X015380Y015550D01*
X015630Y015800D01*
X016130Y015800D01*
X016380Y015550D01*
X016380Y015050D01*
X016130Y014800D01*
X016380Y014550D01*
X016380Y014050D01*
X016130Y013800D01*
X015630Y013800D01*
X016130Y013800D02*
X016380Y013550D01*
X016380Y013050D01*
X016130Y012800D01*
X016380Y012550D01*
X016380Y012050D01*
X016130Y011800D01*
X015630Y011800D01*
X015380Y012050D01*
X015630Y012800D02*
X016130Y012800D01*
X013512Y014274D02*
X013477Y014244D01*
X013444Y014213D01*
X013414Y014178D01*
X013387Y014142D01*
X013363Y014104D01*
X013341Y014064D01*
X013323Y014022D01*
X013307Y013979D01*
X013295Y013935D01*
X013287Y013891D01*
X013282Y013845D01*
X013280Y013800D01*
X014240Y014280D02*
X014276Y014251D01*
X014310Y014219D01*
X014341Y014184D01*
X014369Y014148D01*
X014394Y014109D01*
X014417Y014068D01*
X014436Y014026D01*
X014452Y013983D01*
X014464Y013938D01*
X014473Y013892D01*
X014478Y013846D01*
X014480Y013800D01*
X013512Y013326D02*
X013477Y013356D01*
X013444Y013387D01*
X013414Y013422D01*
X013387Y013458D01*
X013363Y013496D01*
X013341Y013536D01*
X013323Y013578D01*
X013307Y013621D01*
X013295Y013665D01*
X013287Y013709D01*
X013282Y013755D01*
X013280Y013800D01*
X014229Y013312D02*
X014266Y013341D01*
X014301Y013373D01*
X014334Y013408D01*
X014364Y013445D01*
X014390Y013484D01*
X014413Y013525D01*
X014434Y013569D01*
X014450Y013613D01*
X014463Y013659D01*
X014472Y013705D01*
X014478Y013753D01*
X014480Y013800D01*
X015630Y014800D02*
X016130Y014800D01*
X015887Y016330D02*
X015566Y016330D01*
X015566Y016971D01*
X015566Y016757D02*
X015887Y016757D01*
X015993Y016650D01*
X015993Y016437D01*
X015887Y016330D01*
X015349Y016544D02*
X015349Y016650D01*
X015242Y016757D01*
X015029Y016757D01*
X014922Y016650D01*
X014922Y016437D01*
X015029Y016330D01*
X015242Y016330D01*
X015349Y016544D02*
X014922Y016544D01*
X014491Y016650D02*
X014277Y016650D01*
X014277Y016330D02*
X014277Y016971D01*
X014704Y016971D01*
X013415Y016864D02*
X013415Y016437D01*
X013308Y016330D01*
X013095Y016330D01*
X012988Y016437D01*
X012988Y016864D01*
X013095Y016971D01*
X013308Y016971D01*
X013415Y016864D01*
X012771Y016864D02*
X012664Y016971D01*
X012450Y016971D01*
X012344Y016864D01*
X012344Y016437D01*
X012450Y016330D01*
X012664Y016330D01*
X012771Y016437D01*
X012771Y016650D01*
X012557Y016650D01*
X012126Y016330D02*
X012126Y016971D01*
X011699Y016971D02*
X012126Y016330D01*
X011699Y016330D02*
X011699Y016971D01*
X011482Y016971D02*
X011482Y016437D01*
X011375Y016330D01*
X011161Y016330D01*
X011055Y016437D01*
X011055Y016971D01*
X010837Y016971D02*
X010624Y016971D01*
X010730Y016971D02*
X010730Y016437D01*
X010624Y016330D01*
X010517Y016330D01*
X010410Y016437D01*
X012230Y015070D02*
X008530Y015070D01*
X008507Y015068D01*
X008484Y015063D01*
X008462Y015054D01*
X008442Y015041D01*
X008424Y015026D01*
X008409Y015008D01*
X008396Y014988D01*
X008387Y014966D01*
X008382Y014943D01*
X008380Y014920D01*
X008380Y014500D01*
X008380Y014100D01*
X008380Y013680D01*
X008382Y013657D01*
X008387Y013634D01*
X008396Y013612D01*
X008409Y013592D01*
X008424Y013574D01*
X008442Y013559D01*
X008462Y013546D01*
X008484Y013537D01*
X008507Y013532D01*
X008530Y013530D01*
X012230Y013530D01*
X012253Y013532D01*
X012276Y013537D01*
X012298Y013546D01*
X012318Y013559D01*
X012336Y013574D01*
X012351Y013592D01*
X012364Y013612D01*
X012373Y013634D01*
X012378Y013657D01*
X012380Y013680D01*
X012380Y014920D01*
X012378Y014943D01*
X012373Y014966D01*
X012364Y014988D01*
X012351Y015008D01*
X012336Y015026D01*
X012318Y015041D01*
X012298Y015054D01*
X012276Y015063D01*
X012253Y015068D01*
X012230Y015070D01*
X008380Y014500D02*
X008407Y014498D01*
X008434Y014493D01*
X008460Y014483D01*
X008484Y014471D01*
X008506Y014455D01*
X008526Y014437D01*
X008543Y014415D01*
X008558Y014392D01*
X008568Y014367D01*
X008576Y014341D01*
X008580Y014314D01*
X008580Y014286D01*
X008576Y014259D01*
X008568Y014233D01*
X008558Y014208D01*
X008543Y014185D01*
X008526Y014163D01*
X008506Y014145D01*
X008484Y014129D01*
X008460Y014117D01*
X008434Y014107D01*
X008407Y014102D01*
X008380Y014100D01*
X004180Y016357D02*
X004180Y008743D01*
X004180Y008750D02*
X004178Y008720D01*
X004173Y008690D01*
X004164Y008661D01*
X004151Y008634D01*
X004136Y008608D01*
X004117Y008584D01*
X004096Y008563D01*
X004072Y008544D01*
X004046Y008529D01*
X004019Y008516D01*
X003990Y008507D01*
X003960Y008502D01*
X003930Y008500D01*
X002980Y008500D01*
X002980Y008450D01*
X002780Y008450D01*
X002659Y009100D02*
X002657Y009130D01*
X002652Y009160D01*
X002643Y009189D01*
X002630Y009216D01*
X002615Y009242D01*
X002596Y009266D01*
X002575Y009287D01*
X002551Y009306D01*
X002525Y009321D01*
X002498Y009334D01*
X002469Y009343D01*
X002439Y009348D01*
X002409Y009350D01*
X000330Y009350D01*
X000304Y009352D01*
X000278Y009357D01*
X000253Y009365D01*
X000230Y009377D01*
X000208Y009391D01*
X000189Y009409D01*
X000171Y009428D01*
X000157Y009450D01*
X000145Y009473D01*
X000137Y009498D01*
X000132Y009524D01*
X000130Y009550D01*
X000130Y015550D01*
X000132Y015576D01*
X000137Y015602D01*
X000145Y015627D01*
X000157Y015650D01*
X000171Y015672D01*
X000189Y015691D01*
X000208Y015709D01*
X000230Y015723D01*
X000253Y015735D01*
X000278Y015743D01*
X000304Y015748D01*
X000330Y015750D01*
X002409Y015750D01*
X002439Y015752D01*
X002469Y015757D01*
X002498Y015766D01*
X002525Y015779D01*
X002551Y015794D01*
X002575Y015813D01*
X002596Y015834D01*
X002615Y015858D01*
X002630Y015884D01*
X002643Y015911D01*
X002652Y015940D01*
X002657Y015970D01*
X002659Y016000D01*
X002780Y016650D02*
X002980Y016650D01*
X002980Y016600D01*
X003930Y016600D01*
X003960Y016598D01*
X003990Y016593D01*
X004019Y016584D01*
X004046Y016571D01*
X004072Y016556D01*
X004096Y016537D01*
X004117Y016516D01*
X004136Y016492D01*
X004151Y016466D01*
X004164Y016439D01*
X004173Y016410D01*
X004178Y016380D01*
X004180Y016350D01*
X005080Y009250D02*
X005680Y009250D01*
X005697Y009248D01*
X005714Y009244D01*
X005730Y009237D01*
X005744Y009227D01*
X005757Y009214D01*
X005767Y009200D01*
X005774Y009184D01*
X005778Y009167D01*
X005780Y009150D01*
X005780Y007450D01*
X005778Y007433D01*
X005774Y007416D01*
X005767Y007400D01*
X005757Y007386D01*
X005744Y007373D01*
X005730Y007363D01*
X005714Y007356D01*
X005697Y007352D01*
X005680Y007350D01*
X005080Y007350D01*
X005063Y007352D01*
X005046Y007356D01*
X005030Y007363D01*
X005016Y007373D01*
X005003Y007386D01*
X004993Y007400D01*
X004986Y007416D01*
X004982Y007433D01*
X004980Y007450D01*
X004980Y009150D01*
X004982Y009167D01*
X004986Y009184D01*
X004993Y009200D01*
X005003Y009214D01*
X005016Y009227D01*
X005030Y009237D01*
X005046Y009244D01*
X005063Y009248D01*
X005080Y009250D01*
X007280Y008300D02*
X007330Y008300D01*
X007330Y007950D01*
X008430Y007950D01*
X008430Y008300D01*
X008430Y008650D01*
X007330Y008650D01*
X007330Y008300D01*
X008430Y008300D02*
X008480Y008300D01*
X008430Y007400D02*
X007330Y007400D01*
X007330Y007050D01*
X007330Y006700D01*
X008430Y006700D01*
X008430Y007050D01*
X008430Y007400D01*
X008430Y007050D02*
X008480Y007050D01*
X007330Y007050D02*
X007280Y007050D01*
X007380Y005800D02*
X007382Y005844D01*
X007388Y005888D01*
X007398Y005931D01*
X007411Y005973D01*
X007428Y006014D01*
X007449Y006053D01*
X007473Y006090D01*
X007500Y006125D01*
X007530Y006157D01*
X007563Y006187D01*
X007599Y006213D01*
X007636Y006237D01*
X007676Y006256D01*
X007717Y006273D01*
X007760Y006285D01*
X007803Y006294D01*
X007847Y006299D01*
X007891Y006300D01*
X007935Y006297D01*
X007979Y006290D01*
X008022Y006279D01*
X008064Y006265D01*
X008104Y006247D01*
X008143Y006225D01*
X008179Y006201D01*
X008213Y006173D01*
X008245Y006142D01*
X008274Y006108D01*
X008300Y006072D01*
X008322Y006034D01*
X008341Y005994D01*
X008356Y005952D01*
X008368Y005910D01*
X008376Y005866D01*
X008380Y005822D01*
X008380Y005778D01*
X008376Y005734D01*
X008368Y005690D01*
X008356Y005648D01*
X008341Y005606D01*
X008322Y005566D01*
X008300Y005528D01*
X008274Y005492D01*
X008245Y005458D01*
X008213Y005427D01*
X008179Y005399D01*
X008143Y005375D01*
X008104Y005353D01*
X008064Y005335D01*
X008022Y005321D01*
X007979Y005310D01*
X007935Y005303D01*
X007891Y005300D01*
X007847Y005301D01*
X007803Y005306D01*
X007760Y005315D01*
X007717Y005327D01*
X007676Y005344D01*
X007636Y005363D01*
X007599Y005387D01*
X007563Y005413D01*
X007530Y005443D01*
X007500Y005475D01*
X007473Y005510D01*
X007449Y005547D01*
X007428Y005586D01*
X007411Y005627D01*
X007398Y005669D01*
X007388Y005712D01*
X007382Y005756D01*
X007380Y005800D01*
X005380Y005200D02*
X005335Y005202D01*
X005289Y005207D01*
X005245Y005215D01*
X005201Y005227D01*
X005158Y005243D01*
X005116Y005261D01*
X005076Y005283D01*
X005038Y005307D01*
X005002Y005334D01*
X004967Y005364D01*
X004936Y005397D01*
X004906Y005432D01*
X005380Y006400D02*
X005427Y006398D01*
X005475Y006392D01*
X005521Y006383D01*
X005567Y006370D01*
X005611Y006354D01*
X005655Y006333D01*
X005696Y006310D01*
X005735Y006284D01*
X005772Y006254D01*
X005807Y006221D01*
X005839Y006186D01*
X005868Y006149D01*
X005380Y006400D02*
X005334Y006398D01*
X005288Y006393D01*
X005242Y006384D01*
X005197Y006372D01*
X005154Y006356D01*
X005112Y006337D01*
X005071Y006314D01*
X005032Y006289D01*
X004996Y006261D01*
X004961Y006230D01*
X004929Y006196D01*
X004900Y006160D01*
X005380Y005200D02*
X005425Y005202D01*
X005471Y005207D01*
X005515Y005215D01*
X005559Y005227D01*
X005602Y005243D01*
X005644Y005261D01*
X005684Y005283D01*
X005722Y005307D01*
X005758Y005334D01*
X005793Y005364D01*
X005824Y005397D01*
X005854Y005432D01*
X010880Y008300D02*
X010882Y008344D01*
X010888Y008388D01*
X010898Y008431D01*
X010911Y008473D01*
X010928Y008514D01*
X010949Y008553D01*
X010973Y008590D01*
X011000Y008625D01*
X011030Y008657D01*
X011063Y008687D01*
X011099Y008713D01*
X011136Y008737D01*
X011176Y008756D01*
X011217Y008773D01*
X011260Y008785D01*
X011303Y008794D01*
X011347Y008799D01*
X011391Y008800D01*
X011435Y008797D01*
X011479Y008790D01*
X011522Y008779D01*
X011564Y008765D01*
X011604Y008747D01*
X011643Y008725D01*
X011679Y008701D01*
X011713Y008673D01*
X011745Y008642D01*
X011774Y008608D01*
X011800Y008572D01*
X011822Y008534D01*
X011841Y008494D01*
X011856Y008452D01*
X011868Y008410D01*
X011876Y008366D01*
X011880Y008322D01*
X011880Y008278D01*
X011876Y008234D01*
X011868Y008190D01*
X011856Y008148D01*
X011841Y008106D01*
X011822Y008066D01*
X011800Y008028D01*
X011774Y007992D01*
X011745Y007958D01*
X011713Y007927D01*
X011679Y007899D01*
X011643Y007875D01*
X011604Y007853D01*
X011564Y007835D01*
X011522Y007821D01*
X011479Y007810D01*
X011435Y007803D01*
X011391Y007800D01*
X011347Y007801D01*
X011303Y007806D01*
X011260Y007815D01*
X011217Y007827D01*
X011176Y007844D01*
X011136Y007863D01*
X011099Y007887D01*
X011063Y007913D01*
X011030Y007943D01*
X011000Y007975D01*
X010973Y008010D01*
X010949Y008047D01*
X010928Y008086D01*
X010911Y008127D01*
X010898Y008169D01*
X010888Y008212D01*
X010882Y008256D01*
X010880Y008300D01*
X012880Y008300D02*
X012882Y008344D01*
X012888Y008388D01*
X012898Y008431D01*
X012911Y008473D01*
X012928Y008514D01*
X012949Y008553D01*
X012973Y008590D01*
X013000Y008625D01*
X013030Y008657D01*
X013063Y008687D01*
X013099Y008713D01*
X013136Y008737D01*
X013176Y008756D01*
X013217Y008773D01*
X013260Y008785D01*
X013303Y008794D01*
X013347Y008799D01*
X013391Y008800D01*
X013435Y008797D01*
X013479Y008790D01*
X013522Y008779D01*
X013564Y008765D01*
X013604Y008747D01*
X013643Y008725D01*
X013679Y008701D01*
X013713Y008673D01*
X013745Y008642D01*
X013774Y008608D01*
X013800Y008572D01*
X013822Y008534D01*
X013841Y008494D01*
X013856Y008452D01*
X013868Y008410D01*
X013876Y008366D01*
X013880Y008322D01*
X013880Y008278D01*
X013876Y008234D01*
X013868Y008190D01*
X013856Y008148D01*
X013841Y008106D01*
X013822Y008066D01*
X013800Y008028D01*
X013774Y007992D01*
X013745Y007958D01*
X013713Y007927D01*
X013679Y007899D01*
X013643Y007875D01*
X013604Y007853D01*
X013564Y007835D01*
X013522Y007821D01*
X013479Y007810D01*
X013435Y007803D01*
X013391Y007800D01*
X013347Y007801D01*
X013303Y007806D01*
X013260Y007815D01*
X013217Y007827D01*
X013176Y007844D01*
X013136Y007863D01*
X013099Y007887D01*
X013063Y007913D01*
X013030Y007943D01*
X013000Y007975D01*
X012973Y008010D01*
X012949Y008047D01*
X012928Y008086D01*
X012911Y008127D01*
X012898Y008169D01*
X012888Y008212D01*
X012882Y008256D01*
X012880Y008300D01*
X022380Y005400D02*
X022425Y005398D01*
X022471Y005393D01*
X022515Y005385D01*
X022559Y005373D01*
X022602Y005357D01*
X022644Y005339D01*
X022684Y005317D01*
X022722Y005293D01*
X022758Y005266D01*
X022793Y005236D01*
X022824Y005203D01*
X022854Y005168D01*
X022380Y004200D02*
X022333Y004202D01*
X022285Y004208D01*
X022239Y004217D01*
X022193Y004230D01*
X022149Y004246D01*
X022105Y004267D01*
X022064Y004290D01*
X022025Y004316D01*
X021988Y004346D01*
X021953Y004379D01*
X021921Y004414D01*
X021892Y004451D01*
X022380Y004200D02*
X022426Y004202D01*
X022472Y004207D01*
X022518Y004216D01*
X022563Y004228D01*
X022606Y004244D01*
X022648Y004263D01*
X022689Y004286D01*
X022728Y004311D01*
X022764Y004339D01*
X022799Y004370D01*
X022831Y004404D01*
X022860Y004440D01*
X022380Y005400D02*
X022335Y005398D01*
X022289Y005393D01*
X022245Y005385D01*
X022201Y005373D01*
X022158Y005357D01*
X022116Y005339D01*
X022076Y005317D01*
X022038Y005293D01*
X022002Y005266D01*
X021967Y005236D01*
X021936Y005203D01*
X021906Y005168D01*
X025380Y008450D02*
X025380Y008500D01*
X024430Y008500D01*
X024400Y008502D01*
X024370Y008507D01*
X024341Y008516D01*
X024314Y008529D01*
X024288Y008544D01*
X024264Y008563D01*
X024243Y008584D01*
X024224Y008608D01*
X024209Y008634D01*
X024196Y008661D01*
X024187Y008690D01*
X024182Y008720D01*
X024180Y008750D01*
X024180Y008743D02*
X024180Y016357D01*
X024180Y016350D02*
X024182Y016380D01*
X024187Y016410D01*
X024196Y016439D01*
X024209Y016466D01*
X024224Y016492D01*
X024243Y016516D01*
X024264Y016537D01*
X024288Y016556D01*
X024314Y016571D01*
X024341Y016584D01*
X024370Y016593D01*
X024400Y016598D01*
X024430Y016600D01*
X025380Y016600D01*
X025380Y016650D01*
X025580Y016650D01*
X025724Y016250D02*
X025726Y016220D01*
X025731Y016190D01*
X025740Y016161D01*
X025753Y016134D01*
X025768Y016108D01*
X025787Y016084D01*
X025808Y016063D01*
X025832Y016044D01*
X025858Y016029D01*
X025885Y016016D01*
X025914Y016007D01*
X025944Y016002D01*
X025974Y016000D01*
X027824Y016000D01*
X027850Y015998D01*
X027876Y015993D01*
X027901Y015985D01*
X027924Y015973D01*
X027946Y015959D01*
X027965Y015941D01*
X027983Y015922D01*
X027997Y015900D01*
X028009Y015877D01*
X028017Y015852D01*
X028022Y015826D01*
X028024Y015800D01*
X028024Y009300D01*
X028022Y009274D01*
X028017Y009248D01*
X028009Y009223D01*
X027997Y009200D01*
X027983Y009178D01*
X027965Y009159D01*
X027946Y009141D01*
X027924Y009127D01*
X027901Y009115D01*
X027876Y009107D01*
X027850Y009102D01*
X027824Y009100D01*
X025974Y009100D01*
X025944Y009098D01*
X025914Y009093D01*
X025885Y009084D01*
X025858Y009071D01*
X025832Y009056D01*
X025808Y009037D01*
X025787Y009016D01*
X025768Y008992D01*
X025753Y008966D01*
X025740Y008939D01*
X025731Y008910D01*
X025726Y008880D01*
X025724Y008850D01*
X025580Y008450D02*
X025380Y008450D01*
X026624Y010550D02*
X027524Y010550D01*
X026624Y010550D02*
X026624Y011450D01*
X027524Y011450D01*
X027524Y012100D02*
X026624Y012100D01*
X026624Y013000D01*
X027524Y013000D01*
X027524Y013650D02*
X026624Y013650D01*
X026624Y014550D01*
X027524Y014550D01*
X019216Y016330D02*
X018789Y016330D01*
X019216Y016757D01*
X019216Y016864D01*
X019109Y016971D01*
X018896Y016971D01*
X018789Y016864D01*
X018358Y016971D02*
X018358Y016330D01*
X018145Y016330D02*
X018572Y016330D01*
X017927Y016437D02*
X017820Y016330D01*
X017607Y016330D01*
X017500Y016437D01*
X017927Y016864D01*
X017927Y016437D01*
X017500Y016437D02*
X017500Y016864D01*
X017607Y016971D01*
X017820Y016971D01*
X017927Y016864D01*
X018145Y016757D02*
X018358Y016971D01*
X017283Y016864D02*
X017176Y016971D01*
X016962Y016971D01*
X016855Y016864D01*
X017283Y016864D02*
X017283Y016757D01*
X016855Y016330D01*
X017283Y016330D01*
D15*
X013483Y014495D02*
X013435Y014465D01*
X013390Y014432D01*
X013347Y014396D01*
X013306Y014358D01*
X013269Y014316D01*
X013234Y014272D01*
X013203Y014226D01*
X013174Y014177D01*
X013150Y014127D01*
X013129Y014075D01*
X013111Y014021D01*
X013098Y013967D01*
X013088Y013912D01*
X013082Y013856D01*
X013080Y013800D01*
X014256Y014506D02*
X014303Y014479D01*
X014348Y014449D01*
X014391Y014416D01*
X014431Y014380D01*
X014469Y014341D01*
X014504Y014300D01*
X014537Y014257D01*
X014566Y014212D01*
X014592Y014164D01*
X014615Y014115D01*
X014635Y014065D01*
X014651Y014014D01*
X014664Y013961D01*
X014673Y013908D01*
X014678Y013854D01*
X014680Y013800D01*
X013363Y013189D02*
X013324Y013225D01*
X013286Y013264D01*
X013252Y013304D01*
X013220Y013347D01*
X013192Y013392D01*
X013166Y013439D01*
X013143Y013488D01*
X013124Y013538D01*
X013108Y013589D01*
X013096Y013641D01*
X013087Y013693D01*
X013082Y013747D01*
X013080Y013800D01*
X014392Y013185D02*
X014432Y013221D01*
X014470Y013260D01*
X014505Y013301D01*
X014537Y013344D01*
X014567Y013389D01*
X014593Y013436D01*
X014615Y013485D01*
X014635Y013536D01*
X014651Y013587D01*
X014664Y013639D01*
X014673Y013693D01*
X014678Y013746D01*
X014680Y013800D01*
X006030Y006300D02*
X006030Y005300D01*
X005380Y006600D02*
X005326Y006598D01*
X005272Y006593D01*
X005219Y006584D01*
X005166Y006571D01*
X005115Y006555D01*
X005065Y006535D01*
X005016Y006512D01*
X004968Y006486D01*
X004923Y006457D01*
X004880Y006424D01*
X004839Y006389D01*
X004800Y006351D01*
X004764Y006311D01*
X004731Y006268D01*
X004701Y006223D01*
X004674Y006176D01*
X004685Y005403D02*
X004715Y005355D01*
X004748Y005310D01*
X004784Y005267D01*
X004822Y005226D01*
X004864Y005189D01*
X004908Y005154D01*
X004954Y005123D01*
X005003Y005094D01*
X005053Y005070D01*
X005105Y005049D01*
X005159Y005031D01*
X005213Y005018D01*
X005268Y005008D01*
X005324Y005002D01*
X005380Y005000D01*
X005433Y005002D01*
X005487Y005007D01*
X005539Y005016D01*
X005591Y005028D01*
X005642Y005044D01*
X005692Y005063D01*
X005741Y005086D01*
X005788Y005112D01*
X005833Y005140D01*
X005876Y005172D01*
X005916Y005206D01*
X005955Y005244D01*
X005991Y005283D01*
X005995Y006312D02*
X005959Y006352D01*
X005920Y006390D01*
X005879Y006425D01*
X005836Y006457D01*
X005791Y006487D01*
X005744Y006513D01*
X005695Y006535D01*
X005644Y006555D01*
X005593Y006571D01*
X005541Y006584D01*
X005487Y006593D01*
X005434Y006598D01*
X005380Y006600D01*
X021780Y005300D02*
X021780Y004300D01*
X022380Y004000D02*
X022434Y004002D01*
X022488Y004007D01*
X022541Y004016D01*
X022594Y004029D01*
X022645Y004045D01*
X022695Y004065D01*
X022744Y004088D01*
X022792Y004114D01*
X022837Y004143D01*
X022880Y004176D01*
X022921Y004211D01*
X022960Y004249D01*
X022996Y004289D01*
X023029Y004332D01*
X023059Y004377D01*
X023086Y004424D01*
X023075Y005197D02*
X023045Y005245D01*
X023012Y005290D01*
X022976Y005333D01*
X022938Y005374D01*
X022896Y005411D01*
X022852Y005446D01*
X022806Y005477D01*
X022757Y005506D01*
X022707Y005530D01*
X022655Y005551D01*
X022601Y005569D01*
X022547Y005582D01*
X022492Y005592D01*
X022436Y005598D01*
X022380Y005600D01*
X022327Y005598D01*
X022273Y005593D01*
X022221Y005584D01*
X022169Y005572D01*
X022118Y005556D01*
X022068Y005537D01*
X022019Y005514D01*
X021972Y005488D01*
X021927Y005460D01*
X021884Y005428D01*
X021844Y005394D01*
X021805Y005356D01*
X021769Y005317D01*
X021765Y004288D02*
X021801Y004248D01*
X021840Y004210D01*
X021881Y004175D01*
X021924Y004143D01*
X021969Y004113D01*
X022016Y004087D01*
X022065Y004065D01*
X022116Y004045D01*
X022167Y004029D01*
X022219Y004016D01*
X022273Y004007D01*
X022326Y004002D01*
X022380Y004000D01*
D16*
X019707Y003550D02*
X019400Y003550D01*
X019553Y003397D02*
X019553Y003704D01*
X019400Y002050D02*
X019707Y002050D01*
X019707Y000780D02*
X019553Y000780D01*
X019630Y000780D02*
X019630Y000397D01*
X019553Y000320D01*
X019477Y000320D01*
X019400Y000397D01*
X019860Y000397D02*
X019937Y000320D01*
X020091Y000320D01*
X020167Y000397D01*
X020167Y000473D01*
X020091Y000550D01*
X019860Y000550D01*
X019860Y000397D01*
X019860Y000550D02*
X020014Y000704D01*
X020167Y000780D01*
X017247Y002820D02*
X016940Y002820D01*
X017093Y002820D02*
X017093Y003280D01*
X016940Y003127D01*
X016786Y003280D02*
X016479Y002973D01*
X016556Y003050D02*
X016786Y002820D01*
X016479Y002820D02*
X016479Y003280D01*
X009860Y003976D02*
X009860Y004053D01*
X009783Y004129D01*
X009400Y004129D01*
X009400Y004053D02*
X009400Y004206D01*
X009400Y004360D02*
X009630Y004360D01*
X009553Y004513D01*
X009553Y004590D01*
X009630Y004667D01*
X009783Y004667D01*
X009860Y004590D01*
X009860Y004436D01*
X009783Y004360D01*
X009400Y004360D02*
X009400Y004667D01*
X009860Y003976D02*
X009783Y003899D01*
X007192Y007320D02*
X007018Y007320D01*
X006931Y007407D01*
X007018Y007580D02*
X007192Y007580D01*
X007278Y007493D01*
X007278Y007407D01*
X007192Y007320D01*
X007018Y007580D02*
X006931Y007667D01*
X006931Y007754D01*
X007018Y007840D01*
X007192Y007840D01*
X007278Y007754D01*
X006763Y007840D02*
X006416Y007840D01*
X006589Y007840D02*
X006589Y007320D01*
X006247Y007320D02*
X006073Y007493D01*
X006160Y007493D02*
X005900Y007493D01*
X005900Y007320D02*
X005900Y007840D01*
X006160Y007840D01*
X006247Y007754D01*
X006247Y007580D01*
X006160Y007493D01*
X006160Y008820D02*
X005900Y008820D01*
X005900Y009340D01*
X006160Y009340D01*
X006247Y009254D01*
X006247Y008907D01*
X006160Y008820D01*
X006589Y008820D02*
X006589Y009340D01*
X006416Y009340D02*
X006763Y009340D01*
X006931Y009340D02*
X007192Y009340D01*
X007278Y009254D01*
X007278Y009080D01*
X007192Y008993D01*
X006931Y008993D01*
X006931Y008820D02*
X006931Y009340D01*
X007105Y008993D02*
X007278Y008820D01*
X006783Y009820D02*
X006476Y009820D01*
X006400Y009897D01*
X006400Y010050D01*
X006476Y010127D01*
X006553Y010280D02*
X006400Y010434D01*
X006860Y010434D01*
X006860Y010587D02*
X006860Y010280D01*
X006783Y010127D02*
X006860Y010050D01*
X006860Y009897D01*
X006783Y009820D01*
X007900Y009897D02*
X007976Y009820D01*
X008283Y009820D01*
X008360Y009897D01*
X008360Y010050D01*
X008283Y010127D01*
X008360Y010280D02*
X008053Y010587D01*
X007976Y010587D01*
X007900Y010511D01*
X007900Y010357D01*
X007976Y010280D01*
X007976Y010127D02*
X007900Y010050D01*
X007900Y009897D01*
X008360Y010280D02*
X008360Y010587D01*
X009400Y010511D02*
X009400Y010357D01*
X009476Y010280D01*
X009476Y010127D02*
X009400Y010050D01*
X009400Y009897D01*
X009476Y009820D01*
X009783Y009820D01*
X009860Y009897D01*
X009860Y010050D01*
X009783Y010127D01*
X009783Y010280D02*
X009860Y010357D01*
X009860Y010511D01*
X009783Y010587D01*
X009707Y010587D01*
X009630Y010511D01*
X009630Y010434D01*
X009630Y010511D02*
X009553Y010587D01*
X009476Y010587D01*
X009400Y010511D01*
X010900Y010511D02*
X011130Y010280D01*
X011130Y010587D01*
X011360Y010511D02*
X010900Y010511D01*
X010976Y010127D02*
X010900Y010050D01*
X010900Y009897D01*
X010976Y009820D01*
X011283Y009820D01*
X011360Y009897D01*
X011360Y010050D01*
X011283Y010127D01*
X006483Y015320D02*
X006176Y015320D01*
X006100Y015397D01*
X006100Y015550D01*
X006176Y015627D01*
X006100Y015780D02*
X006330Y015780D01*
X006253Y015934D01*
X006253Y016011D01*
X006330Y016087D01*
X006483Y016087D01*
X006560Y016011D01*
X006560Y015857D01*
X006483Y015780D01*
X006483Y015627D02*
X006560Y015550D01*
X006560Y015397D01*
X006483Y015320D01*
X006100Y015780D02*
X006100Y016087D01*
D17*
X008380Y013670D02*
X012380Y013670D01*
D18*
X013880Y011400D02*
X013880Y011200D01*
X014780Y009800D02*
X014980Y009800D01*
X013980Y008300D02*
X013780Y008300D01*
X010980Y008300D02*
X010780Y008300D01*
X007480Y005800D02*
X007280Y005800D01*
X019280Y004800D02*
X019480Y004800D01*
D19*
X006415Y001607D02*
X003286Y001607D01*
X003286Y004993D01*
X008915Y004993D01*
X008915Y004363D01*
X008915Y002237D02*
X008915Y001607D01*
X008286Y001607D01*
X009589Y000930D02*
X009589Y006670D01*
X009591Y006699D01*
X009596Y006727D01*
X009605Y006755D01*
X009616Y006782D01*
X009631Y006806D01*
X009649Y006829D01*
X009670Y006850D01*
X009693Y006868D01*
X009717Y006883D01*
X009744Y006894D01*
X009772Y006903D01*
X009800Y006908D01*
X009829Y006910D01*
X017931Y006910D01*
X017960Y006908D01*
X017988Y006903D01*
X018016Y006894D01*
X018043Y006883D01*
X018067Y006868D01*
X018090Y006850D01*
X018111Y006829D01*
X018129Y006806D01*
X018144Y006782D01*
X018155Y006755D01*
X018164Y006727D01*
X018169Y006699D01*
X018171Y006670D01*
X018171Y000930D01*
X018169Y000901D01*
X018164Y000873D01*
X018155Y000845D01*
X018144Y000818D01*
X018129Y000794D01*
X018111Y000771D01*
X018090Y000750D01*
X018067Y000732D01*
X018043Y000717D01*
X018016Y000706D01*
X017988Y000697D01*
X017960Y000692D01*
X017931Y000690D01*
X009829Y000690D01*
X009800Y000692D01*
X009772Y000697D01*
X009744Y000706D01*
X009717Y000717D01*
X009693Y000732D01*
X009670Y000750D01*
X009649Y000771D01*
X009631Y000794D01*
X009616Y000818D01*
X009605Y000845D01*
X009596Y000873D01*
X009591Y000901D01*
X009589Y000930D01*
X020180Y006907D02*
X020180Y007700D01*
X020530Y008500D02*
X022230Y008500D01*
X022580Y007700D02*
X022580Y006895D01*
X022230Y006100D02*
X020530Y006100D01*
X020680Y007300D02*
X020682Y007352D01*
X020688Y007404D01*
X020698Y007456D01*
X020711Y007506D01*
X020728Y007556D01*
X020749Y007604D01*
X020774Y007650D01*
X020802Y007694D01*
X020833Y007736D01*
X020867Y007776D01*
X020904Y007813D01*
X020944Y007847D01*
X020986Y007878D01*
X021030Y007906D01*
X021076Y007931D01*
X021124Y007952D01*
X021174Y007969D01*
X021224Y007982D01*
X021276Y007992D01*
X021328Y007998D01*
X021380Y008000D01*
X021432Y007998D01*
X021484Y007992D01*
X021536Y007982D01*
X021586Y007969D01*
X021636Y007952D01*
X021684Y007931D01*
X021730Y007906D01*
X021774Y007878D01*
X021816Y007847D01*
X021856Y007813D01*
X021893Y007776D01*
X021927Y007736D01*
X021958Y007694D01*
X021986Y007650D01*
X022011Y007604D01*
X022032Y007556D01*
X022049Y007506D01*
X022062Y007456D01*
X022072Y007404D01*
X022078Y007352D01*
X022080Y007300D01*
X022078Y007248D01*
X022072Y007196D01*
X022062Y007144D01*
X022049Y007094D01*
X022032Y007044D01*
X022011Y006996D01*
X021986Y006950D01*
X021958Y006906D01*
X021927Y006864D01*
X021893Y006824D01*
X021856Y006787D01*
X021816Y006753D01*
X021774Y006722D01*
X021730Y006694D01*
X021684Y006669D01*
X021636Y006648D01*
X021586Y006631D01*
X021536Y006618D01*
X021484Y006608D01*
X021432Y006602D01*
X021380Y006600D01*
X021328Y006602D01*
X021276Y006608D01*
X021224Y006618D01*
X021174Y006631D01*
X021124Y006648D01*
X021076Y006669D01*
X021030Y006694D01*
X020986Y006722D01*
X020944Y006753D01*
X020904Y006787D01*
X020867Y006824D01*
X020833Y006864D01*
X020802Y006906D01*
X020774Y006950D01*
X020749Y006996D01*
X020728Y007044D01*
X020711Y007094D01*
X020698Y007144D01*
X020688Y007196D01*
X020682Y007248D01*
X020680Y007300D01*
X017121Y009587D02*
X024444Y009587D01*
X024444Y015513D01*
X017121Y015513D01*
X017121Y009587D01*
D20*
X023314Y015793D03*
D21*
X023314Y009302D03*
D22*
X025641Y012550D03*
X002719Y012550D03*
D23*
X004503Y012550D03*
X023857Y012550D03*
D24*
X021740Y014796D02*
X021845Y014901D01*
X021845Y015006D01*
X021740Y015111D01*
X021214Y015111D01*
X021214Y015006D02*
X021214Y015216D01*
X021530Y015440D02*
X021530Y015861D01*
X021845Y015756D02*
X021214Y015756D01*
X021530Y015440D01*
D25*
X008180Y007050D03*
X007580Y008300D03*
M02*
