G75*
G70*
%OFA0B0*%
%FSLAX24Y24*%
%IPPOS*%
%LPD*%
%AMOC8*
5,1,8,0,0,1.08239X$1,22.5*
%
%ADD10C,0.0000*%
%ADD11C,0.0040*%
D10*
X000160Y000554D02*
X000160Y019451D01*
X000162Y019490D01*
X000168Y019528D01*
X000177Y019565D01*
X000190Y019602D01*
X000207Y019637D01*
X000226Y019670D01*
X000249Y019701D01*
X000275Y019730D01*
X000304Y019756D01*
X000335Y019779D01*
X000368Y019798D01*
X000403Y019815D01*
X000440Y019828D01*
X000477Y019837D01*
X000515Y019843D01*
X000554Y019845D01*
X019451Y019845D01*
X019490Y019843D01*
X019528Y019837D01*
X019565Y019828D01*
X019602Y019815D01*
X019637Y019798D01*
X019670Y019779D01*
X019701Y019756D01*
X019730Y019730D01*
X019756Y019701D01*
X019779Y019670D01*
X019798Y019637D01*
X019815Y019602D01*
X019828Y019565D01*
X019837Y019528D01*
X019843Y019490D01*
X019845Y019451D01*
X019845Y000554D01*
X019843Y000515D01*
X019837Y000477D01*
X019828Y000440D01*
X019815Y000403D01*
X019798Y000368D01*
X019779Y000335D01*
X019756Y000304D01*
X019730Y000275D01*
X019701Y000249D01*
X019670Y000226D01*
X019637Y000207D01*
X019602Y000190D01*
X019565Y000177D01*
X019528Y000168D01*
X019490Y000162D01*
X019451Y000160D01*
X000554Y000160D01*
X000515Y000162D01*
X000477Y000168D01*
X000440Y000177D01*
X000403Y000190D01*
X000368Y000207D01*
X000335Y000226D01*
X000304Y000249D01*
X000275Y000275D01*
X000249Y000304D01*
X000226Y000335D01*
X000207Y000368D01*
X000190Y000403D01*
X000177Y000440D01*
X000168Y000477D01*
X000162Y000515D01*
X000160Y000554D01*
D11*
X003977Y014680D02*
X003900Y014757D01*
X003900Y015064D01*
X004207Y014757D01*
X004130Y014680D01*
X003977Y014680D01*
X004207Y014757D02*
X004207Y015064D01*
X004130Y015140D01*
X003977Y015140D01*
X003900Y015064D01*
X004360Y014757D02*
X004360Y014680D01*
X004437Y014680D01*
X004437Y014757D01*
X004360Y014757D01*
X004591Y014680D02*
X004898Y014680D01*
X005051Y014680D02*
X005128Y014680D01*
X005128Y014757D01*
X005051Y014757D01*
X005051Y014680D01*
X004898Y014987D02*
X004744Y015140D01*
X004744Y014680D01*
X005281Y014987D02*
X005358Y014987D01*
X005511Y014833D01*
X005511Y014680D02*
X005511Y014987D01*
X005665Y014910D02*
X005665Y014833D01*
X005972Y014833D01*
X005972Y014757D02*
X005972Y014910D01*
X005895Y014987D01*
X005742Y014987D01*
X005665Y014910D01*
X005742Y014680D02*
X005895Y014680D01*
X005972Y014757D01*
X006125Y014987D02*
X006279Y014680D01*
X006432Y014987D01*
X007046Y014987D02*
X007123Y014987D01*
X007276Y014833D01*
X007276Y014680D02*
X007276Y014987D01*
X007430Y014910D02*
X007430Y014757D01*
X007506Y014680D01*
X007660Y014680D01*
X007737Y014757D01*
X007737Y014910D01*
X007660Y014987D01*
X007506Y014987D01*
X007430Y014910D01*
X007890Y014987D02*
X008044Y014987D01*
X007967Y015064D02*
X007967Y014757D01*
X007890Y014680D01*
X008197Y014680D02*
X008197Y014910D01*
X008274Y014987D01*
X008427Y014987D01*
X008427Y014833D02*
X008197Y014833D01*
X008197Y014680D02*
X008427Y014680D01*
X008504Y014757D01*
X008427Y014833D01*
X008657Y014680D02*
X008888Y014680D01*
X008964Y014757D01*
X008964Y014910D01*
X008888Y014987D01*
X008657Y014987D01*
X009195Y014987D02*
X009195Y014680D01*
X009271Y014680D02*
X009118Y014680D01*
X009425Y014680D02*
X009655Y014680D01*
X009732Y014757D01*
X009732Y014910D01*
X009655Y014987D01*
X009425Y014987D01*
X009425Y015140D02*
X009425Y014680D01*
X009271Y014987D02*
X009195Y014987D01*
X009195Y015140D02*
X009195Y015217D01*
X009885Y014910D02*
X009885Y014680D01*
X009885Y014910D02*
X009962Y014987D01*
X010192Y014987D01*
X010192Y014680D01*
X010345Y014680D02*
X010499Y014680D01*
X010422Y014680D02*
X010422Y015140D01*
X010499Y015140D02*
X010345Y015140D01*
X011113Y014910D02*
X011113Y014680D01*
X011266Y014680D02*
X011266Y014910D01*
X011190Y014987D01*
X011113Y014910D01*
X011266Y014910D02*
X011343Y014987D01*
X011420Y014987D01*
X011420Y014680D01*
X011573Y014757D02*
X011573Y014910D01*
X011650Y014987D01*
X011803Y014987D01*
X011880Y014910D01*
X011880Y014757D01*
X011803Y014680D01*
X011650Y014680D01*
X011573Y014757D01*
X012034Y014757D02*
X012034Y014910D01*
X012110Y014987D01*
X012264Y014987D01*
X012341Y014910D01*
X012341Y014757D01*
X012264Y014680D01*
X012110Y014680D01*
X012034Y014757D01*
X012494Y014680D02*
X012647Y014833D01*
X012571Y014833D02*
X012801Y014833D01*
X012801Y014680D02*
X012801Y015140D01*
X012571Y015140D01*
X012494Y015064D01*
X012494Y014910D01*
X012571Y014833D01*
X013415Y014987D02*
X013492Y014987D01*
X013645Y014833D01*
X013645Y014680D02*
X013645Y014987D01*
X013798Y014910D02*
X013798Y014833D01*
X014105Y014833D01*
X014105Y014757D02*
X014105Y014910D01*
X014029Y014987D01*
X013875Y014987D01*
X013798Y014910D01*
X013875Y014680D02*
X014029Y014680D01*
X014105Y014757D01*
X014259Y014680D02*
X014412Y014680D01*
X014336Y014680D02*
X014336Y015140D01*
X014412Y015140D01*
X014642Y015140D02*
X014642Y015217D01*
X014642Y014987D02*
X014642Y014680D01*
X014566Y014680D02*
X014719Y014680D01*
X014873Y014757D02*
X014873Y014910D01*
X014949Y014987D01*
X015103Y014987D01*
X015180Y014910D01*
X015180Y014757D01*
X015103Y014680D01*
X014949Y014680D01*
X014873Y014757D01*
X014719Y014987D02*
X014642Y014987D01*
X015333Y014987D02*
X015410Y014910D01*
X015640Y014910D01*
X015640Y014680D02*
X015410Y014680D01*
X015333Y014757D01*
X015333Y014833D01*
X015410Y014910D01*
X015333Y014987D02*
X015333Y015064D01*
X015410Y015140D01*
X015640Y015140D01*
X015640Y014680D01*
M02*
