%
M48
M72
T01C0.0236
T02C0.0276
T03C0.0315
T04C0.0320
T05C0.0394
T06C0.0400
T07C0.0433
T08C0.1260
%
T01
X6910Y5660
X7660Y5160
X7660Y6160
X7660Y3910
X8660Y3910
X11160Y6660
X10660Y7160
X12660Y4660
X12410Y3410
X15660Y4660
X14410Y6660
X11910Y9660
X12410Y10160
T02
X5731Y17754
X6223Y18541
X6715Y17754
X7207Y18541
X7699Y17754
X8191Y18541
X8684Y17754
X9176Y18541
X9668Y17754
X10160Y18541
X10652Y17754
X11144Y18541
X11636Y17754
X12129Y18541
X12621Y17754
X13113Y18541
X13605Y17754
X14097Y18541
X14589Y17754
X5239Y18541
T03
X3160Y3160
X2660Y17160
X17410Y17410
T04
X1660Y5160
X1660Y6160
X2660Y13160
X3660Y13160
X4660Y13160
X5660Y13160
X6660Y13160
X7660Y13160
X8660Y13160
X9660Y13160
X10660Y13160
X11660Y13160
X12660Y13160
X13660Y13160
X14660Y13160
X15660Y13160
X16660Y13160
X16660Y16160
X15660Y16160
X14660Y16160
X13660Y16160
X12660Y16160
X11660Y16160
X10660Y16160
X9660Y16160
X8660Y16160
X7660Y16160
X6660Y16160
X5660Y16160
X4660Y16160
X3660Y16160
X2660Y16160
X9160Y6160
X9160Y5160
T05
X14160Y11160
X14160Y8660
T06
X19160Y10160
X19160Y9160
X19160Y8160
X19160Y7160
X19160Y3660
X15660Y1160
X14660Y1160
X13660Y1160
X12660Y1160
T07
X3660Y1660
X5660Y1660
T08
X1341Y18664
X18664Y18664
X18664Y1341
X1341Y1341
M30
