G75*
G70*
%OFA0B0*%
%FSLAX24Y24*%
%IPPOS*%
%LPD*%
%AMOC8*
5,1,8,0,0,1.08239X$1,22.5*
%
%ADD10C,0.0000*%
%ADD11R,0.0118X0.0472*%
%ADD12R,0.0591X0.0512*%
%ADD13R,0.1500X0.0760*%
%ADD14R,0.0420X0.0860*%
%ADD15R,0.0740X0.0740*%
%ADD16C,0.0740*%
%ADD17R,0.0460X0.0140*%
%ADD18R,0.0860X0.0860*%
%ADD19C,0.0860*%
%ADD20OC8,0.0640*%
%ADD21C,0.0640*%
%ADD22R,0.0472X0.0472*%
%ADD23C,0.0596*%
%ADD24R,0.0596X0.0596*%
%ADD25C,0.0120*%
%ADD26C,0.0356*%
%ADD27C,0.0320*%
%ADD28C,0.0591*%
%ADD29C,0.0160*%
%ADD30C,0.0472*%
%ADD31C,0.0240*%
D10*
X000160Y000554D02*
X000160Y019451D01*
X000162Y019490D01*
X000168Y019528D01*
X000177Y019565D01*
X000190Y019602D01*
X000207Y019637D01*
X000226Y019670D01*
X000249Y019701D01*
X000275Y019730D01*
X000304Y019756D01*
X000335Y019779D01*
X000368Y019798D01*
X000403Y019815D01*
X000440Y019828D01*
X000477Y019837D01*
X000515Y019843D01*
X000554Y019845D01*
X019451Y019845D01*
X019490Y019843D01*
X019528Y019837D01*
X019565Y019828D01*
X019602Y019815D01*
X019637Y019798D01*
X019670Y019779D01*
X019701Y019756D01*
X019730Y019730D01*
X019756Y019701D01*
X019779Y019670D01*
X019798Y019637D01*
X019815Y019602D01*
X019828Y019565D01*
X019837Y019528D01*
X019843Y019490D01*
X019845Y019451D01*
X019845Y000554D01*
X019843Y000515D01*
X019837Y000477D01*
X019828Y000440D01*
X019815Y000403D01*
X019798Y000368D01*
X019779Y000335D01*
X019756Y000304D01*
X019730Y000275D01*
X019701Y000249D01*
X019670Y000226D01*
X019637Y000207D01*
X019602Y000190D01*
X019565Y000177D01*
X019528Y000168D01*
X019490Y000162D01*
X019451Y000160D01*
X000554Y000160D01*
X000515Y000162D01*
X000477Y000168D01*
X000440Y000177D01*
X000403Y000190D01*
X000368Y000207D01*
X000335Y000226D01*
X000304Y000249D01*
X000275Y000275D01*
X000249Y000304D01*
X000226Y000335D01*
X000207Y000368D01*
X000190Y000403D01*
X000177Y000440D01*
X000168Y000477D01*
X000162Y000515D01*
X000160Y000554D01*
D11*
X010258Y008768D03*
X010514Y008768D03*
X010770Y008768D03*
X011026Y008768D03*
X011282Y008768D03*
X011538Y008768D03*
X011794Y008768D03*
X012050Y008768D03*
X012306Y008768D03*
X012562Y008768D03*
X012562Y011052D03*
X012306Y011052D03*
X012050Y011052D03*
X011794Y011052D03*
X011538Y011052D03*
X011282Y011052D03*
X011026Y011052D03*
X010770Y011052D03*
X010514Y011052D03*
X010258Y011052D03*
D12*
X013410Y010284D03*
X013410Y009536D03*
X013660Y006034D03*
X013660Y005286D03*
X013660Y004034D03*
X013660Y003286D03*
X015660Y003286D03*
X015660Y004034D03*
X015660Y005286D03*
X015660Y006034D03*
X008660Y003034D03*
X008660Y002286D03*
X007660Y002286D03*
X007660Y003034D03*
X003660Y005286D03*
X003660Y006034D03*
X003660Y014286D03*
X003660Y015034D03*
X002660Y015034D03*
X002660Y014286D03*
X004660Y014286D03*
X004660Y015034D03*
X005660Y015034D03*
X005660Y014286D03*
X006660Y014286D03*
X006660Y015034D03*
X007660Y015034D03*
X007660Y014286D03*
X008660Y014286D03*
X008660Y015034D03*
X009660Y015034D03*
X009660Y014286D03*
X010660Y014286D03*
X010660Y015034D03*
X011660Y015034D03*
X011660Y014286D03*
X012660Y014286D03*
X012660Y015034D03*
X013660Y015034D03*
X013660Y014286D03*
X014660Y014286D03*
X014660Y015034D03*
X015660Y015034D03*
X015660Y014286D03*
X016660Y014286D03*
X016660Y015034D03*
X016660Y018286D03*
X016660Y019034D03*
X003160Y019034D03*
X003160Y018286D03*
D13*
X005660Y004518D03*
D14*
X005660Y006841D03*
X006566Y006841D03*
X004754Y006841D03*
D15*
X015660Y001160D03*
X019160Y007160D03*
D16*
X019160Y008160D03*
X019160Y009160D03*
X019160Y010160D03*
X019160Y003660D03*
X014660Y001160D03*
X013660Y001160D03*
X012660Y001160D03*
D17*
X006070Y005400D03*
X006070Y005660D03*
X006070Y005920D03*
X005250Y005920D03*
X005250Y005400D03*
D18*
X003660Y001660D03*
D19*
X005660Y001660D03*
D20*
X009160Y006160D03*
X008660Y013160D03*
X007660Y013160D03*
X006660Y013160D03*
X005660Y013160D03*
X004660Y013160D03*
X003660Y013160D03*
X002660Y013160D03*
X002660Y016160D03*
X003660Y016160D03*
X004660Y016160D03*
X005660Y016160D03*
X006660Y016160D03*
X007660Y016160D03*
X008660Y016160D03*
X009660Y016160D03*
X010660Y016160D03*
X011660Y016160D03*
X012660Y016160D03*
X013660Y016160D03*
X014660Y016160D03*
X015660Y016160D03*
X016660Y016160D03*
X016660Y013160D03*
X015660Y013160D03*
X014660Y013160D03*
X013660Y013160D03*
X012660Y013160D03*
X011660Y013160D03*
X010660Y013160D03*
X009660Y013160D03*
X001660Y006160D03*
D21*
X001660Y005160D03*
X009160Y005160D03*
D22*
X008660Y001573D03*
X008660Y000747D03*
X007660Y000747D03*
X007660Y001573D03*
D23*
X007699Y017754D03*
X007207Y018541D03*
X006715Y017754D03*
X005731Y017754D03*
X005239Y018541D03*
X008684Y017754D03*
X009176Y018541D03*
X009668Y017754D03*
X010652Y017754D03*
X011144Y018541D03*
X011636Y017754D03*
X012621Y017754D03*
X013113Y018541D03*
X013605Y017754D03*
X014589Y017754D03*
D24*
X014097Y018541D03*
X012129Y018541D03*
X010160Y018541D03*
X008191Y018541D03*
X006223Y018541D03*
D25*
X006660Y013160D02*
X007660Y012160D01*
X008160Y012160D01*
X010160Y010160D01*
X011160Y010160D01*
X011282Y010038D01*
X011282Y008768D01*
X011538Y008768D02*
X011538Y007282D01*
X012160Y006660D01*
X012160Y005660D01*
X012534Y005286D01*
X013660Y005286D01*
X013660Y006034D02*
X013784Y006034D01*
X014410Y006660D01*
X015160Y007160D02*
X017160Y009160D01*
X015910Y008410D02*
X015910Y012160D01*
X016660Y012910D01*
X016660Y013160D01*
X015660Y013160D02*
X015660Y008660D01*
X014660Y007660D01*
X012660Y007660D01*
X012306Y008014D01*
X012306Y008768D01*
X012562Y008768D02*
X013410Y009536D01*
X013410Y010284D02*
X012562Y011052D01*
X012306Y011052D02*
X012306Y011556D01*
X012660Y011910D01*
X013160Y011910D01*
X013660Y012410D01*
X013910Y012410D01*
X014660Y013160D01*
X013660Y013160D02*
X012910Y012410D01*
X012410Y012410D01*
X011794Y011794D01*
X011794Y011052D01*
X011794Y009776D01*
X011910Y009660D01*
X012410Y010160D02*
X012050Y010520D01*
X012050Y011052D01*
X011538Y011052D02*
X011538Y012038D01*
X012660Y013160D01*
X011660Y013160D02*
X011660Y012660D01*
X011282Y012282D01*
X011282Y011052D01*
X011026Y011052D02*
X011026Y012294D01*
X010660Y012660D01*
X010660Y013160D01*
X009660Y013160D02*
X010770Y012050D01*
X010770Y011052D01*
X010514Y011052D02*
X010514Y011806D01*
X010160Y012160D01*
X009660Y012160D01*
X008660Y013160D01*
X008660Y012160D02*
X007660Y013160D01*
X007160Y012160D02*
X006660Y012160D01*
X005660Y013160D01*
X005660Y012160D02*
X004660Y013160D01*
X004660Y012160D02*
X003660Y013160D01*
X003660Y012160D02*
X002660Y013160D01*
X003660Y012160D02*
X004160Y012160D01*
X004660Y011660D01*
X005160Y011660D01*
X005660Y011160D01*
X006160Y011160D01*
X006660Y010660D01*
X007160Y010660D01*
X007660Y010160D01*
X008160Y010160D01*
X009160Y009160D01*
X010160Y009160D01*
X010258Y009062D01*
X010258Y008768D01*
X010514Y008768D02*
X010514Y009306D01*
X010410Y009410D01*
X009410Y009410D01*
X008160Y010660D01*
X007660Y010660D01*
X007160Y011160D01*
X006660Y011160D01*
X006160Y011660D01*
X005660Y011660D01*
X005160Y012160D01*
X004660Y012160D01*
X005660Y012160D02*
X006160Y012160D01*
X006660Y011660D01*
X007160Y011660D01*
X007660Y011160D01*
X008160Y011160D01*
X009660Y009660D01*
X010660Y009660D01*
X010770Y009550D01*
X010770Y008768D01*
X011026Y008768D02*
X011026Y009794D01*
X010910Y009910D01*
X009910Y009910D01*
X008160Y011660D01*
X007660Y011660D01*
X007160Y012160D01*
X008660Y012160D02*
X009160Y012160D01*
X009660Y011660D01*
X010160Y011660D01*
X010258Y011562D01*
X010258Y011052D01*
X011794Y008768D02*
X011794Y007526D01*
X012160Y007160D01*
X015160Y007160D01*
X014910Y007410D02*
X015910Y008410D01*
X014910Y007410D02*
X012410Y007410D01*
X012050Y007770D01*
X012050Y008768D01*
X010660Y007160D02*
X010660Y006660D01*
X011160Y006160D01*
X011160Y005660D01*
X012160Y004660D01*
X012160Y003660D01*
X012410Y003410D01*
X011660Y003360D02*
X009251Y003360D01*
X009255Y003350D02*
X009210Y003460D01*
X009125Y003544D01*
X009020Y003588D01*
X009020Y003594D01*
X009065Y003639D01*
X009138Y003815D01*
X009138Y004005D01*
X009065Y004181D01*
X008931Y004315D01*
X008755Y004388D01*
X008565Y004388D01*
X008389Y004315D01*
X008255Y004181D01*
X008182Y004005D01*
X008182Y003815D01*
X008255Y003639D01*
X008300Y003594D01*
X008300Y003588D01*
X008195Y003544D01*
X008160Y003509D01*
X008125Y003544D01*
X008020Y003588D01*
X008020Y003594D01*
X008065Y003639D01*
X008138Y003815D01*
X008138Y004005D01*
X008065Y004181D01*
X007931Y004315D01*
X007755Y004388D01*
X007565Y004388D01*
X007389Y004315D01*
X007255Y004181D01*
X007182Y004005D01*
X007182Y003815D01*
X007255Y003639D01*
X007300Y003594D01*
X007300Y003588D01*
X007195Y003544D01*
X007110Y003460D01*
X007065Y003350D01*
X007065Y002718D01*
X007089Y002660D01*
X007065Y002602D01*
X007065Y001970D01*
X007110Y001860D01*
X007124Y001847D01*
X007124Y001277D01*
X007169Y001167D01*
X007177Y001160D01*
X007169Y001153D01*
X007124Y001043D01*
X007124Y001040D01*
X006317Y001040D01*
X006195Y001163D01*
X006279Y001246D01*
X006390Y001515D01*
X006390Y001805D01*
X006279Y002074D01*
X006074Y002279D01*
X005805Y002390D01*
X005581Y002390D01*
X004550Y003421D01*
X004421Y003550D01*
X004251Y003620D01*
X003451Y003620D01*
X003267Y003696D01*
X003053Y003696D01*
X002856Y003615D01*
X002705Y003464D01*
X002624Y003267D01*
X002624Y003053D01*
X002705Y002856D01*
X002856Y002705D01*
X003053Y002624D01*
X003267Y002624D01*
X003451Y002700D01*
X003969Y002700D01*
X004930Y001739D01*
X004930Y001515D01*
X005041Y001246D01*
X005246Y001041D01*
X005309Y001015D01*
X005338Y000945D01*
X005823Y000460D01*
X001644Y000460D01*
X001868Y000553D01*
X002129Y000814D01*
X002271Y001156D01*
X002271Y001526D01*
X002129Y001868D01*
X001868Y002129D01*
X001526Y002271D01*
X001156Y002271D01*
X000814Y002129D01*
X000553Y001868D01*
X000460Y001644D01*
X000460Y008160D01*
X010160Y008160D01*
X010160Y006660D01*
X009537Y006660D01*
X009417Y006780D01*
X009191Y006780D01*
X008739Y007231D01*
X008570Y007301D01*
X007076Y007301D01*
X007076Y007331D01*
X007030Y007441D01*
X006945Y007525D01*
X006835Y007571D01*
X006296Y007571D01*
X006186Y007525D01*
X006101Y007441D01*
X006056Y007331D01*
X006056Y006351D01*
X006081Y006290D01*
X005975Y006290D01*
X005998Y006313D01*
X006019Y006349D01*
X006030Y006390D01*
X006030Y006796D01*
X006056Y006796D01*
X006030Y006796D02*
X005705Y006796D01*
X005705Y006886D01*
X006030Y006886D01*
X006030Y007292D01*
X006019Y007333D01*
X005998Y007369D01*
X005968Y007399D01*
X005932Y007420D01*
X005891Y007431D01*
X005705Y007431D01*
X005705Y006886D01*
X005615Y006886D01*
X005615Y006796D01*
X005290Y006796D01*
X005264Y006796D01*
X005290Y006796D02*
X005290Y006390D01*
X005301Y006349D01*
X005322Y006313D01*
X005345Y006290D01*
X005239Y006290D01*
X005264Y006351D01*
X005264Y007331D01*
X005219Y007441D01*
X005134Y007525D01*
X005024Y007571D01*
X004485Y007571D01*
X004375Y007525D01*
X004290Y007441D01*
X004244Y007331D01*
X004244Y006946D01*
X004200Y006838D01*
X004200Y006469D01*
X004125Y006544D01*
X004015Y006590D01*
X003305Y006590D01*
X003195Y006544D01*
X003145Y006494D01*
X002203Y006494D01*
X001917Y006780D01*
X001403Y006780D01*
X001040Y006417D01*
X001040Y005903D01*
X001283Y005660D01*
X001134Y005511D01*
X001040Y005283D01*
X001040Y005037D01*
X001134Y004809D01*
X001309Y004634D01*
X001537Y004540D01*
X001783Y004540D01*
X002011Y004634D01*
X002077Y004700D01*
X003626Y004700D01*
X003698Y004730D01*
X004015Y004730D01*
X004125Y004776D01*
X004175Y004826D01*
X004377Y004826D01*
X004547Y004896D01*
X004888Y005238D01*
X004892Y005232D01*
X004922Y005202D01*
X004958Y005181D01*
X004999Y005170D01*
X005250Y005170D01*
X005501Y005170D01*
X005542Y005181D01*
X005570Y005197D01*
X005586Y005160D01*
X005670Y005076D01*
X005720Y005055D01*
X005720Y004578D01*
X006570Y004578D01*
X006570Y004808D01*
X006588Y004800D01*
X007344Y004800D01*
X007389Y004755D01*
X007565Y004682D01*
X007755Y004682D01*
X007931Y004755D01*
X008065Y004889D01*
X008138Y005065D01*
X008138Y005255D01*
X008065Y005431D01*
X007931Y005565D01*
X007755Y005638D01*
X007565Y005638D01*
X007389Y005565D01*
X007388Y005564D01*
X007388Y005565D01*
X007388Y005755D01*
X007388Y005756D01*
X007389Y005755D01*
X007565Y005682D01*
X007755Y005682D01*
X007931Y005755D01*
X008065Y005889D01*
X008138Y006065D01*
X008138Y006255D01*
X008086Y006381D01*
X008288Y006381D01*
X008540Y006129D01*
X008540Y005903D01*
X008888Y005555D01*
X008847Y005526D01*
X008794Y005473D01*
X008749Y005412D01*
X008715Y005344D01*
X008692Y005272D01*
X008680Y005198D01*
X008680Y005180D01*
X009140Y005180D01*
X009140Y005140D01*
X009180Y005140D01*
X009180Y004680D01*
X009198Y004680D01*
X009272Y004692D01*
X009344Y004715D01*
X009410Y004749D01*
X009410Y004660D01*
X011651Y004660D01*
X011660Y004651D01*
X011660Y000460D01*
X009048Y000460D01*
X009056Y000489D01*
X009056Y000689D01*
X008718Y000689D01*
X008718Y000805D01*
X009056Y000805D01*
X009056Y001004D01*
X009045Y001045D01*
X009032Y001068D01*
X009066Y001083D01*
X009151Y001167D01*
X009196Y001277D01*
X009196Y001847D01*
X009210Y001860D01*
X009255Y001970D01*
X009255Y002602D01*
X009231Y002660D01*
X009255Y002718D01*
X009255Y003350D01*
X009255Y003241D02*
X011660Y003241D01*
X011660Y003123D02*
X009255Y003123D01*
X009255Y003004D02*
X011660Y003004D01*
X011660Y002886D02*
X009255Y002886D01*
X009255Y002767D02*
X011660Y002767D01*
X011660Y002649D02*
X009236Y002649D01*
X009255Y002530D02*
X011660Y002530D01*
X011660Y002412D02*
X009255Y002412D01*
X009255Y002293D02*
X011660Y002293D01*
X011660Y002175D02*
X009255Y002175D01*
X009255Y002056D02*
X011660Y002056D01*
X011660Y001938D02*
X009242Y001938D01*
X009196Y001819D02*
X011660Y001819D01*
X011660Y001701D02*
X009196Y001701D01*
X009196Y001582D02*
X011660Y001582D01*
X011660Y001464D02*
X009196Y001464D01*
X009196Y001345D02*
X011660Y001345D01*
X011660Y001227D02*
X009175Y001227D01*
X009091Y001108D02*
X011660Y001108D01*
X011660Y000990D02*
X009056Y000990D01*
X009056Y000871D02*
X011660Y000871D01*
X011660Y000753D02*
X008718Y000753D01*
X008660Y000747D02*
X008573Y000747D01*
X008160Y001160D01*
X008160Y004518D01*
X007939Y004308D02*
X008381Y004308D01*
X008263Y004189D02*
X008057Y004189D01*
X008111Y004071D02*
X008209Y004071D01*
X008182Y003952D02*
X008138Y003952D01*
X008138Y003834D02*
X008182Y003834D01*
X008223Y003715D02*
X008097Y003715D01*
X008023Y003597D02*
X008297Y003597D01*
X008660Y003910D02*
X008660Y003034D01*
X009023Y003597D02*
X011660Y003597D01*
X011660Y003715D02*
X009097Y003715D01*
X009138Y003834D02*
X011660Y003834D01*
X011660Y003952D02*
X009138Y003952D01*
X009111Y004071D02*
X011660Y004071D01*
X011660Y004189D02*
X009057Y004189D01*
X008939Y004308D02*
X011660Y004308D01*
X011660Y004426D02*
X006570Y004426D01*
X006570Y004458D02*
X005720Y004458D01*
X005720Y003978D01*
X006431Y003978D01*
X006472Y003989D01*
X006508Y004010D01*
X006538Y004040D01*
X006559Y004077D01*
X006570Y004117D01*
X006570Y004458D01*
X006570Y004308D02*
X007381Y004308D01*
X007263Y004189D02*
X006570Y004189D01*
X006556Y004071D02*
X007209Y004071D01*
X007182Y003952D02*
X000460Y003952D01*
X000460Y003834D02*
X007182Y003834D01*
X007223Y003715D02*
X000460Y003715D01*
X000460Y003597D02*
X002838Y003597D01*
X002720Y003478D02*
X000460Y003478D01*
X000460Y003360D02*
X002662Y003360D01*
X002624Y003241D02*
X000460Y003241D01*
X000460Y003123D02*
X002624Y003123D01*
X002644Y003004D02*
X000460Y003004D01*
X000460Y002886D02*
X002693Y002886D01*
X002795Y002767D02*
X000460Y002767D01*
X000460Y002649D02*
X002994Y002649D01*
X003060Y002344D02*
X002976Y002260D01*
X002930Y002150D01*
X002930Y001170D01*
X002976Y001060D01*
X003060Y000976D01*
X003170Y000930D01*
X004150Y000930D01*
X004260Y000976D01*
X004344Y001060D01*
X004390Y001170D01*
X004390Y002150D01*
X004344Y002260D01*
X004260Y002344D01*
X004150Y002390D01*
X003170Y002390D01*
X003060Y002344D01*
X003009Y002293D02*
X000460Y002293D01*
X000460Y002175D02*
X000923Y002175D01*
X000741Y002056D02*
X000460Y002056D01*
X000460Y001938D02*
X000622Y001938D01*
X000533Y001819D02*
X000460Y001819D01*
X000460Y001701D02*
X000483Y001701D01*
X000460Y002412D02*
X004258Y002412D01*
X004311Y002293D02*
X004376Y002293D01*
X004380Y002175D02*
X004495Y002175D01*
X004390Y002056D02*
X004613Y002056D01*
X004732Y001938D02*
X004390Y001938D01*
X004390Y001819D02*
X004850Y001819D01*
X004930Y001701D02*
X004390Y001701D01*
X004390Y001582D02*
X004930Y001582D01*
X004951Y001464D02*
X004390Y001464D01*
X004390Y001345D02*
X005000Y001345D01*
X005061Y001227D02*
X004390Y001227D01*
X004364Y001108D02*
X005180Y001108D01*
X005319Y000990D02*
X004274Y000990D01*
X005412Y000871D02*
X002153Y000871D01*
X002202Y000990D02*
X003046Y000990D01*
X002956Y001108D02*
X002251Y001108D01*
X002271Y001227D02*
X002930Y001227D01*
X002930Y001345D02*
X002271Y001345D01*
X002271Y001464D02*
X002930Y001464D01*
X002930Y001582D02*
X002248Y001582D01*
X002199Y001701D02*
X002930Y001701D01*
X002930Y001819D02*
X002150Y001819D01*
X002060Y001938D02*
X002930Y001938D01*
X002930Y002056D02*
X001941Y002056D01*
X001759Y002175D02*
X002940Y002175D01*
X003326Y002649D02*
X004021Y002649D01*
X004139Y002530D02*
X000460Y002530D01*
X000460Y004071D02*
X004764Y004071D01*
X004761Y004077D02*
X004782Y004040D01*
X004812Y004010D01*
X004848Y003989D01*
X004889Y003978D01*
X005600Y003978D01*
X005600Y004458D01*
X005720Y004458D01*
X005720Y004578D01*
X005600Y004578D01*
X005600Y004458D01*
X004750Y004458D01*
X004750Y004117D01*
X004761Y004077D01*
X004750Y004189D02*
X000460Y004189D01*
X000460Y004308D02*
X004750Y004308D01*
X004750Y004426D02*
X000460Y004426D01*
X000460Y004545D02*
X001526Y004545D01*
X001794Y004545D02*
X005600Y004545D01*
X005600Y004578D02*
X004750Y004578D01*
X004750Y004919D01*
X004761Y004960D01*
X004782Y004997D01*
X004812Y005026D01*
X004848Y005047D01*
X004889Y005058D01*
X005600Y005058D01*
X005600Y004578D01*
X005660Y004518D02*
X005250Y004928D01*
X005250Y005400D01*
X005250Y005170D01*
X005250Y005400D01*
X005250Y005400D01*
X005250Y005374D02*
X005250Y005374D01*
X005250Y005256D02*
X005250Y005256D01*
X005609Y005137D02*
X004788Y005137D01*
X004804Y005019D02*
X004669Y005019D01*
X004750Y004900D02*
X004551Y004900D01*
X004750Y004782D02*
X004131Y004782D01*
X004750Y004663D02*
X002040Y004663D01*
X001280Y004663D02*
X000460Y004663D01*
X000460Y004782D02*
X001162Y004782D01*
X001097Y004900D02*
X000460Y004900D01*
X000460Y005019D02*
X001048Y005019D01*
X001040Y005137D02*
X000460Y005137D01*
X000460Y005256D02*
X001040Y005256D01*
X001078Y005374D02*
X000460Y005374D01*
X000460Y005493D02*
X001127Y005493D01*
X001234Y005611D02*
X000460Y005611D01*
X000460Y005730D02*
X001214Y005730D01*
X001095Y005848D02*
X000460Y005848D01*
X000460Y005967D02*
X001040Y005967D01*
X001040Y006085D02*
X000460Y006085D01*
X000460Y006204D02*
X001040Y006204D01*
X001040Y006322D02*
X000460Y006322D01*
X000460Y006441D02*
X001064Y006441D01*
X001182Y006559D02*
X000460Y006559D01*
X000460Y006678D02*
X001301Y006678D01*
X000460Y006796D02*
X004200Y006796D01*
X004200Y006678D02*
X002019Y006678D01*
X002138Y006559D02*
X003230Y006559D01*
X004090Y006559D02*
X004200Y006559D01*
X004232Y006915D02*
X000460Y006915D01*
X000460Y007033D02*
X004244Y007033D01*
X004244Y007152D02*
X000460Y007152D01*
X000460Y007270D02*
X004244Y007270D01*
X004268Y007389D02*
X000460Y007389D01*
X000460Y007507D02*
X004356Y007507D01*
X005153Y007507D02*
X006167Y007507D01*
X006079Y007389D02*
X005979Y007389D01*
X006030Y007270D02*
X006056Y007270D01*
X006056Y007152D02*
X006030Y007152D01*
X006030Y007033D02*
X006056Y007033D01*
X006056Y006915D02*
X006030Y006915D01*
X006030Y006678D02*
X006056Y006678D01*
X006056Y006559D02*
X006030Y006559D01*
X006030Y006441D02*
X006056Y006441D01*
X006068Y006322D02*
X006003Y006322D01*
X006160Y005910D02*
X006410Y005910D01*
X006660Y006160D01*
X007660Y006160D01*
X008024Y005848D02*
X008595Y005848D01*
X008540Y005967D02*
X008097Y005967D01*
X008138Y006085D02*
X008540Y006085D01*
X008466Y006204D02*
X008138Y006204D01*
X008110Y006322D02*
X008347Y006322D01*
X008714Y005730D02*
X007870Y005730D01*
X007821Y005611D02*
X008832Y005611D01*
X008814Y005493D02*
X008004Y005493D01*
X008089Y005374D02*
X008730Y005374D01*
X008689Y005256D02*
X008138Y005256D01*
X008138Y005137D02*
X008680Y005137D01*
X008680Y005140D02*
X008680Y005122D01*
X008692Y005048D01*
X008715Y004976D01*
X008749Y004908D01*
X008794Y004847D01*
X008847Y004794D01*
X008908Y004749D01*
X008976Y004715D01*
X009048Y004692D01*
X009122Y004680D01*
X009140Y004680D01*
X009140Y005140D01*
X008680Y005140D01*
X008701Y005019D02*
X008119Y005019D01*
X008070Y004900D02*
X008756Y004900D01*
X008864Y004782D02*
X007958Y004782D01*
X007660Y005160D02*
X006660Y005160D01*
X006410Y005410D01*
X006160Y005410D01*
X006070Y005660D02*
X006910Y005660D01*
X007388Y005611D02*
X007499Y005611D01*
X007450Y005730D02*
X007388Y005730D01*
X007362Y004782D02*
X006570Y004782D01*
X006570Y004663D02*
X009410Y004663D01*
X009180Y004782D02*
X009140Y004782D01*
X009140Y004900D02*
X009180Y004900D01*
X009180Y005019D02*
X009140Y005019D01*
X009140Y005137D02*
X009180Y005137D01*
X007660Y003910D02*
X007660Y003034D01*
X007297Y003597D02*
X004308Y003597D01*
X004493Y003478D02*
X007129Y003478D01*
X007069Y003360D02*
X004611Y003360D01*
X004730Y003241D02*
X007065Y003241D01*
X007065Y003123D02*
X004848Y003123D01*
X004967Y003004D02*
X007065Y003004D01*
X007065Y002886D02*
X005085Y002886D01*
X005204Y002767D02*
X007065Y002767D01*
X007084Y002649D02*
X005322Y002649D01*
X005441Y002530D02*
X007065Y002530D01*
X007065Y002412D02*
X005559Y002412D01*
X006039Y002293D02*
X007065Y002293D01*
X007065Y002175D02*
X006178Y002175D01*
X006286Y002056D02*
X007065Y002056D01*
X007078Y001938D02*
X006335Y001938D01*
X006384Y001819D02*
X007124Y001819D01*
X007124Y001701D02*
X006390Y001701D01*
X006390Y001582D02*
X007124Y001582D01*
X007124Y001464D02*
X006369Y001464D01*
X006320Y001345D02*
X007124Y001345D01*
X007145Y001227D02*
X006259Y001227D01*
X006249Y001108D02*
X007151Y001108D01*
X008143Y001160D02*
X008151Y001167D01*
X008160Y001190D01*
X008169Y001167D01*
X008254Y001083D01*
X008288Y001068D01*
X008275Y001045D01*
X008264Y001004D01*
X008264Y000805D01*
X008602Y000805D01*
X008602Y000689D01*
X008264Y000689D01*
X008264Y000489D01*
X008272Y000460D01*
X008196Y000460D01*
X008196Y001043D01*
X008151Y001153D01*
X008143Y001160D01*
X008169Y001108D02*
X008229Y001108D01*
X008196Y000990D02*
X008264Y000990D01*
X008264Y000871D02*
X008196Y000871D01*
X008196Y000753D02*
X008602Y000753D01*
X008264Y000634D02*
X008196Y000634D01*
X008196Y000516D02*
X008264Y000516D01*
X009056Y000516D02*
X011660Y000516D01*
X011660Y000634D02*
X009056Y000634D01*
X009191Y003478D02*
X011660Y003478D01*
X011660Y004545D02*
X005720Y004545D01*
X005720Y004663D02*
X005600Y004663D01*
X005600Y004782D02*
X005720Y004782D01*
X005720Y004900D02*
X005600Y004900D01*
X005600Y005019D02*
X005720Y005019D01*
X005720Y004426D02*
X005600Y004426D01*
X005600Y004308D02*
X005720Y004308D01*
X005720Y004189D02*
X005600Y004189D01*
X005600Y004071D02*
X005720Y004071D01*
X005250Y005920D02*
X004900Y005920D01*
X004660Y006160D01*
X005252Y006322D02*
X005317Y006322D01*
X005290Y006441D02*
X005264Y006441D01*
X005264Y006559D02*
X005290Y006559D01*
X005290Y006678D02*
X005264Y006678D01*
X005290Y006886D02*
X005615Y006886D01*
X005615Y007431D01*
X005429Y007431D01*
X005388Y007420D01*
X005352Y007399D01*
X005322Y007369D01*
X005301Y007333D01*
X005290Y007292D01*
X005290Y006886D01*
X005290Y006915D02*
X005264Y006915D01*
X005264Y007033D02*
X005290Y007033D01*
X005290Y007152D02*
X005264Y007152D01*
X005264Y007270D02*
X005290Y007270D01*
X005241Y007389D02*
X005341Y007389D01*
X005615Y007389D02*
X005705Y007389D01*
X005705Y007270D02*
X005615Y007270D01*
X005615Y007152D02*
X005705Y007152D01*
X005705Y007033D02*
X005615Y007033D01*
X005615Y006915D02*
X005705Y006915D01*
X006964Y007507D02*
X010160Y007507D01*
X010160Y007389D02*
X007052Y007389D01*
X008645Y007270D02*
X010160Y007270D01*
X010160Y007152D02*
X008819Y007152D01*
X008938Y007033D02*
X010160Y007033D01*
X010160Y006915D02*
X009056Y006915D01*
X009175Y006796D02*
X010160Y006796D01*
X010160Y006678D02*
X009519Y006678D01*
X010160Y007626D02*
X000460Y007626D01*
X000460Y007744D02*
X010160Y007744D01*
X010160Y007863D02*
X000460Y007863D01*
X000460Y007981D02*
X010160Y007981D01*
X010160Y008100D02*
X000460Y008100D01*
X002068Y000753D02*
X005530Y000753D01*
X005649Y000634D02*
X001949Y000634D01*
X001778Y000516D02*
X005767Y000516D01*
X011660Y005660D02*
X012660Y004660D01*
X011660Y005660D02*
X011660Y006160D01*
X011160Y006660D01*
X013660Y003286D02*
X013534Y003160D01*
D26*
X012410Y003410D03*
X012660Y004660D03*
X011160Y006660D03*
X010660Y007160D03*
X011910Y009660D03*
X012410Y010160D03*
X014410Y006660D03*
X015660Y004660D03*
X008660Y003910D03*
X007660Y003910D03*
X007660Y005160D03*
X006910Y005660D03*
X007660Y006160D03*
D27*
X008479Y006841D02*
X009160Y006160D01*
X008479Y006841D02*
X006566Y006841D01*
X004754Y006841D02*
X004660Y006747D01*
X004660Y006160D01*
X004660Y005660D01*
X004286Y005286D01*
X003660Y005286D01*
X003534Y005160D01*
X001660Y005160D01*
X001786Y006034D02*
X001660Y006160D01*
X001786Y006034D02*
X003660Y006034D01*
X005660Y004518D02*
X008160Y004518D01*
X008518Y004518D01*
X009160Y005160D01*
X005660Y001660D02*
X004160Y003160D01*
X003160Y003160D01*
X000910Y008160D02*
X000910Y017160D01*
X001160Y017410D01*
X001660Y017410D01*
X002410Y018160D01*
X002410Y018910D01*
X002910Y019410D01*
X003160Y019410D01*
X003160Y019034D01*
X003160Y019410D02*
X006160Y019410D01*
X006160Y018604D01*
X006223Y018541D01*
X006160Y019410D02*
X008160Y019410D01*
X008160Y018573D01*
X008191Y018541D01*
X008160Y019410D02*
X010160Y019410D01*
X010160Y018541D01*
X010160Y019410D02*
X012160Y019410D01*
X012160Y018573D01*
X012129Y018541D01*
X012160Y019410D02*
X013910Y019410D01*
X016284Y019410D01*
X016660Y019034D01*
X016660Y018286D02*
X016660Y018160D01*
X017410Y017410D01*
X014097Y018541D02*
X014097Y019223D01*
X013910Y019410D01*
X014160Y011160D02*
X014160Y011034D01*
X013410Y010284D01*
X013410Y009536D02*
X014160Y008786D01*
X014160Y008660D01*
X003160Y017660D02*
X002660Y017160D01*
X003160Y017660D02*
X003160Y018286D01*
D28*
X014160Y011160D03*
X014160Y008660D03*
D29*
X014910Y006410D02*
X016660Y008160D01*
X019160Y008160D01*
X019160Y007160D02*
X017160Y007160D01*
X016034Y006034D01*
X015660Y006034D01*
X015660Y005286D02*
X015660Y004660D01*
X015160Y004660D01*
X014660Y004160D01*
X014660Y002660D01*
X013660Y001660D01*
X013660Y001160D01*
X015660Y003286D02*
X016286Y003286D01*
X016660Y003660D01*
X019160Y003660D01*
X015660Y004034D02*
X015660Y004660D01*
X014910Y005910D02*
X014910Y006410D01*
X014910Y005910D02*
X014286Y005286D01*
X013660Y005286D01*
X013660Y004034D01*
X008660Y002286D02*
X008660Y001573D01*
X007660Y001573D02*
X007660Y002286D01*
X007660Y000747D02*
X007573Y000660D01*
X006160Y000660D01*
X005660Y001160D01*
X005660Y001660D01*
X017160Y009160D02*
X019160Y009160D01*
X016660Y013160D02*
X016660Y014286D01*
X016660Y015034D02*
X016660Y016160D01*
X015066Y017754D01*
X014589Y017754D01*
X014660Y017160D02*
X014160Y017160D01*
X013605Y017715D01*
X013605Y017754D01*
X013113Y017457D02*
X013113Y018541D01*
X012621Y017754D02*
X012621Y017199D01*
X013660Y016160D01*
X013660Y015034D01*
X013660Y014286D02*
X013660Y013160D01*
X012660Y013160D02*
X012660Y014286D01*
X012660Y015034D02*
X012660Y016160D01*
X011636Y017184D01*
X011636Y017754D01*
X011144Y018541D02*
X011144Y016676D01*
X011660Y016160D01*
X011660Y015034D01*
X011660Y014286D02*
X011660Y013160D01*
X010660Y013160D02*
X010660Y014286D01*
X010660Y015034D02*
X010660Y016160D01*
X010652Y016168D01*
X010652Y017754D01*
X009668Y017754D02*
X009668Y016160D01*
X009660Y016160D01*
X009660Y015034D01*
X009660Y014286D02*
X009660Y013160D01*
X008660Y013160D02*
X008660Y014286D01*
X008660Y015034D02*
X008660Y016160D01*
X009176Y016676D01*
X009176Y018541D01*
X008684Y017754D02*
X008684Y017184D01*
X007660Y016160D01*
X007660Y015034D01*
X007660Y014286D02*
X007660Y013160D01*
X006660Y013160D02*
X006660Y014286D01*
X006660Y015034D02*
X006660Y016160D01*
X007699Y017199D01*
X007699Y017754D01*
X007207Y017457D02*
X007207Y018541D01*
X006715Y017754D02*
X006715Y017715D01*
X006160Y017160D01*
X005660Y017160D01*
X004660Y016160D01*
X004660Y015034D01*
X004660Y014286D02*
X004660Y013160D01*
X003660Y013160D02*
X003660Y014286D01*
X003660Y015034D02*
X003660Y016160D01*
X005254Y017754D01*
X005731Y017754D01*
X005239Y018541D02*
X005041Y018541D01*
X002660Y016160D01*
X002660Y015034D01*
X002660Y014286D02*
X002660Y013160D01*
X005660Y013160D02*
X005660Y014286D01*
X005660Y015034D02*
X005660Y016160D01*
X006410Y016910D01*
X006660Y016910D01*
X007207Y017457D01*
X013113Y017457D02*
X013660Y016910D01*
X013910Y016910D01*
X014660Y016160D01*
X014660Y015034D01*
X014660Y014286D02*
X014660Y013160D01*
X015660Y013160D02*
X015660Y014286D01*
X015660Y015034D02*
X015660Y016160D01*
X014660Y017160D01*
D30*
X017410Y017410D03*
X002660Y017160D03*
X003160Y003160D03*
D31*
X005660Y004518D02*
X005660Y006841D01*
X005660Y007660D01*
X005786Y007786D01*
X008160Y004518D02*
X010302Y004518D01*
X010660Y004160D01*
X010660Y001660D01*
X011160Y001160D01*
X012660Y001160D01*
X012660Y002160D02*
X011160Y002160D01*
X012660Y002160D02*
X013534Y003034D01*
X013534Y003160D01*
M02*
