%
M48
M72
T01C0.0236
T02C0.0315
T03C0.0320
T04C0.0400
T05C0.0433
T06C0.0472
T07C0.1260
%
T01
X10410Y9910
X11410Y9910
X11660Y8660
X12160Y8160
X13160Y9160
X14160Y9410
X15410Y10910
X15410Y11745
X15410Y12660
X15410Y13534
X15410Y14410
X15410Y15284
X15410Y16160
X15410Y17034
X15410Y17910
X15410Y18784
X12160Y18910
X10410Y17660
X12160Y17160
X12160Y15410
X12160Y13660
X12160Y11910
X13660Y6910
X14160Y6410
X14910Y6660
X12660Y5160
X12160Y3660
X11410Y1910
X10410Y910
X9660Y3910
X8660Y3910
X7660Y3910
X7660Y5160
X6910Y5660
X7660Y6160
X14660Y4160
X14910Y3410
T02
X3160Y3160
X9660Y14160
X13910Y14160
T03
X1660Y5160
X1660Y6160
X4660Y10660
X4660Y15660
X3660Y17160
X3660Y18160
X6660Y18160
X6660Y17160
X9160Y6160
X9160Y5160
T04
X12660Y1160
X13660Y1160
X13660Y2160
X14660Y2160
X14660Y1160
X15660Y1160
X15660Y2160
X19160Y3160
X19160Y4160
X19160Y5160
X19160Y7160
X19160Y8160
X19160Y9160
X19160Y10160
X19160Y12660
X19160Y13660
X19160Y14660
X19160Y15660
X19160Y16660
X18160Y16660
X18160Y15660
X18160Y14660
X18160Y13660
X18160Y12660
T05
X1660Y17410
X1160Y16660
X2160Y16660
X1660Y14660
X1660Y12660
X1160Y10660
X2160Y10660
X3160Y10660
X5660Y1660
X3660Y1660
T06
X1660Y9410
X6410Y11160
X5160Y16660
T07
X1341Y1341
X1341Y18664
X18664Y18664
X18664Y1341
M30
