G75*
G70*
%OFA0B0*%
%FSLAX24Y24*%
%IPPOS*%
%LPD*%
%AMOC8*
5,1,8,0,0,1.08239X$1,22.5*
%
%ADD10C,0.0000*%
%ADD11C,0.1300*%
%ADD12C,0.0512*%
%ADD13R,0.0780X0.0780*%
%ADD14C,0.0780*%
%ADD15C,0.0680*%
%ADD16R,0.0900X0.0900*%
%ADD17C,0.0900*%
%ADD18OC8,0.0680*%
%ADD19OC8,0.0760*%
%ADD20C,0.0680*%
%ADD21C,0.0690*%
D10*
X000160Y000554D02*
X000160Y019451D01*
X000162Y019490D01*
X000168Y019528D01*
X000177Y019565D01*
X000190Y019602D01*
X000207Y019637D01*
X000226Y019670D01*
X000249Y019701D01*
X000275Y019730D01*
X000304Y019756D01*
X000335Y019779D01*
X000368Y019798D01*
X000403Y019815D01*
X000440Y019828D01*
X000477Y019837D01*
X000515Y019843D01*
X000554Y019845D01*
X019451Y019845D01*
X019490Y019843D01*
X019528Y019837D01*
X019565Y019828D01*
X019602Y019815D01*
X019637Y019798D01*
X019670Y019779D01*
X019701Y019756D01*
X019730Y019730D01*
X019756Y019701D01*
X019779Y019670D01*
X019798Y019637D01*
X019815Y019602D01*
X019828Y019565D01*
X019837Y019528D01*
X019843Y019490D01*
X019845Y019451D01*
X019845Y000554D01*
X019843Y000515D01*
X019837Y000477D01*
X019828Y000440D01*
X019815Y000403D01*
X019798Y000368D01*
X019779Y000335D01*
X019756Y000304D01*
X019730Y000275D01*
X019701Y000249D01*
X019670Y000226D01*
X019637Y000207D01*
X019602Y000190D01*
X019565Y000177D01*
X019528Y000168D01*
X019490Y000162D01*
X019451Y000160D01*
X000554Y000160D01*
X000515Y000162D01*
X000477Y000168D01*
X000440Y000177D01*
X000403Y000190D01*
X000368Y000207D01*
X000335Y000226D01*
X000304Y000249D01*
X000275Y000275D01*
X000249Y000304D01*
X000226Y000335D01*
X000207Y000368D01*
X000190Y000403D01*
X000177Y000440D01*
X000168Y000477D01*
X000162Y000515D01*
X000160Y000554D01*
D11*
X001341Y001341D03*
X001341Y018664D03*
X018664Y018664D03*
X018664Y001341D03*
D12*
X006410Y011160D03*
X001660Y009410D03*
X005160Y016660D03*
D13*
X019160Y007160D03*
X015660Y001160D03*
D14*
X015660Y002160D03*
X014660Y002160D03*
X014660Y001160D03*
X013660Y001160D03*
X013660Y002160D03*
X012660Y001160D03*
X019160Y003160D03*
X019160Y004160D03*
X019160Y005160D03*
X019160Y008160D03*
X019160Y009160D03*
X019160Y010160D03*
D15*
X007300Y017160D02*
X006660Y017160D01*
X006660Y018160D02*
X007300Y018160D01*
X003660Y018160D02*
X003020Y018160D01*
X003020Y017160D02*
X003660Y017160D01*
D16*
X001660Y014660D03*
X003660Y001660D03*
D17*
X005660Y001660D03*
X001660Y012660D03*
D18*
X004660Y010660D03*
X001660Y006160D03*
X009160Y006160D03*
X004660Y015660D03*
D19*
X018160Y015660D03*
X018160Y014660D03*
X018160Y013660D03*
X018160Y012660D03*
X019160Y012660D03*
X019160Y013660D03*
X019160Y014660D03*
X019160Y015660D03*
X019160Y016660D03*
X018160Y016660D03*
D20*
X009160Y005160D03*
X001660Y005160D03*
D21*
X001160Y010660D03*
X002160Y010660D03*
X003160Y010660D03*
X002160Y016660D03*
X001660Y017410D03*
X001160Y016660D03*
M02*
