G75*
G70*
%OFA0B0*%
%FSLAX24Y24*%
%IPPOS*%
%LPD*%
%AMOC8*
5,1,8,0,0,1.08239X$1,22.5*
%
%ADD10C,0.0000*%
D10*
X000160Y000554D02*
X000160Y019451D01*
X000162Y019490D01*
X000168Y019528D01*
X000177Y019565D01*
X000190Y019602D01*
X000207Y019637D01*
X000226Y019670D01*
X000249Y019701D01*
X000275Y019730D01*
X000304Y019756D01*
X000335Y019779D01*
X000368Y019798D01*
X000403Y019815D01*
X000440Y019828D01*
X000477Y019837D01*
X000515Y019843D01*
X000554Y019845D01*
X019451Y019845D01*
X019490Y019843D01*
X019528Y019837D01*
X019565Y019828D01*
X019602Y019815D01*
X019637Y019798D01*
X019670Y019779D01*
X019701Y019756D01*
X019730Y019730D01*
X019756Y019701D01*
X019779Y019670D01*
X019798Y019637D01*
X019815Y019602D01*
X019828Y019565D01*
X019837Y019528D01*
X019843Y019490D01*
X019845Y019451D01*
X019845Y000554D01*
X019843Y000515D01*
X019837Y000477D01*
X019828Y000440D01*
X019815Y000403D01*
X019798Y000368D01*
X019779Y000335D01*
X019756Y000304D01*
X019730Y000275D01*
X019701Y000249D01*
X019670Y000226D01*
X019637Y000207D01*
X019602Y000190D01*
X019565Y000177D01*
X019528Y000168D01*
X019490Y000162D01*
X019451Y000160D01*
X000554Y000160D01*
X000515Y000162D01*
X000477Y000168D01*
X000440Y000177D01*
X000403Y000190D01*
X000368Y000207D01*
X000335Y000226D01*
X000304Y000249D01*
X000275Y000275D01*
X000249Y000304D01*
X000226Y000335D01*
X000207Y000368D01*
X000190Y000403D01*
X000177Y000440D01*
X000168Y000477D01*
X000162Y000515D01*
X000160Y000554D01*
X001660Y009160D02*
X005660Y009160D01*
X005660Y009660D02*
X001660Y009660D01*
X001630Y009658D01*
X001600Y009653D01*
X001571Y009644D01*
X001544Y009631D01*
X001518Y009616D01*
X001494Y009597D01*
X001473Y009576D01*
X001454Y009552D01*
X001439Y009526D01*
X001426Y009499D01*
X001417Y009470D01*
X001412Y009440D01*
X001410Y009410D01*
X001412Y009380D01*
X001417Y009350D01*
X001426Y009321D01*
X001439Y009294D01*
X001454Y009268D01*
X001473Y009244D01*
X001494Y009223D01*
X001518Y009204D01*
X001544Y009189D01*
X001571Y009176D01*
X001600Y009167D01*
X001630Y009162D01*
X001660Y009160D01*
X005660Y009160D02*
X005720Y009162D01*
X005781Y009167D01*
X005840Y009176D01*
X005899Y009189D01*
X005958Y009205D01*
X006015Y009225D01*
X006070Y009248D01*
X006125Y009275D01*
X006177Y009304D01*
X006228Y009337D01*
X006277Y009373D01*
X006323Y009411D01*
X006367Y009453D01*
X006409Y009497D01*
X006447Y009543D01*
X006483Y009592D01*
X006516Y009643D01*
X006545Y009695D01*
X006572Y009750D01*
X006595Y009805D01*
X006615Y009862D01*
X006631Y009921D01*
X006644Y009980D01*
X006653Y010039D01*
X006658Y010100D01*
X006660Y010160D01*
X006660Y011160D01*
X006658Y011190D01*
X006653Y011220D01*
X006644Y011249D01*
X006631Y011276D01*
X006616Y011302D01*
X006597Y011326D01*
X006576Y011347D01*
X006552Y011366D01*
X006526Y011381D01*
X006499Y011394D01*
X006470Y011403D01*
X006440Y011408D01*
X006410Y011410D01*
X006380Y011408D01*
X006350Y011403D01*
X006321Y011394D01*
X006294Y011381D01*
X006268Y011366D01*
X006244Y011347D01*
X006223Y011326D01*
X006204Y011302D01*
X006189Y011276D01*
X006176Y011249D01*
X006167Y011220D01*
X006162Y011190D01*
X006160Y011160D01*
X006160Y010160D01*
X006158Y010116D01*
X006152Y010073D01*
X006143Y010031D01*
X006130Y009989D01*
X006113Y009949D01*
X006093Y009910D01*
X006070Y009873D01*
X006043Y009839D01*
X006014Y009806D01*
X005981Y009777D01*
X005947Y009750D01*
X005910Y009727D01*
X005871Y009707D01*
X005831Y009690D01*
X005789Y009677D01*
X005747Y009668D01*
X005704Y009662D01*
X005660Y009660D01*
X005716Y015604D02*
X004947Y016373D01*
X004910Y016462D02*
X004910Y018535D01*
X004912Y018555D01*
X004916Y018574D01*
X004924Y018592D01*
X004934Y018608D01*
X004947Y018623D01*
X004962Y018636D01*
X004978Y018646D01*
X004996Y018654D01*
X005015Y018658D01*
X005035Y018660D01*
X005285Y018660D01*
X005305Y018658D01*
X005324Y018654D01*
X005342Y018646D01*
X005358Y018636D01*
X005373Y018623D01*
X005386Y018608D01*
X005396Y018592D01*
X005404Y018574D01*
X005408Y018555D01*
X005410Y018535D01*
X005410Y016712D01*
X005447Y016623D02*
X006077Y015993D01*
X006077Y015992D02*
X006091Y015976D01*
X006101Y015958D01*
X006109Y015939D01*
X006113Y015919D01*
X006114Y015898D01*
X006111Y015877D01*
X006105Y015857D01*
X006095Y015838D01*
X006083Y015822D01*
X005898Y015611D01*
X005883Y015596D01*
X005867Y015585D01*
X005848Y015576D01*
X005828Y015570D01*
X005808Y015568D01*
X005788Y015569D01*
X005768Y015573D01*
X005749Y015581D01*
X005731Y015591D01*
X005716Y015605D01*
X004947Y016374D02*
X004934Y016389D01*
X004924Y016405D01*
X004916Y016423D01*
X004912Y016442D01*
X004910Y016462D01*
X005410Y016712D02*
X005412Y016692D01*
X005416Y016673D01*
X005424Y016655D01*
X005434Y016639D01*
X005447Y016624D01*
M02*
