G75*
G70*
%OFA0B0*%
%FSLAX24Y24*%
%IPPOS*%
%LPD*%
%AMOC8*
5,1,8,0,0,1.08239X$1,22.5*
%
%ADD10C,0.0000*%
%ADD11R,0.0740X0.0740*%
%ADD12C,0.0740*%
%ADD13C,0.0640*%
%ADD14R,0.0860X0.0860*%
%ADD15C,0.0860*%
%ADD16OC8,0.0640*%
%ADD17OC8,0.0720*%
%ADD18C,0.0640*%
%ADD19C,0.0120*%
%ADD20C,0.0356*%
%ADD21C,0.0160*%
%ADD22C,0.0650*%
%ADD23C,0.0500*%
%ADD24C,0.0472*%
%ADD25C,0.0320*%
%ADD26C,0.0240*%
D10*
X000160Y000554D02*
X000160Y019451D01*
X000162Y019490D01*
X000168Y019528D01*
X000177Y019565D01*
X000190Y019602D01*
X000207Y019637D01*
X000226Y019670D01*
X000249Y019701D01*
X000275Y019730D01*
X000304Y019756D01*
X000335Y019779D01*
X000368Y019798D01*
X000403Y019815D01*
X000440Y019828D01*
X000477Y019837D01*
X000515Y019843D01*
X000554Y019845D01*
X019451Y019845D01*
X019490Y019843D01*
X019528Y019837D01*
X019565Y019828D01*
X019602Y019815D01*
X019637Y019798D01*
X019670Y019779D01*
X019701Y019756D01*
X019730Y019730D01*
X019756Y019701D01*
X019779Y019670D01*
X019798Y019637D01*
X019815Y019602D01*
X019828Y019565D01*
X019837Y019528D01*
X019843Y019490D01*
X019845Y019451D01*
X019845Y000554D01*
X019843Y000515D01*
X019837Y000477D01*
X019828Y000440D01*
X019815Y000403D01*
X019798Y000368D01*
X019779Y000335D01*
X019756Y000304D01*
X019730Y000275D01*
X019701Y000249D01*
X019670Y000226D01*
X019637Y000207D01*
X019602Y000190D01*
X019565Y000177D01*
X019528Y000168D01*
X019490Y000162D01*
X019451Y000160D01*
X000554Y000160D01*
X000515Y000162D01*
X000477Y000168D01*
X000440Y000177D01*
X000403Y000190D01*
X000368Y000207D01*
X000335Y000226D01*
X000304Y000249D01*
X000275Y000275D01*
X000249Y000304D01*
X000226Y000335D01*
X000207Y000368D01*
X000190Y000403D01*
X000177Y000440D01*
X000168Y000477D01*
X000162Y000515D01*
X000160Y000554D01*
D11*
X015660Y001160D03*
X019160Y007160D03*
D12*
X019160Y008160D03*
X019160Y009160D03*
X019160Y010160D03*
X019160Y005160D03*
X019160Y004160D03*
X019160Y003160D03*
X015660Y002160D03*
X014660Y002160D03*
X014660Y001160D03*
X013660Y001160D03*
X013660Y002160D03*
X012660Y001160D03*
D13*
X007300Y017160D02*
X006660Y017160D01*
X006660Y018160D02*
X007300Y018160D01*
X003660Y018160D02*
X003020Y018160D01*
X003020Y017160D02*
X003660Y017160D01*
D14*
X001660Y014660D03*
X003660Y001660D03*
D15*
X005660Y001660D03*
X001660Y012660D03*
D16*
X004660Y010660D03*
X001660Y006160D03*
X009160Y006160D03*
X004660Y015660D03*
D17*
X018160Y015660D03*
X018160Y014660D03*
X018160Y013660D03*
X018160Y012660D03*
X019160Y012660D03*
X019160Y013660D03*
X019160Y014660D03*
X019160Y015660D03*
X019160Y016660D03*
X018160Y016660D03*
D18*
X009160Y005160D03*
X001660Y005160D03*
D19*
X001280Y004776D02*
X001280Y004584D01*
X001338Y004445D01*
X001445Y004338D01*
X002704Y003079D01*
X002704Y003069D01*
X002773Y002902D01*
X002902Y002773D01*
X003069Y002704D01*
X003251Y002704D01*
X003418Y002773D01*
X003547Y002902D01*
X003616Y003069D01*
X003616Y003251D01*
X003547Y003418D01*
X003418Y003547D01*
X003251Y003616D01*
X003241Y003616D01*
X002061Y004797D01*
X002118Y004854D01*
X002200Y005053D01*
X002200Y005267D01*
X002118Y005466D01*
X001966Y005618D01*
X001816Y005680D01*
X001859Y005680D01*
X002140Y005961D01*
X002140Y006140D01*
X001680Y006140D01*
X001680Y006180D01*
X001640Y006180D01*
X001640Y006640D01*
X001461Y006640D01*
X001180Y006359D01*
X001180Y006180D01*
X001640Y006180D01*
X001640Y006140D01*
X001180Y006140D01*
X001180Y005961D01*
X001461Y005680D01*
X001504Y005680D01*
X001354Y005618D01*
X001202Y005466D01*
X001120Y005267D01*
X001120Y005053D01*
X001202Y004854D01*
X001280Y004776D01*
X001275Y004782D02*
X000380Y004782D01*
X000380Y004900D02*
X001183Y004900D01*
X001134Y005019D02*
X000380Y005019D01*
X000380Y005137D02*
X001120Y005137D01*
X001120Y005256D02*
X000380Y005256D01*
X000380Y005374D02*
X001164Y005374D01*
X001229Y005493D02*
X000380Y005493D01*
X000380Y005611D02*
X001347Y005611D01*
X001412Y005730D02*
X000380Y005730D01*
X000380Y005848D02*
X001293Y005848D01*
X001180Y005967D02*
X000380Y005967D01*
X000380Y006085D02*
X001180Y006085D01*
X001180Y006204D02*
X000380Y006204D01*
X000380Y006322D02*
X001180Y006322D01*
X001262Y006441D02*
X000380Y006441D01*
X000380Y006559D02*
X001380Y006559D01*
X001640Y006559D02*
X001680Y006559D01*
X001680Y006640D02*
X001680Y006180D01*
X002140Y006180D01*
X002140Y006359D01*
X001859Y006640D01*
X001680Y006640D01*
X001680Y006441D02*
X001640Y006441D01*
X001640Y006322D02*
X001680Y006322D01*
X001680Y006204D02*
X001640Y006204D01*
X001940Y006559D02*
X008880Y006559D01*
X008961Y006640D02*
X008680Y006359D01*
X008680Y006180D01*
X009140Y006180D01*
X009140Y006640D01*
X008961Y006640D01*
X009140Y006559D02*
X009180Y006559D01*
X009180Y006640D02*
X009180Y006180D01*
X009140Y006180D01*
X009140Y006140D01*
X008680Y006140D01*
X008680Y005961D01*
X008961Y005680D01*
X009004Y005680D01*
X008854Y005618D01*
X008702Y005466D01*
X008620Y005267D01*
X008620Y005053D01*
X008702Y004854D01*
X008854Y004702D01*
X009053Y004620D01*
X009267Y004620D01*
X009466Y004702D01*
X009618Y004854D01*
X009700Y005053D01*
X009700Y005267D01*
X009618Y005466D01*
X009466Y005618D01*
X009316Y005680D01*
X009359Y005680D01*
X009640Y005961D01*
X009640Y006140D01*
X009180Y006140D01*
X009180Y006180D01*
X009640Y006180D01*
X009640Y006359D01*
X009359Y006640D01*
X009180Y006640D01*
X009180Y006441D02*
X009140Y006441D01*
X009140Y006322D02*
X009180Y006322D01*
X009180Y006204D02*
X009140Y006204D01*
X008762Y006441D02*
X007942Y006441D01*
X007998Y006386D02*
X007886Y006498D01*
X007739Y006558D01*
X007581Y006558D01*
X007434Y006498D01*
X007322Y006386D01*
X007262Y006239D01*
X007262Y006081D01*
X007322Y005934D01*
X007434Y005822D01*
X007581Y005762D01*
X007739Y005762D01*
X007886Y005822D01*
X007998Y005934D01*
X008058Y006081D01*
X008058Y006239D01*
X007998Y006386D01*
X008024Y006322D02*
X008680Y006322D01*
X008680Y006204D02*
X008058Y006204D01*
X008058Y006085D02*
X008680Y006085D01*
X008680Y005967D02*
X008011Y005967D01*
X007911Y005848D02*
X008793Y005848D01*
X008912Y005730D02*
X001908Y005730D01*
X001973Y005611D02*
X008847Y005611D01*
X008729Y005493D02*
X007890Y005493D01*
X007886Y005498D02*
X007739Y005558D01*
X007581Y005558D01*
X007434Y005498D01*
X007322Y005386D01*
X007262Y005239D01*
X007262Y005081D01*
X007322Y004934D01*
X007434Y004822D01*
X007581Y004762D01*
X007739Y004762D01*
X007886Y004822D01*
X007998Y004934D01*
X008058Y005081D01*
X008058Y005239D01*
X007998Y005386D01*
X007886Y005498D01*
X008002Y005374D02*
X008664Y005374D01*
X008620Y005256D02*
X008051Y005256D01*
X008058Y005137D02*
X008620Y005137D01*
X008634Y005019D02*
X008032Y005019D01*
X007963Y004900D02*
X008683Y004900D01*
X008775Y004782D02*
X007787Y004782D01*
X007533Y004782D02*
X002076Y004782D01*
X002137Y004900D02*
X007357Y004900D01*
X007288Y005019D02*
X002186Y005019D01*
X002200Y005137D02*
X007262Y005137D01*
X007269Y005256D02*
X002200Y005256D01*
X002156Y005374D02*
X007318Y005374D01*
X007429Y005493D02*
X002091Y005493D01*
X002027Y005848D02*
X007409Y005848D01*
X007309Y005967D02*
X002140Y005967D01*
X002140Y006085D02*
X007262Y006085D01*
X007262Y006204D02*
X002140Y006204D01*
X002140Y006322D02*
X007296Y006322D01*
X007378Y006441D02*
X002058Y006441D01*
X000380Y006678D02*
X010380Y006678D01*
X010380Y006796D02*
X000380Y006796D01*
X000380Y006915D02*
X010380Y006915D01*
X010380Y007033D02*
X000380Y007033D01*
X000380Y007152D02*
X010380Y007152D01*
X010380Y007270D02*
X000380Y007270D01*
X000380Y007389D02*
X010380Y007389D01*
X010380Y007507D02*
X000380Y007507D01*
X000380Y007626D02*
X010380Y007626D01*
X010380Y007744D02*
X000380Y007744D01*
X000380Y007863D02*
X010380Y007863D01*
X010380Y007981D02*
X000380Y007981D01*
X000380Y008100D02*
X010380Y008100D01*
X010380Y008218D02*
X008160Y008218D01*
X008160Y008160D02*
X008160Y015160D01*
X006660Y015160D01*
X006660Y016660D01*
X006160Y016660D01*
X006160Y017956D01*
X006202Y017854D01*
X006354Y017702D01*
X006539Y017625D01*
X006476Y017605D01*
X006408Y017571D01*
X006347Y017526D01*
X006294Y017473D01*
X006249Y017412D01*
X006215Y017344D01*
X006192Y017272D01*
X006180Y017198D01*
X006180Y017180D01*
X006640Y017180D01*
X006640Y017140D01*
X006680Y017140D01*
X006680Y017180D01*
X007780Y017180D01*
X007780Y017198D01*
X007768Y017272D01*
X007745Y017344D01*
X007711Y017412D01*
X007666Y017473D01*
X007613Y017526D01*
X007552Y017571D01*
X007484Y017605D01*
X007421Y017625D01*
X007606Y017702D01*
X007724Y017820D01*
X009769Y017820D01*
X010014Y017575D01*
X010072Y017434D01*
X010184Y017322D01*
X010331Y017262D01*
X010489Y017262D01*
X010636Y017322D01*
X010748Y017434D01*
X010808Y017581D01*
X010808Y017739D01*
X010748Y017886D01*
X010636Y017998D01*
X010495Y018056D01*
X010103Y018448D01*
X009978Y018500D01*
X007724Y018500D01*
X007606Y018618D01*
X007407Y018700D01*
X006553Y018700D01*
X006354Y018618D01*
X006202Y018466D01*
X006160Y018364D01*
X006160Y019625D01*
X019451Y019625D01*
X019485Y019622D01*
X019548Y019596D01*
X019596Y019548D01*
X019622Y019485D01*
X019625Y019451D01*
X019625Y016930D01*
X019375Y017180D01*
X019200Y017180D01*
X019200Y016700D01*
X019120Y016700D01*
X019120Y017180D01*
X018945Y017180D01*
X018702Y016938D01*
X018400Y017240D01*
X017920Y017240D01*
X017580Y016900D01*
X017580Y016420D01*
X017840Y016160D01*
X017580Y015900D01*
X017580Y015420D01*
X017840Y015160D01*
X017580Y014900D01*
X017580Y014420D01*
X017840Y014160D01*
X017580Y013900D01*
X017580Y013420D01*
X017840Y013160D01*
X017580Y012900D01*
X017580Y012420D01*
X017920Y012080D01*
X018400Y012080D01*
X018702Y012382D01*
X018945Y012140D01*
X019120Y012140D01*
X019120Y012620D01*
X019200Y012620D01*
X019200Y012140D01*
X019375Y012140D01*
X019625Y012390D01*
X019625Y010529D01*
X019494Y010660D01*
X019277Y010750D01*
X019043Y010750D01*
X018826Y010660D01*
X018660Y010494D01*
X018570Y010277D01*
X018570Y010043D01*
X018660Y009826D01*
X018826Y009660D01*
X018660Y009494D01*
X018637Y009440D01*
X015776Y009440D01*
X014819Y010397D01*
X014716Y010440D01*
X013604Y010440D01*
X013501Y010397D01*
X013423Y010319D01*
X012923Y009819D01*
X012880Y009716D01*
X012880Y009443D01*
X012822Y009386D01*
X012762Y009239D01*
X012762Y009081D01*
X012822Y008934D01*
X012934Y008822D01*
X013081Y008762D01*
X013239Y008762D01*
X013386Y008822D01*
X013498Y008934D01*
X013558Y009081D01*
X013558Y009239D01*
X013498Y009386D01*
X013440Y009443D01*
X013440Y009544D01*
X013776Y009880D01*
X014544Y009880D01*
X014734Y009690D01*
X014443Y009690D01*
X014386Y009748D01*
X014239Y009808D01*
X014081Y009808D01*
X013934Y009748D01*
X013822Y009636D01*
X013762Y009489D01*
X013762Y009331D01*
X013822Y009184D01*
X013934Y009072D01*
X014081Y009012D01*
X014239Y009012D01*
X014386Y009072D01*
X014443Y009130D01*
X014794Y009130D01*
X015923Y008001D01*
X016001Y007923D01*
X016104Y007880D01*
X018637Y007880D01*
X018660Y007826D01*
X018796Y007690D01*
X018769Y007690D01*
X018728Y007679D01*
X018692Y007658D01*
X018662Y007628D01*
X018641Y007592D01*
X018630Y007551D01*
X018630Y007200D01*
X019120Y007200D01*
X019120Y007120D01*
X019200Y007120D01*
X019200Y006630D01*
X019551Y006630D01*
X019592Y006641D01*
X019625Y006660D01*
X019625Y005529D01*
X019494Y005660D01*
X019277Y005750D01*
X019043Y005750D01*
X018826Y005660D01*
X018660Y005494D01*
X018570Y005277D01*
X018570Y005043D01*
X018660Y004826D01*
X018826Y004660D01*
X018660Y004494D01*
X018570Y004277D01*
X018570Y004043D01*
X018660Y003826D01*
X018826Y003660D01*
X018660Y003494D01*
X018570Y003277D01*
X018570Y003043D01*
X018660Y002826D01*
X018826Y002660D01*
X019043Y002570D01*
X019277Y002570D01*
X019494Y002660D01*
X019625Y002791D01*
X019625Y000554D01*
X019622Y000520D01*
X019596Y000457D01*
X019548Y000409D01*
X019485Y000383D01*
X019451Y000380D01*
X000554Y000380D01*
X000520Y000383D01*
X000457Y000409D01*
X000409Y000457D01*
X000383Y000520D01*
X000380Y000554D01*
X000380Y008160D01*
X008160Y008160D01*
X008160Y008337D02*
X010380Y008337D01*
X010380Y008455D02*
X008160Y008455D01*
X008160Y008574D02*
X010380Y008574D01*
X010380Y008692D02*
X008160Y008692D01*
X008160Y008811D02*
X010380Y008811D01*
X010380Y008929D02*
X008160Y008929D01*
X008160Y009048D02*
X010380Y009048D01*
X010380Y009166D02*
X008160Y009166D01*
X008160Y009285D02*
X010380Y009285D01*
X010380Y009403D02*
X008160Y009403D01*
X008160Y009522D02*
X010308Y009522D01*
X010331Y009512D02*
X010380Y009512D01*
X010380Y005104D01*
X010423Y005001D01*
X010501Y004923D01*
X011762Y003662D01*
X011762Y003581D01*
X011822Y003434D01*
X011934Y003322D01*
X012081Y003262D01*
X012239Y003262D01*
X012386Y003322D01*
X012498Y003434D01*
X012558Y003581D01*
X012558Y003739D01*
X012498Y003886D01*
X012386Y003998D01*
X012239Y004058D01*
X012158Y004058D01*
X010940Y005276D01*
X010940Y005484D01*
X011001Y005423D01*
X012501Y003923D01*
X012604Y003880D01*
X014377Y003880D01*
X014434Y003822D01*
X014581Y003762D01*
X014719Y003762D01*
X014684Y003748D01*
X014572Y003636D01*
X014512Y003489D01*
X014512Y003408D01*
X013832Y002728D01*
X013777Y002750D01*
X013543Y002750D01*
X013326Y002660D01*
X013160Y002494D01*
X013070Y002277D01*
X013070Y002043D01*
X013160Y001826D01*
X013326Y001660D01*
X013160Y001494D01*
X012994Y001660D01*
X012777Y001750D01*
X012543Y001750D01*
X012326Y001660D01*
X012160Y001494D01*
X012070Y001277D01*
X012070Y001043D01*
X012160Y000826D01*
X012326Y000660D01*
X012543Y000570D01*
X012777Y000570D01*
X012994Y000660D01*
X013160Y000826D01*
X013326Y000660D01*
X013543Y000570D01*
X013777Y000570D01*
X013994Y000660D01*
X014160Y000826D01*
X014326Y000660D01*
X014543Y000570D01*
X014777Y000570D01*
X014994Y000660D01*
X015130Y000796D01*
X015130Y000769D01*
X015141Y000728D01*
X015162Y000692D01*
X015192Y000662D01*
X015228Y000641D01*
X015269Y000630D01*
X015620Y000630D01*
X015620Y001120D01*
X015700Y001120D01*
X015700Y001200D01*
X016190Y001200D01*
X016190Y001551D01*
X016179Y001592D01*
X016158Y001628D01*
X016128Y001658D01*
X016092Y001679D01*
X016051Y001690D01*
X016024Y001690D01*
X016160Y001826D01*
X016250Y002043D01*
X016250Y002277D01*
X016160Y002494D01*
X015994Y002660D01*
X015777Y002750D01*
X015543Y002750D01*
X015326Y002660D01*
X015160Y002494D01*
X014994Y002660D01*
X014777Y002750D01*
X014646Y002750D01*
X014908Y003012D01*
X014989Y003012D01*
X015136Y003072D01*
X015248Y003184D01*
X015308Y003331D01*
X015308Y003489D01*
X015248Y003636D01*
X015136Y003748D01*
X014989Y003808D01*
X014851Y003808D01*
X014886Y003822D01*
X014998Y003934D01*
X015058Y004081D01*
X015058Y004239D01*
X014998Y004386D01*
X014886Y004498D01*
X014739Y004558D01*
X014581Y004558D01*
X014434Y004498D01*
X014377Y004440D01*
X012776Y004440D01*
X011440Y005776D01*
X011440Y007984D01*
X011501Y007923D01*
X012001Y007423D01*
X012104Y007380D01*
X013544Y007380D01*
X013616Y007308D01*
X013581Y007308D01*
X013434Y007248D01*
X013322Y007136D01*
X013262Y006989D01*
X013262Y006908D01*
X012501Y006147D01*
X012423Y006069D01*
X012380Y005966D01*
X012380Y005443D01*
X012322Y005386D01*
X012262Y005239D01*
X012262Y005081D01*
X012322Y004934D01*
X012434Y004822D01*
X012581Y004762D01*
X012739Y004762D01*
X012886Y004822D01*
X012998Y004934D01*
X013058Y005081D01*
X013058Y005239D01*
X012998Y005386D01*
X012940Y005443D01*
X012940Y005794D01*
X013658Y006512D01*
X013739Y006512D01*
X013778Y006528D01*
X013762Y006489D01*
X013762Y006331D01*
X013822Y006184D01*
X013934Y006072D01*
X014081Y006012D01*
X014239Y006012D01*
X014386Y006072D01*
X014498Y006184D01*
X014558Y006331D01*
X014558Y006469D01*
X014572Y006434D01*
X014684Y006322D01*
X014831Y006262D01*
X014989Y006262D01*
X015136Y006322D01*
X015248Y006434D01*
X015308Y006581D01*
X015308Y006739D01*
X015248Y006886D01*
X015190Y006943D01*
X015190Y006966D01*
X015147Y007069D01*
X013897Y008319D01*
X013819Y008397D01*
X013716Y008440D01*
X012443Y008440D01*
X012386Y008498D01*
X012239Y008558D01*
X012081Y008558D01*
X012042Y008542D01*
X012058Y008581D01*
X012058Y008739D01*
X011998Y008886D01*
X011886Y008998D01*
X011739Y009058D01*
X011581Y009058D01*
X011440Y009000D01*
X011440Y009512D01*
X011489Y009512D01*
X011636Y009572D01*
X011748Y009684D01*
X011808Y009831D01*
X011808Y009989D01*
X011748Y010136D01*
X011636Y010248D01*
X011489Y010308D01*
X011331Y010308D01*
X011184Y010248D01*
X011072Y010136D01*
X011012Y009989D01*
X011012Y009908D01*
X010923Y009819D01*
X010910Y009788D01*
X010897Y009819D01*
X010808Y009908D01*
X010808Y009989D01*
X010748Y010136D01*
X010636Y010248D01*
X010489Y010308D01*
X010331Y010308D01*
X010184Y010248D01*
X010072Y010136D01*
X010012Y009989D01*
X010012Y009831D01*
X010072Y009684D01*
X010184Y009572D01*
X010331Y009512D01*
X010117Y009640D02*
X008160Y009640D01*
X008160Y009759D02*
X010042Y009759D01*
X010012Y009877D02*
X008160Y009877D01*
X008160Y009996D02*
X010015Y009996D01*
X010064Y010114D02*
X008160Y010114D01*
X008160Y010233D02*
X010170Y010233D01*
X010410Y009910D02*
X010660Y009660D01*
X010660Y005160D01*
X012160Y003660D01*
X011804Y003478D02*
X003487Y003478D01*
X003571Y003360D02*
X011897Y003360D01*
X011762Y003597D02*
X003298Y003597D01*
X003142Y003715D02*
X011709Y003715D01*
X011591Y003834D02*
X003024Y003834D01*
X002905Y003952D02*
X011472Y003952D01*
X011354Y004071D02*
X002787Y004071D01*
X002668Y004189D02*
X011235Y004189D01*
X011117Y004308D02*
X002550Y004308D01*
X002431Y004426D02*
X010998Y004426D01*
X010880Y004545D02*
X002313Y004545D01*
X002194Y004663D02*
X008949Y004663D01*
X009371Y004663D02*
X010761Y004663D01*
X010643Y004782D02*
X009545Y004782D01*
X009637Y004900D02*
X010524Y004900D01*
X010416Y005019D02*
X009686Y005019D01*
X009700Y005137D02*
X010380Y005137D01*
X010380Y005256D02*
X009700Y005256D01*
X009656Y005374D02*
X010380Y005374D01*
X010380Y005493D02*
X009591Y005493D01*
X009473Y005611D02*
X010380Y005611D01*
X010380Y005730D02*
X009408Y005730D01*
X009527Y005848D02*
X010380Y005848D01*
X010380Y005967D02*
X009640Y005967D01*
X009640Y006085D02*
X010380Y006085D01*
X010380Y006204D02*
X009640Y006204D01*
X009640Y006322D02*
X010380Y006322D01*
X010380Y006441D02*
X009558Y006441D01*
X009440Y006559D02*
X010380Y006559D01*
X011160Y005660D02*
X011160Y009660D01*
X011410Y009910D01*
X011778Y009759D02*
X012898Y009759D01*
X012880Y009640D02*
X011703Y009640D01*
X011512Y009522D02*
X012880Y009522D01*
X012840Y009403D02*
X011440Y009403D01*
X011440Y009285D02*
X012781Y009285D01*
X012762Y009166D02*
X011440Y009166D01*
X011440Y009048D02*
X011555Y009048D01*
X011765Y009048D02*
X012776Y009048D01*
X012828Y008929D02*
X011954Y008929D01*
X012029Y008811D02*
X012963Y008811D01*
X013357Y008811D02*
X015114Y008811D01*
X015232Y008692D02*
X012058Y008692D01*
X012055Y008574D02*
X015351Y008574D01*
X015469Y008455D02*
X012428Y008455D01*
X012160Y008160D02*
X013660Y008160D01*
X014910Y006910D01*
X014910Y006660D01*
X015162Y007033D02*
X018630Y007033D01*
X018630Y007120D02*
X018630Y006769D01*
X018641Y006728D01*
X018662Y006692D01*
X018692Y006662D01*
X018728Y006641D01*
X018769Y006630D01*
X019120Y006630D01*
X019120Y007120D01*
X018630Y007120D01*
X018630Y007270D02*
X014946Y007270D01*
X015064Y007152D02*
X019120Y007152D01*
X019120Y007033D02*
X019200Y007033D01*
X019200Y006915D02*
X019120Y006915D01*
X019120Y006796D02*
X019200Y006796D01*
X019200Y006678D02*
X019120Y006678D01*
X018676Y006678D02*
X015308Y006678D01*
X015299Y006559D02*
X019625Y006559D01*
X019625Y006441D02*
X015250Y006441D01*
X015134Y006322D02*
X019625Y006322D01*
X019625Y006204D02*
X014505Y006204D01*
X014554Y006322D02*
X014686Y006322D01*
X014570Y006441D02*
X014558Y006441D01*
X014398Y006085D02*
X019625Y006085D01*
X019625Y005967D02*
X013112Y005967D01*
X012994Y005848D02*
X019625Y005848D01*
X019625Y005730D02*
X019327Y005730D01*
X019543Y005611D02*
X019625Y005611D01*
X018993Y005730D02*
X012940Y005730D01*
X012940Y005611D02*
X018777Y005611D01*
X018659Y005493D02*
X012940Y005493D01*
X013002Y005374D02*
X018610Y005374D01*
X018570Y005256D02*
X013051Y005256D01*
X013058Y005137D02*
X018570Y005137D01*
X018580Y005019D02*
X013032Y005019D01*
X012963Y004900D02*
X018629Y004900D01*
X018704Y004782D02*
X012787Y004782D01*
X012533Y004782D02*
X012434Y004782D01*
X012357Y004900D02*
X012316Y004900D01*
X012288Y005019D02*
X012197Y005019D01*
X012262Y005137D02*
X012079Y005137D01*
X011960Y005256D02*
X012269Y005256D01*
X012318Y005374D02*
X011842Y005374D01*
X011723Y005493D02*
X012380Y005493D01*
X012380Y005611D02*
X011605Y005611D01*
X011486Y005730D02*
X012380Y005730D01*
X012380Y005848D02*
X011440Y005848D01*
X011440Y005967D02*
X012380Y005967D01*
X012439Y006085D02*
X011440Y006085D01*
X011440Y006204D02*
X012558Y006204D01*
X012676Y006322D02*
X011440Y006322D01*
X011440Y006441D02*
X012795Y006441D01*
X012913Y006559D02*
X011440Y006559D01*
X011440Y006678D02*
X013032Y006678D01*
X013150Y006796D02*
X011440Y006796D01*
X011440Y006915D02*
X013262Y006915D01*
X013280Y007033D02*
X011440Y007033D01*
X011440Y007152D02*
X013339Y007152D01*
X013489Y007270D02*
X011440Y007270D01*
X011440Y007389D02*
X012084Y007389D01*
X011917Y007507D02*
X011440Y007507D01*
X011440Y007626D02*
X011799Y007626D01*
X011680Y007744D02*
X011440Y007744D01*
X011440Y007863D02*
X011562Y007863D01*
X011443Y007981D02*
X011440Y007981D01*
X011660Y008160D02*
X011660Y008660D01*
X011660Y008160D02*
X012160Y007660D01*
X013660Y007660D01*
X014160Y007160D01*
X014160Y006410D01*
X013815Y006204D02*
X013349Y006204D01*
X013231Y006085D02*
X013922Y006085D01*
X013766Y006322D02*
X013468Y006322D01*
X013586Y006441D02*
X013762Y006441D01*
X013660Y006910D02*
X012660Y005910D01*
X012660Y005160D01*
X012553Y004663D02*
X018823Y004663D01*
X018710Y004545D02*
X014772Y004545D01*
X014957Y004426D02*
X018632Y004426D01*
X018582Y004308D02*
X015030Y004308D01*
X015058Y004189D02*
X018570Y004189D01*
X018570Y004071D02*
X015054Y004071D01*
X015005Y003952D02*
X018608Y003952D01*
X018657Y003834D02*
X014897Y003834D01*
X014652Y003715D02*
X012558Y003715D01*
X012558Y003597D02*
X014556Y003597D01*
X014512Y003478D02*
X012516Y003478D01*
X012423Y003360D02*
X014464Y003360D01*
X014345Y003241D02*
X003616Y003241D01*
X003616Y003123D02*
X014227Y003123D01*
X014108Y003004D02*
X003589Y003004D01*
X003531Y002886D02*
X013990Y002886D01*
X013871Y002767D02*
X003403Y002767D01*
X003209Y002250D02*
X003168Y002239D01*
X003132Y002218D01*
X003102Y002188D01*
X003081Y002152D01*
X003070Y002111D01*
X003070Y001708D01*
X003612Y001708D01*
X003612Y002250D01*
X003209Y002250D01*
X003094Y002175D02*
X001550Y002175D01*
X001510Y002191D02*
X001172Y002191D01*
X000860Y002062D01*
X000621Y001823D01*
X000491Y001510D01*
X000491Y001172D01*
X000621Y000860D01*
X000860Y000621D01*
X001172Y000491D01*
X001510Y000491D01*
X001823Y000621D01*
X002062Y000860D01*
X002191Y001172D01*
X002191Y001510D01*
X002062Y001823D01*
X001823Y002062D01*
X001510Y002191D01*
X001828Y002056D02*
X003070Y002056D01*
X003070Y001938D02*
X001947Y001938D01*
X002063Y001819D02*
X003070Y001819D01*
X003070Y001612D02*
X003070Y001209D01*
X003081Y001168D01*
X003102Y001132D01*
X003132Y001102D01*
X003168Y001081D01*
X003209Y001070D01*
X003612Y001070D01*
X003612Y001612D01*
X003708Y001612D01*
X003708Y001708D01*
X003612Y001708D01*
X003612Y001612D01*
X003070Y001612D01*
X003070Y001582D02*
X002161Y001582D01*
X002191Y001464D02*
X003070Y001464D01*
X003070Y001345D02*
X002191Y001345D01*
X002191Y001227D02*
X003070Y001227D01*
X003126Y001108D02*
X002164Y001108D01*
X002115Y000990D02*
X010012Y000990D01*
X010012Y000989D02*
X010012Y000831D01*
X010072Y000684D01*
X010184Y000572D01*
X010331Y000512D01*
X010489Y000512D01*
X010636Y000572D01*
X010748Y000684D01*
X010808Y000831D01*
X010808Y000912D01*
X011408Y001512D01*
X011489Y001512D01*
X011636Y001572D01*
X011748Y001684D01*
X011808Y001831D01*
X011808Y001989D01*
X011748Y002136D01*
X011636Y002248D01*
X011489Y002308D01*
X011331Y002308D01*
X011184Y002248D01*
X011072Y002136D01*
X011012Y001989D01*
X011012Y001908D01*
X010412Y001308D01*
X010331Y001308D01*
X010184Y001248D01*
X010072Y001136D01*
X010012Y000989D01*
X010012Y000871D02*
X002066Y000871D01*
X001954Y000753D02*
X010044Y000753D01*
X010123Y000634D02*
X001836Y000634D01*
X001569Y000516D02*
X010322Y000516D01*
X010498Y000516D02*
X018436Y000516D01*
X018495Y000491D02*
X018833Y000491D01*
X019145Y000621D01*
X019384Y000860D01*
X019514Y001172D01*
X019514Y001510D01*
X019384Y001823D01*
X019145Y002062D01*
X018833Y002191D01*
X018495Y002191D01*
X018182Y002062D01*
X017943Y001823D01*
X017814Y001510D01*
X017814Y001172D01*
X017943Y000860D01*
X018182Y000621D01*
X018495Y000491D01*
X018169Y000634D02*
X016066Y000634D01*
X016051Y000630D02*
X016092Y000641D01*
X016128Y000662D01*
X016158Y000692D01*
X016179Y000728D01*
X016190Y000769D01*
X016190Y001120D01*
X015700Y001120D01*
X015700Y000630D01*
X016051Y000630D01*
X016186Y000753D02*
X018051Y000753D01*
X017939Y000871D02*
X016190Y000871D01*
X016190Y000990D02*
X017890Y000990D01*
X017841Y001108D02*
X016190Y001108D01*
X016190Y001227D02*
X017814Y001227D01*
X017814Y001345D02*
X016190Y001345D01*
X016190Y001464D02*
X017814Y001464D01*
X017844Y001582D02*
X016182Y001582D01*
X016035Y001701D02*
X017893Y001701D01*
X017942Y001819D02*
X016153Y001819D01*
X016206Y001938D02*
X018058Y001938D01*
X018177Y002056D02*
X016250Y002056D01*
X016250Y002175D02*
X018455Y002175D01*
X018873Y002175D02*
X019625Y002175D01*
X019625Y002293D02*
X016244Y002293D01*
X016194Y002412D02*
X019625Y002412D01*
X019625Y002530D02*
X016124Y002530D01*
X016006Y002649D02*
X018853Y002649D01*
X018719Y002767D02*
X014663Y002767D01*
X014781Y002886D02*
X018635Y002886D01*
X018586Y003004D02*
X014900Y003004D01*
X015186Y003123D02*
X018570Y003123D01*
X018570Y003241D02*
X015271Y003241D01*
X015308Y003360D02*
X018604Y003360D01*
X018653Y003478D02*
X015308Y003478D01*
X015264Y003597D02*
X018762Y003597D01*
X018771Y003715D02*
X015168Y003715D01*
X014910Y003410D02*
X013660Y002160D01*
X013285Y001701D02*
X012897Y001701D01*
X013072Y001582D02*
X013248Y001582D01*
X013167Y001819D02*
X011803Y001819D01*
X011808Y001938D02*
X013114Y001938D01*
X013070Y002056D02*
X011780Y002056D01*
X011709Y002175D02*
X013070Y002175D01*
X013076Y002293D02*
X011526Y002293D01*
X011294Y002293D02*
X005830Y002293D01*
X005789Y002310D02*
X005531Y002310D01*
X005292Y002211D01*
X005109Y002028D01*
X005010Y001789D01*
X005010Y001531D01*
X005109Y001292D01*
X005292Y001109D01*
X005531Y001010D01*
X005789Y001010D01*
X006028Y001109D01*
X006211Y001292D01*
X006310Y001531D01*
X006310Y001789D01*
X006211Y002028D01*
X006028Y002211D01*
X005789Y002310D01*
X005490Y002293D02*
X000380Y002293D01*
X000380Y002175D02*
X001132Y002175D01*
X000854Y002056D02*
X000380Y002056D01*
X000380Y001938D02*
X000736Y001938D01*
X000619Y001819D02*
X000380Y001819D01*
X000380Y001701D02*
X000570Y001701D01*
X000521Y001582D02*
X000380Y001582D01*
X000380Y001464D02*
X000491Y001464D01*
X000491Y001345D02*
X000380Y001345D01*
X000380Y001227D02*
X000491Y001227D01*
X000518Y001108D02*
X000380Y001108D01*
X000380Y000990D02*
X000567Y000990D01*
X000616Y000871D02*
X000380Y000871D01*
X000380Y000753D02*
X000728Y000753D01*
X000846Y000634D02*
X000380Y000634D01*
X000385Y000516D02*
X001113Y000516D01*
X000487Y000397D02*
X019518Y000397D01*
X019620Y000516D02*
X018892Y000516D01*
X019159Y000634D02*
X019625Y000634D01*
X019625Y000753D02*
X019277Y000753D01*
X019389Y000871D02*
X019625Y000871D01*
X019625Y000990D02*
X019438Y000990D01*
X019487Y001108D02*
X019625Y001108D01*
X019625Y001227D02*
X019514Y001227D01*
X019514Y001345D02*
X019625Y001345D01*
X019625Y001464D02*
X019514Y001464D01*
X019484Y001582D02*
X019625Y001582D01*
X019625Y001701D02*
X019435Y001701D01*
X019386Y001819D02*
X019625Y001819D01*
X019625Y001938D02*
X019270Y001938D01*
X019151Y002056D02*
X019625Y002056D01*
X019625Y002649D02*
X019467Y002649D01*
X019601Y002767D02*
X019625Y002767D01*
X018630Y006796D02*
X015285Y006796D01*
X015218Y006915D02*
X018630Y006915D01*
X018630Y007389D02*
X014827Y007389D01*
X014709Y007507D02*
X018630Y007507D01*
X018660Y007626D02*
X014590Y007626D01*
X014472Y007744D02*
X018742Y007744D01*
X018645Y007863D02*
X014353Y007863D01*
X014235Y007981D02*
X015943Y007981D01*
X015825Y008100D02*
X014116Y008100D01*
X013998Y008218D02*
X015706Y008218D01*
X015588Y008337D02*
X013879Y008337D01*
X013492Y008929D02*
X014995Y008929D01*
X014877Y009048D02*
X014325Y009048D01*
X014160Y009410D02*
X014910Y009410D01*
X016160Y008160D01*
X019160Y008160D01*
X019160Y009160D02*
X015660Y009160D01*
X014660Y010160D01*
X013660Y010160D01*
X013160Y009660D01*
X013160Y009160D01*
X013558Y009166D02*
X013841Y009166D01*
X013781Y009285D02*
X013539Y009285D01*
X013480Y009403D02*
X013762Y009403D01*
X013775Y009522D02*
X013440Y009522D01*
X013536Y009640D02*
X013827Y009640D01*
X013961Y009759D02*
X013654Y009759D01*
X013773Y009877D02*
X014547Y009877D01*
X014665Y009759D02*
X014359Y009759D01*
X014865Y010351D02*
X018601Y010351D01*
X018570Y010233D02*
X014983Y010233D01*
X015102Y010114D02*
X018570Y010114D01*
X018590Y009996D02*
X015220Y009996D01*
X015339Y009877D02*
X018639Y009877D01*
X018727Y009759D02*
X015457Y009759D01*
X015576Y009640D02*
X018806Y009640D01*
X018687Y009522D02*
X015694Y009522D01*
X013995Y009048D02*
X013544Y009048D01*
X012981Y009877D02*
X011808Y009877D01*
X011805Y009996D02*
X013100Y009996D01*
X013218Y010114D02*
X011756Y010114D01*
X011650Y010233D02*
X013337Y010233D01*
X013455Y010351D02*
X008160Y010351D01*
X008160Y010470D02*
X018650Y010470D01*
X018754Y010588D02*
X008160Y010588D01*
X008160Y010707D02*
X018938Y010707D01*
X019382Y010707D02*
X019625Y010707D01*
X019625Y010825D02*
X008160Y010825D01*
X008160Y010944D02*
X019625Y010944D01*
X019625Y011062D02*
X008160Y011062D01*
X008160Y011181D02*
X019625Y011181D01*
X019625Y011299D02*
X008160Y011299D01*
X008160Y011418D02*
X015174Y011418D01*
X015184Y011407D02*
X015331Y011347D01*
X015489Y011347D01*
X015636Y011407D01*
X015748Y011519D01*
X015808Y011665D01*
X015808Y011824D01*
X015748Y011970D01*
X015636Y012082D01*
X015489Y012143D01*
X015436Y012143D01*
X015415Y012164D01*
X015304Y012210D01*
X012423Y012210D01*
X012386Y012248D01*
X012239Y012308D01*
X012081Y012308D01*
X011934Y012248D01*
X011822Y012136D01*
X011762Y011989D01*
X011762Y011831D01*
X011822Y011684D01*
X011934Y011572D01*
X012081Y011512D01*
X012239Y011512D01*
X012386Y011572D01*
X012423Y011610D01*
X015035Y011610D01*
X015072Y011519D01*
X015184Y011407D01*
X015066Y011536D02*
X012297Y011536D01*
X012023Y011536D02*
X008160Y011536D01*
X008160Y011655D02*
X011852Y011655D01*
X011786Y011773D02*
X008160Y011773D01*
X008160Y011892D02*
X011762Y011892D01*
X011771Y012010D02*
X008160Y012010D01*
X008160Y012129D02*
X011820Y012129D01*
X011934Y012247D02*
X008160Y012247D01*
X008160Y012366D02*
X017634Y012366D01*
X017580Y012484D02*
X008160Y012484D01*
X008160Y012603D02*
X017580Y012603D01*
X017580Y012721D02*
X008160Y012721D01*
X008160Y012840D02*
X017580Y012840D01*
X017638Y012958D02*
X008160Y012958D01*
X008160Y013077D02*
X017756Y013077D01*
X017805Y013195D02*
X015632Y013195D01*
X015636Y013197D02*
X015748Y013309D01*
X015808Y013455D01*
X015808Y013613D01*
X015748Y013760D01*
X015636Y013872D01*
X015489Y013932D01*
X015411Y013932D01*
X015344Y013960D01*
X014321Y013960D01*
X014366Y014069D01*
X014366Y014251D01*
X014297Y014418D01*
X014168Y014547D01*
X014001Y014616D01*
X013819Y014616D01*
X013652Y014547D01*
X013605Y014500D01*
X009965Y014500D01*
X009918Y014547D01*
X009751Y014616D01*
X009569Y014616D01*
X009402Y014547D01*
X009273Y014418D01*
X009204Y014251D01*
X009204Y014069D01*
X009273Y013902D01*
X009402Y013773D01*
X009569Y013704D01*
X009751Y013704D01*
X009918Y013773D01*
X009965Y013820D01*
X011795Y013820D01*
X011762Y013739D01*
X011762Y013581D01*
X011822Y013434D01*
X011934Y013322D01*
X012081Y013262D01*
X012239Y013262D01*
X012386Y013322D01*
X012423Y013360D01*
X015051Y013360D01*
X015072Y013309D01*
X015184Y013197D01*
X015331Y013136D01*
X015489Y013136D01*
X015636Y013197D01*
X015750Y013314D02*
X017686Y013314D01*
X017580Y013432D02*
X015799Y013432D01*
X015808Y013551D02*
X017580Y013551D01*
X017580Y013669D02*
X015785Y013669D01*
X015719Y013788D02*
X017580Y013788D01*
X017586Y013906D02*
X015552Y013906D01*
X015070Y013314D02*
X012364Y013314D01*
X011956Y013314D02*
X008160Y013314D01*
X008160Y013432D02*
X011825Y013432D01*
X011774Y013551D02*
X008160Y013551D01*
X008160Y013669D02*
X011762Y013669D01*
X011782Y013788D02*
X009933Y013788D01*
X009387Y013788D02*
X008160Y013788D01*
X008160Y013906D02*
X009271Y013906D01*
X009222Y014025D02*
X008160Y014025D01*
X008160Y014143D02*
X009204Y014143D01*
X009208Y014262D02*
X008160Y014262D01*
X008160Y014380D02*
X009257Y014380D01*
X009353Y014499D02*
X008160Y014499D01*
X008160Y014617D02*
X017580Y014617D01*
X017580Y014499D02*
X014217Y014499D01*
X014313Y014380D02*
X017620Y014380D01*
X017738Y014262D02*
X014362Y014262D01*
X014366Y014143D02*
X017823Y014143D01*
X017704Y014025D02*
X014348Y014025D01*
X015188Y013195D02*
X008160Y013195D01*
X008160Y014736D02*
X017580Y014736D01*
X017580Y014854D02*
X008160Y014854D01*
X008160Y014973D02*
X015158Y014973D01*
X015184Y014947D02*
X015331Y014886D01*
X015489Y014886D01*
X015636Y014947D01*
X015748Y015059D01*
X015808Y015205D01*
X015808Y015363D01*
X015748Y015510D01*
X015636Y015622D01*
X015489Y015682D01*
X015411Y015682D01*
X015344Y015710D01*
X012423Y015710D01*
X012386Y015748D01*
X012239Y015808D01*
X012081Y015808D01*
X011934Y015748D01*
X011822Y015636D01*
X011762Y015489D01*
X011762Y015331D01*
X011822Y015184D01*
X011934Y015072D01*
X012081Y015012D01*
X012239Y015012D01*
X012386Y015072D01*
X012423Y015110D01*
X015051Y015110D01*
X015072Y015059D01*
X015184Y014947D01*
X015059Y015091D02*
X012404Y015091D01*
X011916Y015091D02*
X008160Y015091D01*
X006660Y015210D02*
X011812Y015210D01*
X011763Y015328D02*
X006660Y015328D01*
X006660Y015447D02*
X011762Y015447D01*
X011793Y015565D02*
X006660Y015565D01*
X006660Y015684D02*
X011871Y015684D01*
X012066Y015802D02*
X006660Y015802D01*
X006660Y015921D02*
X017600Y015921D01*
X017580Y015802D02*
X012254Y015802D01*
X012239Y016762D02*
X012081Y016762D01*
X011934Y016822D01*
X011822Y016934D01*
X011762Y017081D01*
X011762Y017239D01*
X011822Y017386D01*
X011934Y017498D01*
X012081Y017558D01*
X012239Y017558D01*
X012386Y017498D01*
X012423Y017460D01*
X015344Y017460D01*
X015411Y017432D01*
X015489Y017432D01*
X015636Y017372D01*
X015748Y017260D01*
X015808Y017113D01*
X015808Y016955D01*
X015748Y016809D01*
X015636Y016697D01*
X015489Y016636D01*
X015331Y016636D01*
X015184Y016697D01*
X015072Y016809D01*
X015051Y016860D01*
X012423Y016860D01*
X012386Y016822D01*
X012239Y016762D01*
X011888Y016869D02*
X007682Y016869D01*
X007666Y016847D02*
X007711Y016908D01*
X007745Y016976D01*
X007768Y017048D01*
X007780Y017122D01*
X007780Y017140D01*
X006680Y017140D01*
X006680Y016680D01*
X007338Y016680D01*
X007412Y016692D01*
X007484Y016715D01*
X007552Y016749D01*
X007613Y016794D01*
X007666Y016847D01*
X007552Y016750D02*
X015131Y016750D01*
X015689Y016750D02*
X017580Y016750D01*
X017580Y016632D02*
X006660Y016632D01*
X006640Y016680D02*
X006640Y017140D01*
X006180Y017140D01*
X006180Y017122D01*
X006192Y017048D01*
X006215Y016976D01*
X006249Y016908D01*
X006294Y016847D01*
X006347Y016794D01*
X006408Y016749D01*
X006476Y016715D01*
X006548Y016692D01*
X006622Y016680D01*
X006640Y016680D01*
X006640Y016750D02*
X006680Y016750D01*
X006680Y016869D02*
X006640Y016869D01*
X006640Y016987D02*
X006680Y016987D01*
X006680Y017106D02*
X006640Y017106D01*
X006408Y016750D02*
X006160Y016750D01*
X006160Y016869D02*
X006278Y016869D01*
X006211Y016987D02*
X006160Y016987D01*
X006160Y017106D02*
X006183Y017106D01*
X006184Y017224D02*
X006160Y017224D01*
X006160Y017343D02*
X006215Y017343D01*
X006160Y017461D02*
X006285Y017461D01*
X006160Y017580D02*
X006426Y017580D01*
X006364Y017698D02*
X006160Y017698D01*
X006160Y017817D02*
X006240Y017817D01*
X006169Y017935D02*
X006160Y017935D01*
X006160Y018409D02*
X006179Y018409D01*
X006160Y018528D02*
X006264Y018528D01*
X006160Y018646D02*
X006422Y018646D01*
X006160Y018765D02*
X011789Y018765D01*
X011762Y018831D02*
X011822Y018684D01*
X011934Y018572D01*
X012081Y018512D01*
X012239Y018512D01*
X012386Y018572D01*
X012423Y018610D01*
X015051Y018610D01*
X015072Y018559D01*
X015184Y018447D01*
X015331Y018386D01*
X015489Y018386D01*
X015636Y018447D01*
X015748Y018559D01*
X015808Y018705D01*
X015808Y018863D01*
X015748Y019010D01*
X015636Y019122D01*
X015489Y019182D01*
X015411Y019182D01*
X015344Y019210D01*
X012423Y019210D01*
X012386Y019248D01*
X012239Y019308D01*
X012081Y019308D01*
X011934Y019248D01*
X011822Y019136D01*
X011762Y018989D01*
X011762Y018831D01*
X011762Y018883D02*
X006160Y018883D01*
X006160Y019002D02*
X011767Y019002D01*
X011816Y019120D02*
X006160Y019120D01*
X006160Y019239D02*
X011926Y019239D01*
X012394Y019239D02*
X018037Y019239D01*
X017943Y019145D02*
X018182Y019384D01*
X018495Y019514D01*
X018833Y019514D01*
X019145Y019384D01*
X019384Y019145D01*
X019514Y018833D01*
X019514Y018495D01*
X019384Y018182D01*
X019145Y017943D01*
X018833Y017814D01*
X018495Y017814D01*
X018182Y017943D01*
X017943Y018182D01*
X017814Y018495D01*
X017814Y018833D01*
X017943Y019145D01*
X017933Y019120D02*
X015637Y019120D01*
X015751Y019002D02*
X017884Y019002D01*
X017835Y018883D02*
X015800Y018883D01*
X015808Y018765D02*
X017814Y018765D01*
X017814Y018646D02*
X015784Y018646D01*
X015717Y018528D02*
X017814Y018528D01*
X017850Y018409D02*
X015545Y018409D01*
X015275Y018409D02*
X010142Y018409D01*
X010260Y018291D02*
X017899Y018291D01*
X017954Y018172D02*
X010379Y018172D01*
X010500Y018054D02*
X018072Y018054D01*
X018203Y017935D02*
X010698Y017935D01*
X010776Y017817D02*
X018489Y017817D01*
X018839Y017817D02*
X019625Y017817D01*
X019625Y017935D02*
X019125Y017935D01*
X019256Y018054D02*
X019625Y018054D01*
X019625Y018172D02*
X019374Y018172D01*
X019429Y018291D02*
X019625Y018291D01*
X019625Y018409D02*
X019478Y018409D01*
X019514Y018528D02*
X019625Y018528D01*
X019625Y018646D02*
X019514Y018646D01*
X019514Y018765D02*
X019625Y018765D01*
X019625Y018883D02*
X019493Y018883D01*
X019444Y019002D02*
X019625Y019002D01*
X019625Y019120D02*
X019395Y019120D01*
X019291Y019239D02*
X019625Y019239D01*
X019625Y019357D02*
X019173Y019357D01*
X018926Y019476D02*
X019623Y019476D01*
X019550Y019594D02*
X006160Y019594D01*
X006160Y019476D02*
X018402Y019476D01*
X018155Y019357D02*
X006160Y019357D01*
X007538Y018646D02*
X011861Y018646D01*
X012043Y018528D02*
X007696Y018528D01*
X007720Y017817D02*
X009773Y017817D01*
X009891Y017698D02*
X007596Y017698D01*
X007534Y017580D02*
X010010Y017580D01*
X010062Y017461D02*
X007675Y017461D01*
X007745Y017343D02*
X010164Y017343D01*
X010656Y017343D02*
X011805Y017343D01*
X011762Y017224D02*
X007776Y017224D01*
X007777Y017106D02*
X011762Y017106D01*
X011801Y016987D02*
X007749Y016987D01*
X006660Y016513D02*
X017580Y016513D01*
X017605Y016395D02*
X006660Y016395D01*
X006660Y016276D02*
X017724Y016276D01*
X017837Y016158D02*
X006660Y016158D01*
X006660Y016039D02*
X017719Y016039D01*
X017580Y015684D02*
X015408Y015684D01*
X015692Y015565D02*
X017580Y015565D01*
X017580Y015447D02*
X015774Y015447D01*
X015808Y015328D02*
X017672Y015328D01*
X017790Y015210D02*
X015808Y015210D01*
X015761Y015091D02*
X017771Y015091D01*
X017652Y014973D02*
X015662Y014973D01*
X015772Y016869D02*
X017580Y016869D01*
X017667Y016987D02*
X015808Y016987D01*
X015808Y017106D02*
X017785Y017106D01*
X017904Y017224D02*
X015762Y017224D01*
X015664Y017343D02*
X019625Y017343D01*
X019625Y017461D02*
X012422Y017461D01*
X011898Y017461D02*
X010758Y017461D01*
X010808Y017580D02*
X019625Y017580D01*
X019625Y017698D02*
X010808Y017698D01*
X012277Y018528D02*
X015103Y018528D01*
X018416Y017224D02*
X019625Y017224D01*
X019625Y017106D02*
X019450Y017106D01*
X019568Y016987D02*
X019625Y016987D01*
X019200Y016987D02*
X019120Y016987D01*
X019120Y016869D02*
X019200Y016869D01*
X019200Y016750D02*
X019120Y016750D01*
X019120Y016620D02*
X019200Y016620D01*
X019200Y015700D01*
X019120Y015700D01*
X019120Y016140D01*
X019120Y016620D01*
X019120Y016513D02*
X019200Y016513D01*
X019200Y016395D02*
X019120Y016395D01*
X019120Y016276D02*
X019200Y016276D01*
X019200Y016158D02*
X019120Y016158D01*
X019120Y016039D02*
X019200Y016039D01*
X019200Y015921D02*
X019120Y015921D01*
X019120Y015802D02*
X019200Y015802D01*
X019200Y015620D02*
X019200Y014700D01*
X019120Y014700D01*
X019120Y015180D01*
X019120Y015620D01*
X019200Y015620D01*
X019200Y015565D02*
X019120Y015565D01*
X019120Y015447D02*
X019200Y015447D01*
X019200Y015328D02*
X019120Y015328D01*
X019120Y015210D02*
X019200Y015210D01*
X019200Y015091D02*
X019120Y015091D01*
X019120Y014973D02*
X019200Y014973D01*
X019200Y014854D02*
X019120Y014854D01*
X019120Y014736D02*
X019200Y014736D01*
X019200Y014620D02*
X019200Y013700D01*
X019120Y013700D01*
X019120Y014180D01*
X019120Y014620D01*
X019200Y014620D01*
X019200Y014617D02*
X019120Y014617D01*
X019120Y014499D02*
X019200Y014499D01*
X019200Y014380D02*
X019120Y014380D01*
X019120Y014262D02*
X019200Y014262D01*
X019200Y014143D02*
X019120Y014143D01*
X019120Y014025D02*
X019200Y014025D01*
X019200Y013906D02*
X019120Y013906D01*
X019120Y013788D02*
X019200Y013788D01*
X019200Y013620D02*
X019200Y012700D01*
X019120Y012700D01*
X019120Y013180D01*
X019120Y013620D01*
X019200Y013620D01*
X019200Y013551D02*
X019120Y013551D01*
X019120Y013432D02*
X019200Y013432D01*
X019200Y013314D02*
X019120Y013314D01*
X019120Y013195D02*
X019200Y013195D01*
X019200Y013077D02*
X019120Y013077D01*
X019120Y012958D02*
X019200Y012958D01*
X019200Y012840D02*
X019120Y012840D01*
X019120Y012721D02*
X019200Y012721D01*
X019200Y012603D02*
X019120Y012603D01*
X019120Y012484D02*
X019200Y012484D01*
X019200Y012366D02*
X019120Y012366D01*
X019120Y012247D02*
X019200Y012247D01*
X018838Y012247D02*
X018567Y012247D01*
X018449Y012129D02*
X019625Y012129D01*
X019625Y012247D02*
X019482Y012247D01*
X019601Y012366D02*
X019625Y012366D01*
X019625Y012010D02*
X015708Y012010D01*
X015780Y011892D02*
X019625Y011892D01*
X019625Y011773D02*
X015808Y011773D01*
X015804Y011655D02*
X019625Y011655D01*
X019625Y011536D02*
X015754Y011536D01*
X015646Y011418D02*
X019625Y011418D01*
X019625Y010588D02*
X019566Y010588D01*
X017871Y012129D02*
X015524Y012129D01*
X017753Y012247D02*
X012386Y012247D01*
X011170Y010233D02*
X010650Y010233D01*
X010756Y010114D02*
X011064Y010114D01*
X011015Y009996D02*
X010805Y009996D01*
X010839Y009877D02*
X010981Y009877D01*
X011160Y005660D02*
X012660Y004160D01*
X014660Y004160D01*
X014423Y003834D02*
X012519Y003834D01*
X012472Y003952D02*
X012431Y003952D01*
X012354Y004071D02*
X012145Y004071D01*
X012235Y004189D02*
X012027Y004189D01*
X012117Y004308D02*
X011908Y004308D01*
X011998Y004426D02*
X011790Y004426D01*
X011880Y004545D02*
X011671Y004545D01*
X011761Y004663D02*
X011553Y004663D01*
X011643Y004782D02*
X011434Y004782D01*
X011524Y004900D02*
X011316Y004900D01*
X011406Y005019D02*
X011197Y005019D01*
X011287Y005137D02*
X011079Y005137D01*
X011169Y005256D02*
X010960Y005256D01*
X010940Y005374D02*
X011050Y005374D01*
X012671Y004545D02*
X014548Y004545D01*
X015006Y002649D02*
X015314Y002649D01*
X015196Y002530D02*
X015124Y002530D01*
X015620Y001108D02*
X015700Y001108D01*
X015700Y000990D02*
X015620Y000990D01*
X015620Y000871D02*
X015700Y000871D01*
X015700Y000753D02*
X015620Y000753D01*
X015620Y000634D02*
X015700Y000634D01*
X015254Y000634D02*
X014932Y000634D01*
X015087Y000753D02*
X015134Y000753D01*
X014388Y000634D02*
X013932Y000634D01*
X014087Y000753D02*
X014233Y000753D01*
X013388Y000634D02*
X012932Y000634D01*
X013087Y000753D02*
X013233Y000753D01*
X012388Y000634D02*
X010697Y000634D01*
X010776Y000753D02*
X012233Y000753D01*
X012141Y000871D02*
X010808Y000871D01*
X010885Y000990D02*
X012092Y000990D01*
X012070Y001108D02*
X011004Y001108D01*
X011122Y001227D02*
X012070Y001227D01*
X012098Y001345D02*
X011241Y001345D01*
X011359Y001464D02*
X012147Y001464D01*
X012248Y001582D02*
X011645Y001582D01*
X011754Y001701D02*
X012423Y001701D01*
X013126Y002412D02*
X000380Y002412D01*
X000380Y002530D02*
X013196Y002530D01*
X013314Y002649D02*
X000380Y002649D01*
X000380Y002767D02*
X002917Y002767D01*
X002789Y002886D02*
X000380Y002886D01*
X000380Y003004D02*
X002731Y003004D01*
X002660Y003123D02*
X000380Y003123D01*
X000380Y003241D02*
X002542Y003241D01*
X002423Y003360D02*
X000380Y003360D01*
X000380Y003478D02*
X002305Y003478D01*
X002186Y003597D02*
X000380Y003597D01*
X000380Y003715D02*
X002068Y003715D01*
X001949Y003834D02*
X000380Y003834D01*
X000380Y003952D02*
X001831Y003952D01*
X001712Y004071D02*
X000380Y004071D01*
X000380Y004189D02*
X001594Y004189D01*
X001475Y004308D02*
X000380Y004308D01*
X000380Y004426D02*
X001357Y004426D01*
X001297Y004545D02*
X000380Y004545D01*
X000380Y004663D02*
X001280Y004663D01*
X003708Y002250D02*
X003708Y001708D01*
X004250Y001708D01*
X004250Y002111D01*
X004239Y002152D01*
X004218Y002188D01*
X004188Y002218D01*
X004152Y002239D01*
X004111Y002250D01*
X003708Y002250D01*
X003708Y002175D02*
X003612Y002175D01*
X003612Y002056D02*
X003708Y002056D01*
X003708Y001938D02*
X003612Y001938D01*
X003612Y001819D02*
X003708Y001819D01*
X003708Y001701D02*
X005010Y001701D01*
X005022Y001819D02*
X004250Y001819D01*
X004250Y001938D02*
X005071Y001938D01*
X005137Y002056D02*
X004250Y002056D01*
X004226Y002175D02*
X005255Y002175D01*
X005010Y001582D02*
X004250Y001582D01*
X004250Y001612D02*
X004250Y001209D01*
X004239Y001168D01*
X004218Y001132D01*
X004188Y001102D01*
X004152Y001081D01*
X004111Y001070D01*
X003708Y001070D01*
X003708Y001612D01*
X004250Y001612D01*
X004250Y001464D02*
X005038Y001464D01*
X005087Y001345D02*
X004250Y001345D01*
X004250Y001227D02*
X005174Y001227D01*
X005294Y001108D02*
X004194Y001108D01*
X003708Y001108D02*
X003612Y001108D01*
X003612Y001227D02*
X003708Y001227D01*
X003708Y001345D02*
X003612Y001345D01*
X003612Y001464D02*
X003708Y001464D01*
X003708Y001582D02*
X003612Y001582D01*
X003612Y001701D02*
X002112Y001701D01*
X006026Y001108D02*
X010061Y001108D01*
X010163Y001227D02*
X006146Y001227D01*
X006233Y001345D02*
X010449Y001345D01*
X010568Y001464D02*
X006282Y001464D01*
X006310Y001582D02*
X010686Y001582D01*
X010805Y001701D02*
X006310Y001701D01*
X006298Y001819D02*
X010923Y001819D01*
X011012Y001938D02*
X006249Y001938D01*
X006183Y002056D02*
X011040Y002056D01*
X011111Y002175D02*
X006065Y002175D01*
X010410Y000910D02*
X011410Y001910D01*
X018686Y012366D02*
X018719Y012366D01*
X018653Y016987D02*
X018752Y016987D01*
X018870Y017106D02*
X018535Y017106D01*
X019120Y017106D02*
X019200Y017106D01*
D20*
X015410Y017034D03*
X015410Y016160D03*
X015410Y015284D03*
X015410Y014410D03*
X015410Y013534D03*
X015410Y012660D03*
X015410Y011745D03*
X015410Y010910D03*
X014160Y009410D03*
X013160Y009160D03*
X012160Y008160D03*
X011660Y008660D03*
X011410Y009910D03*
X010410Y009910D03*
X012160Y011910D03*
X012160Y013660D03*
X012160Y015410D03*
X012160Y017160D03*
X010410Y017660D03*
X012160Y018910D03*
X015410Y018784D03*
X015410Y017910D03*
X013660Y006910D03*
X014160Y006410D03*
X014910Y006660D03*
X012660Y005160D03*
X012160Y003660D03*
X011410Y001910D03*
X010410Y000910D03*
X009660Y003910D03*
X008660Y003910D03*
X007660Y003910D03*
X007660Y005160D03*
X006910Y005660D03*
X007660Y006160D03*
X014660Y004160D03*
X014910Y003410D03*
D21*
X015410Y011745D02*
X015245Y011910D01*
X012160Y011910D01*
X012160Y013660D02*
X015284Y013660D01*
X015410Y013534D01*
X015410Y015284D02*
X015284Y015410D01*
X012160Y015410D01*
X012160Y017160D02*
X015284Y017160D01*
X015410Y017034D01*
X015410Y018784D02*
X015284Y018910D01*
X012160Y018910D01*
D22*
X003160Y010660D03*
X002160Y010660D03*
X001160Y010660D03*
X001160Y016660D03*
X001660Y017410D03*
X002160Y016660D03*
D23*
X001160Y016660D01*
X001660Y017410D02*
X001660Y014660D01*
X001660Y012660D02*
X001660Y010660D01*
X001160Y010660D01*
X002160Y010660D01*
X003160Y010660D01*
X004660Y010660D01*
D24*
X009660Y014160D03*
X013910Y014160D03*
X003160Y003160D03*
D25*
X001660Y004660D01*
X001660Y005160D01*
D26*
X009660Y014160D02*
X013910Y014160D01*
X010410Y017660D02*
X009910Y018160D01*
X006660Y018160D01*
M02*
