G75*
G70*
%OFA0B0*%
%FSLAX24Y24*%
%IPPOS*%
%LPD*%
%AMOC8*
5,1,8,0,0,1.08239X$1,22.5*
%
%ADD10C,0.0000*%
%ADD11C,0.1024*%
%ADD12R,0.1418X0.0709*%
%ADD13C,0.0827*%
%ADD14C,0.0808*%
%ADD15C,0.0752*%
%ADD16C,0.0906*%
%ADD17R,0.0512X0.0512*%
%ADD18C,0.0780*%
D10*
X004680Y004050D02*
X014180Y004050D01*
X014180Y023550D01*
X004680Y023550D01*
X004680Y004050D01*
D11*
X009430Y006050D03*
D12*
X005560Y005720D03*
X005560Y006800D03*
X005560Y007880D03*
X005560Y008960D03*
X005560Y004640D03*
X013300Y004640D03*
X013300Y005720D03*
X013300Y006800D03*
X013300Y007880D03*
X013300Y008960D03*
D13*
X007074Y019060D02*
X006286Y019060D01*
X005499Y020556D02*
X005499Y021344D01*
X007900Y021344D02*
X007900Y020556D01*
D14*
X007042Y017412D03*
X006255Y015050D03*
X007042Y012688D03*
X011845Y012688D03*
X011845Y017412D03*
D15*
X009680Y020200D03*
X009680Y021700D03*
D16*
X011180Y021700D03*
X011180Y020200D03*
X013180Y020200D03*
X013180Y021700D03*
D17*
X012593Y023050D03*
X011767Y023050D03*
X007093Y023050D03*
X006267Y023050D03*
D18*
X008150Y009790D03*
X008150Y008010D03*
X010710Y008010D03*
X010710Y009790D03*
M02*
