%
M48
M72
T01C0.0197
T02C0.0394
T03C0.0400
T04C0.0472
T05C0.0512
T06C0.0866
T07C0.0984
%
T01
X6680Y7300
X6680Y8450
X8930Y7400
X10730Y11300
X10730Y13050
X10680Y15550
X8180Y15800
X8180Y14300
X12180Y8450
X12180Y7300
X13430Y23050
X8180Y23050
T02
X7900Y20950
X6680Y19060
X5499Y20950
T03
X8150Y9790
X8150Y8010
X10710Y8010
X10710Y9790
T04
X9680Y20200
X9680Y21700
T05
X11845Y17412
X11845Y12688
X7042Y12688
X6255Y15050
X7042Y17412
T06
X11180Y20200
X11180Y21700
X13180Y21700
X13180Y20200
T07
X9430Y6050
M30
