G75*
G70*
%OFA0B0*%
%FSLAX24Y24*%
%IPPOS*%
%LPD*%
%AMOC8*
5,1,8,0,0,1.08239X$1,22.5*
%
%ADD10C,0.0000*%
%ADD11R,0.1378X0.0669*%
%ADD12C,0.0787*%
%ADD13C,0.0768*%
%ADD14C,0.0712*%
%ADD15R,0.0512X0.0630*%
%ADD16R,0.0551X0.0551*%
%ADD17R,0.0460X0.0630*%
%ADD18C,0.0740*%
%ADD19R,0.0450X0.0400*%
%ADD20R,0.0472X0.0472*%
%ADD21C,0.0160*%
%ADD22C,0.0320*%
%ADD23C,0.0317*%
%ADD24C,0.0100*%
D10*
X004680Y004050D02*
X014180Y004050D01*
X014180Y023550D01*
X004680Y023550D01*
X004680Y004050D01*
D11*
X005560Y005180D03*
X005560Y006260D03*
X005560Y007340D03*
X005560Y008420D03*
X013300Y008420D03*
X013300Y007340D03*
X013300Y006260D03*
X013300Y005180D03*
D12*
X007074Y019060D02*
X006286Y019060D01*
X005499Y020556D02*
X005499Y021344D01*
X007900Y021344D02*
X007900Y020556D01*
D13*
X007042Y017412D03*
X006255Y015050D03*
X007042Y012688D03*
X011845Y012688D03*
X011845Y017412D03*
D14*
X009680Y020200D03*
X009680Y021700D03*
D15*
X009306Y016050D03*
X010054Y016050D03*
X010054Y015050D03*
X009306Y015050D03*
X010306Y013800D03*
X011054Y013800D03*
X011306Y015050D03*
X012054Y015050D03*
X012054Y016050D03*
X011306Y016050D03*
D16*
X009928Y012550D03*
X009928Y011300D03*
X008432Y011300D03*
X008432Y012550D03*
D17*
X006430Y010550D03*
X005830Y010550D03*
X005230Y010550D03*
D18*
X008150Y009790D03*
X008150Y008010D03*
X010710Y008010D03*
X010710Y009790D03*
D19*
X011780Y011050D03*
X012580Y010676D03*
X012580Y011424D03*
D20*
X012593Y023050D03*
X011767Y023050D03*
X007093Y023050D03*
X006267Y023050D03*
D21*
X006267Y022450D01*
X006280Y022550D02*
X006280Y019694D01*
X006160Y019694D02*
X005927Y019597D01*
X005749Y019419D01*
X005653Y019186D01*
X005653Y018934D01*
X005749Y018701D01*
X005927Y018523D01*
X006160Y018427D01*
X007200Y018427D01*
X007433Y018523D01*
X007611Y018701D01*
X007707Y018934D01*
X007707Y019186D01*
X007611Y019419D01*
X007433Y019597D01*
X007200Y019694D01*
X006160Y019694D01*
X005960Y019611D02*
X005960Y020121D01*
X005889Y020050D02*
X007630Y020050D01*
X007600Y020066D02*
X007680Y020025D01*
X007766Y019997D01*
X007855Y019983D01*
X007882Y019983D01*
X007882Y020932D01*
X007327Y020932D01*
X007327Y020511D01*
X007341Y020422D01*
X007369Y020336D01*
X007410Y020256D01*
X007463Y020183D01*
X007527Y020119D01*
X007600Y020066D01*
X007560Y020095D02*
X007560Y019470D01*
X007615Y019410D02*
X008610Y019410D01*
X008610Y019730D02*
X005180Y019730D01*
X005320Y019944D02*
X005320Y013550D01*
X005180Y013550D02*
X005180Y020002D01*
X005373Y019923D01*
X005625Y019923D01*
X005858Y020019D01*
X006036Y020197D01*
X006133Y020430D01*
X006133Y021470D01*
X006036Y021703D01*
X005858Y021881D01*
X005625Y021977D01*
X005373Y021977D01*
X005180Y021898D01*
X005180Y022550D01*
X008477Y022550D01*
X008610Y022417D01*
X008610Y016550D01*
X008500Y016550D01*
X008500Y016614D01*
X008451Y016731D01*
X008361Y016821D01*
X007666Y017516D01*
X007666Y017536D01*
X007571Y017766D01*
X007396Y017941D01*
X007166Y018036D01*
X006918Y018036D01*
X006689Y017941D01*
X006513Y017766D01*
X006418Y017536D01*
X006418Y017288D01*
X006513Y017059D01*
X006689Y016883D01*
X006918Y016788D01*
X007166Y016788D01*
X007395Y016883D01*
X007727Y016550D01*
X007180Y016550D01*
X007180Y013550D01*
X005180Y013550D01*
X005180Y013650D02*
X007180Y013650D01*
X006920Y013550D02*
X006920Y016788D01*
X006769Y016850D02*
X005180Y016850D01*
X005180Y017170D02*
X006467Y017170D01*
X006600Y016972D02*
X006600Y015496D01*
X006622Y015480D02*
X006550Y015532D01*
X006471Y015573D01*
X006387Y015600D01*
X006303Y015613D01*
X006303Y015098D01*
X006818Y015098D01*
X006805Y015182D01*
X006777Y015266D01*
X006737Y015346D01*
X006685Y015417D01*
X006622Y015480D01*
X006476Y015570D02*
X007180Y015570D01*
X007180Y015250D02*
X006783Y015250D01*
X006600Y015098D02*
X006600Y015002D01*
X006818Y015002D02*
X006303Y015002D01*
X006303Y015098D01*
X006207Y015098D01*
X006207Y015613D01*
X006123Y015600D01*
X006038Y015573D01*
X005959Y015532D01*
X005887Y015480D01*
X005825Y015417D01*
X005773Y015346D01*
X005732Y015266D01*
X005705Y015182D01*
X005692Y015098D01*
X006207Y015098D01*
X006207Y015002D01*
X006303Y015002D01*
X006303Y014487D01*
X006387Y014500D01*
X006471Y014527D01*
X006550Y014568D01*
X006622Y014620D01*
X006685Y014683D01*
X006737Y014754D01*
X006777Y014834D01*
X006805Y014918D01*
X006818Y015002D01*
X006807Y014930D02*
X007180Y014930D01*
X007180Y014610D02*
X006608Y014610D01*
X006600Y014604D02*
X006600Y013550D01*
X006280Y013550D02*
X006280Y015002D01*
X006255Y015050D02*
X009306Y015050D01*
X009180Y014300D02*
X009680Y013800D01*
X009680Y013050D01*
X009930Y012800D01*
X009930Y012552D01*
X009928Y012550D01*
X010680Y012550D01*
X011780Y011450D01*
X011780Y011050D01*
X011230Y010550D02*
X011480Y010300D01*
X012204Y010300D01*
X012580Y010676D01*
X012580Y011424D02*
X013054Y011424D01*
X013180Y011550D01*
X013180Y014100D01*
X012980Y014300D01*
X011530Y014300D01*
X011280Y014550D01*
X011280Y015024D01*
X011306Y015050D01*
X010080Y015050D01*
X010054Y015050D01*
X010080Y015050D02*
X010080Y014050D01*
X010306Y013800D01*
X011030Y013350D02*
X010730Y013050D01*
X011030Y013350D02*
X011030Y013776D01*
X011054Y013800D01*
X012054Y015050D02*
X013180Y015050D01*
X013680Y014550D01*
X013680Y010050D01*
X013180Y009550D01*
X012250Y009550D01*
X010710Y008010D01*
X011380Y006250D02*
X012780Y006250D01*
X012830Y007300D02*
X012180Y007300D01*
X011380Y006250D02*
X010180Y005050D01*
X008680Y005050D01*
X007680Y006050D01*
X007470Y006260D01*
X007180Y006260D01*
X007180Y009300D01*
X006680Y009800D01*
X005430Y009800D01*
X005230Y010000D01*
X005230Y010550D01*
X005830Y010550D02*
X005830Y011150D01*
X005980Y011300D01*
X008432Y011300D01*
X009180Y010750D02*
X009380Y010550D01*
X011230Y010550D01*
X010730Y011300D02*
X009928Y011300D01*
X009180Y010750D02*
X009180Y013300D01*
X008680Y013800D01*
X007680Y013800D01*
X007180Y014300D01*
X007180Y014290D02*
X005180Y014290D01*
X005180Y013970D02*
X007180Y013970D01*
X008180Y014300D02*
X009180Y014300D01*
X008180Y015800D02*
X008180Y016550D01*
X007318Y017412D01*
X007042Y017412D01*
X006600Y017852D02*
X006600Y018427D01*
X006920Y018427D02*
X006920Y018036D01*
X007240Y018006D02*
X007240Y018443D01*
X007256Y018450D02*
X008610Y018450D01*
X008610Y018770D02*
X007639Y018770D01*
X007560Y018650D02*
X007560Y017777D01*
X007527Y017810D02*
X008610Y017810D01*
X008610Y018130D02*
X005180Y018130D01*
X005180Y017810D02*
X006558Y017810D01*
X006418Y017490D02*
X005180Y017490D01*
X005180Y016530D02*
X007180Y016530D01*
X007240Y016550D02*
X007240Y016819D01*
X007315Y016850D02*
X007427Y016850D01*
X007560Y016717D02*
X007560Y016550D01*
X007180Y016210D02*
X005180Y016210D01*
X005180Y015890D02*
X007180Y015890D01*
X006303Y015570D02*
X006207Y015570D01*
X006033Y015570D02*
X005180Y015570D01*
X005180Y015250D02*
X005727Y015250D01*
X005692Y015002D02*
X005705Y014918D01*
X005732Y014834D01*
X005773Y014754D01*
X005825Y014683D01*
X005887Y014620D01*
X005959Y014568D01*
X006038Y014527D01*
X006123Y014500D01*
X006207Y014487D01*
X006207Y015002D01*
X005692Y015002D01*
X005703Y014930D02*
X005180Y014930D01*
X005180Y014610D02*
X005901Y014610D01*
X005960Y014567D02*
X005960Y013550D01*
X005640Y013550D02*
X005640Y019929D01*
X005745Y019410D02*
X005180Y019410D01*
X005180Y019090D02*
X005653Y019090D01*
X005721Y018770D02*
X005180Y018770D01*
X005180Y018450D02*
X006104Y018450D01*
X005960Y018509D02*
X005960Y015533D01*
X006207Y015250D02*
X006303Y015250D01*
X006280Y015098D02*
X006280Y018427D01*
X006600Y019694D02*
X006600Y022550D01*
X006920Y022550D02*
X006920Y019694D01*
X007240Y019677D02*
X007240Y022550D01*
X007560Y022550D02*
X007560Y021805D01*
X007527Y021781D02*
X007463Y021717D01*
X007410Y021644D01*
X007369Y021564D01*
X007341Y021478D01*
X007327Y021389D01*
X007327Y020968D01*
X007882Y020968D01*
X007882Y020932D01*
X007919Y020932D01*
X007919Y020968D01*
X008474Y020968D01*
X008474Y021389D01*
X008460Y021478D01*
X008432Y021564D01*
X008391Y021644D01*
X008338Y021717D01*
X008274Y021781D01*
X008201Y021834D01*
X008121Y021875D01*
X008035Y021903D01*
X007946Y021917D01*
X007919Y021917D01*
X007919Y020968D01*
X007882Y020968D01*
X007882Y021917D01*
X007855Y021917D01*
X007766Y021903D01*
X007680Y021875D01*
X007600Y021834D01*
X007527Y021781D01*
X007414Y021650D02*
X006058Y021650D01*
X005960Y021779D02*
X005960Y022550D01*
X005640Y022550D02*
X005640Y021971D01*
X005643Y021970D02*
X008610Y021970D01*
X008610Y021650D02*
X008387Y021650D01*
X008200Y021835D02*
X008200Y022550D01*
X007880Y022550D02*
X007880Y021917D01*
X007882Y021650D02*
X007919Y021650D01*
X007919Y021330D02*
X007882Y021330D01*
X007882Y021010D02*
X007919Y021010D01*
X007880Y020968D02*
X007880Y020932D01*
X007919Y020932D02*
X007919Y019983D01*
X007946Y019983D01*
X008035Y019997D01*
X008121Y020025D01*
X008201Y020066D01*
X008274Y020119D01*
X008338Y020183D01*
X008391Y020256D01*
X008432Y020336D01*
X008460Y020422D01*
X008474Y020511D01*
X008474Y020932D01*
X007919Y020932D01*
X007919Y020690D02*
X007882Y020690D01*
X007882Y020370D02*
X007919Y020370D01*
X007919Y020050D02*
X007882Y020050D01*
X007880Y019983D02*
X007880Y017303D01*
X008013Y017170D02*
X008610Y017170D01*
X008610Y016850D02*
X008333Y016850D01*
X008200Y016983D02*
X008200Y020065D01*
X008170Y020050D02*
X008610Y020050D01*
X008610Y020370D02*
X008443Y020370D01*
X008474Y020690D02*
X008610Y020690D01*
X008610Y021010D02*
X008474Y021010D01*
X008200Y020968D02*
X008200Y020932D01*
X008474Y021330D02*
X008610Y021330D01*
X009250Y021330D02*
X009292Y021330D01*
X009271Y021351D02*
X009331Y021291D01*
X009399Y021241D01*
X009474Y021203D01*
X009554Y021177D01*
X009638Y021164D01*
X009642Y021164D01*
X009642Y021662D01*
X009718Y021662D01*
X009718Y021738D01*
X009642Y021738D01*
X009642Y022236D01*
X009638Y022236D01*
X009554Y022223D01*
X009474Y022197D01*
X009399Y022159D01*
X009331Y022109D01*
X009271Y022049D01*
X009250Y022020D01*
X009250Y022614D01*
X009201Y022731D01*
X009180Y022753D01*
X009180Y023050D01*
X011728Y023050D01*
X011728Y023012D01*
X011350Y023012D01*
X011350Y022790D01*
X011363Y022744D01*
X011386Y022703D01*
X011420Y022670D01*
X011461Y022646D01*
X011507Y022634D01*
X011729Y022634D01*
X011729Y023012D01*
X011805Y023012D01*
X011805Y022634D01*
X012027Y022634D01*
X012072Y022646D01*
X012113Y022670D01*
X012144Y022701D01*
X012154Y022678D01*
X012221Y022610D01*
X012309Y022574D01*
X012680Y022574D01*
X012680Y022380D01*
X012497Y022380D01*
X012450Y022333D01*
X012450Y019567D01*
X012497Y019520D01*
X012680Y019520D01*
X012680Y017003D01*
X012282Y016605D01*
X011750Y016605D01*
X011680Y016576D01*
X011610Y016605D01*
X011002Y016605D01*
X010914Y016568D01*
X010896Y016550D01*
X010464Y016550D01*
X010446Y016568D01*
X010358Y016605D01*
X009750Y016605D01*
X009680Y016576D01*
X009610Y016605D01*
X009250Y016605D01*
X009250Y019787D01*
X009342Y019695D01*
X009561Y019604D01*
X009799Y019604D01*
X010018Y019695D01*
X010185Y019862D01*
X010276Y020081D01*
X010276Y020319D01*
X010185Y020538D01*
X010018Y020705D01*
X009799Y020796D01*
X009561Y020796D01*
X009342Y020705D01*
X009250Y020613D01*
X009250Y021380D01*
X009271Y021351D01*
X009480Y021201D02*
X009480Y020763D01*
X009327Y020690D02*
X009250Y020690D01*
X009250Y021010D02*
X010450Y021010D01*
X010450Y020690D02*
X010033Y020690D01*
X010120Y020603D02*
X010120Y021393D01*
X010139Y021419D02*
X010177Y021494D01*
X010203Y021574D01*
X010216Y021658D01*
X010216Y021662D01*
X009718Y021662D01*
X009718Y021164D01*
X009722Y021164D01*
X009806Y021177D01*
X009886Y021203D01*
X009961Y021241D01*
X010029Y021291D01*
X010089Y021351D01*
X010139Y021419D01*
X010068Y021330D02*
X010450Y021330D01*
X010450Y021650D02*
X010215Y021650D01*
X010216Y021738D02*
X010216Y021742D01*
X010203Y021826D01*
X010177Y021906D01*
X010139Y021981D01*
X010089Y022049D01*
X010029Y022109D01*
X009961Y022159D01*
X009886Y022197D01*
X009806Y022223D01*
X009722Y022236D01*
X009718Y022236D01*
X009718Y021738D01*
X010216Y021738D01*
X010120Y021738D02*
X010120Y021662D01*
X010144Y021970D02*
X010450Y021970D01*
X010450Y022290D02*
X009250Y022290D01*
X009480Y022199D02*
X009480Y023050D01*
X009180Y022930D02*
X011350Y022930D01*
X011400Y023012D02*
X011400Y023050D01*
X011720Y023050D02*
X011720Y023012D01*
X011729Y022930D02*
X011805Y022930D01*
X011720Y022634D02*
X011720Y022380D01*
X011813Y022380D02*
X010497Y022380D01*
X010450Y022333D01*
X010450Y019567D01*
X010497Y019520D01*
X011813Y019520D01*
X011860Y019567D01*
X011860Y022333D01*
X011813Y022380D01*
X011860Y022290D02*
X012450Y022290D01*
X012360Y022574D02*
X012360Y017644D01*
X012368Y017629D02*
X012328Y017708D01*
X012275Y017780D01*
X012213Y017842D01*
X012141Y017894D01*
X012062Y017935D01*
X011977Y017962D01*
X011893Y017975D01*
X011893Y017460D01*
X011797Y017460D01*
X011797Y017364D01*
X011282Y017364D01*
X011295Y017280D01*
X011323Y017196D01*
X011363Y017117D01*
X011415Y017045D01*
X011478Y016982D01*
X011550Y016930D01*
X011629Y016890D01*
X011713Y016862D01*
X011797Y016849D01*
X011797Y017364D01*
X011893Y017364D01*
X011893Y016849D01*
X011977Y016862D01*
X012062Y016890D01*
X012141Y016930D01*
X012213Y016982D01*
X012275Y017045D01*
X012328Y017117D01*
X012368Y017196D01*
X012395Y017280D01*
X012409Y017364D01*
X011893Y017364D01*
X011893Y017460D01*
X012409Y017460D01*
X012395Y017544D01*
X012368Y017629D01*
X012404Y017490D02*
X012680Y017490D01*
X012680Y017170D02*
X012355Y017170D01*
X012360Y017180D02*
X012360Y016683D01*
X012527Y016850D02*
X011900Y016850D01*
X011893Y016850D02*
X011797Y016850D01*
X011791Y016850D02*
X009250Y016850D01*
X009250Y017170D02*
X011336Y017170D01*
X011400Y017066D02*
X011400Y016605D01*
X011720Y016592D02*
X011720Y016861D01*
X011797Y017170D02*
X011893Y017170D01*
X012040Y017364D02*
X012040Y017460D01*
X011893Y017490D02*
X011797Y017490D01*
X011797Y017460D02*
X011797Y017975D01*
X011713Y017962D01*
X011629Y017935D01*
X011550Y017894D01*
X011478Y017842D01*
X011415Y017780D01*
X011363Y017708D01*
X011323Y017629D01*
X011295Y017544D01*
X011282Y017460D01*
X011797Y017460D01*
X011720Y017460D02*
X011720Y017364D01*
X011400Y017364D02*
X011400Y017460D01*
X011287Y017490D02*
X009250Y017490D01*
X009250Y017810D02*
X011446Y017810D01*
X011400Y017759D02*
X011400Y019520D01*
X011720Y019520D02*
X011720Y017963D01*
X011797Y017810D02*
X011893Y017810D01*
X012040Y017942D02*
X012040Y022637D01*
X012222Y022610D02*
X009250Y022610D01*
X008930Y022550D02*
X008930Y016400D01*
X009280Y016050D01*
X009480Y016605D02*
X009480Y019637D01*
X009307Y019730D02*
X009250Y019730D01*
X009250Y019410D02*
X012680Y019410D01*
X012450Y019730D02*
X011860Y019730D01*
X011860Y020050D02*
X012450Y020050D01*
X012450Y020370D02*
X011860Y020370D01*
X011860Y020690D02*
X012450Y020690D01*
X012450Y021010D02*
X011860Y021010D01*
X011860Y021330D02*
X012450Y021330D01*
X012450Y021650D02*
X011860Y021650D01*
X011860Y021970D02*
X012450Y021970D01*
X012593Y023050D02*
X013430Y023050D01*
X013930Y022550D01*
X013930Y017800D01*
X012180Y016050D01*
X012080Y016050D01*
X012040Y016605D02*
X012040Y016883D01*
X012360Y017364D02*
X012360Y017460D01*
X012245Y017810D02*
X012680Y017810D01*
X012680Y018130D02*
X009250Y018130D01*
X009250Y018450D02*
X012680Y018450D01*
X012680Y018770D02*
X009250Y018770D01*
X009250Y019090D02*
X012680Y019090D01*
X011080Y019520D02*
X011080Y016605D01*
X010760Y016550D02*
X010760Y019520D01*
X010450Y019730D02*
X010053Y019730D01*
X010120Y019797D02*
X010120Y016605D01*
X010440Y016571D02*
X010440Y023050D01*
X010120Y023050D02*
X010120Y022007D01*
X009800Y022224D02*
X009800Y023050D01*
X010760Y023050D02*
X010760Y022380D01*
X011080Y022380D02*
X011080Y023050D01*
X011400Y022690D02*
X011400Y022380D01*
X010450Y020370D02*
X010255Y020370D01*
X010263Y020050D02*
X010450Y020050D01*
X009800Y019604D02*
X009800Y016605D01*
X010054Y016050D02*
X010680Y016050D01*
X010680Y015550D01*
X010680Y016050D02*
X011306Y016050D01*
X008610Y017490D02*
X007693Y017490D01*
X008520Y016550D02*
X008520Y022507D01*
X008610Y022290D02*
X005180Y022290D01*
X005320Y022550D02*
X005320Y021956D01*
X005355Y021970D02*
X005180Y021970D01*
X006133Y021330D02*
X007327Y021330D01*
X007327Y021010D02*
X006133Y021010D01*
X006133Y020690D02*
X007327Y020690D01*
X007358Y020370D02*
X006108Y020370D01*
X007560Y020932D02*
X007560Y020968D01*
X008930Y022550D02*
X008430Y023050D01*
X008180Y023050D01*
X007093Y023050D01*
X009642Y021970D02*
X009718Y021970D01*
X009800Y021738D02*
X009800Y021662D01*
X009718Y021650D02*
X009642Y021650D01*
X009642Y021330D02*
X009718Y021330D01*
X009800Y021176D02*
X009800Y020796D01*
X008610Y019090D02*
X007707Y019090D01*
X005960Y015098D02*
X005960Y015002D01*
X006207Y014930D02*
X006303Y014930D01*
X006303Y014610D02*
X006207Y014610D01*
X007042Y012688D02*
X007180Y012550D01*
X008432Y012550D01*
X006430Y010550D02*
X006730Y010250D01*
X006730Y010200D01*
X007880Y009050D01*
X008380Y009050D01*
X008930Y008500D01*
X008930Y007400D01*
X007180Y006260D02*
X005560Y006260D01*
X005560Y007340D02*
X006070Y007300D01*
X006680Y007300D01*
X006680Y008450D02*
X006080Y008450D01*
X006080Y005250D02*
X006780Y004550D01*
X012170Y004550D01*
X012670Y005050D01*
X012680Y005050D01*
X012810Y005180D01*
X013300Y005180D01*
X012780Y008450D02*
X012180Y008450D01*
D22*
X010054Y016050D02*
X009980Y016150D01*
D23*
X010680Y015550D03*
X010730Y013050D03*
X010730Y011300D03*
X012180Y008450D03*
X012180Y007300D03*
X008930Y007400D03*
X006680Y007300D03*
X006680Y008450D03*
X008180Y014300D03*
X008180Y015800D03*
X008180Y023050D03*
X013430Y023050D03*
D24*
X012780Y008450D02*
X013300Y008420D01*
X006080Y008450D02*
X005560Y008420D01*
X006080Y005250D02*
X005560Y005180D01*
M02*
