G75*
G70*
%OFA0B0*%
%FSLAX24Y24*%
%IPPOS*%
%LPD*%
%AMOC8*
5,1,8,0,0,1.08239X$1,22.5*
%
%ADD10C,0.0030*%
%ADD11C,0.0090*%
%ADD12C,0.0000*%
%ADD13C,0.0050*%
%ADD14R,0.0984X0.0472*%
%ADD15C,0.0060*%
%ADD16R,0.0140X0.0560*%
%ADD17C,0.0040*%
%ADD18C,0.0100*%
%ADD19R,0.0295X0.0335*%
%ADD20R,0.0354X0.0531*%
%ADD21R,0.0400X0.0600*%
%ADD22R,0.0230X0.0180*%
%ADD23R,0.0118X0.0059*%
%ADD24R,0.0118X0.0118*%
%ADD25R,0.0236X0.0531*%
%ADD26R,0.1634X0.0030*%
%ADD27R,0.0049X0.0591*%
%ADD28R,0.0197X0.0591*%
%ADD29C,0.0070*%
D10*
X005123Y011302D02*
X005075Y011351D01*
X005075Y011447D01*
X005123Y011496D01*
X005172Y011496D01*
X005220Y011447D01*
X005220Y011351D01*
X005268Y011302D01*
X005317Y011302D01*
X005365Y011351D01*
X005365Y011447D01*
X005317Y011496D01*
X005365Y011694D02*
X005075Y011694D01*
X005075Y011790D02*
X005075Y011597D01*
X005123Y011892D02*
X005220Y011892D01*
X005268Y011940D01*
X005268Y012085D01*
X005268Y011988D02*
X005365Y011892D01*
X005365Y012085D02*
X005075Y012085D01*
X005075Y011940D01*
X005123Y011892D01*
X006375Y011890D02*
X006375Y012035D01*
X006665Y012035D01*
X006665Y011890D01*
X006617Y011842D01*
X006423Y011842D01*
X006375Y011890D01*
X006375Y011740D02*
X006375Y011547D01*
X006375Y011644D02*
X006665Y011644D01*
X006665Y011446D02*
X006375Y011446D01*
X006375Y011301D01*
X006423Y011252D01*
X006520Y011252D01*
X006568Y011301D01*
X006568Y011446D01*
X006568Y011349D02*
X006665Y011252D01*
X012016Y009995D02*
X012210Y009995D01*
X012113Y009995D02*
X012113Y010285D01*
X012210Y010188D01*
X012311Y010237D02*
X012311Y010043D01*
X012359Y009995D01*
X012456Y009995D01*
X012504Y010043D01*
X012504Y010237D01*
X012456Y010285D01*
X012359Y010285D01*
X012311Y010237D01*
X012408Y010092D02*
X012311Y009995D01*
D11*
X011795Y007665D02*
X011605Y007665D01*
X011700Y007665D02*
X011700Y007190D01*
X011795Y007095D01*
X011890Y007095D01*
X011985Y007190D01*
X011377Y007095D02*
X011377Y007665D01*
X011092Y007665D01*
X010997Y007570D01*
X010997Y007380D01*
X011092Y007285D01*
X011377Y007285D01*
X010770Y007095D02*
X010579Y007285D01*
X010389Y007095D01*
X010389Y007665D01*
X010162Y007665D02*
X009877Y007665D01*
X009782Y007570D01*
X009782Y007380D01*
X009877Y007285D01*
X010162Y007285D01*
X010162Y007095D02*
X010162Y007665D01*
X009972Y007285D02*
X009782Y007095D01*
X008946Y007475D02*
X008756Y007095D01*
X008566Y007475D01*
X008339Y007475D02*
X008149Y007665D01*
X008149Y007095D01*
X008339Y007095D02*
X007958Y007095D01*
X007731Y007095D02*
X007636Y007095D01*
X007636Y007190D01*
X007731Y007190D01*
X007731Y007095D01*
X007427Y007095D02*
X007047Y007095D01*
X007237Y007095D02*
X007237Y007665D01*
X007427Y007475D01*
X010770Y007665D02*
X010770Y007095D01*
D12*
X014180Y004050D02*
X004680Y004050D01*
X004680Y023550D01*
X014180Y023550D01*
X014180Y004050D01*
D13*
X003645Y004956D02*
X003570Y005031D01*
X003570Y005182D01*
X003645Y005257D01*
X003720Y005257D01*
X003795Y005182D01*
X003795Y004956D01*
X003645Y004956D01*
X003795Y004956D02*
X003945Y005107D01*
X004020Y005257D01*
X003945Y008153D02*
X003870Y008153D01*
X003795Y008228D01*
X003795Y008453D01*
X003645Y008453D02*
X003945Y008453D01*
X004020Y008378D01*
X004020Y008228D01*
X003945Y008153D01*
X003645Y008153D02*
X003570Y008228D01*
X003570Y008378D01*
X003645Y008453D01*
X005406Y010823D02*
X005429Y010550D01*
X005429Y010550D01*
X005406Y010277D01*
X005405Y010276D01*
X005373Y010281D01*
X005341Y010290D01*
X005311Y010302D01*
X005283Y010318D01*
X005256Y010337D01*
X005232Y010359D01*
X005211Y010383D01*
X005193Y010410D01*
X005178Y010439D01*
X005167Y010470D01*
X005159Y010501D01*
X005155Y010534D01*
X005155Y010566D01*
X005159Y010599D01*
X005167Y010630D01*
X005178Y010661D01*
X005193Y010690D01*
X005211Y010717D01*
X005232Y010741D01*
X005256Y010763D01*
X005283Y010782D01*
X005311Y010798D01*
X005341Y010810D01*
X005373Y010819D01*
X005405Y010824D01*
X005405Y010777D01*
X005377Y010772D01*
X005349Y010763D01*
X005323Y010751D01*
X005298Y010736D01*
X005275Y010718D01*
X005255Y010697D01*
X005238Y010673D01*
X005224Y010648D01*
X005213Y010621D01*
X005206Y010593D01*
X005202Y010564D01*
X005202Y010536D01*
X005206Y010507D01*
X005213Y010479D01*
X005224Y010452D01*
X005238Y010427D01*
X005255Y010403D01*
X005275Y010382D01*
X005298Y010364D01*
X005323Y010349D01*
X005349Y010337D01*
X005377Y010328D01*
X005405Y010323D01*
X005405Y010371D01*
X005380Y010376D01*
X005355Y010385D01*
X005333Y010397D01*
X005312Y010413D01*
X005293Y010431D01*
X005278Y010452D01*
X005265Y010475D01*
X005256Y010499D01*
X005251Y010524D01*
X005249Y010550D01*
X005251Y010576D01*
X005256Y010601D01*
X005265Y010625D01*
X005278Y010648D01*
X005293Y010669D01*
X005312Y010687D01*
X005333Y010703D01*
X005355Y010715D01*
X005380Y010724D01*
X005405Y010729D01*
X005405Y010682D01*
X005384Y010676D01*
X005364Y010667D01*
X005346Y010655D01*
X005330Y010640D01*
X005317Y010622D01*
X005307Y010603D01*
X005300Y010582D01*
X005296Y010561D01*
X005296Y010539D01*
X005300Y010518D01*
X005307Y010497D01*
X005317Y010478D01*
X005330Y010460D01*
X005346Y010445D01*
X005364Y010433D01*
X005384Y010424D01*
X005405Y010418D01*
X005405Y010467D01*
X005389Y010473D01*
X005375Y010482D01*
X005363Y010495D01*
X005353Y010509D01*
X005347Y010525D01*
X005343Y010541D01*
X005343Y010559D01*
X005347Y010575D01*
X005353Y010591D01*
X005363Y010605D01*
X005375Y010618D01*
X005389Y010627D01*
X005405Y010633D01*
X005407Y010582D01*
X005399Y010575D01*
X005393Y010566D01*
X005390Y010555D01*
X005390Y010545D01*
X005393Y010534D01*
X005399Y010525D01*
X005407Y010518D01*
X006254Y010277D02*
X006231Y010550D01*
X006231Y010550D01*
X006254Y010823D01*
X006255Y010824D01*
X006287Y010819D01*
X006319Y010810D01*
X006349Y010798D01*
X006377Y010782D01*
X006404Y010763D01*
X006428Y010741D01*
X006449Y010717D01*
X006467Y010690D01*
X006482Y010661D01*
X006493Y010630D01*
X006501Y010599D01*
X006505Y010566D01*
X006505Y010534D01*
X006501Y010501D01*
X006493Y010470D01*
X006482Y010439D01*
X006467Y010410D01*
X006449Y010383D01*
X006428Y010359D01*
X006404Y010337D01*
X006377Y010318D01*
X006349Y010302D01*
X006319Y010290D01*
X006287Y010281D01*
X006255Y010276D01*
X006255Y010323D01*
X006283Y010328D01*
X006311Y010337D01*
X006337Y010349D01*
X006362Y010364D01*
X006385Y010382D01*
X006405Y010403D01*
X006422Y010427D01*
X006436Y010452D01*
X006447Y010479D01*
X006454Y010507D01*
X006458Y010536D01*
X006458Y010564D01*
X006454Y010593D01*
X006447Y010621D01*
X006436Y010648D01*
X006422Y010673D01*
X006405Y010697D01*
X006385Y010718D01*
X006362Y010736D01*
X006337Y010751D01*
X006311Y010763D01*
X006283Y010772D01*
X006255Y010777D01*
X006255Y010729D01*
X006280Y010724D01*
X006305Y010715D01*
X006327Y010703D01*
X006348Y010687D01*
X006367Y010669D01*
X006382Y010648D01*
X006395Y010625D01*
X006404Y010601D01*
X006409Y010576D01*
X006411Y010550D01*
X006409Y010524D01*
X006404Y010499D01*
X006395Y010475D01*
X006382Y010452D01*
X006367Y010431D01*
X006348Y010413D01*
X006327Y010397D01*
X006305Y010385D01*
X006280Y010376D01*
X006255Y010371D01*
X006255Y010418D01*
X006276Y010424D01*
X006296Y010433D01*
X006314Y010445D01*
X006330Y010460D01*
X006343Y010478D01*
X006353Y010497D01*
X006360Y010518D01*
X006364Y010539D01*
X006364Y010561D01*
X006360Y010582D01*
X006353Y010603D01*
X006343Y010622D01*
X006330Y010640D01*
X006314Y010655D01*
X006296Y010667D01*
X006276Y010676D01*
X006255Y010682D01*
X006255Y010633D01*
X006271Y010627D01*
X006285Y010618D01*
X006297Y010605D01*
X006307Y010591D01*
X006313Y010575D01*
X006317Y010559D01*
X006317Y010541D01*
X006313Y010525D01*
X006307Y010509D01*
X006297Y010495D01*
X006285Y010482D01*
X006271Y010473D01*
X006255Y010467D01*
X006253Y010518D01*
X006261Y010525D01*
X006267Y010534D01*
X006270Y010545D01*
X006270Y010555D01*
X006267Y010566D01*
X006261Y010575D01*
X006253Y010582D01*
X007865Y013025D02*
X008165Y013025D01*
X007865Y013325D01*
X007865Y013400D01*
X007940Y013475D01*
X008090Y013475D01*
X008165Y013400D01*
X008326Y013400D02*
X008326Y013100D01*
X008401Y013025D01*
X008626Y013025D01*
X008626Y013475D01*
X008401Y013475D01*
X008326Y013400D01*
X011930Y011625D02*
X011930Y011325D01*
X011930Y011625D02*
X012280Y011625D01*
X012430Y011125D02*
X012430Y010975D01*
X012280Y010475D02*
X011930Y010475D01*
X011930Y010775D01*
X014840Y008502D02*
X014915Y008577D01*
X015216Y008577D01*
X015291Y008502D01*
X015291Y008352D01*
X015216Y008277D01*
X015140Y008277D01*
X015065Y008352D01*
X015065Y008577D01*
X014840Y008502D02*
X014840Y008352D01*
X014915Y008277D01*
X014915Y005293D02*
X014990Y005293D01*
X015065Y005218D01*
X015065Y004993D01*
X014915Y004993D01*
X014840Y005068D01*
X014840Y005218D01*
X014915Y005293D01*
X015065Y004993D02*
X015216Y005143D01*
X015291Y005293D01*
D14*
X013589Y005180D03*
X013589Y006260D03*
X013589Y007340D03*
X013589Y008420D03*
X005271Y008420D03*
X005271Y007340D03*
X005271Y006260D03*
X005271Y005180D03*
D15*
X004980Y010150D02*
X006680Y010150D01*
X006697Y010152D01*
X006714Y010156D01*
X006730Y010163D01*
X006744Y010173D01*
X006757Y010186D01*
X006767Y010200D01*
X006774Y010216D01*
X006778Y010233D01*
X006780Y010250D01*
X006780Y010850D01*
X006778Y010867D01*
X006774Y010884D01*
X006767Y010900D01*
X006757Y010914D01*
X006744Y010927D01*
X006730Y010937D01*
X006714Y010944D01*
X006697Y010948D01*
X006680Y010950D01*
X004980Y010950D01*
X004963Y010948D01*
X004946Y010944D01*
X004930Y010937D01*
X004916Y010927D01*
X004903Y010914D01*
X004893Y010900D01*
X004886Y010884D01*
X004882Y010867D01*
X004880Y010850D01*
X004880Y010250D01*
X004882Y010233D01*
X004886Y010216D01*
X004893Y010200D01*
X004903Y010186D01*
X004916Y010173D01*
X004930Y010163D01*
X004946Y010156D01*
X004963Y010152D01*
X004980Y010150D01*
X004930Y010550D02*
X005130Y010550D01*
X005830Y010250D02*
X005830Y010150D01*
X005830Y010850D02*
X005830Y010950D01*
X006530Y010550D02*
X006730Y010550D01*
X009400Y014800D02*
X009960Y014800D01*
X009960Y015300D02*
X009400Y015300D01*
X009400Y015800D02*
X009960Y015800D01*
X009960Y016300D02*
X009400Y016300D01*
X010400Y014050D02*
X010960Y014050D01*
X010960Y013550D02*
X010400Y013550D01*
X011400Y014800D02*
X011960Y014800D01*
X011960Y015300D02*
X011400Y015300D01*
X011400Y015800D02*
X011960Y015800D01*
X011960Y016300D02*
X011400Y016300D01*
D16*
X011340Y016050D03*
X012020Y016050D03*
X012020Y015050D03*
X011340Y015050D03*
X011020Y013800D03*
X010340Y013800D03*
X010020Y015050D03*
X009340Y015050D03*
X009340Y016050D03*
X010020Y016050D03*
D17*
X008910Y015973D02*
X008680Y015973D01*
X008603Y016050D01*
X008603Y016204D01*
X008680Y016280D01*
X008910Y016280D01*
X008910Y015820D01*
X008757Y015973D02*
X008603Y015820D01*
X008450Y015820D02*
X008143Y015820D01*
X008296Y015820D02*
X008296Y016280D01*
X008450Y016127D01*
X008680Y015330D02*
X008603Y015254D01*
X008603Y015100D01*
X008680Y015023D01*
X008910Y015023D01*
X008910Y014870D02*
X008910Y015330D01*
X008680Y015330D01*
X008757Y015023D02*
X008603Y014870D01*
X008450Y015100D02*
X008143Y015100D01*
X008219Y014870D02*
X008219Y015330D01*
X008450Y015100D01*
X007998Y011887D02*
X007768Y011887D01*
X007691Y011810D01*
X007691Y011503D01*
X007768Y011426D01*
X007998Y011426D01*
X007998Y011887D01*
X007537Y011733D02*
X007384Y011887D01*
X007384Y011426D01*
X007537Y011426D02*
X007230Y011426D01*
X011713Y013447D02*
X011790Y013370D01*
X011944Y013370D01*
X012020Y013447D01*
X012020Y013600D02*
X011867Y013677D01*
X011790Y013677D01*
X011713Y013600D01*
X011713Y013447D01*
X012020Y013600D02*
X012020Y013830D01*
X011713Y013830D01*
X012174Y013754D02*
X012174Y013600D01*
X012251Y013523D01*
X012481Y013523D01*
X012481Y013370D02*
X012481Y013830D01*
X012251Y013830D01*
X012174Y013754D01*
X012327Y013523D02*
X012174Y013370D01*
X012790Y014820D02*
X012944Y014820D01*
X013020Y014897D01*
X013174Y014820D02*
X013327Y014973D01*
X013251Y014973D02*
X013481Y014973D01*
X013481Y014820D02*
X013481Y015280D01*
X013251Y015280D01*
X013174Y015204D01*
X013174Y015050D01*
X013251Y014973D01*
X013020Y015204D02*
X012944Y015280D01*
X012790Y015280D01*
X012713Y015204D01*
X012713Y015127D01*
X012790Y015050D01*
X012713Y014973D01*
X012713Y014897D01*
X012790Y014820D01*
X012790Y015050D02*
X012867Y015050D01*
X012713Y015770D02*
X013020Y015770D01*
X012713Y016077D01*
X012713Y016154D01*
X012790Y016230D01*
X012944Y016230D01*
X013020Y016154D01*
X013174Y016154D02*
X013174Y016000D01*
X013251Y015923D01*
X013481Y015923D01*
X013481Y015770D02*
X013481Y016230D01*
X013251Y016230D01*
X013174Y016154D01*
X013327Y015923D02*
X013174Y015770D01*
X012357Y022804D02*
X012003Y022804D01*
X011993Y023296D02*
X012357Y023296D01*
X006857Y023296D02*
X006493Y023296D01*
X006503Y022804D02*
X006857Y022804D01*
D18*
X008747Y012826D02*
X008747Y012274D01*
X009613Y012274D01*
X009613Y012826D01*
X008747Y012826D01*
X008747Y011576D02*
X008747Y011024D01*
X009613Y011024D01*
X009613Y011576D01*
X008747Y011576D01*
D19*
X008560Y011310D03*
X008560Y012540D03*
X009800Y012540D03*
X009800Y011310D03*
D20*
X008944Y011290D03*
X009416Y012560D03*
D21*
X005830Y010550D03*
D22*
X011785Y011050D03*
X012575Y010680D03*
X012575Y011420D03*
D23*
X012239Y022814D03*
X012239Y023286D03*
X006739Y023286D03*
X006739Y022814D03*
D24*
X006739Y023050D03*
X012239Y023050D03*
D25*
X012475Y023050D03*
X011885Y023050D03*
X006975Y023050D03*
X006385Y023050D03*
D26*
X006749Y022740D03*
X006749Y023360D03*
X012249Y023360D03*
X012249Y022740D03*
D27*
X011457Y023050D03*
X005957Y023050D03*
D28*
X007467Y023050D03*
X012967Y023050D03*
D29*
X011020Y022907D02*
X010938Y022825D01*
X010775Y022825D01*
X010693Y022907D01*
X010693Y023234D01*
X010775Y023315D01*
X010938Y023315D01*
X011020Y023234D01*
X011020Y022907D01*
X010504Y022907D02*
X010423Y022825D01*
X010177Y022825D01*
X010177Y023152D01*
X009989Y023152D02*
X009825Y023152D01*
X009907Y023234D02*
X009907Y022907D01*
X009825Y022825D01*
X010504Y022907D02*
X010504Y023152D01*
X005662Y023315D02*
X005519Y023315D01*
X005591Y023315D02*
X005591Y022885D01*
X005662Y022885D02*
X005519Y022885D01*
X005355Y022885D02*
X005355Y023172D01*
X005140Y023172D01*
X005068Y023100D01*
X005068Y022885D01*
M02*
