G75*
G70*
%OFA0B0*%
%FSLAX24Y24*%
%IPPOS*%
%LPD*%
%AMOC8*
5,1,8,0,0,1.08239X$1,22.5*
%
%ADD10C,0.0000*%
%ADD11R,0.1378X0.0669*%
%ADD12C,0.0787*%
%ADD13C,0.0768*%
%ADD14C,0.0712*%
%ADD15R,0.0472X0.0472*%
%ADD16C,0.0740*%
%ADD17C,0.0100*%
%ADD18C,0.0317*%
%ADD19C,0.0160*%
D10*
X004680Y004050D02*
X014180Y004050D01*
X014180Y023550D01*
X004680Y023550D01*
X004680Y004050D01*
D11*
X005560Y004640D03*
X005560Y005720D03*
X005560Y006800D03*
X005560Y007880D03*
X005560Y008960D03*
X013300Y008960D03*
X013300Y007880D03*
X013300Y006800D03*
X013300Y005720D03*
X013300Y004640D03*
D12*
X007074Y019060D02*
X006286Y019060D01*
X005499Y020556D02*
X005499Y021344D01*
X007900Y021344D02*
X007900Y020556D01*
D13*
X007042Y017412D03*
X006255Y015050D03*
X007042Y012688D03*
X011845Y012688D03*
X011845Y017412D03*
D14*
X009680Y020200D03*
X009680Y021700D03*
D15*
X011767Y023050D03*
X012593Y023050D03*
X007093Y023050D03*
X006267Y023050D03*
D16*
X008150Y009790D03*
X008150Y008010D03*
X010710Y008010D03*
X010710Y009790D03*
D17*
X010760Y009810D02*
X013680Y009810D01*
X013680Y009570D02*
X011182Y009570D01*
X011192Y009590D02*
X011217Y009668D01*
X011229Y009740D01*
X010760Y009740D01*
X010760Y009840D01*
X010660Y009840D01*
X010660Y010309D01*
X010588Y010297D01*
X010510Y010272D01*
X010437Y010235D01*
X010371Y010187D01*
X010313Y010129D01*
X010265Y010063D01*
X010228Y009990D01*
X010203Y009912D01*
X010191Y009840D01*
X010660Y009840D01*
X010660Y009740D01*
X010191Y009740D01*
X010203Y009668D01*
X010228Y009590D01*
X010265Y009517D01*
X010313Y009451D01*
X010371Y009393D01*
X010437Y009345D01*
X010448Y009340D01*
X008412Y009340D01*
X008423Y009345D01*
X008489Y009393D01*
X008547Y009451D01*
X008595Y009517D01*
X008632Y009590D01*
X008657Y009668D01*
X008669Y009740D01*
X008200Y009740D01*
X008200Y009840D01*
X008100Y009840D01*
X008100Y010309D01*
X008028Y010297D01*
X007950Y010272D01*
X007877Y010235D01*
X007811Y010187D01*
X007753Y010129D01*
X007705Y010063D01*
X007668Y009990D01*
X007643Y009912D01*
X007631Y009840D01*
X008100Y009840D01*
X008100Y009740D01*
X007631Y009740D01*
X007643Y009668D01*
X007668Y009590D01*
X007705Y009517D01*
X007753Y009451D01*
X007811Y009393D01*
X007877Y009345D01*
X007888Y009340D01*
X007322Y009340D01*
X007216Y009296D01*
X006738Y008818D01*
X006607Y008818D01*
X006562Y008800D01*
X006399Y008800D01*
X006399Y008910D01*
X005610Y008910D01*
X005610Y009010D01*
X006399Y009010D01*
X006399Y009314D01*
X006389Y009352D01*
X006369Y009387D01*
X006341Y009415D01*
X006307Y009434D01*
X006269Y009445D01*
X005610Y009445D01*
X005610Y009010D01*
X005510Y009010D01*
X005510Y009445D01*
X005180Y009445D01*
X005180Y020116D01*
X005214Y020091D01*
X005290Y020052D01*
X005372Y020026D01*
X005450Y020013D01*
X005450Y020902D01*
X005547Y020902D01*
X005547Y020998D01*
X006043Y020998D01*
X006043Y021386D01*
X006029Y021471D01*
X006003Y021552D01*
X005964Y021629D01*
X005914Y021698D01*
X005853Y021758D01*
X005784Y021809D01*
X005708Y021848D01*
X005626Y021874D01*
X005547Y021887D01*
X005547Y020998D01*
X005450Y020998D01*
X005450Y021887D01*
X005372Y021874D01*
X005290Y021848D01*
X005214Y021809D01*
X005180Y021784D01*
X005180Y022550D01*
X005990Y022550D01*
X005990Y022492D01*
X006034Y022386D01*
X006116Y022304D01*
X006222Y022260D01*
X007473Y022260D01*
X007640Y022093D01*
X007640Y021889D01*
X007559Y021855D01*
X007389Y021686D01*
X007297Y021464D01*
X007297Y020436D01*
X007389Y020214D01*
X007559Y020045D01*
X007780Y019953D01*
X008021Y019953D01*
X008242Y020045D01*
X008412Y020214D01*
X008504Y020436D01*
X008504Y021464D01*
X008412Y021686D01*
X008242Y021855D01*
X008220Y021865D01*
X008220Y022271D01*
X008176Y022378D01*
X008004Y022550D01*
X009390Y022550D01*
X009390Y022193D01*
X009359Y022180D01*
X009200Y022021D01*
X009114Y021813D01*
X009114Y021587D01*
X009200Y021379D01*
X009359Y021220D01*
X009567Y021134D01*
X009793Y021134D01*
X010001Y021220D01*
X010160Y021379D01*
X010246Y021587D01*
X010246Y021813D01*
X010160Y022021D01*
X010001Y022180D01*
X009970Y022193D01*
X009970Y022430D01*
X010090Y022550D01*
X013680Y022550D01*
X013680Y022350D01*
X012509Y022350D01*
X012480Y022321D01*
X012480Y019579D01*
X012509Y019550D01*
X013680Y019550D01*
X013680Y009445D01*
X013350Y009445D01*
X013350Y009010D01*
X013250Y009010D01*
X013250Y008910D01*
X012461Y008910D01*
X012461Y008800D01*
X012298Y008800D01*
X012253Y008818D01*
X012222Y008818D01*
X011826Y009214D01*
X011744Y009296D01*
X011638Y009340D01*
X010972Y009340D01*
X010983Y009345D01*
X011049Y009393D01*
X011107Y009451D01*
X011155Y009517D01*
X011192Y009590D01*
X011160Y009528D02*
X011160Y009340D01*
X011400Y009340D02*
X011400Y012293D01*
X011342Y012351D02*
X011509Y012184D01*
X011727Y012094D01*
X011963Y012094D01*
X012182Y012184D01*
X012349Y012351D01*
X012439Y012570D01*
X012439Y012806D01*
X012349Y013024D01*
X012182Y013191D01*
X011963Y013282D01*
X011727Y013282D01*
X011509Y013191D01*
X011342Y013024D01*
X011251Y012806D01*
X011251Y012570D01*
X011342Y012351D01*
X011301Y012450D02*
X011020Y012450D01*
X011020Y012210D02*
X011483Y012210D01*
X011640Y012130D02*
X011640Y009339D01*
X011662Y009330D02*
X012465Y009330D01*
X012461Y009314D02*
X012461Y009010D01*
X013250Y009010D01*
X013250Y009445D01*
X012591Y009445D01*
X012553Y009434D01*
X012519Y009415D01*
X012491Y009387D01*
X012471Y009352D01*
X012461Y009314D01*
X012600Y009445D02*
X012600Y019550D01*
X012480Y019650D02*
X011830Y019650D01*
X011830Y019579D02*
X011801Y019550D01*
X010509Y019550D01*
X010480Y019579D01*
X010480Y022321D01*
X010509Y022350D01*
X011801Y022350D01*
X011830Y022321D01*
X011830Y019579D01*
X011640Y019550D02*
X011640Y017970D01*
X007247Y017970D01*
X007320Y017940D02*
X007320Y018576D01*
X007282Y018556D02*
X007359Y018595D01*
X007428Y018646D01*
X007488Y018706D01*
X007539Y018775D01*
X007578Y018852D01*
X007604Y018933D01*
X007617Y019012D01*
X006728Y019012D01*
X006728Y018517D01*
X007116Y018517D01*
X007201Y018530D01*
X007282Y018556D01*
X007472Y018690D02*
X013680Y018690D01*
X013680Y018450D02*
X005180Y018450D01*
X005180Y018690D02*
X005888Y018690D01*
X005880Y018698D02*
X005880Y015515D01*
X005918Y015553D02*
X005751Y015386D01*
X005661Y015168D01*
X005661Y014932D01*
X005751Y014714D01*
X005918Y014547D01*
X006137Y014456D01*
X006373Y014456D01*
X006591Y014547D01*
X006758Y014714D01*
X006849Y014932D01*
X006849Y015168D01*
X006758Y015386D01*
X006591Y015553D01*
X006373Y015644D01*
X006137Y015644D01*
X005918Y015553D01*
X005958Y015570D02*
X005180Y015570D01*
X005180Y015330D02*
X005728Y015330D01*
X005661Y015090D02*
X005180Y015090D01*
X005180Y014850D02*
X005695Y014850D01*
X005855Y014610D02*
X005180Y014610D01*
X005180Y014370D02*
X007812Y014370D01*
X007812Y014373D02*
X007812Y014227D01*
X007868Y014091D01*
X007971Y013988D01*
X008107Y013932D01*
X008253Y013932D01*
X008389Y013988D01*
X008492Y014091D01*
X008548Y014227D01*
X008548Y014373D01*
X008492Y014509D01*
X008470Y014531D01*
X008470Y015569D01*
X008492Y015591D01*
X008548Y015727D01*
X008548Y015873D01*
X008492Y016009D01*
X008389Y016112D01*
X008253Y016168D01*
X008107Y016168D01*
X007971Y016112D01*
X007868Y016009D01*
X007812Y015873D01*
X007812Y015727D01*
X007868Y015591D01*
X007890Y015569D01*
X007890Y014531D01*
X007868Y014509D01*
X007812Y014373D01*
X007852Y014130D02*
X005180Y014130D01*
X005180Y013890D02*
X013680Y013890D01*
X013680Y013650D02*
X005180Y013650D01*
X005180Y013410D02*
X010636Y013410D01*
X010657Y013418D02*
X010521Y013362D01*
X010418Y013259D01*
X010362Y013123D01*
X010362Y012977D01*
X010418Y012841D01*
X010440Y012819D01*
X010440Y011531D01*
X010418Y011509D01*
X010362Y011373D01*
X010362Y011227D01*
X010418Y011091D01*
X010521Y010988D01*
X010657Y010932D01*
X010803Y010932D01*
X010939Y010988D01*
X011042Y011091D01*
X011098Y011227D01*
X011098Y011373D01*
X011042Y011509D01*
X011020Y011531D01*
X011020Y012819D01*
X011042Y012841D01*
X011098Y012977D01*
X011098Y013123D01*
X011042Y013259D01*
X010939Y013362D01*
X010803Y013418D01*
X010657Y013418D01*
X010680Y013418D02*
X010680Y019550D01*
X010480Y019650D02*
X005180Y019650D01*
X005180Y019410D02*
X005868Y019410D01*
X005872Y019414D02*
X005821Y019345D01*
X005782Y019269D01*
X005756Y019188D01*
X005743Y019109D01*
X006632Y019109D01*
X006632Y019604D01*
X006244Y019604D01*
X006159Y019591D01*
X006078Y019564D01*
X006001Y019525D01*
X005932Y019475D01*
X005872Y019414D01*
X005880Y019423D02*
X005880Y020168D01*
X005853Y020142D02*
X005914Y020202D01*
X005964Y020271D01*
X006003Y020348D01*
X006029Y020429D01*
X006043Y020514D01*
X006043Y020902D01*
X005547Y020902D01*
X005547Y020013D01*
X005626Y020026D01*
X005708Y020052D01*
X005784Y020091D01*
X005853Y020142D01*
X005837Y020130D02*
X007473Y020130D01*
X007560Y020044D02*
X007560Y019303D01*
X007578Y019269D02*
X007539Y019345D01*
X007488Y019414D01*
X007428Y019475D01*
X007359Y019525D01*
X007282Y019564D01*
X007201Y019591D01*
X007116Y019604D01*
X006728Y019604D01*
X006728Y019109D01*
X006632Y019109D01*
X006632Y019012D01*
X006728Y019012D01*
X006728Y019109D01*
X007617Y019109D01*
X007604Y019188D01*
X007578Y019269D01*
X007607Y019170D02*
X013680Y019170D01*
X013680Y018930D02*
X007603Y018930D01*
X007560Y019012D02*
X007560Y019109D01*
X007320Y019109D02*
X007320Y019012D01*
X007560Y018817D02*
X007560Y017714D01*
X007553Y017730D02*
X011334Y017730D01*
X011342Y017749D02*
X011251Y017530D01*
X011251Y017294D01*
X011342Y017076D01*
X011509Y016909D01*
X011727Y016818D01*
X011963Y016818D01*
X012182Y016909D01*
X012349Y017076D01*
X012439Y017294D01*
X012439Y017530D01*
X012349Y017749D01*
X012182Y017916D01*
X011963Y018006D01*
X011727Y018006D01*
X011509Y017916D01*
X011342Y017749D01*
X011400Y017807D02*
X011400Y019550D01*
X011160Y019550D02*
X011160Y010052D01*
X011161Y010050D02*
X013680Y010050D01*
X013680Y010290D02*
X010854Y010290D01*
X010832Y010297D02*
X010760Y010309D01*
X010760Y009840D01*
X011229Y009840D01*
X011217Y009912D01*
X011192Y009990D01*
X011155Y010063D01*
X011107Y010129D01*
X011049Y010187D01*
X010983Y010235D01*
X010910Y010272D01*
X010832Y010297D01*
X010760Y010290D02*
X010660Y010290D01*
X010566Y010290D02*
X008294Y010290D01*
X008280Y010295D02*
X008280Y013943D01*
X008040Y013959D02*
X008040Y010299D01*
X008006Y010290D02*
X005180Y010290D01*
X005180Y010050D02*
X007699Y010050D01*
X007800Y010175D02*
X007800Y019953D01*
X008040Y019961D02*
X008040Y016141D01*
X007909Y016050D02*
X005180Y016050D01*
X005180Y015810D02*
X007812Y015810D01*
X007889Y015570D02*
X006551Y015570D01*
X006600Y015545D02*
X006600Y017015D01*
X006605Y017010D02*
X005180Y017010D01*
X005180Y016770D02*
X013680Y016770D01*
X013680Y016530D02*
X005180Y016530D01*
X005180Y016290D02*
X013680Y016290D01*
X013680Y016050D02*
X008451Y016050D01*
X008520Y015942D02*
X008520Y022550D01*
X008280Y022550D02*
X008280Y021818D01*
X008288Y021810D02*
X009114Y021810D01*
X009121Y021570D02*
X008460Y021570D01*
X008504Y021330D02*
X009249Y021330D01*
X009240Y021339D02*
X009240Y020451D01*
X009247Y020465D02*
X009211Y020394D01*
X009186Y020319D01*
X009175Y020250D01*
X009630Y020250D01*
X009630Y020705D01*
X009561Y020694D01*
X009486Y020669D01*
X009415Y020633D01*
X009350Y020586D01*
X009294Y020530D01*
X009247Y020465D01*
X009203Y020370D02*
X008477Y020370D01*
X008504Y020610D02*
X009383Y020610D01*
X009480Y020666D02*
X009480Y021170D01*
X009720Y021134D02*
X009720Y020250D01*
X009730Y020250D02*
X009630Y020250D01*
X009630Y020150D01*
X009730Y020150D01*
X009730Y020250D01*
X010185Y020250D01*
X010174Y020319D01*
X010149Y020394D01*
X010113Y020465D01*
X010066Y020530D01*
X010010Y020586D01*
X009945Y020633D01*
X009874Y020669D01*
X009799Y020694D01*
X009730Y020705D01*
X009730Y020250D01*
X009730Y020150D02*
X010185Y020150D01*
X010174Y020081D01*
X010149Y020006D01*
X010113Y019935D01*
X010066Y019870D01*
X010010Y019814D01*
X009945Y019767D01*
X009874Y019731D01*
X009799Y019706D01*
X009730Y019695D01*
X009730Y020150D01*
X009720Y020150D02*
X009720Y009340D01*
X009960Y009340D02*
X009960Y019778D01*
X010080Y019890D02*
X010480Y019890D01*
X010480Y020130D02*
X010181Y020130D01*
X009960Y020150D02*
X009960Y020250D01*
X010157Y020370D02*
X010480Y020370D01*
X010480Y020610D02*
X009977Y020610D01*
X009960Y020622D02*
X009960Y021203D01*
X010111Y021330D02*
X010480Y021330D01*
X010480Y021090D02*
X008504Y021090D01*
X008504Y020850D02*
X010480Y020850D01*
X010200Y021476D02*
X010200Y009894D01*
X010200Y009840D02*
X010200Y009740D01*
X010200Y009686D02*
X010200Y009340D01*
X010238Y009570D02*
X008622Y009570D01*
X008520Y009425D02*
X008520Y009340D01*
X008760Y009340D02*
X008760Y022550D01*
X009000Y022550D02*
X009000Y009340D01*
X009240Y009340D02*
X009240Y019949D01*
X009247Y019935D02*
X009294Y019870D01*
X009350Y019814D01*
X009415Y019767D01*
X009486Y019731D01*
X009561Y019706D01*
X009630Y019695D01*
X009630Y020150D01*
X009175Y020150D01*
X009186Y020081D01*
X009211Y020006D01*
X009247Y019935D01*
X009280Y019890D02*
X005180Y019890D01*
X005400Y020021D02*
X005400Y009445D01*
X005510Y009330D02*
X005610Y009330D01*
X005640Y009445D02*
X005640Y020030D01*
X005547Y020130D02*
X005450Y020130D01*
X005450Y020370D02*
X005547Y020370D01*
X005547Y020610D02*
X005450Y020610D01*
X005450Y020850D02*
X005547Y020850D01*
X005640Y020902D02*
X005640Y020998D01*
X005547Y021090D02*
X005450Y021090D01*
X005450Y021330D02*
X005547Y021330D01*
X005547Y021570D02*
X005450Y021570D01*
X005450Y021810D02*
X005547Y021810D01*
X005640Y021870D02*
X005640Y022550D01*
X005880Y022550D02*
X005880Y021732D01*
X005781Y021810D02*
X007513Y021810D01*
X007560Y021856D02*
X007560Y022173D01*
X007640Y022050D02*
X005180Y022050D01*
X005180Y021810D02*
X005216Y021810D01*
X005400Y021879D02*
X005400Y022550D01*
X005180Y022530D02*
X005990Y022530D01*
X006120Y022302D02*
X006120Y019578D01*
X006360Y019604D02*
X006360Y022260D01*
X006600Y022260D02*
X006600Y019604D01*
X006632Y019410D02*
X006728Y019410D01*
X006840Y019604D02*
X006840Y022260D01*
X007080Y022260D02*
X007080Y019604D01*
X006728Y019170D02*
X006632Y019170D01*
X006600Y019109D02*
X006600Y019012D01*
X006632Y019012D02*
X005743Y019012D01*
X005756Y018933D01*
X005782Y018852D01*
X005821Y018775D01*
X005872Y018706D01*
X005932Y018646D01*
X006001Y018595D01*
X006078Y018556D01*
X006159Y018530D01*
X006244Y018517D01*
X006632Y018517D01*
X006632Y019012D01*
X006632Y018930D02*
X006728Y018930D01*
X006840Y019012D02*
X006840Y019109D01*
X007080Y019109D02*
X007080Y019012D01*
X006728Y018690D02*
X006632Y018690D01*
X006600Y018517D02*
X006600Y017810D01*
X006539Y017749D02*
X006448Y017530D01*
X006448Y017294D01*
X006539Y017076D01*
X006706Y016909D01*
X006924Y016818D01*
X007160Y016818D01*
X007379Y016909D01*
X007546Y017076D01*
X007636Y017294D01*
X007636Y017530D01*
X007546Y017749D01*
X007379Y017916D01*
X007160Y018006D01*
X006924Y018006D01*
X006706Y017916D01*
X006539Y017749D01*
X006531Y017730D02*
X005180Y017730D01*
X005180Y017490D02*
X006448Y017490D01*
X006467Y017250D02*
X005180Y017250D01*
X005180Y017970D02*
X006837Y017970D01*
X006840Y017971D02*
X006840Y018517D01*
X007080Y018517D02*
X007080Y018006D01*
X007636Y017490D02*
X011251Y017490D01*
X011270Y017250D02*
X007618Y017250D01*
X007560Y017110D02*
X007560Y012822D01*
X007563Y012813D02*
X007537Y012893D01*
X007499Y012968D01*
X007449Y013036D01*
X007390Y013095D01*
X007322Y013144D01*
X007247Y013183D01*
X007167Y013209D01*
X007092Y013220D01*
X007092Y012738D01*
X006992Y012738D01*
X006992Y013220D01*
X006917Y013209D01*
X006837Y013183D01*
X006762Y013144D01*
X006694Y013095D01*
X006635Y013036D01*
X006586Y012968D01*
X006547Y012893D01*
X006521Y012813D01*
X006510Y012738D01*
X006992Y012738D01*
X006992Y012638D01*
X006510Y012638D01*
X006521Y012563D01*
X006547Y012483D01*
X006586Y012408D01*
X006635Y012340D01*
X006694Y012281D01*
X006762Y012231D01*
X006837Y012193D01*
X006917Y012167D01*
X006992Y012155D01*
X006992Y012638D01*
X007092Y012638D01*
X007092Y012155D01*
X007167Y012167D01*
X007247Y012193D01*
X007322Y012231D01*
X007390Y012281D01*
X007449Y012340D01*
X007499Y012408D01*
X007537Y012483D01*
X007563Y012563D01*
X007575Y012638D01*
X007092Y012638D01*
X007092Y012738D01*
X007575Y012738D01*
X007563Y012813D01*
X007560Y012738D02*
X007560Y012638D01*
X007560Y012554D02*
X007560Y009340D01*
X007800Y009340D02*
X007800Y009405D01*
X007678Y009570D02*
X005180Y009570D01*
X005180Y009810D02*
X008100Y009810D01*
X008040Y009840D02*
X008040Y009740D01*
X008200Y009810D02*
X010660Y009810D01*
X010680Y009840D02*
X010680Y010932D01*
X010499Y011010D02*
X005180Y011010D01*
X005180Y010770D02*
X013680Y010770D01*
X013680Y010530D02*
X005180Y010530D01*
X005180Y011250D02*
X010362Y011250D01*
X010440Y011069D02*
X010440Y010236D01*
X010259Y010050D02*
X008601Y010050D01*
X008595Y010063D02*
X008547Y010129D01*
X008489Y010187D01*
X008423Y010235D01*
X008350Y010272D01*
X008272Y010297D01*
X008200Y010309D01*
X008200Y009840D01*
X008669Y009840D01*
X008657Y009912D01*
X008632Y009990D01*
X008595Y010063D01*
X008520Y010155D02*
X008520Y014158D01*
X008508Y014130D02*
X013680Y014130D01*
X013680Y014370D02*
X008548Y014370D01*
X008520Y014442D02*
X008520Y015658D01*
X008471Y015570D02*
X013680Y015570D01*
X013680Y015330D02*
X008470Y015330D01*
X008470Y015090D02*
X013680Y015090D01*
X013680Y014850D02*
X008470Y014850D01*
X008470Y014610D02*
X013680Y014610D01*
X013680Y013410D02*
X010824Y013410D01*
X010920Y013370D02*
X010920Y019550D01*
X011830Y019890D02*
X012480Y019890D01*
X012480Y020130D02*
X011830Y020130D01*
X011830Y020370D02*
X012480Y020370D01*
X012480Y020610D02*
X011830Y020610D01*
X011830Y020850D02*
X012480Y020850D01*
X012480Y021090D02*
X011830Y021090D01*
X011830Y021330D02*
X012480Y021330D01*
X012480Y021570D02*
X011830Y021570D01*
X011830Y021810D02*
X012480Y021810D01*
X012480Y022050D02*
X011830Y022050D01*
X011830Y022290D02*
X012480Y022290D01*
X012600Y022350D02*
X012600Y022550D01*
X012840Y022550D02*
X012840Y022350D01*
X013080Y022350D02*
X013080Y022550D01*
X013320Y022550D02*
X013320Y022350D01*
X013560Y022350D02*
X013560Y022550D01*
X013680Y022530D02*
X010070Y022530D01*
X010200Y022550D02*
X010200Y021924D01*
X010246Y021810D02*
X010480Y021810D01*
X010480Y021570D02*
X010239Y021570D01*
X010131Y022050D02*
X010480Y022050D01*
X010480Y022290D02*
X009970Y022290D01*
X010440Y022550D02*
X010440Y013281D01*
X010381Y013170D02*
X007272Y013170D01*
X007320Y013145D02*
X007320Y016884D01*
X007480Y017010D02*
X011408Y017010D01*
X011400Y017018D02*
X011400Y013082D01*
X011488Y013170D02*
X011079Y013170D01*
X011079Y012930D02*
X011303Y012930D01*
X011251Y012690D02*
X011020Y012690D01*
X011020Y011970D02*
X013680Y011970D01*
X013680Y011730D02*
X011020Y011730D01*
X011050Y011490D02*
X013680Y011490D01*
X013680Y011250D02*
X011098Y011250D01*
X010961Y011010D02*
X013680Y011010D01*
X013680Y012210D02*
X012207Y012210D01*
X012120Y012159D02*
X012120Y008920D01*
X012190Y008850D02*
X012461Y008850D01*
X012360Y008800D02*
X012360Y012378D01*
X012390Y012450D02*
X013680Y012450D01*
X013680Y012690D02*
X012439Y012690D01*
X012388Y012930D02*
X013680Y012930D01*
X013680Y013170D02*
X012203Y013170D01*
X012120Y013217D02*
X012120Y016883D01*
X012283Y017010D02*
X013680Y017010D01*
X013680Y017250D02*
X012421Y017250D01*
X012360Y017103D02*
X012360Y012997D01*
X011880Y013282D02*
X011880Y016818D01*
X011640Y016854D02*
X011640Y013246D01*
X011880Y012094D02*
X011880Y009160D01*
X011826Y009214D02*
X011826Y009214D01*
X011950Y009090D02*
X012461Y009090D01*
X012600Y009010D02*
X012600Y008910D01*
X012840Y008910D02*
X012840Y009010D01*
X012840Y009445D02*
X012840Y019550D01*
X013080Y019550D02*
X013080Y009445D01*
X013250Y009330D02*
X013350Y009330D01*
X013560Y009445D02*
X013560Y019550D01*
X013680Y019410D02*
X007492Y019410D01*
X007320Y019545D02*
X007320Y020380D01*
X007324Y020370D02*
X006010Y020370D01*
X006043Y020610D02*
X007297Y020610D01*
X007297Y020850D02*
X006043Y020850D01*
X005880Y020902D02*
X005880Y020998D01*
X006043Y021090D02*
X007297Y021090D01*
X007297Y021330D02*
X006043Y021330D01*
X005994Y021570D02*
X007341Y021570D01*
X007320Y021520D02*
X007320Y022260D01*
X008024Y022530D02*
X009390Y022530D01*
X009240Y022550D02*
X009240Y022061D01*
X009229Y022050D02*
X008220Y022050D01*
X008212Y022290D02*
X009390Y022290D01*
X010680Y022350D02*
X010680Y022550D01*
X010920Y022550D02*
X010920Y022350D01*
X011160Y022350D02*
X011160Y022550D01*
X011400Y022550D02*
X011400Y022350D01*
X011640Y022350D02*
X011640Y022550D01*
X011880Y022550D02*
X011880Y018006D01*
X012051Y017970D02*
X013680Y017970D01*
X013680Y017730D02*
X012357Y017730D01*
X012360Y017722D02*
X012360Y022550D01*
X012120Y022550D02*
X012120Y017941D01*
X012439Y017490D02*
X013680Y017490D01*
X013680Y018210D02*
X005180Y018210D01*
X005180Y018930D02*
X005757Y018930D01*
X005880Y019012D02*
X005880Y019109D01*
X005753Y019170D02*
X005180Y019170D01*
X006120Y019109D02*
X006120Y019012D01*
X006360Y019012D02*
X006360Y019109D01*
X006360Y018517D02*
X006360Y015644D01*
X006120Y015637D02*
X006120Y018543D01*
X006840Y016853D02*
X006840Y015189D01*
X006849Y015090D02*
X007890Y015090D01*
X007890Y014850D02*
X006815Y014850D01*
X006840Y014911D02*
X006840Y013183D01*
X006813Y013170D02*
X005180Y013170D01*
X005180Y012930D02*
X006566Y012930D01*
X006600Y012987D02*
X006600Y014555D01*
X006655Y014610D02*
X007890Y014610D01*
X007890Y015330D02*
X006782Y015330D01*
X006360Y014456D02*
X006360Y009396D01*
X006395Y009330D02*
X007298Y009330D01*
X007320Y009339D02*
X007320Y012230D01*
X007280Y012210D02*
X010440Y012210D01*
X010440Y011970D02*
X005180Y011970D01*
X005180Y011730D02*
X010440Y011730D01*
X010410Y011490D02*
X005180Y011490D01*
X005180Y012210D02*
X006804Y012210D01*
X006840Y012192D02*
X006840Y008920D01*
X006770Y008850D02*
X006399Y008850D01*
X006360Y008910D02*
X006360Y009010D01*
X006399Y009090D02*
X007010Y009090D01*
X007080Y009160D02*
X007080Y012638D01*
X007092Y012690D02*
X010440Y012690D01*
X010440Y012450D02*
X007520Y012450D01*
X007320Y012638D02*
X007320Y012738D01*
X007518Y012930D02*
X010381Y012930D01*
X010920Y010980D02*
X010920Y010267D01*
X010760Y010050D02*
X010660Y010050D01*
X010920Y009840D02*
X010920Y009740D01*
X011160Y009740D02*
X011160Y009840D01*
X010440Y009840D02*
X010440Y009740D01*
X010440Y009344D02*
X010440Y009340D01*
X009480Y009340D02*
X009480Y019734D01*
X009630Y019890D02*
X009730Y019890D01*
X009730Y020130D02*
X009630Y020130D01*
X009480Y020150D02*
X009480Y020250D01*
X009630Y020370D02*
X009730Y020370D01*
X009730Y020610D02*
X009630Y020610D01*
X009240Y020250D02*
X009240Y020150D01*
X009179Y020130D02*
X008328Y020130D01*
X008280Y020082D02*
X008280Y016157D01*
X008548Y015810D02*
X013680Y015810D01*
X013320Y019550D02*
X013320Y009010D01*
X013350Y009090D02*
X013250Y009090D01*
X013080Y009010D02*
X013080Y008910D01*
X008520Y009740D02*
X008520Y009840D01*
X008280Y009840D02*
X008280Y009740D01*
X008200Y010050D02*
X008100Y010050D01*
X008100Y010290D02*
X008200Y010290D01*
X007800Y009840D02*
X007800Y009740D01*
X006600Y008816D02*
X006600Y012388D01*
X006564Y012450D02*
X005180Y012450D01*
X005180Y012690D02*
X006992Y012690D01*
X007080Y012738D02*
X007080Y016818D01*
X005880Y014585D02*
X005880Y009445D01*
X006120Y009445D02*
X006120Y014463D01*
X006992Y013170D02*
X007092Y013170D01*
X007092Y012930D02*
X006992Y012930D01*
X006840Y012738D02*
X006840Y012638D01*
X006600Y012638D02*
X006600Y012738D01*
X006992Y012450D02*
X007092Y012450D01*
X007092Y012210D02*
X006992Y012210D01*
X006120Y009010D02*
X006120Y008910D01*
X005880Y008910D02*
X005880Y009010D01*
X005640Y009010D02*
X005640Y008910D01*
X005610Y009090D02*
X005510Y009090D01*
X005560Y007880D02*
X005560Y007850D01*
X005560Y005720D02*
X006180Y005550D01*
X006150Y022290D02*
X005180Y022290D01*
X008040Y022514D02*
X008040Y022550D01*
D18*
X008180Y023050D03*
X013430Y023050D03*
X008180Y015800D03*
X008180Y014300D03*
X010680Y015550D03*
X010730Y013050D03*
X010730Y011300D03*
X012180Y008450D03*
X012180Y007300D03*
X008930Y007400D03*
X006680Y007300D03*
X006680Y008450D03*
D19*
X006780Y008450D01*
X007380Y009050D01*
X011580Y009050D01*
X012180Y008450D01*
X011880Y007880D02*
X013300Y007880D01*
X013300Y006800D02*
X012780Y006750D01*
X006080Y006750D01*
X005560Y006800D01*
X005560Y007850D02*
X006980Y007850D01*
X007430Y007400D01*
X008930Y007400D01*
X011400Y007400D01*
X011880Y007880D01*
X012180Y007300D02*
X011930Y007050D01*
X006930Y007050D01*
X006680Y007300D01*
X006180Y005550D02*
X008180Y005550D01*
X008680Y005050D01*
X010180Y005050D01*
X010680Y005550D01*
X012780Y005550D01*
X012780Y004650D02*
X012680Y004550D01*
X006150Y004550D01*
X005560Y004640D01*
X010730Y011300D02*
X010730Y013050D01*
X008180Y014300D02*
X008180Y015800D01*
X007930Y020950D02*
X007930Y022213D01*
X007593Y022550D01*
X006280Y022550D01*
X006280Y023050D01*
X007093Y023050D02*
X008180Y023050D01*
X009680Y022550D02*
X009680Y021700D01*
X009680Y022550D02*
X010180Y023050D01*
X011767Y023050D01*
X012593Y023050D02*
X013430Y023050D01*
M02*
