G75*
G70*
%OFA0B0*%
%FSLAX24Y24*%
%IPPOS*%
%LPD*%
%AMOC8*
5,1,8,0,0,1.08239X$1,22.5*
%
%ADD10C,0.0000*%
%ADD11C,0.1024*%
%ADD12R,0.1418X0.0709*%
%ADD13C,0.0827*%
%ADD14C,0.0808*%
%ADD15C,0.0752*%
%ADD16C,0.0906*%
%ADD17R,0.0552X0.0670*%
%ADD18R,0.0591X0.0591*%
%ADD19R,0.0500X0.0670*%
%ADD20C,0.0780*%
%ADD21R,0.0490X0.0440*%
%ADD22R,0.0512X0.0512*%
D10*
X004680Y004050D02*
X014180Y004050D01*
X014180Y023550D01*
X004680Y023550D01*
X004680Y004050D01*
D11*
X009430Y006050D03*
D12*
X005560Y006260D03*
X005560Y005180D03*
X005560Y007340D03*
X005560Y008420D03*
X013300Y008420D03*
X013300Y007340D03*
X013300Y006260D03*
X013300Y005180D03*
D13*
X007074Y019060D02*
X006286Y019060D01*
X005499Y020556D02*
X005499Y021344D01*
X007900Y021344D02*
X007900Y020556D01*
D14*
X007042Y017412D03*
X006255Y015050D03*
X007042Y012688D03*
X011845Y012688D03*
X011845Y017412D03*
D15*
X009680Y020200D03*
X009680Y021700D03*
D16*
X011180Y021700D03*
X011180Y020200D03*
X013180Y020200D03*
X013180Y021700D03*
D17*
X012054Y016050D03*
X011306Y016050D03*
X011306Y015050D03*
X012054Y015050D03*
X011054Y013800D03*
X010306Y013800D03*
X010054Y015050D03*
X009306Y015050D03*
X009306Y016050D03*
X010054Y016050D03*
D18*
X009928Y012550D03*
X009928Y011300D03*
X008432Y011300D03*
X008432Y012550D03*
D19*
X006430Y010550D03*
X005830Y010550D03*
X005230Y010550D03*
D20*
X008150Y009790D03*
X008150Y008010D03*
X010710Y008010D03*
X010710Y009790D03*
D21*
X011780Y011050D03*
X012580Y010676D03*
X012580Y011424D03*
D22*
X012593Y023050D03*
X011767Y023050D03*
X007093Y023050D03*
X006267Y023050D03*
M02*
