G75*
G70*
%OFA0B0*%
%FSLAX24Y24*%
%IPPOS*%
%LPD*%
%AMOC8*
5,1,8,0,0,1.08239X$1,22.5*
%
%ADD10C,0.0060*%
%ADD11C,0.0130*%
%ADD12C,0.0000*%
%ADD13C,0.0050*%
%ADD14R,0.0200X1.2200*%
%ADD15R,0.0984X0.0472*%
%ADD16R,0.0630X0.7244*%
%ADD17C,0.0040*%
%ADD18C,0.0080*%
%ADD19R,0.0118X0.0059*%
%ADD20R,0.0118X0.0118*%
%ADD21R,0.0236X0.0531*%
%ADD22R,0.1634X0.0030*%
%ADD23R,0.0049X0.0591*%
%ADD24R,0.0197X0.0591*%
%ADD25C,0.0070*%
%ADD26C,0.0059*%
D10*
X002780Y002700D02*
X002980Y002700D01*
X002980Y002750D01*
X003930Y002750D01*
X003960Y002752D01*
X003990Y002757D01*
X004019Y002766D01*
X004046Y002779D01*
X004072Y002794D01*
X004096Y002813D01*
X004117Y002834D01*
X004136Y002858D01*
X004151Y002884D01*
X004164Y002911D01*
X004173Y002940D01*
X004178Y002970D01*
X004180Y003000D01*
X004180Y002993D02*
X004180Y010607D01*
X004180Y010600D02*
X004178Y010630D01*
X004173Y010660D01*
X004164Y010689D01*
X004151Y010716D01*
X004136Y010742D01*
X004117Y010766D01*
X004096Y010787D01*
X004072Y010806D01*
X004046Y010821D01*
X004019Y010834D01*
X003990Y010843D01*
X003960Y010848D01*
X003930Y010850D01*
X002980Y010850D01*
X002980Y010900D01*
X002780Y010900D01*
X002659Y010250D02*
X002657Y010220D01*
X002652Y010190D01*
X002643Y010161D01*
X002630Y010134D01*
X002615Y010108D01*
X002596Y010084D01*
X002575Y010063D01*
X002551Y010044D01*
X002525Y010029D01*
X002498Y010016D01*
X002469Y010007D01*
X002439Y010002D01*
X002409Y010000D01*
X000330Y010000D01*
X000304Y009998D01*
X000278Y009993D01*
X000253Y009985D01*
X000230Y009973D01*
X000208Y009959D01*
X000189Y009941D01*
X000171Y009922D01*
X000157Y009900D01*
X000145Y009877D01*
X000137Y009852D01*
X000132Y009826D01*
X000130Y009800D01*
X000130Y003800D01*
X000132Y003774D01*
X000137Y003748D01*
X000145Y003723D01*
X000157Y003700D01*
X000171Y003678D01*
X000189Y003659D01*
X000208Y003641D01*
X000230Y003627D01*
X000253Y003615D01*
X000278Y003607D01*
X000304Y003602D01*
X000330Y003600D01*
X002409Y003600D01*
X002439Y003598D01*
X002469Y003593D01*
X002498Y003584D01*
X002525Y003571D01*
X002551Y003556D01*
X002575Y003537D01*
X002596Y003516D01*
X002615Y003492D01*
X002630Y003466D01*
X002643Y003439D01*
X002652Y003410D01*
X002657Y003380D01*
X002659Y003350D01*
X008317Y017080D02*
X008210Y017187D01*
X008317Y017080D02*
X008530Y017080D01*
X008637Y017187D01*
X008637Y017400D01*
X008530Y017507D01*
X008424Y017507D01*
X008210Y017400D01*
X008210Y017721D01*
X008637Y017721D01*
X008855Y017614D02*
X008961Y017721D01*
X009175Y017721D01*
X009282Y017614D01*
X008855Y017187D01*
X008961Y017080D01*
X009175Y017080D01*
X009282Y017187D01*
X009282Y017614D01*
X009499Y017614D02*
X009499Y017507D01*
X009606Y017400D01*
X009926Y017400D01*
X009926Y017187D02*
X009819Y017080D01*
X009606Y017080D01*
X009499Y017187D01*
X009499Y017614D02*
X009606Y017721D01*
X009819Y017721D01*
X009926Y017614D01*
X009926Y017187D01*
X010144Y017187D02*
X010144Y017080D01*
X010144Y017187D02*
X010571Y017614D01*
X010571Y017721D01*
X010144Y017721D01*
X010788Y017400D02*
X010788Y017187D01*
X010895Y017080D01*
X011108Y017080D01*
X011215Y017187D01*
X011215Y017294D01*
X011108Y017400D01*
X010788Y017400D01*
X011002Y017614D01*
X011215Y017721D01*
X011288Y018580D02*
X011715Y019007D01*
X011715Y019114D01*
X011608Y019221D01*
X011395Y019221D01*
X011288Y019114D01*
X011288Y018580D02*
X011715Y018580D01*
X011933Y018687D02*
X012360Y019114D01*
X012360Y018687D01*
X012253Y018580D01*
X012040Y018580D01*
X011933Y018687D01*
X011933Y019114D01*
X012040Y019221D01*
X012253Y019221D01*
X012360Y019114D01*
X012577Y019007D02*
X012791Y019221D01*
X012791Y018580D01*
X013004Y018580D02*
X012577Y018580D01*
X013222Y018580D02*
X013649Y019007D01*
X013649Y019114D01*
X013542Y019221D01*
X013329Y019221D01*
X013222Y019114D01*
X013222Y018580D02*
X013649Y018580D01*
X010426Y018580D02*
X010426Y018900D01*
X010319Y019007D01*
X009999Y019007D01*
X009999Y018580D01*
X009782Y018580D02*
X009782Y019007D01*
X009782Y018580D02*
X009461Y018580D01*
X009355Y018687D01*
X009355Y019007D01*
X009137Y019221D02*
X008924Y019221D01*
X009030Y019221D02*
X009030Y018687D01*
X008924Y018580D01*
X008817Y018580D01*
X008710Y018687D01*
X008855Y017614D02*
X008855Y017187D01*
X014680Y010607D02*
X014680Y002993D01*
X014680Y003000D02*
X014682Y002970D01*
X014687Y002940D01*
X014696Y002911D01*
X014709Y002884D01*
X014724Y002858D01*
X014743Y002834D01*
X014764Y002813D01*
X014788Y002794D01*
X014814Y002779D01*
X014841Y002766D01*
X014870Y002757D01*
X014900Y002752D01*
X014930Y002750D01*
X015880Y002750D01*
X015880Y002700D01*
X016080Y002700D01*
X016224Y003100D02*
X016226Y003130D01*
X016231Y003160D01*
X016240Y003189D01*
X016253Y003216D01*
X016268Y003242D01*
X016287Y003266D01*
X016308Y003287D01*
X016332Y003306D01*
X016358Y003321D01*
X016385Y003334D01*
X016414Y003343D01*
X016444Y003348D01*
X016474Y003350D01*
X018324Y003350D01*
X018350Y003352D01*
X018376Y003357D01*
X018401Y003365D01*
X018424Y003377D01*
X018446Y003391D01*
X018465Y003409D01*
X018483Y003428D01*
X018497Y003450D01*
X018509Y003473D01*
X018517Y003498D01*
X018522Y003524D01*
X018524Y003550D01*
X018524Y010050D01*
X018522Y010076D01*
X018517Y010102D01*
X018509Y010127D01*
X018497Y010150D01*
X018483Y010172D01*
X018465Y010191D01*
X018446Y010209D01*
X018424Y010223D01*
X018401Y010235D01*
X018376Y010243D01*
X018350Y010248D01*
X018324Y010250D01*
X016474Y010250D01*
X016444Y010252D01*
X016414Y010257D01*
X016385Y010266D01*
X016358Y010279D01*
X016332Y010294D01*
X016308Y010313D01*
X016287Y010334D01*
X016268Y010358D01*
X016253Y010384D01*
X016240Y010411D01*
X016231Y010440D01*
X016226Y010470D01*
X016224Y010500D01*
X015880Y010850D02*
X014930Y010850D01*
X014900Y010848D01*
X014870Y010843D01*
X014841Y010834D01*
X014814Y010821D01*
X014788Y010806D01*
X014764Y010787D01*
X014743Y010766D01*
X014724Y010742D01*
X014709Y010716D01*
X014696Y010689D01*
X014687Y010660D01*
X014682Y010630D01*
X014680Y010600D01*
X015880Y010850D02*
X015880Y010900D01*
X016080Y010900D01*
X017124Y008800D02*
X018024Y008800D01*
X018024Y007900D02*
X017124Y007900D01*
X017124Y008800D01*
X017124Y007250D02*
X018024Y007250D01*
X018024Y006350D02*
X017124Y006350D01*
X017124Y007250D01*
X017124Y005700D02*
X018024Y005700D01*
X018024Y004800D02*
X017124Y004800D01*
X017124Y005700D01*
D11*
X011805Y006857D02*
X011805Y006952D01*
X011710Y007047D01*
X011235Y007047D01*
X011235Y006762D01*
X011330Y006667D01*
X011520Y006667D01*
X011615Y006762D01*
X011615Y007047D01*
X011520Y007311D02*
X011615Y007406D01*
X011615Y007597D01*
X011520Y007692D01*
X011330Y007692D01*
X011235Y007597D01*
X011235Y007406D01*
X011330Y007311D01*
X011520Y007311D01*
X011615Y007956D02*
X011235Y007956D01*
X011425Y007956D02*
X011235Y008146D01*
X011235Y008241D01*
X011045Y006427D02*
X011045Y006237D01*
X011045Y006332D02*
X011615Y006332D01*
X011615Y006237D02*
X011615Y006427D01*
X007805Y007018D02*
X007805Y007113D01*
X007710Y007208D01*
X007235Y007208D01*
X007235Y007568D02*
X007235Y007758D01*
X007330Y007853D01*
X007615Y007853D01*
X007615Y007568D01*
X007520Y007472D01*
X007425Y007568D01*
X007425Y007853D01*
X007615Y008117D02*
X007615Y008307D01*
X007615Y008212D02*
X007045Y008212D01*
X007045Y008117D01*
X007615Y007208D02*
X007615Y006923D01*
X007520Y006828D01*
X007235Y006828D01*
X007045Y006564D02*
X007045Y006183D01*
X007615Y006183D01*
X007615Y006564D01*
X007330Y006373D02*
X007330Y006183D01*
D12*
X004680Y004050D02*
X014180Y004050D01*
X014180Y023550D01*
X004680Y023550D01*
X004680Y004050D01*
D13*
X004013Y004494D02*
X004013Y004795D01*
X004013Y004644D02*
X003562Y004644D01*
X003712Y004494D01*
X000805Y004511D02*
X000805Y004360D01*
X000730Y004285D01*
X000430Y004586D01*
X000730Y004586D01*
X000805Y004511D01*
X000730Y004285D02*
X000430Y004285D01*
X000355Y004360D01*
X000355Y004511D01*
X000430Y004586D01*
X000430Y004746D02*
X000355Y004821D01*
X000355Y004971D01*
X000430Y005046D01*
X000730Y005046D01*
X000805Y004971D01*
X000805Y004821D01*
X000730Y004746D01*
X000580Y004821D02*
X000580Y005046D01*
X000580Y004821D02*
X000505Y004746D01*
X000430Y004746D01*
X000355Y005206D02*
X000355Y005431D01*
X000430Y005506D01*
X000730Y005506D01*
X000805Y005431D01*
X000805Y005206D01*
X000355Y005206D01*
X000355Y004125D02*
X000355Y003825D01*
X000805Y003825D01*
X000580Y003825D02*
X000580Y003975D01*
X003562Y008827D02*
X003788Y008827D01*
X003712Y008977D01*
X003712Y009052D01*
X003788Y009127D01*
X003938Y009127D01*
X004013Y009052D01*
X004013Y008902D01*
X003938Y008827D01*
X003562Y008827D02*
X003562Y009127D01*
X014847Y008983D02*
X014847Y008683D01*
X015072Y008683D01*
X014997Y008833D01*
X014997Y008908D01*
X015072Y008983D01*
X015222Y008983D01*
X015297Y008908D01*
X015297Y008758D01*
X015222Y008683D01*
X017858Y008669D02*
X017933Y008744D01*
X018233Y008444D01*
X018308Y008519D01*
X018308Y008669D01*
X018233Y008744D01*
X017933Y008744D01*
X017858Y008669D02*
X017858Y008519D01*
X017933Y008444D01*
X018233Y008444D01*
X018308Y008284D02*
X017858Y008284D01*
X018008Y008134D01*
X017858Y007983D01*
X018308Y007983D01*
X018233Y008904D02*
X018308Y008979D01*
X018308Y009129D01*
X018233Y009204D01*
X017933Y009204D01*
X017858Y009129D01*
X017858Y008979D01*
X017933Y008904D01*
X018008Y008904D01*
X018083Y008979D01*
X018083Y009204D01*
X017858Y009365D02*
X018308Y009365D01*
X018308Y009590D01*
X018233Y009665D01*
X017933Y009665D01*
X017858Y009590D01*
X017858Y009365D01*
X015297Y004676D02*
X015297Y004375D01*
X015297Y004525D02*
X014847Y004525D01*
X014997Y004375D01*
D14*
X016141Y006800D03*
X002719Y006800D03*
D15*
X005271Y006800D03*
X005271Y005720D03*
X005271Y004640D03*
X005271Y007880D03*
X005271Y008960D03*
X013589Y008960D03*
X013589Y007880D03*
X013589Y006800D03*
X013589Y005720D03*
X013589Y004640D03*
D16*
X014357Y006800D03*
X004503Y006800D03*
D17*
X006700Y004397D02*
X006777Y004320D01*
X006853Y004320D01*
X006930Y004397D01*
X006930Y004780D01*
X006853Y004780D02*
X007007Y004780D01*
X007160Y004627D02*
X007314Y004780D01*
X007314Y004320D01*
X007467Y004320D02*
X007160Y004320D01*
X011700Y004397D02*
X011777Y004320D01*
X011853Y004320D01*
X011930Y004397D01*
X011930Y004780D01*
X011853Y004780D02*
X012007Y004780D01*
X012160Y004704D02*
X012237Y004780D01*
X012391Y004780D01*
X012467Y004704D01*
X012467Y004627D01*
X012160Y004320D01*
X012467Y004320D01*
X012393Y014070D02*
X012393Y014530D01*
X012240Y014377D01*
X012086Y014530D02*
X011779Y014223D01*
X011856Y014300D02*
X012086Y014070D01*
X012240Y014070D02*
X012547Y014070D01*
X011779Y014070D02*
X011779Y014530D01*
X011993Y022804D02*
X012357Y022804D01*
X012357Y023296D02*
X012003Y023296D01*
X006857Y023296D02*
X006503Y023296D01*
X006493Y022804D02*
X006857Y022804D01*
D18*
X005499Y022131D02*
X005499Y021606D01*
X005499Y021212D02*
X005499Y020688D01*
X005499Y020294D02*
X005499Y019769D01*
X005076Y019769D01*
X004682Y019769D02*
X004259Y019769D01*
X003865Y019769D02*
X003442Y019769D01*
X003048Y019769D02*
X002625Y019769D01*
X002586Y019257D02*
X005715Y019257D01*
X005944Y018160D02*
X012983Y018160D01*
X013012Y018158D01*
X013040Y018153D01*
X013068Y018144D01*
X013095Y018133D01*
X013119Y018118D01*
X013142Y018100D01*
X013163Y018079D01*
X013181Y018056D01*
X013196Y018032D01*
X013207Y018005D01*
X013216Y017977D01*
X013221Y017949D01*
X013223Y017920D01*
X013223Y012180D01*
X013221Y012151D01*
X013216Y012123D01*
X013207Y012095D01*
X013196Y012068D01*
X013181Y012044D01*
X013163Y012021D01*
X013142Y012000D01*
X013119Y011982D01*
X013095Y011967D01*
X013068Y011956D01*
X013040Y011947D01*
X013012Y011942D01*
X012983Y011940D01*
X005944Y011940D01*
X005915Y011942D01*
X005887Y011947D01*
X005859Y011956D01*
X005832Y011967D01*
X005808Y011982D01*
X005785Y012000D01*
X005764Y012021D01*
X005746Y012044D01*
X005731Y012068D01*
X005720Y012095D01*
X005711Y012123D01*
X005706Y012151D01*
X005704Y012180D01*
X005704Y017920D01*
X005706Y017949D01*
X005711Y017977D01*
X005720Y018005D01*
X005731Y018032D01*
X005746Y018056D01*
X005764Y018079D01*
X005785Y018100D01*
X005808Y018118D01*
X005832Y018133D01*
X005859Y018144D01*
X005887Y018153D01*
X005915Y018158D01*
X005944Y018160D01*
X007586Y019257D02*
X008215Y019257D01*
X008215Y019887D01*
X008215Y019257D02*
X008215Y022643D01*
X008215Y022013D01*
X008215Y022643D02*
X002586Y022643D01*
X002586Y019257D01*
X008215Y019257D01*
X009720Y019587D02*
X010334Y019587D01*
X010027Y022143D02*
X010027Y022757D01*
X009720Y022450D02*
X010334Y022450D01*
X005499Y022131D02*
X005078Y022131D01*
X004684Y022131D02*
X004264Y022131D01*
X003870Y022131D02*
X003449Y022131D01*
X003055Y022131D02*
X002635Y022131D01*
X003137Y021304D02*
X003826Y021304D01*
X004219Y021304D02*
X004908Y021304D01*
X004908Y020596D02*
X004219Y020596D01*
X003826Y020596D02*
X003137Y020596D01*
X003136Y020595D02*
X003100Y020602D01*
X003064Y020612D01*
X003030Y020625D01*
X002997Y020642D01*
X002966Y020663D01*
X002937Y020686D01*
X002911Y020713D01*
X002888Y020742D01*
X002868Y020773D01*
X002851Y020806D01*
X002838Y020841D01*
X002829Y020876D01*
X002823Y020913D01*
X002821Y020950D01*
X002823Y020987D01*
X002829Y021024D01*
X002838Y021059D01*
X002851Y021094D01*
X002868Y021127D01*
X002888Y021158D01*
X002911Y021187D01*
X002937Y021214D01*
X002966Y021237D01*
X002997Y021258D01*
X003030Y021275D01*
X003064Y021288D01*
X003100Y021298D01*
X003136Y021305D01*
X008430Y010100D02*
X008580Y010100D01*
X010280Y010100D01*
X010430Y010100D01*
X010630Y009900D01*
X010630Y009300D01*
X010630Y009293D02*
X010630Y008500D01*
X010630Y007900D01*
X010430Y007700D01*
X010280Y007700D01*
X008580Y007700D01*
X008430Y007700D01*
X008230Y007900D01*
X008230Y008500D01*
X008230Y009305D01*
X008230Y009300D02*
X008230Y009900D01*
X008430Y010100D01*
X008430Y009400D02*
X008430Y009100D01*
X008580Y008750D01*
X008430Y008700D02*
X008430Y008400D01*
X008730Y008900D02*
X008732Y008952D01*
X008738Y009004D01*
X008748Y009056D01*
X008761Y009106D01*
X008778Y009156D01*
X008799Y009204D01*
X008824Y009250D01*
X008852Y009294D01*
X008883Y009336D01*
X008917Y009376D01*
X008954Y009413D01*
X008994Y009447D01*
X009036Y009478D01*
X009080Y009506D01*
X009126Y009531D01*
X009174Y009552D01*
X009224Y009569D01*
X009274Y009582D01*
X009326Y009592D01*
X009378Y009598D01*
X009430Y009600D01*
X009482Y009598D01*
X009534Y009592D01*
X009586Y009582D01*
X009636Y009569D01*
X009686Y009552D01*
X009734Y009531D01*
X009780Y009506D01*
X009824Y009478D01*
X009866Y009447D01*
X009906Y009413D01*
X009943Y009376D01*
X009977Y009336D01*
X010008Y009294D01*
X010036Y009250D01*
X010061Y009204D01*
X010082Y009156D01*
X010099Y009106D01*
X010112Y009056D01*
X010122Y009004D01*
X010128Y008952D01*
X010130Y008900D01*
X010128Y008848D01*
X010122Y008796D01*
X010112Y008744D01*
X010099Y008694D01*
X010082Y008644D01*
X010061Y008596D01*
X010036Y008550D01*
X010008Y008506D01*
X009977Y008464D01*
X009943Y008424D01*
X009906Y008387D01*
X009866Y008353D01*
X009824Y008322D01*
X009780Y008294D01*
X009734Y008269D01*
X009686Y008248D01*
X009636Y008231D01*
X009586Y008218D01*
X009534Y008208D01*
X009482Y008202D01*
X009430Y008200D01*
X009378Y008202D01*
X009326Y008208D01*
X009274Y008218D01*
X009224Y008231D01*
X009174Y008248D01*
X009126Y008269D01*
X009080Y008294D01*
X009036Y008322D01*
X008994Y008353D01*
X008954Y008387D01*
X008917Y008424D01*
X008883Y008464D01*
X008852Y008506D01*
X008824Y008550D01*
X008799Y008596D01*
X008778Y008644D01*
X008761Y008694D01*
X008748Y008744D01*
X008738Y008796D01*
X008732Y008848D01*
X008730Y008900D01*
D19*
X006739Y022814D03*
X006739Y023286D03*
X012239Y023286D03*
X012239Y022814D03*
D20*
X012239Y023050D03*
X006739Y023050D03*
D21*
X006975Y023050D03*
X006385Y023050D03*
X011885Y023050D03*
X012475Y023050D03*
D22*
X012249Y022740D03*
X012249Y023360D03*
X006749Y023360D03*
X006749Y022740D03*
D23*
X005957Y023050D03*
X011457Y023050D03*
D24*
X012967Y023050D03*
X007467Y023050D03*
D25*
X005559Y023100D02*
X005559Y022885D01*
X005559Y023100D02*
X005487Y023172D01*
X005272Y023172D01*
X005272Y022885D01*
X005108Y022885D02*
X004965Y022885D01*
X005037Y022885D02*
X005037Y023315D01*
X005108Y023315D02*
X004965Y023315D01*
X009965Y023244D02*
X009965Y022957D01*
X010037Y022885D01*
X010180Y022885D01*
X010252Y022957D01*
X010252Y023244D01*
X010180Y023315D01*
X010037Y023315D01*
X009965Y023244D01*
X010425Y023172D02*
X010425Y022957D01*
X010497Y022885D01*
X010712Y022885D01*
X010712Y023172D01*
X010886Y023172D02*
X011029Y023172D01*
X010958Y023244D02*
X010958Y022957D01*
X011029Y022885D01*
D26*
X009598Y007418D02*
X009262Y007418D01*
X009217Y006973D01*
X009116Y006944D01*
X009020Y006904D01*
X008928Y006853D01*
X008582Y007136D01*
X008344Y006898D01*
X008627Y006552D01*
X008576Y006460D01*
X008536Y006364D01*
X008507Y006263D01*
X008062Y006218D01*
X008062Y005882D01*
X008507Y005837D01*
X008536Y005736D01*
X008576Y005640D01*
X008627Y005548D01*
X008344Y005202D01*
X008582Y004964D01*
X008928Y005247D01*
X008996Y005208D01*
X009067Y005175D01*
X009265Y005652D01*
X009201Y005685D01*
X009143Y005729D01*
X009093Y005782D01*
X009053Y005842D01*
X009024Y005908D01*
X009005Y005978D01*
X008999Y006050D01*
X009007Y006130D01*
X009029Y006208D01*
X009066Y006280D01*
X009115Y006344D01*
X009176Y006398D01*
X009245Y006439D01*
X009321Y006467D01*
X009401Y006480D01*
X009481Y006478D01*
X009560Y006460D01*
X009635Y006429D01*
X009702Y006384D01*
X009759Y006327D01*
X009805Y006261D01*
X009838Y006187D01*
X009857Y006109D01*
X009860Y006028D01*
X009848Y005948D01*
X009822Y005872D01*
X009782Y005802D01*
X009729Y005740D01*
X009666Y005690D01*
X009595Y005652D01*
X009793Y005175D01*
X009864Y005208D01*
X009932Y005247D01*
X010278Y004964D01*
X010516Y005202D01*
X010233Y005548D01*
X010284Y005640D01*
X010324Y005736D01*
X010353Y005837D01*
X010798Y005882D01*
X010798Y006218D01*
X010353Y006263D01*
X010324Y006364D01*
X010284Y006460D01*
X010233Y006552D01*
X010516Y006898D01*
X010278Y007136D01*
X009932Y006853D01*
X009840Y006904D01*
X009744Y006944D01*
X009643Y006973D01*
X009598Y007418D01*
X009601Y007388D02*
X009259Y007388D01*
X009253Y007331D02*
X009607Y007331D01*
X009613Y007273D02*
X009247Y007273D01*
X009242Y007216D02*
X009618Y007216D01*
X009624Y007158D02*
X009236Y007158D01*
X009230Y007100D02*
X009630Y007100D01*
X009636Y007043D02*
X009224Y007043D01*
X009218Y006985D02*
X009642Y006985D01*
X009783Y006928D02*
X009077Y006928D01*
X008958Y006870D02*
X009902Y006870D01*
X009953Y006870D02*
X010493Y006870D01*
X010486Y006928D02*
X010023Y006928D01*
X010094Y006985D02*
X010429Y006985D01*
X010371Y007043D02*
X010164Y007043D01*
X010235Y007100D02*
X010314Y007100D01*
X010446Y006813D02*
X008414Y006813D01*
X008367Y006870D02*
X008907Y006870D01*
X008837Y006928D02*
X008374Y006928D01*
X008431Y006985D02*
X008766Y006985D01*
X008696Y007043D02*
X008489Y007043D01*
X008546Y007100D02*
X008625Y007100D01*
X008461Y006755D02*
X010399Y006755D01*
X010352Y006698D02*
X008508Y006698D01*
X008555Y006640D02*
X010305Y006640D01*
X010258Y006582D02*
X008602Y006582D01*
X008612Y006525D02*
X010248Y006525D01*
X010280Y006467D02*
X009529Y006467D01*
X009663Y006410D02*
X010305Y006410D01*
X010327Y006352D02*
X009734Y006352D01*
X009782Y006295D02*
X010344Y006295D01*
X010609Y006237D02*
X009816Y006237D01*
X009840Y006180D02*
X010798Y006180D01*
X010798Y006122D02*
X009853Y006122D01*
X009858Y006064D02*
X010798Y006064D01*
X010798Y006007D02*
X009857Y006007D01*
X009849Y005949D02*
X010798Y005949D01*
X010798Y005892D02*
X009829Y005892D01*
X009800Y005834D02*
X010352Y005834D01*
X010336Y005777D02*
X009760Y005777D01*
X009703Y005719D02*
X010317Y005719D01*
X010293Y005662D02*
X009613Y005662D01*
X009615Y005604D02*
X010264Y005604D01*
X010235Y005546D02*
X009639Y005546D01*
X009662Y005489D02*
X010282Y005489D01*
X010329Y005431D02*
X009686Y005431D01*
X009710Y005374D02*
X010375Y005374D01*
X010422Y005316D02*
X009734Y005316D01*
X009758Y005259D02*
X010469Y005259D01*
X010515Y005201D02*
X009988Y005201D01*
X010058Y005144D02*
X010458Y005144D01*
X010400Y005086D02*
X010129Y005086D01*
X010200Y005028D02*
X010343Y005028D01*
X010285Y004971D02*
X010270Y004971D01*
X009849Y005201D02*
X009782Y005201D01*
X009174Y005431D02*
X008531Y005431D01*
X008485Y005374D02*
X009150Y005374D01*
X009126Y005316D02*
X008438Y005316D01*
X008391Y005259D02*
X009102Y005259D01*
X009078Y005201D02*
X009011Y005201D01*
X008872Y005201D02*
X008345Y005201D01*
X008402Y005144D02*
X008802Y005144D01*
X008731Y005086D02*
X008460Y005086D01*
X008517Y005028D02*
X008660Y005028D01*
X008590Y004971D02*
X008575Y004971D01*
X008578Y005489D02*
X009198Y005489D01*
X009221Y005546D02*
X008625Y005546D01*
X008596Y005604D02*
X009245Y005604D01*
X009247Y005662D02*
X008567Y005662D01*
X008543Y005719D02*
X009156Y005719D01*
X009098Y005777D02*
X008524Y005777D01*
X008508Y005834D02*
X009058Y005834D01*
X009031Y005892D02*
X008062Y005892D01*
X008062Y005949D02*
X009013Y005949D01*
X009003Y006007D02*
X008062Y006007D01*
X008062Y006064D02*
X009001Y006064D01*
X009006Y006122D02*
X008062Y006122D01*
X008062Y006180D02*
X009021Y006180D01*
X009044Y006237D02*
X008251Y006237D01*
X008516Y006295D02*
X009077Y006295D01*
X009125Y006352D02*
X008533Y006352D01*
X008555Y006410D02*
X009196Y006410D01*
X009325Y006467D02*
X008580Y006467D01*
M02*
