G75*
G70*
%OFA0B0*%
%FSLAX24Y24*%
%IPPOS*%
%LPD*%
%AMOC8*
5,1,8,0,0,1.08239X$1,22.5*
%
%ADD10C,0.0000*%
D10*
X004777Y002056D02*
X004777Y011505D01*
X024069Y011505D01*
X024069Y002056D01*
X004777Y002056D01*
X021777Y004556D02*
X021779Y004600D01*
X021785Y004644D01*
X021795Y004687D01*
X021808Y004729D01*
X021825Y004770D01*
X021846Y004809D01*
X021870Y004846D01*
X021897Y004881D01*
X021927Y004913D01*
X021960Y004943D01*
X021996Y004969D01*
X022033Y004993D01*
X022073Y005012D01*
X022114Y005029D01*
X022157Y005041D01*
X022200Y005050D01*
X022244Y005055D01*
X022288Y005056D01*
X022332Y005053D01*
X022376Y005046D01*
X022419Y005035D01*
X022461Y005021D01*
X022501Y005003D01*
X022540Y004981D01*
X022576Y004957D01*
X022610Y004929D01*
X022642Y004898D01*
X022671Y004864D01*
X022697Y004828D01*
X022719Y004790D01*
X022738Y004750D01*
X022753Y004708D01*
X022765Y004666D01*
X022773Y004622D01*
X022777Y004578D01*
X022777Y004534D01*
X022773Y004490D01*
X022765Y004446D01*
X022753Y004404D01*
X022738Y004362D01*
X022719Y004322D01*
X022697Y004284D01*
X022671Y004248D01*
X022642Y004214D01*
X022610Y004183D01*
X022576Y004155D01*
X022540Y004131D01*
X022501Y004109D01*
X022461Y004091D01*
X022419Y004077D01*
X022376Y004066D01*
X022332Y004059D01*
X022288Y004056D01*
X022244Y004057D01*
X022200Y004062D01*
X022157Y004071D01*
X022114Y004083D01*
X022073Y004100D01*
X022033Y004119D01*
X021996Y004143D01*
X021960Y004169D01*
X021927Y004199D01*
X021897Y004231D01*
X021870Y004266D01*
X021846Y004303D01*
X021825Y004342D01*
X021808Y004383D01*
X021795Y004425D01*
X021785Y004468D01*
X021779Y004512D01*
X021777Y004556D01*
X021777Y009056D02*
X021779Y009100D01*
X021785Y009144D01*
X021795Y009187D01*
X021808Y009229D01*
X021825Y009270D01*
X021846Y009309D01*
X021870Y009346D01*
X021897Y009381D01*
X021927Y009413D01*
X021960Y009443D01*
X021996Y009469D01*
X022033Y009493D01*
X022073Y009512D01*
X022114Y009529D01*
X022157Y009541D01*
X022200Y009550D01*
X022244Y009555D01*
X022288Y009556D01*
X022332Y009553D01*
X022376Y009546D01*
X022419Y009535D01*
X022461Y009521D01*
X022501Y009503D01*
X022540Y009481D01*
X022576Y009457D01*
X022610Y009429D01*
X022642Y009398D01*
X022671Y009364D01*
X022697Y009328D01*
X022719Y009290D01*
X022738Y009250D01*
X022753Y009208D01*
X022765Y009166D01*
X022773Y009122D01*
X022777Y009078D01*
X022777Y009034D01*
X022773Y008990D01*
X022765Y008946D01*
X022753Y008904D01*
X022738Y008862D01*
X022719Y008822D01*
X022697Y008784D01*
X022671Y008748D01*
X022642Y008714D01*
X022610Y008683D01*
X022576Y008655D01*
X022540Y008631D01*
X022501Y008609D01*
X022461Y008591D01*
X022419Y008577D01*
X022376Y008566D01*
X022332Y008559D01*
X022288Y008556D01*
X022244Y008557D01*
X022200Y008562D01*
X022157Y008571D01*
X022114Y008583D01*
X022073Y008600D01*
X022033Y008619D01*
X021996Y008643D01*
X021960Y008669D01*
X021927Y008699D01*
X021897Y008731D01*
X021870Y008766D01*
X021846Y008803D01*
X021825Y008842D01*
X021808Y008883D01*
X021795Y008925D01*
X021785Y008968D01*
X021779Y009012D01*
X021777Y009056D01*
X021647Y010556D02*
X021649Y010606D01*
X021655Y010656D01*
X021665Y010705D01*
X021679Y010753D01*
X021696Y010800D01*
X021717Y010845D01*
X021742Y010889D01*
X021770Y010930D01*
X021802Y010969D01*
X021836Y011006D01*
X021873Y011040D01*
X021913Y011070D01*
X021955Y011097D01*
X021999Y011121D01*
X022045Y011142D01*
X022092Y011158D01*
X022140Y011171D01*
X022190Y011180D01*
X022239Y011185D01*
X022290Y011186D01*
X022340Y011183D01*
X022389Y011176D01*
X022438Y011165D01*
X022486Y011150D01*
X022532Y011132D01*
X022577Y011110D01*
X022620Y011084D01*
X022661Y011055D01*
X022700Y011023D01*
X022736Y010988D01*
X022768Y010950D01*
X022798Y010910D01*
X022825Y010867D01*
X022848Y010823D01*
X022867Y010777D01*
X022883Y010729D01*
X022895Y010680D01*
X022903Y010631D01*
X022907Y010581D01*
X022907Y010531D01*
X022903Y010481D01*
X022895Y010432D01*
X022883Y010383D01*
X022867Y010335D01*
X022848Y010289D01*
X022825Y010245D01*
X022798Y010202D01*
X022768Y010162D01*
X022736Y010124D01*
X022700Y010089D01*
X022661Y010057D01*
X022620Y010028D01*
X022577Y010002D01*
X022532Y009980D01*
X022486Y009962D01*
X022438Y009947D01*
X022389Y009936D01*
X022340Y009929D01*
X022290Y009926D01*
X022239Y009927D01*
X022190Y009932D01*
X022140Y009941D01*
X022092Y009954D01*
X022045Y009970D01*
X021999Y009991D01*
X021955Y010015D01*
X021913Y010042D01*
X021873Y010072D01*
X021836Y010106D01*
X021802Y010143D01*
X021770Y010182D01*
X021742Y010223D01*
X021717Y010267D01*
X021696Y010312D01*
X021679Y010359D01*
X021665Y010407D01*
X021655Y010456D01*
X021649Y010506D01*
X021647Y010556D01*
M02*
