G75*
G70*
%OFA0B0*%
%FSLAX24Y24*%
%IPPOS*%
%LPD*%
%AMOC8*
5,1,8,0,0,1.08239X$1,22.5*
%
%ADD10C,0.0000*%
%ADD11OC8,0.0520*%
%ADD12C,0.0554*%
%ADD13R,0.0554X0.0554*%
%ADD14R,0.1378X0.0669*%
%ADD15C,0.0600*%
%ADD16C,0.0160*%
%ADD17C,0.0413*%
%ADD18C,0.0120*%
%ADD19C,0.0320*%
%ADD20C,0.0356*%
%ADD21C,0.0317*%
%ADD22C,0.1660*%
D10*
X004777Y002056D02*
X004777Y011505D01*
X024069Y011505D01*
X024069Y002056D01*
X004777Y002056D01*
X021777Y004556D02*
X021779Y004600D01*
X021785Y004644D01*
X021795Y004687D01*
X021808Y004729D01*
X021825Y004770D01*
X021846Y004809D01*
X021870Y004846D01*
X021897Y004881D01*
X021927Y004913D01*
X021960Y004943D01*
X021996Y004969D01*
X022033Y004993D01*
X022073Y005012D01*
X022114Y005029D01*
X022157Y005041D01*
X022200Y005050D01*
X022244Y005055D01*
X022288Y005056D01*
X022332Y005053D01*
X022376Y005046D01*
X022419Y005035D01*
X022461Y005021D01*
X022501Y005003D01*
X022540Y004981D01*
X022576Y004957D01*
X022610Y004929D01*
X022642Y004898D01*
X022671Y004864D01*
X022697Y004828D01*
X022719Y004790D01*
X022738Y004750D01*
X022753Y004708D01*
X022765Y004666D01*
X022773Y004622D01*
X022777Y004578D01*
X022777Y004534D01*
X022773Y004490D01*
X022765Y004446D01*
X022753Y004404D01*
X022738Y004362D01*
X022719Y004322D01*
X022697Y004284D01*
X022671Y004248D01*
X022642Y004214D01*
X022610Y004183D01*
X022576Y004155D01*
X022540Y004131D01*
X022501Y004109D01*
X022461Y004091D01*
X022419Y004077D01*
X022376Y004066D01*
X022332Y004059D01*
X022288Y004056D01*
X022244Y004057D01*
X022200Y004062D01*
X022157Y004071D01*
X022114Y004083D01*
X022073Y004100D01*
X022033Y004119D01*
X021996Y004143D01*
X021960Y004169D01*
X021927Y004199D01*
X021897Y004231D01*
X021870Y004266D01*
X021846Y004303D01*
X021825Y004342D01*
X021808Y004383D01*
X021795Y004425D01*
X021785Y004468D01*
X021779Y004512D01*
X021777Y004556D01*
X021777Y009056D02*
X021779Y009100D01*
X021785Y009144D01*
X021795Y009187D01*
X021808Y009229D01*
X021825Y009270D01*
X021846Y009309D01*
X021870Y009346D01*
X021897Y009381D01*
X021927Y009413D01*
X021960Y009443D01*
X021996Y009469D01*
X022033Y009493D01*
X022073Y009512D01*
X022114Y009529D01*
X022157Y009541D01*
X022200Y009550D01*
X022244Y009555D01*
X022288Y009556D01*
X022332Y009553D01*
X022376Y009546D01*
X022419Y009535D01*
X022461Y009521D01*
X022501Y009503D01*
X022540Y009481D01*
X022576Y009457D01*
X022610Y009429D01*
X022642Y009398D01*
X022671Y009364D01*
X022697Y009328D01*
X022719Y009290D01*
X022738Y009250D01*
X022753Y009208D01*
X022765Y009166D01*
X022773Y009122D01*
X022777Y009078D01*
X022777Y009034D01*
X022773Y008990D01*
X022765Y008946D01*
X022753Y008904D01*
X022738Y008862D01*
X022719Y008822D01*
X022697Y008784D01*
X022671Y008748D01*
X022642Y008714D01*
X022610Y008683D01*
X022576Y008655D01*
X022540Y008631D01*
X022501Y008609D01*
X022461Y008591D01*
X022419Y008577D01*
X022376Y008566D01*
X022332Y008559D01*
X022288Y008556D01*
X022244Y008557D01*
X022200Y008562D01*
X022157Y008571D01*
X022114Y008583D01*
X022073Y008600D01*
X022033Y008619D01*
X021996Y008643D01*
X021960Y008669D01*
X021927Y008699D01*
X021897Y008731D01*
X021870Y008766D01*
X021846Y008803D01*
X021825Y008842D01*
X021808Y008883D01*
X021795Y008925D01*
X021785Y008968D01*
X021779Y009012D01*
X021777Y009056D01*
X021647Y010556D02*
X021649Y010606D01*
X021655Y010656D01*
X021665Y010705D01*
X021679Y010753D01*
X021696Y010800D01*
X021717Y010845D01*
X021742Y010889D01*
X021770Y010930D01*
X021802Y010969D01*
X021836Y011006D01*
X021873Y011040D01*
X021913Y011070D01*
X021955Y011097D01*
X021999Y011121D01*
X022045Y011142D01*
X022092Y011158D01*
X022140Y011171D01*
X022190Y011180D01*
X022239Y011185D01*
X022290Y011186D01*
X022340Y011183D01*
X022389Y011176D01*
X022438Y011165D01*
X022486Y011150D01*
X022532Y011132D01*
X022577Y011110D01*
X022620Y011084D01*
X022661Y011055D01*
X022700Y011023D01*
X022736Y010988D01*
X022768Y010950D01*
X022798Y010910D01*
X022825Y010867D01*
X022848Y010823D01*
X022867Y010777D01*
X022883Y010729D01*
X022895Y010680D01*
X022903Y010631D01*
X022907Y010581D01*
X022907Y010531D01*
X022903Y010481D01*
X022895Y010432D01*
X022883Y010383D01*
X022867Y010335D01*
X022848Y010289D01*
X022825Y010245D01*
X022798Y010202D01*
X022768Y010162D01*
X022736Y010124D01*
X022700Y010089D01*
X022661Y010057D01*
X022620Y010028D01*
X022577Y010002D01*
X022532Y009980D01*
X022486Y009962D01*
X022438Y009947D01*
X022389Y009936D01*
X022340Y009929D01*
X022290Y009926D01*
X022239Y009927D01*
X022190Y009932D01*
X022140Y009941D01*
X022092Y009954D01*
X022045Y009970D01*
X021999Y009991D01*
X021955Y010015D01*
X021913Y010042D01*
X021873Y010072D01*
X021836Y010106D01*
X021802Y010143D01*
X021770Y010182D01*
X021742Y010223D01*
X021717Y010267D01*
X021696Y010312D01*
X021679Y010359D01*
X021665Y010407D01*
X021655Y010456D01*
X021649Y010506D01*
X021647Y010556D01*
D11*
X014277Y008056D03*
X016777Y005056D03*
X016777Y004056D03*
X014277Y004056D03*
D12*
X018777Y005556D03*
X019777Y006056D03*
X018777Y006556D03*
X019777Y007056D03*
X018777Y007556D03*
X019777Y008056D03*
X018777Y008556D03*
D13*
X019777Y005056D03*
D14*
X005567Y005186D03*
X005567Y006266D03*
X005567Y007346D03*
X005567Y008426D03*
D15*
X016477Y008556D02*
X017077Y008556D01*
X017077Y007556D02*
X016477Y007556D01*
X016477Y006556D02*
X017077Y006556D01*
X017077Y009556D02*
X016477Y009556D01*
D16*
X014777Y008056D02*
X014277Y008056D01*
X014777Y008056D02*
X015277Y007556D01*
X015277Y004556D01*
X015777Y004056D01*
X016777Y004056D01*
X010777Y005556D02*
X009527Y006806D01*
X008047Y007056D02*
X008027Y007056D01*
X010027Y009056D01*
D17*
X007277Y008056D03*
X008777Y010756D03*
D18*
X008857Y011056D02*
X008857Y010136D01*
X008617Y010136D02*
X008617Y011056D01*
X008377Y011056D02*
X008377Y010136D01*
X008200Y010136D02*
X008156Y010154D01*
X007998Y010154D01*
X007852Y010094D01*
X007740Y009982D01*
X007679Y009835D01*
X007679Y009677D01*
X007740Y009531D01*
X007852Y009419D01*
X007998Y009358D01*
X008156Y009358D01*
X008200Y009376D01*
X009812Y009376D01*
X009706Y009270D01*
X009649Y009131D01*
X009649Y009102D01*
X007981Y007434D01*
X007972Y007434D01*
X007833Y007377D01*
X007726Y007270D01*
X007669Y007131D01*
X007669Y006981D01*
X007726Y006842D01*
X007833Y006735D01*
X007972Y006678D01*
X008123Y006678D01*
X008262Y006735D01*
X008368Y006842D01*
X008426Y006981D01*
X008426Y007030D01*
X010073Y008678D01*
X010103Y008678D01*
X010242Y008735D01*
X010348Y008842D01*
X010406Y008981D01*
X010406Y009131D01*
X010348Y009270D01*
X010242Y009376D01*
X014053Y009376D01*
X014193Y009434D01*
X014299Y009541D01*
X014935Y010176D01*
X019654Y010176D01*
X019698Y010158D01*
X019856Y010158D01*
X020003Y010219D01*
X020115Y010331D01*
X020175Y010477D01*
X020175Y010635D01*
X020115Y010782D01*
X020003Y010894D01*
X019856Y010954D01*
X019698Y010954D01*
X019654Y010936D01*
X014853Y010936D01*
X014702Y010936D01*
X014562Y010878D01*
X013820Y010136D01*
X008200Y010136D01*
X008137Y010154D02*
X008137Y011056D01*
X007897Y011056D02*
X007897Y010112D01*
X007738Y009976D02*
X006777Y009976D01*
X006777Y009736D02*
X007679Y009736D01*
X007774Y009496D02*
X006777Y009496D01*
X006777Y009256D02*
X009701Y009256D01*
X009577Y009376D02*
X009577Y009030D01*
X009563Y009016D02*
X006777Y009016D01*
X006777Y008776D02*
X009323Y008776D01*
X009337Y008790D02*
X009337Y009376D01*
X009097Y009376D02*
X009097Y008550D01*
X009083Y008536D02*
X006777Y008536D01*
X006777Y008296D02*
X008843Y008296D01*
X008857Y008310D02*
X008857Y009376D01*
X008617Y009376D02*
X008617Y008070D01*
X008603Y008056D02*
X006777Y008056D01*
X006777Y007816D02*
X008363Y007816D01*
X008377Y007830D02*
X008377Y009376D01*
X008137Y009358D02*
X008137Y007590D01*
X008123Y007576D02*
X006777Y007576D01*
X006777Y007336D02*
X007792Y007336D01*
X007897Y007404D02*
X007897Y009400D01*
X009097Y010136D02*
X009097Y011056D01*
X009337Y011056D02*
X009337Y010136D01*
X009577Y010136D02*
X009577Y011056D01*
X009817Y011056D02*
X009817Y010136D01*
X010057Y010136D02*
X010057Y011056D01*
X010297Y011056D02*
X010297Y010136D01*
X010537Y010136D02*
X010537Y011056D01*
X010777Y011056D02*
X010777Y010136D01*
X011017Y010136D02*
X011017Y011056D01*
X011257Y011056D02*
X011257Y010136D01*
X011497Y010136D02*
X011497Y011056D01*
X011737Y011056D02*
X011737Y010136D01*
X011977Y010136D02*
X011977Y011056D01*
X012217Y011056D02*
X012217Y010136D01*
X012457Y010136D02*
X012457Y011056D01*
X012697Y011056D02*
X012697Y010136D01*
X012937Y010136D02*
X012937Y011056D01*
X013177Y011056D02*
X013177Y010136D01*
X013417Y010136D02*
X013417Y011056D01*
X013657Y011056D02*
X013657Y010136D01*
X013897Y010213D02*
X013897Y011056D01*
X014137Y011056D02*
X014137Y010453D01*
X014140Y010456D02*
X006827Y010456D01*
X006827Y010418D02*
X006827Y010694D01*
X006777Y010880D01*
X006777Y011056D01*
X021277Y011056D01*
X021277Y002556D01*
X006777Y002556D01*
X006777Y002732D01*
X006827Y002918D01*
X006827Y003194D01*
X006777Y003381D01*
X006777Y010232D01*
X006827Y010418D01*
X006777Y010216D02*
X013900Y010216D01*
X014377Y010693D02*
X014377Y011056D01*
X014617Y011056D02*
X014617Y010901D01*
X014857Y010936D02*
X014857Y011056D01*
X015097Y011056D02*
X015097Y010936D01*
X015337Y010936D02*
X015337Y011056D01*
X015577Y011056D02*
X015577Y010936D01*
X015817Y010936D02*
X015817Y011056D01*
X016057Y011056D02*
X016057Y010936D01*
X016297Y010936D02*
X016297Y011056D01*
X016537Y011056D02*
X016537Y010936D01*
X016777Y010936D02*
X016777Y011056D01*
X017017Y011056D02*
X017017Y010936D01*
X017257Y010936D02*
X017257Y011056D01*
X017497Y011056D02*
X017497Y010936D01*
X017737Y010936D02*
X017737Y011056D01*
X017977Y011056D02*
X017977Y010936D01*
X018217Y010936D02*
X018217Y011056D01*
X018457Y011056D02*
X018457Y010936D01*
X018697Y010936D02*
X018697Y011056D01*
X018937Y011056D02*
X018937Y010936D01*
X019177Y010936D02*
X019177Y011056D01*
X019417Y011056D02*
X019417Y010936D01*
X019655Y010936D02*
X006777Y010936D01*
X006937Y011056D02*
X006937Y002556D01*
X007177Y002556D02*
X007177Y011056D01*
X007417Y011056D02*
X007417Y002556D01*
X007657Y002556D02*
X007657Y011056D01*
X006827Y010696D02*
X014380Y010696D01*
X014857Y010099D02*
X014857Y008348D01*
X014837Y008356D02*
X014656Y008356D01*
X014476Y008536D01*
X014079Y008536D01*
X013797Y008255D01*
X013797Y007857D01*
X014079Y007576D01*
X008972Y007576D01*
X008857Y007462D02*
X008857Y002556D01*
X008617Y002556D02*
X008617Y007222D01*
X008732Y007336D02*
X014977Y007336D01*
X014977Y007432D02*
X014977Y004496D01*
X015023Y004386D01*
X015107Y004302D01*
X015607Y003802D01*
X015718Y003756D01*
X015837Y003756D01*
X016399Y003756D01*
X016579Y003576D01*
X016976Y003576D01*
X017257Y003857D01*
X017257Y004255D01*
X016976Y004536D01*
X016579Y004536D01*
X016399Y004356D01*
X015902Y004356D01*
X015577Y004680D01*
X015577Y010176D01*
X015337Y010176D02*
X015337Y007920D01*
X015442Y007816D02*
X016022Y007816D01*
X016036Y007851D02*
X015957Y007659D01*
X015957Y007453D01*
X016036Y007261D01*
X016183Y007115D01*
X016326Y007056D01*
X016183Y006997D01*
X016036Y006851D01*
X015957Y006659D01*
X015957Y006453D01*
X016036Y006261D01*
X016183Y006115D01*
X016374Y006036D01*
X017181Y006036D01*
X017372Y006115D01*
X017518Y006261D01*
X017597Y006453D01*
X017597Y006659D01*
X017518Y006851D01*
X017372Y006997D01*
X017229Y007056D01*
X017372Y007115D01*
X017518Y007261D01*
X017597Y007453D01*
X017597Y007659D01*
X017518Y007851D01*
X017372Y007997D01*
X017229Y008056D01*
X019280Y008056D01*
X019280Y007957D02*
X019356Y007774D01*
X019496Y007635D01*
X019678Y007559D01*
X019876Y007559D01*
X020059Y007635D01*
X020199Y007774D01*
X020274Y007957D01*
X020274Y008155D01*
X020199Y008338D01*
X020059Y008478D01*
X019876Y008553D01*
X019678Y008553D01*
X019496Y008478D01*
X019356Y008338D01*
X019280Y008155D01*
X019280Y007957D01*
X019177Y007859D02*
X019177Y008253D01*
X019199Y008274D02*
X019274Y008457D01*
X019274Y008655D01*
X019199Y008838D01*
X019059Y008978D01*
X018876Y009053D01*
X018678Y009053D01*
X018496Y008978D01*
X018356Y008838D01*
X018280Y008655D01*
X018280Y008457D01*
X018356Y008274D01*
X018496Y008135D01*
X018678Y008059D01*
X018876Y008059D01*
X019059Y008135D01*
X019199Y008274D01*
X019208Y008296D02*
X019339Y008296D01*
X019417Y008399D02*
X019417Y010176D01*
X019177Y010176D02*
X019177Y008859D01*
X019224Y008776D02*
X021277Y008776D01*
X021277Y008536D02*
X019918Y008536D01*
X019897Y008544D02*
X019897Y010175D01*
X019997Y010216D02*
X021277Y010216D01*
X021277Y010456D02*
X020167Y010456D01*
X020137Y010385D02*
X020137Y008399D01*
X020216Y008296D02*
X021277Y008296D01*
X021277Y008056D02*
X020274Y008056D01*
X020216Y007816D02*
X021277Y007816D01*
X021277Y007576D02*
X019918Y007576D01*
X019897Y007568D02*
X019897Y007477D01*
X019880Y007482D02*
X019945Y007461D01*
X020006Y007430D01*
X020062Y007389D01*
X020111Y007341D01*
X020151Y007285D01*
X020182Y007224D01*
X020204Y007158D01*
X020214Y007090D01*
X020214Y007085D01*
X019806Y007085D01*
X019749Y007085D01*
X019749Y007493D01*
X019743Y007493D01*
X019675Y007482D01*
X019609Y007461D01*
X019548Y007430D01*
X019493Y007389D01*
X019444Y007341D01*
X019403Y007285D01*
X019372Y007224D01*
X019351Y007158D01*
X019340Y007090D01*
X019340Y007085D01*
X019748Y007085D01*
X019748Y007027D01*
X019340Y007027D01*
X019340Y007022D01*
X019351Y006954D01*
X019372Y006888D01*
X019403Y006827D01*
X019444Y006771D01*
X019493Y006723D01*
X019548Y006682D01*
X019609Y006651D01*
X019675Y006630D01*
X019743Y006619D01*
X019749Y006619D01*
X019749Y007027D01*
X019806Y007027D01*
X019806Y006619D01*
X019812Y006619D01*
X019880Y006630D01*
X019945Y006651D01*
X020006Y006682D01*
X020062Y006723D01*
X020111Y006771D01*
X020151Y006827D01*
X020182Y006888D01*
X020204Y006954D01*
X020214Y007022D01*
X020214Y007027D01*
X019806Y007027D01*
X019806Y007085D01*
X019806Y007493D01*
X019812Y007493D01*
X019880Y007482D01*
X019806Y007336D02*
X019749Y007336D01*
X019657Y007477D02*
X019657Y007568D01*
X019637Y007576D02*
X019274Y007576D01*
X019274Y007655D02*
X019199Y007838D01*
X019059Y007978D01*
X018876Y008053D01*
X018678Y008053D01*
X018496Y007978D01*
X018356Y007838D01*
X018280Y007655D01*
X018280Y007457D01*
X018356Y007274D01*
X018496Y007135D01*
X018678Y007059D01*
X018876Y007059D01*
X019059Y007135D01*
X019199Y007274D01*
X019274Y007457D01*
X019274Y007655D01*
X019417Y007713D02*
X019417Y007304D01*
X019440Y007336D02*
X019224Y007336D01*
X019177Y007253D02*
X019177Y006859D01*
X019180Y006856D02*
X019389Y006856D01*
X019417Y006808D02*
X019417Y006399D01*
X019394Y006376D02*
X019241Y006376D01*
X019274Y006457D02*
X019199Y006274D01*
X019059Y006135D01*
X018876Y006059D01*
X018678Y006059D01*
X018496Y006135D01*
X018356Y006274D01*
X018280Y006457D01*
X018280Y006655D01*
X018356Y006838D01*
X018496Y006978D01*
X018678Y007053D01*
X018876Y007053D01*
X019059Y006978D01*
X019199Y006838D01*
X019274Y006655D01*
X019274Y006457D01*
X019356Y006338D02*
X019280Y006155D01*
X019280Y005957D01*
X019356Y005774D01*
X019496Y005635D01*
X019678Y005559D01*
X019876Y005559D01*
X020059Y005635D01*
X020199Y005774D01*
X020274Y005957D01*
X020274Y006155D01*
X020199Y006338D01*
X020059Y006478D01*
X019876Y006553D01*
X019678Y006553D01*
X019496Y006478D01*
X019356Y006338D01*
X019177Y006253D02*
X019177Y005859D01*
X019199Y005838D02*
X019059Y005978D01*
X018876Y006053D01*
X018678Y006053D01*
X018496Y005978D01*
X018356Y005838D01*
X018280Y005655D01*
X018280Y005457D01*
X018356Y005274D01*
X018496Y005135D01*
X018678Y005059D01*
X018876Y005059D01*
X019059Y005135D01*
X019199Y005274D01*
X019274Y005457D01*
X019274Y005655D01*
X019199Y005838D01*
X019140Y005896D02*
X019305Y005896D01*
X019280Y006136D02*
X019060Y006136D01*
X018937Y006084D02*
X018937Y006028D01*
X018697Y006053D02*
X018697Y006059D01*
X018494Y006136D02*
X017393Y006136D01*
X017497Y006241D02*
X017497Y002556D01*
X017257Y002556D02*
X017257Y006068D01*
X017017Y006036D02*
X017017Y005495D01*
X016976Y005536D02*
X016579Y005536D01*
X016297Y005255D01*
X016297Y006068D01*
X016162Y006136D02*
X015577Y006136D01*
X015577Y005896D02*
X018414Y005896D01*
X018457Y005939D02*
X018457Y006173D01*
X018314Y006376D02*
X017566Y006376D01*
X017597Y006616D02*
X018280Y006616D01*
X018374Y006856D02*
X017513Y006856D01*
X017497Y006871D02*
X017497Y007241D01*
X017549Y007336D02*
X018330Y007336D01*
X018457Y007173D02*
X018457Y006939D01*
X018589Y007096D02*
X017326Y007096D01*
X017257Y007068D02*
X017257Y007044D01*
X017597Y007576D02*
X018280Y007576D01*
X018347Y007816D02*
X017532Y007816D01*
X017497Y007871D02*
X017497Y008241D01*
X017518Y008261D02*
X017372Y008115D01*
X017229Y008056D01*
X017257Y008044D02*
X017257Y008068D01*
X017518Y008261D02*
X017597Y008453D01*
X017597Y008659D01*
X017518Y008851D01*
X017372Y008997D01*
X017181Y009076D01*
X016374Y009076D01*
X016183Y008997D01*
X016036Y008851D01*
X015957Y008659D01*
X015957Y008453D01*
X016036Y008261D01*
X016183Y008115D01*
X016326Y008056D01*
X016183Y007997D01*
X016036Y007851D01*
X016057Y007871D02*
X016057Y008241D01*
X016022Y008296D02*
X014962Y008296D01*
X014947Y008310D02*
X014837Y008356D01*
X014947Y008310D02*
X015032Y008226D01*
X015532Y007726D01*
X015577Y007616D01*
X015577Y007496D01*
X015577Y004680D01*
X015577Y004696D02*
X016459Y004696D01*
X016537Y004617D02*
X016537Y004495D01*
X016499Y004456D02*
X015802Y004456D01*
X015817Y004440D02*
X015817Y010176D01*
X016057Y010176D02*
X016057Y009745D01*
X016053Y009736D02*
X014495Y009736D01*
X014377Y009619D02*
X014377Y008536D01*
X014137Y008536D02*
X014137Y009411D01*
X014255Y009496D02*
X016021Y009496D01*
X016018Y009516D02*
X016029Y009448D01*
X016051Y009379D01*
X016084Y009315D01*
X016126Y009256D01*
X016178Y009205D01*
X016236Y009163D01*
X016301Y009130D01*
X016370Y009107D01*
X016441Y009096D01*
X016737Y009096D01*
X016737Y009516D01*
X016018Y009516D01*
X016057Y009516D02*
X016057Y009596D01*
X016018Y009596D02*
X016737Y009596D01*
X016737Y009516D01*
X016817Y009516D01*
X016817Y009096D01*
X017114Y009096D01*
X017185Y009107D01*
X017254Y009130D01*
X017318Y009163D01*
X017377Y009205D01*
X017428Y009256D01*
X021277Y009256D01*
X021277Y009496D02*
X017533Y009496D01*
X017537Y009516D02*
X017526Y009448D01*
X017504Y009379D01*
X017471Y009315D01*
X017428Y009256D01*
X017497Y009367D02*
X017497Y008871D01*
X017549Y008776D02*
X018330Y008776D01*
X018457Y008939D02*
X018457Y010176D01*
X018217Y010176D02*
X018217Y002556D01*
X017977Y002556D02*
X017977Y010176D01*
X017737Y010176D02*
X017737Y002556D01*
X017017Y002556D02*
X017017Y003617D01*
X017136Y003736D02*
X021277Y003736D01*
X021277Y003496D02*
X006777Y003496D01*
X006777Y003736D02*
X014003Y003736D01*
X014103Y003636D02*
X013857Y003882D01*
X013857Y004036D01*
X014257Y004036D01*
X014257Y004076D01*
X013857Y004076D01*
X013857Y004230D01*
X014103Y004476D01*
X014257Y004476D01*
X014257Y004076D01*
X014297Y004076D01*
X014297Y004476D01*
X014451Y004476D01*
X014697Y004230D01*
X014697Y004076D01*
X014298Y004076D01*
X014298Y004036D01*
X014697Y004036D01*
X014697Y003882D01*
X014451Y003636D01*
X014297Y003636D01*
X014297Y004036D01*
X014257Y004036D01*
X014257Y003636D01*
X014103Y003636D01*
X014137Y003636D02*
X014137Y002556D01*
X013897Y002556D02*
X013897Y003842D01*
X013857Y003976D02*
X006777Y003976D01*
X006777Y004216D02*
X013857Y004216D01*
X013897Y004270D02*
X013897Y007757D01*
X013839Y007816D02*
X009212Y007816D01*
X009097Y007702D02*
X009097Y002556D01*
X009337Y002556D02*
X009337Y006475D01*
X009313Y006485D02*
X009452Y006428D01*
X009481Y006428D01*
X010399Y005510D01*
X010399Y005481D01*
X010456Y005342D01*
X010563Y005235D01*
X010702Y005178D01*
X010853Y005178D01*
X010992Y005235D01*
X011098Y005342D01*
X011156Y005481D01*
X011156Y005631D01*
X011098Y005770D01*
X010992Y005877D01*
X010853Y005934D01*
X010823Y005934D01*
X009906Y006852D01*
X009906Y006881D01*
X009848Y007020D01*
X009742Y007127D01*
X009603Y007184D01*
X009452Y007184D01*
X009313Y007127D01*
X009206Y007020D01*
X009149Y006881D01*
X009149Y006731D01*
X009206Y006592D01*
X009313Y006485D01*
X009196Y006616D02*
X006777Y006616D01*
X006777Y006376D02*
X009533Y006376D01*
X009577Y006332D02*
X009577Y002556D01*
X009817Y002556D02*
X009817Y006092D01*
X009773Y006136D02*
X006777Y006136D01*
X006777Y005896D02*
X010013Y005896D01*
X010057Y005852D02*
X010057Y002556D01*
X010297Y002556D02*
X010297Y005612D01*
X010253Y005656D02*
X006777Y005656D01*
X006777Y005416D02*
X010426Y005416D01*
X010537Y005261D02*
X010537Y002556D01*
X010777Y002556D02*
X010777Y005178D01*
X011017Y005261D02*
X011017Y002556D01*
X011257Y002556D02*
X011257Y009376D01*
X011017Y009376D02*
X011017Y005851D01*
X010945Y005896D02*
X014977Y005896D01*
X014977Y006136D02*
X010622Y006136D01*
X010537Y006220D02*
X010537Y009376D01*
X010354Y009256D02*
X016127Y009256D01*
X016057Y009367D02*
X016057Y008871D01*
X016006Y008776D02*
X010282Y008776D01*
X010297Y008791D02*
X010297Y006460D01*
X010382Y006376D02*
X014977Y006376D01*
X014977Y006616D02*
X010142Y006616D01*
X010057Y006700D02*
X010057Y008662D01*
X009932Y008536D02*
X015957Y008536D01*
X016229Y009016D02*
X010406Y009016D01*
X010297Y009321D02*
X010297Y009376D01*
X010777Y009376D02*
X010777Y005980D01*
X011145Y005656D02*
X014977Y005656D01*
X014977Y005416D02*
X011129Y005416D01*
X009906Y006856D02*
X014977Y006856D01*
X014977Y007096D02*
X009772Y007096D01*
X009817Y007051D02*
X009817Y008422D01*
X009692Y008296D02*
X013839Y008296D01*
X013897Y008355D02*
X013897Y009376D01*
X013657Y009376D02*
X013657Y002556D01*
X013417Y002556D02*
X013417Y009376D01*
X013177Y009376D02*
X013177Y002556D01*
X012937Y002556D02*
X012937Y009376D01*
X012697Y009376D02*
X012697Y002556D01*
X012457Y002556D02*
X012457Y009376D01*
X012217Y009376D02*
X012217Y002556D01*
X011977Y002556D02*
X011977Y009376D01*
X011737Y009376D02*
X011737Y002556D01*
X011497Y002556D02*
X011497Y009376D01*
X009577Y008182D02*
X009577Y007184D01*
X009337Y007137D02*
X009337Y007942D01*
X009452Y008056D02*
X013797Y008056D01*
X014079Y007576D02*
X014476Y007576D01*
X014833Y007576D01*
X014857Y007552D02*
X014857Y002556D01*
X014617Y002556D02*
X014617Y003802D01*
X014551Y003736D02*
X016419Y003736D01*
X016297Y003756D02*
X016297Y002556D01*
X016057Y002556D02*
X016057Y003756D01*
X015817Y003756D02*
X015817Y002556D01*
X015577Y002556D02*
X015577Y003832D01*
X015433Y003976D02*
X014697Y003976D01*
X014617Y004036D02*
X014617Y004076D01*
X014697Y004216D02*
X015193Y004216D01*
X015097Y004312D02*
X015097Y002556D01*
X015337Y002556D02*
X015337Y004072D01*
X014994Y004456D02*
X014471Y004456D01*
X014377Y004476D02*
X014377Y007576D01*
X014476Y007576D02*
X014655Y007755D01*
X014977Y007432D01*
X014617Y007717D02*
X014617Y004310D01*
X014297Y004216D02*
X014257Y004216D01*
X014137Y004076D02*
X014137Y004036D01*
X014257Y003976D02*
X014297Y003976D01*
X014377Y004036D02*
X014377Y004076D01*
X014297Y004456D02*
X014257Y004456D01*
X014137Y004476D02*
X014137Y007576D01*
X015097Y008160D02*
X015097Y010176D01*
X014735Y009976D02*
X016288Y009976D01*
X016297Y009981D02*
X016297Y010176D01*
X016370Y010005D02*
X016301Y009982D01*
X016236Y009949D01*
X016178Y009907D01*
X016126Y009856D01*
X016084Y009797D01*
X016051Y009733D01*
X016029Y009664D01*
X016018Y009596D01*
X016297Y009596D02*
X016297Y009516D01*
X016537Y009516D02*
X016537Y009596D01*
X016737Y009596D02*
X016737Y010016D01*
X016441Y010016D01*
X016370Y010005D01*
X016537Y010016D02*
X016537Y010176D01*
X016777Y010176D02*
X016777Y009596D01*
X016817Y009596D02*
X016737Y009596D01*
X016817Y009596D02*
X016817Y010016D01*
X017114Y010016D01*
X017185Y010005D01*
X017254Y009982D01*
X017318Y009949D01*
X017377Y009907D01*
X017428Y009856D01*
X017471Y009797D01*
X017504Y009733D01*
X017526Y009664D01*
X017537Y009596D01*
X016818Y009596D01*
X016818Y009516D01*
X017537Y009516D01*
X017497Y009516D02*
X017497Y009596D01*
X017502Y009736D02*
X021277Y009736D01*
X021277Y009976D02*
X017266Y009976D01*
X017257Y009981D02*
X017257Y010176D01*
X017017Y010176D02*
X017017Y010016D01*
X016817Y009976D02*
X016737Y009976D01*
X016737Y009736D02*
X016817Y009736D01*
X016777Y009516D02*
X016777Y009076D01*
X016537Y009076D02*
X016537Y009096D01*
X016297Y009131D02*
X016297Y009044D01*
X016737Y009256D02*
X016817Y009256D01*
X016817Y009496D02*
X016737Y009496D01*
X017017Y009516D02*
X017017Y009596D01*
X017257Y009596D02*
X017257Y009516D01*
X017497Y009745D02*
X017497Y010176D01*
X018697Y010176D02*
X018697Y009053D01*
X018589Y009016D02*
X017326Y009016D01*
X017257Y009044D02*
X017257Y009131D01*
X017017Y009096D02*
X017017Y009076D01*
X017597Y008536D02*
X018280Y008536D01*
X018347Y008296D02*
X017532Y008296D01*
X018457Y008173D02*
X018457Y007939D01*
X018697Y008053D02*
X018697Y008059D01*
X018937Y008028D02*
X018937Y008084D01*
X019208Y007816D02*
X019339Y007816D01*
X020114Y007336D02*
X021277Y007336D01*
X021277Y007096D02*
X020214Y007096D01*
X020137Y007085D02*
X020137Y007027D01*
X020166Y006856D02*
X021277Y006856D01*
X021277Y006616D02*
X019274Y006616D01*
X019657Y006635D02*
X019657Y006544D01*
X019897Y006544D02*
X019897Y006635D01*
X020137Y006808D02*
X020137Y006399D01*
X020160Y006376D02*
X021277Y006376D01*
X021277Y006136D02*
X020274Y006136D01*
X020249Y005896D02*
X021277Y005896D01*
X021277Y005656D02*
X020080Y005656D01*
X020137Y005713D02*
X020137Y005553D01*
X020146Y005553D02*
X020274Y005424D01*
X020274Y004688D01*
X020146Y004559D01*
X019409Y004559D01*
X019280Y004688D01*
X019280Y005424D01*
X019409Y005553D01*
X020146Y005553D01*
X020274Y005416D02*
X021277Y005416D01*
X021277Y005176D02*
X020274Y005176D01*
X020274Y004936D02*
X021277Y004936D01*
X021277Y004696D02*
X020274Y004696D01*
X020137Y004559D02*
X020137Y002556D01*
X019897Y002556D02*
X019897Y004559D01*
X019657Y004559D02*
X019657Y002556D01*
X019417Y002556D02*
X019417Y004559D01*
X019280Y004696D02*
X017096Y004696D01*
X017017Y004617D02*
X017017Y004495D01*
X017056Y004456D02*
X021277Y004456D01*
X021277Y004216D02*
X017257Y004216D01*
X017257Y003976D02*
X021277Y003976D01*
X021277Y003256D02*
X006811Y003256D01*
X006827Y003016D02*
X021277Y003016D01*
X021277Y002776D02*
X006789Y002776D01*
X007897Y002556D02*
X007897Y006709D01*
X007720Y006856D02*
X006777Y006856D01*
X006777Y007096D02*
X007669Y007096D01*
X008374Y006856D02*
X009149Y006856D01*
X009282Y007096D02*
X008492Y007096D01*
X008377Y006864D02*
X008377Y002556D01*
X008137Y002556D02*
X008137Y006684D01*
X006777Y005176D02*
X014977Y005176D01*
X014977Y004936D02*
X006777Y004936D01*
X006777Y004696D02*
X014977Y004696D01*
X015577Y004936D02*
X016297Y004936D01*
X016297Y004857D02*
X016297Y004356D01*
X016057Y004356D02*
X016057Y006241D01*
X015989Y006376D02*
X015577Y006376D01*
X015577Y006616D02*
X015957Y006616D01*
X016042Y006856D02*
X015577Y006856D01*
X015577Y007096D02*
X016229Y007096D01*
X016297Y007068D02*
X016297Y007044D01*
X016057Y006871D02*
X016057Y007241D01*
X016006Y007336D02*
X015577Y007336D01*
X015577Y007576D02*
X015957Y007576D01*
X016297Y008044D02*
X016297Y008068D01*
X016326Y008056D02*
X015202Y008056D01*
X014617Y008395D02*
X014617Y009859D01*
X018937Y010176D02*
X018937Y009028D01*
X018966Y009016D02*
X021277Y009016D01*
X019657Y008544D02*
X019657Y010175D01*
X020150Y010696D02*
X021277Y010696D01*
X021277Y010936D02*
X019900Y010936D01*
X019897Y010937D02*
X019897Y011056D01*
X019657Y011056D02*
X019657Y010937D01*
X020137Y011056D02*
X020137Y010727D01*
X020377Y011056D02*
X020377Y002556D01*
X020617Y002556D02*
X020617Y011056D01*
X020857Y011056D02*
X020857Y002556D01*
X021097Y002556D02*
X021097Y011056D01*
X019637Y008536D02*
X019274Y008536D01*
X020137Y007713D02*
X020137Y007304D01*
X019897Y007085D02*
X019897Y007027D01*
X019806Y007096D02*
X019749Y007096D01*
X019657Y007085D02*
X019657Y007027D01*
X019749Y006856D02*
X019806Y006856D01*
X019417Y007027D02*
X019417Y007085D01*
X019341Y007096D02*
X018966Y007096D01*
X018937Y007084D02*
X018937Y007028D01*
X018697Y007053D02*
X018697Y007059D01*
X016777Y006036D02*
X016777Y005536D01*
X016976Y005536D02*
X017257Y005255D01*
X017257Y004857D01*
X016976Y004576D01*
X016579Y004576D01*
X016297Y004857D01*
X016297Y005255D01*
X016297Y005176D02*
X015577Y005176D01*
X015577Y005416D02*
X016459Y005416D01*
X016537Y005495D02*
X016537Y006036D01*
X015577Y005656D02*
X018281Y005656D01*
X018297Y005416D02*
X017096Y005416D01*
X017257Y005176D02*
X018454Y005176D01*
X018457Y005173D02*
X018457Y002556D01*
X018697Y002556D02*
X018697Y005059D01*
X018937Y005084D02*
X018937Y002556D01*
X019177Y002556D02*
X019177Y005253D01*
X019100Y005176D02*
X019280Y005176D01*
X019280Y005416D02*
X019257Y005416D01*
X019417Y005553D02*
X019417Y005713D01*
X019474Y005656D02*
X019274Y005656D01*
X019657Y005568D02*
X019657Y005553D01*
X019897Y005553D02*
X019897Y005568D01*
X019280Y004936D02*
X017257Y004936D01*
X016777Y004576D02*
X016777Y004536D01*
X016537Y003617D02*
X016537Y002556D01*
X016777Y002556D02*
X016777Y003576D01*
X014377Y003636D02*
X014377Y002556D01*
X014297Y003736D02*
X014257Y003736D01*
X013897Y004036D02*
X013897Y004076D01*
X014083Y004456D02*
X006777Y004456D01*
D19*
X008127Y009756D02*
X013977Y009756D01*
X014777Y010556D01*
X019777Y010556D01*
D20*
X019777Y010556D03*
X008077Y009756D03*
D21*
X010027Y009056D03*
X008047Y007056D03*
X009527Y006806D03*
X010777Y005556D03*
D22*
X005777Y003056D03*
X005777Y010556D03*
M02*
