G75*
G70*
%OFA0B0*%
%FSLAX24Y24*%
%IPPOS*%
%LPD*%
%AMOC8*
5,1,8,0,0,1.08239X$1,22.5*
%
%ADD10C,0.0000*%
%ADD11R,0.0260X0.0800*%
%ADD12R,0.0709X0.0630*%
%ADD13OC8,0.0520*%
%ADD14C,0.0554*%
%ADD15R,0.0554X0.0554*%
%ADD16R,0.1378X0.0669*%
%ADD17C,0.0600*%
%ADD18C,0.0320*%
%ADD19C,0.0413*%
%ADD20C,0.0356*%
%ADD21C,0.0160*%
%ADD22C,0.0317*%
%ADD23C,0.1660*%
D10*
X004777Y002056D02*
X004777Y011505D01*
X024069Y011505D01*
X024069Y002056D01*
X004777Y002056D01*
X021777Y004556D02*
X021779Y004600D01*
X021785Y004644D01*
X021795Y004687D01*
X021808Y004729D01*
X021825Y004770D01*
X021846Y004809D01*
X021870Y004846D01*
X021897Y004881D01*
X021927Y004913D01*
X021960Y004943D01*
X021996Y004969D01*
X022033Y004993D01*
X022073Y005012D01*
X022114Y005029D01*
X022157Y005041D01*
X022200Y005050D01*
X022244Y005055D01*
X022288Y005056D01*
X022332Y005053D01*
X022376Y005046D01*
X022419Y005035D01*
X022461Y005021D01*
X022501Y005003D01*
X022540Y004981D01*
X022576Y004957D01*
X022610Y004929D01*
X022642Y004898D01*
X022671Y004864D01*
X022697Y004828D01*
X022719Y004790D01*
X022738Y004750D01*
X022753Y004708D01*
X022765Y004666D01*
X022773Y004622D01*
X022777Y004578D01*
X022777Y004534D01*
X022773Y004490D01*
X022765Y004446D01*
X022753Y004404D01*
X022738Y004362D01*
X022719Y004322D01*
X022697Y004284D01*
X022671Y004248D01*
X022642Y004214D01*
X022610Y004183D01*
X022576Y004155D01*
X022540Y004131D01*
X022501Y004109D01*
X022461Y004091D01*
X022419Y004077D01*
X022376Y004066D01*
X022332Y004059D01*
X022288Y004056D01*
X022244Y004057D01*
X022200Y004062D01*
X022157Y004071D01*
X022114Y004083D01*
X022073Y004100D01*
X022033Y004119D01*
X021996Y004143D01*
X021960Y004169D01*
X021927Y004199D01*
X021897Y004231D01*
X021870Y004266D01*
X021846Y004303D01*
X021825Y004342D01*
X021808Y004383D01*
X021795Y004425D01*
X021785Y004468D01*
X021779Y004512D01*
X021777Y004556D01*
X021777Y009056D02*
X021779Y009100D01*
X021785Y009144D01*
X021795Y009187D01*
X021808Y009229D01*
X021825Y009270D01*
X021846Y009309D01*
X021870Y009346D01*
X021897Y009381D01*
X021927Y009413D01*
X021960Y009443D01*
X021996Y009469D01*
X022033Y009493D01*
X022073Y009512D01*
X022114Y009529D01*
X022157Y009541D01*
X022200Y009550D01*
X022244Y009555D01*
X022288Y009556D01*
X022332Y009553D01*
X022376Y009546D01*
X022419Y009535D01*
X022461Y009521D01*
X022501Y009503D01*
X022540Y009481D01*
X022576Y009457D01*
X022610Y009429D01*
X022642Y009398D01*
X022671Y009364D01*
X022697Y009328D01*
X022719Y009290D01*
X022738Y009250D01*
X022753Y009208D01*
X022765Y009166D01*
X022773Y009122D01*
X022777Y009078D01*
X022777Y009034D01*
X022773Y008990D01*
X022765Y008946D01*
X022753Y008904D01*
X022738Y008862D01*
X022719Y008822D01*
X022697Y008784D01*
X022671Y008748D01*
X022642Y008714D01*
X022610Y008683D01*
X022576Y008655D01*
X022540Y008631D01*
X022501Y008609D01*
X022461Y008591D01*
X022419Y008577D01*
X022376Y008566D01*
X022332Y008559D01*
X022288Y008556D01*
X022244Y008557D01*
X022200Y008562D01*
X022157Y008571D01*
X022114Y008583D01*
X022073Y008600D01*
X022033Y008619D01*
X021996Y008643D01*
X021960Y008669D01*
X021927Y008699D01*
X021897Y008731D01*
X021870Y008766D01*
X021846Y008803D01*
X021825Y008842D01*
X021808Y008883D01*
X021795Y008925D01*
X021785Y008968D01*
X021779Y009012D01*
X021777Y009056D01*
X021647Y010556D02*
X021649Y010606D01*
X021655Y010656D01*
X021665Y010705D01*
X021679Y010753D01*
X021696Y010800D01*
X021717Y010845D01*
X021742Y010889D01*
X021770Y010930D01*
X021802Y010969D01*
X021836Y011006D01*
X021873Y011040D01*
X021913Y011070D01*
X021955Y011097D01*
X021999Y011121D01*
X022045Y011142D01*
X022092Y011158D01*
X022140Y011171D01*
X022190Y011180D01*
X022239Y011185D01*
X022290Y011186D01*
X022340Y011183D01*
X022389Y011176D01*
X022438Y011165D01*
X022486Y011150D01*
X022532Y011132D01*
X022577Y011110D01*
X022620Y011084D01*
X022661Y011055D01*
X022700Y011023D01*
X022736Y010988D01*
X022768Y010950D01*
X022798Y010910D01*
X022825Y010867D01*
X022848Y010823D01*
X022867Y010777D01*
X022883Y010729D01*
X022895Y010680D01*
X022903Y010631D01*
X022907Y010581D01*
X022907Y010531D01*
X022903Y010481D01*
X022895Y010432D01*
X022883Y010383D01*
X022867Y010335D01*
X022848Y010289D01*
X022825Y010245D01*
X022798Y010202D01*
X022768Y010162D01*
X022736Y010124D01*
X022700Y010089D01*
X022661Y010057D01*
X022620Y010028D01*
X022577Y010002D01*
X022532Y009980D01*
X022486Y009962D01*
X022438Y009947D01*
X022389Y009936D01*
X022340Y009929D01*
X022290Y009926D01*
X022239Y009927D01*
X022190Y009932D01*
X022140Y009941D01*
X022092Y009954D01*
X022045Y009970D01*
X021999Y009991D01*
X021955Y010015D01*
X021913Y010042D01*
X021873Y010072D01*
X021836Y010106D01*
X021802Y010143D01*
X021770Y010182D01*
X021742Y010223D01*
X021717Y010267D01*
X021696Y010312D01*
X021679Y010359D01*
X021665Y010407D01*
X021655Y010456D01*
X021649Y010506D01*
X021647Y010556D01*
D11*
X012527Y009766D03*
X012027Y009766D03*
X011527Y009766D03*
X011027Y009766D03*
X010527Y009766D03*
X010027Y009766D03*
X009527Y009766D03*
X009027Y009766D03*
X009027Y007346D03*
X009527Y007346D03*
X010027Y007346D03*
X010527Y007346D03*
X011027Y007346D03*
X011527Y007346D03*
X012027Y007346D03*
X012527Y007346D03*
D12*
X012277Y005107D03*
X010777Y005107D03*
X009277Y005107D03*
X007777Y005107D03*
X007777Y004005D03*
X009277Y004005D03*
X010777Y004005D03*
X012277Y004005D03*
X007377Y009505D03*
X007377Y010607D03*
D13*
X014277Y008056D03*
X016777Y005056D03*
X016777Y004056D03*
X014277Y004056D03*
D14*
X018777Y005556D03*
X019777Y006056D03*
X018777Y006556D03*
X019777Y007056D03*
X018777Y007556D03*
X019777Y008056D03*
X018777Y008556D03*
D15*
X019777Y005056D03*
D16*
X005567Y004646D03*
X005567Y005726D03*
X005567Y006806D03*
X005567Y007886D03*
X005567Y008966D03*
D17*
X016477Y008556D02*
X017077Y008556D01*
X017077Y007556D02*
X016477Y007556D01*
X016477Y006556D02*
X017077Y006556D01*
X017077Y009556D02*
X016477Y009556D01*
D18*
X019777Y010556D02*
X021277Y009056D01*
X021277Y006056D01*
X021277Y004556D01*
X020277Y003556D01*
X018777Y003556D01*
X017277Y005056D01*
X016777Y005056D01*
X016777Y006556D01*
X016777Y005056D02*
X015777Y005056D01*
X015277Y004556D01*
X015277Y003556D01*
X014777Y003056D01*
X011277Y003056D01*
X010777Y003556D01*
X010777Y004005D01*
X012384Y004056D02*
X014277Y004056D01*
X019777Y006056D02*
X021277Y006056D01*
X009527Y009766D02*
X009527Y010556D01*
X009327Y010756D01*
X008777Y010756D01*
X008227Y010756D01*
X008071Y010600D01*
X007377Y010607D01*
X007377Y009766D02*
X009027Y009766D01*
X007377Y009766D02*
X007377Y009505D01*
X006527Y008806D02*
X007277Y008056D01*
X006527Y008806D02*
X005557Y008806D01*
X005527Y008836D01*
X005567Y008966D01*
D19*
X007277Y008056D03*
X008777Y010756D03*
D20*
X008077Y009756D03*
X019777Y010556D03*
D21*
X017777Y008556D02*
X016777Y008556D01*
X016277Y008556D01*
X014027Y010806D01*
X011881Y010806D01*
X011527Y010453D01*
X011527Y009766D01*
X011027Y009766D02*
X011027Y009056D01*
X011277Y008806D01*
X015277Y008806D01*
X016527Y007556D01*
X016777Y007556D01*
X017777Y007556D01*
X018777Y006556D01*
X018777Y007556D02*
X017777Y008556D01*
X012277Y005556D02*
X012277Y005107D01*
X012277Y005556D02*
X011527Y006306D01*
X011527Y007346D01*
X011027Y007346D02*
X011027Y006556D01*
X009777Y005306D01*
X009777Y004306D01*
X009634Y004162D01*
X009277Y004005D01*
X008527Y004306D02*
X008527Y005306D01*
X010027Y006806D01*
X010027Y007346D01*
X009527Y007346D02*
X009527Y006806D01*
X009027Y006806D02*
X007777Y005556D01*
X007777Y005107D01*
X006717Y005726D02*
X005567Y005726D01*
X006717Y005726D02*
X008047Y007056D01*
X009027Y006806D02*
X009027Y007346D01*
X010527Y007346D02*
X010527Y006806D01*
X009277Y005556D01*
X009277Y005107D01*
X008527Y004306D02*
X008227Y004006D01*
X007777Y004005D01*
X010777Y005107D02*
X010777Y005556D01*
X008527Y008306D02*
X007027Y006806D01*
X005567Y006806D01*
X008527Y008306D02*
X010277Y008306D01*
X010527Y008556D01*
X010527Y009766D01*
X010027Y009766D02*
X010027Y009056D01*
D22*
X010027Y009056D03*
X008047Y007056D03*
X009527Y006806D03*
X010777Y005556D03*
D23*
X005777Y003056D03*
X005777Y010556D03*
M02*
