G75*
G70*
%OFA0B0*%
%FSLAX24Y24*%
%IPPOS*%
%LPD*%
%AMOC8*
5,1,8,0,0,1.08239X$1,22.5*
%
%ADD10C,0.0000*%
%ADD11OC8,0.0660*%
%ADD12OC8,0.0520*%
%ADD13OC8,0.0850*%
%ADD14R,0.0800X0.0800*%
%ADD15C,0.0800*%
%ADD16OC8,0.0630*%
%ADD17C,0.0630*%
%ADD18R,0.0740X0.0740*%
%ADD19C,0.0740*%
%ADD20C,0.0600*%
%ADD21C,0.0594*%
%ADD22C,0.0356*%
%ADD23C,0.0160*%
%ADD24C,0.0238*%
%ADD25C,0.0120*%
%ADD26C,0.0317*%
%ADD27C,0.0320*%
D10*
X002125Y000100D02*
X002125Y019785D01*
X021810Y019785D01*
X021810Y000100D01*
X002125Y000100D01*
X002495Y001100D02*
X002497Y001150D01*
X002503Y001200D01*
X002513Y001249D01*
X002527Y001297D01*
X002544Y001344D01*
X002565Y001389D01*
X002590Y001433D01*
X002618Y001474D01*
X002650Y001513D01*
X002684Y001550D01*
X002721Y001584D01*
X002761Y001614D01*
X002803Y001641D01*
X002847Y001665D01*
X002893Y001686D01*
X002940Y001702D01*
X002988Y001715D01*
X003038Y001724D01*
X003087Y001729D01*
X003138Y001730D01*
X003188Y001727D01*
X003237Y001720D01*
X003286Y001709D01*
X003334Y001694D01*
X003380Y001676D01*
X003425Y001654D01*
X003468Y001628D01*
X003509Y001599D01*
X003548Y001567D01*
X003584Y001532D01*
X003616Y001494D01*
X003646Y001454D01*
X003673Y001411D01*
X003696Y001367D01*
X003715Y001321D01*
X003731Y001273D01*
X003743Y001224D01*
X003751Y001175D01*
X003755Y001125D01*
X003755Y001075D01*
X003751Y001025D01*
X003743Y000976D01*
X003731Y000927D01*
X003715Y000879D01*
X003696Y000833D01*
X003673Y000789D01*
X003646Y000746D01*
X003616Y000706D01*
X003584Y000668D01*
X003548Y000633D01*
X003509Y000601D01*
X003468Y000572D01*
X003425Y000546D01*
X003380Y000524D01*
X003334Y000506D01*
X003286Y000491D01*
X003237Y000480D01*
X003188Y000473D01*
X003138Y000470D01*
X003087Y000471D01*
X003038Y000476D01*
X002988Y000485D01*
X002940Y000498D01*
X002893Y000514D01*
X002847Y000535D01*
X002803Y000559D01*
X002761Y000586D01*
X002721Y000616D01*
X002684Y000650D01*
X002650Y000687D01*
X002618Y000726D01*
X002590Y000767D01*
X002565Y000811D01*
X002544Y000856D01*
X002527Y000903D01*
X002513Y000951D01*
X002503Y001000D01*
X002497Y001050D01*
X002495Y001100D01*
X020136Y001100D02*
X020138Y001152D01*
X020144Y001204D01*
X020154Y001255D01*
X020167Y001305D01*
X020185Y001355D01*
X020206Y001402D01*
X020230Y001448D01*
X020259Y001492D01*
X020290Y001534D01*
X020324Y001573D01*
X020361Y001610D01*
X020401Y001643D01*
X020444Y001674D01*
X020488Y001701D01*
X020534Y001725D01*
X020583Y001745D01*
X020632Y001761D01*
X020683Y001774D01*
X020734Y001783D01*
X020786Y001788D01*
X020838Y001789D01*
X020890Y001786D01*
X020942Y001779D01*
X020993Y001768D01*
X021043Y001754D01*
X021092Y001735D01*
X021139Y001713D01*
X021184Y001688D01*
X021228Y001659D01*
X021269Y001627D01*
X021308Y001592D01*
X021343Y001554D01*
X021376Y001513D01*
X021406Y001471D01*
X021432Y001426D01*
X021455Y001379D01*
X021474Y001330D01*
X021490Y001280D01*
X021502Y001230D01*
X021510Y001178D01*
X021514Y001126D01*
X021514Y001074D01*
X021510Y001022D01*
X021502Y000970D01*
X021490Y000920D01*
X021474Y000870D01*
X021455Y000821D01*
X021432Y000774D01*
X021406Y000729D01*
X021376Y000687D01*
X021343Y000646D01*
X021308Y000608D01*
X021269Y000573D01*
X021228Y000541D01*
X021184Y000512D01*
X021139Y000487D01*
X021092Y000465D01*
X021043Y000446D01*
X020993Y000432D01*
X020942Y000421D01*
X020890Y000414D01*
X020838Y000411D01*
X020786Y000412D01*
X020734Y000417D01*
X020683Y000426D01*
X020632Y000439D01*
X020583Y000455D01*
X020534Y000475D01*
X020488Y000499D01*
X020444Y000526D01*
X020401Y000557D01*
X020361Y000590D01*
X020324Y000627D01*
X020290Y000666D01*
X020259Y000708D01*
X020230Y000752D01*
X020206Y000798D01*
X020185Y000845D01*
X020167Y000895D01*
X020154Y000945D01*
X020144Y000996D01*
X020138Y001048D01*
X020136Y001100D01*
X020136Y018800D02*
X020138Y018852D01*
X020144Y018904D01*
X020154Y018955D01*
X020167Y019005D01*
X020185Y019055D01*
X020206Y019102D01*
X020230Y019148D01*
X020259Y019192D01*
X020290Y019234D01*
X020324Y019273D01*
X020361Y019310D01*
X020401Y019343D01*
X020444Y019374D01*
X020488Y019401D01*
X020534Y019425D01*
X020583Y019445D01*
X020632Y019461D01*
X020683Y019474D01*
X020734Y019483D01*
X020786Y019488D01*
X020838Y019489D01*
X020890Y019486D01*
X020942Y019479D01*
X020993Y019468D01*
X021043Y019454D01*
X021092Y019435D01*
X021139Y019413D01*
X021184Y019388D01*
X021228Y019359D01*
X021269Y019327D01*
X021308Y019292D01*
X021343Y019254D01*
X021376Y019213D01*
X021406Y019171D01*
X021432Y019126D01*
X021455Y019079D01*
X021474Y019030D01*
X021490Y018980D01*
X021502Y018930D01*
X021510Y018878D01*
X021514Y018826D01*
X021514Y018774D01*
X021510Y018722D01*
X021502Y018670D01*
X021490Y018620D01*
X021474Y018570D01*
X021455Y018521D01*
X021432Y018474D01*
X021406Y018429D01*
X021376Y018387D01*
X021343Y018346D01*
X021308Y018308D01*
X021269Y018273D01*
X021228Y018241D01*
X021184Y018212D01*
X021139Y018187D01*
X021092Y018165D01*
X021043Y018146D01*
X020993Y018132D01*
X020942Y018121D01*
X020890Y018114D01*
X020838Y018111D01*
X020786Y018112D01*
X020734Y018117D01*
X020683Y018126D01*
X020632Y018139D01*
X020583Y018155D01*
X020534Y018175D01*
X020488Y018199D01*
X020444Y018226D01*
X020401Y018257D01*
X020361Y018290D01*
X020324Y018327D01*
X020290Y018366D01*
X020259Y018408D01*
X020230Y018452D01*
X020206Y018498D01*
X020185Y018545D01*
X020167Y018595D01*
X020154Y018645D01*
X020144Y018696D01*
X020138Y018748D01*
X020136Y018800D01*
X002495Y018800D02*
X002497Y018850D01*
X002503Y018900D01*
X002513Y018949D01*
X002527Y018997D01*
X002544Y019044D01*
X002565Y019089D01*
X002590Y019133D01*
X002618Y019174D01*
X002650Y019213D01*
X002684Y019250D01*
X002721Y019284D01*
X002761Y019314D01*
X002803Y019341D01*
X002847Y019365D01*
X002893Y019386D01*
X002940Y019402D01*
X002988Y019415D01*
X003038Y019424D01*
X003087Y019429D01*
X003138Y019430D01*
X003188Y019427D01*
X003237Y019420D01*
X003286Y019409D01*
X003334Y019394D01*
X003380Y019376D01*
X003425Y019354D01*
X003468Y019328D01*
X003509Y019299D01*
X003548Y019267D01*
X003584Y019232D01*
X003616Y019194D01*
X003646Y019154D01*
X003673Y019111D01*
X003696Y019067D01*
X003715Y019021D01*
X003731Y018973D01*
X003743Y018924D01*
X003751Y018875D01*
X003755Y018825D01*
X003755Y018775D01*
X003751Y018725D01*
X003743Y018676D01*
X003731Y018627D01*
X003715Y018579D01*
X003696Y018533D01*
X003673Y018489D01*
X003646Y018446D01*
X003616Y018406D01*
X003584Y018368D01*
X003548Y018333D01*
X003509Y018301D01*
X003468Y018272D01*
X003425Y018246D01*
X003380Y018224D01*
X003334Y018206D01*
X003286Y018191D01*
X003237Y018180D01*
X003188Y018173D01*
X003138Y018170D01*
X003087Y018171D01*
X003038Y018176D01*
X002988Y018185D01*
X002940Y018198D01*
X002893Y018214D01*
X002847Y018235D01*
X002803Y018259D01*
X002761Y018286D01*
X002721Y018316D01*
X002684Y018350D01*
X002650Y018387D01*
X002618Y018426D01*
X002590Y018467D01*
X002565Y018511D01*
X002544Y018556D01*
X002527Y018603D01*
X002513Y018651D01*
X002503Y018700D01*
X002497Y018750D01*
X002495Y018800D01*
D11*
X013625Y018600D03*
X015625Y018600D03*
X015625Y016600D03*
X013625Y016600D03*
D12*
X011625Y015600D03*
X010625Y015600D03*
X007125Y010100D03*
X007875Y009600D03*
X007125Y009100D03*
X006125Y007600D03*
X005125Y007600D03*
X017625Y017600D03*
X018375Y017100D03*
X018375Y018100D03*
D13*
X017625Y013100D03*
X017625Y012100D03*
X017625Y010100D03*
X017625Y009100D03*
X009625Y009100D03*
X009625Y010100D03*
X009625Y011100D03*
X009625Y012100D03*
D14*
X003625Y014600D03*
X009125Y018100D03*
X003625Y003600D03*
D15*
X003625Y005569D03*
X003625Y016569D03*
X011094Y018100D03*
D16*
X007625Y005600D03*
X009125Y004100D03*
D17*
X010125Y004100D03*
X006625Y005600D03*
D18*
X020125Y002600D03*
X021125Y008100D03*
D19*
X021125Y009100D03*
X021125Y010100D03*
X021125Y011100D03*
X021125Y013100D03*
X021125Y014100D03*
X021125Y015100D03*
X021125Y016100D03*
X021125Y017100D03*
X019625Y017100D03*
X019625Y018100D03*
X016625Y017600D03*
X018625Y014100D03*
X012125Y007600D03*
X011125Y007600D03*
X010125Y007100D03*
X010125Y006100D03*
X009125Y006100D03*
X009125Y007100D03*
X011625Y006600D03*
X011625Y005600D03*
X011625Y004600D03*
X011625Y003600D03*
X011625Y002600D03*
X011625Y001600D03*
X014625Y001600D03*
X014625Y002600D03*
X014625Y003600D03*
X014625Y004600D03*
X014625Y005600D03*
X014625Y006600D03*
X015625Y005100D03*
X015625Y004100D03*
X015625Y003100D03*
X015625Y002100D03*
X018125Y001600D03*
X018125Y002600D03*
X018125Y003600D03*
X018125Y004600D03*
X018125Y005600D03*
X020125Y005600D03*
X020125Y004600D03*
X020125Y003600D03*
X009625Y014100D03*
D20*
X006425Y013600D02*
X005825Y013600D01*
X005825Y012600D02*
X006425Y012600D01*
X006425Y014600D02*
X005825Y014600D01*
D21*
X005684Y010781D03*
X005684Y009600D03*
X005684Y008419D03*
D22*
X005125Y005600D03*
X007625Y003100D03*
X007125Y001100D03*
X005125Y001100D03*
X004625Y001600D03*
X005125Y002100D03*
X012625Y008600D03*
X014475Y009600D03*
X016625Y009100D03*
X019125Y009100D03*
X019125Y008600D03*
X019625Y010100D03*
X014475Y012300D03*
X017125Y016100D03*
X007625Y014600D03*
X007375Y017600D03*
X007125Y018600D03*
X004375Y018600D03*
X003875Y017600D03*
D23*
X003536Y017852D02*
X002625Y017852D01*
X002625Y017694D02*
X003461Y017694D01*
X003457Y017683D02*
X003457Y017517D01*
X003521Y017363D01*
X003638Y017246D01*
X003728Y017209D01*
X003498Y017209D01*
X003262Y017111D01*
X003082Y016931D01*
X002985Y016696D01*
X002985Y016441D01*
X003082Y016206D01*
X003262Y016026D01*
X003498Y015929D01*
X003752Y015929D01*
X003817Y015955D01*
X004305Y015467D01*
X004305Y014536D01*
X004354Y014419D01*
X005289Y013484D01*
X005367Y013294D01*
X005519Y013142D01*
X005704Y013065D01*
X005641Y013045D01*
X005573Y013011D01*
X005512Y012966D01*
X005459Y012913D01*
X005414Y012852D01*
X005380Y012784D01*
X005357Y012712D01*
X005345Y012638D01*
X005345Y012620D01*
X006105Y012620D01*
X006105Y012580D01*
X006145Y012580D01*
X006145Y012620D01*
X006905Y012620D01*
X006905Y012638D01*
X006893Y012712D01*
X006870Y012784D01*
X006836Y012852D01*
X006791Y012913D01*
X006738Y012966D01*
X006677Y013011D01*
X006609Y013045D01*
X006546Y013065D01*
X006731Y013142D01*
X006883Y013294D01*
X006965Y013493D01*
X006965Y013707D01*
X006883Y013906D01*
X006731Y014058D01*
X006629Y014100D01*
X006731Y014142D01*
X006883Y014294D01*
X006965Y014493D01*
X006965Y014707D01*
X006883Y014906D01*
X006731Y015058D01*
X006532Y015140D01*
X005718Y015140D01*
X005519Y015058D01*
X005367Y014906D01*
X005285Y014707D01*
X005285Y014493D01*
X005356Y014322D01*
X004945Y014733D01*
X004945Y015664D01*
X004896Y015781D01*
X004806Y015871D01*
X004257Y016421D01*
X004265Y016441D01*
X004265Y016696D01*
X004168Y016931D01*
X003988Y017111D01*
X003817Y017182D01*
X003958Y017182D01*
X004002Y017200D01*
X006205Y017200D01*
X006352Y017261D01*
X006464Y017373D01*
X007318Y018227D01*
X007362Y018246D01*
X007479Y018363D01*
X007543Y018517D01*
X007543Y018683D01*
X007479Y018837D01*
X007362Y018954D01*
X007208Y019018D01*
X007042Y019018D01*
X006888Y018954D01*
X006771Y018837D01*
X006752Y018793D01*
X005959Y018000D01*
X004002Y018000D01*
X003958Y018018D01*
X003792Y018018D01*
X003638Y017954D01*
X003521Y017837D01*
X003457Y017683D01*
X003457Y017535D02*
X002625Y017535D01*
X002625Y017377D02*
X003515Y017377D01*
X003705Y017218D02*
X002625Y017218D01*
X002625Y017060D02*
X003211Y017060D01*
X003070Y016901D02*
X002625Y016901D01*
X002625Y016743D02*
X003004Y016743D01*
X002985Y016584D02*
X002625Y016584D01*
X002625Y016426D02*
X002991Y016426D01*
X003057Y016267D02*
X002625Y016267D01*
X002625Y016109D02*
X003180Y016109D01*
X003446Y015950D02*
X002625Y015950D01*
X002625Y015792D02*
X003981Y015792D01*
X003822Y015950D02*
X003804Y015950D01*
X004139Y015633D02*
X002625Y015633D01*
X002625Y015475D02*
X004298Y015475D01*
X004305Y015316D02*
X002625Y015316D01*
X002625Y015158D02*
X003043Y015158D01*
X003022Y015136D02*
X002985Y015048D01*
X002985Y014152D01*
X003022Y014064D01*
X003089Y013997D01*
X003177Y013960D01*
X003225Y013960D01*
X003225Y011090D01*
X003286Y010943D01*
X004856Y009373D01*
X004968Y009261D01*
X005115Y009200D01*
X005325Y009200D01*
X005380Y009145D01*
X005577Y009063D01*
X005791Y009063D01*
X005988Y009145D01*
X006139Y009296D01*
X006221Y009493D01*
X006221Y009707D01*
X006139Y009904D01*
X005988Y010055D01*
X005791Y010137D01*
X005577Y010137D01*
X005380Y010055D01*
X005343Y010018D01*
X004025Y011336D01*
X004025Y013960D01*
X004073Y013960D01*
X004161Y013997D01*
X004228Y014064D01*
X004265Y014152D01*
X004265Y015048D01*
X004228Y015136D01*
X004161Y015203D01*
X004073Y015240D01*
X003177Y015240D01*
X003089Y015203D01*
X003022Y015136D01*
X002985Y014999D02*
X002625Y014999D01*
X002625Y014841D02*
X002985Y014841D01*
X002985Y014682D02*
X002625Y014682D01*
X002625Y014524D02*
X002985Y014524D01*
X002985Y014365D02*
X002625Y014365D01*
X002625Y014207D02*
X002985Y014207D01*
X003038Y014048D02*
X002625Y014048D01*
X002625Y013890D02*
X003225Y013890D01*
X003225Y013731D02*
X002625Y013731D01*
X002625Y013573D02*
X003225Y013573D01*
X003225Y013414D02*
X002625Y013414D01*
X002625Y013256D02*
X003225Y013256D01*
X003225Y013097D02*
X002625Y013097D01*
X002625Y012939D02*
X003225Y012939D01*
X003225Y012780D02*
X002625Y012780D01*
X002625Y012622D02*
X003225Y012622D01*
X003225Y012463D02*
X002625Y012463D01*
X002625Y012305D02*
X003225Y012305D01*
X003225Y012146D02*
X002625Y012146D01*
X002625Y011988D02*
X003225Y011988D01*
X003225Y011829D02*
X002625Y011829D01*
X002625Y011671D02*
X003225Y011671D01*
X003225Y011512D02*
X002625Y011512D01*
X002625Y011354D02*
X003225Y011354D01*
X003225Y011195D02*
X002625Y011195D01*
X002625Y011037D02*
X003247Y011037D01*
X003351Y010878D02*
X002625Y010878D01*
X002625Y010720D02*
X003510Y010720D01*
X003668Y010561D02*
X002625Y010561D01*
X002625Y010403D02*
X003827Y010403D01*
X003985Y010244D02*
X002625Y010244D01*
X002625Y010086D02*
X004144Y010086D01*
X004302Y009927D02*
X002625Y009927D01*
X002625Y009769D02*
X004461Y009769D01*
X004619Y009610D02*
X002625Y009610D01*
X002625Y009452D02*
X004778Y009452D01*
X004936Y009293D02*
X002625Y009293D01*
X002625Y009135D02*
X005405Y009135D01*
X005577Y008956D02*
X005380Y008874D01*
X005229Y008723D01*
X005147Y008526D01*
X005147Y008312D01*
X005229Y008115D01*
X005244Y008100D01*
X004918Y008100D01*
X004625Y007807D01*
X004625Y007393D01*
X004918Y007100D01*
X005332Y007100D01*
X005625Y007393D01*
X005918Y007100D01*
X006332Y007100D01*
X006625Y007393D01*
X006625Y007807D01*
X006332Y008100D01*
X006124Y008100D01*
X006139Y008115D01*
X006221Y008312D01*
X006221Y008526D01*
X006139Y008723D01*
X005988Y008874D01*
X005791Y008956D01*
X005577Y008956D01*
X005323Y008818D02*
X002625Y008818D01*
X002625Y008976D02*
X006625Y008976D01*
X006625Y008893D02*
X006918Y008600D01*
X007332Y008600D01*
X007625Y008893D01*
X007625Y009143D01*
X007668Y009100D01*
X008082Y009100D01*
X008375Y009393D01*
X008375Y009807D01*
X008082Y010100D01*
X007668Y010100D01*
X007565Y009997D01*
X007565Y010100D01*
X007565Y010282D01*
X007307Y010540D01*
X007125Y010540D01*
X007125Y010100D01*
X007125Y010100D01*
X007565Y010100D01*
X007125Y010100D01*
X007125Y010100D01*
X007125Y010100D01*
X006685Y010100D01*
X006685Y010282D01*
X006943Y010540D01*
X007125Y010540D01*
X007125Y010100D01*
X007125Y009660D01*
X007307Y009660D01*
X007375Y009728D01*
X007375Y009557D01*
X007332Y009600D01*
X006918Y009600D01*
X006625Y009307D01*
X006625Y008893D01*
X006700Y008818D02*
X006045Y008818D01*
X006166Y008659D02*
X006859Y008659D01*
X006625Y009135D02*
X005963Y009135D01*
X006136Y009293D02*
X006625Y009293D01*
X006769Y009452D02*
X006204Y009452D01*
X006221Y009610D02*
X007375Y009610D01*
X007125Y009660D02*
X007125Y010100D01*
X007125Y010100D01*
X006685Y010100D01*
X006685Y009918D01*
X006943Y009660D01*
X007125Y009660D01*
X007125Y009769D02*
X007125Y009769D01*
X007125Y009927D02*
X007125Y009927D01*
X007125Y010086D02*
X007125Y010086D01*
X007125Y010244D02*
X007125Y010244D01*
X007125Y010403D02*
X007125Y010403D01*
X007445Y010403D02*
X008987Y010403D01*
X008960Y010375D02*
X008960Y009825D01*
X009185Y009600D01*
X008960Y009375D01*
X008960Y008825D01*
X009350Y008435D01*
X009900Y008435D01*
X010290Y008825D01*
X010290Y009375D01*
X010065Y009600D01*
X010290Y009825D01*
X010290Y010375D01*
X010065Y010600D01*
X010290Y010825D01*
X010290Y011375D01*
X010065Y011600D01*
X010290Y011825D01*
X010290Y012375D01*
X009900Y012765D01*
X009350Y012765D01*
X008960Y012375D01*
X008960Y011825D01*
X009185Y011600D01*
X008960Y011375D01*
X008960Y010825D01*
X009185Y010600D01*
X008960Y010375D01*
X008960Y010244D02*
X007565Y010244D01*
X007565Y010086D02*
X007653Y010086D01*
X008097Y010086D02*
X008960Y010086D01*
X008960Y009927D02*
X008255Y009927D01*
X008375Y009769D02*
X009016Y009769D01*
X009175Y009610D02*
X008375Y009610D01*
X008375Y009452D02*
X009036Y009452D01*
X008960Y009293D02*
X008275Y009293D01*
X008117Y009135D02*
X008960Y009135D01*
X008960Y008976D02*
X007625Y008976D01*
X007625Y009135D02*
X007633Y009135D01*
X007550Y008818D02*
X008967Y008818D01*
X009126Y008659D02*
X007391Y008659D01*
X006566Y007867D02*
X010575Y007867D01*
X010608Y007946D02*
X010515Y007721D01*
X010515Y007573D01*
X010471Y007617D01*
X010246Y007710D01*
X010004Y007710D01*
X009779Y007617D01*
X009608Y007446D01*
X009588Y007398D01*
X009545Y007458D01*
X009483Y007520D01*
X009413Y007570D01*
X009336Y007610D01*
X009254Y007636D01*
X009168Y007650D01*
X009145Y007650D01*
X009145Y007120D01*
X009105Y007120D01*
X009105Y007650D01*
X009082Y007650D01*
X008996Y007636D01*
X008914Y007610D01*
X008837Y007570D01*
X008767Y007520D01*
X008705Y007458D01*
X008655Y007388D01*
X008615Y007311D01*
X008589Y007229D01*
X008575Y007143D01*
X008575Y007120D01*
X009105Y007120D01*
X009105Y007080D01*
X008575Y007080D01*
X008575Y007057D01*
X008589Y006971D01*
X008615Y006889D01*
X008655Y006812D01*
X008705Y006742D01*
X008767Y006680D01*
X008837Y006630D01*
X008895Y006600D01*
X008837Y006570D01*
X008767Y006520D01*
X008705Y006458D01*
X008655Y006388D01*
X008615Y006311D01*
X008589Y006229D01*
X008575Y006143D01*
X008575Y006120D01*
X009105Y006120D01*
X009105Y006650D01*
X009105Y007080D01*
X009145Y007080D01*
X009145Y006120D01*
X009105Y006120D01*
X009105Y006080D01*
X008575Y006080D01*
X008575Y006057D01*
X008589Y005971D01*
X008615Y005889D01*
X008655Y005812D01*
X008705Y005742D01*
X008767Y005680D01*
X008837Y005630D01*
X008914Y005590D01*
X008996Y005564D01*
X009082Y005550D01*
X009105Y005550D01*
X009105Y006080D01*
X009145Y006080D01*
X009145Y005550D01*
X009168Y005550D01*
X009254Y005564D01*
X009336Y005590D01*
X009413Y005630D01*
X009483Y005680D01*
X009545Y005742D01*
X009588Y005802D01*
X009608Y005754D01*
X009779Y005583D01*
X010004Y005490D01*
X010246Y005490D01*
X010471Y005583D01*
X010642Y005754D01*
X010735Y005979D01*
X010735Y006221D01*
X010642Y006446D01*
X010488Y006600D01*
X010642Y006754D01*
X010735Y006979D01*
X010735Y007127D01*
X010779Y007083D01*
X011004Y006990D01*
X011152Y006990D01*
X011108Y006946D01*
X011015Y006721D01*
X011015Y006479D01*
X011108Y006254D01*
X011262Y006100D01*
X011108Y005946D01*
X011015Y005721D01*
X011015Y005479D01*
X011108Y005254D01*
X011262Y005100D01*
X011108Y004946D01*
X011015Y004721D01*
X011015Y004479D01*
X011108Y004254D01*
X011262Y004100D01*
X011108Y003946D01*
X011015Y003721D01*
X011015Y003479D01*
X011108Y003254D01*
X011262Y003100D01*
X011108Y002946D01*
X011015Y002721D01*
X011015Y002479D01*
X011108Y002254D01*
X011262Y002100D01*
X011108Y001946D01*
X011015Y001721D01*
X011015Y001479D01*
X011108Y001254D01*
X011279Y001083D01*
X011504Y000990D01*
X011746Y000990D01*
X011971Y001083D01*
X012142Y001254D01*
X012235Y001479D01*
X012235Y001721D01*
X012142Y001946D01*
X011988Y002100D01*
X012142Y002254D01*
X012235Y002479D01*
X012235Y002721D01*
X012142Y002946D01*
X011988Y003100D01*
X012142Y003254D01*
X012235Y003479D01*
X012235Y003721D01*
X012142Y003946D01*
X011988Y004100D01*
X012142Y004254D01*
X012235Y004479D01*
X012235Y004721D01*
X012142Y004946D01*
X011988Y005100D01*
X012142Y005254D01*
X012235Y005479D01*
X012235Y005721D01*
X012142Y005946D01*
X011988Y006100D01*
X012142Y006254D01*
X012235Y006479D01*
X012235Y006721D01*
X012142Y006946D01*
X012098Y006990D01*
X012246Y006990D01*
X012471Y007083D01*
X012642Y007254D01*
X012735Y007479D01*
X012735Y007721D01*
X012642Y007946D01*
X012471Y008117D01*
X012246Y008210D01*
X012004Y008210D01*
X011779Y008117D01*
X011625Y007963D01*
X011471Y008117D01*
X011246Y008210D01*
X011004Y008210D01*
X010779Y008117D01*
X010608Y007946D01*
X010687Y008025D02*
X006407Y008025D01*
X006168Y008184D02*
X010940Y008184D01*
X011310Y008184D02*
X011940Y008184D01*
X011687Y008025D02*
X011563Y008025D01*
X012310Y008184D02*
X014617Y008184D01*
X014501Y008300D02*
X016371Y006430D01*
X016455Y006346D01*
X016565Y006300D01*
X016862Y006300D01*
X016899Y006262D01*
X017046Y006202D01*
X017204Y006202D01*
X017351Y006262D01*
X017463Y006374D01*
X017523Y006521D01*
X017523Y006679D01*
X017463Y006826D01*
X017351Y006938D01*
X017204Y006998D01*
X017064Y006998D01*
X017073Y007021D01*
X017073Y007179D01*
X017013Y007326D01*
X016901Y007438D01*
X016754Y007498D01*
X016701Y007498D01*
X014945Y009254D01*
X014835Y009300D01*
X014766Y009300D01*
X014829Y009363D01*
X014893Y009517D01*
X014893Y009683D01*
X014829Y009837D01*
X014795Y009871D01*
X014795Y012029D01*
X014829Y012063D01*
X014893Y012217D01*
X014893Y012383D01*
X014829Y012537D01*
X014712Y012654D01*
X014558Y012718D01*
X014392Y012718D01*
X014281Y012672D01*
X014284Y012679D01*
X014284Y012821D01*
X014229Y012953D01*
X014128Y013054D01*
X013996Y013109D01*
X013854Y013109D01*
X013722Y013054D01*
X013621Y012953D01*
X013566Y012821D01*
X013566Y012679D01*
X013621Y012547D01*
X013625Y012542D01*
X013625Y010633D01*
X013588Y010543D01*
X013588Y010401D01*
X013643Y010269D01*
X013682Y010229D01*
X013622Y010204D01*
X013521Y010103D01*
X013466Y009971D01*
X013466Y009965D01*
X013371Y009870D01*
X013325Y009760D01*
X013325Y009040D01*
X013371Y008930D01*
X013871Y008430D01*
X013955Y008346D01*
X014065Y008300D01*
X014501Y008300D01*
X014776Y008025D02*
X012563Y008025D01*
X012675Y007867D02*
X014934Y007867D01*
X015093Y007708D02*
X012735Y007708D01*
X012735Y007550D02*
X015251Y007550D01*
X015410Y007391D02*
X012699Y007391D01*
X012620Y007233D02*
X015568Y007233D01*
X015727Y007074D02*
X015014Y007074D01*
X014971Y007117D02*
X014746Y007210D01*
X014504Y007210D01*
X014279Y007117D01*
X014108Y006946D01*
X014015Y006721D01*
X014015Y006479D01*
X014108Y006254D01*
X014262Y006100D01*
X014108Y005946D01*
X014015Y005721D01*
X014015Y005479D01*
X014108Y005254D01*
X014262Y005100D01*
X014108Y004946D01*
X014015Y004721D01*
X014015Y004479D01*
X014108Y004254D01*
X014262Y004100D01*
X014108Y003946D01*
X014015Y003721D01*
X014015Y003479D01*
X014108Y003254D01*
X014262Y003100D01*
X014108Y002946D01*
X014015Y002721D01*
X014015Y002479D01*
X014108Y002254D01*
X014262Y002100D01*
X014108Y001946D01*
X014015Y001721D01*
X014015Y001479D01*
X014108Y001254D01*
X014279Y001083D01*
X014504Y000990D01*
X014746Y000990D01*
X014971Y001083D01*
X015142Y001254D01*
X015235Y001479D01*
X015235Y001627D01*
X015279Y001583D01*
X015504Y001490D01*
X015746Y001490D01*
X015971Y001583D01*
X016142Y001754D01*
X016235Y001979D01*
X016235Y002221D01*
X016142Y002446D01*
X015988Y002600D01*
X016142Y002754D01*
X016235Y002979D01*
X016235Y003221D01*
X016142Y003446D01*
X015988Y003600D01*
X016142Y003754D01*
X016235Y003979D01*
X016235Y004221D01*
X017641Y004221D01*
X017608Y004254D02*
X017762Y004100D01*
X017608Y003946D01*
X017515Y003721D01*
X017515Y003479D01*
X017608Y003254D01*
X017762Y003100D01*
X017608Y002946D01*
X017515Y002721D01*
X017515Y002479D01*
X017608Y002254D01*
X017762Y002100D01*
X017608Y001946D01*
X017515Y001721D01*
X017515Y001479D01*
X017608Y001254D01*
X017779Y001083D01*
X018004Y000990D01*
X018246Y000990D01*
X018471Y001083D01*
X018642Y001254D01*
X018735Y001479D01*
X018735Y001721D01*
X018642Y001946D01*
X018488Y002100D01*
X018642Y002254D01*
X018735Y002479D01*
X018735Y002721D01*
X018642Y002946D01*
X018488Y003100D01*
X018642Y003254D01*
X018735Y003479D01*
X018735Y003721D01*
X018642Y003946D01*
X018488Y004100D01*
X018642Y004254D01*
X018735Y004479D01*
X018735Y004721D01*
X018642Y004946D01*
X018488Y005100D01*
X018642Y005254D01*
X018735Y005479D01*
X018735Y005721D01*
X018642Y005946D01*
X018471Y006117D01*
X018246Y006210D01*
X018004Y006210D01*
X017779Y006117D01*
X017608Y005946D01*
X017515Y005721D01*
X017515Y005479D01*
X017608Y005254D01*
X017762Y005100D01*
X017608Y004946D01*
X017515Y004721D01*
X017515Y004479D01*
X017608Y004254D01*
X017556Y004380D02*
X016169Y004380D01*
X016142Y004446D02*
X015988Y004600D01*
X016142Y004754D01*
X016235Y004979D01*
X016235Y005221D01*
X016142Y005446D01*
X015971Y005617D01*
X015746Y005710D01*
X015504Y005710D01*
X015279Y005617D01*
X015235Y005573D01*
X015235Y005721D01*
X015142Y005946D01*
X014988Y006100D01*
X015142Y006254D01*
X015235Y006479D01*
X015235Y006721D01*
X015142Y006946D01*
X014971Y007117D01*
X015155Y006916D02*
X015885Y006916D01*
X016044Y006757D02*
X015220Y006757D01*
X015235Y006599D02*
X016202Y006599D01*
X016361Y006440D02*
X015219Y006440D01*
X015153Y006282D02*
X016880Y006282D01*
X017370Y006282D02*
X021125Y006282D01*
X021125Y006440D02*
X017490Y006440D01*
X017523Y006599D02*
X021125Y006599D01*
X021125Y006757D02*
X017491Y006757D01*
X017373Y006916D02*
X021125Y006916D01*
X021125Y007074D02*
X017073Y007074D01*
X017051Y007233D02*
X021125Y007233D01*
X021125Y007391D02*
X016947Y007391D01*
X016650Y007550D02*
X021125Y007550D01*
X021105Y007550D02*
X021105Y008080D01*
X021125Y008080D01*
X021125Y001916D01*
X020998Y001969D01*
X020652Y001969D01*
X020333Y001837D01*
X020088Y001592D01*
X019956Y001273D01*
X019956Y000927D01*
X020088Y000608D01*
X020096Y000600D01*
X003770Y000600D01*
X003812Y000641D01*
X003935Y000939D01*
X003935Y001261D01*
X003812Y001559D01*
X003584Y001787D01*
X003286Y001910D01*
X002964Y001910D01*
X002666Y001787D01*
X002625Y001745D01*
X002625Y018155D01*
X002666Y018113D01*
X002964Y017990D01*
X003286Y017990D01*
X003584Y018113D01*
X003812Y018341D01*
X003935Y018639D01*
X003935Y018961D01*
X003877Y019100D01*
X013404Y019100D01*
X013115Y018811D01*
X013115Y018630D01*
X013595Y018630D01*
X013595Y018570D01*
X013655Y018570D01*
X013655Y018630D01*
X014135Y018630D01*
X014135Y018811D01*
X013846Y019100D01*
X015319Y019100D01*
X015055Y018836D01*
X015055Y018364D01*
X015389Y018030D01*
X015861Y018030D01*
X016195Y018364D01*
X016195Y018836D01*
X015931Y019100D01*
X020009Y019100D01*
X019956Y018973D01*
X019956Y018627D01*
X019958Y018622D01*
X019746Y018710D01*
X019504Y018710D01*
X019279Y018617D01*
X019108Y018446D01*
X019015Y018221D01*
X019015Y017979D01*
X019108Y017754D01*
X019262Y017600D01*
X019108Y017446D01*
X019015Y017221D01*
X019015Y016979D01*
X019108Y016754D01*
X019279Y016583D01*
X019504Y016490D01*
X019746Y016490D01*
X019971Y016583D01*
X020142Y016754D01*
X020235Y016979D01*
X020235Y017221D01*
X020142Y017446D01*
X019988Y017600D01*
X020142Y017754D01*
X020235Y017979D01*
X020235Y018161D01*
X020333Y018063D01*
X020652Y017931D01*
X020998Y017931D01*
X021125Y017984D01*
X021125Y017120D01*
X021105Y017120D01*
X021105Y017650D01*
X021082Y017650D01*
X020996Y017636D01*
X020914Y017610D01*
X020837Y017570D01*
X020767Y017520D01*
X020705Y017458D01*
X020655Y017388D01*
X020615Y017311D01*
X020589Y017229D01*
X020575Y017143D01*
X020575Y017120D01*
X021105Y017120D01*
X021105Y017080D01*
X020575Y017080D01*
X020575Y017057D01*
X020589Y016971D01*
X020615Y016889D01*
X020655Y016812D01*
X020705Y016742D01*
X020705Y016743D02*
X020130Y016743D01*
X020203Y016901D02*
X020611Y016901D01*
X020575Y017060D02*
X020235Y017060D01*
X020235Y017218D02*
X020587Y017218D01*
X020649Y017377D02*
X020171Y017377D01*
X020053Y017535D02*
X020788Y017535D01*
X021105Y017535D02*
X021125Y017535D01*
X021125Y017377D02*
X021105Y017377D01*
X021105Y017218D02*
X021125Y017218D01*
X021125Y017694D02*
X020081Y017694D01*
X020183Y017852D02*
X021125Y017852D01*
X020460Y018011D02*
X020235Y018011D01*
X019956Y018645D02*
X019904Y018645D01*
X019956Y018803D02*
X016195Y018803D01*
X016195Y018645D02*
X019346Y018645D01*
X019148Y018486D02*
X018696Y018486D01*
X018582Y018600D02*
X018168Y018600D01*
X017875Y018307D01*
X017875Y018057D01*
X017832Y018100D01*
X017418Y018100D01*
X017178Y017860D01*
X017142Y017946D01*
X016971Y018117D01*
X016746Y018210D01*
X016504Y018210D01*
X016279Y018117D01*
X016108Y017946D01*
X016015Y017721D01*
X016015Y017479D01*
X016108Y017254D01*
X016279Y017083D01*
X016504Y016990D01*
X016746Y016990D01*
X016971Y017083D01*
X017142Y017254D01*
X017178Y017340D01*
X017418Y017100D01*
X017832Y017100D01*
X017875Y017143D01*
X017875Y016893D01*
X018168Y016600D01*
X018582Y016600D01*
X018875Y016893D01*
X018875Y017307D01*
X018582Y017600D01*
X018875Y017893D01*
X018875Y018307D01*
X018582Y018600D01*
X018855Y018328D02*
X019059Y018328D01*
X019015Y018169D02*
X018875Y018169D01*
X018875Y018011D02*
X019015Y018011D01*
X019067Y017852D02*
X018834Y017852D01*
X018676Y017694D02*
X019169Y017694D01*
X019197Y017535D02*
X018647Y017535D01*
X018582Y017600D02*
X018168Y017600D01*
X018582Y017600D01*
X018806Y017377D02*
X019079Y017377D01*
X019015Y017218D02*
X018875Y017218D01*
X018875Y017060D02*
X019015Y017060D01*
X019047Y016901D02*
X018875Y016901D01*
X018725Y016743D02*
X019120Y016743D01*
X019278Y016584D02*
X016195Y016584D01*
X016195Y016426D02*
X016859Y016426D01*
X016888Y016454D02*
X016771Y016337D01*
X016707Y016183D01*
X016707Y016017D01*
X016771Y015863D01*
X016825Y015809D01*
X016825Y015224D01*
X016001Y014400D01*
X012565Y014400D01*
X012455Y014354D01*
X012371Y014270D01*
X011571Y013470D01*
X011525Y013360D01*
X011525Y010658D01*
X011521Y010653D01*
X011484Y010565D01*
X011484Y010671D01*
X011429Y010803D01*
X011425Y010808D01*
X011425Y013476D01*
X012749Y014800D01*
X015417Y014800D01*
X015422Y014796D01*
X015554Y014741D01*
X015696Y014741D01*
X015828Y014796D01*
X015929Y014897D01*
X015984Y015029D01*
X015984Y015171D01*
X015929Y015303D01*
X015828Y015404D01*
X015696Y015459D01*
X015554Y015459D01*
X015422Y015404D01*
X015417Y015400D01*
X012565Y015400D01*
X012455Y015354D01*
X012371Y015270D01*
X010871Y013770D01*
X010825Y013660D01*
X010825Y010808D01*
X010821Y010803D01*
X010766Y010671D01*
X010766Y010529D01*
X010821Y010397D01*
X010922Y010296D01*
X011054Y010241D01*
X011196Y010241D01*
X011328Y010296D01*
X011429Y010397D01*
X011466Y010485D01*
X011466Y010379D01*
X011521Y010247D01*
X011622Y010146D01*
X011754Y010091D01*
X011896Y010091D01*
X012028Y010146D01*
X012129Y010247D01*
X012184Y010379D01*
X012184Y010521D01*
X012129Y010653D01*
X012125Y010658D01*
X012125Y013176D01*
X012749Y013800D01*
X016185Y013800D01*
X016295Y013846D01*
X017295Y014846D01*
X017379Y014930D01*
X017425Y015040D01*
X017425Y015809D01*
X017479Y015863D01*
X017543Y016017D01*
X017543Y016183D01*
X017479Y016337D01*
X017362Y016454D01*
X017208Y016518D01*
X017042Y016518D01*
X016888Y016454D01*
X016742Y016267D02*
X016098Y016267D01*
X016195Y016364D02*
X015861Y016030D01*
X015389Y016030D01*
X015055Y016364D01*
X015055Y016836D01*
X015389Y017170D01*
X015861Y017170D01*
X016195Y016836D01*
X016195Y016364D01*
X016195Y016743D02*
X018025Y016743D01*
X017875Y016901D02*
X016130Y016901D01*
X015972Y017060D02*
X016336Y017060D01*
X016144Y017218D02*
X007695Y017218D01*
X007695Y017329D02*
X007729Y017363D01*
X007793Y017517D01*
X007793Y017683D01*
X007729Y017837D01*
X007612Y017954D01*
X007458Y018018D01*
X007292Y018018D01*
X007138Y017954D01*
X007021Y017837D01*
X006957Y017683D01*
X006957Y017517D01*
X007021Y017363D01*
X007055Y017329D01*
X007055Y014786D01*
X007104Y014669D01*
X007207Y014566D01*
X007207Y014517D01*
X007271Y014363D01*
X007388Y014246D01*
X007542Y014182D01*
X007708Y014182D01*
X007862Y014246D01*
X007979Y014363D01*
X008043Y014517D01*
X008043Y014683D01*
X007979Y014837D01*
X007862Y014954D01*
X007708Y015018D01*
X007695Y015018D01*
X007695Y017329D01*
X007735Y017377D02*
X016057Y017377D01*
X016015Y017535D02*
X011402Y017535D01*
X011456Y017557D02*
X011636Y017737D01*
X011734Y017973D01*
X011734Y018227D01*
X011636Y018463D01*
X011456Y018643D01*
X011221Y018740D01*
X010966Y018740D01*
X010731Y018643D01*
X010551Y018463D01*
X010454Y018227D01*
X010454Y017973D01*
X010551Y017737D01*
X010731Y017557D01*
X010966Y017460D01*
X011221Y017460D01*
X011456Y017557D01*
X011592Y017694D02*
X016015Y017694D01*
X016069Y017852D02*
X011684Y017852D01*
X011734Y018011D02*
X016173Y018011D01*
X016000Y018169D02*
X016405Y018169D01*
X016159Y018328D02*
X017895Y018328D01*
X017875Y018169D02*
X016845Y018169D01*
X017077Y018011D02*
X017328Y018011D01*
X018054Y018486D02*
X016195Y018486D01*
X016070Y018962D02*
X019956Y018962D01*
X018168Y017600D02*
X018125Y017643D01*
X018125Y017557D01*
X018168Y017600D01*
X017875Y017060D02*
X016914Y017060D01*
X017106Y017218D02*
X017300Y017218D01*
X017391Y016426D02*
X020600Y016426D01*
X020608Y016446D02*
X020515Y016221D01*
X020515Y015979D01*
X020608Y015754D01*
X020762Y015600D01*
X020608Y015446D01*
X020515Y015221D01*
X020515Y014979D01*
X020608Y014754D01*
X020762Y014600D01*
X020608Y014446D01*
X020515Y014221D01*
X020515Y013979D01*
X020608Y013754D01*
X020762Y013600D01*
X020608Y013446D01*
X020515Y013221D01*
X020515Y012979D01*
X020608Y012754D01*
X020779Y012583D01*
X021004Y012490D01*
X021125Y012490D01*
X021125Y011710D01*
X021004Y011710D01*
X020779Y011617D01*
X020608Y011446D01*
X020515Y011221D01*
X020515Y010979D01*
X020608Y010754D01*
X020762Y010600D01*
X020608Y010446D01*
X020597Y010420D01*
X019896Y010420D01*
X019862Y010454D01*
X019708Y010518D01*
X019542Y010518D01*
X019388Y010454D01*
X019271Y010337D01*
X019207Y010183D01*
X019207Y010017D01*
X019271Y009863D01*
X019388Y009746D01*
X019542Y009682D01*
X019708Y009682D01*
X019862Y009746D01*
X019896Y009780D01*
X020597Y009780D01*
X020608Y009754D01*
X020762Y009600D01*
X020608Y009446D01*
X020589Y009400D01*
X019416Y009400D01*
X019362Y009454D01*
X019208Y009518D01*
X019042Y009518D01*
X018888Y009454D01*
X018771Y009337D01*
X018707Y009183D01*
X018707Y009017D01*
X018771Y008863D01*
X018784Y008850D01*
X018771Y008837D01*
X018707Y008683D01*
X018707Y008606D01*
X018501Y008400D01*
X016749Y008400D01*
X016415Y008735D01*
X016542Y008682D01*
X016708Y008682D01*
X016862Y008746D01*
X016960Y008844D01*
X016960Y008825D01*
X017350Y008435D01*
X017900Y008435D01*
X018290Y008825D01*
X018290Y009375D01*
X018065Y009600D01*
X018290Y009825D01*
X018290Y010375D01*
X017900Y010765D01*
X017350Y010765D01*
X016960Y010375D01*
X016960Y010229D01*
X016929Y010303D01*
X016828Y010404D01*
X016696Y010459D01*
X016554Y010459D01*
X016422Y010404D01*
X016321Y010303D01*
X016284Y010215D01*
X016284Y010271D01*
X016229Y010403D01*
X016128Y010504D01*
X015996Y010559D01*
X015854Y010559D01*
X015722Y010504D01*
X015621Y010403D01*
X015566Y010271D01*
X015566Y010129D01*
X015621Y009997D01*
X015625Y009992D01*
X015625Y008740D01*
X015671Y008630D01*
X016371Y007930D01*
X016455Y007846D01*
X016565Y007800D01*
X018685Y007800D01*
X018795Y007846D01*
X019131Y008182D01*
X019208Y008182D01*
X019362Y008246D01*
X019479Y008363D01*
X019543Y008517D01*
X019543Y008683D01*
X019495Y008800D01*
X020589Y008800D01*
X020608Y008754D01*
X020716Y008646D01*
X020686Y008638D01*
X020644Y008614D01*
X020611Y008581D01*
X020587Y008539D01*
X020575Y008494D01*
X020575Y008120D01*
X021105Y008120D01*
X021105Y008080D01*
X020575Y008080D01*
X020575Y007706D01*
X020587Y007661D01*
X020611Y007619D01*
X020644Y007586D01*
X020686Y007562D01*
X020731Y007550D01*
X021105Y007550D01*
X021105Y007708D02*
X021125Y007708D01*
X021125Y007867D02*
X021105Y007867D01*
X021105Y008025D02*
X021125Y008025D01*
X020575Y008025D02*
X018974Y008025D01*
X018816Y007867D02*
X020575Y007867D01*
X020575Y007708D02*
X016491Y007708D01*
X016434Y007867D02*
X016333Y007867D01*
X016276Y008025D02*
X016174Y008025D01*
X016117Y008184D02*
X016016Y008184D01*
X015959Y008342D02*
X015857Y008342D01*
X015800Y008501D02*
X015699Y008501D01*
X015659Y008659D02*
X015540Y008659D01*
X015625Y008818D02*
X015382Y008818D01*
X015223Y008976D02*
X015625Y008976D01*
X015625Y009135D02*
X015065Y009135D01*
X014852Y009293D02*
X015625Y009293D01*
X015625Y009452D02*
X014866Y009452D01*
X014893Y009610D02*
X015625Y009610D01*
X015625Y009769D02*
X014858Y009769D01*
X014795Y009927D02*
X015625Y009927D01*
X015584Y010086D02*
X014795Y010086D01*
X014795Y010244D02*
X015566Y010244D01*
X015620Y010403D02*
X014795Y010403D01*
X014795Y010561D02*
X017146Y010561D01*
X017304Y010720D02*
X014795Y010720D01*
X014795Y010878D02*
X020557Y010878D01*
X020515Y011037D02*
X014795Y011037D01*
X014795Y011195D02*
X020515Y011195D01*
X020570Y011354D02*
X014795Y011354D01*
X014795Y011512D02*
X017273Y011512D01*
X017350Y011435D02*
X017900Y011435D01*
X018290Y011825D01*
X018290Y012375D01*
X018065Y012600D01*
X018290Y012825D01*
X018290Y013375D01*
X017900Y013765D01*
X017350Y013765D01*
X016960Y013375D01*
X016960Y012825D01*
X017185Y012600D01*
X016960Y012375D01*
X016960Y011825D01*
X017350Y011435D01*
X017114Y011671D02*
X014795Y011671D01*
X014795Y011829D02*
X016960Y011829D01*
X016960Y011988D02*
X014795Y011988D01*
X014864Y012146D02*
X016960Y012146D01*
X016960Y012305D02*
X014893Y012305D01*
X014860Y012463D02*
X017048Y012463D01*
X017163Y012622D02*
X014745Y012622D01*
X014475Y012300D02*
X014475Y009600D01*
X013667Y010244D02*
X012127Y010244D01*
X012184Y010403D02*
X013588Y010403D01*
X013595Y010561D02*
X012168Y010561D01*
X012125Y010720D02*
X013625Y010720D01*
X013625Y010878D02*
X012125Y010878D01*
X012125Y011037D02*
X013625Y011037D01*
X013625Y011195D02*
X012125Y011195D01*
X012125Y011354D02*
X013625Y011354D01*
X013625Y011512D02*
X012125Y011512D01*
X012125Y011671D02*
X013625Y011671D01*
X013625Y011829D02*
X012125Y011829D01*
X012125Y011988D02*
X013625Y011988D01*
X013625Y012146D02*
X012125Y012146D01*
X012125Y012305D02*
X013625Y012305D01*
X013625Y012463D02*
X012125Y012463D01*
X012125Y012622D02*
X013590Y012622D01*
X013566Y012780D02*
X012125Y012780D01*
X012125Y012939D02*
X013614Y012939D01*
X013825Y013097D02*
X012125Y013097D01*
X012205Y013256D02*
X016960Y013256D01*
X016960Y013097D02*
X014025Y013097D01*
X014236Y012939D02*
X016960Y012939D01*
X017005Y012780D02*
X014284Y012780D01*
X012680Y013731D02*
X017316Y013731D01*
X017157Y013573D02*
X012522Y013573D01*
X012363Y013414D02*
X016999Y013414D01*
X016497Y014048D02*
X018076Y014048D01*
X018075Y014057D02*
X018089Y013971D01*
X018115Y013889D01*
X018155Y013812D01*
X018205Y013742D01*
X018267Y013680D01*
X018337Y013630D01*
X018414Y013590D01*
X018496Y013564D01*
X018582Y013550D01*
X018605Y013550D01*
X018605Y014080D01*
X018075Y014080D01*
X018075Y014057D01*
X018075Y014120D02*
X018605Y014120D01*
X018605Y014650D01*
X018582Y014650D01*
X018496Y014636D01*
X018414Y014610D01*
X018337Y014570D01*
X018267Y014520D01*
X018205Y014458D01*
X018155Y014388D01*
X018115Y014311D01*
X018089Y014229D01*
X018075Y014143D01*
X018075Y014120D01*
X018085Y014207D02*
X016656Y014207D01*
X016814Y014365D02*
X018143Y014365D01*
X018272Y014524D02*
X016973Y014524D01*
X017131Y014682D02*
X020680Y014682D01*
X020686Y014524D02*
X018978Y014524D01*
X018983Y014520D02*
X018913Y014570D01*
X018836Y014610D01*
X018754Y014636D01*
X018668Y014650D01*
X018645Y014650D01*
X018645Y014120D01*
X018605Y014120D01*
X018605Y014080D01*
X018645Y014080D01*
X018645Y014120D01*
X019175Y014120D01*
X019175Y014143D01*
X019161Y014229D01*
X019135Y014311D01*
X019095Y014388D01*
X019045Y014458D01*
X018983Y014520D01*
X019107Y014365D02*
X020575Y014365D01*
X020515Y014207D02*
X019165Y014207D01*
X019175Y014080D02*
X018645Y014080D01*
X018645Y013550D01*
X018668Y013550D01*
X018754Y013564D01*
X018836Y013590D01*
X018913Y013630D01*
X018983Y013680D01*
X019045Y013742D01*
X019095Y013812D01*
X019135Y013889D01*
X019161Y013971D01*
X019175Y014057D01*
X019175Y014080D01*
X019174Y014048D02*
X020515Y014048D01*
X020552Y013890D02*
X019135Y013890D01*
X019034Y013731D02*
X020631Y013731D01*
X020735Y013573D02*
X018781Y013573D01*
X018645Y013573D02*
X018605Y013573D01*
X018469Y013573D02*
X018093Y013573D01*
X018216Y013731D02*
X017934Y013731D01*
X018115Y013890D02*
X016339Y013890D01*
X016124Y014524D02*
X012473Y014524D01*
X012481Y014365D02*
X012314Y014365D01*
X012307Y014207D02*
X012156Y014207D01*
X012149Y014048D02*
X011997Y014048D01*
X011990Y013890D02*
X011839Y013890D01*
X011832Y013731D02*
X011680Y013731D01*
X011673Y013573D02*
X011522Y013573D01*
X011548Y013414D02*
X011425Y013414D01*
X011425Y013256D02*
X011525Y013256D01*
X011525Y013097D02*
X011425Y013097D01*
X011425Y012939D02*
X011525Y012939D01*
X011525Y012780D02*
X011425Y012780D01*
X011425Y012622D02*
X011525Y012622D01*
X011525Y012463D02*
X011425Y012463D01*
X011425Y012305D02*
X011525Y012305D01*
X011525Y012146D02*
X011425Y012146D01*
X011425Y011988D02*
X011525Y011988D01*
X011525Y011829D02*
X011425Y011829D01*
X011425Y011671D02*
X011525Y011671D01*
X011525Y011512D02*
X011425Y011512D01*
X011425Y011354D02*
X011525Y011354D01*
X011525Y011195D02*
X011425Y011195D01*
X011425Y011037D02*
X011525Y011037D01*
X011525Y010878D02*
X011425Y010878D01*
X011464Y010720D02*
X011525Y010720D01*
X011466Y010403D02*
X011432Y010403D01*
X011523Y010244D02*
X011204Y010244D01*
X011046Y010244D02*
X010290Y010244D01*
X010290Y010086D02*
X013513Y010086D01*
X013428Y009927D02*
X010290Y009927D01*
X010234Y009769D02*
X013329Y009769D01*
X013325Y009610D02*
X010075Y009610D01*
X010214Y009452D02*
X013325Y009452D01*
X013325Y009293D02*
X010290Y009293D01*
X010290Y009135D02*
X013325Y009135D01*
X013352Y008976D02*
X010290Y008976D01*
X010283Y008818D02*
X013483Y008818D01*
X013642Y008659D02*
X010124Y008659D01*
X009966Y008501D02*
X013800Y008501D01*
X013871Y008430D02*
X013871Y008430D01*
X013964Y008342D02*
X006221Y008342D01*
X006221Y008501D02*
X009284Y008501D01*
X009999Y007708D02*
X006625Y007708D01*
X006625Y007550D02*
X008808Y007550D01*
X008657Y007391D02*
X006623Y007391D01*
X006465Y007233D02*
X008590Y007233D01*
X008575Y007074D02*
X002625Y007074D01*
X002625Y006916D02*
X008607Y006916D01*
X008694Y006757D02*
X002625Y006757D01*
X002625Y006599D02*
X008892Y006599D01*
X009105Y006599D02*
X009145Y006599D01*
X009145Y006757D02*
X009105Y006757D01*
X009105Y006916D02*
X009145Y006916D01*
X009145Y007074D02*
X009105Y007074D01*
X009105Y007233D02*
X009145Y007233D01*
X009145Y007391D02*
X009105Y007391D01*
X009105Y007550D02*
X009145Y007550D01*
X009442Y007550D02*
X009712Y007550D01*
X010251Y007708D02*
X010515Y007708D01*
X010735Y007074D02*
X010801Y007074D01*
X010709Y006916D02*
X011095Y006916D01*
X011030Y006757D02*
X010643Y006757D01*
X010489Y006599D02*
X011015Y006599D01*
X011031Y006440D02*
X010644Y006440D01*
X010710Y006282D02*
X011097Y006282D01*
X011239Y006123D02*
X010735Y006123D01*
X010729Y005965D02*
X011127Y005965D01*
X011050Y005806D02*
X010663Y005806D01*
X010535Y005648D02*
X011015Y005648D01*
X011015Y005489D02*
X008120Y005489D01*
X008120Y005395D02*
X008120Y005600D01*
X008120Y005805D01*
X007830Y006095D01*
X007625Y006095D01*
X007625Y005600D01*
X008120Y005600D01*
X007625Y005600D01*
X007625Y005600D01*
X007625Y005600D01*
X007625Y005105D01*
X007830Y005105D01*
X008120Y005395D01*
X008056Y005331D02*
X011076Y005331D01*
X011190Y005172D02*
X007897Y005172D01*
X007625Y005172D02*
X007625Y005172D01*
X007625Y005105D02*
X007625Y005600D01*
X007625Y005600D01*
X007625Y006095D01*
X007420Y006095D01*
X007138Y005813D01*
X007096Y005914D01*
X006939Y006071D01*
X006735Y006155D01*
X006515Y006155D01*
X006311Y006071D01*
X006154Y005914D01*
X006070Y005710D01*
X006070Y005490D01*
X006154Y005286D01*
X006311Y005129D01*
X006515Y005045D01*
X006735Y005045D01*
X006939Y005129D01*
X007096Y005286D01*
X007138Y005387D01*
X007420Y005105D01*
X007625Y005105D01*
X007625Y005331D02*
X007625Y005331D01*
X007625Y005489D02*
X007625Y005489D01*
X007625Y005648D02*
X007625Y005648D01*
X007625Y005806D02*
X007625Y005806D01*
X007625Y005965D02*
X007625Y005965D01*
X007289Y005965D02*
X007045Y005965D01*
X006813Y006123D02*
X008575Y006123D01*
X008591Y005965D02*
X007961Y005965D01*
X008119Y005806D02*
X008659Y005806D01*
X008812Y005648D02*
X008120Y005648D01*
X008606Y006282D02*
X002625Y006282D01*
X002625Y006440D02*
X008692Y006440D01*
X009105Y006440D02*
X009145Y006440D01*
X009145Y006282D02*
X009105Y006282D01*
X009105Y006123D02*
X009145Y006123D01*
X009145Y005965D02*
X009105Y005965D01*
X009105Y005806D02*
X009145Y005806D01*
X009145Y005648D02*
X009105Y005648D01*
X009438Y005648D02*
X009715Y005648D01*
X010015Y004655D02*
X009811Y004571D01*
X009654Y004414D01*
X009612Y004313D01*
X009330Y004595D01*
X009125Y004595D01*
X009125Y004100D01*
X009125Y004100D01*
X009125Y003605D01*
X009330Y003605D01*
X009612Y003887D01*
X009654Y003786D01*
X009811Y003629D01*
X010015Y003545D01*
X010235Y003545D01*
X010439Y003629D01*
X010596Y003786D01*
X010680Y003990D01*
X010680Y004210D01*
X010596Y004414D01*
X010439Y004571D01*
X010235Y004655D01*
X010015Y004655D01*
X009778Y004538D02*
X009387Y004538D01*
X009546Y004380D02*
X009640Y004380D01*
X009125Y004380D02*
X009125Y004380D01*
X009125Y004538D02*
X009125Y004538D01*
X009125Y004595D02*
X008920Y004595D01*
X008630Y004305D01*
X008630Y004100D01*
X009125Y004100D01*
X009125Y004100D01*
X009125Y004100D01*
X009125Y004595D01*
X008863Y004538D02*
X002625Y004538D01*
X002625Y004380D02*
X008704Y004380D01*
X008630Y004221D02*
X002625Y004221D01*
X002625Y004063D02*
X003055Y004063D01*
X003057Y004069D02*
X003045Y004024D01*
X003045Y003648D01*
X003577Y003648D01*
X003577Y004180D01*
X003201Y004180D01*
X003156Y004168D01*
X003114Y004144D01*
X003081Y004111D01*
X003057Y004069D01*
X003045Y003904D02*
X002625Y003904D01*
X002625Y003746D02*
X003045Y003746D01*
X003045Y003552D02*
X003045Y003176D01*
X003057Y003131D01*
X003081Y003089D01*
X003114Y003056D01*
X003156Y003032D01*
X003201Y003020D01*
X003577Y003020D01*
X003577Y003552D01*
X003673Y003552D01*
X003673Y003648D01*
X003577Y003648D01*
X003577Y003552D01*
X003045Y003552D01*
X003045Y003429D02*
X002625Y003429D01*
X002625Y003587D02*
X003577Y003587D01*
X003673Y003587D02*
X009913Y003587D01*
X009695Y003746D02*
X009471Y003746D01*
X009125Y003746D02*
X009125Y003746D01*
X009125Y003605D02*
X009125Y004100D01*
X008630Y004100D01*
X008630Y003895D01*
X008920Y003605D01*
X009125Y003605D01*
X009125Y003904D02*
X009125Y003904D01*
X009125Y004063D02*
X009125Y004063D01*
X009125Y004221D02*
X009125Y004221D01*
X008630Y004063D02*
X004195Y004063D01*
X004193Y004069D02*
X004169Y004111D01*
X004136Y004144D01*
X004094Y004168D01*
X004049Y004180D01*
X003673Y004180D01*
X003673Y003648D01*
X004205Y003648D01*
X004205Y004024D01*
X004193Y004069D01*
X004205Y003904D02*
X008630Y003904D01*
X008779Y003746D02*
X004205Y003746D01*
X004205Y003552D02*
X003673Y003552D01*
X003673Y003020D01*
X004049Y003020D01*
X004094Y003032D01*
X004136Y003056D01*
X004169Y003089D01*
X004193Y003131D01*
X004205Y003176D01*
X004205Y003552D01*
X004205Y003429D02*
X011036Y003429D01*
X011015Y003587D02*
X010337Y003587D01*
X010555Y003746D02*
X011025Y003746D01*
X011091Y003904D02*
X010645Y003904D01*
X010680Y004063D02*
X011225Y004063D01*
X011141Y004221D02*
X010676Y004221D01*
X010610Y004380D02*
X011056Y004380D01*
X011015Y004538D02*
X010472Y004538D01*
X011015Y004697D02*
X002625Y004697D01*
X002625Y004855D02*
X011070Y004855D01*
X011176Y005014D02*
X003958Y005014D01*
X003988Y005026D02*
X004168Y005206D01*
X004265Y005441D01*
X004265Y005696D01*
X004168Y005931D01*
X003988Y006111D01*
X003752Y006209D01*
X003498Y006209D01*
X003262Y006111D01*
X003082Y005931D01*
X002985Y005696D01*
X002985Y005441D01*
X003082Y005206D01*
X003262Y005026D01*
X003498Y004929D01*
X003752Y004929D01*
X003988Y005026D01*
X004134Y005172D02*
X006268Y005172D01*
X006136Y005331D02*
X005447Y005331D01*
X005479Y005363D02*
X005362Y005246D01*
X005208Y005182D01*
X005042Y005182D01*
X004888Y005246D01*
X004771Y005363D01*
X004707Y005517D01*
X004707Y005683D01*
X004771Y005837D01*
X004888Y005954D01*
X005042Y006018D01*
X005208Y006018D01*
X005362Y005954D01*
X005479Y005837D01*
X005543Y005683D01*
X005543Y005517D01*
X005479Y005363D01*
X005532Y005489D02*
X006070Y005489D01*
X006070Y005648D02*
X005543Y005648D01*
X005492Y005806D02*
X006110Y005806D01*
X006205Y005965D02*
X005338Y005965D01*
X004912Y005965D02*
X004134Y005965D01*
X004219Y005806D02*
X004758Y005806D01*
X004707Y005648D02*
X004265Y005648D01*
X004265Y005489D02*
X004718Y005489D01*
X004803Y005331D02*
X004219Y005331D01*
X003959Y006123D02*
X006437Y006123D01*
X007114Y005331D02*
X007194Y005331D01*
X007353Y005172D02*
X006982Y005172D01*
X005785Y007233D02*
X005465Y007233D01*
X005623Y007391D02*
X005627Y007391D01*
X005625Y007393D02*
X005625Y007807D01*
X005700Y007882D01*
X005577Y007882D01*
X005531Y007901D01*
X005625Y007807D01*
X005625Y007393D01*
X005625Y007550D02*
X005625Y007550D01*
X005625Y007708D02*
X005625Y007708D01*
X005566Y007867D02*
X005684Y007867D01*
X005200Y008184D02*
X002625Y008184D01*
X002625Y008342D02*
X005147Y008342D01*
X005147Y008501D02*
X002625Y008501D01*
X002625Y008659D02*
X005202Y008659D01*
X004843Y008025D02*
X002625Y008025D01*
X002625Y007867D02*
X004684Y007867D01*
X004625Y007708D02*
X002625Y007708D01*
X002625Y007550D02*
X004625Y007550D01*
X004627Y007391D02*
X002625Y007391D01*
X002625Y007233D02*
X004785Y007233D01*
X003291Y006123D02*
X002625Y006123D01*
X002625Y005965D02*
X003116Y005965D01*
X003031Y005806D02*
X002625Y005806D01*
X002625Y005648D02*
X002985Y005648D01*
X002985Y005489D02*
X002625Y005489D01*
X002625Y005331D02*
X003031Y005331D01*
X003116Y005172D02*
X002625Y005172D01*
X002625Y005014D02*
X003292Y005014D01*
X003577Y004063D02*
X003673Y004063D01*
X003673Y003904D02*
X003577Y003904D01*
X003577Y003746D02*
X003673Y003746D01*
X003673Y003429D02*
X003577Y003429D01*
X003577Y003270D02*
X003673Y003270D01*
X003673Y003112D02*
X003577Y003112D01*
X003068Y003112D02*
X002625Y003112D01*
X002625Y003270D02*
X003045Y003270D01*
X002625Y002953D02*
X011115Y002953D01*
X011045Y002795D02*
X002625Y002795D01*
X002625Y002636D02*
X011015Y002636D01*
X011015Y002478D02*
X005306Y002478D01*
X005362Y002454D02*
X005208Y002518D01*
X005042Y002518D01*
X004888Y002454D01*
X004771Y002337D01*
X004707Y002183D01*
X004707Y002017D01*
X004771Y001863D01*
X004888Y001746D01*
X005042Y001682D01*
X005208Y001682D01*
X005362Y001746D01*
X005479Y001863D01*
X005543Y002017D01*
X005543Y002183D01*
X005479Y002337D01*
X005362Y002454D01*
X005487Y002319D02*
X011081Y002319D01*
X011202Y002161D02*
X005543Y002161D01*
X005537Y002002D02*
X011164Y002002D01*
X011066Y001844D02*
X005460Y001844D01*
X005216Y001685D02*
X011015Y001685D01*
X011015Y001527D02*
X003825Y001527D01*
X003891Y001368D02*
X004802Y001368D01*
X004771Y001337D02*
X004707Y001183D01*
X004707Y001017D01*
X004771Y000863D01*
X004888Y000746D01*
X005042Y000682D01*
X005208Y000682D01*
X005362Y000746D01*
X005479Y000863D01*
X005543Y001017D01*
X005543Y001183D01*
X005479Y001337D01*
X005362Y001454D01*
X005208Y001518D01*
X005042Y001518D01*
X004888Y001454D01*
X004771Y001337D01*
X004718Y001210D02*
X003935Y001210D01*
X003935Y001051D02*
X004707Y001051D01*
X004758Y000893D02*
X003916Y000893D01*
X003850Y000734D02*
X004916Y000734D01*
X005334Y000734D02*
X020036Y000734D01*
X019970Y000893D02*
X005492Y000893D01*
X005543Y001051D02*
X011356Y001051D01*
X011153Y001210D02*
X005532Y001210D01*
X005448Y001368D02*
X011061Y001368D01*
X011894Y001051D02*
X014356Y001051D01*
X014153Y001210D02*
X012097Y001210D01*
X012189Y001368D02*
X014061Y001368D01*
X014015Y001527D02*
X012235Y001527D01*
X012235Y001685D02*
X014015Y001685D01*
X014066Y001844D02*
X012184Y001844D01*
X012086Y002002D02*
X014164Y002002D01*
X014202Y002161D02*
X012048Y002161D01*
X012169Y002319D02*
X014081Y002319D01*
X014015Y002478D02*
X012235Y002478D01*
X012235Y002636D02*
X014015Y002636D01*
X014045Y002795D02*
X012205Y002795D01*
X012135Y002953D02*
X014115Y002953D01*
X014251Y003112D02*
X011999Y003112D01*
X012149Y003270D02*
X014101Y003270D01*
X014036Y003429D02*
X012214Y003429D01*
X012235Y003587D02*
X014015Y003587D01*
X014025Y003746D02*
X012225Y003746D01*
X012159Y003904D02*
X014091Y003904D01*
X014225Y004063D02*
X012025Y004063D01*
X012109Y004221D02*
X014141Y004221D01*
X014056Y004380D02*
X012194Y004380D01*
X012235Y004538D02*
X014015Y004538D01*
X014015Y004697D02*
X012235Y004697D01*
X012180Y004855D02*
X014070Y004855D01*
X014176Y005014D02*
X012074Y005014D01*
X012060Y005172D02*
X014190Y005172D01*
X014076Y005331D02*
X012174Y005331D01*
X012235Y005489D02*
X014015Y005489D01*
X014015Y005648D02*
X012235Y005648D01*
X012200Y005806D02*
X014050Y005806D01*
X014127Y005965D02*
X012123Y005965D01*
X012011Y006123D02*
X014239Y006123D01*
X014097Y006282D02*
X012153Y006282D01*
X012219Y006440D02*
X014031Y006440D01*
X014015Y006599D02*
X012235Y006599D01*
X012220Y006757D02*
X014030Y006757D01*
X014095Y006916D02*
X012155Y006916D01*
X012449Y007074D02*
X014236Y007074D01*
X015011Y006123D02*
X017794Y006123D01*
X017627Y005965D02*
X015123Y005965D01*
X015200Y005806D02*
X017550Y005806D01*
X017515Y005648D02*
X015897Y005648D01*
X016099Y005489D02*
X017515Y005489D01*
X017576Y005331D02*
X016190Y005331D01*
X016235Y005172D02*
X017690Y005172D01*
X017676Y005014D02*
X016235Y005014D01*
X016184Y004855D02*
X017570Y004855D01*
X017515Y004697D02*
X016084Y004697D01*
X016050Y004538D02*
X017515Y004538D01*
X017725Y004063D02*
X016235Y004063D01*
X016235Y004221D02*
X016142Y004446D01*
X016204Y003904D02*
X017591Y003904D01*
X017525Y003746D02*
X016133Y003746D01*
X016001Y003587D02*
X017515Y003587D01*
X017536Y003429D02*
X016149Y003429D01*
X016215Y003270D02*
X017601Y003270D01*
X017751Y003112D02*
X016235Y003112D01*
X016224Y002953D02*
X017615Y002953D01*
X017545Y002795D02*
X016159Y002795D01*
X016024Y002636D02*
X017515Y002636D01*
X017515Y002478D02*
X016110Y002478D01*
X016195Y002319D02*
X017581Y002319D01*
X017702Y002161D02*
X016235Y002161D01*
X016235Y002002D02*
X017664Y002002D01*
X017566Y001844D02*
X016179Y001844D01*
X016073Y001685D02*
X017515Y001685D01*
X017515Y001527D02*
X015834Y001527D01*
X015416Y001527D02*
X015235Y001527D01*
X015189Y001368D02*
X017561Y001368D01*
X017653Y001210D02*
X015097Y001210D01*
X014894Y001051D02*
X017856Y001051D01*
X018394Y001051D02*
X019956Y001051D01*
X019956Y001210D02*
X018597Y001210D01*
X018689Y001368D02*
X019995Y001368D01*
X020061Y001527D02*
X018735Y001527D01*
X018735Y001685D02*
X020181Y001685D01*
X020349Y001844D02*
X018684Y001844D01*
X018586Y002002D02*
X021125Y002002D01*
X021125Y002161D02*
X020663Y002161D01*
X020675Y002206D01*
X020675Y002580D01*
X020145Y002580D01*
X020145Y002620D01*
X020675Y002620D01*
X020675Y002994D01*
X020663Y003039D01*
X020639Y003081D01*
X020606Y003114D01*
X020564Y003138D01*
X020534Y003146D01*
X020642Y003254D01*
X020735Y003479D01*
X020735Y003721D01*
X020642Y003946D01*
X020488Y004100D01*
X020642Y004254D01*
X020735Y004479D01*
X020735Y004721D01*
X020642Y004946D01*
X020488Y005100D01*
X020642Y005254D01*
X020735Y005479D01*
X020735Y005721D01*
X020642Y005946D01*
X020471Y006117D01*
X020246Y006210D01*
X020004Y006210D01*
X019779Y006117D01*
X019608Y005946D01*
X019515Y005721D01*
X019515Y005479D01*
X019608Y005254D01*
X019762Y005100D01*
X019608Y004946D01*
X019515Y004721D01*
X019515Y004479D01*
X019608Y004254D01*
X019762Y004100D01*
X019608Y003946D01*
X019515Y003721D01*
X019515Y003479D01*
X019608Y003254D01*
X019716Y003146D01*
X019686Y003138D01*
X019644Y003114D01*
X019611Y003081D01*
X019587Y003039D01*
X019575Y002994D01*
X019575Y002620D01*
X020105Y002620D01*
X020105Y002580D01*
X019575Y002580D01*
X019575Y002206D01*
X019587Y002161D01*
X019611Y002119D01*
X019644Y002086D01*
X019686Y002062D01*
X019731Y002050D01*
X020105Y002050D01*
X020105Y002580D01*
X020145Y002580D01*
X020145Y002050D01*
X020519Y002050D01*
X020564Y002062D01*
X020606Y002086D01*
X020639Y002119D01*
X020663Y002161D01*
X020675Y002319D02*
X021125Y002319D01*
X021125Y002478D02*
X020675Y002478D01*
X020675Y002636D02*
X021125Y002636D01*
X021125Y002795D02*
X020675Y002795D01*
X020675Y002953D02*
X021125Y002953D01*
X021125Y003112D02*
X020608Y003112D01*
X020649Y003270D02*
X021125Y003270D01*
X021125Y003429D02*
X020714Y003429D01*
X020735Y003587D02*
X021125Y003587D01*
X021125Y003746D02*
X020725Y003746D01*
X020659Y003904D02*
X021125Y003904D01*
X021125Y004063D02*
X020525Y004063D01*
X020609Y004221D02*
X021125Y004221D01*
X021125Y004380D02*
X020694Y004380D01*
X020735Y004538D02*
X021125Y004538D01*
X021125Y004697D02*
X020735Y004697D01*
X020680Y004855D02*
X021125Y004855D01*
X021125Y005014D02*
X020574Y005014D01*
X020560Y005172D02*
X021125Y005172D01*
X021125Y005331D02*
X020674Y005331D01*
X020735Y005489D02*
X021125Y005489D01*
X021125Y005648D02*
X020735Y005648D01*
X020700Y005806D02*
X021125Y005806D01*
X021125Y005965D02*
X020623Y005965D01*
X020456Y006123D02*
X021125Y006123D01*
X019794Y006123D02*
X018456Y006123D01*
X018623Y005965D02*
X019627Y005965D01*
X019550Y005806D02*
X018700Y005806D01*
X018735Y005648D02*
X019515Y005648D01*
X019515Y005489D02*
X018735Y005489D01*
X018674Y005331D02*
X019576Y005331D01*
X019690Y005172D02*
X018560Y005172D01*
X018574Y005014D02*
X019676Y005014D01*
X019570Y004855D02*
X018680Y004855D01*
X018735Y004697D02*
X019515Y004697D01*
X019515Y004538D02*
X018735Y004538D01*
X018694Y004380D02*
X019556Y004380D01*
X019641Y004221D02*
X018609Y004221D01*
X018525Y004063D02*
X019725Y004063D01*
X019591Y003904D02*
X018659Y003904D01*
X018725Y003746D02*
X019525Y003746D01*
X019515Y003587D02*
X018735Y003587D01*
X018714Y003429D02*
X019536Y003429D01*
X019601Y003270D02*
X018649Y003270D01*
X018499Y003112D02*
X019642Y003112D01*
X019575Y002953D02*
X018635Y002953D01*
X018705Y002795D02*
X019575Y002795D01*
X019575Y002636D02*
X018735Y002636D01*
X018735Y002478D02*
X019575Y002478D01*
X019575Y002319D02*
X018669Y002319D01*
X018548Y002161D02*
X019587Y002161D01*
X020105Y002161D02*
X020145Y002161D01*
X020145Y002319D02*
X020105Y002319D01*
X020105Y002478D02*
X020145Y002478D01*
X015353Y005648D02*
X015235Y005648D01*
X016649Y008501D02*
X017284Y008501D01*
X017126Y008659D02*
X016490Y008659D01*
X016934Y008818D02*
X016967Y008818D01*
X017966Y008501D02*
X018601Y008501D01*
X018707Y008659D02*
X018124Y008659D01*
X018283Y008818D02*
X018763Y008818D01*
X018724Y008976D02*
X018290Y008976D01*
X018290Y009135D02*
X018707Y009135D01*
X018752Y009293D02*
X018290Y009293D01*
X018214Y009452D02*
X018885Y009452D01*
X019365Y009452D02*
X020614Y009452D01*
X020752Y009610D02*
X018075Y009610D01*
X018234Y009769D02*
X019365Y009769D01*
X019244Y009927D02*
X018290Y009927D01*
X018290Y010086D02*
X019207Y010086D01*
X019232Y010244D02*
X018290Y010244D01*
X018263Y010403D02*
X019336Y010403D01*
X019625Y010100D02*
X021125Y010100D01*
X020723Y010561D02*
X018104Y010561D01*
X017946Y010720D02*
X020643Y010720D01*
X020674Y011512D02*
X017977Y011512D01*
X018136Y011671D02*
X020908Y011671D01*
X021125Y011829D02*
X018290Y011829D01*
X018290Y011988D02*
X021125Y011988D01*
X021125Y012146D02*
X018290Y012146D01*
X018290Y012305D02*
X021125Y012305D01*
X021125Y012463D02*
X018202Y012463D01*
X018087Y012622D02*
X020741Y012622D01*
X020597Y012780D02*
X018245Y012780D01*
X018290Y012939D02*
X020532Y012939D01*
X020515Y013097D02*
X018290Y013097D01*
X018290Y013256D02*
X020529Y013256D01*
X020595Y013414D02*
X018251Y013414D01*
X018605Y013731D02*
X018645Y013731D01*
X018645Y013890D02*
X018605Y013890D01*
X018605Y014048D02*
X018645Y014048D01*
X018645Y014207D02*
X018605Y014207D01*
X018605Y014365D02*
X018645Y014365D01*
X018645Y014524D02*
X018605Y014524D01*
X017408Y014999D02*
X020515Y014999D01*
X020515Y015158D02*
X017425Y015158D01*
X017425Y015316D02*
X020554Y015316D01*
X020637Y015475D02*
X017425Y015475D01*
X017425Y015633D02*
X020729Y015633D01*
X020593Y015792D02*
X017425Y015792D01*
X017515Y015950D02*
X020527Y015950D01*
X020515Y016109D02*
X017543Y016109D01*
X017508Y016267D02*
X020534Y016267D01*
X020608Y016446D02*
X020779Y016617D01*
X020827Y016637D01*
X020767Y016680D01*
X020705Y016742D01*
X020746Y016584D02*
X019972Y016584D01*
X020572Y014841D02*
X017290Y014841D01*
X016758Y015158D02*
X015984Y015158D01*
X015972Y014999D02*
X016600Y014999D01*
X016441Y014841D02*
X015873Y014841D01*
X016283Y014682D02*
X012631Y014682D01*
X012258Y015158D02*
X010890Y015158D01*
X010832Y015100D02*
X011125Y015393D01*
X011125Y015807D01*
X010832Y016100D01*
X010418Y016100D01*
X010125Y015807D01*
X010125Y015393D01*
X010418Y015100D01*
X010832Y015100D01*
X011048Y015316D02*
X011287Y015316D01*
X011185Y015418D02*
X011443Y015160D01*
X011625Y015160D01*
X011807Y015160D01*
X012065Y015418D01*
X012065Y015600D01*
X012065Y015782D01*
X011807Y016040D01*
X011625Y016040D01*
X011625Y015600D01*
X012065Y015600D01*
X011625Y015600D01*
X011625Y015600D01*
X011625Y015600D01*
X011625Y015160D01*
X011625Y015600D01*
X011625Y015600D01*
X011625Y015600D01*
X011185Y015600D01*
X011185Y015782D01*
X011443Y016040D01*
X011625Y016040D01*
X011625Y015600D01*
X011185Y015600D01*
X011185Y015418D01*
X011185Y015475D02*
X011125Y015475D01*
X011125Y015633D02*
X011185Y015633D01*
X011194Y015792D02*
X011125Y015792D01*
X010982Y015950D02*
X011353Y015950D01*
X011625Y015950D02*
X011625Y015950D01*
X011625Y015792D02*
X011625Y015792D01*
X011625Y015633D02*
X011625Y015633D01*
X011625Y015475D02*
X011625Y015475D01*
X011625Y015316D02*
X011625Y015316D01*
X011963Y015316D02*
X012417Y015316D01*
X012065Y015475D02*
X016825Y015475D01*
X016825Y015633D02*
X012065Y015633D01*
X012056Y015792D02*
X016825Y015792D01*
X016735Y015950D02*
X011897Y015950D01*
X012100Y014999D02*
X007754Y014999D01*
X007695Y015158D02*
X010360Y015158D01*
X010202Y015316D02*
X007695Y015316D01*
X007695Y015475D02*
X010125Y015475D01*
X010125Y015633D02*
X007695Y015633D01*
X007695Y015792D02*
X010125Y015792D01*
X010268Y015950D02*
X007695Y015950D01*
X007695Y016109D02*
X013395Y016109D01*
X013414Y016090D02*
X013115Y016389D01*
X013115Y016570D01*
X013595Y016570D01*
X013595Y016630D01*
X013595Y017110D01*
X013414Y017110D01*
X013115Y016811D01*
X013115Y016630D01*
X013595Y016630D01*
X013655Y016630D01*
X013655Y017110D01*
X013836Y017110D01*
X014135Y016811D01*
X014135Y016630D01*
X013655Y016630D01*
X013655Y016570D01*
X014135Y016570D01*
X014135Y016389D01*
X013836Y016090D01*
X013655Y016090D01*
X013655Y016570D01*
X013595Y016570D01*
X013595Y016090D01*
X013414Y016090D01*
X013595Y016109D02*
X013655Y016109D01*
X013655Y016267D02*
X013595Y016267D01*
X013595Y016426D02*
X013655Y016426D01*
X013655Y016584D02*
X015055Y016584D01*
X015055Y016426D02*
X014135Y016426D01*
X014013Y016267D02*
X015152Y016267D01*
X015310Y016109D02*
X013855Y016109D01*
X013595Y016584D02*
X007695Y016584D01*
X007695Y016426D02*
X013115Y016426D01*
X013237Y016267D02*
X007695Y016267D01*
X007695Y016743D02*
X013115Y016743D01*
X013205Y016901D02*
X007695Y016901D01*
X007695Y017060D02*
X013363Y017060D01*
X013595Y017060D02*
X013655Y017060D01*
X013655Y016901D02*
X013595Y016901D01*
X013595Y016743D02*
X013655Y016743D01*
X013887Y017060D02*
X015278Y017060D01*
X015120Y016901D02*
X014045Y016901D01*
X014135Y016743D02*
X015055Y016743D01*
X015940Y016109D02*
X016707Y016109D01*
X016825Y015316D02*
X015917Y015316D01*
X013836Y018090D02*
X013655Y018090D01*
X013655Y018570D01*
X014135Y018570D01*
X014135Y018389D01*
X013836Y018090D01*
X013915Y018169D02*
X015250Y018169D01*
X015091Y018328D02*
X014074Y018328D01*
X014135Y018486D02*
X015055Y018486D01*
X015055Y018645D02*
X014135Y018645D01*
X014135Y018803D02*
X015055Y018803D01*
X015180Y018962D02*
X013985Y018962D01*
X013595Y018570D02*
X013595Y018090D01*
X013414Y018090D01*
X013115Y018389D01*
X013115Y018570D01*
X013595Y018570D01*
X013595Y018486D02*
X013655Y018486D01*
X013655Y018328D02*
X013595Y018328D01*
X013595Y018169D02*
X013655Y018169D01*
X013335Y018169D02*
X011734Y018169D01*
X011692Y018328D02*
X013176Y018328D01*
X013115Y018486D02*
X011613Y018486D01*
X011451Y018645D02*
X013115Y018645D01*
X013115Y018803D02*
X007493Y018803D01*
X007543Y018645D02*
X008530Y018645D01*
X008522Y018636D02*
X008485Y018548D01*
X008485Y017652D01*
X008522Y017564D01*
X008589Y017497D01*
X008677Y017460D01*
X009573Y017460D01*
X009661Y017497D01*
X009728Y017564D01*
X009765Y017652D01*
X009765Y018548D01*
X009728Y018636D01*
X009661Y018703D01*
X009573Y018740D01*
X008677Y018740D01*
X008589Y018703D01*
X008522Y018636D01*
X008485Y018486D02*
X007530Y018486D01*
X007444Y018328D02*
X008485Y018328D01*
X008485Y018169D02*
X007260Y018169D01*
X007274Y018011D02*
X007101Y018011D01*
X007036Y017852D02*
X006943Y017852D01*
X006961Y017694D02*
X006784Y017694D01*
X006626Y017535D02*
X006957Y017535D01*
X007015Y017377D02*
X006467Y017377D01*
X006248Y017218D02*
X007055Y017218D01*
X007055Y017060D02*
X004039Y017060D01*
X004180Y016901D02*
X007055Y016901D01*
X007055Y016743D02*
X004246Y016743D01*
X004265Y016584D02*
X007055Y016584D01*
X007055Y016426D02*
X004259Y016426D01*
X004411Y016267D02*
X007055Y016267D01*
X007055Y016109D02*
X004569Y016109D01*
X004728Y015950D02*
X007055Y015950D01*
X007055Y015792D02*
X004886Y015792D01*
X004945Y015633D02*
X007055Y015633D01*
X007055Y015475D02*
X004945Y015475D01*
X004945Y015316D02*
X007055Y015316D01*
X007055Y015158D02*
X004945Y015158D01*
X004945Y014999D02*
X005460Y014999D01*
X005340Y014841D02*
X004945Y014841D01*
X004996Y014682D02*
X005285Y014682D01*
X005285Y014524D02*
X005154Y014524D01*
X005313Y014365D02*
X005338Y014365D01*
X004883Y013890D02*
X004025Y013890D01*
X004025Y013731D02*
X005041Y013731D01*
X005200Y013573D02*
X004025Y013573D01*
X004025Y013414D02*
X005318Y013414D01*
X005406Y013256D02*
X004025Y013256D01*
X004025Y013097D02*
X005628Y013097D01*
X005485Y012939D02*
X004025Y012939D01*
X004025Y012780D02*
X005379Y012780D01*
X005345Y012622D02*
X004025Y012622D01*
X004025Y012463D02*
X005365Y012463D01*
X005357Y012488D02*
X005380Y012416D01*
X005414Y012348D01*
X005459Y012287D01*
X005512Y012234D01*
X005573Y012189D01*
X005641Y012155D01*
X005713Y012132D01*
X005787Y012120D01*
X006105Y012120D01*
X006105Y012580D01*
X005345Y012580D01*
X005345Y012562D01*
X005357Y012488D01*
X005446Y012305D02*
X004025Y012305D01*
X004025Y012146D02*
X005669Y012146D01*
X006105Y012146D02*
X006145Y012146D01*
X006145Y012120D02*
X006463Y012120D01*
X006537Y012132D01*
X006609Y012155D01*
X006677Y012189D01*
X006738Y012234D01*
X006791Y012287D01*
X006836Y012348D01*
X006870Y012416D01*
X006893Y012488D01*
X006905Y012562D01*
X006905Y012580D01*
X006145Y012580D01*
X006145Y012120D01*
X006145Y012305D02*
X006105Y012305D01*
X006105Y012463D02*
X006145Y012463D01*
X006581Y012146D02*
X008960Y012146D01*
X008960Y011988D02*
X004025Y011988D01*
X004025Y011829D02*
X008960Y011829D01*
X009114Y011671D02*
X004025Y011671D01*
X004025Y011512D02*
X009097Y011512D01*
X008960Y011354D02*
X004025Y011354D01*
X004166Y011195D02*
X005339Y011195D01*
X005380Y011236D02*
X005229Y011085D01*
X005147Y010888D01*
X005147Y010674D01*
X005229Y010477D01*
X005380Y010326D01*
X005577Y010244D01*
X005791Y010244D01*
X005988Y010326D01*
X006139Y010477D01*
X006221Y010674D01*
X006221Y010888D01*
X006139Y011085D01*
X005988Y011236D01*
X005791Y011318D01*
X005577Y011318D01*
X005380Y011236D01*
X005209Y011037D02*
X004324Y011037D01*
X004483Y010878D02*
X005147Y010878D01*
X005147Y010720D02*
X004641Y010720D01*
X004800Y010561D02*
X005194Y010561D01*
X005303Y010403D02*
X004958Y010403D01*
X005117Y010244D02*
X006685Y010244D01*
X006685Y010086D02*
X005915Y010086D01*
X006116Y009927D02*
X006685Y009927D01*
X006834Y009769D02*
X006195Y009769D01*
X006065Y010403D02*
X006805Y010403D01*
X006174Y010561D02*
X009146Y010561D01*
X009065Y010720D02*
X006221Y010720D01*
X006221Y010878D02*
X008960Y010878D01*
X008960Y011037D02*
X006159Y011037D01*
X006029Y011195D02*
X008960Y011195D01*
X008960Y012305D02*
X006804Y012305D01*
X006885Y012463D02*
X009048Y012463D01*
X009206Y012622D02*
X006905Y012622D01*
X006871Y012780D02*
X010825Y012780D01*
X010825Y012622D02*
X010044Y012622D01*
X010202Y012463D02*
X010825Y012463D01*
X010825Y012305D02*
X010290Y012305D01*
X010290Y012146D02*
X010825Y012146D01*
X010825Y011988D02*
X010290Y011988D01*
X010290Y011829D02*
X010825Y011829D01*
X010825Y011671D02*
X010136Y011671D01*
X010153Y011512D02*
X010825Y011512D01*
X010825Y011354D02*
X010290Y011354D01*
X010290Y011195D02*
X010825Y011195D01*
X010825Y011037D02*
X010290Y011037D01*
X010290Y010878D02*
X010825Y010878D01*
X010786Y010720D02*
X010185Y010720D01*
X010104Y010561D02*
X010766Y010561D01*
X010818Y010403D02*
X010263Y010403D01*
X010825Y012939D02*
X006765Y012939D01*
X006622Y013097D02*
X010825Y013097D01*
X010825Y013256D02*
X006844Y013256D01*
X006932Y013414D02*
X010825Y013414D01*
X010825Y013573D02*
X009781Y013573D01*
X009754Y013564D02*
X009836Y013590D01*
X009913Y013630D01*
X009983Y013680D01*
X010045Y013742D01*
X010095Y013812D01*
X010135Y013889D01*
X010161Y013971D01*
X010175Y014057D01*
X010175Y014080D01*
X009645Y014080D01*
X009645Y014120D01*
X009605Y014120D01*
X009605Y014650D01*
X009582Y014650D01*
X009496Y014636D01*
X009414Y014610D01*
X009337Y014570D01*
X009267Y014520D01*
X009205Y014458D01*
X009155Y014388D01*
X009115Y014311D01*
X009089Y014229D01*
X009075Y014143D01*
X009075Y014120D01*
X009605Y014120D01*
X009605Y014080D01*
X009075Y014080D01*
X009075Y014057D01*
X009089Y013971D01*
X009115Y013889D01*
X009155Y013812D01*
X009205Y013742D01*
X009267Y013680D01*
X009337Y013630D01*
X009414Y013590D01*
X009496Y013564D01*
X009582Y013550D01*
X009605Y013550D01*
X009605Y014080D01*
X009645Y014080D01*
X009645Y013550D01*
X009668Y013550D01*
X009754Y013564D01*
X009645Y013573D02*
X009605Y013573D01*
X009469Y013573D02*
X006965Y013573D01*
X006955Y013731D02*
X009216Y013731D01*
X009115Y013890D02*
X006890Y013890D01*
X006741Y014048D02*
X009076Y014048D01*
X009085Y014207D02*
X007768Y014207D01*
X007980Y014365D02*
X009143Y014365D01*
X009272Y014524D02*
X008043Y014524D01*
X008043Y014682D02*
X011783Y014682D01*
X011941Y014841D02*
X007976Y014841D01*
X007625Y014600D02*
X007375Y014850D01*
X007375Y017600D01*
X007714Y017852D02*
X008485Y017852D01*
X008485Y017694D02*
X007789Y017694D01*
X007793Y017535D02*
X008551Y017535D01*
X008485Y018011D02*
X007476Y018011D01*
X006757Y018803D02*
X003935Y018803D01*
X003935Y018645D02*
X006604Y018645D01*
X006445Y018486D02*
X003872Y018486D01*
X003798Y018328D02*
X006287Y018328D01*
X006128Y018169D02*
X003639Y018169D01*
X003774Y018011D02*
X003335Y018011D01*
X002915Y018011D02*
X002625Y018011D01*
X003935Y018962D02*
X006905Y018962D01*
X007345Y018962D02*
X013265Y018962D01*
X010785Y017535D02*
X009699Y017535D01*
X009765Y017694D02*
X010595Y017694D01*
X010503Y017852D02*
X009765Y017852D01*
X009765Y018011D02*
X010454Y018011D01*
X010454Y018169D02*
X009765Y018169D01*
X009765Y018328D02*
X010495Y018328D01*
X010574Y018486D02*
X009765Y018486D01*
X009720Y018645D02*
X010736Y018645D01*
X007055Y014999D02*
X006790Y014999D01*
X006910Y014841D02*
X007055Y014841D01*
X007098Y014682D02*
X006965Y014682D01*
X006965Y014524D02*
X007207Y014524D01*
X007270Y014365D02*
X006912Y014365D01*
X006795Y014207D02*
X007482Y014207D01*
X006125Y013600D02*
X005625Y013600D01*
X004625Y014600D01*
X004625Y015600D01*
X003656Y016569D01*
X003976Y018011D02*
X005970Y018011D01*
X004305Y015158D02*
X004207Y015158D01*
X004265Y014999D02*
X004305Y014999D01*
X004305Y014841D02*
X004265Y014841D01*
X004265Y014682D02*
X004305Y014682D01*
X004310Y014524D02*
X004265Y014524D01*
X004265Y014365D02*
X004407Y014365D01*
X004265Y014207D02*
X004566Y014207D01*
X004724Y014048D02*
X004212Y014048D01*
X005275Y010086D02*
X005453Y010086D01*
X009605Y013731D02*
X009645Y013731D01*
X009645Y013890D02*
X009605Y013890D01*
X009605Y014048D02*
X009645Y014048D01*
X009645Y014120D02*
X010175Y014120D01*
X010175Y014143D01*
X010161Y014229D01*
X010135Y014311D01*
X010095Y014388D01*
X010045Y014458D01*
X009983Y014520D01*
X009913Y014570D01*
X009836Y014610D01*
X009754Y014636D01*
X009668Y014650D01*
X009645Y014650D01*
X009645Y014120D01*
X009645Y014207D02*
X009605Y014207D01*
X009605Y014365D02*
X009645Y014365D01*
X009645Y014524D02*
X009605Y014524D01*
X009978Y014524D02*
X011624Y014524D01*
X011466Y014365D02*
X010107Y014365D01*
X010165Y014207D02*
X011307Y014207D01*
X011149Y014048D02*
X010174Y014048D01*
X010135Y013890D02*
X010990Y013890D01*
X010855Y013731D02*
X010034Y013731D01*
X016230Y010403D02*
X016420Y010403D01*
X016296Y010244D02*
X016284Y010244D01*
X016830Y010403D02*
X016987Y010403D01*
X016960Y010244D02*
X016954Y010244D01*
X019212Y008184D02*
X020575Y008184D01*
X020575Y008342D02*
X019458Y008342D01*
X019536Y008501D02*
X020577Y008501D01*
X020703Y008659D02*
X019543Y008659D01*
X019885Y009769D02*
X020602Y009769D01*
X011251Y003112D02*
X004182Y003112D01*
X004205Y003270D02*
X011101Y003270D01*
X004944Y002478D02*
X002625Y002478D01*
X002625Y002319D02*
X004763Y002319D01*
X004707Y002161D02*
X002625Y002161D01*
X002625Y002002D02*
X004713Y002002D01*
X004790Y001844D02*
X003446Y001844D01*
X003685Y001685D02*
X005034Y001685D01*
X002804Y001844D02*
X002625Y001844D01*
D24*
X011825Y010450D03*
X011125Y010600D03*
X013825Y009900D03*
X013947Y010472D03*
X015925Y010200D03*
X016625Y010100D03*
X013925Y012750D03*
X015625Y015100D03*
D25*
X012625Y015100D01*
X011125Y013600D01*
X011125Y010600D01*
X011825Y010450D02*
X011825Y013300D01*
X012625Y014100D01*
X016125Y014100D01*
X017125Y015100D01*
X017125Y016100D01*
X013925Y012750D02*
X013925Y010472D01*
X013947Y010472D01*
X014125Y010294D01*
X014125Y009750D01*
X013975Y009600D01*
X013975Y009250D01*
X014225Y009000D01*
X014775Y009000D01*
X016675Y007100D01*
X016625Y006600D02*
X017125Y006600D01*
X016625Y006600D02*
X014625Y008600D01*
X014125Y008600D01*
X013625Y009100D01*
X013625Y009700D01*
X013825Y009900D01*
X015925Y010200D02*
X015925Y008800D01*
X016625Y008100D01*
X018625Y008100D01*
X019125Y008600D01*
X019125Y009100D02*
X021125Y009100D01*
X016625Y009100D02*
X016625Y010100D01*
X003656Y016569D02*
X003625Y016569D01*
D26*
X016675Y007100D03*
X017125Y006600D03*
D27*
X005684Y009600D02*
X005195Y009600D01*
X003625Y011170D01*
X003625Y014600D01*
X003875Y017600D02*
X006125Y017600D01*
X007125Y018600D01*
M02*
