%
M48
M72
T01C0.0118
T02C0.0197
T03C0.0236
T04C0.0320
T05C0.0394
T06C0.0400
T07C0.0440
T08C0.0512
T09C0.1260
T10C0.1378
%
T01
X11125Y10600
X11825Y10450
X13825Y9900
X13947Y10472
X15925Y10200
X16625Y10100
X13925Y12750
X15625Y15100
T02
X16675Y7100
X17125Y6600
T03
X3875Y17600
X4375Y18600
X7125Y18600
X7375Y17600
X7625Y14600
X12625Y8600
X14475Y9600
X16625Y9100
X19125Y9100
X19125Y8600
X19625Y10100
X14475Y12300
X17125Y16100
X5125Y5600
X7625Y3100
X7125Y1100
X5125Y1100
X4625Y1600
X5125Y2100
T04
X6625Y5600
X7625Y5600
X9125Y4100
X10125Y4100
X6125Y7600
X5125Y7600
X7125Y9100
X7875Y9600
X7125Y10100
X10625Y15600
X11625Y15600
X17625Y17600
X18375Y17100
X18375Y18100
T05
X5684Y8419
X5684Y9600
X5684Y10781
T06
X9125Y6100
X9125Y7100
X10125Y7100
X11125Y7600
X12125Y7600
X11625Y6600
X11625Y5600
X11625Y4600
X11625Y3600
X11625Y2600
X11625Y1600
X14625Y1600
X14625Y2600
X14625Y3600
X14625Y4600
X14625Y5600
X14625Y6600
X15625Y5100
X15625Y4100
X15625Y3100
X15625Y2100
X18125Y1600
X18125Y2600
X18125Y3600
X18125Y4600
X18125Y5600
X20125Y5600
X20125Y4600
X20125Y3600
X20125Y2600
X21125Y8100
X21125Y9100
X21125Y10100
X21125Y11100
X21125Y13100
X21125Y14100
X21125Y15100
X21125Y16100
X21125Y17100
X19625Y17100
X19625Y18100
X16625Y17600
X18625Y14100
X17625Y13100
X17625Y12100
X17625Y10100
X17625Y9100
X10125Y6100
X9625Y9100
X9625Y10100
X9625Y11100
X9625Y12100
X9625Y14100
X6125Y13600
X6125Y12600
X6125Y14600
T07
X13625Y18600
X15625Y18600
X15625Y16600
X13625Y16600
T08
X3625Y3600
X3625Y5569
X3625Y14600
X3625Y16569
X9125Y18100
X11094Y18100
T09
X3125Y1100
X3125Y18800
T10
X20825Y18800
X20825Y1100
M30
