G75*
G70*
%OFA0B0*%
%FSLAX24Y24*%
%IPPOS*%
%LPD*%
%AMOC8*
5,1,8,0,0,1.08239X$1,22.5*
%
%ADD10C,0.0000*%
%ADD11C,0.0060*%
%ADD12C,0.0040*%
%ADD13C,0.0030*%
%ADD14C,0.0050*%
%ADD15R,0.0118X0.0059*%
%ADD16R,0.0118X0.0118*%
%ADD17R,0.0236X0.0531*%
%ADD18R,0.1634X0.0030*%
%ADD19R,0.0049X0.0591*%
%ADD20R,0.0197X0.0591*%
%ADD21C,0.0020*%
%ADD22R,0.0256X0.0551*%
%ADD23C,0.0080*%
%ADD24C,0.0010*%
%ADD25R,0.0295X0.0571*%
%ADD26R,0.0200X0.1000*%
%ADD27R,0.0200X0.0200*%
%ADD28C,0.0100*%
%ADD29C,0.0240*%
%ADD30R,0.0300X0.4200*%
%ADD31R,0.0200X0.0750*%
%ADD32R,0.0200X0.0300*%
%ADD33R,0.0200X0.0700*%
%ADD34R,0.0295X0.0335*%
%ADD35R,0.0354X0.0531*%
%ADD36R,0.0230X0.0180*%
D10*
X002125Y000100D02*
X002125Y019785D01*
X021810Y019785D01*
X021810Y000100D01*
X002125Y000100D01*
X002495Y001100D02*
X002497Y001150D01*
X002503Y001200D01*
X002513Y001249D01*
X002527Y001297D01*
X002544Y001344D01*
X002565Y001389D01*
X002590Y001433D01*
X002618Y001474D01*
X002650Y001513D01*
X002684Y001550D01*
X002721Y001584D01*
X002761Y001614D01*
X002803Y001641D01*
X002847Y001665D01*
X002893Y001686D01*
X002940Y001702D01*
X002988Y001715D01*
X003038Y001724D01*
X003087Y001729D01*
X003138Y001730D01*
X003188Y001727D01*
X003237Y001720D01*
X003286Y001709D01*
X003334Y001694D01*
X003380Y001676D01*
X003425Y001654D01*
X003468Y001628D01*
X003509Y001599D01*
X003548Y001567D01*
X003584Y001532D01*
X003616Y001494D01*
X003646Y001454D01*
X003673Y001411D01*
X003696Y001367D01*
X003715Y001321D01*
X003731Y001273D01*
X003743Y001224D01*
X003751Y001175D01*
X003755Y001125D01*
X003755Y001075D01*
X003751Y001025D01*
X003743Y000976D01*
X003731Y000927D01*
X003715Y000879D01*
X003696Y000833D01*
X003673Y000789D01*
X003646Y000746D01*
X003616Y000706D01*
X003584Y000668D01*
X003548Y000633D01*
X003509Y000601D01*
X003468Y000572D01*
X003425Y000546D01*
X003380Y000524D01*
X003334Y000506D01*
X003286Y000491D01*
X003237Y000480D01*
X003188Y000473D01*
X003138Y000470D01*
X003087Y000471D01*
X003038Y000476D01*
X002988Y000485D01*
X002940Y000498D01*
X002893Y000514D01*
X002847Y000535D01*
X002803Y000559D01*
X002761Y000586D01*
X002721Y000616D01*
X002684Y000650D01*
X002650Y000687D01*
X002618Y000726D01*
X002590Y000767D01*
X002565Y000811D01*
X002544Y000856D01*
X002527Y000903D01*
X002513Y000951D01*
X002503Y001000D01*
X002497Y001050D01*
X002495Y001100D01*
X006005Y002020D02*
X006008Y001999D01*
X006014Y001979D01*
X006024Y001961D01*
X006036Y001944D01*
X006052Y001930D01*
X006069Y001919D01*
X006089Y001911D01*
X006109Y001906D01*
X006130Y001905D01*
X006151Y001908D01*
X006171Y001914D01*
X006189Y001924D01*
X006206Y001936D01*
X006220Y001952D01*
X006231Y001969D01*
X006239Y001989D01*
X006244Y002009D01*
X006245Y002030D01*
X006175Y001920D02*
X006156Y001913D01*
X006135Y001909D01*
X006115Y001909D01*
X006094Y001913D01*
X006075Y001920D01*
X008505Y002210D02*
X008507Y002189D01*
X008512Y002169D01*
X008521Y002150D01*
X008533Y002133D01*
X008548Y002118D01*
X008565Y002106D01*
X008584Y002097D01*
X008604Y002092D01*
X008625Y002090D01*
X008646Y002092D01*
X008666Y002097D01*
X008685Y002106D01*
X008702Y002118D01*
X008717Y002133D01*
X008729Y002150D01*
X008738Y002169D01*
X008743Y002189D01*
X008745Y002210D01*
X008743Y002189D01*
X008738Y002169D01*
X008729Y002150D01*
X008717Y002133D01*
X008702Y002118D01*
X008685Y002106D01*
X008666Y002097D01*
X008646Y002092D01*
X008625Y002090D01*
X008604Y002092D01*
X008584Y002097D01*
X008565Y002106D01*
X008548Y002118D01*
X008533Y002133D01*
X008521Y002150D01*
X008512Y002169D01*
X008507Y002189D01*
X008505Y002210D01*
X020136Y001100D02*
X020138Y001152D01*
X020144Y001204D01*
X020154Y001255D01*
X020167Y001305D01*
X020185Y001355D01*
X020206Y001402D01*
X020230Y001448D01*
X020259Y001492D01*
X020290Y001534D01*
X020324Y001573D01*
X020361Y001610D01*
X020401Y001643D01*
X020444Y001674D01*
X020488Y001701D01*
X020534Y001725D01*
X020583Y001745D01*
X020632Y001761D01*
X020683Y001774D01*
X020734Y001783D01*
X020786Y001788D01*
X020838Y001789D01*
X020890Y001786D01*
X020942Y001779D01*
X020993Y001768D01*
X021043Y001754D01*
X021092Y001735D01*
X021139Y001713D01*
X021184Y001688D01*
X021228Y001659D01*
X021269Y001627D01*
X021308Y001592D01*
X021343Y001554D01*
X021376Y001513D01*
X021406Y001471D01*
X021432Y001426D01*
X021455Y001379D01*
X021474Y001330D01*
X021490Y001280D01*
X021502Y001230D01*
X021510Y001178D01*
X021514Y001126D01*
X021514Y001074D01*
X021510Y001022D01*
X021502Y000970D01*
X021490Y000920D01*
X021474Y000870D01*
X021455Y000821D01*
X021432Y000774D01*
X021406Y000729D01*
X021376Y000687D01*
X021343Y000646D01*
X021308Y000608D01*
X021269Y000573D01*
X021228Y000541D01*
X021184Y000512D01*
X021139Y000487D01*
X021092Y000465D01*
X021043Y000446D01*
X020993Y000432D01*
X020942Y000421D01*
X020890Y000414D01*
X020838Y000411D01*
X020786Y000412D01*
X020734Y000417D01*
X020683Y000426D01*
X020632Y000439D01*
X020583Y000455D01*
X020534Y000475D01*
X020488Y000499D01*
X020444Y000526D01*
X020401Y000557D01*
X020361Y000590D01*
X020324Y000627D01*
X020290Y000666D01*
X020259Y000708D01*
X020230Y000752D01*
X020206Y000798D01*
X020185Y000845D01*
X020167Y000895D01*
X020154Y000945D01*
X020144Y000996D01*
X020138Y001048D01*
X020136Y001100D01*
X020136Y018800D02*
X020138Y018852D01*
X020144Y018904D01*
X020154Y018955D01*
X020167Y019005D01*
X020185Y019055D01*
X020206Y019102D01*
X020230Y019148D01*
X020259Y019192D01*
X020290Y019234D01*
X020324Y019273D01*
X020361Y019310D01*
X020401Y019343D01*
X020444Y019374D01*
X020488Y019401D01*
X020534Y019425D01*
X020583Y019445D01*
X020632Y019461D01*
X020683Y019474D01*
X020734Y019483D01*
X020786Y019488D01*
X020838Y019489D01*
X020890Y019486D01*
X020942Y019479D01*
X020993Y019468D01*
X021043Y019454D01*
X021092Y019435D01*
X021139Y019413D01*
X021184Y019388D01*
X021228Y019359D01*
X021269Y019327D01*
X021308Y019292D01*
X021343Y019254D01*
X021376Y019213D01*
X021406Y019171D01*
X021432Y019126D01*
X021455Y019079D01*
X021474Y019030D01*
X021490Y018980D01*
X021502Y018930D01*
X021510Y018878D01*
X021514Y018826D01*
X021514Y018774D01*
X021510Y018722D01*
X021502Y018670D01*
X021490Y018620D01*
X021474Y018570D01*
X021455Y018521D01*
X021432Y018474D01*
X021406Y018429D01*
X021376Y018387D01*
X021343Y018346D01*
X021308Y018308D01*
X021269Y018273D01*
X021228Y018241D01*
X021184Y018212D01*
X021139Y018187D01*
X021092Y018165D01*
X021043Y018146D01*
X020993Y018132D01*
X020942Y018121D01*
X020890Y018114D01*
X020838Y018111D01*
X020786Y018112D01*
X020734Y018117D01*
X020683Y018126D01*
X020632Y018139D01*
X020583Y018155D01*
X020534Y018175D01*
X020488Y018199D01*
X020444Y018226D01*
X020401Y018257D01*
X020361Y018290D01*
X020324Y018327D01*
X020290Y018366D01*
X020259Y018408D01*
X020230Y018452D01*
X020206Y018498D01*
X020185Y018545D01*
X020167Y018595D01*
X020154Y018645D01*
X020144Y018696D01*
X020138Y018748D01*
X020136Y018800D01*
X002495Y018800D02*
X002497Y018850D01*
X002503Y018900D01*
X002513Y018949D01*
X002527Y018997D01*
X002544Y019044D01*
X002565Y019089D01*
X002590Y019133D01*
X002618Y019174D01*
X002650Y019213D01*
X002684Y019250D01*
X002721Y019284D01*
X002761Y019314D01*
X002803Y019341D01*
X002847Y019365D01*
X002893Y019386D01*
X002940Y019402D01*
X002988Y019415D01*
X003038Y019424D01*
X003087Y019429D01*
X003138Y019430D01*
X003188Y019427D01*
X003237Y019420D01*
X003286Y019409D01*
X003334Y019394D01*
X003380Y019376D01*
X003425Y019354D01*
X003468Y019328D01*
X003509Y019299D01*
X003548Y019267D01*
X003584Y019232D01*
X003616Y019194D01*
X003646Y019154D01*
X003673Y019111D01*
X003696Y019067D01*
X003715Y019021D01*
X003731Y018973D01*
X003743Y018924D01*
X003751Y018875D01*
X003755Y018825D01*
X003755Y018775D01*
X003751Y018725D01*
X003743Y018676D01*
X003731Y018627D01*
X003715Y018579D01*
X003696Y018533D01*
X003673Y018489D01*
X003646Y018446D01*
X003616Y018406D01*
X003584Y018368D01*
X003548Y018333D01*
X003509Y018301D01*
X003468Y018272D01*
X003425Y018246D01*
X003380Y018224D01*
X003334Y018206D01*
X003286Y018191D01*
X003237Y018180D01*
X003188Y018173D01*
X003138Y018170D01*
X003087Y018171D01*
X003038Y018176D01*
X002988Y018185D01*
X002940Y018198D01*
X002893Y018214D01*
X002847Y018235D01*
X002803Y018259D01*
X002761Y018286D01*
X002721Y018316D01*
X002684Y018350D01*
X002650Y018387D01*
X002618Y018426D01*
X002590Y018467D01*
X002565Y018511D01*
X002544Y018556D01*
X002527Y018603D01*
X002513Y018651D01*
X002503Y018700D01*
X002497Y018750D01*
X002495Y018800D01*
D11*
X002605Y016300D02*
X002605Y015340D01*
X002845Y015580D01*
X002845Y016060D01*
X002605Y016300D01*
X002845Y016060D02*
X003085Y016060D01*
X003085Y015580D01*
X002845Y015580D01*
X003565Y014020D02*
X003565Y013540D01*
X003325Y013780D02*
X003805Y013780D01*
X007964Y013850D02*
X008286Y013850D01*
X008286Y013350D02*
X007964Y013350D01*
X007964Y012350D02*
X008286Y012350D01*
X008286Y011850D02*
X007964Y011850D01*
X009125Y012000D02*
X009175Y012000D01*
X009375Y012000D01*
X009875Y012000D01*
X010075Y012000D01*
X010125Y012000D01*
X010125Y012200D01*
X010075Y012200D01*
X009875Y012200D01*
X009375Y012200D01*
X009175Y012200D01*
X009125Y012200D01*
X009125Y012000D01*
X009375Y012000D02*
X009375Y012200D01*
X009875Y012200D02*
X009875Y012000D01*
X009875Y011200D02*
X009375Y011200D01*
X009175Y011200D01*
X009125Y011200D01*
X009125Y011000D01*
X009175Y011000D01*
X009375Y011000D01*
X009875Y011000D01*
X010075Y011000D01*
X010125Y011000D01*
X010125Y011200D01*
X010075Y011200D01*
X009875Y011200D01*
X009875Y011000D01*
X009375Y011000D02*
X009375Y011200D01*
X009375Y010200D02*
X009175Y010200D01*
X009125Y010200D01*
X009125Y010000D01*
X009175Y010000D01*
X009375Y010000D01*
X009875Y010000D01*
X010075Y010000D01*
X010125Y010000D01*
X010125Y010200D01*
X010075Y010200D01*
X009875Y010200D01*
X009375Y010200D01*
X009375Y010000D01*
X009875Y010000D02*
X009875Y010200D01*
X009875Y009200D02*
X009375Y009200D01*
X009175Y009200D01*
X009125Y009200D01*
X009125Y009000D01*
X009175Y009000D01*
X009375Y009000D01*
X009875Y009000D01*
X010075Y009000D01*
X010125Y009000D01*
X010125Y009200D01*
X010075Y009200D01*
X009875Y009200D01*
X009875Y009000D01*
X009375Y009000D02*
X009375Y009200D01*
X007025Y006100D02*
X006825Y006100D01*
X006825Y005600D01*
X006825Y005100D01*
X007025Y005100D01*
X007025Y006100D01*
X005775Y005600D02*
X005777Y005673D01*
X005783Y005746D01*
X005793Y005818D01*
X005807Y005890D01*
X005824Y005961D01*
X005846Y006031D01*
X005871Y006100D01*
X005900Y006167D01*
X005932Y006232D01*
X005968Y006296D01*
X006008Y006358D01*
X006050Y006417D01*
X006096Y006474D01*
X006145Y006528D01*
X006197Y006580D01*
X006251Y006629D01*
X006308Y006675D01*
X006367Y006717D01*
X006429Y006757D01*
X006493Y006793D01*
X006558Y006825D01*
X006625Y006854D01*
X006694Y006879D01*
X006764Y006901D01*
X006835Y006918D01*
X006907Y006932D01*
X006979Y006942D01*
X007052Y006948D01*
X007125Y006950D01*
X007198Y006948D01*
X007271Y006942D01*
X007343Y006932D01*
X007415Y006918D01*
X007486Y006901D01*
X007556Y006879D01*
X007625Y006854D01*
X007692Y006825D01*
X007757Y006793D01*
X007821Y006757D01*
X007883Y006717D01*
X007942Y006675D01*
X007999Y006629D01*
X008053Y006580D01*
X008105Y006528D01*
X008154Y006474D01*
X008200Y006417D01*
X008242Y006358D01*
X008282Y006296D01*
X008318Y006232D01*
X008350Y006167D01*
X008379Y006100D01*
X008404Y006031D01*
X008426Y005961D01*
X008443Y005890D01*
X008457Y005818D01*
X008467Y005746D01*
X008473Y005673D01*
X008475Y005600D01*
X008473Y005527D01*
X008467Y005454D01*
X008457Y005382D01*
X008443Y005310D01*
X008426Y005239D01*
X008404Y005169D01*
X008379Y005100D01*
X008350Y005033D01*
X008318Y004968D01*
X008282Y004904D01*
X008242Y004842D01*
X008200Y004783D01*
X008154Y004726D01*
X008105Y004672D01*
X008053Y004620D01*
X007999Y004571D01*
X007942Y004525D01*
X007883Y004483D01*
X007821Y004443D01*
X007757Y004407D01*
X007692Y004375D01*
X007625Y004346D01*
X007556Y004321D01*
X007486Y004299D01*
X007415Y004282D01*
X007343Y004268D01*
X007271Y004258D01*
X007198Y004252D01*
X007125Y004250D01*
X007052Y004252D01*
X006979Y004258D01*
X006907Y004268D01*
X006835Y004282D01*
X006764Y004299D01*
X006694Y004321D01*
X006625Y004346D01*
X006558Y004375D01*
X006493Y004407D01*
X006429Y004443D01*
X006367Y004483D01*
X006308Y004525D01*
X006251Y004571D01*
X006197Y004620D01*
X006145Y004672D01*
X006096Y004726D01*
X006050Y004783D01*
X006008Y004842D01*
X005968Y004904D01*
X005932Y004968D01*
X005900Y005033D01*
X005871Y005100D01*
X005846Y005169D01*
X005824Y005239D01*
X005807Y005310D01*
X005793Y005382D01*
X005783Y005454D01*
X005777Y005527D01*
X005775Y005600D01*
X005925Y005600D02*
X006225Y005600D01*
X006075Y005450D02*
X006075Y005750D01*
X006475Y005600D02*
X006825Y005600D01*
X007375Y005600D02*
X007775Y005600D01*
X008975Y004100D02*
X009375Y004100D01*
X008275Y004100D02*
X008277Y004173D01*
X008283Y004246D01*
X008293Y004318D01*
X008307Y004390D01*
X008324Y004461D01*
X008346Y004531D01*
X008371Y004600D01*
X008400Y004667D01*
X008432Y004732D01*
X008468Y004796D01*
X008508Y004858D01*
X008550Y004917D01*
X008596Y004974D01*
X008645Y005028D01*
X008697Y005080D01*
X008751Y005129D01*
X008808Y005175D01*
X008867Y005217D01*
X008929Y005257D01*
X008993Y005293D01*
X009058Y005325D01*
X009125Y005354D01*
X009194Y005379D01*
X009264Y005401D01*
X009335Y005418D01*
X009407Y005432D01*
X009479Y005442D01*
X009552Y005448D01*
X009625Y005450D01*
X009698Y005448D01*
X009771Y005442D01*
X009843Y005432D01*
X009915Y005418D01*
X009986Y005401D01*
X010056Y005379D01*
X010125Y005354D01*
X010192Y005325D01*
X010257Y005293D01*
X010321Y005257D01*
X010383Y005217D01*
X010442Y005175D01*
X010499Y005129D01*
X010553Y005080D01*
X010605Y005028D01*
X010654Y004974D01*
X010700Y004917D01*
X010742Y004858D01*
X010782Y004796D01*
X010818Y004732D01*
X010850Y004667D01*
X010879Y004600D01*
X010904Y004531D01*
X010926Y004461D01*
X010943Y004390D01*
X010957Y004318D01*
X010967Y004246D01*
X010973Y004173D01*
X010975Y004100D01*
X010973Y004027D01*
X010967Y003954D01*
X010957Y003882D01*
X010943Y003810D01*
X010926Y003739D01*
X010904Y003669D01*
X010879Y003600D01*
X010850Y003533D01*
X010818Y003468D01*
X010782Y003404D01*
X010742Y003342D01*
X010700Y003283D01*
X010654Y003226D01*
X010605Y003172D01*
X010553Y003120D01*
X010499Y003071D01*
X010442Y003025D01*
X010383Y002983D01*
X010321Y002943D01*
X010257Y002907D01*
X010192Y002875D01*
X010125Y002846D01*
X010056Y002821D01*
X009986Y002799D01*
X009915Y002782D01*
X009843Y002768D01*
X009771Y002758D01*
X009698Y002752D01*
X009625Y002750D01*
X009552Y002752D01*
X009479Y002758D01*
X009407Y002768D01*
X009335Y002782D01*
X009264Y002799D01*
X009194Y002821D01*
X009125Y002846D01*
X009058Y002875D01*
X008993Y002907D01*
X008929Y002943D01*
X008867Y002983D01*
X008808Y003025D01*
X008751Y003071D01*
X008697Y003120D01*
X008645Y003172D01*
X008596Y003226D01*
X008550Y003283D01*
X008508Y003342D01*
X008468Y003404D01*
X008432Y003468D01*
X008400Y003533D01*
X008371Y003600D01*
X008346Y003669D01*
X008324Y003739D01*
X008307Y003810D01*
X008293Y003882D01*
X008283Y003954D01*
X008277Y004027D01*
X008275Y004100D01*
X009725Y003600D02*
X009925Y003600D01*
X009925Y004100D01*
X009925Y004600D01*
X009725Y004600D01*
X009725Y003600D01*
X009925Y004100D02*
X010275Y004100D01*
X010525Y004100D02*
X010825Y004100D01*
X010675Y004250D02*
X010675Y003950D01*
X009235Y002210D02*
X008745Y002210D01*
X008505Y002210D01*
X008015Y002210D01*
X008015Y000990D01*
X009235Y000990D01*
X009235Y002210D01*
X008745Y002210D01*
X008505Y002210D01*
X008015Y002210D01*
X008015Y002060D02*
X007625Y002060D01*
X007625Y001910D01*
X008015Y001910D01*
X008015Y002060D01*
X008015Y001800D02*
X007625Y001800D01*
X007625Y001650D01*
X008015Y001650D01*
X008015Y001800D01*
X008015Y001550D02*
X007625Y001550D01*
X007635Y001400D01*
X008015Y001400D01*
X008015Y001550D01*
X008015Y001290D02*
X007625Y001290D01*
X007635Y001140D01*
X008015Y001140D01*
X008015Y001290D01*
X008015Y000990D02*
X009235Y000990D01*
X009235Y001140D02*
X009625Y001140D01*
X009625Y001290D01*
X009235Y001290D01*
X009235Y001140D01*
X009235Y001400D02*
X009625Y001400D01*
X009625Y001550D01*
X009235Y001550D01*
X009235Y001400D01*
X009235Y001650D02*
X009625Y001650D01*
X009625Y001800D01*
X009235Y001800D01*
X009235Y001650D01*
X009235Y001910D02*
X009625Y001910D01*
X009615Y002060D01*
X009235Y002060D01*
X009235Y001910D01*
X006595Y001920D02*
X006405Y001920D01*
X006405Y001800D01*
X006595Y001800D01*
X006595Y001920D01*
X006405Y001920D02*
X006405Y002020D01*
X006005Y002020D01*
X005845Y002020D01*
X005845Y001920D01*
X005655Y001920D01*
X005655Y001800D01*
X005845Y001800D01*
X005845Y001660D01*
X005655Y001660D01*
X005655Y001540D01*
X005845Y001540D01*
X005845Y001400D01*
X005655Y001400D01*
X005655Y001280D01*
X005845Y001280D01*
X005845Y001400D01*
X005845Y001280D02*
X005845Y001180D01*
X006405Y001180D01*
X006405Y001280D01*
X006595Y001280D01*
X006595Y001400D01*
X006405Y001400D01*
X006405Y001800D01*
X006405Y001650D02*
X006405Y001550D01*
X006405Y001400D02*
X006405Y001280D01*
X006215Y001180D02*
X006035Y001180D01*
X005845Y001540D02*
X005845Y001660D01*
X005845Y001800D02*
X005845Y001920D01*
X006035Y002020D02*
X006215Y002020D01*
X004158Y006130D02*
X004371Y006344D01*
X004371Y006771D01*
X003944Y006771D02*
X003944Y006344D01*
X004158Y006130D01*
X003727Y006237D02*
X003620Y006130D01*
X003406Y006130D01*
X003300Y006237D01*
X003300Y006450D02*
X003513Y006557D01*
X003620Y006557D01*
X003727Y006450D01*
X003727Y006237D01*
X003300Y006450D02*
X003300Y006771D01*
X003727Y006771D01*
X003082Y006450D02*
X002655Y006450D01*
X002869Y006237D02*
X002869Y006664D01*
X004725Y007600D02*
X004727Y007640D01*
X004733Y007679D01*
X004743Y007718D01*
X004756Y007755D01*
X004774Y007791D01*
X004795Y007825D01*
X004819Y007857D01*
X004846Y007886D01*
X004876Y007913D01*
X004908Y007936D01*
X004943Y007956D01*
X004979Y007972D01*
X005017Y007985D01*
X005056Y007994D01*
X005095Y007999D01*
X005135Y008000D01*
X005175Y007997D01*
X005214Y007990D01*
X005252Y007979D01*
X005290Y007965D01*
X005325Y007946D01*
X005358Y007925D01*
X005390Y007900D01*
X005418Y007872D01*
X005444Y007842D01*
X005466Y007809D01*
X005485Y007774D01*
X005501Y007737D01*
X005513Y007699D01*
X005521Y007660D01*
X005525Y007620D01*
X005525Y007580D01*
X005521Y007540D01*
X005513Y007501D01*
X005501Y007463D01*
X005485Y007426D01*
X005466Y007391D01*
X005444Y007358D01*
X005418Y007328D01*
X005390Y007300D01*
X005358Y007275D01*
X005325Y007254D01*
X005290Y007235D01*
X005252Y007221D01*
X005214Y007210D01*
X005175Y007203D01*
X005135Y007200D01*
X005095Y007201D01*
X005056Y007206D01*
X005017Y007215D01*
X004979Y007228D01*
X004943Y007244D01*
X004908Y007264D01*
X004876Y007287D01*
X004846Y007314D01*
X004819Y007343D01*
X004795Y007375D01*
X004774Y007409D01*
X004756Y007445D01*
X004743Y007482D01*
X004733Y007521D01*
X004727Y007560D01*
X004725Y007600D01*
X004625Y007600D02*
X004627Y007644D01*
X004633Y007688D01*
X004643Y007731D01*
X004656Y007773D01*
X004673Y007814D01*
X004694Y007853D01*
X004718Y007890D01*
X004745Y007925D01*
X004775Y007957D01*
X004808Y007987D01*
X004844Y008013D01*
X004881Y008037D01*
X004921Y008056D01*
X004962Y008073D01*
X005005Y008085D01*
X005048Y008094D01*
X005092Y008099D01*
X005136Y008100D01*
X005180Y008097D01*
X005224Y008090D01*
X005267Y008079D01*
X005309Y008065D01*
X005349Y008047D01*
X005388Y008025D01*
X005424Y008001D01*
X005458Y007973D01*
X005490Y007942D01*
X005519Y007908D01*
X005545Y007872D01*
X005567Y007834D01*
X005586Y007794D01*
X005601Y007752D01*
X005613Y007710D01*
X005621Y007666D01*
X005625Y007622D01*
X005625Y007578D01*
X005621Y007534D01*
X005613Y007490D01*
X005601Y007448D01*
X005586Y007406D01*
X005567Y007366D01*
X005545Y007328D01*
X005519Y007292D01*
X005490Y007258D01*
X005458Y007227D01*
X005424Y007199D01*
X005388Y007175D01*
X005349Y007153D01*
X005309Y007135D01*
X005267Y007121D01*
X005224Y007110D01*
X005180Y007103D01*
X005136Y007100D01*
X005092Y007101D01*
X005048Y007106D01*
X005005Y007115D01*
X004962Y007127D01*
X004921Y007144D01*
X004881Y007163D01*
X004844Y007187D01*
X004808Y007213D01*
X004775Y007243D01*
X004745Y007275D01*
X004718Y007310D01*
X004694Y007347D01*
X004673Y007386D01*
X004656Y007427D01*
X004643Y007469D01*
X004633Y007512D01*
X004627Y007556D01*
X004625Y007600D01*
X010964Y013850D02*
X011286Y013850D01*
X011286Y014350D02*
X010964Y014350D01*
X013125Y016250D02*
X013125Y018950D01*
X013275Y019100D01*
X015975Y019100D01*
X016125Y018950D01*
X016125Y016250D01*
X015975Y016100D01*
X013275Y016100D01*
X013125Y016250D01*
X013625Y017100D02*
X013625Y018100D01*
X014125Y018600D02*
X014375Y018600D01*
X014375Y018750D02*
X014875Y018600D01*
X015125Y018600D01*
X014625Y018500D02*
X014625Y018100D01*
X014625Y017950D02*
X014625Y017550D01*
X014625Y017400D02*
X014625Y017000D01*
X014625Y016850D02*
X014625Y016700D01*
X014375Y016750D02*
X014875Y016600D01*
X015125Y016600D01*
X015625Y017100D02*
X015625Y018100D01*
X014375Y016600D02*
X014125Y016600D01*
X013964Y013850D02*
X014286Y013850D01*
X014286Y013350D02*
X013964Y013350D01*
X017125Y013200D02*
X017125Y013000D01*
X017175Y013000D01*
X017375Y013000D01*
X017875Y013000D01*
X018075Y013000D01*
X018125Y013000D01*
X018125Y013200D01*
X018075Y013200D01*
X017875Y013200D01*
X017375Y013200D01*
X017175Y013200D01*
X017125Y013200D01*
X017375Y013200D02*
X017375Y013000D01*
X017875Y013000D02*
X017875Y013200D01*
X017875Y012200D02*
X017375Y012200D01*
X017175Y012200D01*
X017125Y012200D01*
X017125Y012000D01*
X017175Y012000D01*
X017375Y012000D01*
X017875Y012000D01*
X018075Y012000D01*
X018125Y012000D01*
X018125Y012200D01*
X018075Y012200D01*
X017875Y012200D01*
X017875Y012000D01*
X017375Y012000D02*
X017375Y012200D01*
X017375Y010200D02*
X017175Y010200D01*
X017125Y010200D01*
X017125Y010000D01*
X017175Y010000D01*
X017375Y010000D01*
X017875Y010000D01*
X018075Y010000D01*
X018125Y010000D01*
X018125Y010200D01*
X018075Y010200D01*
X017875Y010200D01*
X017375Y010200D01*
X017375Y010000D01*
X017875Y010000D02*
X017875Y010200D01*
X017875Y009200D02*
X017375Y009200D01*
X017175Y009200D01*
X017125Y009200D01*
X017125Y009000D01*
X017175Y009000D01*
X017375Y009000D01*
X017875Y009000D01*
X018075Y009000D01*
X018125Y009000D01*
X018125Y009200D01*
X018075Y009200D01*
X017875Y009200D01*
X017875Y009000D01*
X017375Y009000D02*
X017375Y009200D01*
X013286Y006850D02*
X012964Y006850D01*
X012964Y006350D02*
X013286Y006350D01*
X013286Y005850D02*
X012964Y005850D01*
X012964Y005350D02*
X013286Y005350D01*
X013286Y004850D02*
X012964Y004850D01*
X012964Y004350D02*
X013286Y004350D01*
X013286Y003850D02*
X012964Y003850D01*
X012964Y003350D02*
X013286Y003350D01*
X013286Y002850D02*
X012964Y002850D01*
X012964Y002350D02*
X013286Y002350D01*
X013286Y001850D02*
X012964Y001850D01*
X012964Y001350D02*
X013286Y001350D01*
X008286Y015350D02*
X007964Y015350D01*
X007964Y015850D02*
X008286Y015850D01*
X009205Y018700D02*
X009565Y018700D01*
X009567Y018721D01*
X009573Y018742D01*
X009582Y018762D01*
X009595Y018779D01*
X009610Y018794D01*
X009628Y018806D01*
X009648Y018814D01*
X009669Y018819D01*
X009690Y018820D01*
X009712Y018817D01*
X009732Y018810D01*
X009751Y018800D01*
X009768Y018787D01*
X009782Y018771D01*
X009793Y018752D01*
X009801Y018732D01*
X009805Y018711D01*
X009805Y018689D01*
X009801Y018668D01*
X009793Y018648D01*
X009782Y018629D01*
X009768Y018613D01*
X009751Y018600D01*
X009732Y018590D01*
X009712Y018583D01*
X009690Y018580D01*
X009669Y018581D01*
X009648Y018586D01*
X009628Y018594D01*
X009610Y018606D01*
X009595Y018621D01*
X009582Y018638D01*
X009573Y018658D01*
X009567Y018679D01*
X009565Y018700D01*
X009565Y018940D02*
X010165Y018940D01*
X010165Y019300D01*
X010405Y019300D01*
X010405Y019180D01*
X010165Y019300D02*
X009925Y019300D01*
X009925Y019180D01*
X010165Y018940D02*
X010765Y018940D01*
X010765Y018700D02*
X011125Y018700D01*
X010525Y018700D02*
X010527Y018721D01*
X010533Y018742D01*
X010542Y018762D01*
X010555Y018779D01*
X010570Y018794D01*
X010588Y018806D01*
X010608Y018814D01*
X010629Y018819D01*
X010650Y018820D01*
X010672Y018817D01*
X010692Y018810D01*
X010711Y018800D01*
X010728Y018787D01*
X010742Y018771D01*
X010753Y018752D01*
X010761Y018732D01*
X010765Y018711D01*
X010765Y018689D01*
X010761Y018668D01*
X010753Y018648D01*
X010742Y018629D01*
X010728Y018613D01*
X010711Y018600D01*
X010692Y018590D01*
X010672Y018583D01*
X010650Y018580D01*
X010629Y018581D01*
X010608Y018586D01*
X010588Y018594D01*
X010570Y018606D01*
X010555Y018621D01*
X010542Y018638D01*
X010533Y018658D01*
X010527Y018679D01*
X010525Y018700D01*
D12*
X008509Y016580D02*
X008509Y016120D01*
X008662Y016120D02*
X008355Y016120D01*
X008202Y016120D02*
X008048Y016273D01*
X008125Y016273D02*
X007895Y016273D01*
X007895Y016120D02*
X007895Y016580D01*
X008125Y016580D01*
X008202Y016504D01*
X008202Y016350D01*
X008125Y016273D01*
X008355Y016427D02*
X008509Y016580D01*
X006612Y017740D02*
X006305Y017740D01*
X006458Y017740D02*
X006458Y018200D01*
X006305Y018047D01*
X006151Y018124D02*
X006074Y018200D01*
X005844Y018200D01*
X005844Y017740D01*
X006074Y017740D01*
X006151Y017817D01*
X006151Y018124D01*
X005802Y018354D02*
X005448Y018354D01*
X005384Y018200D02*
X005384Y017740D01*
X005691Y017740D01*
X005712Y017474D02*
X005942Y017474D01*
X006019Y017397D01*
X006019Y017090D01*
X005942Y017014D01*
X005712Y017014D01*
X005712Y017474D01*
X006172Y017397D02*
X006249Y017474D01*
X006403Y017474D01*
X006479Y017397D01*
X006479Y017321D01*
X006172Y017014D01*
X006479Y017014D01*
X005537Y017970D02*
X005384Y017970D01*
X005384Y018200D02*
X005691Y018200D01*
X005230Y017740D02*
X004923Y017740D01*
X004923Y018200D01*
X005448Y018846D02*
X005812Y018846D01*
X006645Y019197D02*
X006722Y019120D01*
X006798Y019120D01*
X006875Y019197D01*
X006875Y019580D01*
X006798Y019580D02*
X006952Y019580D01*
X007105Y019580D02*
X007336Y019580D01*
X007412Y019504D01*
X007412Y019350D01*
X007336Y019273D01*
X007105Y019273D01*
X007105Y019120D02*
X007105Y019580D01*
X007566Y019504D02*
X007643Y019580D01*
X007796Y019580D01*
X007873Y019504D01*
X007873Y019427D01*
X007566Y019120D01*
X007873Y019120D01*
X010895Y015080D02*
X011125Y015080D01*
X011202Y015004D01*
X011202Y014850D01*
X011125Y014773D01*
X010895Y014773D01*
X010895Y014620D02*
X010895Y015080D01*
X011048Y014773D02*
X011202Y014620D01*
X011355Y014620D02*
X011662Y014927D01*
X011662Y015004D01*
X011586Y015080D01*
X011432Y015080D01*
X011355Y015004D01*
X011355Y014620D02*
X011662Y014620D01*
X011412Y013730D02*
X011105Y013730D01*
X011105Y013500D01*
X011259Y013577D01*
X011336Y013577D01*
X011412Y013500D01*
X011412Y013347D01*
X011336Y013270D01*
X011182Y013270D01*
X011105Y013347D01*
X010952Y013347D02*
X010875Y013270D01*
X010722Y013270D01*
X010645Y013347D01*
X010645Y013654D01*
X010722Y013730D01*
X010875Y013730D01*
X010952Y013654D01*
X010975Y013010D02*
X011275Y013010D01*
X011275Y012490D02*
X010985Y012490D01*
X010017Y012780D02*
X009957Y012720D01*
X009837Y012720D01*
X009777Y012780D01*
X009777Y012900D02*
X009897Y012960D01*
X009957Y012960D01*
X010017Y012900D01*
X010017Y012780D01*
X009777Y012900D02*
X009777Y013080D01*
X010017Y013080D01*
X009649Y013020D02*
X009649Y012900D01*
X009589Y012840D01*
X009408Y012840D01*
X009408Y012720D02*
X009408Y013080D01*
X009589Y013080D01*
X009649Y013020D01*
X009280Y013020D02*
X009220Y013080D01*
X009100Y013080D01*
X009040Y013020D01*
X009040Y012960D01*
X009100Y012900D01*
X009220Y012900D01*
X009280Y012840D01*
X009280Y012780D01*
X009220Y012720D01*
X009100Y012720D01*
X009040Y012780D01*
X008912Y012720D02*
X008672Y012720D01*
X008672Y013080D01*
X008242Y013080D02*
X007935Y013080D01*
X007935Y012850D01*
X008088Y012927D01*
X008165Y012927D01*
X008242Y012850D01*
X008242Y012697D01*
X008165Y012620D01*
X008011Y012620D01*
X007935Y012697D01*
X007781Y012620D02*
X007628Y012773D01*
X007704Y012773D02*
X007474Y012773D01*
X007474Y012620D02*
X007474Y013080D01*
X007704Y013080D01*
X007781Y013004D01*
X007781Y012850D01*
X007704Y012773D01*
X007704Y011580D02*
X007474Y011580D01*
X007474Y011120D01*
X007474Y011273D02*
X007704Y011273D01*
X007781Y011350D01*
X007781Y011504D01*
X007704Y011580D01*
X007628Y011273D02*
X007781Y011120D01*
X007935Y011350D02*
X008242Y011350D01*
X008165Y011120D02*
X008165Y011580D01*
X007935Y011350D01*
X010295Y011330D02*
X010295Y010970D01*
X010535Y010970D01*
X010663Y011030D02*
X010723Y010970D01*
X010843Y010970D01*
X010904Y011030D01*
X010904Y011090D01*
X010843Y011150D01*
X010723Y011150D01*
X010663Y011210D01*
X010663Y011270D01*
X010723Y011330D01*
X010843Y011330D01*
X010904Y011270D01*
X011032Y011330D02*
X011212Y011330D01*
X011272Y011270D01*
X011272Y011150D01*
X011212Y011090D01*
X011032Y011090D01*
X011032Y010970D02*
X011032Y011330D01*
X011400Y011150D02*
X011580Y011150D01*
X011640Y011090D01*
X011640Y011030D01*
X011580Y010970D01*
X011460Y010970D01*
X011400Y011030D01*
X011400Y011150D01*
X011520Y011270D01*
X011640Y011330D01*
X011590Y010530D02*
X011350Y010530D01*
X011222Y010470D02*
X011222Y010350D01*
X011162Y010290D01*
X010982Y010290D01*
X010982Y010170D02*
X010982Y010530D01*
X011162Y010530D01*
X011222Y010470D01*
X011350Y010230D02*
X011350Y010170D01*
X011350Y010230D02*
X011590Y010470D01*
X011590Y010530D01*
X010854Y010470D02*
X010793Y010530D01*
X010673Y010530D01*
X010613Y010470D01*
X010613Y010410D01*
X010673Y010350D01*
X010793Y010350D01*
X010854Y010290D01*
X010854Y010230D01*
X010793Y010170D01*
X010673Y010170D01*
X010613Y010230D01*
X010485Y010170D02*
X010245Y010170D01*
X010245Y010530D01*
X009957Y008580D02*
X009837Y008580D01*
X009777Y008520D01*
X009777Y008460D01*
X009837Y008400D01*
X009957Y008400D01*
X010017Y008340D01*
X010017Y008280D01*
X009957Y008220D01*
X009837Y008220D01*
X009777Y008280D01*
X009777Y008340D01*
X009837Y008400D01*
X009957Y008400D02*
X010017Y008460D01*
X010017Y008520D01*
X009957Y008580D01*
X009649Y008520D02*
X009649Y008400D01*
X009589Y008340D01*
X009408Y008340D01*
X009408Y008220D02*
X009408Y008580D01*
X009589Y008580D01*
X009649Y008520D01*
X009280Y008520D02*
X009220Y008580D01*
X009100Y008580D01*
X009040Y008520D01*
X009040Y008460D01*
X009100Y008400D01*
X009220Y008400D01*
X009280Y008340D01*
X009280Y008280D01*
X009220Y008220D01*
X009100Y008220D01*
X009040Y008280D01*
X008912Y008220D02*
X008672Y008220D01*
X008672Y008580D01*
X005093Y011589D02*
X004786Y011589D01*
X005093Y011895D01*
X005093Y011972D01*
X005017Y012049D01*
X004863Y012049D01*
X004786Y011972D01*
X004633Y011972D02*
X004556Y012049D01*
X004403Y012049D01*
X004326Y011972D01*
X004326Y011895D01*
X004403Y011819D01*
X004556Y011819D01*
X004633Y011742D01*
X004633Y011665D01*
X004556Y011589D01*
X004403Y011589D01*
X004326Y011665D01*
X006222Y004080D02*
X006145Y004004D01*
X006145Y003697D01*
X006222Y003620D01*
X006375Y003620D01*
X006452Y003697D01*
X006605Y003620D02*
X006912Y003620D01*
X006759Y003620D02*
X006759Y004080D01*
X006605Y003927D01*
X006452Y004004D02*
X006375Y004080D01*
X006222Y004080D01*
X006475Y003360D02*
X006775Y003360D01*
X006775Y002840D02*
X006485Y002840D01*
X013724Y007697D02*
X013801Y007620D01*
X013954Y007620D01*
X014031Y007697D01*
X014185Y007697D02*
X014261Y007620D01*
X014415Y007620D01*
X014492Y007697D01*
X014492Y007773D01*
X014415Y007850D01*
X014338Y007850D01*
X014415Y007850D02*
X014492Y007927D01*
X014492Y008004D01*
X014415Y008080D01*
X014261Y008080D01*
X014185Y008004D01*
X014031Y008004D02*
X013954Y008080D01*
X013801Y008080D01*
X013724Y008004D01*
X013724Y007697D01*
X013975Y008340D02*
X014275Y008340D01*
X014265Y008860D02*
X013975Y008860D01*
X013772Y009468D02*
X013389Y009468D01*
X013389Y009775D02*
X013772Y009775D01*
X013849Y009699D01*
X013849Y009545D01*
X013772Y009468D01*
X013849Y009929D02*
X013849Y010236D01*
X013849Y010082D02*
X013389Y010082D01*
X013542Y009929D01*
X013395Y012620D02*
X013395Y013080D01*
X013625Y013080D01*
X013702Y013004D01*
X013702Y012850D01*
X013625Y012773D01*
X013395Y012773D01*
X013548Y012773D02*
X013702Y012620D01*
X013855Y012620D02*
X014162Y012927D01*
X014162Y013004D01*
X014086Y013080D01*
X013932Y013080D01*
X013855Y013004D01*
X013855Y012620D02*
X014162Y012620D01*
X014316Y012620D02*
X014623Y012927D01*
X014623Y013004D01*
X014546Y013080D01*
X014393Y013080D01*
X014316Y013004D01*
X014316Y012620D02*
X014623Y012620D01*
X014415Y014120D02*
X014492Y014197D01*
X014492Y014273D01*
X014415Y014350D01*
X014185Y014350D01*
X014185Y014197D01*
X014261Y014120D01*
X014415Y014120D01*
X014185Y014350D02*
X014338Y014504D01*
X014492Y014580D01*
X014275Y014840D02*
X013975Y014840D01*
X013954Y014580D02*
X013801Y014580D01*
X013724Y014504D01*
X013724Y014197D01*
X013801Y014120D01*
X013954Y014120D01*
X014031Y014197D01*
X014031Y014504D02*
X013954Y014580D01*
X013975Y015360D02*
X014265Y015360D01*
X016645Y013980D02*
X016645Y013620D01*
X016885Y013620D01*
X017013Y013680D02*
X017073Y013620D01*
X017193Y013620D01*
X017254Y013680D01*
X017254Y013740D01*
X017193Y013800D01*
X017073Y013800D01*
X017013Y013860D01*
X017013Y013920D01*
X017073Y013980D01*
X017193Y013980D01*
X017254Y013920D01*
X017382Y013980D02*
X017382Y013620D01*
X017382Y013740D02*
X017562Y013740D01*
X017622Y013800D01*
X017622Y013920D01*
X017562Y013980D01*
X017382Y013980D01*
X017750Y013800D02*
X017990Y013800D01*
X017930Y013620D02*
X017930Y013980D01*
X017750Y013800D01*
X017693Y011480D02*
X017573Y011480D01*
X017513Y011420D01*
X017513Y011360D01*
X017573Y011300D01*
X017693Y011300D01*
X017754Y011240D01*
X017754Y011180D01*
X017693Y011120D01*
X017573Y011120D01*
X017513Y011180D01*
X017385Y011120D02*
X017145Y011120D01*
X017145Y011480D01*
X017145Y010980D02*
X017145Y010620D01*
X017385Y010620D01*
X017513Y010680D02*
X017573Y010620D01*
X017693Y010620D01*
X017754Y010680D01*
X017754Y010740D01*
X017693Y010800D01*
X017573Y010800D01*
X017513Y010860D01*
X017513Y010920D01*
X017573Y010980D01*
X017693Y010980D01*
X017754Y010920D01*
X017882Y010980D02*
X017882Y010620D01*
X017882Y010740D02*
X018062Y010740D01*
X018122Y010800D01*
X018122Y010920D01*
X018062Y010980D01*
X017882Y010980D01*
X017882Y011120D02*
X017882Y011480D01*
X018062Y011480D01*
X018122Y011420D01*
X018122Y011300D01*
X018062Y011240D01*
X017882Y011240D01*
X017754Y011420D02*
X017693Y011480D01*
X018250Y011420D02*
X018310Y011480D01*
X018430Y011480D01*
X018490Y011420D01*
X018490Y011360D01*
X018430Y011300D01*
X018490Y011240D01*
X018490Y011180D01*
X018430Y011120D01*
X018310Y011120D01*
X018250Y011180D01*
X018370Y011300D02*
X018430Y011300D01*
X018430Y010980D02*
X018310Y010980D01*
X018250Y010920D01*
X018430Y010980D02*
X018490Y010920D01*
X018490Y010860D01*
X018250Y010620D01*
X018490Y010620D01*
X019145Y010773D02*
X019298Y010620D01*
X019452Y010773D01*
X019452Y011080D01*
X019605Y010850D02*
X019605Y010697D01*
X019682Y010620D01*
X019912Y010620D01*
X020066Y010697D02*
X020066Y010850D01*
X020143Y010927D01*
X020373Y010927D01*
X020373Y010620D02*
X020143Y010620D01*
X020066Y010697D01*
X019912Y010927D02*
X019682Y010927D01*
X019605Y010850D01*
X019145Y010773D02*
X019145Y011080D01*
X019145Y010080D02*
X019375Y010080D01*
X019452Y010004D01*
X019452Y009850D01*
X019375Y009773D01*
X019145Y009773D01*
X019145Y009620D02*
X019145Y010080D01*
X019298Y009773D02*
X019452Y009620D01*
X019605Y009620D02*
X019912Y009927D01*
X019605Y009927D02*
X019912Y009620D01*
X019452Y009080D02*
X019145Y009080D01*
X019298Y009080D02*
X019298Y008620D01*
X019605Y008620D02*
X019912Y008927D01*
X019605Y008927D02*
X019912Y008620D01*
X020373Y008080D02*
X020373Y007620D01*
X020143Y007620D01*
X020066Y007697D01*
X020066Y007850D01*
X020143Y007927D01*
X020373Y007927D01*
X019912Y007850D02*
X019912Y007620D01*
X019912Y007850D02*
X019836Y007927D01*
X019605Y007927D01*
X019605Y007620D01*
X019452Y007697D02*
X019452Y007850D01*
X019298Y007850D01*
X019145Y007697D02*
X019222Y007620D01*
X019375Y007620D01*
X019452Y007697D01*
X019145Y007697D02*
X019145Y008004D01*
X019222Y008080D01*
X019375Y008080D01*
X019452Y008004D01*
X018490Y008120D02*
X018250Y008120D01*
X018370Y008120D02*
X018370Y008480D01*
X018250Y008360D01*
X018122Y008420D02*
X018122Y008300D01*
X018062Y008240D01*
X017882Y008240D01*
X017882Y008120D02*
X017882Y008480D01*
X018062Y008480D01*
X018122Y008420D01*
X017754Y008420D02*
X017693Y008480D01*
X017573Y008480D01*
X017513Y008420D01*
X017513Y008360D01*
X017573Y008300D01*
X017693Y008300D01*
X017754Y008240D01*
X017754Y008180D01*
X017693Y008120D01*
X017573Y008120D01*
X017513Y008180D01*
X017385Y008120D02*
X017145Y008120D01*
X017145Y008480D01*
X017875Y004217D02*
X017875Y003910D01*
X017645Y004140D01*
X018105Y004140D01*
X018105Y003603D02*
X017645Y003603D01*
X017645Y003756D02*
X017645Y003449D01*
X016105Y002061D02*
X016105Y001907D01*
X016028Y001830D01*
X015875Y001830D02*
X015798Y001984D01*
X015798Y002061D01*
X015875Y002137D01*
X016028Y002137D01*
X016105Y002061D01*
X015875Y001830D02*
X015645Y001830D01*
X015645Y002137D01*
X015645Y001677D02*
X015645Y001370D01*
X015645Y001523D02*
X016105Y001523D01*
D13*
X008784Y002443D02*
X008706Y002365D01*
X008549Y002365D01*
X008470Y002443D01*
X008324Y002443D02*
X008245Y002365D01*
X008088Y002365D01*
X008010Y002443D01*
X008010Y002835D01*
X008324Y002835D02*
X008324Y002443D01*
X008470Y002757D02*
X008549Y002835D01*
X008706Y002835D01*
X008784Y002757D01*
X008784Y002679D01*
X008706Y002600D01*
X008784Y002522D01*
X008784Y002443D01*
X008706Y002600D02*
X008627Y002600D01*
X007774Y002507D02*
X007460Y002193D01*
X007774Y002507D01*
X007774Y002350D02*
X007460Y002350D01*
X007774Y002350D01*
X007774Y002193D02*
X007460Y002507D01*
X007774Y002193D01*
X007617Y002193D02*
X007617Y002507D01*
X007617Y002193D01*
X006544Y002125D02*
X006230Y002125D01*
X006544Y002439D01*
X006544Y002517D01*
X006466Y002595D01*
X006309Y002595D01*
X006230Y002517D01*
X006084Y002595D02*
X006084Y002203D01*
X006005Y002125D01*
X005848Y002125D01*
X005770Y002203D01*
X005770Y002595D01*
X005714Y002357D02*
X005400Y002043D01*
X005714Y002357D01*
X005714Y002200D02*
X005400Y002200D01*
X005714Y002200D01*
X005714Y002043D02*
X005400Y002357D01*
X005714Y002043D01*
X005557Y002043D02*
X005557Y002357D01*
X005557Y002043D01*
X018140Y015115D02*
X018263Y015115D01*
X018202Y015115D02*
X018202Y015485D01*
X018263Y015485D02*
X018140Y015485D01*
X018386Y015424D02*
X018447Y015485D01*
X018571Y015485D01*
X018632Y015424D01*
X018632Y015362D01*
X018386Y015115D01*
X018632Y015115D01*
X018754Y015177D02*
X018816Y015115D01*
X018939Y015115D01*
X019001Y015177D01*
X019122Y015053D02*
X019369Y015053D01*
X019490Y015177D02*
X019552Y015115D01*
X019676Y015115D01*
X019737Y015177D01*
X019859Y015115D02*
X020106Y015115D01*
X020227Y015115D02*
X020227Y015485D01*
X020289Y015300D02*
X020474Y015115D01*
X020227Y015238D02*
X020474Y015485D01*
X019859Y015485D02*
X019859Y015115D01*
X019737Y015424D02*
X019676Y015485D01*
X019552Y015485D01*
X019490Y015424D01*
X019490Y015177D01*
X019001Y015424D02*
X018939Y015485D01*
X018816Y015485D01*
X018754Y015424D01*
X018754Y015177D01*
X018816Y016115D02*
X018939Y016115D01*
X019001Y016177D01*
X019122Y016053D02*
X019369Y016053D01*
X019490Y016115D02*
X019676Y016115D01*
X019737Y016177D01*
X019737Y016424D01*
X019676Y016485D01*
X019490Y016485D01*
X019490Y016115D01*
X019859Y016115D02*
X019859Y016362D01*
X019982Y016485D01*
X020106Y016362D01*
X020106Y016115D01*
X020106Y016300D02*
X019859Y016300D01*
X020227Y016485D02*
X020474Y016485D01*
X020351Y016485D02*
X020351Y016115D01*
X020595Y016115D02*
X020595Y016362D01*
X020719Y016485D01*
X020842Y016362D01*
X020842Y016115D01*
X020842Y016300D02*
X020595Y016300D01*
X019001Y016424D02*
X018939Y016485D01*
X018816Y016485D01*
X018754Y016424D01*
X018754Y016177D01*
X018816Y016115D01*
X018632Y016115D02*
X018386Y016115D01*
X018632Y016362D01*
X018632Y016424D01*
X018571Y016485D01*
X018447Y016485D01*
X018386Y016424D01*
X018263Y016485D02*
X018140Y016485D01*
X018202Y016485D02*
X018202Y016115D01*
X018263Y016115D02*
X018140Y016115D01*
D14*
X018475Y016555D02*
X018475Y016713D01*
X018475Y017487D01*
X018475Y017713D01*
X018475Y018487D01*
X018475Y018645D01*
X018100Y019025D02*
X017650Y019025D01*
X017650Y018875D02*
X017650Y019175D01*
X017875Y019335D02*
X017725Y019486D01*
X017650Y019636D01*
X017875Y019561D02*
X017875Y019335D01*
X018025Y019335D01*
X018100Y019410D01*
X018100Y019561D01*
X018025Y019636D01*
X017950Y019636D01*
X017875Y019561D01*
X019025Y018425D02*
X019025Y016775D01*
X018974Y016738D01*
X018921Y016703D01*
X018865Y016671D01*
X018808Y016643D01*
X018749Y016619D01*
X018689Y016598D01*
X018628Y016581D01*
X018566Y016567D01*
X018503Y016558D01*
X018440Y016552D01*
X018376Y016550D01*
X018312Y016552D01*
X018249Y016558D01*
X018186Y016567D01*
X018124Y016580D01*
X018063Y016598D01*
X018003Y016618D01*
X017944Y016643D01*
X017887Y016670D01*
X017831Y016702D01*
X017778Y016736D01*
X017727Y016774D01*
X017678Y016815D01*
X017632Y016859D01*
X017588Y016905D01*
X017547Y016954D01*
X017510Y017005D01*
X017475Y017059D01*
X017444Y017114D01*
X017416Y017171D01*
X017392Y017230D01*
X017372Y017290D01*
X017355Y017351D01*
X017342Y017412D01*
X017333Y017475D01*
X017327Y017537D01*
X017325Y017600D01*
X017327Y017663D01*
X017333Y017725D01*
X017342Y017788D01*
X017355Y017849D01*
X017372Y017910D01*
X017392Y017970D01*
X017416Y018029D01*
X017444Y018086D01*
X017475Y018141D01*
X017510Y018195D01*
X017547Y018246D01*
X017588Y018295D01*
X017632Y018341D01*
X017678Y018385D01*
X017727Y018426D01*
X017778Y018464D01*
X017831Y018498D01*
X017887Y018530D01*
X017944Y018557D01*
X018003Y018582D01*
X018063Y018602D01*
X018124Y018620D01*
X018186Y018633D01*
X018249Y018642D01*
X018312Y018648D01*
X018376Y018650D01*
X018440Y018648D01*
X018503Y018642D01*
X018566Y018633D01*
X018628Y018619D01*
X018689Y018602D01*
X018749Y018581D01*
X018808Y018557D01*
X018865Y018529D01*
X018921Y018497D01*
X018974Y018462D01*
X019025Y018425D01*
X013050Y017386D02*
X013050Y017085D01*
X013050Y017236D02*
X012600Y017236D01*
X012750Y017085D01*
X012675Y016925D02*
X012600Y016850D01*
X012600Y016700D01*
X012675Y016625D01*
X012750Y016625D01*
X012825Y016700D01*
X012825Y016850D01*
X012900Y016925D01*
X012975Y016925D01*
X013050Y016850D01*
X013050Y016700D01*
X012975Y016625D01*
X011381Y016045D02*
X011080Y016045D01*
X011231Y016045D02*
X011231Y016495D01*
X011080Y016345D01*
X010920Y016420D02*
X010920Y016120D01*
X010845Y016045D01*
X010620Y016045D01*
X010620Y016495D01*
X010845Y016495D01*
X010920Y016420D01*
X009998Y019557D02*
X010000Y019577D01*
X010005Y019597D01*
X010015Y019615D01*
X010027Y019632D01*
X010042Y019646D01*
X010060Y019656D01*
X010079Y019664D01*
X010099Y019668D01*
X010119Y019668D01*
X010139Y019664D01*
X010158Y019656D01*
X010176Y019646D01*
X010191Y019632D01*
X010203Y019615D01*
X010213Y019597D01*
X010218Y019577D01*
X010220Y019557D01*
X010218Y019537D01*
X010213Y019517D01*
X010203Y019499D01*
X010191Y019482D01*
X010176Y019468D01*
X010158Y019458D01*
X010139Y019450D01*
X010119Y019446D01*
X010099Y019446D01*
X010079Y019450D01*
X010060Y019458D01*
X010042Y019468D01*
X010027Y019482D01*
X010015Y019499D01*
X010005Y019517D01*
X010000Y019537D01*
X009998Y019557D01*
X006675Y015600D02*
X005525Y015550D01*
X005425Y015450D01*
X005425Y011750D01*
X005525Y011650D01*
X006675Y011600D01*
X007025Y010645D02*
X007025Y010487D01*
X007025Y009713D01*
X007025Y009487D01*
X007025Y008713D01*
X007025Y008555D01*
X007300Y008715D02*
X007150Y008865D01*
X007600Y008865D01*
X007600Y008715D02*
X007600Y009015D01*
X007475Y009415D02*
X007400Y009490D01*
X007400Y009640D01*
X007475Y009715D01*
X007550Y009715D01*
X007850Y009415D01*
X007850Y009715D01*
X007525Y010015D02*
X007600Y010090D01*
X007600Y010240D01*
X007525Y010315D01*
X007450Y010315D01*
X007375Y010240D01*
X007375Y010165D01*
X007375Y010240D02*
X007300Y010315D01*
X007225Y010315D01*
X007150Y010240D01*
X007150Y010090D01*
X007225Y010015D01*
X007025Y010645D02*
X007087Y010649D01*
X007150Y010650D01*
X007212Y010646D01*
X007274Y010639D01*
X007335Y010629D01*
X007396Y010614D01*
X007456Y010596D01*
X007515Y010575D01*
X007572Y010550D01*
X007627Y010522D01*
X007681Y010491D01*
X007733Y010456D01*
X007783Y010418D01*
X007830Y010378D01*
X007875Y010334D01*
X007918Y010289D01*
X007957Y010240D01*
X007994Y010190D01*
X008027Y010137D01*
X008058Y010083D01*
X008085Y010026D01*
X008108Y009969D01*
X008128Y009910D01*
X008145Y009849D01*
X008158Y009788D01*
X008167Y009725D01*
X008173Y009663D01*
X008175Y009600D01*
X008173Y009537D01*
X008167Y009475D01*
X008158Y009412D01*
X008145Y009351D01*
X008128Y009290D01*
X008090Y008575D02*
X008090Y008275D01*
X008090Y008425D02*
X007640Y008425D01*
X007790Y008275D01*
X007640Y008114D02*
X007640Y007814D01*
X007640Y007964D02*
X008090Y007964D01*
X008036Y007375D02*
X007885Y007375D01*
X007810Y007300D01*
X007650Y007300D02*
X007575Y007375D01*
X007425Y007375D01*
X007350Y007300D01*
X007350Y007000D01*
X007425Y006925D01*
X007575Y006925D01*
X007650Y007000D01*
X007810Y006925D02*
X008111Y007225D01*
X008111Y007300D01*
X008036Y007375D01*
X008111Y006925D02*
X007810Y006925D01*
X005891Y006900D02*
X005891Y006825D01*
X005816Y006750D01*
X005891Y006675D01*
X005891Y006600D01*
X005816Y006525D01*
X005665Y006525D01*
X005590Y006600D01*
X005430Y006525D02*
X005280Y006675D01*
X005355Y006675D02*
X005130Y006675D01*
X005130Y006525D02*
X005130Y006975D01*
X005355Y006975D01*
X005430Y006900D01*
X005430Y006750D01*
X005355Y006675D01*
X005590Y006900D02*
X005665Y006975D01*
X005816Y006975D01*
X005891Y006900D01*
X005816Y006750D02*
X005741Y006750D01*
X004125Y007350D02*
X004125Y011850D01*
X002125Y011850D01*
X002125Y011100D01*
X000125Y011100D01*
X000125Y009850D01*
X002125Y009850D01*
X002125Y007350D01*
X004125Y007350D01*
X004109Y008419D02*
X005684Y008419D01*
X006475Y008775D02*
X006475Y010425D01*
X005684Y010781D02*
X004109Y010781D01*
X004109Y009600D02*
X005684Y009600D01*
X006475Y010425D02*
X006523Y010460D01*
X006573Y010493D01*
X006625Y010524D01*
X006679Y010551D01*
X006734Y010575D01*
X006791Y010595D01*
X006848Y010613D01*
X006906Y010627D01*
X006965Y010638D01*
X007025Y010645D01*
X008128Y009290D02*
X008108Y009230D01*
X008084Y009171D01*
X008056Y009114D01*
X008025Y009059D01*
X007990Y009005D01*
X007953Y008954D01*
X007912Y008905D01*
X007868Y008859D01*
X007822Y008815D01*
X007773Y008774D01*
X007722Y008736D01*
X007669Y008702D01*
X007613Y008670D01*
X007556Y008643D01*
X007497Y008618D01*
X007437Y008598D01*
X007376Y008580D01*
X007314Y008567D01*
X007251Y008558D01*
X007188Y008552D01*
X007124Y008550D01*
X007060Y008552D01*
X006997Y008558D01*
X006934Y008567D01*
X006872Y008581D01*
X006811Y008598D01*
X006751Y008619D01*
X006692Y008643D01*
X006635Y008671D01*
X006579Y008703D01*
X006526Y008738D01*
X006475Y008775D01*
X002125Y009850D02*
X002125Y011100D01*
X004770Y014704D02*
X004770Y015004D01*
X004770Y014854D02*
X005220Y014854D01*
X005220Y015165D02*
X004920Y015465D01*
X004845Y015465D01*
X004770Y015390D01*
X004770Y015240D01*
X004845Y015165D01*
X005220Y015165D02*
X005220Y015465D01*
X005565Y015370D02*
X005567Y015390D01*
X005573Y015408D01*
X005582Y015426D01*
X005594Y015441D01*
X005609Y015453D01*
X005627Y015462D01*
X005645Y015468D01*
X005665Y015470D01*
X005685Y015468D01*
X005703Y015462D01*
X005721Y015453D01*
X005736Y015441D01*
X005748Y015426D01*
X005757Y015408D01*
X005763Y015390D01*
X005765Y015370D01*
X005763Y015350D01*
X005757Y015332D01*
X005748Y015314D01*
X005736Y015299D01*
X005721Y015287D01*
X005703Y015278D01*
X005685Y015272D01*
X005665Y015270D01*
X005645Y015272D01*
X005627Y015278D01*
X005609Y015287D01*
X005594Y015299D01*
X005582Y015314D01*
X005573Y015332D01*
X005567Y015350D01*
X005565Y015370D01*
X002057Y015584D02*
X002059Y015604D01*
X002064Y015624D01*
X002074Y015642D01*
X002086Y015659D01*
X002101Y015673D01*
X002119Y015683D01*
X002138Y015691D01*
X002158Y015695D01*
X002178Y015695D01*
X002198Y015691D01*
X002217Y015683D01*
X002235Y015673D01*
X002250Y015659D01*
X002262Y015642D01*
X002272Y015624D01*
X002277Y015604D01*
X002279Y015584D01*
X002277Y015564D01*
X002272Y015544D01*
X002262Y015526D01*
X002250Y015509D01*
X002235Y015495D01*
X002217Y015485D01*
X002198Y015477D01*
X002178Y015473D01*
X002158Y015473D01*
X002138Y015477D01*
X002119Y015485D01*
X002101Y015495D01*
X002086Y015509D01*
X002074Y015526D01*
X002064Y015544D01*
X002059Y015564D01*
X002057Y015584D01*
X013259Y012007D02*
X013259Y009193D01*
X014991Y009193D01*
X014991Y012007D01*
X013259Y012007D01*
X014833Y009350D02*
X014835Y009358D01*
X014840Y009365D01*
X014847Y009369D01*
X014855Y009370D01*
X014863Y009367D01*
X014869Y009362D01*
X014873Y009354D01*
X014873Y009346D01*
X014869Y009338D01*
X014863Y009333D01*
X014855Y009330D01*
X014847Y009331D01*
X014840Y009335D01*
X014835Y009342D01*
X014833Y009350D01*
X016615Y005660D02*
X016615Y004540D01*
X017135Y004540D01*
X017135Y005660D01*
X016615Y005660D01*
X016615Y004160D02*
X017135Y004160D01*
X017135Y003040D01*
X016615Y003040D01*
X016615Y004160D01*
X016615Y002660D02*
X016615Y001540D01*
X017135Y001540D01*
X017135Y002660D01*
X016615Y002660D01*
X020930Y002555D02*
X020930Y002781D01*
X021005Y002856D01*
X021155Y002856D01*
X021230Y002781D01*
X021230Y002555D01*
X021380Y002555D02*
X020930Y002555D01*
X020930Y002395D02*
X020930Y002245D01*
X020930Y002320D02*
X021305Y002320D01*
X021380Y002245D01*
X021380Y002170D01*
X021305Y002095D01*
X021305Y003016D02*
X021380Y003091D01*
X021380Y003241D01*
X021305Y003316D01*
X021155Y003316D01*
X021080Y003241D01*
X021080Y003166D01*
X021155Y003016D01*
X020930Y003016D01*
X020930Y003316D01*
X020700Y007005D02*
X020700Y007455D01*
X020926Y007455D01*
X021001Y007380D01*
X021001Y007230D01*
X020926Y007155D01*
X020700Y007155D01*
X020465Y007080D02*
X020465Y007455D01*
X020390Y007455D02*
X020540Y007455D01*
X020465Y007080D02*
X020390Y007005D01*
X020315Y007005D01*
X020240Y007080D01*
X021161Y007080D02*
X021236Y007005D01*
X021386Y007005D01*
X021461Y007080D01*
X021461Y007155D01*
X021386Y007230D01*
X021161Y007230D01*
X021161Y007080D01*
X021161Y007230D02*
X021311Y007380D01*
X021461Y007455D01*
X021166Y012165D02*
X021166Y012615D01*
X020941Y012390D01*
X021241Y012390D01*
X020781Y012390D02*
X020706Y012315D01*
X020480Y012315D01*
X020480Y012165D02*
X020480Y012615D01*
X020706Y012615D01*
X020781Y012540D01*
X020781Y012390D01*
X020320Y012615D02*
X020170Y012615D01*
X020245Y012615D02*
X020245Y012240D01*
X020170Y012165D01*
X020095Y012165D01*
X020020Y012240D01*
X010836Y002625D02*
X010610Y002400D01*
X010911Y002400D01*
X010836Y002175D02*
X010836Y002625D01*
X010450Y002550D02*
X010375Y002625D01*
X010225Y002625D01*
X010150Y002550D01*
X010150Y002250D01*
X010225Y002175D01*
X010375Y002175D01*
X010450Y002250D01*
X002057Y004584D02*
X002059Y004604D01*
X002064Y004624D01*
X002074Y004642D01*
X002086Y004659D01*
X002101Y004673D01*
X002119Y004683D01*
X002138Y004691D01*
X002158Y004695D01*
X002178Y004695D01*
X002198Y004691D01*
X002217Y004683D01*
X002235Y004673D01*
X002250Y004659D01*
X002262Y004642D01*
X002272Y004624D01*
X002277Y004604D01*
X002279Y004584D01*
X002277Y004564D01*
X002272Y004544D01*
X002262Y004526D01*
X002250Y004509D01*
X002235Y004495D01*
X002217Y004485D01*
X002198Y004477D01*
X002178Y004473D01*
X002158Y004473D01*
X002138Y004477D01*
X002119Y004485D01*
X002101Y004495D01*
X002086Y004509D01*
X002074Y004526D01*
X002064Y004544D01*
X002059Y004564D01*
X002057Y004584D01*
D15*
X005566Y018364D03*
X005566Y018836D03*
D16*
X005566Y018600D03*
D17*
X005330Y018600D03*
X005920Y018600D03*
D18*
X005556Y018290D03*
X005556Y018910D03*
D19*
X006348Y018600D03*
D20*
X004838Y018600D03*
D21*
X007348Y015987D02*
X007348Y015213D01*
X008902Y015213D01*
X008902Y015987D01*
X007348Y015987D01*
X007348Y013987D02*
X008902Y013987D01*
X008902Y013213D01*
X007348Y013213D01*
X007348Y013987D01*
X007348Y012487D02*
X008902Y012487D01*
X008902Y011713D01*
X007348Y011713D01*
X007348Y012487D01*
X010348Y012363D02*
X010348Y013137D01*
X011902Y013137D01*
X011902Y012363D01*
X010348Y012363D01*
X010348Y013713D02*
X010348Y014487D01*
X011902Y014487D01*
X011902Y013713D01*
X010348Y013713D01*
X013348Y013987D02*
X013348Y013213D01*
X014902Y013213D01*
X014902Y013987D01*
X013348Y013987D01*
X013348Y014713D02*
X013348Y015487D01*
X014902Y015487D01*
X014902Y014713D01*
X013348Y014713D01*
X013348Y008987D02*
X013348Y008213D01*
X014902Y008213D01*
X014902Y008987D01*
X013348Y008987D01*
X013902Y006987D02*
X012348Y006987D01*
X012348Y006213D01*
X013902Y006213D01*
X013902Y006987D01*
X013902Y005987D02*
X013902Y005213D01*
X012348Y005213D01*
X012348Y005987D01*
X013902Y005987D01*
X013902Y004987D02*
X013902Y004213D01*
X012348Y004213D01*
X012348Y004987D01*
X013902Y004987D01*
X013902Y003987D02*
X013902Y003213D01*
X012348Y003213D01*
X012348Y003987D01*
X013902Y003987D01*
X013902Y002987D02*
X013902Y002213D01*
X012348Y002213D01*
X012348Y002987D01*
X013902Y002987D01*
X013902Y001987D02*
X013902Y001213D01*
X012348Y001213D01*
X012348Y001987D01*
X013902Y001987D01*
X007402Y002713D02*
X007402Y003487D01*
X005848Y003487D01*
X005848Y002713D01*
X007402Y002713D01*
D22*
X012833Y002601D03*
X013413Y002601D03*
X013413Y003601D03*
X012833Y003601D03*
X012833Y004601D03*
X013413Y004601D03*
X013413Y005601D03*
X012833Y005601D03*
X012833Y006601D03*
X013413Y006601D03*
X013413Y001601D03*
X012833Y001601D03*
X008417Y012099D03*
X007837Y012099D03*
X007837Y013599D03*
X008417Y013599D03*
X008413Y015601D03*
X007833Y015601D03*
X010837Y014099D03*
X011417Y014099D03*
X013833Y013601D03*
X014413Y013601D03*
D23*
X012314Y016801D02*
X007905Y016801D01*
X007905Y017194D01*
X012314Y017194D01*
X012314Y016801D01*
X012314Y017194D02*
X012314Y019754D01*
X007905Y019754D01*
X007905Y017194D01*
X007905Y017175D02*
X007668Y017175D01*
X007668Y017569D01*
X007905Y017569D01*
X004924Y017789D02*
X004924Y013380D01*
X004531Y013380D01*
X004531Y017789D01*
X004924Y017789D01*
X004531Y017789D02*
X001971Y017789D01*
X001971Y013380D01*
X004531Y013380D01*
X004550Y013380D02*
X004550Y013143D01*
X004156Y013143D01*
X004156Y013380D01*
X002444Y017789D02*
X002444Y018025D01*
X002050Y018025D01*
X002050Y017789D01*
X009125Y014350D02*
X009125Y013850D01*
X009375Y013600D01*
X009875Y013600D01*
X010125Y013850D01*
X010125Y014350D01*
X009875Y014600D01*
X009375Y014600D01*
X009125Y014350D01*
X012314Y019281D02*
X012550Y019281D01*
X012550Y019675D01*
X012314Y019675D01*
X018125Y014350D02*
X018125Y013850D01*
X018375Y013600D01*
X018875Y013600D01*
X019125Y013850D01*
X019125Y014350D01*
X018875Y014600D01*
X018375Y014600D01*
X018125Y014350D01*
X020625Y014350D02*
X020625Y013850D01*
X020875Y013600D01*
X020625Y013350D01*
X020625Y012850D01*
X020875Y012600D01*
X021375Y012600D01*
X021625Y012850D01*
X021625Y013350D01*
X021375Y013600D01*
X021625Y013850D01*
X021625Y014350D01*
X021375Y014600D01*
X021625Y014850D01*
X021625Y015350D01*
X021375Y015600D01*
X021625Y015850D01*
X021625Y016350D01*
X021375Y016600D01*
X021625Y016850D01*
X021625Y017350D01*
X021375Y017600D01*
X020875Y017600D01*
X020625Y017350D01*
X020625Y016850D01*
X020875Y016600D01*
X020625Y016350D01*
X020625Y015850D01*
X020875Y015600D01*
X020625Y015350D01*
X020625Y014850D01*
X020875Y014600D01*
X020625Y014350D01*
X020875Y011600D02*
X021375Y011600D01*
X021625Y011350D01*
X021625Y010850D01*
X021375Y010600D01*
X021625Y010350D01*
X021625Y009850D01*
X021375Y009600D01*
X021625Y009350D01*
X021625Y008850D01*
X021375Y008600D01*
X021625Y008350D01*
X021625Y007850D01*
X021375Y007600D01*
X020875Y007600D01*
X020625Y007850D01*
X020625Y008350D01*
X020875Y008600D01*
X020625Y008850D01*
X020625Y009350D01*
X020875Y009600D01*
X020625Y009850D01*
X020625Y010350D01*
X020875Y010600D01*
X020625Y010850D01*
X020625Y011350D01*
X020875Y011600D01*
X020375Y006100D02*
X019875Y006100D01*
X019625Y005850D01*
X019625Y005350D01*
X019875Y005100D01*
X019625Y004850D01*
X019625Y004350D01*
X019875Y004100D01*
X019625Y003850D01*
X019625Y003350D01*
X019875Y003100D01*
X019625Y002850D01*
X019625Y002350D01*
X019875Y002100D01*
X020375Y002100D01*
X020625Y002350D01*
X020625Y002850D01*
X020375Y003100D01*
X020625Y003350D01*
X020625Y003850D01*
X020375Y004100D01*
X020625Y004350D01*
X020625Y004850D01*
X020375Y005100D01*
X020625Y005350D01*
X020625Y005850D01*
X020375Y006100D01*
X012625Y007350D02*
X012625Y007850D01*
X012375Y008100D01*
X011875Y008100D01*
X011625Y007850D01*
X011625Y007350D01*
X011375Y007100D01*
X010875Y007100D01*
X010625Y007350D01*
X010625Y006850D01*
X010375Y006600D01*
X009875Y006600D01*
X009625Y006850D01*
X009625Y007350D01*
X009875Y007600D01*
X010375Y007600D01*
X010625Y007350D01*
X010625Y007850D01*
X010875Y008100D01*
X011375Y008100D01*
X011625Y007850D01*
X011625Y007350D01*
X011875Y007100D01*
X012375Y007100D01*
X012625Y007350D01*
X010625Y006350D02*
X010625Y005850D01*
X010375Y005600D01*
X009875Y005600D01*
X009625Y005850D01*
X009625Y006350D01*
X009875Y006600D01*
X010375Y006600D01*
X010625Y006350D01*
X009625Y006350D02*
X009625Y005850D01*
X009375Y005600D01*
X008875Y005600D01*
X008625Y005850D01*
X008625Y006350D01*
X008875Y006600D01*
X009375Y006600D01*
X009625Y006350D01*
X009375Y006600D02*
X009625Y006850D01*
X009625Y007350D01*
X009375Y007600D01*
X008875Y007600D01*
X008625Y007350D01*
X008625Y006850D01*
X008875Y006600D01*
X009375Y006600D01*
X004924Y006789D02*
X004924Y002380D01*
X004531Y002380D01*
X004531Y006789D01*
X004924Y006789D01*
X004531Y006789D02*
X001971Y006789D01*
X001971Y002380D01*
X004531Y002380D01*
X004550Y002380D02*
X004550Y002143D01*
X004156Y002143D01*
X004156Y002380D01*
X002444Y006789D02*
X002444Y007025D01*
X002050Y007025D01*
X002050Y006789D01*
D24*
X002620Y003500D02*
X002620Y003400D01*
X002620Y003450D02*
X002470Y003450D01*
X002520Y003400D01*
X002545Y003352D02*
X002570Y003327D01*
X002570Y003252D01*
X002620Y003252D02*
X002470Y003252D01*
X002470Y003327D01*
X002495Y003352D01*
X002545Y003352D01*
X002470Y003205D02*
X002470Y003155D01*
X002470Y003180D02*
X002595Y003180D01*
X002620Y003155D01*
X002620Y003130D01*
X002595Y003105D01*
X002595Y014105D02*
X002620Y014130D01*
X002620Y014155D01*
X002595Y014180D01*
X002470Y014180D01*
X002470Y014155D02*
X002470Y014205D01*
X002470Y014252D02*
X002470Y014327D01*
X002495Y014352D01*
X002545Y014352D01*
X002570Y014327D01*
X002570Y014252D01*
X002620Y014252D02*
X002470Y014252D01*
X002495Y014400D02*
X002470Y014425D01*
X002470Y014475D01*
X002495Y014500D01*
X002520Y014500D01*
X002545Y014475D01*
X002570Y014500D01*
X002595Y014500D01*
X002620Y014475D01*
X002620Y014425D01*
X002595Y014400D01*
X002545Y014450D02*
X002545Y014475D01*
D25*
X010843Y012750D03*
X011413Y012750D03*
X013837Y015100D03*
X014407Y015100D03*
X014407Y008600D03*
X013837Y008600D03*
X006913Y003100D03*
X006343Y003100D03*
D26*
X007325Y005600D03*
X009425Y004100D03*
D27*
X009125Y006100D03*
X009125Y007100D03*
X010125Y007100D03*
X011125Y007600D03*
X012125Y007600D03*
X010125Y006100D03*
X009625Y014100D03*
X018625Y014100D03*
X021125Y014100D03*
X021125Y013100D03*
X021125Y011100D03*
X021125Y010100D03*
X021125Y009100D03*
X021125Y008100D03*
X020125Y005600D03*
X020125Y004600D03*
X020125Y003600D03*
X020125Y002600D03*
X021125Y015100D03*
X021125Y016100D03*
X021125Y017100D03*
D28*
X011425Y015900D02*
X011425Y015300D01*
X010925Y015600D01*
X010925Y015300D01*
X010825Y015300D01*
X010925Y015600D02*
X010925Y015900D01*
X011025Y015900D01*
X010925Y015600D02*
X011425Y015900D01*
X006558Y016324D02*
X005692Y016324D01*
X005692Y016876D01*
X006558Y016876D01*
X006558Y016324D01*
D29*
X011025Y015600D02*
X011325Y015600D01*
X011325Y015500D01*
X011325Y015600D02*
X011325Y015700D01*
X006125Y007600D02*
X005775Y007600D01*
X005725Y007600D02*
X005525Y007600D01*
X005475Y007600D02*
X005125Y007600D01*
D30*
X006975Y013600D03*
D31*
X006725Y015325D03*
X006725Y011875D03*
D32*
X006725Y013100D03*
X006725Y014100D03*
D33*
X006725Y013600D03*
X006725Y012600D03*
X006725Y014600D03*
D34*
X006745Y016590D03*
X005505Y016590D03*
D35*
X005889Y016610D03*
D36*
X017270Y005470D03*
X016480Y005100D03*
X017270Y004730D03*
X016480Y003970D03*
X016480Y003230D03*
X017270Y003600D03*
X017270Y002470D03*
X016480Y002100D03*
X017270Y001730D03*
M02*
