G75*
G70*
%OFA0B0*%
%FSLAX24Y24*%
%IPPOS*%
%LPD*%
%AMOC8*
5,1,8,0,0,1.08239X$1,22.5*
%
%ADD10C,0.0000*%
%ADD11C,0.1300*%
%ADD12C,0.1418*%
%ADD13OC8,0.0700*%
%ADD14OC8,0.0560*%
%ADD15OC8,0.0890*%
%ADD16R,0.0840X0.0840*%
%ADD17C,0.0840*%
%ADD18OC8,0.0670*%
%ADD19C,0.0670*%
%ADD20R,0.0780X0.0780*%
%ADD21C,0.0780*%
%ADD22C,0.0640*%
%ADD23C,0.0634*%
D10*
X002125Y000100D02*
X002125Y019785D01*
X021810Y019785D01*
X021810Y000100D01*
X002125Y000100D01*
X002495Y001100D02*
X002497Y001150D01*
X002503Y001200D01*
X002513Y001249D01*
X002527Y001297D01*
X002544Y001344D01*
X002565Y001389D01*
X002590Y001433D01*
X002618Y001474D01*
X002650Y001513D01*
X002684Y001550D01*
X002721Y001584D01*
X002761Y001614D01*
X002803Y001641D01*
X002847Y001665D01*
X002893Y001686D01*
X002940Y001702D01*
X002988Y001715D01*
X003038Y001724D01*
X003087Y001729D01*
X003138Y001730D01*
X003188Y001727D01*
X003237Y001720D01*
X003286Y001709D01*
X003334Y001694D01*
X003380Y001676D01*
X003425Y001654D01*
X003468Y001628D01*
X003509Y001599D01*
X003548Y001567D01*
X003584Y001532D01*
X003616Y001494D01*
X003646Y001454D01*
X003673Y001411D01*
X003696Y001367D01*
X003715Y001321D01*
X003731Y001273D01*
X003743Y001224D01*
X003751Y001175D01*
X003755Y001125D01*
X003755Y001075D01*
X003751Y001025D01*
X003743Y000976D01*
X003731Y000927D01*
X003715Y000879D01*
X003696Y000833D01*
X003673Y000789D01*
X003646Y000746D01*
X003616Y000706D01*
X003584Y000668D01*
X003548Y000633D01*
X003509Y000601D01*
X003468Y000572D01*
X003425Y000546D01*
X003380Y000524D01*
X003334Y000506D01*
X003286Y000491D01*
X003237Y000480D01*
X003188Y000473D01*
X003138Y000470D01*
X003087Y000471D01*
X003038Y000476D01*
X002988Y000485D01*
X002940Y000498D01*
X002893Y000514D01*
X002847Y000535D01*
X002803Y000559D01*
X002761Y000586D01*
X002721Y000616D01*
X002684Y000650D01*
X002650Y000687D01*
X002618Y000726D01*
X002590Y000767D01*
X002565Y000811D01*
X002544Y000856D01*
X002527Y000903D01*
X002513Y000951D01*
X002503Y001000D01*
X002497Y001050D01*
X002495Y001100D01*
X020136Y001100D02*
X020138Y001152D01*
X020144Y001204D01*
X020154Y001255D01*
X020167Y001305D01*
X020185Y001355D01*
X020206Y001402D01*
X020230Y001448D01*
X020259Y001492D01*
X020290Y001534D01*
X020324Y001573D01*
X020361Y001610D01*
X020401Y001643D01*
X020444Y001674D01*
X020488Y001701D01*
X020534Y001725D01*
X020583Y001745D01*
X020632Y001761D01*
X020683Y001774D01*
X020734Y001783D01*
X020786Y001788D01*
X020838Y001789D01*
X020890Y001786D01*
X020942Y001779D01*
X020993Y001768D01*
X021043Y001754D01*
X021092Y001735D01*
X021139Y001713D01*
X021184Y001688D01*
X021228Y001659D01*
X021269Y001627D01*
X021308Y001592D01*
X021343Y001554D01*
X021376Y001513D01*
X021406Y001471D01*
X021432Y001426D01*
X021455Y001379D01*
X021474Y001330D01*
X021490Y001280D01*
X021502Y001230D01*
X021510Y001178D01*
X021514Y001126D01*
X021514Y001074D01*
X021510Y001022D01*
X021502Y000970D01*
X021490Y000920D01*
X021474Y000870D01*
X021455Y000821D01*
X021432Y000774D01*
X021406Y000729D01*
X021376Y000687D01*
X021343Y000646D01*
X021308Y000608D01*
X021269Y000573D01*
X021228Y000541D01*
X021184Y000512D01*
X021139Y000487D01*
X021092Y000465D01*
X021043Y000446D01*
X020993Y000432D01*
X020942Y000421D01*
X020890Y000414D01*
X020838Y000411D01*
X020786Y000412D01*
X020734Y000417D01*
X020683Y000426D01*
X020632Y000439D01*
X020583Y000455D01*
X020534Y000475D01*
X020488Y000499D01*
X020444Y000526D01*
X020401Y000557D01*
X020361Y000590D01*
X020324Y000627D01*
X020290Y000666D01*
X020259Y000708D01*
X020230Y000752D01*
X020206Y000798D01*
X020185Y000845D01*
X020167Y000895D01*
X020154Y000945D01*
X020144Y000996D01*
X020138Y001048D01*
X020136Y001100D01*
X020136Y018800D02*
X020138Y018852D01*
X020144Y018904D01*
X020154Y018955D01*
X020167Y019005D01*
X020185Y019055D01*
X020206Y019102D01*
X020230Y019148D01*
X020259Y019192D01*
X020290Y019234D01*
X020324Y019273D01*
X020361Y019310D01*
X020401Y019343D01*
X020444Y019374D01*
X020488Y019401D01*
X020534Y019425D01*
X020583Y019445D01*
X020632Y019461D01*
X020683Y019474D01*
X020734Y019483D01*
X020786Y019488D01*
X020838Y019489D01*
X020890Y019486D01*
X020942Y019479D01*
X020993Y019468D01*
X021043Y019454D01*
X021092Y019435D01*
X021139Y019413D01*
X021184Y019388D01*
X021228Y019359D01*
X021269Y019327D01*
X021308Y019292D01*
X021343Y019254D01*
X021376Y019213D01*
X021406Y019171D01*
X021432Y019126D01*
X021455Y019079D01*
X021474Y019030D01*
X021490Y018980D01*
X021502Y018930D01*
X021510Y018878D01*
X021514Y018826D01*
X021514Y018774D01*
X021510Y018722D01*
X021502Y018670D01*
X021490Y018620D01*
X021474Y018570D01*
X021455Y018521D01*
X021432Y018474D01*
X021406Y018429D01*
X021376Y018387D01*
X021343Y018346D01*
X021308Y018308D01*
X021269Y018273D01*
X021228Y018241D01*
X021184Y018212D01*
X021139Y018187D01*
X021092Y018165D01*
X021043Y018146D01*
X020993Y018132D01*
X020942Y018121D01*
X020890Y018114D01*
X020838Y018111D01*
X020786Y018112D01*
X020734Y018117D01*
X020683Y018126D01*
X020632Y018139D01*
X020583Y018155D01*
X020534Y018175D01*
X020488Y018199D01*
X020444Y018226D01*
X020401Y018257D01*
X020361Y018290D01*
X020324Y018327D01*
X020290Y018366D01*
X020259Y018408D01*
X020230Y018452D01*
X020206Y018498D01*
X020185Y018545D01*
X020167Y018595D01*
X020154Y018645D01*
X020144Y018696D01*
X020138Y018748D01*
X020136Y018800D01*
X002495Y018800D02*
X002497Y018850D01*
X002503Y018900D01*
X002513Y018949D01*
X002527Y018997D01*
X002544Y019044D01*
X002565Y019089D01*
X002590Y019133D01*
X002618Y019174D01*
X002650Y019213D01*
X002684Y019250D01*
X002721Y019284D01*
X002761Y019314D01*
X002803Y019341D01*
X002847Y019365D01*
X002893Y019386D01*
X002940Y019402D01*
X002988Y019415D01*
X003038Y019424D01*
X003087Y019429D01*
X003138Y019430D01*
X003188Y019427D01*
X003237Y019420D01*
X003286Y019409D01*
X003334Y019394D01*
X003380Y019376D01*
X003425Y019354D01*
X003468Y019328D01*
X003509Y019299D01*
X003548Y019267D01*
X003584Y019232D01*
X003616Y019194D01*
X003646Y019154D01*
X003673Y019111D01*
X003696Y019067D01*
X003715Y019021D01*
X003731Y018973D01*
X003743Y018924D01*
X003751Y018875D01*
X003755Y018825D01*
X003755Y018775D01*
X003751Y018725D01*
X003743Y018676D01*
X003731Y018627D01*
X003715Y018579D01*
X003696Y018533D01*
X003673Y018489D01*
X003646Y018446D01*
X003616Y018406D01*
X003584Y018368D01*
X003548Y018333D01*
X003509Y018301D01*
X003468Y018272D01*
X003425Y018246D01*
X003380Y018224D01*
X003334Y018206D01*
X003286Y018191D01*
X003237Y018180D01*
X003188Y018173D01*
X003138Y018170D01*
X003087Y018171D01*
X003038Y018176D01*
X002988Y018185D01*
X002940Y018198D01*
X002893Y018214D01*
X002847Y018235D01*
X002803Y018259D01*
X002761Y018286D01*
X002721Y018316D01*
X002684Y018350D01*
X002650Y018387D01*
X002618Y018426D01*
X002590Y018467D01*
X002565Y018511D01*
X002544Y018556D01*
X002527Y018603D01*
X002513Y018651D01*
X002503Y018700D01*
X002497Y018750D01*
X002495Y018800D01*
D11*
X003125Y018800D03*
X003125Y001100D03*
D12*
X020825Y001100D03*
X020825Y018800D03*
D13*
X015625Y018600D03*
X013625Y018600D03*
X013625Y016600D03*
X015625Y016600D03*
D14*
X017625Y017600D03*
X018375Y017100D03*
X018375Y018100D03*
X011625Y015600D03*
X010625Y015600D03*
X007125Y010100D03*
X007875Y009600D03*
X007125Y009100D03*
X006125Y007600D03*
X005125Y007600D03*
D15*
X009625Y009100D03*
X009625Y010100D03*
X009625Y011100D03*
X009625Y012100D03*
X017625Y012100D03*
X017625Y013100D03*
X017625Y010100D03*
X017625Y009100D03*
D16*
X009125Y018100D03*
X003625Y014600D03*
X003625Y003600D03*
D17*
X003625Y005569D03*
X003625Y016569D03*
X011094Y018100D03*
D18*
X007625Y005600D03*
X009125Y004100D03*
D19*
X010125Y004100D03*
X006625Y005600D03*
D20*
X020125Y002600D03*
X021125Y008100D03*
D21*
X021125Y009100D03*
X021125Y010100D03*
X021125Y011100D03*
X021125Y013100D03*
X021125Y014100D03*
X021125Y015100D03*
X021125Y016100D03*
X021125Y017100D03*
X019625Y017100D03*
X019625Y018100D03*
X016625Y017600D03*
X018625Y014100D03*
X012125Y007600D03*
X011125Y007600D03*
X010125Y007100D03*
X010125Y006100D03*
X009125Y006100D03*
X009125Y007100D03*
X011625Y006600D03*
X011625Y005600D03*
X011625Y004600D03*
X011625Y003600D03*
X011625Y002600D03*
X011625Y001600D03*
X014625Y001600D03*
X014625Y002600D03*
X014625Y003600D03*
X014625Y004600D03*
X014625Y005600D03*
X014625Y006600D03*
X015625Y005100D03*
X015625Y004100D03*
X015625Y003100D03*
X015625Y002100D03*
X018125Y001600D03*
X018125Y002600D03*
X018125Y003600D03*
X018125Y004600D03*
X018125Y005600D03*
X020125Y005600D03*
X020125Y004600D03*
X020125Y003600D03*
X009625Y014100D03*
D22*
X006425Y013600D02*
X005825Y013600D01*
X005825Y012600D02*
X006425Y012600D01*
X006425Y014600D02*
X005825Y014600D01*
D23*
X005684Y010781D03*
X005684Y009600D03*
X005684Y008419D03*
M02*
