%
M48
M72
T01C0.0236
T02C0.0315
T03C0.0400
%
T01
X9943Y4000
X9943Y9500
X9943Y15000
T02
X4600Y9000
X15100Y9000
T03
X1100Y14500
X1100Y13500
X1100Y12500
X1100Y11500
X1100Y10500
X1100Y9500
X1100Y8500
X1100Y7500
X1100Y6500
X1100Y5500
X1100Y4500
X4100Y4500
X5100Y4500
X8100Y4500
X8100Y5500
X8100Y6500
X8100Y7500
X8100Y8500
X8100Y9500
X8100Y10500
X8100Y11500
X8100Y12500
X8100Y13500
X8100Y14500
X11600Y14500
X11600Y13500
X11600Y12500
X11600Y11500
X11600Y10500
X11600Y9500
X11600Y8500
X11600Y7500
X11600Y6500
X11600Y5500
X11600Y4500
X14600Y4500
X15600Y4500
X18600Y4500
X18600Y5500
X18600Y6500
X18600Y7500
X18600Y8500
X18600Y9500
X18600Y10500
X18600Y11500
X18600Y12500
X18600Y13500
X18600Y14500
X15600Y13500
X14600Y13500
X5100Y13500
X4100Y13500
M30
