G75*
%MOIN*%
%OFA0B0*%
%FSLAX24Y24*%
%IPPOS*%
%LPD*%
%AMOC8*
5,1,8,0,0,1.08239X$1,22.5*
%
%ADD10C,0.0000*%
%ADD11C,0.0120*%
%ADD12C,0.0030*%
D10*
X000100Y003500D02*
X000100Y015705D01*
X019785Y015705D01*
X019785Y003500D01*
X000100Y003500D01*
X009825Y004000D02*
X009827Y004021D01*
X009833Y004041D01*
X009842Y004061D01*
X009854Y004078D01*
X009869Y004092D01*
X009887Y004104D01*
X009907Y004112D01*
X009927Y004117D01*
X009948Y004118D01*
X009969Y004115D01*
X009989Y004109D01*
X010008Y004098D01*
X010025Y004085D01*
X010038Y004069D01*
X010049Y004051D01*
X010057Y004031D01*
X010061Y004011D01*
X010061Y003989D01*
X010057Y003969D01*
X010049Y003949D01*
X010038Y003931D01*
X010025Y003915D01*
X010008Y003902D01*
X009989Y003891D01*
X009969Y003885D01*
X009948Y003882D01*
X009927Y003883D01*
X009907Y003888D01*
X009887Y003896D01*
X009869Y003908D01*
X009854Y003922D01*
X009842Y003939D01*
X009833Y003959D01*
X009827Y003979D01*
X009825Y004000D01*
X009825Y009500D02*
X009827Y009521D01*
X009833Y009541D01*
X009842Y009561D01*
X009854Y009578D01*
X009869Y009592D01*
X009887Y009604D01*
X009907Y009612D01*
X009927Y009617D01*
X009948Y009618D01*
X009969Y009615D01*
X009989Y009609D01*
X010008Y009598D01*
X010025Y009585D01*
X010038Y009569D01*
X010049Y009551D01*
X010057Y009531D01*
X010061Y009511D01*
X010061Y009489D01*
X010057Y009469D01*
X010049Y009449D01*
X010038Y009431D01*
X010025Y009415D01*
X010008Y009402D01*
X009989Y009391D01*
X009969Y009385D01*
X009948Y009382D01*
X009927Y009383D01*
X009907Y009388D01*
X009887Y009396D01*
X009869Y009408D01*
X009854Y009422D01*
X009842Y009439D01*
X009833Y009459D01*
X009827Y009479D01*
X009825Y009500D01*
X009825Y015000D02*
X009827Y015021D01*
X009833Y015041D01*
X009842Y015061D01*
X009854Y015078D01*
X009869Y015092D01*
X009887Y015104D01*
X009907Y015112D01*
X009927Y015117D01*
X009948Y015118D01*
X009969Y015115D01*
X009989Y015109D01*
X010008Y015098D01*
X010025Y015085D01*
X010038Y015069D01*
X010049Y015051D01*
X010057Y015031D01*
X010061Y015011D01*
X010061Y014989D01*
X010057Y014969D01*
X010049Y014949D01*
X010038Y014931D01*
X010025Y014915D01*
X010008Y014902D01*
X009989Y014891D01*
X009969Y014885D01*
X009948Y014882D01*
X009927Y014883D01*
X009907Y014888D01*
X009887Y014896D01*
X009869Y014908D01*
X009854Y014922D01*
X009842Y014939D01*
X009833Y014959D01*
X009827Y014979D01*
X009825Y015000D01*
D11*
X009943Y015705D02*
X009943Y003500D01*
D12*
X006085Y004175D02*
X006085Y004361D01*
X006024Y004422D01*
X005777Y004422D01*
X005715Y004361D01*
X005715Y004175D01*
X006085Y004175D01*
X005900Y004544D02*
X005962Y004605D01*
X005962Y004729D01*
X005900Y004791D01*
X005838Y004791D01*
X005838Y004544D01*
X005777Y004544D02*
X005900Y004544D01*
X005777Y004544D02*
X005715Y004605D01*
X005715Y004729D01*
X005715Y004912D02*
X005715Y005097D01*
X005777Y005159D01*
X005838Y005097D01*
X005838Y004974D01*
X005900Y004912D01*
X005962Y004974D01*
X005962Y005159D01*
X005962Y005280D02*
X005962Y005342D01*
X005715Y005342D01*
X005715Y005280D02*
X005715Y005404D01*
X005777Y005526D02*
X005715Y005588D01*
X005715Y005773D01*
X005653Y005773D02*
X005962Y005773D01*
X005962Y005588D01*
X005900Y005526D01*
X005777Y005526D01*
X005592Y005649D02*
X005592Y005711D01*
X005653Y005773D01*
X005715Y005894D02*
X005962Y005894D01*
X005962Y006079D01*
X005900Y006141D01*
X005715Y006141D01*
X005777Y006263D02*
X005715Y006324D01*
X005715Y006448D01*
X005838Y006509D02*
X005838Y006263D01*
X005777Y006263D02*
X005900Y006263D01*
X005962Y006324D01*
X005962Y006448D01*
X005900Y006509D01*
X005838Y006509D01*
X005777Y006631D02*
X005900Y006631D01*
X005962Y006693D01*
X005962Y006878D01*
X006085Y006878D02*
X005715Y006878D01*
X005715Y006693D01*
X005777Y006631D01*
X005715Y007368D02*
X005715Y007553D01*
X005777Y007614D01*
X005900Y007614D01*
X005962Y007553D01*
X005962Y007368D01*
X006085Y007368D02*
X005715Y007368D01*
X005777Y007736D02*
X005715Y007798D01*
X005715Y007983D01*
X005653Y007983D02*
X005592Y007921D01*
X005592Y007859D01*
X005653Y007983D02*
X005962Y007983D01*
X005962Y007736D02*
X005777Y007736D01*
X005715Y008472D02*
X005715Y008596D01*
X005715Y008534D02*
X006085Y008534D01*
X006085Y008472D02*
X006085Y008596D01*
X005962Y008780D02*
X005900Y008718D01*
X005777Y008718D01*
X005715Y008780D01*
X005715Y008965D01*
X005653Y008965D02*
X005962Y008965D01*
X005962Y008780D01*
X005653Y008965D02*
X005592Y008903D01*
X005592Y008841D01*
X005777Y009086D02*
X005715Y009148D01*
X005715Y009271D01*
X005777Y009333D01*
X005900Y009333D01*
X005962Y009271D01*
X005962Y009148D01*
X005900Y009086D01*
X005777Y009086D01*
X005838Y009455D02*
X005962Y009578D01*
X005962Y009640D01*
X005962Y009455D02*
X005715Y009455D01*
X005715Y010130D02*
X005715Y010377D01*
X005777Y010498D02*
X005715Y010560D01*
X005715Y010683D01*
X005838Y010745D02*
X005838Y010498D01*
X005777Y010498D02*
X005900Y010498D01*
X005962Y010560D01*
X005962Y010683D01*
X005900Y010745D01*
X005838Y010745D01*
X005900Y010866D02*
X005962Y010928D01*
X005962Y011113D01*
X005900Y011235D02*
X005962Y011297D01*
X005962Y011420D01*
X005900Y011482D01*
X005715Y011482D01*
X005777Y011603D02*
X005715Y011665D01*
X005715Y011788D01*
X005838Y011850D02*
X005838Y011603D01*
X005777Y011603D02*
X005900Y011603D01*
X005962Y011665D01*
X005962Y011788D01*
X005900Y011850D01*
X005838Y011850D01*
X005715Y011971D02*
X005962Y011971D01*
X005962Y012157D01*
X005900Y012218D01*
X005715Y012218D01*
X005715Y012340D02*
X006085Y012340D01*
X005962Y012525D02*
X005838Y012340D01*
X005715Y012525D01*
X005777Y012647D02*
X005715Y012708D01*
X005715Y012832D01*
X005777Y012894D01*
X005900Y012894D01*
X005962Y012832D01*
X005962Y012708D01*
X005900Y012647D01*
X005777Y012647D01*
X005715Y011235D02*
X006085Y011235D01*
X005838Y011052D02*
X005838Y010928D01*
X005900Y010866D01*
X005715Y010866D02*
X005715Y011052D01*
X005777Y011113D01*
X005838Y011052D01*
X005715Y010130D02*
X006085Y010130D01*
X006147Y005342D02*
X006085Y005342D01*
X016092Y005649D02*
X016092Y005711D01*
X016153Y005773D01*
X016462Y005773D01*
X016462Y005588D01*
X016400Y005526D01*
X016277Y005526D01*
X016215Y005588D01*
X016215Y005773D01*
X016215Y005894D02*
X016462Y005894D01*
X016462Y006079D01*
X016400Y006141D01*
X016215Y006141D01*
X016277Y006263D02*
X016400Y006263D01*
X016462Y006324D01*
X016462Y006448D01*
X016400Y006509D01*
X016338Y006509D01*
X016338Y006263D01*
X016277Y006263D02*
X016215Y006324D01*
X016215Y006448D01*
X016277Y006631D02*
X016400Y006631D01*
X016462Y006693D01*
X016462Y006878D01*
X016585Y006878D02*
X016215Y006878D01*
X016215Y006693D01*
X016277Y006631D01*
X016215Y007368D02*
X016215Y007553D01*
X016277Y007614D01*
X016400Y007614D01*
X016462Y007553D01*
X016462Y007368D01*
X016585Y007368D02*
X016215Y007368D01*
X016277Y007736D02*
X016215Y007798D01*
X016215Y007983D01*
X016153Y007983D02*
X016092Y007921D01*
X016092Y007859D01*
X016153Y007983D02*
X016462Y007983D01*
X016462Y007736D02*
X016277Y007736D01*
X016215Y008472D02*
X016215Y008596D01*
X016215Y008534D02*
X016585Y008534D01*
X016585Y008472D02*
X016585Y008596D01*
X016462Y008780D02*
X016400Y008718D01*
X016277Y008718D01*
X016215Y008780D01*
X016215Y008965D01*
X016153Y008965D02*
X016462Y008965D01*
X016462Y008780D01*
X016153Y008965D02*
X016092Y008903D01*
X016092Y008841D01*
X016277Y009086D02*
X016215Y009148D01*
X016215Y009271D01*
X016277Y009333D01*
X016400Y009333D01*
X016462Y009271D01*
X016462Y009148D01*
X016400Y009086D01*
X016277Y009086D01*
X016338Y009455D02*
X016462Y009578D01*
X016462Y009640D01*
X016462Y009455D02*
X016215Y009455D01*
X016215Y010130D02*
X016215Y010377D01*
X016277Y010498D02*
X016400Y010498D01*
X016462Y010560D01*
X016462Y010683D01*
X016400Y010745D01*
X016338Y010745D01*
X016338Y010498D01*
X016277Y010498D02*
X016215Y010560D01*
X016215Y010683D01*
X016215Y010866D02*
X016215Y011052D01*
X016277Y011113D01*
X016338Y011052D01*
X016338Y010928D01*
X016400Y010866D01*
X016462Y010928D01*
X016462Y011113D01*
X016400Y011235D02*
X016462Y011297D01*
X016462Y011420D01*
X016400Y011482D01*
X016215Y011482D01*
X016277Y011603D02*
X016400Y011603D01*
X016462Y011665D01*
X016462Y011788D01*
X016400Y011850D01*
X016338Y011850D01*
X016338Y011603D01*
X016277Y011603D02*
X016215Y011665D01*
X016215Y011788D01*
X016215Y011971D02*
X016462Y011971D01*
X016462Y012157D01*
X016400Y012218D01*
X016215Y012218D01*
X016215Y012340D02*
X016585Y012340D01*
X016462Y012525D02*
X016338Y012340D01*
X016215Y012525D01*
X016277Y012647D02*
X016215Y012708D01*
X016215Y012832D01*
X016277Y012894D01*
X016400Y012894D01*
X016462Y012832D01*
X016462Y012708D01*
X016400Y012647D01*
X016277Y012647D01*
X016215Y011235D02*
X016585Y011235D01*
X016585Y010130D02*
X016215Y010130D01*
X016215Y005404D02*
X016215Y005280D01*
X016215Y005342D02*
X016462Y005342D01*
X016462Y005280D01*
X016462Y005159D02*
X016462Y004974D01*
X016400Y004912D01*
X016338Y004974D01*
X016338Y005097D01*
X016277Y005159D01*
X016215Y005097D01*
X016215Y004912D01*
X016338Y004791D02*
X016338Y004544D01*
X016277Y004544D02*
X016400Y004544D01*
X016462Y004605D01*
X016462Y004729D01*
X016400Y004791D01*
X016338Y004791D01*
X016215Y004729D02*
X016215Y004605D01*
X016277Y004544D01*
X016277Y004422D02*
X016524Y004422D01*
X016585Y004361D01*
X016585Y004175D01*
X016215Y004175D01*
X016215Y004361D01*
X016277Y004422D01*
X016585Y005342D02*
X016647Y005342D01*
M02*
