G75*
%MOIN*%
%OFA0B0*%
%FSLAX24Y24*%
%IPPOS*%
%LPD*%
%AMOC8*
5,1,8,0,0,1.08239X$1,22.5*
%
%ADD10C,0.0000*%
%ADD11R,0.0591X0.0591*%
%ADD12R,0.0945X0.0945*%
%ADD13C,0.0600*%
%ADD14C,0.0120*%
%ADD15C,0.0320*%
D10*
X000100Y003500D02*
X000100Y015705D01*
X019785Y015705D01*
X019785Y003500D01*
X000100Y003500D01*
X009825Y004000D02*
X009827Y004021D01*
X009833Y004041D01*
X009842Y004061D01*
X009854Y004078D01*
X009869Y004092D01*
X009887Y004104D01*
X009907Y004112D01*
X009927Y004117D01*
X009948Y004118D01*
X009969Y004115D01*
X009989Y004109D01*
X010008Y004098D01*
X010025Y004085D01*
X010038Y004069D01*
X010049Y004051D01*
X010057Y004031D01*
X010061Y004011D01*
X010061Y003989D01*
X010057Y003969D01*
X010049Y003949D01*
X010038Y003931D01*
X010025Y003915D01*
X010008Y003902D01*
X009989Y003891D01*
X009969Y003885D01*
X009948Y003882D01*
X009927Y003883D01*
X009907Y003888D01*
X009887Y003896D01*
X009869Y003908D01*
X009854Y003922D01*
X009842Y003939D01*
X009833Y003959D01*
X009827Y003979D01*
X009825Y004000D01*
X009825Y009500D02*
X009827Y009521D01*
X009833Y009541D01*
X009842Y009561D01*
X009854Y009578D01*
X009869Y009592D01*
X009887Y009604D01*
X009907Y009612D01*
X009927Y009617D01*
X009948Y009618D01*
X009969Y009615D01*
X009989Y009609D01*
X010008Y009598D01*
X010025Y009585D01*
X010038Y009569D01*
X010049Y009551D01*
X010057Y009531D01*
X010061Y009511D01*
X010061Y009489D01*
X010057Y009469D01*
X010049Y009449D01*
X010038Y009431D01*
X010025Y009415D01*
X010008Y009402D01*
X009989Y009391D01*
X009969Y009385D01*
X009948Y009382D01*
X009927Y009383D01*
X009907Y009388D01*
X009887Y009396D01*
X009869Y009408D01*
X009854Y009422D01*
X009842Y009439D01*
X009833Y009459D01*
X009827Y009479D01*
X009825Y009500D01*
X009825Y015000D02*
X009827Y015021D01*
X009833Y015041D01*
X009842Y015061D01*
X009854Y015078D01*
X009869Y015092D01*
X009887Y015104D01*
X009907Y015112D01*
X009927Y015117D01*
X009948Y015118D01*
X009969Y015115D01*
X009989Y015109D01*
X010008Y015098D01*
X010025Y015085D01*
X010038Y015069D01*
X010049Y015051D01*
X010057Y015031D01*
X010061Y015011D01*
X010061Y014989D01*
X010057Y014969D01*
X010049Y014949D01*
X010038Y014931D01*
X010025Y014915D01*
X010008Y014902D01*
X009989Y014891D01*
X009969Y014885D01*
X009948Y014882D01*
X009927Y014883D01*
X009907Y014888D01*
X009887Y014896D01*
X009869Y014908D01*
X009854Y014922D01*
X009842Y014939D01*
X009833Y014959D01*
X009827Y014979D01*
X009825Y015000D01*
D11*
X004600Y009000D03*
D12*
X015100Y009000D03*
D13*
X011900Y008500D02*
X011300Y008500D01*
X011300Y009500D02*
X011900Y009500D01*
X011900Y010500D02*
X011300Y010500D01*
X011300Y011500D02*
X011900Y011500D01*
X011900Y012500D02*
X011300Y012500D01*
X011300Y013500D02*
X011900Y013500D01*
X011900Y014500D02*
X011300Y014500D01*
X008400Y014500D02*
X007800Y014500D01*
X007800Y013500D02*
X008400Y013500D01*
X008400Y012500D02*
X007800Y012500D01*
X007800Y011500D02*
X008400Y011500D01*
X008400Y010500D02*
X007800Y010500D01*
X007800Y009500D02*
X008400Y009500D01*
X008400Y008500D02*
X007800Y008500D01*
X007800Y007500D02*
X008400Y007500D01*
X008400Y006500D02*
X007800Y006500D01*
X007800Y005500D02*
X008400Y005500D01*
X008400Y004500D02*
X007800Y004500D01*
X005100Y004800D02*
X005100Y004200D01*
X004100Y004200D02*
X004100Y004800D01*
X001400Y004500D02*
X000800Y004500D01*
X000800Y005500D02*
X001400Y005500D01*
X001400Y006500D02*
X000800Y006500D01*
X000800Y007500D02*
X001400Y007500D01*
X001400Y008500D02*
X000800Y008500D01*
X000800Y009500D02*
X001400Y009500D01*
X001400Y010500D02*
X000800Y010500D01*
X000800Y011500D02*
X001400Y011500D01*
X001400Y012500D02*
X000800Y012500D01*
X000800Y013500D02*
X001400Y013500D01*
X001400Y014500D02*
X000800Y014500D01*
X004100Y013800D02*
X004100Y013200D01*
X005100Y013200D02*
X005100Y013800D01*
X011300Y007500D02*
X011900Y007500D01*
X011900Y006500D02*
X011300Y006500D01*
X011300Y005500D02*
X011900Y005500D01*
X011900Y004500D02*
X011300Y004500D01*
X014600Y004800D02*
X014600Y004200D01*
X015600Y004200D02*
X015600Y004800D01*
X018300Y004500D02*
X018900Y004500D01*
X018900Y005500D02*
X018300Y005500D01*
X018300Y006500D02*
X018900Y006500D01*
X018900Y007500D02*
X018300Y007500D01*
X018300Y008500D02*
X018900Y008500D01*
X018900Y009500D02*
X018300Y009500D01*
X018300Y010500D02*
X018900Y010500D01*
X018900Y011500D02*
X018300Y011500D01*
X018300Y012500D02*
X018900Y012500D01*
X018900Y013500D02*
X018300Y013500D01*
X018300Y014500D02*
X018900Y014500D01*
X015600Y013800D02*
X015600Y013200D01*
X014600Y013200D02*
X014600Y013800D01*
D14*
X014970Y014165D02*
X015230Y014165D01*
X015159Y014095D02*
X015100Y013952D01*
X015041Y014095D01*
X014895Y014241D01*
X014703Y014320D01*
X014497Y014320D01*
X014305Y014241D01*
X014159Y014095D01*
X014080Y013903D01*
X014080Y013097D01*
X014159Y012905D01*
X014305Y012759D01*
X014497Y012680D01*
X014703Y012680D01*
X014895Y012759D01*
X015041Y012905D01*
X015100Y013048D01*
X015159Y012905D01*
X015305Y012759D01*
X015497Y012680D01*
X015703Y012680D01*
X015895Y012759D01*
X016041Y012905D01*
X016120Y013097D01*
X016120Y013903D01*
X016041Y014095D01*
X015895Y014241D01*
X015703Y014320D01*
X015497Y014320D01*
X015305Y014241D01*
X015159Y014095D01*
X015139Y014047D02*
X015061Y014047D01*
X014791Y014284D02*
X015409Y014284D01*
X015791Y014284D02*
X017100Y014284D01*
X017100Y014402D02*
X013100Y014402D01*
X013100Y014284D02*
X014409Y014284D01*
X014230Y014165D02*
X013100Y014165D01*
X013100Y014047D02*
X014139Y014047D01*
X014090Y013928D02*
X013100Y013928D01*
X013100Y013810D02*
X014080Y013810D01*
X014080Y013691D02*
X013100Y013691D01*
X013100Y013573D02*
X014080Y013573D01*
X014080Y013454D02*
X013100Y013454D01*
X013100Y013336D02*
X014080Y013336D01*
X014080Y013217D02*
X013100Y013217D01*
X013100Y013099D02*
X014080Y013099D01*
X014128Y012980D02*
X013100Y012980D01*
X013100Y012862D02*
X014203Y012862D01*
X014344Y012743D02*
X013100Y012743D01*
X013100Y012625D02*
X017100Y012625D01*
X017100Y012743D02*
X015856Y012743D01*
X015997Y012862D02*
X017100Y012862D01*
X017100Y012980D02*
X016072Y012980D01*
X016120Y013099D02*
X017100Y013099D01*
X017100Y013217D02*
X016120Y013217D01*
X016120Y013336D02*
X017100Y013336D01*
X017100Y013454D02*
X016120Y013454D01*
X016120Y013573D02*
X017100Y013573D01*
X017100Y013691D02*
X016120Y013691D01*
X016120Y013810D02*
X017100Y013810D01*
X017100Y013928D02*
X016110Y013928D01*
X016061Y014047D02*
X017100Y014047D01*
X017100Y014165D02*
X015970Y014165D01*
X017100Y014521D02*
X013100Y014521D01*
X013100Y014639D02*
X017100Y014639D01*
X017100Y014758D02*
X013100Y014758D01*
X013100Y014876D02*
X017100Y014876D01*
X017100Y014995D02*
X013100Y014995D01*
X013100Y015000D02*
X017100Y015000D01*
X017100Y004000D01*
X016080Y004000D01*
X016120Y004097D01*
X016120Y004903D01*
X016041Y005095D01*
X015895Y005241D01*
X015703Y005320D01*
X015497Y005320D01*
X015305Y005241D01*
X015159Y005095D01*
X015100Y004952D01*
X015041Y005095D01*
X014895Y005241D01*
X014703Y005320D01*
X014497Y005320D01*
X014305Y005241D01*
X014159Y005095D01*
X014080Y004903D01*
X014080Y004097D01*
X014120Y004000D01*
X013100Y004000D01*
X013100Y015000D01*
X015072Y012980D02*
X015128Y012980D01*
X015203Y012862D02*
X014997Y012862D01*
X014856Y012743D02*
X015344Y012743D01*
X017100Y012506D02*
X013100Y012506D01*
X013100Y012388D02*
X017100Y012388D01*
X017100Y012269D02*
X013100Y012269D01*
X013100Y012151D02*
X017100Y012151D01*
X017100Y012032D02*
X013100Y012032D01*
X013100Y011914D02*
X017100Y011914D01*
X017100Y011795D02*
X013100Y011795D01*
X013100Y011677D02*
X017100Y011677D01*
X017100Y011558D02*
X013100Y011558D01*
X013100Y011440D02*
X017100Y011440D01*
X017100Y011321D02*
X013100Y011321D01*
X013100Y011203D02*
X017100Y011203D01*
X017100Y011084D02*
X013100Y011084D01*
X013100Y010966D02*
X017100Y010966D01*
X017100Y010847D02*
X013100Y010847D01*
X013100Y010729D02*
X017100Y010729D01*
X017100Y010610D02*
X013100Y010610D01*
X013100Y010492D02*
X017100Y010492D01*
X017100Y010373D02*
X013100Y010373D01*
X013100Y010255D02*
X017100Y010255D01*
X017100Y010136D02*
X013100Y010136D01*
X013100Y010018D02*
X017100Y010018D01*
X017100Y009899D02*
X013100Y009899D01*
X013100Y009781D02*
X017100Y009781D01*
X017100Y009662D02*
X013100Y009662D01*
X013100Y009544D02*
X017100Y009544D01*
X017100Y009425D02*
X013100Y009425D01*
X013100Y009307D02*
X017100Y009307D01*
X017100Y009188D02*
X013100Y009188D01*
X013100Y009070D02*
X017100Y009070D01*
X017100Y008951D02*
X013100Y008951D01*
X013100Y008833D02*
X017100Y008833D01*
X017100Y008714D02*
X013100Y008714D01*
X013100Y008596D02*
X017100Y008596D01*
X017100Y008477D02*
X013100Y008477D01*
X013100Y008359D02*
X017100Y008359D01*
X017100Y008240D02*
X013100Y008240D01*
X013100Y008122D02*
X017100Y008122D01*
X017100Y008003D02*
X013100Y008003D01*
X013100Y007885D02*
X017100Y007885D01*
X017100Y007766D02*
X013100Y007766D01*
X013100Y007648D02*
X017100Y007648D01*
X017100Y007529D02*
X013100Y007529D01*
X013100Y007411D02*
X017100Y007411D01*
X017100Y007292D02*
X013100Y007292D01*
X013100Y007174D02*
X017100Y007174D01*
X017100Y007055D02*
X013100Y007055D01*
X013100Y006937D02*
X017100Y006937D01*
X017100Y006818D02*
X013100Y006818D01*
X013100Y006700D02*
X017100Y006700D01*
X017100Y006581D02*
X013100Y006581D01*
X013100Y006463D02*
X017100Y006463D01*
X017100Y006344D02*
X013100Y006344D01*
X013100Y006226D02*
X017100Y006226D01*
X017100Y006107D02*
X013100Y006107D01*
X013100Y005989D02*
X017100Y005989D01*
X017100Y005870D02*
X013100Y005870D01*
X013100Y005752D02*
X017100Y005752D01*
X017100Y005633D02*
X013100Y005633D01*
X013100Y005515D02*
X017100Y005515D01*
X017100Y005396D02*
X013100Y005396D01*
X013100Y005278D02*
X014394Y005278D01*
X014224Y005159D02*
X013100Y005159D01*
X013100Y005041D02*
X014137Y005041D01*
X014088Y004922D02*
X013100Y004922D01*
X013100Y004804D02*
X014080Y004804D01*
X014080Y004685D02*
X013100Y004685D01*
X013100Y004567D02*
X014080Y004567D01*
X014080Y004448D02*
X013100Y004448D01*
X013100Y004330D02*
X014080Y004330D01*
X014080Y004211D02*
X013100Y004211D01*
X013100Y004093D02*
X014082Y004093D01*
X015063Y005041D02*
X015137Y005041D01*
X015224Y005159D02*
X014976Y005159D01*
X014806Y005278D02*
X015394Y005278D01*
X015806Y005278D02*
X017100Y005278D01*
X017100Y005159D02*
X015976Y005159D01*
X016063Y005041D02*
X017100Y005041D01*
X017100Y004922D02*
X016112Y004922D01*
X016120Y004804D02*
X017100Y004804D01*
X017100Y004685D02*
X016120Y004685D01*
X016120Y004567D02*
X017100Y004567D01*
X017100Y004448D02*
X016120Y004448D01*
X016120Y004330D02*
X017100Y004330D01*
X017100Y004211D02*
X016120Y004211D01*
X016118Y004093D02*
X017100Y004093D01*
X006600Y004093D02*
X005618Y004093D01*
X005620Y004097D02*
X005620Y004903D01*
X005541Y005095D01*
X005395Y005241D01*
X005203Y005320D01*
X004997Y005320D01*
X004805Y005241D01*
X004659Y005095D01*
X004600Y004952D01*
X004541Y005095D01*
X004395Y005241D01*
X004203Y005320D01*
X003997Y005320D01*
X003805Y005241D01*
X003659Y005095D01*
X003580Y004903D01*
X003580Y004097D01*
X003620Y004000D01*
X002600Y004000D01*
X002600Y015000D01*
X006600Y015000D01*
X006600Y004000D01*
X005580Y004000D01*
X005620Y004097D01*
X005620Y004211D02*
X006600Y004211D01*
X006600Y004330D02*
X005620Y004330D01*
X005620Y004448D02*
X006600Y004448D01*
X006600Y004567D02*
X005620Y004567D01*
X005620Y004685D02*
X006600Y004685D01*
X006600Y004804D02*
X005620Y004804D01*
X005612Y004922D02*
X006600Y004922D01*
X006600Y005041D02*
X005563Y005041D01*
X005476Y005159D02*
X006600Y005159D01*
X006600Y005278D02*
X005306Y005278D01*
X004894Y005278D02*
X004306Y005278D01*
X004476Y005159D02*
X004724Y005159D01*
X004637Y005041D02*
X004563Y005041D01*
X003894Y005278D02*
X002600Y005278D01*
X002600Y005396D02*
X006600Y005396D01*
X006600Y005515D02*
X002600Y005515D01*
X002600Y005633D02*
X006600Y005633D01*
X006600Y005752D02*
X002600Y005752D01*
X002600Y005870D02*
X006600Y005870D01*
X006600Y005989D02*
X002600Y005989D01*
X002600Y006107D02*
X006600Y006107D01*
X006600Y006226D02*
X002600Y006226D01*
X002600Y006344D02*
X006600Y006344D01*
X006600Y006463D02*
X002600Y006463D01*
X002600Y006581D02*
X006600Y006581D01*
X006600Y006700D02*
X002600Y006700D01*
X002600Y006818D02*
X006600Y006818D01*
X006600Y006937D02*
X002600Y006937D01*
X002600Y007055D02*
X006600Y007055D01*
X006600Y007174D02*
X002600Y007174D01*
X002600Y007292D02*
X006600Y007292D01*
X006600Y007411D02*
X002600Y007411D01*
X002600Y007529D02*
X006600Y007529D01*
X006600Y007648D02*
X002600Y007648D01*
X002600Y007766D02*
X006600Y007766D01*
X006600Y007885D02*
X002600Y007885D01*
X002600Y008003D02*
X006600Y008003D01*
X006600Y008122D02*
X002600Y008122D01*
X002600Y008240D02*
X006600Y008240D01*
X006600Y008359D02*
X002600Y008359D01*
X002600Y008477D02*
X006600Y008477D01*
X006600Y008596D02*
X002600Y008596D01*
X002600Y008714D02*
X006600Y008714D01*
X006600Y008833D02*
X002600Y008833D01*
X002600Y008951D02*
X006600Y008951D01*
X006600Y009070D02*
X002600Y009070D01*
X002600Y009188D02*
X006600Y009188D01*
X006600Y009307D02*
X002600Y009307D01*
X002600Y009425D02*
X006600Y009425D01*
X006600Y009544D02*
X002600Y009544D01*
X002600Y009662D02*
X006600Y009662D01*
X006600Y009781D02*
X002600Y009781D01*
X002600Y009899D02*
X006600Y009899D01*
X006600Y010018D02*
X002600Y010018D01*
X002600Y010136D02*
X006600Y010136D01*
X006600Y010255D02*
X002600Y010255D01*
X002600Y010373D02*
X006600Y010373D01*
X006600Y010492D02*
X002600Y010492D01*
X002600Y010610D02*
X006600Y010610D01*
X006600Y010729D02*
X002600Y010729D01*
X002600Y010847D02*
X006600Y010847D01*
X006600Y010966D02*
X002600Y010966D01*
X002600Y011084D02*
X006600Y011084D01*
X006600Y011203D02*
X002600Y011203D01*
X002600Y011321D02*
X006600Y011321D01*
X006600Y011440D02*
X002600Y011440D01*
X002600Y011558D02*
X006600Y011558D01*
X006600Y011677D02*
X002600Y011677D01*
X002600Y011795D02*
X006600Y011795D01*
X006600Y011914D02*
X002600Y011914D01*
X002600Y012032D02*
X006600Y012032D01*
X006600Y012151D02*
X002600Y012151D01*
X002600Y012269D02*
X006600Y012269D01*
X006600Y012388D02*
X002600Y012388D01*
X002600Y012506D02*
X006600Y012506D01*
X006600Y012625D02*
X002600Y012625D01*
X002600Y012743D02*
X003844Y012743D01*
X003805Y012759D02*
X003997Y012680D01*
X004203Y012680D01*
X004395Y012759D01*
X004541Y012905D01*
X004600Y013048D01*
X004659Y012905D01*
X004805Y012759D01*
X004997Y012680D01*
X005203Y012680D01*
X005395Y012759D01*
X005541Y012905D01*
X005620Y013097D01*
X005620Y013903D01*
X005541Y014095D01*
X005395Y014241D01*
X005203Y014320D01*
X004997Y014320D01*
X004805Y014241D01*
X004659Y014095D01*
X004600Y013952D01*
X004541Y014095D01*
X004395Y014241D01*
X004203Y014320D01*
X003997Y014320D01*
X003805Y014241D01*
X003659Y014095D01*
X003580Y013903D01*
X003580Y013097D01*
X003659Y012905D01*
X003805Y012759D01*
X003703Y012862D02*
X002600Y012862D01*
X002600Y012980D02*
X003628Y012980D01*
X003580Y013099D02*
X002600Y013099D01*
X002600Y013217D02*
X003580Y013217D01*
X003580Y013336D02*
X002600Y013336D01*
X002600Y013454D02*
X003580Y013454D01*
X003580Y013573D02*
X002600Y013573D01*
X002600Y013691D02*
X003580Y013691D01*
X003580Y013810D02*
X002600Y013810D01*
X002600Y013928D02*
X003590Y013928D01*
X003639Y014047D02*
X002600Y014047D01*
X002600Y014165D02*
X003730Y014165D01*
X003909Y014284D02*
X002600Y014284D01*
X002600Y014402D02*
X006600Y014402D01*
X006600Y014284D02*
X005291Y014284D01*
X005470Y014165D02*
X006600Y014165D01*
X006600Y014047D02*
X005561Y014047D01*
X005610Y013928D02*
X006600Y013928D01*
X006600Y013810D02*
X005620Y013810D01*
X005620Y013691D02*
X006600Y013691D01*
X006600Y013573D02*
X005620Y013573D01*
X005620Y013454D02*
X006600Y013454D01*
X006600Y013336D02*
X005620Y013336D01*
X005620Y013217D02*
X006600Y013217D01*
X006600Y013099D02*
X005620Y013099D01*
X005572Y012980D02*
X006600Y012980D01*
X006600Y012862D02*
X005497Y012862D01*
X005356Y012743D02*
X006600Y012743D01*
X004844Y012743D02*
X004356Y012743D01*
X004497Y012862D02*
X004703Y012862D01*
X004628Y012980D02*
X004572Y012980D01*
X004561Y014047D02*
X004639Y014047D01*
X004730Y014165D02*
X004470Y014165D01*
X004291Y014284D02*
X004909Y014284D01*
X006600Y014521D02*
X002600Y014521D01*
X002600Y014639D02*
X006600Y014639D01*
X006600Y014758D02*
X002600Y014758D01*
X002600Y014876D02*
X006600Y014876D01*
X006600Y014995D02*
X002600Y014995D01*
X002600Y005159D02*
X003724Y005159D01*
X003637Y005041D02*
X002600Y005041D01*
X002600Y004922D02*
X003588Y004922D01*
X003580Y004804D02*
X002600Y004804D01*
X002600Y004685D02*
X003580Y004685D01*
X003580Y004567D02*
X002600Y004567D01*
X002600Y004448D02*
X003580Y004448D01*
X003580Y004330D02*
X002600Y004330D01*
X002600Y004211D02*
X003580Y004211D01*
X003582Y004093D02*
X002600Y004093D01*
D15*
X004600Y009000D02*
X004600Y011000D01*
X003100Y012500D01*
X003100Y014500D01*
X008100Y014500D01*
X011600Y014500D02*
X013600Y014500D01*
X013600Y013000D01*
X015100Y011500D01*
X015100Y009000D01*
X013600Y014500D02*
X018600Y014500D01*
X003100Y014500D02*
X001100Y014500D01*
M02*
