G75*
%MOIN*%
%OFA0B0*%
%FSLAX24Y24*%
%IPPOS*%
%LPD*%
%AMOC8*
5,1,8,0,0,1.08239X$1,22.5*
%
%ADD10C,0.0000*%
%ADD11C,0.0276*%
%ADD12R,0.0631X0.0631*%
%ADD13R,0.0985X0.0985*%
%ADD14C,0.0640*%
D10*
X000100Y003500D02*
X000100Y015705D01*
X019785Y015705D01*
X019785Y003500D01*
X000100Y003500D01*
X009825Y004000D02*
X009827Y004021D01*
X009833Y004041D01*
X009842Y004061D01*
X009854Y004078D01*
X009869Y004092D01*
X009887Y004104D01*
X009907Y004112D01*
X009927Y004117D01*
X009948Y004118D01*
X009969Y004115D01*
X009989Y004109D01*
X010008Y004098D01*
X010025Y004085D01*
X010038Y004069D01*
X010049Y004051D01*
X010057Y004031D01*
X010061Y004011D01*
X010061Y003989D01*
X010057Y003969D01*
X010049Y003949D01*
X010038Y003931D01*
X010025Y003915D01*
X010008Y003902D01*
X009989Y003891D01*
X009969Y003885D01*
X009948Y003882D01*
X009927Y003883D01*
X009907Y003888D01*
X009887Y003896D01*
X009869Y003908D01*
X009854Y003922D01*
X009842Y003939D01*
X009833Y003959D01*
X009827Y003979D01*
X009825Y004000D01*
X009825Y009500D02*
X009827Y009521D01*
X009833Y009541D01*
X009842Y009561D01*
X009854Y009578D01*
X009869Y009592D01*
X009887Y009604D01*
X009907Y009612D01*
X009927Y009617D01*
X009948Y009618D01*
X009969Y009615D01*
X009989Y009609D01*
X010008Y009598D01*
X010025Y009585D01*
X010038Y009569D01*
X010049Y009551D01*
X010057Y009531D01*
X010061Y009511D01*
X010061Y009489D01*
X010057Y009469D01*
X010049Y009449D01*
X010038Y009431D01*
X010025Y009415D01*
X010008Y009402D01*
X009989Y009391D01*
X009969Y009385D01*
X009948Y009382D01*
X009927Y009383D01*
X009907Y009388D01*
X009887Y009396D01*
X009869Y009408D01*
X009854Y009422D01*
X009842Y009439D01*
X009833Y009459D01*
X009827Y009479D01*
X009825Y009500D01*
X009825Y015000D02*
X009827Y015021D01*
X009833Y015041D01*
X009842Y015061D01*
X009854Y015078D01*
X009869Y015092D01*
X009887Y015104D01*
X009907Y015112D01*
X009927Y015117D01*
X009948Y015118D01*
X009969Y015115D01*
X009989Y015109D01*
X010008Y015098D01*
X010025Y015085D01*
X010038Y015069D01*
X010049Y015051D01*
X010057Y015031D01*
X010061Y015011D01*
X010061Y014989D01*
X010057Y014969D01*
X010049Y014949D01*
X010038Y014931D01*
X010025Y014915D01*
X010008Y014902D01*
X009989Y014891D01*
X009969Y014885D01*
X009948Y014882D01*
X009927Y014883D01*
X009907Y014888D01*
X009887Y014896D01*
X009869Y014908D01*
X009854Y014922D01*
X009842Y014939D01*
X009833Y014959D01*
X009827Y014979D01*
X009825Y015000D01*
D11*
X009943Y015000D03*
X009943Y009500D03*
X009943Y004000D03*
D12*
X004600Y009000D03*
D13*
X015100Y009000D03*
D14*
X011900Y008500D02*
X011300Y008500D01*
X011300Y009500D02*
X011900Y009500D01*
X011900Y010500D02*
X011300Y010500D01*
X011300Y011500D02*
X011900Y011500D01*
X011900Y012500D02*
X011300Y012500D01*
X011300Y013500D02*
X011900Y013500D01*
X011900Y014500D02*
X011300Y014500D01*
X008400Y014500D02*
X007800Y014500D01*
X007800Y013500D02*
X008400Y013500D01*
X008400Y012500D02*
X007800Y012500D01*
X007800Y011500D02*
X008400Y011500D01*
X008400Y010500D02*
X007800Y010500D01*
X007800Y009500D02*
X008400Y009500D01*
X008400Y008500D02*
X007800Y008500D01*
X007800Y007500D02*
X008400Y007500D01*
X008400Y006500D02*
X007800Y006500D01*
X007800Y005500D02*
X008400Y005500D01*
X008400Y004500D02*
X007800Y004500D01*
X005100Y004800D02*
X005100Y004200D01*
X004100Y004200D02*
X004100Y004800D01*
X001400Y004500D02*
X000800Y004500D01*
X000800Y005500D02*
X001400Y005500D01*
X001400Y006500D02*
X000800Y006500D01*
X000800Y007500D02*
X001400Y007500D01*
X001400Y008500D02*
X000800Y008500D01*
X000800Y009500D02*
X001400Y009500D01*
X001400Y010500D02*
X000800Y010500D01*
X000800Y011500D02*
X001400Y011500D01*
X001400Y012500D02*
X000800Y012500D01*
X000800Y013500D02*
X001400Y013500D01*
X001400Y014500D02*
X000800Y014500D01*
X004100Y013800D02*
X004100Y013200D01*
X005100Y013200D02*
X005100Y013800D01*
X011300Y007500D02*
X011900Y007500D01*
X011900Y006500D02*
X011300Y006500D01*
X011300Y005500D02*
X011900Y005500D01*
X011900Y004500D02*
X011300Y004500D01*
X014600Y004800D02*
X014600Y004200D01*
X015600Y004200D02*
X015600Y004800D01*
X018300Y004500D02*
X018900Y004500D01*
X018900Y005500D02*
X018300Y005500D01*
X018300Y006500D02*
X018900Y006500D01*
X018900Y007500D02*
X018300Y007500D01*
X018300Y008500D02*
X018900Y008500D01*
X018900Y009500D02*
X018300Y009500D01*
X018300Y010500D02*
X018900Y010500D01*
X018900Y011500D02*
X018300Y011500D01*
X018300Y012500D02*
X018900Y012500D01*
X018900Y013500D02*
X018300Y013500D01*
X018300Y014500D02*
X018900Y014500D01*
X015600Y013800D02*
X015600Y013200D01*
X014600Y013200D02*
X014600Y013800D01*
M02*
