G75*
%MOIN*%
%OFA0B0*%
%FSLAX24Y24*%
%IPPOS*%
%LPD*%
%AMOC8*
5,1,8,0,0,1.08239X$1,22.5*
%
%ADD10C,0.0000*%
%ADD11C,0.0120*%
%ADD12C,0.0030*%
%ADD13C,0.0080*%
%ADD14C,0.0050*%
%ADD15C,0.0060*%
%ADD16R,0.0200X0.0200*%
%ADD17C,0.0300*%
%ADD18R,0.0300X0.0200*%
%ADD19R,0.0300X0.0400*%
D10*
X000100Y003500D02*
X000100Y015705D01*
X019785Y015705D01*
X019785Y003500D01*
X000100Y003500D01*
X009825Y004000D02*
X009827Y004021D01*
X009833Y004041D01*
X009842Y004061D01*
X009854Y004078D01*
X009869Y004092D01*
X009887Y004104D01*
X009907Y004112D01*
X009927Y004117D01*
X009948Y004118D01*
X009969Y004115D01*
X009989Y004109D01*
X010008Y004098D01*
X010025Y004085D01*
X010038Y004069D01*
X010049Y004051D01*
X010057Y004031D01*
X010061Y004011D01*
X010061Y003989D01*
X010057Y003969D01*
X010049Y003949D01*
X010038Y003931D01*
X010025Y003915D01*
X010008Y003902D01*
X009989Y003891D01*
X009969Y003885D01*
X009948Y003882D01*
X009927Y003883D01*
X009907Y003888D01*
X009887Y003896D01*
X009869Y003908D01*
X009854Y003922D01*
X009842Y003939D01*
X009833Y003959D01*
X009827Y003979D01*
X009825Y004000D01*
X009825Y009500D02*
X009827Y009521D01*
X009833Y009541D01*
X009842Y009561D01*
X009854Y009578D01*
X009869Y009592D01*
X009887Y009604D01*
X009907Y009612D01*
X009927Y009617D01*
X009948Y009618D01*
X009969Y009615D01*
X009989Y009609D01*
X010008Y009598D01*
X010025Y009585D01*
X010038Y009569D01*
X010049Y009551D01*
X010057Y009531D01*
X010061Y009511D01*
X010061Y009489D01*
X010057Y009469D01*
X010049Y009449D01*
X010038Y009431D01*
X010025Y009415D01*
X010008Y009402D01*
X009989Y009391D01*
X009969Y009385D01*
X009948Y009382D01*
X009927Y009383D01*
X009907Y009388D01*
X009887Y009396D01*
X009869Y009408D01*
X009854Y009422D01*
X009842Y009439D01*
X009833Y009459D01*
X009827Y009479D01*
X009825Y009500D01*
X009825Y015000D02*
X009827Y015021D01*
X009833Y015041D01*
X009842Y015061D01*
X009854Y015078D01*
X009869Y015092D01*
X009887Y015104D01*
X009907Y015112D01*
X009927Y015117D01*
X009948Y015118D01*
X009969Y015115D01*
X009989Y015109D01*
X010008Y015098D01*
X010025Y015085D01*
X010038Y015069D01*
X010049Y015051D01*
X010057Y015031D01*
X010061Y015011D01*
X010061Y014989D01*
X010057Y014969D01*
X010049Y014949D01*
X010038Y014931D01*
X010025Y014915D01*
X010008Y014902D01*
X009989Y014891D01*
X009969Y014885D01*
X009948Y014882D01*
X009927Y014883D01*
X009907Y014888D01*
X009887Y014896D01*
X009869Y014908D01*
X009854Y014922D01*
X009842Y014939D01*
X009833Y014959D01*
X009827Y014979D01*
X009825Y015000D01*
D11*
X009943Y015705D02*
X009943Y003500D01*
D12*
X012615Y004515D02*
X012862Y004515D01*
X012738Y004515D02*
X012738Y004885D01*
X012615Y004762D01*
X012983Y004824D02*
X012983Y004577D01*
X013230Y004824D01*
X013230Y004577D01*
X013168Y004515D01*
X013045Y004515D01*
X012983Y004577D01*
X012983Y004824D02*
X013045Y004885D01*
X013168Y004885D01*
X013230Y004824D01*
X012800Y005515D02*
X012677Y005515D01*
X012615Y005577D01*
X012677Y005700D02*
X012862Y005700D01*
X012862Y005577D02*
X012862Y005824D01*
X012800Y005885D01*
X012677Y005885D01*
X012615Y005824D01*
X012615Y005762D01*
X012677Y005700D01*
X012800Y005515D02*
X012862Y005577D01*
X012800Y006515D02*
X012677Y006515D01*
X012615Y006577D01*
X012615Y006638D01*
X012677Y006700D01*
X012800Y006700D01*
X012862Y006638D01*
X012862Y006577D01*
X012800Y006515D01*
X012800Y006700D02*
X012862Y006762D01*
X012862Y006824D01*
X012800Y006885D01*
X012677Y006885D01*
X012615Y006824D01*
X012615Y006762D01*
X012677Y006700D01*
X012615Y007515D02*
X012615Y007577D01*
X012862Y007824D01*
X012862Y007885D01*
X012615Y007885D01*
X012677Y008515D02*
X012800Y008515D01*
X012862Y008577D01*
X012862Y008638D01*
X012800Y008700D01*
X012615Y008700D01*
X012615Y008577D01*
X012677Y008515D01*
X012615Y008700D02*
X012738Y008824D01*
X012862Y008885D01*
X012800Y009515D02*
X012677Y009515D01*
X012615Y009577D01*
X012615Y009700D02*
X012738Y009762D01*
X012800Y009762D01*
X012862Y009700D01*
X012862Y009577D01*
X012800Y009515D01*
X012615Y009700D02*
X012615Y009885D01*
X012862Y009885D01*
X012800Y010515D02*
X012800Y010885D01*
X012615Y010700D01*
X012862Y010700D01*
X012800Y011515D02*
X012677Y011515D01*
X012615Y011577D01*
X012738Y011700D02*
X012800Y011700D01*
X012862Y011638D01*
X012862Y011577D01*
X012800Y011515D01*
X012800Y011700D02*
X012862Y011762D01*
X012862Y011824D01*
X012800Y011885D01*
X012677Y011885D01*
X012615Y011824D01*
X012615Y012515D02*
X012862Y012762D01*
X012862Y012824D01*
X012800Y012885D01*
X012677Y012885D01*
X012615Y012824D01*
X012615Y012515D02*
X012862Y012515D01*
X012808Y013515D02*
X012615Y013515D01*
X012712Y013515D02*
X012712Y013805D01*
X012615Y013708D01*
X012663Y014515D02*
X012760Y014515D01*
X012808Y014563D01*
X012808Y014660D01*
X012712Y014660D01*
X012808Y014757D02*
X012760Y014805D01*
X012663Y014805D01*
X012615Y014757D01*
X012615Y014563D01*
X012663Y014515D01*
X012910Y014515D02*
X012910Y014805D01*
X013103Y014515D01*
X013103Y014805D01*
X013204Y014805D02*
X013349Y014805D01*
X013398Y014757D01*
X013398Y014563D01*
X013349Y014515D01*
X013204Y014515D01*
X013204Y014805D01*
X016615Y014757D02*
X016615Y014563D01*
X016663Y014515D01*
X016760Y014515D01*
X016808Y014563D01*
X016808Y014660D01*
X016712Y014660D01*
X016808Y014757D02*
X016760Y014805D01*
X016663Y014805D01*
X016615Y014757D01*
X016910Y014805D02*
X016910Y014515D01*
X017103Y014515D02*
X017103Y014805D01*
X017204Y014805D02*
X017349Y014805D01*
X017398Y014757D01*
X017398Y014563D01*
X017349Y014515D01*
X017204Y014515D01*
X017204Y014805D01*
X016910Y014805D02*
X017103Y014515D01*
X017177Y013885D02*
X017115Y013824D01*
X017177Y013885D02*
X017300Y013885D01*
X017362Y013824D01*
X017362Y013762D01*
X017115Y013515D01*
X017362Y013515D01*
X017483Y013577D02*
X017730Y013824D01*
X017730Y013577D01*
X017668Y013515D01*
X017545Y013515D01*
X017483Y013577D01*
X017483Y013824D01*
X017545Y013885D01*
X017668Y013885D01*
X017730Y013824D01*
X017668Y012885D02*
X017545Y012885D01*
X017483Y012824D01*
X017483Y012762D01*
X017545Y012700D01*
X017730Y012700D01*
X017730Y012577D02*
X017668Y012515D01*
X017545Y012515D01*
X017483Y012577D01*
X017362Y012515D02*
X017115Y012515D01*
X017238Y012515D02*
X017238Y012885D01*
X017115Y012762D01*
X017668Y012885D02*
X017730Y012824D01*
X017730Y012577D01*
X017668Y011885D02*
X017730Y011824D01*
X017730Y011762D01*
X017668Y011700D01*
X017545Y011700D01*
X017483Y011762D01*
X017483Y011824D01*
X017545Y011885D01*
X017668Y011885D01*
X017668Y011700D02*
X017730Y011638D01*
X017730Y011577D01*
X017668Y011515D01*
X017545Y011515D01*
X017483Y011577D01*
X017483Y011638D01*
X017545Y011700D01*
X017362Y011515D02*
X017115Y011515D01*
X017238Y011515D02*
X017238Y011885D01*
X017115Y011762D01*
X017238Y010885D02*
X017238Y010515D01*
X017115Y010515D02*
X017362Y010515D01*
X017483Y010515D02*
X017483Y010577D01*
X017730Y010824D01*
X017730Y010885D01*
X017483Y010885D01*
X017238Y010885D02*
X017115Y010762D01*
X017238Y009885D02*
X017238Y009515D01*
X017115Y009515D02*
X017362Y009515D01*
X017483Y009577D02*
X017545Y009515D01*
X017668Y009515D01*
X017730Y009577D01*
X017730Y009638D01*
X017668Y009700D01*
X017483Y009700D01*
X017483Y009577D01*
X017483Y009700D02*
X017607Y009824D01*
X017730Y009885D01*
X017238Y009885D02*
X017115Y009762D01*
X017238Y008885D02*
X017238Y008515D01*
X017115Y008515D02*
X017362Y008515D01*
X017483Y008577D02*
X017545Y008515D01*
X017668Y008515D01*
X017730Y008577D01*
X017730Y008700D01*
X017668Y008762D01*
X017607Y008762D01*
X017483Y008700D01*
X017483Y008885D01*
X017730Y008885D01*
X017238Y008885D02*
X017115Y008762D01*
X017238Y007885D02*
X017238Y007515D01*
X017115Y007515D02*
X017362Y007515D01*
X017483Y007700D02*
X017730Y007700D01*
X017668Y007515D02*
X017668Y007885D01*
X017483Y007700D01*
X017238Y007885D02*
X017115Y007762D01*
X017238Y006885D02*
X017238Y006515D01*
X017115Y006515D02*
X017362Y006515D01*
X017483Y006577D02*
X017545Y006515D01*
X017668Y006515D01*
X017730Y006577D01*
X017730Y006638D01*
X017668Y006700D01*
X017607Y006700D01*
X017668Y006700D02*
X017730Y006762D01*
X017730Y006824D01*
X017668Y006885D01*
X017545Y006885D01*
X017483Y006824D01*
X017238Y006885D02*
X017115Y006762D01*
X017238Y005885D02*
X017238Y005515D01*
X017115Y005515D02*
X017362Y005515D01*
X017483Y005515D02*
X017730Y005762D01*
X017730Y005824D01*
X017668Y005885D01*
X017545Y005885D01*
X017483Y005824D01*
X017238Y005885D02*
X017115Y005762D01*
X017483Y005515D02*
X017730Y005515D01*
X017607Y004885D02*
X017607Y004515D01*
X017730Y004515D02*
X017483Y004515D01*
X017362Y004515D02*
X017115Y004515D01*
X017238Y004515D02*
X017238Y004885D01*
X017115Y004762D01*
X017483Y004762D02*
X017607Y004885D01*
X015887Y008213D02*
X014313Y008213D01*
X014313Y009787D01*
X015887Y009787D01*
X015887Y008213D01*
X007230Y008577D02*
X007168Y008515D01*
X007045Y008515D01*
X006983Y008577D01*
X006983Y008700D02*
X007107Y008762D01*
X007168Y008762D01*
X007230Y008700D01*
X007230Y008577D01*
X006983Y008700D02*
X006983Y008885D01*
X007230Y008885D01*
X006862Y008515D02*
X006615Y008515D01*
X006738Y008515D02*
X006738Y008885D01*
X006615Y008762D01*
X006615Y009515D02*
X006862Y009515D01*
X006738Y009515D02*
X006738Y009885D01*
X006615Y009762D01*
X006983Y009700D02*
X007168Y009700D01*
X007230Y009638D01*
X007230Y009577D01*
X007168Y009515D01*
X007045Y009515D01*
X006983Y009577D01*
X006983Y009700D01*
X007107Y009824D01*
X007230Y009885D01*
X006983Y010515D02*
X006983Y010577D01*
X007230Y010824D01*
X007230Y010885D01*
X006983Y010885D01*
X006738Y010885D02*
X006738Y010515D01*
X006615Y010515D02*
X006862Y010515D01*
X006615Y010762D02*
X006738Y010885D01*
X006738Y011515D02*
X006738Y011885D01*
X006615Y011762D01*
X006615Y011515D02*
X006862Y011515D01*
X006983Y011577D02*
X006983Y011638D01*
X007045Y011700D01*
X007168Y011700D01*
X007230Y011638D01*
X007230Y011577D01*
X007168Y011515D01*
X007045Y011515D01*
X006983Y011577D01*
X007045Y011700D02*
X006983Y011762D01*
X006983Y011824D01*
X007045Y011885D01*
X007168Y011885D01*
X007230Y011824D01*
X007230Y011762D01*
X007168Y011700D01*
X007168Y012515D02*
X007045Y012515D01*
X006983Y012577D01*
X006862Y012515D02*
X006615Y012515D01*
X006738Y012515D02*
X006738Y012885D01*
X006615Y012762D01*
X006983Y012762D02*
X007045Y012700D01*
X007230Y012700D01*
X007230Y012577D02*
X007230Y012824D01*
X007168Y012885D01*
X007045Y012885D01*
X006983Y012824D01*
X006983Y012762D01*
X007168Y012515D02*
X007230Y012577D01*
X007168Y013515D02*
X007045Y013515D01*
X006983Y013577D01*
X007230Y013824D01*
X007230Y013577D01*
X007168Y013515D01*
X006983Y013577D02*
X006983Y013824D01*
X007045Y013885D01*
X007168Y013885D01*
X007230Y013824D01*
X006862Y013824D02*
X006800Y013885D01*
X006677Y013885D01*
X006615Y013824D01*
X006862Y013824D02*
X006862Y013762D01*
X006615Y013515D01*
X006862Y013515D01*
X006849Y014515D02*
X006704Y014515D01*
X006704Y014805D01*
X006849Y014805D01*
X006898Y014757D01*
X006898Y014563D01*
X006849Y014515D01*
X006603Y014515D02*
X006603Y014805D01*
X006410Y014805D02*
X006603Y014515D01*
X006410Y014515D02*
X006410Y014805D01*
X006308Y014757D02*
X006260Y014805D01*
X006163Y014805D01*
X006115Y014757D01*
X006115Y014563D01*
X006163Y014515D01*
X006260Y014515D01*
X006308Y014563D01*
X006308Y014660D01*
X006212Y014660D01*
X002898Y014563D02*
X002898Y014757D01*
X002849Y014805D01*
X002704Y014805D01*
X002704Y014515D01*
X002849Y014515D01*
X002898Y014563D01*
X002603Y014515D02*
X002603Y014805D01*
X002410Y014805D02*
X002603Y014515D01*
X002410Y014515D02*
X002410Y014805D01*
X002308Y014757D02*
X002260Y014805D01*
X002163Y014805D01*
X002115Y014757D01*
X002115Y014563D01*
X002163Y014515D01*
X002260Y014515D01*
X002308Y014563D01*
X002308Y014660D01*
X002212Y014660D01*
X002212Y013805D02*
X002115Y013708D01*
X002212Y013805D02*
X002212Y013515D01*
X002308Y013515D02*
X002115Y013515D01*
X002163Y012805D02*
X002115Y012757D01*
X002163Y012805D02*
X002260Y012805D01*
X002308Y012757D01*
X002308Y012708D01*
X002115Y012515D01*
X002308Y012515D01*
X002300Y011885D02*
X002177Y011885D01*
X002115Y011824D01*
X002238Y011700D02*
X002300Y011700D01*
X002362Y011638D01*
X002362Y011577D01*
X002300Y011515D01*
X002177Y011515D01*
X002115Y011577D01*
X002300Y011700D02*
X002362Y011762D01*
X002362Y011824D01*
X002300Y011885D01*
X002300Y010885D02*
X002115Y010700D01*
X002362Y010700D01*
X002300Y010515D02*
X002300Y010885D01*
X002362Y009885D02*
X002115Y009885D01*
X002115Y009700D01*
X002238Y009762D01*
X002300Y009762D01*
X002362Y009700D01*
X002362Y009577D01*
X002300Y009515D01*
X002177Y009515D01*
X002115Y009577D01*
X002362Y008885D02*
X002238Y008824D01*
X002115Y008700D01*
X002300Y008700D01*
X002362Y008638D01*
X002362Y008577D01*
X002300Y008515D01*
X002177Y008515D01*
X002115Y008577D01*
X002115Y008700D01*
X002115Y007885D02*
X002362Y007885D01*
X002362Y007824D01*
X002115Y007577D01*
X002115Y007515D01*
X002177Y006885D02*
X002300Y006885D01*
X002362Y006824D01*
X002362Y006762D01*
X002300Y006700D01*
X002177Y006700D01*
X002115Y006762D01*
X002115Y006824D01*
X002177Y006885D01*
X002177Y006700D02*
X002115Y006638D01*
X002115Y006577D01*
X002177Y006515D01*
X002300Y006515D01*
X002362Y006577D01*
X002362Y006638D01*
X002300Y006700D01*
X002300Y005885D02*
X002177Y005885D01*
X002115Y005824D01*
X002115Y005762D01*
X002177Y005700D01*
X002362Y005700D01*
X002362Y005577D02*
X002362Y005824D01*
X002300Y005885D01*
X002362Y005577D02*
X002300Y005515D01*
X002177Y005515D01*
X002115Y005577D01*
X002238Y004885D02*
X002238Y004515D01*
X002115Y004515D02*
X002362Y004515D01*
X002483Y004577D02*
X002483Y004824D01*
X002545Y004885D01*
X002668Y004885D01*
X002730Y004824D01*
X002483Y004577D01*
X002545Y004515D01*
X002668Y004515D01*
X002730Y004577D01*
X002730Y004824D01*
X002238Y004885D02*
X002115Y004762D01*
X003813Y008213D02*
X003813Y009787D01*
X005387Y009787D01*
X005387Y008213D01*
X003813Y008213D01*
X006615Y007762D02*
X006738Y007885D01*
X006738Y007515D01*
X006615Y007515D02*
X006862Y007515D01*
X006983Y007700D02*
X007230Y007700D01*
X007168Y007515D02*
X007168Y007885D01*
X006983Y007700D01*
X007045Y006885D02*
X007168Y006885D01*
X007230Y006824D01*
X007230Y006762D01*
X007168Y006700D01*
X007230Y006638D01*
X007230Y006577D01*
X007168Y006515D01*
X007045Y006515D01*
X006983Y006577D01*
X006862Y006515D02*
X006615Y006515D01*
X006738Y006515D02*
X006738Y006885D01*
X006615Y006762D01*
X006983Y006824D02*
X007045Y006885D01*
X007107Y006700D02*
X007168Y006700D01*
X007168Y005885D02*
X007045Y005885D01*
X006983Y005824D01*
X007168Y005885D02*
X007230Y005824D01*
X007230Y005762D01*
X006983Y005515D01*
X007230Y005515D01*
X006862Y005515D02*
X006615Y005515D01*
X006738Y005515D02*
X006738Y005885D01*
X006615Y005762D01*
X006738Y004885D02*
X006738Y004515D01*
X006615Y004515D02*
X006862Y004515D01*
X006983Y004515D02*
X007230Y004515D01*
X007107Y004515D02*
X007107Y004885D01*
X006983Y004762D01*
X006738Y004885D02*
X006615Y004762D01*
D13*
X003813Y009591D02*
X004009Y009787D01*
X014313Y009591D02*
X014509Y009787D01*
D14*
X013941Y009787D02*
X013943Y009805D01*
X013949Y009822D01*
X013958Y009838D01*
X013971Y009851D01*
X013986Y009861D01*
X014003Y009868D01*
X014020Y009871D01*
X014039Y009870D01*
X014056Y009865D01*
X014072Y009857D01*
X014086Y009845D01*
X014097Y009830D01*
X014105Y009814D01*
X014109Y009796D01*
X014109Y009778D01*
X014105Y009760D01*
X014097Y009744D01*
X014086Y009729D01*
X014072Y009717D01*
X014056Y009709D01*
X014039Y009704D01*
X014020Y009703D01*
X014003Y009706D01*
X013986Y009713D01*
X013971Y009723D01*
X013958Y009736D01*
X013949Y009752D01*
X013943Y009769D01*
X013941Y009787D01*
X003441Y009787D02*
X003443Y009805D01*
X003449Y009822D01*
X003458Y009838D01*
X003471Y009851D01*
X003486Y009861D01*
X003503Y009868D01*
X003520Y009871D01*
X003539Y009870D01*
X003556Y009865D01*
X003572Y009857D01*
X003586Y009845D01*
X003597Y009830D01*
X003605Y009814D01*
X003609Y009796D01*
X003609Y009778D01*
X003605Y009760D01*
X003597Y009744D01*
X003586Y009729D01*
X003572Y009717D01*
X003556Y009709D01*
X003539Y009704D01*
X003520Y009703D01*
X003503Y009706D01*
X003486Y009713D01*
X003471Y009723D01*
X003458Y009736D01*
X003449Y009752D01*
X003443Y009769D01*
X003441Y009787D01*
D15*
X003600Y002750D02*
X004600Y002750D01*
X005600Y002750D01*
X005600Y003750D01*
X004600Y003750D01*
X003600Y003750D01*
X003600Y002750D01*
X004600Y002750D02*
X004600Y003750D01*
X001600Y004250D02*
X001600Y004750D01*
X001350Y005000D01*
X001600Y005250D01*
X001600Y005750D01*
X001350Y006000D01*
X000850Y006000D01*
X000600Y005750D01*
X000600Y005250D01*
X000850Y005000D01*
X001350Y005000D01*
X000850Y005000D02*
X000600Y004750D01*
X000600Y004250D01*
X000850Y004000D01*
X001350Y004000D01*
X001600Y004250D01*
X001350Y006000D02*
X001600Y006250D01*
X001600Y006750D01*
X001350Y007000D01*
X001600Y007250D01*
X001600Y007750D01*
X001350Y008000D01*
X001600Y008250D01*
X001600Y008750D01*
X001350Y009000D01*
X000850Y009000D01*
X000600Y008750D01*
X000600Y008250D01*
X000850Y008000D01*
X001350Y008000D01*
X000850Y008000D02*
X000600Y007750D01*
X000600Y007250D01*
X000850Y007000D01*
X001350Y007000D01*
X000850Y007000D02*
X000600Y006750D01*
X000600Y006250D01*
X000850Y006000D01*
X000850Y009000D02*
X000600Y009250D01*
X000600Y009750D01*
X000850Y010000D01*
X000600Y010250D01*
X000600Y010750D01*
X000850Y011000D01*
X000600Y011250D01*
X000600Y011750D01*
X000850Y012000D01*
X001350Y012000D01*
X001600Y011750D01*
X001600Y011250D01*
X001350Y011000D01*
X001600Y010750D01*
X001600Y010250D01*
X001350Y010000D01*
X001600Y009750D01*
X001600Y009250D01*
X001350Y009000D01*
X001350Y010000D02*
X000850Y010000D01*
X000850Y011000D02*
X001350Y011000D01*
X001350Y012000D02*
X001600Y012250D01*
X001600Y012750D01*
X001350Y013000D01*
X001600Y013250D01*
X001600Y013750D01*
X001350Y014000D01*
X001600Y014250D01*
X001600Y014750D01*
X001350Y015000D01*
X000850Y015000D01*
X000600Y014750D01*
X000600Y014250D01*
X000850Y014000D01*
X001350Y014000D01*
X000850Y014000D02*
X000600Y013750D01*
X000600Y013250D01*
X000850Y013000D01*
X001350Y013000D01*
X000850Y013000D02*
X000600Y012750D01*
X000600Y012250D01*
X000850Y012000D01*
X003600Y014250D02*
X003600Y015250D01*
X004600Y015250D01*
X005600Y015250D01*
X005600Y014250D01*
X004600Y014250D01*
X004600Y015250D01*
X004600Y014250D02*
X003600Y014250D01*
X007600Y014250D02*
X007600Y014750D01*
X007850Y015000D01*
X008350Y015000D01*
X008600Y014750D01*
X008600Y014250D01*
X008350Y014000D01*
X008600Y013750D01*
X008600Y013250D01*
X008350Y013000D01*
X007850Y013000D01*
X007600Y013250D01*
X007600Y013750D01*
X007850Y014000D01*
X007600Y014250D01*
X007850Y014000D02*
X008350Y014000D01*
X008350Y013000D02*
X008600Y012750D01*
X008600Y012250D01*
X008350Y012000D01*
X008600Y011750D01*
X008600Y011250D01*
X008350Y011000D01*
X008600Y010750D01*
X008600Y010250D01*
X008350Y010000D01*
X007850Y010000D01*
X007600Y010250D01*
X007600Y010750D01*
X007850Y011000D01*
X007600Y011250D01*
X007600Y011750D01*
X007850Y012000D01*
X007600Y012250D01*
X007600Y012750D01*
X007850Y013000D01*
X007850Y012000D02*
X008350Y012000D01*
X008350Y011000D02*
X007850Y011000D01*
X007850Y010000D02*
X007600Y009750D01*
X007600Y009250D01*
X007850Y009000D01*
X007600Y008750D01*
X007600Y008250D01*
X007850Y008000D01*
X007600Y007750D01*
X007600Y007250D01*
X007850Y007000D01*
X008350Y007000D01*
X008600Y007250D01*
X008600Y007750D01*
X008350Y008000D01*
X007850Y008000D01*
X008350Y008000D02*
X008600Y008250D01*
X008600Y008750D01*
X008350Y009000D01*
X007850Y009000D01*
X008350Y009000D02*
X008600Y009250D01*
X008600Y009750D01*
X008350Y010000D01*
X011100Y009750D02*
X011100Y009250D01*
X011350Y009000D01*
X011850Y009000D01*
X012100Y008750D01*
X012100Y008250D01*
X011850Y008000D01*
X012100Y007750D01*
X012100Y007250D01*
X011850Y007000D01*
X012100Y006750D01*
X012100Y006250D01*
X011850Y006000D01*
X012100Y005750D01*
X012100Y005250D01*
X011850Y005000D01*
X012100Y004750D01*
X012100Y004250D01*
X011850Y004000D01*
X011350Y004000D01*
X011100Y004250D01*
X011100Y004750D01*
X011350Y005000D01*
X011100Y005250D01*
X011100Y005750D01*
X011350Y006000D01*
X011850Y006000D01*
X011350Y006000D02*
X011100Y006250D01*
X011100Y006750D01*
X011350Y007000D01*
X011100Y007250D01*
X011100Y007750D01*
X011350Y008000D01*
X011100Y008250D01*
X011100Y008750D01*
X011350Y009000D01*
X011850Y009000D02*
X012100Y009250D01*
X012100Y009750D01*
X011850Y010000D01*
X012100Y010250D01*
X012100Y010750D01*
X011850Y011000D01*
X012100Y011250D01*
X012100Y011750D01*
X011850Y012000D01*
X011350Y012000D01*
X011100Y011750D01*
X011100Y011250D01*
X011350Y011000D01*
X011850Y011000D01*
X011350Y011000D02*
X011100Y010750D01*
X011100Y010250D01*
X011350Y010000D01*
X011850Y010000D01*
X011350Y010000D02*
X011100Y009750D01*
X011350Y008000D02*
X011850Y008000D01*
X011850Y007000D02*
X011350Y007000D01*
X011350Y005000D02*
X011850Y005000D01*
X014100Y003750D02*
X014100Y002750D01*
X015100Y002750D01*
X016100Y002750D01*
X016100Y003750D01*
X015100Y003750D01*
X014100Y003750D01*
X015100Y003750D02*
X015100Y002750D01*
X018100Y004250D02*
X018100Y004750D01*
X018350Y005000D01*
X018100Y005250D01*
X018100Y005750D01*
X018350Y006000D01*
X018100Y006250D01*
X018100Y006750D01*
X018350Y007000D01*
X018100Y007250D01*
X018100Y007750D01*
X018350Y008000D01*
X018100Y008250D01*
X018100Y008750D01*
X018350Y009000D01*
X018100Y009250D01*
X018100Y009750D01*
X018350Y010000D01*
X018100Y010250D01*
X018100Y010750D01*
X018350Y011000D01*
X018100Y011250D01*
X018100Y011750D01*
X018350Y012000D01*
X018100Y012250D01*
X018100Y012750D01*
X018350Y013000D01*
X018100Y013250D01*
X018100Y013750D01*
X018350Y014000D01*
X018100Y014250D01*
X018100Y014750D01*
X018350Y015000D01*
X018850Y015000D01*
X019100Y014750D01*
X019100Y014250D01*
X018850Y014000D01*
X019100Y013750D01*
X019100Y013250D01*
X018850Y013000D01*
X018350Y013000D01*
X018850Y013000D02*
X019100Y012750D01*
X019100Y012250D01*
X018850Y012000D01*
X019100Y011750D01*
X019100Y011250D01*
X018850Y011000D01*
X019100Y010750D01*
X019100Y010250D01*
X018850Y010000D01*
X018350Y010000D01*
X018850Y010000D02*
X019100Y009750D01*
X019100Y009250D01*
X018850Y009000D01*
X019100Y008750D01*
X019100Y008250D01*
X018850Y008000D01*
X019100Y007750D01*
X019100Y007250D01*
X018850Y007000D01*
X018350Y007000D01*
X018850Y007000D02*
X019100Y006750D01*
X019100Y006250D01*
X018850Y006000D01*
X019100Y005750D01*
X019100Y005250D01*
X018850Y005000D01*
X019100Y004750D01*
X019100Y004250D01*
X018850Y004000D01*
X018350Y004000D01*
X018100Y004250D01*
X018350Y005000D02*
X018850Y005000D01*
X018850Y006000D02*
X018350Y006000D01*
X018350Y008000D02*
X018850Y008000D01*
X018850Y009000D02*
X018350Y009000D01*
X018350Y011000D02*
X018850Y011000D01*
X018850Y012000D02*
X018350Y012000D01*
X018350Y014000D02*
X018850Y014000D01*
X016100Y014250D02*
X016100Y015250D01*
X015100Y015250D01*
X014100Y015250D01*
X014100Y014250D01*
X015100Y014250D01*
X016100Y014250D01*
X015100Y014250D02*
X015100Y015250D01*
X012100Y014750D02*
X012100Y014250D01*
X011850Y014000D01*
X012100Y013750D01*
X012100Y013250D01*
X011850Y013000D01*
X012100Y012750D01*
X012100Y012250D01*
X011850Y012000D01*
X011350Y012000D02*
X011100Y012250D01*
X011100Y012750D01*
X011350Y013000D01*
X011100Y013250D01*
X011100Y013750D01*
X011350Y014000D01*
X011100Y014250D01*
X011100Y014750D01*
X011350Y015000D01*
X011850Y015000D01*
X012100Y014750D01*
X011850Y014000D02*
X011350Y014000D01*
X011350Y013000D02*
X011850Y013000D01*
X008350Y007000D02*
X008600Y006750D01*
X008600Y006250D01*
X008350Y006000D01*
X008600Y005750D01*
X008600Y005250D01*
X008350Y005000D01*
X008600Y004750D01*
X008600Y004250D01*
X008350Y004000D01*
X007850Y004000D01*
X007600Y004250D01*
X007600Y004750D01*
X007850Y005000D01*
X007600Y005250D01*
X007600Y005750D01*
X007850Y006000D01*
X007600Y006250D01*
X007600Y006750D01*
X007850Y007000D01*
X007850Y006000D02*
X008350Y006000D01*
X008350Y005000D02*
X007850Y005000D01*
D16*
X008100Y004500D03*
X008100Y005500D03*
X008100Y006500D03*
X008100Y007500D03*
X008100Y008500D03*
X008100Y009500D03*
X008100Y010500D03*
X008100Y011500D03*
X008100Y012500D03*
X008100Y013500D03*
X008100Y014500D03*
X011600Y014500D03*
X011600Y013500D03*
X011600Y012500D03*
X011600Y011500D03*
X011600Y010500D03*
X011600Y009500D03*
X011600Y008500D03*
X011600Y007500D03*
X011600Y006500D03*
X011600Y005500D03*
X011600Y004500D03*
X018600Y004500D03*
X018600Y005500D03*
X018600Y006500D03*
X018600Y007500D03*
X018600Y008500D03*
X018600Y009500D03*
X018600Y010500D03*
X018600Y011500D03*
X018600Y012500D03*
X018600Y013500D03*
X018600Y014500D03*
X001100Y014500D03*
X001100Y013500D03*
X001100Y012500D03*
X001100Y011500D03*
X001100Y010500D03*
X001100Y009500D03*
X001100Y008500D03*
X001100Y007500D03*
X001100Y006500D03*
X001100Y005500D03*
X001100Y004500D03*
D17*
X004100Y002500D02*
X004100Y000250D01*
X005100Y000250D02*
X005100Y002500D01*
X014600Y002500D02*
X014600Y000250D01*
X015600Y000250D02*
X015600Y002500D01*
X015600Y015500D02*
X015600Y017750D01*
X014600Y017750D02*
X014600Y015500D01*
X005100Y015500D02*
X005100Y017750D01*
X004100Y017750D02*
X004100Y015500D01*
D18*
X004100Y015350D03*
X005100Y015350D03*
X014600Y015350D03*
X015600Y015350D03*
X015600Y002650D03*
X014600Y002650D03*
X005100Y002650D03*
X004100Y002650D03*
D19*
X004100Y003950D03*
X005100Y003950D03*
X014600Y003950D03*
X015600Y003950D03*
X015600Y014050D03*
X014600Y014050D03*
X005100Y014050D03*
X004100Y014050D03*
M02*
